<svg width="20" height="21" viewBox="0 0 20 21" fill="none" xmlns="http://www.w3.org/2000/svg">
<path fill-rule="evenodd" clip-rule="evenodd" d="M10.293 3.78571C10.4805 3.59824 10.7348 3.49292 11 3.49292C11.2652 3.49292 11.5195 3.59824 11.707 3.78571L17.707 9.78571C17.8945 9.97323 17.9998 10.2275 17.9998 10.4927C17.9998 10.7579 17.8945 11.0122 17.707 11.1997L11.707 17.1997C11.5184 17.3819 11.2658 17.4827 11.0036 17.4804C10.7414 17.4781 10.4906 17.3729 10.3052 17.1875C10.1198 17.0021 10.0146 16.7513 10.0123 16.4891C10.01 16.2269 10.1108 15.9743 10.293 15.7857L14.586 11.4927H3C2.73478 11.4927 2.48043 11.3873 2.29289 11.1998C2.10536 11.0123 2 10.7579 2 10.4927C2 10.2275 2.10536 9.97314 2.29289 9.7856C2.48043 9.59806 2.73478 9.49271 3 9.49271H14.586L10.293 5.19971C10.1055 5.01218 10.0002 4.75787 10.0002 4.49271C10.0002 4.22754 10.1055 3.97323 10.293 3.78571Z" fill="white"/>
</svg>
