<svg width="20" height="21" viewBox="0 0 20 21" fill="none" xmlns="http://www.w3.org/2000/svg">
<path fill-rule="evenodd" clip-rule="evenodd" d="M12.293 5.79279C12.4805 5.60532 12.7348 5.5 13 5.5C13.2652 5.5 13.5195 5.60532 13.707 5.79279L17.707 9.79279C17.8945 9.98031 17.9998 10.2346 17.9998 10.4998C17.9998 10.765 17.8945 11.0193 17.707 11.2068L13.707 15.2068C13.5184 15.3889 13.2658 15.4897 13.0036 15.4875C12.7414 15.4852 12.4906 15.38 12.3052 15.1946C12.1198 15.0092 12.0146 14.7584 12.0123 14.4962C12.01 14.234 12.1108 13.9814 12.293 13.7928L14.586 11.4998H3C2.73478 11.4998 2.48043 11.3944 2.29289 11.2069C2.10536 11.0194 2 10.765 2 10.4998C2 10.2346 2.10536 9.98022 2.29289 9.79268C2.48043 9.60514 2.73478 9.49979 3 9.49979H14.586L12.293 7.20679C12.1055 7.01926 12.0002 6.76495 12.0002 6.49979C12.0002 6.23462 12.1055 5.98031 12.293 5.79279Z" fill="white"/>
</svg>
