<svg width="18" height="18" viewBox="0 0 18 18" fill="none" xmlns="http://www.w3.org/2000/svg">
<rect y="-0.00732422" width="18" height="18" rx="9" fill="#FFE1E4"/>
<path fill-rule="evenodd" clip-rule="evenodd" d="M13.6947 5.69775C13.8259 5.82902 13.8996 6.00703 13.8996 6.19265C13.8996 6.37826 13.8259 6.55628 13.6947 6.68755L8.0947 12.2875C7.96343 12.4188 7.78541 12.4925 7.5998 12.4925C7.41418 12.4925 7.23617 12.4188 7.1049 12.2875L4.3049 9.48755C4.17739 9.35553 4.10683 9.17871 4.10842 8.99517C4.11002 8.81163 4.18364 8.63606 4.31342 8.50628C4.44321 8.37649 4.61878 8.30287 4.80232 8.30128C4.98585 8.29968 5.16268 8.37024 5.2947 8.49775L7.5998 10.8028L12.7049 5.69775C12.8362 5.56652 13.0142 5.4928 13.1998 5.4928C13.3854 5.4928 13.5634 5.56652 13.6947 5.69775Z" fill="#C3002F"/>
</svg>
