<svg width="18" height="19" viewBox="0 0 18 19" fill="none" xmlns="http://www.w3.org/2000/svg">
<rect y="0.273926" width="18" height="18" rx="9" fill="#374151"/>
<path fill-rule="evenodd" clip-rule="evenodd" d="M13.6947 5.979C13.8259 6.11027 13.8996 6.28828 13.8996 6.4739C13.8996 6.65951 13.8259 6.83753 13.6947 6.9688L8.0947 12.5688C7.96343 12.7 7.78541 12.7737 7.5998 12.7737C7.41418 12.7737 7.23617 12.7 7.1049 12.5688L4.3049 9.7688C4.17739 9.63678 4.10683 9.45996 4.10842 9.27642C4.11002 9.09288 4.18364 8.91731 4.31342 8.78753C4.44321 8.65774 4.61878 8.58412 4.80232 8.58253C4.98585 8.58093 5.16268 8.65149 5.2947 8.779L7.5998 11.0841L12.7049 5.979C12.8362 5.84777 13.0142 5.77405 13.1998 5.77405C13.3854 5.77405 13.5634 5.84777 13.6947 5.979Z" fill="#FF2C51"/>
</svg>
