<svg width="20" height="21" viewBox="0 0 20 21" fill="none" xmlns="http://www.w3.org/2000/svg">
<path fill-rule="evenodd" clip-rule="evenodd" d="M7.29279 14.9808C7.10532 14.7933 7 14.539 7 14.2738C7 14.0087 7.10532 13.7544 7.29279 13.5668L10.5858 10.2738L7.29279 6.98084C7.11063 6.79224 7.00983 6.53964 7.01211 6.27744C7.01439 6.01525 7.11956 5.76443 7.30497 5.57903C7.49038 5.39362 7.74119 5.28845 8.00339 5.28617C8.26558 5.28389 8.51818 5.38469 8.70679 5.56685L12.7068 9.56684C12.8943 9.75437 12.9996 10.0087 12.9996 10.2738C12.9996 10.539 12.8943 10.7933 12.7068 10.9808L8.70679 14.9808C8.51926 15.1683 8.26495 15.2736 7.99979 15.2736C7.73462 15.2736 7.48031 15.1683 7.29279 14.9808Z" fill="#FF2C51"/>
</svg>
