<svg width="20" height="20" viewBox="0 0 20 20" fill="none" xmlns="http://www.w3.org/2000/svg">
<path fill-rule="evenodd" clip-rule="evenodd" d="M7.29279 14.6996C7.10532 14.5121 7 14.2578 7 13.9926C7 13.7274 7.10532 13.4731 7.29279 13.2856L10.5858 9.99259L7.29279 6.69959C7.11063 6.51099 7.00983 6.25839 7.01211 5.99619C7.01439 5.734 7.11956 5.48318 7.30497 5.29778C7.49038 5.11237 7.74119 5.0072 8.00339 5.00492C8.26558 5.00264 8.51818 5.10344 8.70679 5.2856L12.7068 9.28559C12.8943 9.47312 12.9996 9.72743 12.9996 9.99259C12.9996 10.2578 12.8943 10.5121 12.7068 10.6996L8.70679 14.6996C8.51926 14.8871 8.26495 14.9924 7.99979 14.9924C7.73462 14.9924 7.48031 14.8871 7.29279 14.6996Z" fill="#F6083B"/>
</svg>
