<svg width="18" height="18" viewBox="0 0 18 18" fill="none" xmlns="http://www.w3.org/2000/svg">
<rect y="-0.00732422" width="18" height="18" rx="9" fill="#FFE1E4"/>
<path d="M8.3001 3.39258C8.11445 3.39258 7.9364 3.46633 7.80512 3.5976C7.67385 3.72888 7.6001 3.90693 7.6001 4.09258C7.6001 4.27823 7.67385 4.45628 7.80512 4.58755C7.9364 4.71883 8.11445 4.79258 8.3001 4.79258H9.7001C9.88575 4.79258 10.0638 4.71883 10.1951 4.58755C10.3263 4.45628 10.4001 4.27823 10.4001 4.09258C10.4001 3.90693 10.3263 3.72888 10.1951 3.5976C10.0638 3.46633 9.88575 3.39258 9.7001 3.39258H8.3001Z" fill="#C3002F"/>
<path fill-rule="evenodd" clip-rule="evenodd" d="M4.7998 5.49277C4.7998 5.12147 4.9473 4.76537 5.20986 4.50282C5.47241 4.24027 5.8285 4.09277 6.1998 4.09277C6.1998 4.64973 6.42105 5.18387 6.81488 5.5777C7.20871 5.97152 7.74285 6.19277 8.2998 6.19277H9.6998C10.2568 6.19277 10.7909 5.97152 11.1847 5.5777C11.5786 5.18387 11.7998 4.64973 11.7998 4.09277C12.1711 4.09277 12.5272 4.24027 12.7898 4.50282C13.0523 4.76537 13.1998 5.12147 13.1998 5.49277V13.1928C13.1998 13.5641 13.0523 13.9202 12.7898 14.1827C12.5272 14.4453 12.1711 14.5928 11.7998 14.5928H6.1998C5.8285 14.5928 5.47241 14.4453 5.20986 14.1827C4.9473 13.9202 4.7998 13.5641 4.7998 13.1928V5.49277ZM6.8998 8.29277C6.71415 8.29277 6.53611 8.36652 6.40483 8.4978C6.27355 8.62907 6.1998 8.80712 6.1998 8.99277C6.1998 9.17842 6.27355 9.35647 6.40483 9.48775C6.53611 9.61902 6.71415 9.69277 6.8998 9.69277H6.9068C7.09246 9.69277 7.2705 9.61902 7.40178 9.48775C7.53305 9.35647 7.6068 9.17842 7.6068 8.99277C7.6068 8.80712 7.53305 8.62907 7.40178 8.4978C7.2705 8.36652 7.09246 8.29277 6.9068 8.29277H6.8998ZM8.9998 8.29277C8.81415 8.29277 8.63611 8.36652 8.50483 8.4978C8.37355 8.62907 8.2998 8.80712 8.2998 8.99277C8.2998 9.17842 8.37355 9.35647 8.50483 9.48775C8.63611 9.61902 8.81415 9.69277 8.9998 9.69277H11.0998C11.2855 9.69277 11.4635 9.61902 11.5948 9.48775C11.7261 9.35647 11.7998 9.17842 11.7998 8.99277C11.7998 8.80712 11.7261 8.62907 11.5948 8.4978C11.4635 8.36652 11.2855 8.29277 11.0998 8.29277H8.9998ZM6.8998 11.0928C6.71415 11.0928 6.53611 11.1665 6.40483 11.2978C6.27355 11.4291 6.1998 11.6071 6.1998 11.7928C6.1998 11.9784 6.27355 12.1565 6.40483 12.2877C6.53611 12.419 6.71415 12.4928 6.8998 12.4928H6.9068C7.09246 12.4928 7.2705 12.419 7.40178 12.2877C7.53305 12.1565 7.6068 11.9784 7.6068 11.7928C7.6068 11.6071 7.53305 11.4291 7.40178 11.2978C7.2705 11.1665 7.09246 11.0928 6.9068 11.0928H6.8998ZM8.9998 11.0928C8.81415 11.0928 8.63611 11.1665 8.50483 11.2978C8.37355 11.4291 8.2998 11.6071 8.2998 11.7928C8.2998 11.9784 8.37355 12.1565 8.50483 12.2877C8.63611 12.419 8.81415 12.4928 8.9998 12.4928H11.0998C11.2855 12.4928 11.4635 12.419 11.5948 12.2877C11.7261 12.1565 11.7998 11.9784 11.7998 11.7928C11.7998 11.6071 11.7261 11.4291 11.5948 11.2978C11.4635 11.1665 11.2855 11.0928 11.0998 11.0928H8.9998Z" fill="#C3002F"/>
</svg>
