<svg width="14" height="15" viewBox="0 0 14 15" fill="none" xmlns="http://www.w3.org/2000/svg">
<path d="M6.29961 1.67383C6.11396 1.67383 5.93591 1.74758 5.80463 1.87885C5.67336 2.01013 5.59961 2.18818 5.59961 2.37383C5.59961 2.55948 5.67336 2.73753 5.80463 2.8688C5.93591 3.00008 6.11396 3.07383 6.29961 3.07383H7.69961C7.88526 3.07383 8.06331 3.00008 8.19458 2.8688C8.32586 2.73753 8.39961 2.55948 8.39961 2.37383C8.39961 2.18818 8.32586 2.01013 8.19458 1.87885C8.06331 1.74758 7.88526 1.67383 7.69961 1.67383H6.29961Z" fill="#FF2C51"/>
<path fill-rule="evenodd" clip-rule="evenodd" d="M2.7998 3.77402C2.7998 3.40272 2.9473 3.04662 3.20986 2.78407C3.47241 2.52152 3.8285 2.37402 4.1998 2.37402C4.1998 2.93098 4.42105 3.46512 4.81488 3.85895C5.20871 4.25277 5.74285 4.47402 6.2998 4.47402H7.6998C8.25676 4.47402 8.7909 4.25277 9.18473 3.85895C9.57856 3.46512 9.7998 2.93098 9.7998 2.37402C10.1711 2.37402 10.5272 2.52152 10.7898 2.78407C11.0523 3.04662 11.1998 3.40272 11.1998 3.77402V11.474C11.1998 11.8453 11.0523 12.2014 10.7898 12.464C10.5272 12.7265 10.1711 12.874 9.7998 12.874H4.1998C3.8285 12.874 3.47241 12.7265 3.20986 12.464C2.9473 12.2014 2.7998 11.8453 2.7998 11.474V3.77402ZM4.8998 6.57402C4.71415 6.57402 4.53611 6.64777 4.40483 6.77905C4.27355 6.91032 4.1998 7.08837 4.1998 7.27402C4.1998 7.45967 4.27355 7.63772 4.40483 7.769C4.53611 7.90027 4.71415 7.97402 4.8998 7.97402H4.9068C5.09246 7.97402 5.2705 7.90027 5.40178 7.769C5.53305 7.63772 5.6068 7.45967 5.6068 7.27402C5.6068 7.08837 5.53305 6.91032 5.40178 6.77905C5.2705 6.64777 5.09246 6.57402 4.9068 6.57402H4.8998ZM6.9998 6.57402C6.81415 6.57402 6.63611 6.64777 6.50483 6.77905C6.37355 6.91032 6.2998 7.08837 6.2998 7.27402C6.2998 7.45967 6.37355 7.63772 6.50483 7.769C6.63611 7.90027 6.81415 7.97402 6.9998 7.97402H9.0998C9.28546 7.97402 9.4635 7.90027 9.59478 7.769C9.72605 7.63772 9.7998 7.45967 9.7998 7.27402C9.7998 7.08837 9.72605 6.91032 9.59478 6.77905C9.4635 6.64777 9.28546 6.57402 9.0998 6.57402H6.9998ZM4.8998 9.37402C4.71415 9.37402 4.53611 9.44777 4.40483 9.57905C4.27355 9.71032 4.1998 9.88837 4.1998 10.074C4.1998 10.2597 4.27355 10.4377 4.40483 10.569C4.53611 10.7003 4.71415 10.774 4.8998 10.774H4.9068C5.09246 10.774 5.2705 10.7003 5.40178 10.569C5.53305 10.4377 5.6068 10.2597 5.6068 10.074C5.6068 9.88837 5.53305 9.71032 5.40178 9.57905C5.2705 9.44777 5.09246 9.37402 4.9068 9.37402H4.8998ZM6.9998 9.37402C6.81415 9.37402 6.63611 9.44777 6.50483 9.57905C6.37355 9.71032 6.2998 9.88837 6.2998 10.074C6.2998 10.2597 6.37355 10.4377 6.50483 10.569C6.63611 10.7003 6.81415 10.774 6.9998 10.774H9.0998C9.28546 10.774 9.4635 10.7003 9.59478 10.569C9.72605 10.4377 9.7998 10.2597 9.7998 10.074C9.7998 9.88837 9.72605 9.71032 9.59478 9.57905C9.4635 9.44777 9.28546 9.37402 9.0998 9.37402H6.9998Z" fill="#FF2C51"/>
</svg>
