<svg width="14" height="15" viewBox="0 0 14 15" fill="none" xmlns="http://www.w3.org/2000/svg">
<path d="M6.99961 8.67402C7.37091 8.67402 7.72701 8.52652 7.98956 8.26397C8.25211 8.00142 8.39961 7.64533 8.39961 7.27402C8.39961 6.90272 8.25211 6.54663 7.98956 6.28407C7.72701 6.02152 7.37091 5.87402 6.99961 5.87402C6.62831 5.87402 6.27221 6.02152 6.00966 6.28407C5.74711 6.54663 5.59961 6.90272 5.59961 7.27402C5.59961 7.64533 5.74711 8.00142 6.00966 8.26397C6.27221 8.52652 6.62831 8.67402 6.99961 8.67402Z" fill="#FF2C51"/>
<path fill-rule="evenodd" clip-rule="evenodd" d="M0.320312 7.27402C1.21211 4.43412 3.86511 2.37402 6.99971 2.37402C10.1343 2.37402 12.7873 4.43412 13.6791 7.27402C12.7873 10.1139 10.1343 12.174 6.99971 12.174C3.86511 12.174 1.21211 10.1139 0.320312 7.27402ZM9.79971 7.27402C9.79971 8.01663 9.50471 8.72882 8.97961 9.25392C8.45451 9.77902 7.74232 10.074 6.99971 10.074C6.25711 10.074 5.54492 9.77902 5.01981 9.25392C4.49471 8.72882 4.19971 8.01663 4.19971 7.27402C4.19971 6.53142 4.49471 5.81923 5.01981 5.29412C5.54492 4.76902 6.25711 4.47402 6.99971 4.47402C7.74232 4.47402 8.45451 4.76902 8.97961 5.29412C9.50471 5.81923 9.79971 6.53142 9.79971 7.27402Z" fill="#FF2C51"/>
</svg>
