<svg width="14" height="14" viewBox="0 0 14 14" fill="none" xmlns="http://www.w3.org/2000/svg">
<path d="M7.0001 8.39277C7.3714 8.39277 7.7275 8.24527 7.99005 7.98272C8.2526 7.72017 8.4001 7.36408 8.4001 6.99277C8.4001 6.62147 8.2526 6.26538 7.99005 6.00282C7.7275 5.74027 7.3714 5.59277 7.0001 5.59277C6.62879 5.59277 6.2727 5.74027 6.01015 6.00282C5.7476 6.26538 5.6001 6.62147 5.6001 6.99277C5.6001 7.36408 5.7476 7.72017 6.01015 7.98272C6.2727 8.24527 6.62879 8.39277 7.0001 8.39277Z" fill="#C3002F"/>
<path fill-rule="evenodd" clip-rule="evenodd" d="M0.320801 6.99277C1.2126 4.15287 3.8656 2.09277 7.0002 2.09277C10.1348 2.09277 12.7878 4.15287 13.6796 6.99277C12.7878 9.83267 10.1348 11.8928 7.0002 11.8928C3.8656 11.8928 1.2126 9.83267 0.320801 6.99277ZM9.8002 6.99277C9.8002 7.73538 9.5052 8.44757 8.9801 8.97267C8.455 9.49777 7.74281 9.79277 7.0002 9.79277C6.25759 9.79277 5.5454 9.49777 5.0203 8.97267C4.4952 8.44757 4.2002 7.73538 4.2002 6.99277C4.2002 6.25017 4.4952 5.53798 5.0203 5.01287C5.5454 4.48777 6.25759 4.19277 7.0002 4.19277C7.74281 4.19277 8.455 4.48777 8.9801 5.01287C9.5052 5.53798 9.8002 6.25017 9.8002 6.99277Z" fill="#C3002F"/>
</svg>
