<svg width="32" height="33" viewBox="0 0 32 33" fill="none" xmlns="http://www.w3.org/2000/svg">
<path d="M27.6684 21.5428C25.298 22.615 22.6572 22.9394 20.0978 22.4729C17.5384 22.0063 15.1819 20.7709 13.3423 18.9313C11.5027 17.0917 10.2673 14.7353 9.8008 12.1758C9.33424 9.61643 9.65866 6.97561 10.7308 4.60522C8.84373 5.45804 7.19169 6.75594 5.91644 8.38756C4.64119 10.0192 3.7808 11.9358 3.40909 13.973C3.03738 16.0103 3.16544 18.1073 3.78229 20.0841C4.39914 22.061 5.48636 23.8587 6.95068 25.323C8.41499 26.7873 10.2127 27.8745 12.1895 28.4914C14.1664 29.1082 16.2634 29.2363 18.3006 28.8646C20.3378 28.4929 22.2545 27.6325 23.8861 26.3572C25.5177 25.082 26.8156 23.4299 27.6684 21.5428Z" fill="#9CA3AF"/>
</svg>
