<svg width="32" height="32" viewBox="0 0 32 32" fill="none" xmlns="http://www.w3.org/2000/svg">
<path d="M27.6689 21.2616C25.2985 22.3337 22.6577 22.6582 20.0983 22.1916C17.5389 21.7251 15.1824 20.4897 13.3428 18.6501C11.5032 16.8105 10.2678 14.454 9.80128 11.8946C9.33473 9.33518 9.65915 6.69436 10.7313 4.32397C8.84422 5.17679 7.19218 6.47469 5.91693 8.10631C4.64168 9.73793 3.78129 11.6546 3.40958 13.6918C3.03787 15.729 3.16593 17.826 3.78278 19.8029C4.39963 21.7797 5.48685 23.5774 6.95116 25.0417C8.41548 26.5061 10.2132 27.5933 12.19 28.2101C14.1669 28.827 16.2639 28.955 18.3011 28.5833C20.3383 28.2116 22.255 27.3512 23.8866 26.076C25.5182 24.8007 26.8161 23.1487 27.6689 21.2616Z" fill="#6B7280"/>
</svg>
