<svg width="32" height="33" viewBox="0 0 32 33" fill="none" xmlns="http://www.w3.org/2000/svg">
<path fill-rule="evenodd" clip-rule="evenodd" d="M16.0002 3.47388C16.4245 3.47388 16.8315 3.64245 17.1316 3.94251C17.4316 4.24256 17.6002 4.64953 17.6002 5.07388V6.67388C17.6002 7.09822 17.4316 7.50519 17.1316 7.80525C16.8315 8.10531 16.4245 8.27388 16.0002 8.27388C15.5758 8.27388 15.1689 8.10531 14.8688 7.80525C14.5688 7.50519 14.4002 7.09822 14.4002 6.67388V5.07388C14.4002 4.64953 14.5688 4.24256 14.8688 3.94251C15.1689 3.64245 15.5758 3.47388 16.0002 3.47388ZM22.4002 16.2739C22.4002 17.9713 21.7259 19.5991 20.5257 20.7994C19.3254 21.9996 17.6976 22.6739 16.0002 22.6739C14.3028 22.6739 12.6749 21.9996 11.4747 20.7994C10.2745 19.5991 9.60019 17.9713 9.60019 16.2739C9.60019 14.5765 10.2745 12.9486 11.4747 11.7484C12.6749 10.5482 14.3028 9.87388 16.0002 9.87388C17.6976 9.87388 19.3254 10.5482 20.5257 11.7484C21.7259 12.9486 22.4002 14.5765 22.4002 16.2739ZM21.6578 24.1939L22.789 25.3251C23.0908 25.6165 23.4949 25.7778 23.9144 25.7742C24.334 25.7705 24.7353 25.6022 25.0319 25.3056C25.3286 25.0089 25.4968 24.6076 25.5005 24.1881C25.5041 23.7686 25.3428 23.3644 25.0514 23.0627L23.9202 21.9315C23.6184 21.64 23.2143 21.4788 22.7948 21.4824C22.3752 21.486 21.9739 21.6543 21.6773 21.951C21.3806 22.2476 21.2124 22.6489 21.2087 23.0684C21.2051 23.4879 21.3663 23.8921 21.6578 24.1939ZM25.0498 7.22268C25.3497 7.52272 25.5183 7.92961 25.5183 8.35388C25.5183 8.77814 25.3497 9.18503 25.0498 9.48508L23.9202 10.6163C23.7726 10.7691 23.596 10.891 23.4008 10.9748C23.2056 11.0587 22.9957 11.1028 22.7832 11.1047C22.5708 11.1065 22.3601 11.066 22.1635 10.9856C21.9668 10.9051 21.7882 10.7863 21.638 10.6361C21.4877 10.4859 21.3689 10.3072 21.2885 10.1106C21.208 9.91397 21.1675 9.70328 21.1694 9.49083C21.1712 9.27839 21.2154 9.06844 21.2992 8.87323C21.3831 8.67802 21.505 8.50147 21.6578 8.35388L22.789 7.22268C23.089 6.92272 23.4959 6.75422 23.9202 6.75422C24.3445 6.75422 24.7513 6.92272 25.0514 7.22268H25.0498ZM27.2002 17.8739C27.6245 17.8739 28.0315 17.7053 28.3316 17.4052C28.6316 17.1052 28.8002 16.6982 28.8002 16.2739C28.8002 15.8495 28.6316 15.4426 28.3316 15.1425C28.0315 14.8424 27.6245 14.6739 27.2002 14.6739H25.6002C25.1758 14.6739 24.7689 14.8424 24.4688 15.1425C24.1688 15.4426 24.0002 15.8495 24.0002 16.2739C24.0002 16.6982 24.1688 17.1052 24.4688 17.4052C24.7689 17.7053 25.1758 17.8739 25.6002 17.8739H27.2002ZM16.0002 24.2739C16.4245 24.2739 16.8315 24.4424 17.1316 24.7425C17.4316 25.0426 17.6002 25.4495 17.6002 25.8739V27.4739C17.6002 27.8982 17.4316 28.3052 17.1316 28.6052C16.8315 28.9053 16.4245 29.0739 16.0002 29.0739C15.5758 29.0739 15.1689 28.9053 14.8688 28.6052C14.5688 28.3052 14.4002 27.8982 14.4002 27.4739V25.8739C14.4002 25.4495 14.5688 25.0426 14.8688 24.7425C15.1689 24.4424 15.5758 24.2739 16.0002 24.2739ZM8.0802 10.6163C8.22875 10.7649 8.40512 10.8829 8.59926 10.9634C8.79339 11.0439 9.00147 11.0853 9.21163 11.0854C9.42179 11.0855 9.6299 11.0442 9.82409 10.9638C10.0183 10.8834 10.1947 10.7656 10.3434 10.6171C10.4921 10.4685 10.61 10.2921 10.6905 10.098C10.771 9.90388 10.8124 9.6958 10.8125 9.48564C10.8126 9.27549 10.7713 9.06737 10.6909 8.87318C10.6106 8.67899 10.4927 8.50253 10.3442 8.35388L9.21139 7.22268C8.90963 6.93122 8.50547 6.76995 8.08595 6.7736C7.66644 6.77724 7.26514 6.94551 6.96849 7.24217C6.67183 7.53882 6.50356 7.94012 6.49992 8.35963C6.49627 8.77915 6.65754 9.18331 6.94899 9.48508L8.0802 10.6163ZM10.3426 24.1939L9.21139 25.3251C8.90963 25.6165 8.50547 25.7778 8.08595 25.7742C7.66644 25.7705 7.26514 25.6022 6.96849 25.3056C6.67183 25.0089 6.50356 24.6076 6.49992 24.1881C6.49627 23.7686 6.65754 23.3644 6.94899 23.0627L8.0802 21.9315C8.38196 21.64 8.78612 21.4788 9.20564 21.4824C9.62515 21.486 10.0265 21.6543 10.3231 21.951C10.6198 22.2476 10.788 22.6489 10.7917 23.0684C10.7953 23.4879 10.634 23.8921 10.3426 24.1939ZM6.4002 17.8739C6.82454 17.8739 7.23151 17.7053 7.53157 17.4052C7.83162 17.1052 8.0002 16.6982 8.0002 16.2739C8.0002 15.8495 7.83162 15.4426 7.53157 15.1425C7.23151 14.8424 6.82454 14.6739 6.4002 14.6739H4.8002C4.37585 14.6739 3.96888 14.8424 3.66882 15.1425C3.36877 15.4426 3.2002 15.8495 3.2002 16.2739C3.2002 16.6982 3.36877 17.1052 3.66882 17.4052C3.96888 17.7053 4.37585 17.8739 4.8002 17.8739H6.4002Z" fill="white"/>
</svg>
