<svg width="32" height="32" viewBox="0 0 32 32" fill="none" xmlns="http://www.w3.org/2000/svg">
<path fill-rule="evenodd" clip-rule="evenodd" d="M16.0002 3.19263C16.4245 3.19263 16.8315 3.3612 17.1316 3.66126C17.4316 3.96131 17.6002 4.36828 17.6002 4.79263V6.39263C17.6002 6.81697 17.4316 7.22394 17.1316 7.524C16.8315 7.82406 16.4245 7.99263 16.0002 7.99263C15.5758 7.99263 15.1689 7.82406 14.8688 7.524C14.5688 7.22394 14.4002 6.81697 14.4002 6.39263V4.79263C14.4002 4.36828 14.5688 3.96131 14.8688 3.66126C15.1689 3.3612 15.5758 3.19263 16.0002 3.19263ZM22.4002 15.9926C22.4002 17.69 21.7259 19.3179 20.5257 20.5181C19.3254 21.7183 17.6976 22.3926 16.0002 22.3926C14.3028 22.3926 12.6749 21.7183 11.4747 20.5181C10.2745 19.3179 9.60019 17.69 9.60019 15.9926C9.60019 14.2952 10.2745 12.6674 11.4747 11.4671C12.6749 10.2669 14.3028 9.59263 16.0002 9.59263C17.6976 9.59263 19.3254 10.2669 20.5257 11.4671C21.7259 12.6674 22.4002 14.2952 22.4002 15.9926ZM21.6578 23.9126L22.789 25.0438C23.0908 25.3353 23.4949 25.4965 23.9144 25.4929C24.334 25.4893 24.7353 25.321 25.0319 25.0243C25.3286 24.7277 25.4968 24.3264 25.5005 23.9069C25.5041 23.4874 25.3428 23.0832 25.0514 22.7814L23.9202 21.6502C23.6184 21.3588 23.2143 21.1975 22.7948 21.2011C22.3752 21.2048 21.9739 21.3731 21.6773 21.6697C21.3806 21.9664 21.2124 22.3677 21.2087 22.7872C21.2051 23.2067 21.3663 23.6109 21.6578 23.9126ZM25.0498 6.94143C25.3497 7.24147 25.5183 7.64836 25.5183 8.07263C25.5183 8.49689 25.3497 8.90378 25.0498 9.20383L23.9202 10.335C23.7726 10.4878 23.596 10.6097 23.4008 10.6936C23.2056 10.7774 22.9957 10.8216 22.7832 10.8234C22.5708 10.8253 22.3601 10.7848 22.1635 10.7043C21.9668 10.6239 21.7882 10.5051 21.638 10.3549C21.4877 10.2046 21.3689 10.026 21.2885 9.82935C21.208 9.63272 21.1675 9.42203 21.1694 9.20958C21.1712 8.99714 21.2154 8.78719 21.2992 8.59198C21.3831 8.39677 21.505 8.22022 21.6578 8.07263L22.789 6.94143C23.089 6.64147 23.4959 6.47297 23.9202 6.47297C24.3445 6.47297 24.7513 6.64147 25.0514 6.94143H25.0498ZM27.2002 17.5926C27.6245 17.5926 28.0315 17.4241 28.3316 17.124C28.6316 16.8239 28.8002 16.417 28.8002 15.9926C28.8002 15.5683 28.6316 15.1613 28.3316 14.8613C28.0315 14.5612 27.6245 14.3926 27.2002 14.3926H25.6002C25.1758 14.3926 24.7689 14.5612 24.4688 14.8613C24.1688 15.1613 24.0002 15.5683 24.0002 15.9926C24.0002 16.417 24.1688 16.8239 24.4688 17.124C24.7689 17.4241 25.1758 17.5926 25.6002 17.5926H27.2002ZM16.0002 23.9926C16.4245 23.9926 16.8315 24.1612 17.1316 24.4613C17.4316 24.7613 17.6002 25.1683 17.6002 25.5926V27.1926C17.6002 27.617 17.4316 28.0239 17.1316 28.324C16.8315 28.6241 16.4245 28.7926 16.0002 28.7926C15.5758 28.7926 15.1689 28.6241 14.8688 28.324C14.5688 28.0239 14.4002 27.617 14.4002 27.1926V25.5926C14.4002 25.1683 14.5688 24.7613 14.8688 24.4613C15.1689 24.1612 15.5758 23.9926 16.0002 23.9926ZM8.0802 10.335C8.22875 10.4837 8.40512 10.6016 8.59926 10.6821C8.79339 10.7626 9.00147 10.8041 9.21163 10.8042C9.42179 10.8042 9.6299 10.7629 9.82409 10.6825C10.0183 10.6022 10.1947 10.4844 10.3434 10.3358C10.4921 10.1873 10.61 10.0109 10.6905 9.81677C10.771 9.62263 10.8124 9.41455 10.8125 9.20439C10.8126 8.99424 10.7713 8.78612 10.6909 8.59193C10.6106 8.39774 10.4927 8.22128 10.3442 8.07263L9.21139 6.94143C8.90963 6.64997 8.50547 6.4887 8.08595 6.49235C7.66644 6.49599 7.26514 6.66426 6.96849 6.96092C6.67183 7.25757 6.50356 7.65887 6.49992 8.07838C6.49627 8.4979 6.65754 8.90206 6.94899 9.20383L8.0802 10.335ZM10.3426 23.9126L9.21139 25.0438C8.90963 25.3353 8.50547 25.4965 8.08595 25.4929C7.66644 25.4893 7.26514 25.321 6.96849 25.0243C6.67183 24.7277 6.50356 24.3264 6.49992 23.9069C6.49627 23.4874 6.65754 23.0832 6.94899 22.7814L8.0802 21.6502C8.38196 21.3588 8.78612 21.1975 9.20564 21.2011C9.62515 21.2048 10.0265 21.3731 10.3231 21.6697C10.6198 21.9664 10.788 22.3677 10.7917 22.7872C10.7953 23.2067 10.634 23.6109 10.3426 23.9126ZM6.4002 17.5926C6.82454 17.5926 7.23151 17.4241 7.53157 17.124C7.83162 16.8239 8.0002 16.417 8.0002 15.9926C8.0002 15.5683 7.83162 15.1613 7.53157 14.8613C7.23151 14.5612 6.82454 14.3926 6.4002 14.3926H4.8002C4.37585 14.3926 3.96888 14.5612 3.66882 14.8613C3.36877 15.1613 3.2002 15.5683 3.2002 15.9926C3.2002 16.417 3.36877 16.8239 3.66882 17.124C3.96888 17.4241 4.37585 17.5926 4.8002 17.5926H6.4002Z" fill="white"/>
</svg>
