<svg width="14" height="14" viewBox="0 0 14 14" fill="none" xmlns="http://www.w3.org/2000/svg">
<path d="M9.1002 4.19277C9.1002 4.74973 8.87895 5.28387 8.48512 5.6777C8.09129 6.07152 7.55715 6.29277 7.0002 6.29277C6.44324 6.29277 5.9091 6.07152 5.51527 5.6777C5.12145 5.28387 4.9002 4.74973 4.9002 4.19277C4.9002 3.63582 5.12145 3.10168 5.51527 2.70785C5.9091 2.31402 6.44324 2.09277 7.0002 2.09277C7.55715 2.09277 8.09129 2.31402 8.48512 2.70785C8.87895 3.10168 9.1002 3.63582 9.1002 4.19277ZM12.6002 5.59277C12.6002 5.96408 12.4527 6.32017 12.1901 6.58272C11.9276 6.84527 11.5715 6.99277 11.2002 6.99277C10.8289 6.99277 10.4728 6.84527 10.2102 6.58272C9.9477 6.32017 9.8002 5.96408 9.8002 5.59277C9.8002 5.22147 9.9477 4.86537 10.2102 4.60282C10.4728 4.34027 10.8289 4.19277 11.2002 4.19277C11.5715 4.19277 11.9276 4.34027 12.1901 4.60282C12.4527 4.86537 12.6002 5.22147 12.6002 5.59277ZM9.8002 10.4928C9.8002 9.75017 9.5052 9.03798 8.98009 8.51287C8.45499 7.98777 7.7428 7.69277 7.0002 7.69277C6.25759 7.69277 5.5454 7.98777 5.0203 8.51287C4.49519 9.03798 4.2002 9.75017 4.2002 10.4928V12.5928H9.8002V10.4928ZM4.2002 5.59277C4.2002 5.96408 4.0527 6.32017 3.79015 6.58272C3.52759 6.84527 3.1715 6.99277 2.8002 6.99277C2.42889 6.99277 2.0728 6.84527 1.81025 6.58272C1.5477 6.32017 1.4002 5.96408 1.4002 5.59277C1.4002 5.22147 1.5477 4.86537 1.81025 4.60282C2.0728 4.34027 2.42889 4.19277 2.8002 4.19277C3.1715 4.19277 3.52759 4.34027 3.79015 4.60282C4.0527 4.86537 4.2002 5.22147 4.2002 5.59277ZM11.2002 12.5928V10.4928C11.2012 9.78107 11.0205 9.08089 10.6752 8.45857C10.9855 8.37915 11.3099 8.37166 11.6236 8.43668C11.9373 8.50169 12.232 8.63749 12.4852 8.83371C12.7384 9.02993 12.9434 9.2814 13.0847 9.56892C13.2259 9.85644 13.2996 10.1724 13.3002 10.4928V12.5928H11.2002ZM3.3252 8.45857C2.97992 9.08091 2.79921 9.78108 2.8002 10.4928V12.5928H0.700195V10.4928C0.700061 10.1722 0.77332 9.85585 0.914358 9.56797C1.0554 9.2801 1.26047 9.02833 1.51386 8.83196C1.76726 8.6356 2.06224 8.49986 2.37621 8.43514C2.69018 8.37041 3.0148 8.37843 3.3252 8.45857Z" fill="#C3002F"/>
</svg>
