<svg width="14" height="15" viewBox="0 0 14 15" fill="none" xmlns="http://www.w3.org/2000/svg">
<path d="M9.1002 4.47402C9.1002 5.03098 8.87895 5.56512 8.48512 5.95895C8.09129 6.35277 7.55715 6.57402 7.0002 6.57402C6.44324 6.57402 5.9091 6.35277 5.51527 5.95895C5.12145 5.56512 4.9002 5.03098 4.9002 4.47402C4.9002 3.91707 5.12145 3.38293 5.51527 2.9891C5.9091 2.59527 6.44324 2.37402 7.0002 2.37402C7.55715 2.37402 8.09129 2.59527 8.48512 2.9891C8.87895 3.38293 9.1002 3.91707 9.1002 4.47402ZM12.6002 5.87402C12.6002 6.24533 12.4527 6.60142 12.1901 6.86397C11.9276 7.12652 11.5715 7.27402 11.2002 7.27402C10.8289 7.27402 10.4728 7.12652 10.2102 6.86397C9.9477 6.60142 9.8002 6.24533 9.8002 5.87402C9.8002 5.50272 9.9477 5.14662 10.2102 4.88407C10.4728 4.62152 10.8289 4.47402 11.2002 4.47402C11.5715 4.47402 11.9276 4.62152 12.1901 4.88407C12.4527 5.14662 12.6002 5.50272 12.6002 5.87402ZM9.8002 10.774C9.8002 10.0314 9.5052 9.31923 8.98009 8.79412C8.45499 8.26902 7.7428 7.97402 7.0002 7.97402C6.25759 7.97402 5.5454 8.26902 5.0203 8.79412C4.49519 9.31923 4.2002 10.0314 4.2002 10.774V12.874H9.8002V10.774ZM4.2002 5.87402C4.2002 6.24533 4.0527 6.60142 3.79015 6.86397C3.52759 7.12652 3.1715 7.27402 2.8002 7.27402C2.42889 7.27402 2.0728 7.12652 1.81025 6.86397C1.5477 6.60142 1.4002 6.24533 1.4002 5.87402C1.4002 5.50272 1.5477 5.14662 1.81025 4.88407C2.0728 4.62152 2.42889 4.47402 2.8002 4.47402C3.1715 4.47402 3.52759 4.62152 3.79015 4.88407C4.0527 5.14662 4.2002 5.50272 4.2002 5.87402ZM11.2002 12.874V10.774C11.2012 10.0623 11.0205 9.36214 10.6752 8.73982C10.9855 8.6604 11.3099 8.65291 11.6236 8.71793C11.9373 8.78294 12.232 8.91874 12.4852 9.11496C12.7384 9.31118 12.9434 9.56265 13.0847 9.85017C13.2259 10.1377 13.2996 10.4537 13.3002 10.774V12.874H11.2002ZM3.3252 8.73982C2.97992 9.36216 2.79921 10.0623 2.8002 10.774V12.874H0.700195V10.774C0.700061 10.4535 0.77332 10.1371 0.914358 9.84922C1.0554 9.56135 1.26047 9.30958 1.51386 9.11321C1.76726 8.91685 2.06224 8.78111 2.37621 8.71639C2.69018 8.65166 3.0148 8.65968 3.3252 8.73982Z" fill="#FF2C51"/>
</svg>
