<svg width="138" height="48" viewBox="0 0 138 48" fill="none" xmlns="http://www.w3.org/2000/svg">
<g clip-path="url(#clip0_1005_171515)">
<path d="M12.5695 25.1072H7.85985L10.3682 16.923L12.5695 25.1072ZM5.41701 34.1264L7.02487 28.7369H13.37L14.8744 34.1126H20.7399L14.9123 13.6176C14.5673 12.4065 13.8427 11.8476 12.5695 11.8476H4.2508V13.7832H4.94087C5.81035 13.7832 6.2796 14.1283 6.2796 14.7873C6.2796 15.2255 6.18299 15.5912 5.83795 16.5883L0 34.1264H5.41701Z" fill="#003781"/>
<path d="M27.5267 34.1264V13.5555C27.5267 12.4824 26.8988 11.8476 25.8602 11.8476H20.702V13.7832H21.047C21.913 13.7832 22.2822 14.1524 22.2822 15.0288V34.1264H27.5267Z" fill="#003781"/>
<path d="M36.4424 34.1264V13.5555C36.4424 12.4824 35.8041 11.8476 34.7724 11.8476H29.6314V13.7832H29.9764C30.8459 13.7832 31.2151 14.1524 31.2151 15.0288V34.1264H36.4424Z" fill="#003781"/>
<path d="M45.5892 13.8798C45.5892 12.3858 44.4816 11.4646 42.5839 11.4646C40.6863 11.4646 39.5718 12.3686 39.5718 13.8798C39.5718 15.3911 40.7139 16.2951 42.5839 16.2951C44.454 16.2951 45.5892 15.398 45.5892 13.8798ZM45.4891 34.1264V19.1312C45.4891 18.0616 44.8543 17.4302 43.8157 17.4302H38.7403V19.3279H39.0405C39.9065 19.3279 40.2757 19.7281 40.2757 20.5976V34.1264H45.4891Z" fill="#003781"/>
<path d="M56.9718 26.1078V29.3546C56.0989 30.2551 55.0362 30.8071 54.1356 30.8071C53.2351 30.8071 52.8659 30.3448 52.8659 29.082C52.8659 27.8192 53.1281 27.2844 54.0666 26.9221C55.0011 26.5416 55.9757 26.2685 56.9718 26.1078ZM49.9193 22.2089C51.5221 21.4138 53.2758 20.9692 55.0638 20.9047C56.4715 20.9047 56.9718 21.405 56.9718 22.8645V23.2371C54.8361 23.5822 54.1667 23.7133 52.9625 23.9789C52.2881 24.1275 51.6278 24.3341 50.9889 24.5965C48.8808 25.4419 47.8836 27.0704 47.8836 29.5719C47.8836 32.7462 49.2638 34.2782 52.0896 34.2782C53.0508 34.2821 54.004 34.103 54.8982 33.7503C55.7092 33.3811 56.4633 32.8978 57.1374 32.3149V32.5496C57.1374 33.5847 57.6688 34.1126 58.7073 34.1126H63.486V32.3287H63.2514C62.3509 32.3287 62.0196 31.925 62.0196 30.8589V22.9059C62.0196 18.6654 60.5464 17.1887 56.299 17.1887C54.9525 17.1954 53.611 17.354 52.3001 17.6614C51.0615 17.9376 49.8684 18.3884 48.7566 19.0001L49.9193 22.2089Z" fill="#003781"/>
<path d="M71.094 34.1264V22.8369C71.9669 21.8673 72.864 21.4291 73.8991 21.4291C75.0067 21.4291 75.2793 21.8673 75.2793 23.5476V34.1264H80.4893V22.7748C80.4893 20.1318 80.2995 19.2968 79.4541 18.3998C78.7641 17.6234 77.6841 17.2301 76.3075 17.2301C74.2683 17.2301 72.833 17.8615 70.9042 19.666V19.0001C70.9042 17.965 70.3625 17.4302 69.2964 17.4302H64.3452V19.3279H64.6453C65.5114 19.3279 65.884 19.7281 65.884 20.5976V34.1264H71.094Z" fill="#003781"/>
<path d="M95.9433 30.6208H88.6734L95.6258 20.8736V17.4233H84.7228C83.4876 17.4233 82.9183 17.9892 82.9183 19.2278V22.2641H84.8539V21.9674C84.8539 21.198 85.2542 20.8322 86.0857 20.8322H89.8327L82.8079 30.6898V34.1402H95.9191L95.9433 30.6208Z" fill="#003781"/>
<path d="M123.294 33.702V14.8252C123.294 13.3209 122.759 12.8137 121.3 12.8137H116.88V14.9356H117.146C118.153 14.9356 118.35 15.1634 118.35 16.3779V33.702H123.294ZM125.475 33.702H130.381V19.0001C130.381 17.5234 129.812 16.992 128.373 16.992H125.475V33.702ZM116.183 33.702V17.0058H113.274C111.835 17.0058 111.273 17.5372 111.273 19.0139V33.702H116.183ZM135.025 24.1066C135.025 32.4253 129.042 38.4738 120.827 38.4738C112.612 38.4738 106.615 32.4253 106.615 24.1066C106.615 15.7879 112.608 9.73944 120.827 9.73944C129.046 9.73944 135.025 15.8224 135.025 24.1066ZM137.93 24.1066C137.93 14.3249 130.612 6.99988 120.827 6.99988C111.042 6.99988 103.717 14.3249 103.717 24.1066C103.717 33.8883 111.035 41.2099 120.827 41.2099C130.619 41.2099 137.93 33.9124 137.93 24.1066Z" fill="#003781"/>
</g>
<defs>
<clipPath id="clip0_1005_171515">
<rect width="138" height="48" fill="white"/>
</clipPath>
</defs>
</svg>
