<svg width="194" height="48" viewBox="0 0 194 48" fill="none" xmlns="http://www.w3.org/2000/svg">
<path d="M176.028 41.5759C181.686 32.9439 189.635 24.5517 194 21.5305C193.326 20.7632 192.276 19.6602 191.09 18.4614C185.459 21.7703 178.884 29.1075 173.01 37.4038C174.007 38.7465 175.058 40.1372 176.028 41.5759Z" fill="#E31837"/>
<path d="M173.441 18.1257C172.606 17.4064 171.69 16.735 170.989 16.1595C168.861 18.0298 166.086 20.8591 162.583 25.319C163.337 26.0383 164.146 26.9015 165.008 27.7647C167.702 24.216 170.424 20.8591 173.441 18.1257Z" fill="#012169"/>
<path d="M178.48 14.0015C177.456 12.9944 173.899 10.6446 171.448 9.63754C170.72 10.1171 169.696 10.8364 168.996 11.3639C169.885 11.7955 173.199 13.3781 176.028 15.9197C176.756 15.2963 177.779 14.529 178.48 14.0015Z" fill="#E31837"/>
<path d="M166.436 13.3781C163.283 15.9677 159.969 19.5164 158.164 21.5785C158.811 22.106 159.457 22.5376 160.346 23.3049C164.334 18.5093 167.46 15.584 168.699 14.6249C167.81 14.0495 166.975 13.6658 166.436 13.3781Z" fill="#012169"/>
<path d="M180.851 12.5149C181.579 12.0833 182.414 11.6996 183.141 11.316C181.04 9.73346 178.399 8.05502 176.028 7C175.651 7.19182 174.519 7.71933 173.738 8.15093C174.546 8.58253 177.214 9.68551 180.851 12.5149ZM167.568 30.5461C168.43 31.4573 169.346 32.7041 170.235 33.7592C176.136 25.6067 181.956 19.3246 188.342 15.7759C187.452 14.9606 186.671 14.2413 185.674 13.3781C181.848 15.1045 175.301 19.7562 167.568 30.5461Z" fill="#E31837"/>
<path d="M0 39.0822H4.31111C6.49361 39.0822 7.5175 37.0681 7.5175 34.2387C7.5175 31.9368 6.84389 30.4023 5.44278 29.9227C6.68222 29.3952 7.24806 28.0525 7.24806 26.0863C7.24806 23.5926 6.22417 21.5785 4.04167 21.5785H0.0269444V39.0822H0ZM3.74528 31.6491C4.55361 31.6491 5.11944 32.3684 5.11944 33.8071C5.11944 35.3417 4.58056 35.9651 3.74528 35.9651H2.34417V31.6012H3.74528V31.6491ZM3.47583 24.6476C4.28417 24.6476 4.85 25.271 4.85 26.7097C4.85 28.1484 4.31111 28.7718 3.47583 28.7718H2.34417V24.6476H3.47583ZM16.2206 21.5305H13.7956L10.1042 39.0822H12.5561L13.2297 35.4376H16.7864L17.46 39.0822H19.9389L16.2206 21.5305ZM15.0081 25.7506L16.1667 32.2246H13.7956L15.0081 25.7506ZM32.2256 21.5305H29.9892V33.2796L25.7858 21.5305H23.28V39.0822H25.5164V27.3811L29.7197 39.0822H32.2256V21.5305ZM42.5453 39.0822L39.3119 30.1625V39.0822H36.9139V21.5305H39.3119V29.9707L42.3836 21.5305H45.0511L41.8178 29.9707L45.3475 39.0822H42.5453ZM53.835 30.3064C53.835 33.8071 55.0206 35.9651 56.5564 35.9651C58.0922 35.9651 59.2778 33.8071 59.2778 30.3064C59.2778 26.8056 58.0922 24.6476 56.5564 24.6476C55.0206 24.6476 53.835 26.8056 53.835 30.3064ZM51.3022 30.3064C51.3292 25.1751 53.35 21.1469 56.5564 21.1469C59.7628 21.1469 61.7836 25.1751 61.8106 30.3064C61.7836 35.4376 59.7628 39.4659 56.5564 39.4659C53.35 39.4659 51.3292 35.4376 51.3022 30.3064ZM65.0978 39.0822H67.4958V32.1766H70.6214V28.8197H67.4958V24.8874H71.2681L71.6992 21.5305H65.0978V39.0822ZM82.8811 21.5305H80.4561L76.7647 39.0822H79.2167L79.8903 35.4376H83.4469L84.1206 39.0822H86.5994L82.8811 21.5305ZM81.6686 25.7506L82.8272 32.2246H80.4561L81.6686 25.7506ZM100.826 21.5305H98.0239L95.4642 31.0257L92.9044 21.5305H90.1022V39.0822H92.2578V27.3331L95.4372 39.0822L98.6167 27.3331V39.0822H100.853L100.826 21.5305ZM105.488 39.0822H112.224V35.7253H107.886V31.793H111.307V28.532H107.886V24.8874H111.846L112.277 21.5305H105.488V39.0822ZM121.358 39.0822H123.971L121.519 31.6491C122.867 30.9777 123.513 29.2993 123.513 26.8536C123.513 23.6885 122.436 21.5785 120.011 21.5785H116.211V39.1302H118.556V32.2246H119.202L121.358 39.0822ZM119.553 24.7915C120.549 24.7915 121.061 25.5588 121.061 27.0454C121.061 28.532 120.549 29.2993 119.553 29.2993H118.529V24.7915H119.553ZM127.555 39.0822H129.953V21.5785H127.555V39.0822ZM141.755 34.3826C140.839 35.5335 140.03 35.9171 139.195 35.9171C137.363 35.9171 136.069 33.6632 136.069 30.3064C136.069 26.9495 137.336 24.6956 139.114 24.6956C139.923 24.6956 140.731 25.0792 141.62 26.2301V22.2498C140.812 21.4346 139.869 21.0989 138.818 21.0989C135.557 21.0989 133.51 25.1272 133.483 30.2584C133.51 35.4376 135.504 39.4179 138.818 39.4179C139.923 39.4179 140.866 39.0822 141.728 38.267V34.3826H141.755ZM150.539 21.5305H148.114L144.422 39.0822H146.874L147.548 35.4376H151.104L151.778 39.0822H154.257L150.539 21.5305ZM149.326 25.7506L150.485 32.2246H148.114L149.326 25.7506Z" fill="#012169"/>
</svg>
