<svg width="96" height="48" viewBox="0 0 96 48" fill="none" xmlns="http://www.w3.org/2000/svg">
<g clip-path="url(#clip0_1005_171402)">
<path d="M36.8651 33.407C33.293 31.1071 28.4451 30.7035 20.6267 32.8715C12.2919 34.8291 9.51294 36.084 5.86337 33.5648C4.46129 32.3273 3.95861 30.3348 4.33397 27.4647C5.20457 22.7859 7.5573 18.2833 11.7363 13.2888C14.069 10.6907 16.2327 8.46109 19.0899 7.56576C21.2797 7.00409 21.0749 8.72412 20.81 8.97011C20.5304 8.97011 20.0607 9.01413 19.6977 9.25089C19.4031 9.47925 18.5944 10.2166 18.551 11.2085C18.4883 12.7269 20.0606 12.4109 20.7387 11.5772C21.4696 10.6377 22.5499 8.83866 21.7001 7.16193C21.344 6.56511 20.7286 6.15265 19.9646 6.0122C17.3483 5.86276 14.9117 7.10927 12.6631 8.48736C7.74522 11.9019 3.81125 16.6332 1.58525 21.8121C0.301852 24.9369 -0.858789 29.4129 0.880972 33.0561C2.22677 35.5839 5.02085 36.9266 8.35434 36.6458C10.6923 36.4003 13.5194 35.6451 15.4208 35.189C17.3222 34.7323 27.0553 31.3883 30.2533 37.2083C30.2533 37.2083 31.3167 35.145 33.9743 35.101C36.1593 34.8995 39.3113 35.7332 41.6068 37.4182C40.8421 36.2687 38.6739 34.5746 36.8651 33.407Z" fill="#E61D2A"/>
<path d="M21.6192 13.8769C19.7988 12.6831 16.14 14.9653 13.2095 18.88C10.5297 22.3914 9.37251 26.4725 10.6318 28.3598C12.5051 30.5804 15.9827 27.3504 17.4616 25.6214L17.6524 25.4194C18.6581 24.3397 19.4351 23.0405 20.1872 21.794C20.1872 21.794 20.8784 20.6529 20.9114 20.6001C21.3386 20.5214 21.8531 20.3985 22.433 20.2317C22.4247 20.2578 20.2145 23.9709 20.44 25.8138C20.5102 26.3761 20.4566 28.43 22.463 29.0531C25.137 29.5011 27.2723 27.4293 29.1561 25.5859C29.1561 25.5859 29.4771 25.279 29.6586 25.1038C29.6127 25.2877 29.5528 25.5329 29.5528 25.5329C28.7699 28.2541 29.8252 28.825 30.4853 29.0357C32.4803 29.6154 34.8636 26.7185 34.8713 26.7185C34.8095 27.631 34.6288 28.3859 35.5912 28.9916C36.4996 29.3166 37.4189 28.8212 38.1177 28.3559C40.6347 26.5829 42.6624 23.8079 44.3003 21.4091H43.2556C43.2432 21.4091 40.6776 25.1257 39.0117 25.9335C39.009 25.9335 38.7059 26.0891 38.5312 25.966C38.315 25.7816 38.4003 25.3982 38.5338 25.1267C38.5422 25.109 44.9662 13.9729 44.9662 13.9729H41.9331C41.9331 13.9729 41.6018 14.5087 41.5748 14.5439C41.5544 14.5263 41.5058 14.4342 41.472 14.3901C39.5928 11.792 35.3373 15.7883 32.1334 20.4227C30.8999 22.2048 29.3295 24.2112 27.7011 25.6595C27.7011 25.6595 25.2887 27.8697 24.2579 26.2817C23.8811 25.6145 23.997 24.639 24.2096 23.9984C25.4097 20.5839 27.4776 17.4851 29.8308 15.6153C30.4952 15.0977 31.2172 14.948 31.5755 15.1675C31.9169 15.3697 31.972 15.8696 31.756 16.2121C31.208 16.1946 30.7689 16.361 30.4119 16.7297C29.7087 17.4671 29.4644 18.1782 29.6879 18.8454C30.774 20.3902 32.9402 17.3355 32.8354 15.4747C32.798 14.8075 32.4418 14.1756 31.9103 13.8681C31.1182 13.3944 29.9098 13.5171 29.1278 13.8947C28.0809 14.2896 26.4237 15.6676 25.4564 16.7386C24.2386 18.0818 22.1501 19.5738 21.497 19.4067C21.7109 18.836 23.475 15.2285 21.6192 13.8769ZM36.2426 19.2136C36.8326 18.3975 38.5499 16.2117 38.9686 15.8431C40.3767 14.605 40.9395 15.1498 40.9882 15.5357C39.6741 17.8881 38.1231 20.583 36.6648 23.0057C36.6678 22.9971 36.2085 23.6991 36.2085 23.6991C35.5644 24.682 34.916 25.5247 33.8582 26.1127C33.7073 26.1569 33.4587 26.1745 33.2932 26.0512C33.094 25.9195 33.0154 25.7 33.0378 25.4716C33.1012 24.717 33.87 22.4089 36.2426 19.2136ZM19.742 20.6267C19.742 20.6267 19.7156 20.706 19.7025 20.7319C19.6991 20.7319 18.3801 22.8822 18.3801 22.8822C17.584 23.9445 16.59 25.279 15.3475 25.9195C14.9793 26.0424 14.4702 26.1216 14.2108 25.797C13.6608 25.1386 13.9443 24.2257 14.1745 23.4885L14.256 23.2251C14.9163 21.4347 15.9639 19.8543 16.9835 18.3885C16.9962 18.3798 17.0248 18.3711 17.0351 18.3711C17.0375 18.3798 17.0416 18.3798 17.0434 18.3975C17.6832 19.6261 18.883 20.1964 19.7802 20.4602C19.7856 20.4602 19.7914 20.4689 19.7914 20.4865C19.7915 20.5127 19.7769 20.5481 19.742 20.6267ZM20.9916 18.0903C20.9859 18.1078 20.4041 19.4419 20.4041 19.4419C20.32 19.512 20.187 19.477 20.0346 19.4419L19.7735 19.3977C18.9536 19.1434 18.3351 18.5991 18.1444 17.9496C17.8813 16.6856 18.9617 15.6937 19.4378 15.334C19.8945 15.0177 20.6045 14.851 21.0168 15.1759C21.2711 15.4745 21.3675 15.8605 21.3675 16.2821C21.3676 16.8525 21.1914 17.4932 20.9916 18.0903Z" fill="#E61D2A"/>
<path d="M59.3364 22.1628C59.044 21.531 58.3497 21.1271 57.6098 21.1709C55.207 21.3905 52.8568 23.3654 51.6228 26.2004C50.9753 27.6576 50.6219 28.86 50.3902 30.7735C51.1373 29.9136 52.6613 28.5005 54.3908 27.7279C54.3908 27.7279 54.6261 25.8935 55.8261 24.2608C56.2802 23.5847 57.1889 22.4964 58.2093 22.7859C59.1008 23.0845 58.7874 25.5511 57.6026 27.9381C56.7258 29.6938 55.3842 31.4498 54.0268 32.6609C52.8267 33.6791 51.051 34.9079 49.4975 33.96C48.519 33.381 48.02 32.1694 48.1254 30.6069C48.593 26.1744 50.6117 22.3999 53.5007 18.0989C56.4796 14.1051 59.7633 10.006 64.1868 7.82002C65.0891 7.36365 65.9247 7.25835 66.647 7.53924C66.647 7.53924 62.4945 9.82142 60.5151 14.0436C60.0116 15.1146 59.3112 16.5625 60.0165 17.8442C60.385 18.5112 61.0394 18.5639 61.5662 18.5288C63.9924 17.9669 65.56 15.7023 66.8408 13.631C67.5833 12.0598 68.2433 10.4974 68.2433 8.75937C68.2433 8.54876 68.2324 8.26799 68.2145 8.05713C69.3737 7.44293 71.7507 8.53113 71.7507 8.53113C73.6082 9.14581 77.5632 12.1742 78.8974 12.7533C79.5482 11.9985 80.6176 10.8576 81.2198 10.2869L80.3481 9.75138C78.9525 8.89994 77.4773 8.09228 76.0253 7.29361C72.7278 5.49442 70.0438 6.12625 68.6777 6.61788C68.1408 6.81086 67.6502 6.97769 67.6502 6.97769C66.6364 5.87174 64.9738 5.97681 63.7487 6.27546C59.343 7.53936 55.2526 10.6202 50.8672 15.966C47.643 20.153 45.6431 23.7695 44.5772 27.3419C43.7555 29.7467 43.5058 33.2842 45.5112 35.3821C47.2163 37.1635 49.4772 36.7776 51.0738 36.137C54.5331 34.4341 57.6422 30.7649 59.1914 26.5428C59.5652 25.2878 59.9801 23.5147 59.3364 22.1628ZM67.2908 8.93508C66.8328 14.1842 62.7506 17.2654 61.7405 17.5108C61.1284 17.6335 60.0839 17.3616 61.0163 15.1587C62.3895 12.1915 64.7338 9.67258 67.2491 8.38217C67.3103 8.60165 67.3088 8.74174 67.2908 8.93508Z" fill="#E61D2A"/>
<path d="M91.5067 9.60194C89.3108 10.8486 87.0345 11.6559 84.2789 11.3751C83.5153 12.2355 82.7717 13.122 82.0864 14.0347C85.9539 15.0179 90.0541 12.8322 92.3407 10.7521C94.7596 8.65419 96.0001 6.01232 96.0001 6.01232C96.0001 6.01232 94.1869 8.08365 91.5067 9.60194Z" fill="#E61D2A"/>
<path d="M48.3821 16.6117L50.0075 13.9731H47.127L45.5022 16.6117H48.3821Z" fill="#E61D2A"/>
<path d="M84.2674 33.6513C83.9577 33.8619 83.5226 33.7 83.6853 33.2174C84.0905 31.9885 85.7017 29.4842 85.7017 29.4842L90.1892 21.5292H87.1153C86.9692 21.769 86.6567 22.3199 86.6567 22.3199C86.5145 22.0831 86.0893 21.5566 85.9142 21.4429C85.1632 20.9686 84.0614 21.1928 83.3013 21.6228C79.9966 23.5542 77.5855 27.37 75.6839 30.3458C75.6839 30.3458 73.6822 33.6537 72.571 33.8997C71.7035 33.97 71.7931 32.802 71.8306 32.5299C72.166 30.5634 72.9449 28.6939 73.7297 26.9998C75.3259 25.8938 77.1475 24.4456 78.8029 22.8569C82.3954 19.4245 85.4241 15.536 85.8668 14.667C85.8668 14.667 85.3876 14.7637 84.8218 14.7811C82.058 18.6344 76.4021 24.2348 74.6875 25.0685C75.4471 23.2425 80.3547 14.5265 84.5311 10.3572L85.1883 9.72497C86.2045 8.73308 87.2575 7.71493 88.078 7.5481C88.1647 7.53934 88.2763 7.5481 88.3726 7.75031C88.4092 8.52259 88.1216 9.09326 87.7916 9.74272L87.3291 10.6908C87.3291 10.6908 87.9842 10.5679 88.4144 10.4271C88.9136 9.48834 89.4664 8.43468 89.2627 7.17977C89.1946 6.77594 88.9022 6.46878 88.52 6.39849C87.2741 6.16149 85.9164 7.08286 84.8239 7.82923L84.7797 7.85538C79.1636 12.253 74.4212 18.5906 70.2751 27.2454C69.9746 27.4733 68.8136 27.7457 68.6162 27.6138C69.0256 26.7714 69.5411 25.6388 69.7991 24.4099C69.8438 24.0588 69.8853 23.6991 69.8853 23.348C69.8853 22.5925 69.7039 21.8818 69.0267 21.3904C68.2328 20.9953 67.2515 21.1798 66.59 21.4781C63.6262 22.7069 61.4111 25.7443 59.8127 28.2456C58.9531 29.8347 58.0959 31.5368 57.8585 33.4858C57.6914 35.0128 58.0317 35.996 58.9004 36.4877C59.7938 36.9438 60.9182 36.4697 61.3599 36.2417C64.3624 34.6618 66.4603 31.4932 68.114 28.5964C68.1797 28.5877 69.0826 28.5616 69.7655 28.3858C69.7747 28.3858 69.7785 28.3858 69.7936 28.395C69.7545 28.5261 69.4016 29.5798 69.4016 29.5798C68.3535 32.6517 67.8688 34.741 68.8588 35.9784C70.2735 37.7253 72.6155 35.9173 74.5208 33.5293C74.1118 36.3908 75.5956 36.8386 76.7266 36.6194C78.0259 36.2685 79.4737 34.8813 80.1455 34.1705C79.9298 35.0042 79.9885 36.4966 81.1703 36.6457C81.9805 36.7953 82.5867 36.3549 83.2882 35.9774C85.8045 34.6079 88.8166 30.0446 89.5987 28.7253H88.5733C87.4616 30.4046 86.0469 32.6063 84.2674 33.6513ZM61.6813 33.3457C61.5217 33.1087 61.4687 32.8495 61.4635 32.5693C61.4329 30.8482 63.2855 27.7659 64.5933 26.0868C64.5961 26.0868 64.5961 26.0868 64.5961 26.0868C65.1441 27.2862 66.3851 28.0571 67.1343 28.3821C66.2038 30.4537 63.0127 34.8905 61.6813 33.3457ZM67.6594 27.4559C67.5707 27.5177 66.0058 26.9908 65.7034 25.5425C65.4469 24.2956 66.3059 23.3214 67.1371 22.8302C67.4938 22.5492 68.0312 22.4529 68.4254 22.5928C68.7913 22.8389 68.8904 23.2781 68.8904 23.7514C68.8904 24.0416 68.8519 24.3398 68.8179 24.6118C68.8179 24.6118 68.8114 24.6647 68.8103 24.6735C68.5496 25.6475 68.1506 26.6043 67.6594 27.4559ZM80.2109 32.7928C80.2096 32.7928 79.9141 33.056 79.9141 33.056C79.4919 33.4332 79.0575 33.8371 78.5331 33.6351C78.3883 33.5824 78.2864 33.3896 78.2619 33.2399C78.238 32.1602 78.7245 31.1598 79.1962 30.1857L79.3172 29.9309C80.6741 27.6664 82.2514 24.998 84.5679 23.1462C84.9583 22.8647 85.3819 22.6281 85.829 22.8126C85.9318 22.9089 86.0516 23.0759 86.0516 23.2425C86.0516 23.2954 86.0047 23.4357 85.9775 23.4793C85.3306 24.5244 84.7144 25.6214 84.1153 26.6746C82.9443 28.7551 81.7295 30.9053 80.2109 32.7928Z" fill="#E61D2A"/>
</g>
<defs>
<clipPath id="clip0_1005_171402">
<rect width="96" height="48" fill="white"/>
</clipPath>
</defs>
</svg>
