<svg width="106" height="48" viewBox="0 0 106 48" fill="none" xmlns="http://www.w3.org/2000/svg">
<g clip-path="url(#clip0_1005_171562)">
<path d="M92.1288 21.0435C90.3398 21.4564 85.6148 21.6858 85.6148 21.6858L85.0337 23.5513C85.0337 23.5513 87.3733 23.3525 89.0859 23.5207C89.0859 23.5207 89.6364 23.4748 89.6975 24.1324C89.7281 24.8052 89.6517 25.5086 89.6517 25.5086C89.6517 25.5086 89.6058 25.9214 89.04 26.0285C88.3825 26.1355 83.948 26.3343 83.948 26.3343L83.2293 28.7503C83.2293 28.7503 82.9694 29.3008 83.5657 29.1479C84.1162 28.995 88.7648 28.1081 89.3764 28.2304C90.0187 28.3833 90.7526 29.2702 90.5386 30.0654C90.2939 31.0287 85.6454 33.9952 82.8318 33.7964C82.8318 33.7964 81.3485 33.8882 80.1099 31.885C78.9172 29.9736 80.5228 26.3802 80.5228 26.3802C80.5228 26.3802 79.8041 24.6981 80.3393 24.0865C80.3393 24.0865 80.6451 23.8265 81.5626 23.7501L82.7094 21.3952C82.7094 21.3952 81.4097 21.4717 80.6451 20.5236C79.9417 19.6061 79.8806 19.2086 80.431 18.9639C81.0121 18.6581 86.3946 17.6947 90.0951 17.8171C90.0951 17.8171 91.3949 17.6642 92.5417 19.912C92.5417 19.912 93.0616 20.8294 92.1441 21.0435M78.1832 30.0959C77.7245 31.2122 76.4553 32.3896 74.9262 31.6709C73.3665 30.937 70.9046 25.9214 70.9046 25.9214C70.9046 25.9214 69.9871 24.0559 69.8036 24.1171C69.8036 24.1171 69.6048 23.7501 69.4978 25.7991C69.3449 27.8328 69.5284 31.7933 68.6874 32.4202C67.9228 33.0319 67.0053 32.7719 66.4854 32.0532C66.0573 31.3345 65.8738 29.6066 66.1184 26.5942C66.3937 23.5819 67.0818 20.3707 67.9534 19.3768C68.8709 18.3676 69.6048 19.1015 69.8801 19.3768C69.8801 19.3768 71.0575 20.4472 73.0454 23.6125L73.3818 24.1935C73.3818 24.1935 75.1861 27.2059 75.3696 27.1906C75.3696 27.1906 75.5225 27.3435 75.6449 27.2212C75.8284 27.1753 75.7672 26.1967 75.7672 26.1967C75.7672 26.1967 75.4308 22.9396 73.7488 17.4348C73.7488 17.4348 73.5041 16.7314 73.6723 16.0586C73.8252 15.4469 74.4827 15.7527 74.4827 15.7527C74.4827 15.7527 77.0211 16.976 78.2597 21.1047C79.483 25.2333 78.6573 28.9797 78.1985 30.0959M65.7361 19.4991C65.4915 19.9273 65.3844 20.5236 64.3293 20.6918C64.3293 20.6918 54.0842 21.4105 53.5796 22.1292C53.5796 22.1292 53.2432 22.5574 53.7937 22.6644C54.3747 22.7867 56.699 23.0925 57.8 23.1537C58.9927 23.1537 62.999 23.1843 64.467 24.9887C64.467 24.9887 65.308 25.845 65.2774 27.787C65.2468 29.7748 64.8951 30.4782 64.1153 31.1969C63.3048 31.8697 56.3626 34.9891 51.8823 30.2183C51.8823 30.2183 49.8332 27.9246 52.601 26.1814C52.601 26.1814 54.5888 24.9581 59.6808 26.3802C59.6808 26.3802 61.2099 26.9307 61.1488 27.4964C61.057 28.1081 59.8796 28.7197 58.167 28.6891C56.5155 28.6433 55.2922 27.8481 55.5369 27.9858C55.7663 28.0622 53.7478 27.0071 53.1209 27.7258C52.5092 28.3986 52.6621 28.7962 53.2738 29.2091C54.8029 30.0959 60.8124 29.7748 62.6014 27.7717C62.6014 27.7717 63.3201 26.9612 62.2345 26.3037C61.1641 25.6921 58.0446 25.3098 56.8366 25.2639C55.6898 25.2027 51.393 25.2639 50.7507 24.1476C50.7507 24.1476 50.1391 23.3525 50.8119 21.1811C51.5153 18.8875 56.5155 18.0006 58.6869 17.8171C58.6869 17.8171 64.6505 17.5724 65.7667 18.7957C65.7667 18.7957 65.9196 19.0709 65.7361 19.4838M48.824 32.9401C48.1053 33.4753 46.5762 33.2459 46.1328 32.6343C45.7046 32.0991 45.5517 29.9889 45.6282 26.6707C45.7352 23.276 45.7811 19.1168 46.5456 18.444C47.3102 17.7865 47.7689 18.3676 48.0748 18.811C48.3806 19.2697 48.7781 19.7743 48.8393 20.8294C48.9311 21.8998 49.191 27.4047 49.191 27.4047C49.191 27.4047 49.5274 32.4202 48.8393 32.9401M50.3531 15.0493C48.243 15.768 46.8056 15.5387 45.5823 15.0035C45.0471 15.9668 44.726 16.2574 44.3284 16.3185C43.7167 16.3797 43.1816 15.401 43.1051 15.0952C42.9828 14.8659 42.6922 14.453 43.0439 13.5202C41.8512 12.4498 41.7595 11.0125 41.9735 10.0491C42.2488 8.91756 44.2672 4.66659 50.3837 4.16198C50.3837 4.16198 53.3808 3.9479 53.9007 5.53819H53.9925C53.9925 5.53819 56.8978 5.53819 56.8366 8.1377C56.8366 10.7372 53.6255 13.979 50.3531 15.0952M53.075 7.64838C51.1483 7.95421 48.1818 10.5231 46.7597 12.6486C48.9464 13.0462 52.7692 12.8933 54.4818 9.43746C54.4818 9.43746 55.2922 7.2661 53.075 7.64838ZM44.6189 9.33042C44.0073 10.3244 43.9767 10.9207 44.2672 11.3183C44.9859 10.2479 46.2551 8.56586 48.1665 7.25081C46.6985 7.40372 45.4599 8.01537 44.6189 9.33042ZM96.7162 32.8331C95.3094 36.2889 94.1167 39.7906 93.4286 45.0355C93.4286 45.0355 93.2757 46.06 92.4347 45.7236C91.5937 45.4178 90.2174 44.0416 89.9116 42.0996C89.6058 39.5612 90.7373 35.2797 93.0463 30.3559C92.3735 29.2855 91.8995 27.6952 92.2818 25.4627C92.2818 25.4627 92.8934 21.3341 97.022 17.603C97.022 17.603 97.5114 17.1901 97.7866 17.3277C98.123 17.4807 97.9854 18.7957 97.7102 19.4685C97.4655 20.1108 95.6305 23.2913 95.6305 23.2913C95.6305 23.2913 94.4837 25.4627 94.8048 27.16C96.9762 23.8265 101.915 17.0678 104.973 19.2086C106.915 20.5848 106.915 25.0192 105.463 27.5882C104.316 29.6219 101.074 33.827 96.7468 32.8484M103.108 22.4503C101.976 23.6736 99.958 25.9979 98.3677 29.1479C100.05 28.9644 101.686 28.0316 102.19 27.5576C103.001 26.8389 104.866 24.8969 104.576 22.328C104.576 22.328 104.392 20.9824 103.108 22.4503ZM34.6032 34.6374C29.1901 36.2889 24.0828 35.5243 21.2998 34.7904C21.2233 35.9219 21.101 36.3959 20.9175 36.5794C20.7034 36.8241 18.9296 37.8333 17.951 36.3959C17.5228 35.7078 17.3088 34.4692 17.1864 33.3377C10.917 30.4935 8.01167 26.3037 7.91993 26.1508C7.76701 25.9979 6.34493 24.5146 7.76701 22.6797C9.09735 21.0282 13.5012 19.3615 17.4464 18.704C17.5993 15.3399 17.9663 12.7404 18.4403 11.5935C19.0061 10.2173 19.7248 11.4406 20.367 12.3581C20.8869 13.0462 21.208 15.9974 21.2386 18.3523C23.8075 18.2299 25.3672 18.4134 28.2267 18.9639C31.9884 19.6061 34.4961 21.5328 34.2973 23.7042C34.1138 25.845 32.1566 26.7319 31.392 26.793C30.6274 26.8542 29.4041 26.2884 29.4041 26.2884C28.5478 25.8908 29.3277 25.5239 30.3216 25.0957C31.4226 24.5605 31.1779 24.0253 31.1779 24.0253C30.7803 22.802 25.9024 21.9916 21.0551 21.9916C21.0551 24.6675 21.1622 29.102 21.2386 31.6862C24.6333 32.3285 27.1716 32.1908 27.1716 32.1908C27.1716 32.1908 39.5575 31.8391 39.9092 23.9336C40.2915 16.0127 27.5233 8.42824 18.1192 6.0428C8.73036 3.58091 3.40901 5.32411 2.95027 5.55348C2.44566 5.79814 2.9044 5.88989 2.9044 5.88989C2.9044 5.88989 3.40901 5.96634 4.32648 6.27217C5.24396 6.57799 4.50998 7.03673 4.50998 7.03673C2.9044 7.58722 1.11532 7.2661 0.76362 6.53212C0.411922 5.81343 0.992989 5.15591 1.6811 4.19256C2.32333 3.19863 3.05731 3.22921 3.05731 3.22921C14.6787 -0.822973 28.8689 6.44037 28.8689 6.44037C42.1417 13.1379 44.4049 21.0129 44.1602 24.0712C43.9461 27.0836 42.784 32.1756 34.6032 34.6527M9.06677 23.7042C7.75172 24.3159 8.6692 25.2945 8.6692 25.2945C11.1464 27.9399 14.174 29.6066 17.0794 30.6464C17.4158 26.0591 17.3852 24.4229 17.3852 22.1139C12.8896 22.4197 10.2901 23.1537 9.06677 23.7042Z" fill="black"/>
</g>
<defs>
<clipPath id="clip0_1005_171562">
<rect width="106" height="48" fill="white"/>
</clipPath>
</defs>
</svg>
