<svg width="161" height="48" viewBox="0 0 161 48" fill="none" xmlns="http://www.w3.org/2000/svg">
<path d="M44.4962 14.0131H52.0245C56.8241 14.0131 60.7889 16.8247 60.7889 23.2442V24.5931C60.7889 31.0613 57.0809 33.9704 52.169 33.9704H44.4962V14.0131ZM48.7018 17.6373V30.33H51.9282C54.6571 30.33 56.487 28.526 56.487 24.5118V23.4555C56.487 19.4412 54.5608 17.6373 51.7838 17.6373H48.7018ZM63.0202 17.8323H66.3911L66.9368 21.5865C67.5789 19.0349 69.2162 17.6698 72.1859 17.6698H73.2292V21.9765H71.4956C68.0765 21.9765 67.2418 23.1792 67.2418 26.5921V34.0192H63.0844V17.8323H63.0202ZM74.0639 26.2508V25.7957C74.0639 20.3838 77.483 17.426 82.1381 17.426C86.8895 17.426 90.2122 20.3838 90.2122 25.7957V26.2508C90.2122 31.5652 86.9858 34.4255 82.1381 34.4255C76.9854 34.3767 74.0639 31.5814 74.0639 26.2508ZM85.9585 26.202V25.7957C85.9585 22.7891 84.4656 20.9852 82.0899 20.9852C79.7624 20.9852 78.2214 22.6429 78.2214 25.7957V26.202C78.2214 29.1111 79.7142 30.7688 82.0899 30.7688C84.4656 30.7201 85.9585 29.1111 85.9585 26.202ZM92.3953 17.8323H95.8625L96.2638 20.8877C97.0985 18.8399 98.8803 17.426 101.513 17.426C105.574 17.426 108.255 20.3838 108.255 25.8607V26.3158C108.255 31.6302 105.285 34.4417 101.513 34.4417C98.9927 34.4417 97.2591 33.2879 96.4083 31.4351V39.6098H92.3472L92.3953 17.8323ZM104.033 26.202V25.8445C104.033 22.6266 102.396 21.0339 100.213 21.0339C97.8851 21.0339 96.3441 22.8379 96.3441 25.8445V26.1533C96.3441 29.0136 97.8369 30.8176 100.164 30.8176C102.556 30.7688 104.033 29.2249 104.033 26.202ZM114.403 31.0288L114.049 33.9867H110.486V12.4204H114.547V20.6926C115.446 18.5799 117.228 17.426 119.748 17.426C123.568 17.4748 126.393 20.1401 126.393 25.5032V26.007C126.393 31.3701 123.713 34.4417 119.652 34.4417C116.971 34.3767 115.237 33.1253 114.403 31.0288ZM122.124 26.007V25.6007C122.124 22.6429 120.534 20.9852 118.303 20.9852C116.024 20.9852 114.435 22.8379 114.435 25.6495V26.007C114.435 29.0136 115.976 30.7688 118.255 30.7688C120.695 30.7688 122.124 29.2249 122.124 26.007ZM128.175 26.2508V25.7957C128.175 20.3838 131.594 17.426 136.249 17.426C141.001 17.426 144.324 20.3838 144.324 25.7957V26.2508C144.324 31.5652 141.049 34.4255 136.249 34.4255C131.097 34.3767 128.175 31.5814 128.175 26.2508ZM140.102 26.202V25.7957C140.102 22.7891 138.609 20.9852 136.233 20.9852C133.906 20.9852 132.365 22.6429 132.365 25.7957V26.202C132.365 29.1111 133.858 30.7688 136.233 30.7688C138.625 30.7201 140.102 29.1111 140.102 26.202ZM149.765 25.6007L144.163 17.8323H148.963L152.189 22.6916L155.464 17.8323H160.215L154.533 25.5519L160.52 33.9867H155.817L152.157 28.6236L148.593 33.9867H143.681L149.765 25.6007Z" fill="black"/>
<path d="M18.6203 14.0132L9.31016 20.0264L18.6203 26.0396L9.31016 32.0528L0 26.0071L9.31016 19.9939L0 14.0132L9.31016 8L18.6203 14.0132ZM9.262 33.9868L18.5722 27.9736L27.8823 33.9868L18.5722 40L9.262 33.9868ZM18.6203 26.0071L27.9305 19.9939L18.6203 14.0132L27.8823 8L37.1925 14.0132L27.8823 20.0264L37.1925 26.0396L27.8823 32.0528L18.6203 26.0071Z" fill="#0061FF"/>
</svg>
