<svg width="112" height="48" viewBox="0 0 112 48" fill="none" xmlns="http://www.w3.org/2000/svg">
<g clip-path="url(#clip0_1005_171188)">
<path fill-rule="evenodd" clip-rule="evenodd" d="M92.3302 37.9455L88.1839 33.2884L84.0677 37.9455H75.4145L83.8774 28.441L75.4145 18.9366H84.3381L88.5244 23.5536L92.5606 18.9366H101.174L92.7508 28.401L101.294 37.9455H92.3302ZM58.7993 37.9455V8H75.4145V14.6801H65.84V18.9366H75.4145V25.3564H65.84V31.2453H75.4145V37.9455H58.7993Z" fill="#FF6600"/>
<path fill-rule="evenodd" clip-rule="evenodd" d="M51.7886 8V20.2586H51.7085C50.2671 18.6174 48.1506 17.7309 45.9698 17.855C41.5824 17.8935 37.769 20.8768 36.6757 25.126C35.2836 20.5591 31.6681 17.7648 26.3901 17.7648C22.0735 17.7648 18.6684 19.6978 16.8856 22.8626V18.9366H7.95208V14.6701H17.6869V8H0V37.9455H7.95208V25.3564H15.8741C15.6269 26.3385 15.5057 27.3482 15.5136 28.3609C15.5136 34.6104 20.2808 38.9871 26.3801 38.9871C31.4978 38.9871 34.873 36.5834 36.6557 32.1967H29.8453C29.1535 33.4271 27.7777 34.107 26.3801 33.9093C24.1608 33.8605 22.3843 32.0529 22.374 29.8332H36.2751C36.876 34.8408 40.7419 39.0672 46.0399 39.0672C48.3097 39.0744 50.433 37.9469 51.6985 36.0626H51.7786V37.9455H58.7893V8H51.7886ZM22.6143 25.4465C22.9468 23.6313 24.5247 22.3101 26.37 22.3017C28.2597 22.2062 29.9083 23.5721 30.1658 25.4465H22.6143ZM47.5222 33.3886C44.9382 33.3886 43.3358 30.9849 43.3358 28.4611C43.3358 25.777 44.7379 23.1931 47.5222 23.1931C50.3064 23.1931 51.5282 25.777 51.5282 28.4611C51.5282 31.1451 50.3565 33.3886 47.5322 33.3886H47.5222Z" fill="#4D148C"/>
<path fill-rule="evenodd" clip-rule="evenodd" d="M111.319 34.3701C111.275 32.7661 109.947 31.4971 108.343 31.5262C106.738 31.5553 105.457 32.8717 105.471 34.4762C105.486 36.0807 106.79 37.374 108.395 37.3746C109.19 37.3923 109.956 37.0786 110.511 36.5088C111.065 35.939 111.358 35.1643 111.319 34.3701ZM107.633 34.5203V36.5233H107.002V32.1567H108.575C109.496 32.1567 109.917 32.5573 109.917 33.3485C109.933 33.8006 109.612 34.1948 109.166 34.2699C109.526 34.33 109.667 34.6505 109.747 35.2714C109.774 35.6868 109.865 36.0955 110.017 36.4833H109.266C109.143 36.0014 109.046 35.5133 108.975 35.021C108.91 34.6823 108.584 34.4592 108.244 34.5203H107.633ZM108.425 33.9594C109.036 33.9594 109.216 33.6289 109.216 33.3485C109.216 33.0681 109.046 32.7376 108.425 32.7376H107.633V33.9694H108.425V33.9594ZM104.789 34.36C104.773 32.8942 105.643 31.5636 106.993 30.9913C108.343 30.4191 109.904 30.7184 110.947 31.7492C111.989 32.78 112.306 34.3382 111.749 35.6941C111.191 37.0501 109.871 37.9354 108.405 37.9355C107.446 37.9573 106.52 37.5889 105.838 36.9148C105.157 36.2407 104.778 35.3187 104.789 34.36Z" fill="#FF6600"/>
</g>
<defs>
<clipPath id="clip0_1005_171188">
<rect width="112" height="48" fill="white"/>
</clipPath>
</defs>
</svg>
