<svg width="97" height="48" viewBox="0 0 97 48" fill="none" xmlns="http://www.w3.org/2000/svg">
<path d="M48.7338 6.00012C22.0911 6.00012 0.734192 13.986 0.734192 23.9986C0.734192 33.9501 22.2671 41.9977 48.7338 41.9977C75.2012 41.9977 96.7342 33.9231 96.7342 23.9986C96.7342 14.074 75.2012 6.00012 48.7338 6.00012Z" fill="#003478"/>
<path d="M67.6406 27.8113C67.6535 27.8937 67.7617 27.9727 67.8664 28.01C67.9051 28.0229 67.924 28.0487 67.8836 28.1363C67.5848 28.7769 67.3099 29.1462 66.9353 29.7029C66.5905 30.2172 66.2023 30.6184 65.7323 31.0044C65.0234 31.5911 64.0388 32.2297 63.2248 31.8004C62.8633 31.6128 62.7068 31.1067 62.7138 30.6971C62.731 29.5452 63.2435 28.3626 64.1898 27.2003C65.3434 25.78 66.6187 25.0434 67.4557 25.446C68.3216 25.8591 68.0453 26.8616 67.6574 27.6486C67.6274 27.7096 67.6277 27.7614 67.6406 27.8113ZM76.9328 18.8353C76.995 18.7254 76.9295 18.6451 76.7906 18.6451C76.0674 18.6451 75.1184 18.6468 74.3648 18.6468C74.1853 18.6468 74.0926 18.6682 74.008 18.8357C73.7298 19.3686 70.3399 24.4491 69.7089 25.4357C69.6024 25.586 69.4728 25.5649 69.4577 25.3927C69.3938 24.8067 68.8877 24.1331 68.0904 23.8108C67.4828 23.5644 66.8888 23.5197 66.2712 23.6017C65.1562 23.7516 64.1629 24.3397 63.2896 25.003C61.9734 26.0036 60.8378 27.3006 59.3718 28.2588C58.5716 28.7805 57.4757 29.2354 56.7423 28.5563C56.0787 27.941 56.1537 26.5745 57.1691 25.5175C57.276 25.4067 57.4044 25.5003 57.3842 25.5986C57.2884 26.0766 57.4056 26.552 57.7689 26.8853C58.2118 27.2824 58.8458 27.3273 59.3885 27.0622C60.0288 26.7449 60.405 26.1323 60.5147 25.4369C60.6843 24.3583 59.8541 23.407 58.8152 23.3307C57.9712 23.2714 57.1619 23.5651 56.3732 24.216C55.9778 24.544 55.7533 24.7863 55.4113 25.2726C55.328 25.3924 55.2 25.4044 55.2039 25.2275C55.2425 23.8465 54.6719 23.0696 53.5303 23.0443C52.6441 23.0228 51.6974 23.5039 50.9595 24.0922C50.1505 24.7419 49.4432 25.6028 48.6849 26.4118C48.5905 26.5114 48.5084 26.5066 48.4818 26.3134C48.4604 25.3985 48.229 24.5122 47.8055 23.8829C47.6557 23.6639 47.3403 23.5557 47.0753 23.7034C46.9529 23.7704 46.5273 23.9662 46.2173 24.2157C46.0636 24.3424 46.0035 24.5257 46.0717 24.7607C46.4805 26.1277 46.3907 27.6818 45.836 28.9945C45.3267 30.1967 44.3371 31.281 43.1738 31.648C42.4075 31.891 41.611 31.7721 41.118 31.0927C40.441 30.1551 40.7144 28.5245 41.7236 27.1705C42.6142 25.9783 43.9025 25.221 45.1874 24.7333C45.3386 24.6749 45.3699 24.5779 45.327 24.4495C45.2574 24.2383 45.1458 23.9506 45.1007 23.8193C44.9826 23.5054 44.6527 23.4547 44.2498 23.4985C43.3161 23.6072 42.4738 23.9271 41.6419 24.3725C39.4633 25.5392 38.371 27.797 37.8924 29.005C37.6618 29.5853 37.4648 29.9472 37.2101 30.2682C36.8666 30.6998 36.4355 31.0929 35.6471 31.7852C35.5759 31.8487 35.5226 31.981 35.5827 32.1042C35.663 32.2708 36.0731 32.8498 36.1887 32.9015C36.3171 32.9646 36.466 32.8757 36.5257 32.8336C37.0773 32.4596 37.7373 31.867 38.0603 31.465C38.1736 31.3272 38.29 31.3851 38.3501 31.5942C38.6515 32.6695 39.4407 33.5475 40.532 33.9148C42.5296 34.5885 44.6015 33.6134 46.1654 31.9159C47.1594 30.837 47.518 30.143 47.899 29.6714C48.5447 28.8714 49.8183 27.0818 51.3352 25.9329C51.8915 25.5091 52.5497 25.1859 52.8808 25.4006C53.1465 25.5727 53.2324 25.9728 52.8061 26.7481C51.2594 29.5723 48.9839 32.8905 48.5666 33.6952C48.4902 33.8347 48.558 33.9446 48.7031 33.9446C49.5124 33.9406 50.3147 33.9426 51.0493 33.9426C51.1717 33.9383 51.2263 33.8808 51.2877 33.7945C52.4746 31.9366 53.5915 30.1683 54.7888 28.3401C54.8558 28.2323 54.9176 28.3143 54.9202 28.3615C54.9459 28.7857 55.049 29.3658 55.301 29.7468C55.7536 30.4511 56.3949 30.7538 57.1062 30.7584C57.6722 30.767 57.9585 30.6789 58.5688 30.451C59.0655 30.2668 59.4641 30.0251 59.7701 29.8063C59.9487 29.6818 59.98 29.89 59.9757 29.9218C59.7009 31.3967 60.0402 33.1444 61.506 33.869C63.2603 34.7339 65.1875 33.5182 66.2965 32.4207C66.4051 32.3151 66.5214 32.3262 66.5326 32.5542C66.5583 32.9732 66.7455 33.4705 67.0922 33.8185C68.0215 34.7511 69.8968 34.3815 71.7787 32.9249C72.9869 31.9922 74.2512 30.6746 75.3931 29.2794C75.4361 29.2253 75.467 29.1386 75.3846 29.0506C75.2107 28.8685 74.9591 28.6603 74.7866 28.4999C74.708 28.4329 74.5926 28.4522 74.5265 28.5022C73.3559 29.6155 72.3021 30.8851 70.7793 31.935C70.2656 32.2935 69.447 32.5827 69.0793 32.0849C68.9359 31.8917 68.9523 31.6246 69.0922 31.2739C69.5362 30.1666 76.5662 19.4634 76.9312 18.8322" fill="white"/>
<path d="M43.8577 20.1269C43.8878 20.2857 43.9496 20.3167 44.0218 20.3034C44.3798 20.2317 44.7717 19.9371 45.0037 19.5957C45.215 19.2861 45.3141 18.8394 45.1042 18.6604C44.917 18.4994 44.6122 18.5449 44.3862 18.7445C43.9362 19.1421 43.7997 19.7059 43.8577 20.1269ZM25.9401 33.9045C23.3189 33.9217 21.0096 32.3029 20.7447 29.4987C20.5974 27.9448 21.0366 26.5599 21.916 25.4189C22.6963 24.4023 24.0166 23.5577 25.1341 23.3513C25.4978 23.2848 25.9864 23.3256 26.1884 23.5677C26.5053 23.9365 26.4142 24.3417 26.0974 24.5033C25.2447 24.9386 24.2188 25.6839 23.7111 26.7015C23.2994 27.5322 23.2162 28.5331 23.8451 29.4868C24.8977 31.076 27.8319 31.1197 30.5601 28.5852C31.2358 27.9649 31.8404 27.3689 32.455 26.6629C33.6566 25.289 34.0563 24.7883 35.6535 22.5728C35.6707 22.547 35.6793 22.5135 35.6707 22.4972C35.6578 22.4671 35.6364 22.4628 35.5888 22.4585C34.5225 22.4886 33.5928 22.8059 32.6892 23.4812C32.429 23.671 32.0545 23.6443 31.8906 23.3945C31.7081 23.1119 31.8391 22.7442 32.1392 22.5365C33.5928 21.5256 35.1807 21.3422 36.8023 21.0686C36.8009 21.0686 36.9148 21.0728 37.0075 20.9509C37.6732 20.0966 38.1758 19.326 38.8854 18.462C39.6004 17.5854 40.524 16.7804 41.2296 16.1758C42.2146 15.3289 42.8463 15.0439 43.4882 14.6945C43.6574 14.6061 43.4668 14.5005 43.4153 14.5005C39.8311 13.8268 36.1056 12.9551 32.5461 14.2729C30.0809 15.1929 29.0005 17.1478 29.5202 18.4541C29.8898 19.3807 31.1085 19.5313 32.2494 18.973C33.197 18.5087 34.074 17.7604 34.6956 16.7971C35.0434 16.2621 35.7762 16.6481 35.3803 17.577C34.3387 20.0253 32.3488 21.9672 29.9248 22.0492C27.862 22.1162 26.531 20.5986 26.5353 18.7263C26.5439 15.0335 30.6548 12.601 34.9753 12.2373C40.1784 11.8074 45.1065 13.1933 50.2725 13.8199C54.2307 14.2993 58.0255 14.3092 62.004 13.3953C62.4743 13.2931 62.8043 13.5932 62.7737 14.0682C62.735 14.7549 62.203 15.4162 60.8927 16.1308C59.4025 16.9481 57.8435 17.1961 56.2152 17.2094C52.2781 17.2438 48.6106 15.7075 44.8155 14.8829C44.8198 15.049 44.8636 15.2469 44.7245 15.3518C42.6223 16.9024 40.722 18.477 39.4494 20.6886C39.4065 20.7397 39.4279 20.7883 39.5039 20.7831C40.6089 20.7243 41.6026 20.6959 42.6341 20.6135C42.8145 20.5963 42.8213 20.5534 42.8054 20.422C42.7139 19.6597 42.9368 18.7904 43.6073 18.1925C44.2936 17.5771 45.153 17.5072 45.7226 17.9503C46.3702 18.455 46.3129 19.3626 45.9587 20.0432C45.5981 20.7338 45.0025 21.1032 44.4308 21.2825C44.4308 21.2825 44.3106 21.3083 44.3286 21.4173C44.3501 21.5917 45.13 22.0233 45.1966 22.1382C45.261 22.2477 45.2267 22.4173 45.1095 22.5474C45.027 22.6419 44.8978 22.7303 44.7325 22.7273C44.599 22.7247 44.5179 22.6784 44.347 22.5861C43.9975 22.3967 43.5607 22.0854 43.2694 21.7184C43.1702 21.5944 43.1195 21.5918 42.8718 21.6056C41.7555 21.67 40.0149 21.8383 38.8356 21.9855C38.5497 22.0199 38.5076 22.0744 38.4488 22.1736C36.5686 25.2741 34.561 28.6176 32.3567 30.8562C29.9925 33.2564 28.0273 33.8883 25.9411 33.9047" fill="white"/>
<path d="M48.7328 8.94327C24.2223 8.94327 4.35465 15.7163 4.35465 24.0043C4.35465 32.2929 24.2223 39.0665 48.7328 39.0665C73.243 39.0665 93.1093 32.2929 93.1093 24.0043C93.1093 15.7163 73.243 8.94327 48.7328 8.94327ZM48.7328 40.4315C23.33 40.4315 2.7374 33.0768 2.7374 24.0043C2.7374 14.9304 23.33 7.57707 48.7328 7.57707C74.1333 7.57707 94.7246 14.9304 94.7246 24.0043C94.7246 33.0768 74.1333 40.4315 48.7328 40.4315Z" fill="white"/>
</svg>
