<svg width="91" height="48" viewBox="0 0 91 48" fill="none" xmlns="http://www.w3.org/2000/svg">
<path d="M0 39.5856H17.6934V42.0903H0V39.5856Z" fill="#1F70C1"/>
<path d="M0 34.7813H17.6934V37.2948H0V34.7813Z" fill="#1F70C1"/>
<path d="M5.0476 29.9859H12.6369V32.4995H5.0476V29.9859Z" fill="#1F70C1"/>
<path d="M5.0476 25.1905H12.6369V27.7041H5.0476V25.1905Z" fill="#1F70C1"/>
<path d="M5.0476 20.3951H12.6369V22.9086H5.0476V20.3951Z" fill="#1F70C1"/>
<path d="M5.0476 15.5908H12.6369V18.1044H5.0476V15.5908Z" fill="#1F70C1"/>
<path d="M17.6934 10.7953H0V13.3089H17.6934V10.7953Z" fill="#1F70C1"/>
<path d="M17.6934 6H0V8.51359H17.6934V6Z" fill="#1F70C1"/>
<path d="M20.2172 37.2948H47.4288C47.8885 36.5194 48.231 35.6726 48.4384 34.7812H20.2172V37.2948Z" fill="#1F70C1"/>
<path d="M45.3107 25.1905H25.2738V27.7041H47.4289C46.852 26.7414 46.1399 25.8947 45.3107 25.1905Z" fill="#1F70C1"/>
<path d="M25.2738 20.3951V22.9086H45.3107C46.158 22.2045 46.87 21.3577 47.4289 20.3951H25.2738Z" fill="#1F70C1"/>
<path d="M47.4289 10.7953H20.2172V13.3089H48.4384C48.2041 12.4176 47.8615 11.5709 47.4289 10.7953Z" fill="#1F70C1"/>
<path d="M39.0644 6H20.2172V8.51359H45.5631C43.8685 6.96262 41.5702 6 39.0644 6Z" fill="#1F70C1"/>
<path d="M32.8541 15.5908H25.2738V18.1044H32.8541V15.5908Z" fill="#1F70C1"/>
<path d="M40.4434 18.1044H48.3752C48.6006 17.3022 48.7178 16.4554 48.7178 15.5908H40.4434V18.1044Z" fill="#1F70C1"/>
<path d="M25.2738 29.9859H32.8541V32.4995H25.2738V29.9859Z" fill="#1F70C1"/>
<path d="M40.4434 29.9859V32.4995H48.7178C48.7178 31.6348 48.6006 30.7881 48.3752 29.9859H40.4434Z" fill="#1F70C1"/>
<path d="M20.2172 42.0725L39.0644 42.0992C41.5882 42.0992 43.8685 41.1366 45.5721 39.5856H20.2172V42.0725Z" fill="#1F70C1"/>
<path d="M50.5566 39.5856H63.1934V42.0903H50.5566V39.5856Z" fill="#1F70C1"/>
<path d="M50.5566 34.7813H63.1934V37.2948H50.5566V34.7813Z" fill="#1F70C1"/>
<path d="M55.6041 29.9859H63.1934V32.4995H55.6041V29.9859Z" fill="#1F70C1"/>
<path d="M55.6041 25.1905H63.1934V27.7041H55.6041V25.1905Z" fill="#1F70C1"/>
<path d="M66.7087 10.7953H50.5566V13.3089H67.583L66.7087 10.7953Z" fill="#1F70C1"/>
<path d="M65.0321 6H50.5566V8.51359H65.9065L65.0321 6Z" fill="#1F70C1"/>
<path d="M78.3541 39.5856H91V42.0903H78.3541V39.5856Z" fill="#1F70C1"/>
<path d="M78.3541 34.7813H91V37.2948H78.3541V34.7813Z" fill="#1F70C1"/>
<path d="M78.3541 29.9859H85.9434V32.4995H78.3541V29.9859Z" fill="#1F70C1"/>
<path d="M78.3541 25.1905H85.9434V27.7041H78.3541V25.1905Z" fill="#1F70C1"/>
<path d="M78.3541 22.9086H85.9434V20.3951H71.4859L70.7738 22.4274L70.0617 20.3951H55.6041V22.9086H63.1934V20.6001L63.9957 22.9086H77.5519L78.3541 20.6001V22.9086Z" fill="#1F70C1"/>
<path d="M85.9434 15.5908H73.1624L72.288 18.1044H85.9434V15.5908Z" fill="#1F70C1"/>
<path d="M76.5244 6L75.65 8.51359H91V6H76.5244Z" fill="#1F70C1"/>
<path d="M70.7738 42.0725L71.648 39.5856H69.8995L70.7738 42.0725Z" fill="#1F70C1"/>
<path d="M69.0973 37.2948H72.4503L73.3516 34.7813H68.2049L69.0973 37.2948Z" fill="#1F70C1"/>
<path d="M67.3937 32.4995H74.1538L75.0462 29.9859H66.5013L67.3937 32.4995Z" fill="#1F70C1"/>
<path d="M65.6992 27.7041H75.8573L76.7226 25.1905H64.8248L65.6992 27.7041Z" fill="#1F70C1"/>
<path d="M55.6041 18.1044H69.2595L68.3852 15.5908H55.6041V18.1044Z" fill="#1F70C1"/>
<path d="M73.9735 13.3089H91V10.7953H74.8389L73.9735 13.3089Z" fill="#1F70C1"/>
</svg>
