<svg width="136" height="48" viewBox="0 0 136 48" fill="none" xmlns="http://www.w3.org/2000/svg">
<g clip-path="url(#clip0_1005_172068)">
<path fill-rule="evenodd" clip-rule="evenodd" d="M47.7049 29.2675C47.7049 29.8511 47.2772 30.3308 46.6685 30.3308C46.0765 30.3308 45.6487 29.85 45.6487 29.2675V19.1293C45.6487 18.5457 46.0765 18.066 46.6851 18.066C47.2772 18.066 47.7049 18.5468 47.7049 19.1293V29.2675Z" fill="black"/>
<path fill-rule="evenodd" clip-rule="evenodd" d="M60.9958 19.1293V28.3932C60.9958 29.6456 60.3546 30.3494 59.3347 30.3494H59.253C58.2827 30.3494 57.8214 29.7658 57.4106 28.9079L55.3378 24.7049L53.4955 20.3653L53.545 24.5683L53.5616 29.2511C53.5616 29.8347 53.1342 30.3144 52.5252 30.3144C51.9331 30.3144 51.5057 29.8336 51.5057 29.2511V19.9871C51.5057 18.8375 52.1469 18.031 53.266 18.031H53.3481C54.3845 18.031 54.8118 18.6146 55.2235 19.4724L57.2628 23.6416L59.0065 27.6906L58.9574 23.8131L58.9409 19.1304C58.9409 18.5468 59.3682 18.067 59.9773 18.067C60.568 18.0659 60.9958 18.5457 60.9958 19.1293Z" fill="black"/>
<path fill-rule="evenodd" clip-rule="evenodd" d="M69.2377 29.2512C69.2377 29.8347 68.8104 30.3145 68.2013 30.3145C67.6097 30.3145 67.1819 29.8336 67.1819 29.2512V20.0735H64.6322C64.1062 20.0735 63.6789 19.6615 63.6789 19.0615C63.6789 18.478 64.1062 18.0671 64.6322 18.0671H71.7874C72.3134 18.0671 72.7412 18.4791 72.7412 19.079C72.7412 19.6626 72.3134 20.0735 71.7874 20.0735H69.2377V29.2512Z" fill="black"/>
<path fill-rule="evenodd" clip-rule="evenodd" d="M75.4226 28.9081V19.3873C75.4226 18.4955 75.8995 17.9983 76.7715 18.0322H82.6934C83.2194 18.0322 83.6467 18.4606 83.6467 19.0442C83.6467 19.6277 83.2194 20.0386 82.6934 20.0386H77.4619V22.9893H82.0844C82.5947 22.9893 83.0055 23.3838 83.0055 23.9499C83.0055 24.516 82.5947 24.9105 82.0844 24.9105H77.4619V28.307H82.6934C83.2194 28.307 83.6467 28.7354 83.6467 29.319C83.6467 29.9026 83.2194 30.3135 82.6934 30.3135H76.722C75.8669 30.3145 75.3904 29.8173 75.4226 28.9081Z" fill="black"/>
<path fill-rule="evenodd" clip-rule="evenodd" d="M94.8501 30.3659C95.4256 30.0566 95.6069 29.4217 95.327 28.9245L93.2707 25.117C94.9653 24.7739 95.9526 23.4701 95.9526 21.703C95.9526 19.8507 94.8345 18.0322 92.1526 18.0322H88.2544C87.3827 17.9983 86.9059 18.4955 86.9059 19.3873V29.2687C86.9059 29.8512 87.3332 30.332 87.9253 30.332C88.5344 30.332 88.9617 29.8523 88.9617 29.2687L88.9452 25.529H91.1162L93.4029 29.9375C93.6815 30.4347 94.2906 30.6577 94.8501 30.3659ZM92.2008 23.5893H88.9438V20.0376H92.1842C93.2698 20.0376 93.8788 20.7577 93.8788 21.8047C93.8788 22.8516 93.3033 23.5893 92.2008 23.5893Z" fill="black"/>
<path fill-rule="evenodd" clip-rule="evenodd" d="M100.195 29.4053C98.9622 28.2556 98.4027 26.4546 98.4027 24.1903C98.4027 21.9084 98.9456 20.1249 100.163 18.9927C100.92 18.3064 101.939 17.8431 103.42 17.8431C104.72 17.8431 105.724 18.1523 106.48 18.8211C107.138 19.3698 107.615 20.1424 107.895 21.2232C108.042 21.7893 107.664 22.3554 107.039 22.4756C106.447 22.5783 105.971 22.1838 105.79 21.6177C105.592 21.0691 105.328 20.6746 105.016 20.3992C104.588 20.0047 104.062 19.8331 103.371 19.8331C102.631 19.8331 101.989 20.056 101.512 20.5533C100.821 21.2735 100.525 22.5608 100.525 24.1903C100.525 25.8032 100.805 27.0895 101.528 27.8097C102.005 28.3069 102.631 28.5299 103.354 28.5299C104.111 28.5299 104.686 28.3244 105.164 27.8611C105.41 27.6207 105.625 27.3124 105.773 26.9518C105.987 26.4196 106.431 26.0251 107.006 26.1628C107.582 26.3005 107.944 26.883 107.763 27.4491C107.466 28.3922 106.957 29.1474 106.266 29.6621C105.51 30.2281 104.572 30.5199 103.388 30.5199C101.874 30.5199 100.92 30.0566 100.195 29.4053Z" fill="black"/>
<path fill-rule="evenodd" clip-rule="evenodd" d="M115.297 17.8431C111.727 17.8431 110.214 20.3478 110.214 24.1903C110.214 28.1529 111.711 30.5374 115.297 30.5374C118.817 30.5374 120.364 28.1529 120.364 24.1903C120.364 20.279 118.834 17.8431 115.297 17.8431ZM115.28 19.8506C117.238 19.8506 118.257 21.2735 118.257 24.1903C118.257 27.1059 117.221 28.5299 115.28 28.5299C113.323 28.5299 112.336 27.107 112.336 24.1903C112.336 21.2746 113.355 19.8506 115.28 19.8506Z" fill="black"/>
<path fill-rule="evenodd" clip-rule="evenodd" d="M136.32 29.2511C136.32 29.8347 135.892 30.3144 135.284 30.3144C134.691 30.3144 134.264 29.8336 134.264 29.2511V24.6536L134.313 20.1762L132.882 24.7224L131.434 29.1997C131.188 29.9888 130.678 30.298 130.036 30.298C129.362 30.298 128.868 29.9724 128.605 29.1833L127.125 24.7235L125.759 20.2462L125.808 24.6547V29.2522C125.808 29.8358 125.38 30.3155 124.772 30.3155C124.18 30.3155 123.752 29.8347 123.752 29.2522V20.0746C123.752 18.8047 124.41 18.0671 125.562 18.0671C126.648 18.0671 127.256 18.667 127.601 19.7653L129.114 24.4481L130.036 27.6392L130.973 24.4481L132.487 19.7653C132.833 18.667 133.425 18.0671 134.51 18.0671C135.662 18.0671 136.303 18.7872 136.303 20.0746L136.32 29.2511Z" fill="black"/>
<path d="M29.046 25.943C29.046 26.2498 28.9284 26.5441 28.7192 26.7611C28.51 26.9781 28.2262 27.1 27.9303 27.1C27.6344 27.1 27.3506 26.9781 27.1413 26.7611C26.9321 26.5441 26.8145 26.2498 26.8145 25.943V15.6062C26.8145 15.2993 26.9321 15.005 27.1413 14.788C27.3506 14.571 27.6344 14.4491 27.9303 14.4491C28.2262 14.4491 28.51 14.571 28.7192 14.788C28.9284 15.005 29.046 15.2993 29.046 15.6062V25.943ZM28.6587 33.1051C28.5112 33.2581 24.3618 36.844 16.7545 36.844C9.14716 36.844 5.02543 33.2772 4.85024 33.1243C4.7398 33.0277 4.64888 32.9095 4.5826 32.7765C4.51632 32.6434 4.47607 32.4981 4.46404 32.3488C4.45206 32.1996 4.46859 32.0493 4.5127 31.9067C4.5568 31.7641 4.62763 31.6319 4.72112 31.5178C4.91372 31.2867 5.18654 31.144 5.4802 31.1207C5.77386 31.0974 6.06449 31.1955 6.28867 31.3935C6.35324 31.4413 10.06 34.5586 16.7452 34.5586C23.4304 34.5586 27.1649 31.4222 27.2018 31.3935C27.4285 31.1973 27.7201 31.1005 28.0145 31.1237C28.309 31.1469 28.5831 31.2883 28.7786 31.5178C28.9667 31.7454 29.0606 32.0408 29.0399 32.3398C29.0192 32.6389 28.8855 32.9173 28.668 33.1147L28.6587 33.1051ZM4.45372 15.6062C4.47038 15.2983 4.6039 15.0098 4.82509 14.8038C5.04623 14.5977 5.33709 14.4908 5.63401 14.5065C5.90926 14.5227 6.16901 14.644 6.36311 14.8471C6.55722 15.0501 6.67197 15.3205 6.68519 15.6062V25.9238C6.68519 26.2307 6.56764 26.525 6.35839 26.742C6.14918 26.959 5.86539 27.0809 5.56947 27.0809C5.27356 27.0809 4.98977 26.959 4.78052 26.742C4.57126 26.525 4.45372 26.2307 4.45372 25.9238V15.6062ZM10.0508 13.3112C10.0675 13.0034 10.201 12.7149 10.4222 12.5088C10.6433 12.3028 10.9342 12.1959 11.2311 12.2115C11.5064 12.2277 11.7661 12.3491 11.9602 12.5521C12.1543 12.7552 12.2691 13.0256 12.2823 13.3112V28.6109C12.2823 28.9177 12.1647 29.212 11.9555 29.429C11.7463 29.646 11.4625 29.7679 11.1666 29.7679C10.8707 29.7679 10.5869 29.646 10.3776 29.429C10.1684 29.212 10.0508 28.9177 10.0508 28.6109V13.3112ZM15.6756 12.7375C15.6756 12.4306 15.7931 12.1363 16.0024 11.9193C16.2117 11.7023 16.4955 11.5804 16.7914 11.5804C17.0873 11.5804 17.3711 11.7023 17.5803 11.9193C17.7895 12.1363 17.9071 12.4306 17.9071 12.7375V29.3758C17.9071 29.6827 17.7895 29.977 17.5803 30.194C17.3711 30.411 17.0873 30.5329 16.7914 30.5329C16.4955 30.5329 16.2117 30.411 16.0024 30.194C15.7931 29.977 15.6756 29.6827 15.6756 29.3758V12.7375ZM21.2082 13.3112C21.2082 13.0043 21.3257 12.71 21.535 12.4931C21.7442 12.2761 22.028 12.1541 22.3239 12.1541C22.6198 12.1541 22.9036 12.2761 23.1128 12.4931C23.3221 12.71 23.4396 13.0043 23.4396 13.3112V28.6109C23.4396 28.9177 23.3221 29.212 23.1128 29.429C22.9036 29.646 22.6198 29.7679 22.3239 29.7679C22.028 29.7679 21.7442 29.646 21.535 29.429C21.3257 29.212 21.2082 28.9177 21.2082 28.6109V13.3112ZM29.3503 7.0001H4.19553C3.64741 6.99629 3.10396 7.10466 2.59632 7.319C2.08863 7.53331 1.62675 7.84937 1.23702 8.24906C0.847296 8.64879 0.537431 9.12426 0.325194 9.64833C0.112911 10.1724 0.00243265 10.7347 0 11.3031V37.1213C0.00243265 37.6897 0.112911 38.252 0.325194 38.7761C0.537431 39.3002 0.847296 39.7756 1.23702 40.1754C1.62675 40.575 2.08863 40.8911 2.59632 41.1054C3.10396 41.3198 3.64741 41.428 4.19553 41.4243H29.3503C29.8976 41.428 30.4403 41.3201 30.9474 41.1063C31.4544 40.8926 31.9159 40.5774 32.3055 40.1787C32.6951 39.78 33.0052 39.3057 33.218 38.7827C33.4308 38.2598 33.5422 37.6985 33.5458 37.1309V11.3031C33.5434 10.7355 33.4332 10.174 33.2215 9.65054C33.0098 9.1271 32.7008 8.65205 32.3121 8.25245C31.9233 7.8529 31.4625 7.53666 30.9559 7.32176C30.4493 7.10686 29.9069 6.99757 29.3595 7.0001" fill="black"/>
</g>
<defs>
<clipPath id="clip0_1005_172068">
<rect width="136" height="48" fill="white"/>
</clipPath>
</defs>
</svg>
