<svg width="60" height="48" viewBox="0 0 60 48" fill="none" xmlns="http://www.w3.org/2000/svg">
<path d="M10.8747 47.5644V44.4673C10.8747 43.2826 10.1541 42.5069 8.91713 42.5069C8.29864 42.5069 7.6261 42.7113 7.16373 43.3849C6.80344 42.8196 6.28703 42.5069 5.51241 42.5069C4.996 42.5069 4.47958 42.6632 4.07126 43.2285V42.6091H2.99039V47.5644H4.07126V44.8282C4.07126 43.9502 4.53363 43.5352 5.2542 43.5352C5.97478 43.5352 6.33507 43.9983 6.33507 44.8282V47.5644H7.41593V44.8282C7.41593 43.9502 7.93235 43.5352 8.59888 43.5352C9.31946 43.5352 9.67974 43.9983 9.67974 44.8282V47.5644H10.8747ZM26.9075 42.6091H25.1541V41.1117H24.0733V42.6091H23.0945V43.5893H24.0733V45.8625C24.0733 46.9991 24.5356 47.6667 25.7726 47.6667C26.235 47.6667 26.7514 47.5103 27.1117 47.3058L26.7994 46.3737C26.4872 46.5782 26.1269 46.6323 25.8687 46.6323C25.3523 46.6323 25.1481 46.3196 25.1481 45.8084V43.5893H26.9015V42.6091H26.9075ZM36.0829 42.5008C35.4644 42.5008 35.05 42.8136 34.7918 43.2225V42.6031H33.711V47.5584H34.7918V44.768C34.7918 43.9441 35.1521 43.4751 35.8247 43.4751C36.0288 43.4751 36.287 43.5292 36.4972 43.5773L36.8095 42.5429C36.5933 42.5008 36.287 42.5008 36.0829 42.5008ZM22.2178 43.018C21.7014 42.6572 20.9808 42.5008 20.2062 42.5008C18.9692 42.5008 18.1465 43.1203 18.1465 44.1005C18.1465 44.9244 18.765 45.3935 19.8459 45.5438L20.3623 45.5979C20.9267 45.7002 21.239 45.8565 21.239 46.1151C21.239 46.4759 20.8247 46.7345 20.1041 46.7345C19.3835 46.7345 18.8131 46.4759 18.4528 46.2173L17.9363 47.0412C18.5008 47.4562 19.2754 47.6606 20.05 47.6606C21.4912 47.6606 22.3199 46.9871 22.3199 46.061C22.3199 45.183 21.6473 44.7199 20.6205 44.5636L20.1041 44.5094C19.6417 44.4553 19.2814 44.3531 19.2814 44.0464C19.2814 43.6856 19.6417 43.4811 20.2122 43.4811C20.8307 43.4811 21.4492 43.7397 21.7614 43.896L22.2178 43.018ZM50.9748 42.5008C50.3563 42.5008 49.942 42.8136 49.6838 43.2225V42.6031H48.6029V47.5584H49.6838V44.768C49.6838 43.9441 50.044 43.4751 50.7166 43.4751C50.9207 43.4751 51.1789 43.5292 51.3891 43.5773L51.7014 42.555C51.4912 42.5009 51.185 42.5008 50.9748 42.5008ZM37.1637 45.0868C37.1637 46.5842 38.1966 47.6667 39.7938 47.6667C40.5144 47.6667 41.0308 47.5103 41.5472 47.1014L41.0308 46.2234C40.6165 46.5361 40.2082 46.6864 39.7398 46.6864C38.8631 46.6864 38.2446 46.067 38.2446 45.0868C38.2446 44.1546 38.8631 43.5352 39.7398 43.4871C40.2022 43.4871 40.6165 43.6435 41.0308 43.9502L41.5472 43.0722C41.0308 42.6572 40.5144 42.5069 39.7938 42.5069C38.1966 42.5009 37.1637 43.5893 37.1637 45.0868ZM47.1617 42.6091H46.0809V43.2285C45.7206 42.7655 45.2042 42.5069 44.5316 42.5069C43.1385 42.5069 42.0577 43.5893 42.0577 45.0868C42.0577 46.5842 43.1385 47.6667 44.5316 47.6667C45.2522 47.6667 45.7686 47.4081 46.0809 46.945V47.5644H47.1617V42.6091ZM43.1926 45.0868C43.1926 44.2088 43.757 43.4871 44.6878 43.4871C45.5645 43.4871 46.1829 44.1606 46.1829 45.0868C46.1829 45.9648 45.5645 46.6864 44.6878 46.6864C43.763 46.6323 43.1926 45.9588 43.1926 45.0868ZM30.2582 42.5008C28.8171 42.5008 27.7842 43.5352 27.7842 45.0807C27.7842 46.6323 28.8171 47.6606 30.3123 47.6606C31.0328 47.6606 31.7534 47.4562 32.3239 46.9871L31.8074 46.2113C31.3931 46.524 30.8767 46.7285 30.3663 46.7285C29.6938 46.7285 29.0272 46.4158 28.8711 45.5438H32.528C32.528 45.3874 32.528 45.2852 32.528 45.1289C32.5761 43.5352 31.6453 42.5008 30.2582 42.5008ZM30.2582 43.433C30.9307 43.433 31.3931 43.8479 31.4952 44.6177H28.9191C29.0212 43.9502 29.4836 43.433 30.2582 43.433ZM57.1117 40.6486H56.0308V43.2285C55.6705 42.7655 55.1541 42.5069 54.4816 42.5069C53.0885 42.5069 52.0076 43.5893 52.0076 45.0868C52.0076 46.5842 53.0885 47.6667 54.4816 47.6667C55.2022 47.6667 55.7186 47.4081 56.0308 46.945V47.5644H57.1117V40.6486ZM53.1425 45.0868C53.1425 44.2088 53.707 43.4871 54.6377 43.4871C55.5144 43.4871 56.1329 44.1606 56.1329 45.0868C56.1329 45.9648 55.5144 46.6864 54.6377 46.6864C53.707 46.6323 53.1425 45.9588 53.1425 45.0868ZM16.9576 42.6091H15.8767V43.2285C15.5164 42.7655 15 42.5069 14.3275 42.5069C12.9343 42.5069 11.8535 43.5893 11.8535 45.0868C11.8535 46.5842 12.9343 47.6667 14.3275 47.6667C15.048 47.6667 15.5645 47.4081 15.8767 46.945V47.5644H16.9576V42.6091ZM12.9404 45.0868C12.9404 44.2088 13.5048 43.4871 14.4355 43.4871C15.3122 43.4871 15.9307 44.1606 15.9307 45.0868C15.9307 45.9648 15.3122 46.6864 14.4355 46.6864C13.5048 46.6323 12.9404 45.9588 12.9404 45.0868Z" fill="black"/>
<path d="M38.0945 4.97509H21.8575V34.1899H38.0945V4.97509Z" fill="#FF5A00"/>
<path d="M22.9384 19.5825C22.9384 13.6469 25.7246 8.37886 30 4.97508C26.8535 2.49742 22.8843 1 18.5548 1C8.29864 1 0 9.31099 0 19.5825C0 29.8539 8.29864 38.1649 18.5548 38.1649C22.8843 38.1649 26.8535 36.6675 30 34.1899C25.7186 30.8342 22.9384 25.518 22.9384 19.5825Z" fill="#EB001B"/>
<path d="M60 19.5825C60 29.8539 51.7014 38.1649 41.4452 38.1649C37.1157 38.1649 33.1465 36.6675 30 34.1899C34.3295 30.7801 37.0616 25.518 37.0616 19.5825C37.0616 13.6469 34.2754 8.37886 30 4.97508C33.1405 2.49742 37.1097 1 41.4392 1C51.7014 1 60 9.36512 60 19.5825Z" fill="#F79E1B"/>
</svg>
