<svg width="209" height="48" viewBox="0 0 209 48" fill="none" xmlns="http://www.w3.org/2000/svg">
<path fill-rule="evenodd" clip-rule="evenodd" d="M45.5285 15.0716C38.7327 15.0716 34.4575 19.8028 34.4575 26.4169C34.4575 32.7932 39.1797 37.0828 45.5285 37.0828C51.1461 37.0828 55.539 33.8769 56.1494 28.303H49.4373C49.1096 30.5098 47.888 31.8707 45.4874 31.8707C42.5562 31.8707 41.3773 29.1063 41.3773 26.4169C41.3773 23.5332 41.9877 20.283 45.8538 20.283C47.6021 20.283 49.1901 21.5309 49.2336 23.2931H55.9441C55.4592 17.7989 50.7797 15.0716 45.5285 15.0716ZM119.677 15.0708C116.682 15.0708 114.576 16.427 113.317 18.6093H113.231V15.6735H106.52V36.4826H113.437V25.6776C113.437 22.6399 114.766 20.6803 117.18 20.6811C120.769 20.6811 120.641 23.5703 120.641 26.4153V36.4826H127.56V23.1288C127.56 20.1211 126.719 15.0708 119.677 15.0708ZM139.872 15.0708C137.469 15.0708 135.028 15.4736 133.155 16.5178C131.284 17.5967 129.981 19.3628 129.86 22.0885H136.331C136.657 20.3248 137.877 19.4852 139.79 19.4852C141.216 19.4852 143.126 20.0808 143.126 21.6447C143.126 22.9321 142.475 23.3294 141.296 23.5719C136.494 24.5315 129.006 24.0126 129.006 30.7855C129.006 35.0782 132.18 37.0813 136.206 37.0813C138.733 37.0813 141.38 36.3601 143.168 34.5175C143.251 35.1991 143.33 35.8381 143.574 36.4826H150.536C149.721 34.8389 149.722 32.9125 149.722 31.1472V22.0451C149.722 16.1553 144.875 15.0708 139.871 15.0708H139.872ZM143.046 26.7383C143.209 31.0303 142.108 32.8714 138.813 32.8714C137.266 32.8714 135.925 32.1882 135.925 30.509C135.925 28.8622 137.228 28.2201 138.774 27.8607C140.282 27.4602 142.07 27.3426 143.046 26.7391L143.046 26.7383ZM151.981 11.0355V36.4841H158.898V11.0348L151.981 11.0355ZM175.366 11.0355V17.9206H175.28C173.857 16.036 171.863 15.0732 169.258 15.0732C163.274 15.0732 160.346 20.2048 160.346 25.6168C160.346 31.4703 163.155 37.0828 169.787 37.0828C172.229 37.0828 174.265 36.041 175.608 34.0759H175.687V36.4834H182.283V11.0355H175.366ZM171.496 20.2846C174.508 20.2846 175.608 23.0529 175.608 26.0583C175.608 28.7027 174.875 31.8707 171.496 31.8707C168.322 31.8707 167.266 28.7034 167.266 25.8577C167.266 23.2133 168.322 20.2846 171.496 20.2846ZM183.726 11.0355V17.919H186.964L190.197 11.0355H183.726ZM57.5961 11.0355V36.4841H68.7034C76.5526 36.4841 81.364 31.9923 81.364 23.6556C81.364 15.7754 76.6236 11.0355 68.7034 11.0355H57.5961ZM64.9683 16.9356H68.0764C72.0965 16.9356 73.8985 19.5832 73.8985 23.6358C73.8985 28.0937 72.4456 30.5864 68.0764 30.5864H64.9683V16.9356ZM5.33651 11L0 36.4834H7.61941L9.58329 26.3632C9.79338 25.245 9.97218 24.1211 10.1195 22.9929H10.1961C10.3161 23.6974 10.6264 25.0923 10.9383 26.2826L13.7069 36.4834H21.2797L24.0435 26.2826C24.3586 25.0923 24.6673 23.6974 24.7858 22.9929H24.8671C24.9342 23.534 25.1466 25.0599 25.4017 26.3632L27.3656 36.4834H34.9834L29.6477 11H21.5727L18.3374 23.7993C18.0666 24.7914 17.7326 26.3979 17.5304 27.2359H17.4546C17.2493 26.3979 16.9176 24.7914 16.6476 23.7993L13.4108 11L5.33651 11ZM93.9219 15.0716C87.1024 15.0716 82.8067 19.8446 82.8067 26.0962C82.8067 32.3493 87.1008 37.1208 93.9203 37.1208C100.741 37.1208 105.032 32.3501 105.032 26.0962C105.032 19.8446 100.741 15.0716 93.9219 15.0716ZM93.9203 20.283C96.9107 20.283 98.111 22.7654 98.111 26.0962C98.111 29.4301 96.9115 31.9094 93.9211 31.9094C90.9283 31.9094 89.728 29.4301 89.728 26.0962C89.728 22.7647 90.9275 20.283 93.9203 20.283ZM198.426 15.0692C194.331 15.0692 188.728 16.4317 188.728 21.4448C188.728 27.0582 194.291 27.1759 198.589 28.2596C199.791 28.5423 201.923 28.8606 201.922 30.4656C201.922 32.1116 200.033 32.6724 198.707 32.6724C197.743 32.6724 196.911 32.4315 196.269 31.9497C195.586 31.4268 195.146 30.663 195.146 29.6236H188.545C188.747 35.44 193.808 37.0813 198.749 37.0813C203.449 37.0813 208.93 35.2362 208.93 29.6647C208.93 27.9405 207.848 24.8925 203.63 24.0481C200.496 23.3705 195.738 23.0103 195.738 21.0452C195.738 19.5998 197.546 19.4797 198.668 19.4797C199.513 19.4797 200.185 19.6408 200.748 20.001C201.309 20.3628 201.632 20.9227 201.632 21.805H208.027C207.787 16.393 203.006 15.0692 198.426 15.0692Z" fill="black"/>
</svg>
