<svg width="114" height="48" viewBox="0 0 114 48" fill="none" xmlns="http://www.w3.org/2000/svg">
<path d="M41.8409 13.7263H46.1617L53.5086 27.0163L60.8554 13.7263H65.0826V35.5643H61.5574V18.8271L55.1152 30.4168H51.8083L45.3661 18.8271V35.5643H41.8409V13.7263Z" fill="#1C2B33"/>
<path d="M76.4536 35.9543C74.8209 35.9543 73.3859 35.5929 72.1485 34.8702C70.9109 34.1475 69.9464 33.1466 69.255 31.8675C68.5633 30.5884 68.2175 29.1221 68.2177 27.4687C68.2177 25.7945 68.5556 24.3127 69.2315 23.0231C69.9075 21.7338 70.846 20.7251 72.0471 19.9969C73.2482 19.2692 74.6287 18.9052 76.1885 18.905C77.7379 18.905 79.0715 19.2716 80.1896 20.0047C81.3072 20.738 82.1677 21.7649 82.771 23.0855C83.3741 24.4062 83.6756 25.9557 83.6758 27.7339V28.7008H71.7117C71.9301 30.0322 72.4683 31.0799 73.3262 31.844C74.1841 32.6083 75.2682 32.9905 76.5784 32.9904C77.6287 32.9904 78.5334 32.8345 79.2926 32.5225C80.0516 32.2105 80.7639 31.7374 81.4296 31.1031L83.3014 33.396C81.4398 35.1017 79.1572 35.9544 76.4536 35.9543ZM79.0275 22.9996C78.289 22.2458 77.3219 21.8688 76.1261 21.8687C74.9613 21.8687 73.9864 22.2535 73.2014 23.0231C72.4161 23.7927 71.9196 24.8274 71.7117 26.1272H80.2909C80.1869 24.7961 79.7657 23.7535 79.0275 22.9996Z" fill="#1C2B33"/>
<path d="M87.9501 22.1808H84.7056V19.2951H87.9501V14.522H91.3506V19.2951H96.2796V22.1808H91.3506V29.4965C91.3506 30.7131 91.5585 31.5814 91.9745 32.1014C92.3902 32.6215 93.1026 32.8815 94.1115 32.8813C94.5585 32.8813 94.938 32.8631 95.2502 32.8267C95.5622 32.7905 95.9053 32.741 96.2796 32.6785V35.533C95.8525 35.6565 95.4173 35.7504 94.9772 35.8139C94.4737 35.888 93.9653 35.9245 93.4563 35.923C89.7854 35.923 87.95 33.916 87.9501 29.9021V22.1808Z" fill="#1C2B33"/>
<path d="M114 35.5643H110.662V33.2869C110.069 34.1397 109.315 34.7974 108.4 35.2601C107.485 35.7226 106.445 35.9541 105.28 35.9543C103.845 35.9543 102.574 35.5877 101.467 34.8545C100.359 34.1214 99.4882 33.1127 98.8539 31.8285C98.2195 30.5442 97.9023 29.0753 97.9023 27.4219C97.9023 25.7581 98.2247 24.2866 98.8695 23.0074C99.5141 21.7284 100.406 20.725 101.545 19.9969C102.683 19.2692 103.991 18.9052 105.468 18.905C106.58 18.905 107.579 19.1208 108.463 19.5525C109.335 19.9743 110.09 20.6036 110.662 21.3852V19.2951H114V35.5643ZM110.6 24.9885C110.235 24.063 109.661 23.3324 108.876 22.7968C108.091 22.2613 107.183 21.9936 106.154 21.9936C104.698 21.9936 103.538 22.4823 102.676 23.4598C101.812 24.4373 101.381 25.758 101.381 27.4219C101.381 29.0963 101.797 30.4222 102.629 31.3996C103.461 32.3771 104.589 32.8658 106.014 32.8658C107.064 32.8658 108 32.5954 108.821 32.0546C109.643 31.5141 110.235 30.7862 110.6 29.8708V24.9885Z" fill="#1C2B33"/>
<path d="M3.73506 28.1471C3.73506 29.4675 4.02488 30.4812 4.40367 31.0945C4.90032 31.8978 5.64107 32.2381 6.39627 32.2381C7.37031 32.2381 8.26139 31.9964 9.9786 29.6214C11.3543 27.7178 12.9753 25.0458 14.066 23.3706L15.9131 20.5327C17.1962 18.5617 18.6813 16.3707 20.3841 14.8856C21.7742 13.6734 23.2738 13 24.783 13C27.3167 13 29.7302 14.4683 31.5773 17.2221C33.5987 20.238 34.58 24.0368 34.58 27.9571C34.58 30.2876 34.1206 32 33.339 33.3528C32.5838 34.6612 31.1119 35.9684 28.6359 35.9684V32.2381C30.756 32.2381 31.2851 30.29 31.2851 28.0605C31.2851 24.8834 30.5443 21.3576 28.9125 18.8383C27.7544 17.0513 26.2537 15.9594 24.6026 15.9594C22.8168 15.9594 21.3798 17.3063 19.7648 19.7077C18.9062 20.9836 18.0247 22.5385 17.0351 24.293L15.9456 26.223C13.757 30.1036 13.2026 30.9875 12.1083 32.4461C10.1903 35.0003 8.5524 35.9684 6.39627 35.9684C3.83847 35.9684 2.22107 34.8608 1.21936 33.1917C0.401642 31.8317 0 30.0471 0 28.0136L3.73506 28.1471Z" fill="#0081FB"/>
<path d="M2.945 17.4854C4.6574 14.8459 7.12861 13 9.96297 13C11.6044 13 13.2363 13.4858 14.9403 14.8772C16.8042 16.3984 18.7908 18.9032 21.2692 23.0315L22.1578 24.5131C24.3032 28.087 25.5237 29.9256 26.238 30.7927C27.1568 31.9062 27.8001 32.2381 28.6359 32.2381C30.756 32.2381 31.2851 30.29 31.2851 28.0605L34.58 27.9571C34.58 30.2876 34.1206 32 33.339 33.3528C32.5838 34.6612 31.1119 35.9684 28.6359 35.9684C27.0966 35.9684 25.733 35.6341 24.225 34.2115C23.0658 33.1196 21.7105 31.1799 20.6679 29.4362L17.5666 24.2557C16.0105 21.6558 14.5831 19.7173 13.757 18.8395C12.8683 17.8955 11.7259 16.7555 9.90285 16.7555C8.42734 16.7555 7.1743 17.7909 6.12569 19.3746L2.945 17.4854Z" fill="url(#paint0_linear_1005_171784)"/>
<path d="M9.90285 16.7555C8.42734 16.7555 7.1743 17.7909 6.12569 19.3746C4.64297 21.6125 3.73506 24.946 3.73506 28.1471C3.73506 29.4675 4.02488 30.4812 4.40367 31.0945L1.21936 33.1917C0.401642 31.8317 0 30.0471 0 28.0136C0 24.3158 1.01493 20.4617 2.945 17.4854C4.6574 14.8459 7.12861 13 9.96297 13L9.90285 16.7555Z" fill="url(#paint1_linear_1005_171784)"/>
<defs>
<linearGradient id="paint0_linear_1005_171784" x1="15.8214" y1="27.0696" x2="99.0845" y2="42.2235" gradientUnits="userSpaceOnUse">
<stop stop-color="#0064E1"/>
<stop offset="0.4" stop-color="#0064E1"/>
<stop offset="0.83" stop-color="#0073EE"/>
<stop offset="1" stop-color="#0082FB"/>
</linearGradient>
<linearGradient id="paint1_linear_1005_171784" x1="5.41139" y1="29.7152" x2="5.41139" y2="20.9367" gradientUnits="userSpaceOnUse">
<stop stop-color="#0082FB"/>
<stop offset="1" stop-color="#0064E0"/>
</linearGradient>
</defs>
</svg>
