<svg width="107" height="48" viewBox="0 0 107 48" fill="none" xmlns="http://www.w3.org/2000/svg">
<g clip-path="url(#clip0_1005_172116)">
<path d="M14.7142 37.056C13.1044 37.3386 11.4664 37.4234 9.77187 37.6491L4.60342 22.5114V38.2988C2.99367 38.4682 1.5251 38.6941 0 38.9201V10H4.29294L10.1672 26.409V10H14.7142V37.056ZM23.6105 20.5909C25.3617 20.5909 28.0447 20.5061 29.6544 20.5061V25.0248C27.6491 25.0248 25.3051 25.0248 23.6105 25.1095V31.8313C26.2654 31.6619 28.9202 31.4358 31.6031 31.351V35.7001L19.0917 36.6888V10H31.6031V14.5188H23.6105V20.5909ZM48.4072 14.5189H43.719V35.3051C42.1939 35.3051 40.6688 35.3051 39.2005 35.3615V14.5189H34.5123V10H48.4074L48.4072 14.5189ZM55.7501 20.2803H61.9353V24.7989H55.7501V35.051H51.3158V10H63.9405V14.5188H55.7501V20.2803ZM71.2834 31.097C73.8535 31.1533 76.4516 31.3513 78.9653 31.4923V35.9546C74.9268 35.7003 70.8881 35.4464 66.7647 35.3615V10H71.2834V31.097ZM82.778 36.2653C84.2183 36.3502 85.7434 36.4349 87.212 36.6041V10H82.778V36.2653ZM107.01 10L101.277 23.754L107.01 38.9201C105.315 38.6941 103.621 38.3835 101.926 38.101L98.6785 29.7415L95.3744 37.4234C93.7361 37.1407 92.1545 37.056 90.5168 36.83L96.3346 23.5844L91.0814 10H95.9389L98.9043 17.5972L102.068 10H107.01V10Z" fill="#D81F26"/>
</g>
<defs>
<clipPath id="clip0_1005_172116">
<rect width="107" height="48" fill="white"/>
</clipPath>
</defs>
</svg>
