<svg width="112" height="48" viewBox="0 0 112 48" fill="none" xmlns="http://www.w3.org/2000/svg">
<path fill-rule="evenodd" clip-rule="evenodd" d="M69.2061 22.0974C68.8275 22.2201 68.3099 22.3242 67.667 22.4045C67.3605 22.4445 67.02 22.4647 66.6209 22.4647C65.9509 22.4647 65.2251 22.4113 64.5223 22.3564L64.498 22.3555C63.8468 22.3063 63.2308 22.2601 62.6397 22.2601C62.2175 22.2601 61.8305 22.2851 61.4593 22.3325C60.3551 22.4697 59.4842 22.8164 59.4842 22.8164L59.4936 22.7267C59.7076 20.5121 61.5685 18.6214 63.8201 18.3224C64.0277 18.2981 64.2416 18.2843 64.4555 18.2843C66.577 18.2843 68.6343 19.8926 69.2457 22.0289L69.261 22.0843L69.2061 22.0974ZM71.7981 23.0376L71.7974 23.0074C71.7878 22.865 71.7607 22.6346 71.7307 22.387C71.6728 21.9377 71.5745 21.4954 71.4389 21.0688C70.4149 17.8388 67.6738 15.7543 64.4555 15.7543C64.1344 15.7543 63.8026 15.7746 63.4753 15.8193C59.3482 16.3504 56.5451 20.0908 57.0909 24.3345C57.5872 28.1764 60.6784 30.8084 64.4402 30.8084C64.7576 30.8084 65.0882 30.7864 65.422 30.7463C67.4268 30.4917 69.1884 29.6519 70.5081 28.0189C70.5825 27.926 70.6193 27.8072 70.6055 27.7007C70.5934 27.6062 70.5381 27.5163 70.4384 27.4441C70.217 27.2848 69.4266 26.9014 68.9966 26.6966L68.7118 26.5562C68.5814 26.489 68.488 26.4588 68.4029 26.4588C68.2985 26.4588 68.1997 26.5122 68.103 26.6294C67.2523 27.6184 66.1756 28.1379 65.0755 28.2823C64.8574 28.309 64.6459 28.3232 64.4402 28.3232C62.4354 28.3232 60.4119 26.9808 59.8246 25.1382L59.8099 25.0899L59.853 25.0691C59.9572 25.0175 60.8954 24.5806 62.2858 24.5806C62.4581 24.5806 62.6338 24.5876 62.8053 24.6029C63.2041 24.6344 63.6046 24.6863 64.027 24.7397C64.8066 24.8427 65.6151 24.9494 66.5588 24.9494C67.1405 24.9494 67.7123 24.9074 68.2953 24.8263C70.5902 24.384 71.5006 23.7404 71.5078 23.7345C71.8318 23.5249 71.8198 23.3513 71.7981 23.0376ZM107.748 16.6C107.748 16.4073 107.59 16.2522 107.399 16.2522H105.5C105.311 16.2522 105.154 16.4073 105.154 16.6V30.1047C105.154 30.2955 105.311 30.4532 105.5 30.4532H107.399C107.59 30.4532 107.748 30.2955 107.748 30.1047V16.6ZM106.451 11.4355C105.507 11.4355 104.737 12.2064 104.737 13.152C104.737 14.0955 105.507 14.8646 106.451 14.8646C107.398 14.8646 108.166 14.0955 108.166 13.152C108.166 12.2064 107.398 11.4355 106.451 11.4355ZM81.3085 18.3191C84.0002 18.3191 86.1094 20.5344 86.1094 23.3642C86.1094 26.2108 84.108 28.3554 81.4533 28.3554C80.1128 28.3554 78.8703 27.8746 77.9612 27.0037C77.0232 26.1084 76.5089 24.844 76.5089 23.4488C76.5089 20.6202 78.6616 18.3191 81.3085 18.3191ZM81.2243 30.813C81.3441 30.8181 81.4686 30.8229 81.5896 30.8229C83.541 30.8229 85.3545 30.0695 86.702 28.7117C88.0685 27.3275 88.8188 25.4294 88.8188 23.3642C88.8188 19.0972 85.5339 15.7543 81.3391 15.7543C77.9257 15.7543 75.0444 18.0019 74.1632 21.3455C74.0134 21.9132 73.8583 23.3609 73.8583 24.8046V35.4009C73.8583 35.594 74.0134 35.7513 74.2065 35.7513H76.0904C76.2851 35.7513 76.4428 35.5921 76.4428 35.398L76.4413 28.7231L76.5402 28.8191C77.4655 29.7182 79.1816 30.7172 81.2243 30.813ZM47.4604 18.3191C50.1497 18.3191 52.2598 20.5344 52.2598 23.3642C52.2598 26.2108 50.2591 28.3554 47.6022 28.3554C46.2584 28.3554 45.0216 27.8746 44.1131 27.0037C43.1736 26.1084 42.6567 24.844 42.6567 23.4488C42.6567 20.6202 44.8116 18.3191 47.4604 18.3191ZM47.3768 30.813C47.4969 30.8181 47.6205 30.8229 47.7393 30.8229C49.693 30.8229 51.5071 30.0695 52.8524 28.7117C54.2191 27.3275 54.9718 25.4294 54.9718 23.3642C54.9718 19.0972 51.684 15.7543 47.4886 15.7543C44.0766 15.7543 41.1921 18.0019 40.3132 21.3455C40.1605 21.9132 40.0078 23.3609 40.0078 24.8046V35.4009C40.0078 35.594 40.1644 35.7513 40.3528 35.7513H42.2423C42.4362 35.7513 42.5939 35.5921 42.5939 35.398L42.5908 28.7231L42.6862 28.8191C43.6119 29.7182 45.328 30.7172 47.3768 30.813ZM90.6338 28.4475C92.274 29.9485 94.0658 30.806 96.3922 30.806H96.4659C100.481 30.78 102.275 28.5853 102.275 26.4229C102.275 23.432 99.4534 22.6145 98.5889 22.4332C98.3115 22.3791 98.023 22.3249 97.7272 22.266C97.0283 22.1315 96.3027 21.9926 95.6434 21.8104C95.1812 21.6833 93.6742 21.1815 93.6742 20.0547C93.6742 18.8144 95.0508 18.1457 96.3438 18.1457C97.4301 18.1457 98.3358 18.3285 99.4947 19.2335C99.5853 19.3048 99.7124 19.3864 99.8675 19.3864C99.9821 19.3864 100.092 19.3468 100.21 19.2624C100.531 19.0259 101.118 18.5307 101.506 18.1428C101.597 18.0503 101.64 17.949 101.635 17.8431C101.626 17.6786 101.503 17.5441 101.441 17.4923C99.8909 16.2629 98.3994 15.7598 96.2964 15.7543H96.2811C93.2728 15.7543 91.0017 17.688 91.0017 20.2518C91.0017 22.2833 92.6719 23.7262 95.6992 24.3208L97.5949 24.6841C98.8409 24.9129 99.5413 25.5746 99.517 26.501C99.4947 27.404 98.3872 28.3392 96.5676 28.3392C95.0823 28.3392 93.774 27.7593 92.6778 26.7644L92.6618 26.7487C92.5844 26.6784 92.4919 26.5929 92.3674 26.5929C92.2803 26.5929 92.188 26.6334 92.0885 26.711C91.9743 26.8038 90.7084 27.8048 90.5732 27.9463C90.5113 28.0128 90.4822 28.083 90.4835 28.1568C90.4866 28.2738 90.5638 28.3832 90.6338 28.4475ZM110.518 28.7614C110.649 28.7614 110.723 28.8635 110.723 28.9753C110.723 29.0814 110.649 29.1829 110.51 29.1829H110.217V28.7614H110.518ZM110.683 29.4627C110.922 29.4023 111.025 29.1879 111.025 28.9753C111.025 28.7163 110.862 28.4593 110.518 28.4593H109.908V30.0279H110.217V29.4859H110.319L110.709 30.0279H111.084L110.683 29.4627ZM110.443 30.5309C111.159 30.5309 111.723 29.954 111.723 29.2367C111.723 28.521 111.159 27.9387 110.443 27.9387C109.727 27.9387 109.162 28.521 109.162 29.2367C109.162 29.954 109.727 30.5309 110.443 30.5309ZM110.443 27.6619C111.311 27.6619 112 28.3687 112 29.2367C112 30.1047 111.311 30.806 110.443 30.806C109.577 30.806 108.891 30.1047 108.891 29.2367C108.891 28.3687 109.577 27.6619 110.443 27.6619Z" fill="#004883"/>
<path fill-rule="evenodd" clip-rule="evenodd" d="M29.4761 35.4765C22.7344 42.2197 11.7998 42.2189 5.05854 35.4765C-1.68618 28.7325 -1.68618 17.7987 5.05854 11.0568C11.8013 4.31428 22.7344 4.31428 29.4748 11.0575C36.2195 17.7985 36.2195 28.7325 29.4761 35.4765Z" fill="white"/>
<path fill-rule="evenodd" clip-rule="evenodd" d="M30.7085 14.5533C31.0321 15.6011 31.2092 16.7133 31.2092 17.8663C31.2092 21.5864 29.3803 24.8575 26.5984 26.9072C21.761 30.47 14.7105 30.4748 4.97542 33.5424C7.91367 37.0542 12.3289 39.2894 17.2665 39.2894C26.1161 39.2894 33.2896 32.1159 33.2896 23.2668C33.2896 20.0544 32.3386 17.0637 30.7085 14.5533Z" fill="#004883"/>
<path fill-rule="evenodd" clip-rule="evenodd" d="M26.8758 10.4467C24.1983 8.43422 20.872 7.24379 17.267 7.24379C8.41789 7.24379 1.24463 14.4188 1.24463 23.2668C1.24463 26.8285 2.40663 30.118 4.37189 32.7778C15.1482 29.6401 23.6571 21.1869 26.8758 10.4467Z" fill="#E32934"/>
</svg>
