<svg width="153" height="36" viewBox="0 0 153 36" fill="none" xmlns="http://www.w3.org/2000/svg">
<path d="M36.257 17.7779C36.257 27.5959 28.2971 35.5558 18.4791 35.5558C8.65988 35.5558 0.701172 27.5959 0.701172 17.7779C0.701172 7.95871 8.66049 0 18.4791 0C28.2971 0 36.257 7.95932 36.257 17.7779Z" fill="#6B7280"/>
<path d="M20.8491 17.7779H15.8124V12.4445H20.8491C21.1993 12.4445 21.546 12.5135 21.8696 12.6475C22.1931 12.7815 22.4871 12.978 22.7347 13.2256C22.9823 13.4732 23.1788 13.7672 23.3128 14.0907C23.4468 14.4143 23.5158 14.761 23.5158 15.1112C23.5158 15.4614 23.4468 15.8082 23.3128 16.1317C23.1788 16.4553 22.9823 16.7492 22.7347 16.9969C22.4871 17.2445 22.1931 17.4409 21.8696 17.5749C21.546 17.7089 21.1993 17.7779 20.8491 17.7779ZM20.8491 8.88895H12.2568V26.6669H15.8124V21.3335H20.8491C24.2855 21.3335 27.0714 18.5476 27.0714 15.1112C27.0714 11.6748 24.2855 8.88895 20.8491 8.88895Z" fill="white"/>
<path d="M54.9329 15.6049C54.9329 14.6266 54.1814 14.0338 53.205 14.0338H50.5875V17.1577H53.2056C54.182 17.1577 54.9329 16.5649 54.9329 15.6049ZM48.1087 23.7035V11.8517H53.5533C56.0851 11.8517 57.4628 13.5626 57.4628 15.6049C57.4628 17.6296 56.0674 19.3399 53.5533 19.3399H50.5875V23.7035H48.1087ZM58.9718 23.7035V15.0632H61.1868V16.1977C61.7978 15.4645 62.8284 14.854 63.876 14.854V17.0179C63.7179 16.9832 63.5264 16.9662 63.2649 16.9662C62.5317 16.9662 61.5534 17.3845 61.1868 17.9269V23.7035H58.9718ZM71.3325 19.2699C71.3325 17.9609 70.5627 16.8264 69.1668 16.8264C67.7872 16.8264 67.0205 17.9609 67.0205 19.2705C67.0205 20.5966 67.7872 21.7311 69.1668 21.7311C70.5627 21.7311 71.3325 20.5966 71.3325 19.2699ZM64.7156 19.2699C64.7156 16.8793 66.3913 14.854 69.1668 14.854C71.9599 14.854 73.6356 16.8787 73.6356 19.2699C73.6356 21.6612 71.9599 23.7035 69.1668 23.7035C66.3913 23.7035 64.7156 21.6612 64.7156 19.2699ZM81.0945 20.7711V17.7864C80.7279 17.2271 79.9253 16.8264 79.1915 16.8264C77.9183 16.8264 77.0452 17.8211 77.0452 19.2705C77.0452 20.7358 77.9183 21.7311 79.1915 21.7311C79.9253 21.7311 80.7279 21.3304 81.0945 20.7711ZM81.0945 23.7035V22.4121C80.4306 23.2493 79.5241 23.7035 78.4935 23.7035C76.3819 23.7035 74.7586 22.0984 74.7586 19.2699C74.7586 16.5303 76.3473 14.854 78.4935 14.854C79.4882 14.854 80.4306 15.2736 81.0945 16.1454V11.8517H83.3283V23.7035H81.0945ZM91.2238 23.7035V22.4291C90.6486 23.0578 89.6363 23.7035 88.2568 23.7035C86.4072 23.7035 85.5347 22.6912 85.5347 21.0502V15.0632H87.7503V20.1777C87.7503 21.3475 88.3613 21.7311 89.3037 21.7311C90.1586 21.7311 90.8401 21.2599 91.2238 20.7705V15.0632H93.4406V23.7035H91.2238ZM95.1053 19.2699C95.1053 16.6872 96.9901 14.854 99.5741 14.854C101.302 14.854 102.349 15.6049 102.908 16.3728L101.458 17.7335C101.058 17.1401 100.447 16.8264 99.6786 16.8264C98.3344 16.8264 97.3926 17.804 97.3926 19.2705C97.3926 20.7358 98.3344 21.7311 99.6786 21.7311C100.447 21.7311 101.058 21.3821 101.458 20.8057L102.908 22.1677C102.349 22.9356 101.302 23.7035 99.5741 23.7035C96.9901 23.7035 95.1053 21.871 95.1053 19.2699ZM104.814 21.3821V17.0009H103.418V15.0632H104.814V12.7589H107.031V15.0632H108.74V17.0009H107.031V20.7887C107.031 21.3298 107.309 21.7311 107.798 21.7311C108.129 21.7311 108.445 21.6089 108.566 21.4697L109.038 23.1617C108.707 23.4597 108.113 23.7035 107.187 23.7035C105.634 23.7035 104.814 22.9009 104.814 21.3821ZM122.94 23.7035V18.589H117.441V23.7035H114.964V11.8517H117.441V16.4245H122.94V11.8523H125.435V23.7035H122.94ZM133.368 23.7035V22.4291C132.792 23.0578 131.78 23.7035 130.401 23.7035C128.551 23.7035 127.678 22.6912 127.678 21.0502V15.0632H129.894V20.1777C129.894 21.3475 130.505 21.7311 131.448 21.7311C132.303 21.7311 132.984 21.2599 133.368 20.7705V15.0632H135.585V23.7035H133.368ZM143.478 23.7035V18.3981C143.478 17.2283 142.869 16.827 141.925 16.827C141.052 16.827 140.39 17.3158 140.005 17.8047V23.7041H137.789V15.0632H140.005V16.1454C140.547 15.5174 141.594 14.854 142.955 14.854C144.823 14.854 145.713 15.901 145.713 17.5414V23.7035H143.478ZM148.354 21.3821V17.0009H146.959V15.0632H148.355V12.7589H150.572V15.0632H152.282V17.0009H150.572V20.7887C150.572 21.3298 150.85 21.7311 151.339 21.7311C151.671 21.7311 151.986 21.6089 152.108 21.4697L152.578 23.1617C152.248 23.4597 151.653 23.7035 150.728 23.7035C149.175 23.7035 148.354 22.9009 148.354 21.3821Z" fill="#6B7280"/>
</svg>
