<svg width="105" height="36" viewBox="0 0 105 36" fill="none" xmlns="http://www.w3.org/2000/svg">
<path d="M17.727 35.0829C27.2844 35.0829 35.0322 27.3351 35.0322 17.7778C35.0322 8.22043 27.2844 0.472656 17.727 0.472656C8.16966 0.472656 0.421875 8.22043 0.421875 17.7778C0.421875 27.3351 8.16966 35.0829 17.727 35.0829Z" fill="#6B7280"/>
<path d="M29.2706 17.7778C29.2706 16.3736 28.1351 15.2585 26.7513 15.2585C26.07 15.2585 25.4503 15.5268 24.996 15.9606C23.2616 14.7215 20.8866 13.9162 18.2433 13.8131L19.3996 8.40252L23.158 9.20779C23.1996 10.1578 23.9841 10.9219 24.9548 10.9219C25.946 10.9219 26.7513 10.1166 26.7513 9.12503C26.7513 8.13384 25.946 7.32857 24.9548 7.32857C24.2527 7.32857 23.633 7.7416 23.3439 8.34055L19.1521 7.45252C19.0281 7.43174 18.9042 7.45252 18.8214 7.51449C18.7183 7.57647 18.6563 7.67963 18.6359 7.80357L17.3552 13.8335C14.6708 13.9162 12.2546 14.7215 10.4993 15.9814C10.0266 15.5298 9.39775 15.2783 8.74404 15.2793C7.33982 15.2793 6.22469 16.4148 6.22469 17.7986C6.22469 18.831 6.84404 19.6982 7.71166 20.0908C7.67009 20.3384 7.64969 20.5863 7.64969 20.8549C7.64969 24.7369 12.1722 27.8968 17.7479 27.8968C23.3235 27.8968 27.846 24.7577 27.846 20.8549C27.846 20.607 27.8252 20.3384 27.7841 20.0908C28.6513 19.6982 29.2706 18.8102 29.2706 17.7778ZM11.9655 19.5743C11.9655 18.5831 12.7708 17.7778 13.7623 17.7778C14.7535 17.7778 15.5588 18.5831 15.5588 19.5743C15.5588 20.5655 14.7535 21.3711 13.7623 21.3711C12.7708 21.3915 11.9655 20.5655 11.9655 19.5743ZM22.0225 24.3447C20.7834 25.5838 18.4292 25.6665 17.7479 25.6665C17.0458 25.6665 14.6915 25.563 13.4729 24.3447C13.2873 24.1588 13.2873 23.8697 13.4729 23.6838C13.6588 23.4982 13.9479 23.4982 14.1338 23.6838C14.9187 24.4686 16.5708 24.7369 17.7479 24.7369C18.925 24.7369 20.5975 24.4686 21.3616 23.6838C21.5475 23.4982 21.8366 23.4982 22.0225 23.6838C22.1876 23.8697 22.1876 24.1588 22.0225 24.3447ZM21.6918 21.3915C20.7006 21.3915 19.8954 20.5862 19.8954 19.5951C19.8954 18.6039 20.7006 17.7986 21.6918 17.7986C22.6834 17.7986 23.4887 18.6039 23.4887 19.5951C23.4887 20.5655 22.6834 21.3915 21.6918 21.3915Z" fill="white"/>
<path d="M94.6727 14.2053C95.8817 14.2053 96.8618 13.2252 96.8618 12.0162C96.8618 10.8072 95.8817 9.82715 94.6727 9.82715C93.4638 9.82715 92.4837 10.8072 92.4837 12.0162C92.4837 13.2252 93.4638 14.2053 94.6727 14.2053Z" fill="#6B7280"/>
<path d="M63.4075 21.3503C64.4814 21.3503 65.1008 20.545 65.0596 19.7602C65.0392 19.3471 64.9976 19.0785 64.9564 18.8721C64.2955 16.0225 61.9828 13.9158 59.236 13.9158C55.9734 13.9158 53.3301 16.869 53.3301 20.5035C53.3301 24.1379 55.9734 27.0911 59.236 27.0911C61.2807 27.0911 62.7469 26.3478 63.8001 25.1707C64.3163 24.5925 64.2131 23.7045 63.5934 23.2707C63.0772 22.9196 62.4371 23.0436 61.9621 23.4358C61.5078 23.8285 60.6406 24.6129 59.236 24.6129C57.5843 24.6129 56.1801 23.1879 55.8702 21.3087H63.4075V21.3503ZM59.2156 16.4148C60.7022 16.4148 61.9828 17.5711 62.4578 19.1612H55.9734C56.4484 17.5507 57.7286 16.4148 59.2156 16.4148ZM53.454 15.2169C53.454 14.5975 52.9998 14.1017 52.4216 13.9986C50.6248 13.7303 48.9315 14.3908 47.9611 15.6095V15.444C47.9611 14.6799 47.3414 14.2053 46.722 14.2053C46.0403 14.2053 45.4829 14.7627 45.4829 15.444V25.5629C45.4829 26.2239 45.9783 26.802 46.6393 26.8432C47.3622 26.8844 47.9611 26.327 47.9611 25.6041V20.3795C47.9611 18.0669 49.6956 16.1669 52.091 16.4355H52.3389C52.9582 16.394 53.454 15.857 53.454 15.2169ZM95.9115 16.5387C95.9115 15.857 95.3541 15.2996 94.6728 15.2996C93.9911 15.2996 93.4337 15.857 93.4337 16.5387V25.6041C93.4337 26.2858 93.9911 26.8432 94.6728 26.8432C95.3541 26.8432 95.9115 26.2858 95.9115 25.6041V16.5387ZM77.4912 9.68276C77.4912 9.00106 76.9338 8.44368 76.2521 8.44368C75.5708 8.44368 75.0134 9.00106 75.0134 9.68276V15.1965C74.1666 14.3496 73.1134 13.9366 71.8535 13.9366C68.5909 13.9366 65.9476 16.8898 65.9476 20.5242C65.9476 24.1587 68.5909 27.1119 71.8535 27.1119C73.1134 27.1119 74.1873 26.6781 75.0338 25.8312C75.137 26.4098 75.6535 26.8432 76.2521 26.8432C76.9338 26.8432 77.4912 26.2858 77.4912 25.6041V9.68276ZM71.8743 24.6541C69.9743 24.6541 68.4462 22.8165 68.4462 20.5242C68.4462 18.2528 69.9743 16.394 71.8743 16.394C73.7743 16.394 75.3025 18.232 75.3025 20.5242C75.3025 22.8165 73.7535 24.6541 71.8743 24.6541ZM90.4186 9.68276C90.4186 9.00106 89.8612 8.44368 89.1795 8.44368C88.4982 8.44368 87.9404 9.00106 87.9404 9.68276V15.1965C87.094 14.3496 86.0408 13.9366 84.7809 13.9366C81.5183 13.9366 78.875 16.8898 78.875 20.5242C78.875 24.1587 81.5183 27.1119 84.7809 27.1119C86.0408 27.1119 87.1144 26.6781 87.9612 25.8312C88.0644 26.4098 88.5805 26.8432 89.1795 26.8432C89.8612 26.8432 90.4186 26.2858 90.4186 25.6041V9.68276ZM84.7809 24.6541C82.8809 24.6541 81.3531 22.8165 81.3531 20.5242C81.3531 18.2528 82.8809 16.394 84.7809 16.394C86.6809 16.394 88.2091 18.232 88.2091 20.5242C88.2091 22.8165 86.6809 24.6541 84.7809 24.6541ZM102.189 25.6249V16.4148H103.284C103.862 16.4148 104.378 15.9809 104.42 15.382C104.461 14.7419 103.945 14.2053 103.325 14.2053H102.189V12.4704C102.189 11.8095 101.694 11.2313 101.033 11.1901C100.31 11.149 99.7115 11.7063 99.7115 12.4292V14.2257H98.6787C98.1006 14.2257 97.5844 14.6595 97.5432 15.2584C97.5016 15.8986 98.0182 16.4355 98.6375 16.4355H99.6907V25.6457C99.6907 26.327 100.248 26.8844 100.93 26.8844C101.653 26.8432 102.189 26.3062 102.189 25.6249Z" fill="#6B7280"/>
</svg>
