<svg width="115" height="48" viewBox="0 0 115 48" fill="none" xmlns="http://www.w3.org/2000/svg">
<path d="M57.4944 19.6083C56.4075 18.7168 55.0242 18.1225 53.5421 18.1225C52.4552 18.1225 50.9731 18.8159 50.9731 20.0045C50.9731 21.2922 52.554 21.7875 53.6409 22.1837L55.123 22.679C58.2848 23.6695 60.755 25.2544 60.755 28.9194C60.755 31.1977 60.261 33.4759 58.3836 35.0608C56.6051 36.5466 54.2337 37.24 51.9612 37.24C49.0958 37.24 46.3292 36.2495 43.9578 34.6646L46.5268 29.91C48.0089 31.1977 49.6886 32.2873 51.7636 32.2873C53.1469 32.2873 54.629 31.5939 54.629 30.009C54.629 28.3251 52.2576 27.7308 51.0719 27.4336C47.4161 26.4431 44.9459 25.4525 44.9459 20.9951C44.9459 16.3395 48.2065 13.3679 52.7516 13.3679C55.0242 13.3679 57.7908 14.0613 59.8657 15.2499L57.4944 19.6083ZM68.5607 11.4858V22.9762H68.6595C69.944 21.2922 71.4261 20.4998 73.5999 20.4998C77.5522 20.4998 79.4295 23.0752 79.4295 27.0374V36.4476H73.9951V28.5232C73.9951 26.7402 73.6987 24.8582 71.5249 24.8582C69.3512 24.8582 68.6595 26.7402 68.6595 28.5232V36.4476H63.2252V11.4858H68.5607ZM98.5981 29.6128H87.0376C87.0376 31.792 88.2233 33.0797 90.4959 33.0797C91.6816 33.0797 92.472 32.6835 93.0649 31.693H98.3016C97.4124 35.358 93.9541 37.0419 90.4959 37.0419C85.3579 37.0419 81.6032 34.1693 81.6032 28.8204C81.6032 23.6695 85.0615 20.5989 90.1006 20.5989C95.4362 20.5989 98.5981 23.8677 98.5981 29.2166V29.6128ZM93.4601 26.4431C93.1637 24.9573 91.8792 23.9667 90.3971 23.9667C88.8162 23.9667 87.5317 24.8582 87.1364 26.4431H93.4601ZM100.772 11.4858H106.206V36.5466H100.772V11.4858ZM109.467 11.4858H115V36.5466H109.467V11.4858Z" fill="#DD1D21"/>
<path fill-rule="evenodd" clip-rule="evenodd" d="M17.6001 40.6627C16.3411 40.6627 15.6941 39.8399 15.6941 39.8399C14.6594 39.7948 6.5731 39.8173 6.5731 39.8173L5.78585 33.1573C5.78585 33.1573 0.805315 29.6388 0.400439 29.233C-1.99026 18.3628 6.65101 8 17.6004 8C28.5498 8 37.1911 18.3628 34.8004 29.233C34.3955 29.6388 29.415 33.1573 29.415 33.1573L28.6277 39.8173C28.6277 39.8173 20.5414 39.7948 19.5067 39.8399C19.5067 39.8399 18.8597 40.6627 17.6001 40.6627Z" fill="#ED1C24"/>
<path fill-rule="evenodd" clip-rule="evenodd" d="M17.6118 30.534L16.8477 11.3092C15.9263 11.1207 13.5756 11.3469 12.3156 12.2893L15.9827 30.6094L10.9804 13.0432C9.78128 13.0285 7.36149 15.0606 7.18175 15.663L14.4782 31.2502L6.27909 17.0012C5.47046 17.3028 3.70275 20.5635 3.98483 20.9424L13.1243 32.1549L3.72156 22.5802C3.72156 22.5802 2.49921 24.4461 3.29634 27.6067L8.60742 31.4508L9.27233 36.7026H15.7839C15.7839 36.7026 16.8492 37.7147 17.6051 37.7147C18.361 37.7147 19.4263 36.7026 19.4263 36.7026H25.9379L26.6028 31.4508L31.9139 27.6067C32.711 24.4461 31.4887 22.5802 31.4887 22.5802L22.086 32.1549L31.2254 20.9424C31.5075 20.5635 29.7398 17.3028 28.9311 17.0012L20.732 31.2502L28.0285 15.663C27.8487 15.0606 25.4289 13.0285 24.2298 13.0432L19.2276 30.6094L22.8946 12.2893C21.6346 11.3469 19.284 11.1207 18.3625 11.3092L17.6118 30.534Z" fill="#FFD500"/>
</svg>
