<svg width="127" height="48" viewBox="0 0 127 48" fill="none" xmlns="http://www.w3.org/2000/svg">
<path d="M27.1506 11.8838C27.1253 11.7068 26.9736 11.6057 26.8472 11.6057C26.7208 11.6057 24.2181 11.5551 24.2181 11.5551C24.2181 11.5551 22.1199 9.53273 21.9177 9.30521C21.7154 9.10297 21.3109 9.15353 21.1593 9.20409C21.1593 9.20409 20.7548 9.33049 20.0975 9.53273C19.9964 9.17881 19.8194 8.74905 19.5919 8.29401C18.8588 6.87834 17.7465 6.11994 16.4319 6.11994C16.3308 6.11994 16.255 6.11994 16.1538 6.14522C16.1033 6.09466 16.078 6.0441 16.0274 6.01882C15.446 5.41211 14.7129 5.10875 13.8281 5.13403C12.1343 5.18459 10.4406 6.4233 9.05019 8.59737C8.08956 10.1394 7.35644 12.0607 7.12892 13.5522C5.18237 14.1589 3.81726 14.5887 3.7667 14.5887C2.78079 14.8921 2.75551 14.9173 2.62911 15.8527C2.57855 16.5605 0 36.5064 0 36.5064L21.6396 40.2478L31.0184 37.922C30.9931 37.922 27.1759 12.0607 27.1506 11.8838ZM19.0105 9.88665C18.5049 10.0383 17.9487 10.2153 17.342 10.4175C17.342 9.55801 17.2156 8.34457 16.8364 7.33338C18.1257 7.53562 18.7577 9.00185 19.0105 9.88665ZM16.2044 10.7462C15.0668 11.1001 13.8281 11.4793 12.5894 11.8585C12.9433 10.5186 13.6006 9.20409 14.4095 8.31929C14.7129 7.99065 15.1426 7.63674 15.623 7.4345C16.1286 8.42041 16.2297 9.81081 16.2044 10.7462ZM13.8787 6.27162C14.2831 6.27162 14.6118 6.34746 14.8898 6.5497C14.4348 6.77722 13.9798 7.13114 13.5753 7.58618C12.4883 8.74905 11.654 10.5439 11.3254 12.2882C10.2889 12.6169 9.27771 12.9202 8.36764 13.1983C8.97435 10.4428 11.2748 6.34746 13.8787 6.27162Z" fill="#95BF47"/>
<path d="M26.8472 11.6057C26.7208 11.6057 24.2181 11.5551 24.2181 11.5551C24.2181 11.5551 22.1199 9.53273 21.9177 9.30521C21.8418 9.22937 21.7408 9.17901 21.6397 9.17901L21.6396 40.2478L31.0184 37.922C31.0184 37.922 27.2012 12.0609 27.176 11.884C27.1254 11.707 26.9736 11.6057 26.8472 11.6057Z" fill="#5E8E3E"/>
<path d="M16.4324 16.4339L15.3453 20.504C15.3453 20.504 14.1319 19.9478 12.6909 20.049C10.5674 20.1754 10.5674 21.5152 10.5674 21.8438C10.6938 23.664 15.4717 24.0685 15.7498 28.3408C15.952 31.703 13.9802 34.0035 11.0983 34.1804C7.66023 34.3574 5.76424 32.335 5.76424 32.335L6.49736 29.2256C6.49736 29.2256 8.41863 30.6665 9.93542 30.5654C10.9213 30.5148 11.3005 29.6806 11.25 29.1244C11.0983 26.7481 7.2052 26.8998 6.9524 22.9814C6.75016 19.695 8.89895 16.3834 13.6516 16.08C15.497 15.9536 16.4324 16.4339 16.4324 16.4339Z" fill="white"/>
<path d="M43.7091 25.1053C42.6221 24.5239 42.0659 24.0183 42.0659 23.3357C42.0659 22.4762 42.8496 21.92 44.0631 21.92C45.4787 21.92 46.7427 22.5015 46.7427 22.5015L47.7286 19.4679C47.7286 19.4679 46.8186 18.7601 44.1389 18.7601C40.3975 18.7601 37.7936 20.9089 37.7936 23.9172C37.7936 25.6362 39.0071 26.9255 40.625 27.8608C41.9395 28.5939 42.3946 29.1248 42.3946 29.9085C42.3946 30.7174 41.7373 31.3747 40.5239 31.3747C38.729 31.3747 37.01 30.4394 37.01 30.4394L35.9482 33.4729C35.9482 33.4729 37.5156 34.5347 40.17 34.5347C44.0125 34.5347 46.7933 32.6387 46.7933 29.2259C46.768 27.3805 45.3776 26.0659 43.7091 25.1053Z" fill="black"/>
<path d="M59.0288 18.7097C57.1328 18.7097 55.6413 19.6198 54.5037 20.9849L54.4532 20.9596L56.0964 12.3645H51.8241L47.6529 34.2568H51.9252L53.3408 26.774C53.897 23.9427 55.3632 22.1983 56.7283 22.1983C57.689 22.1983 58.0682 22.8556 58.0682 23.791C58.0682 24.3724 58.0176 25.1055 57.8912 25.687L56.2733 34.2568H60.5456L62.2141 25.4089C62.391 24.4735 62.5174 23.3612 62.5174 22.6028C62.5427 20.176 61.2787 18.7097 59.0288 18.7097Z" fill="black"/>
<path d="M72.2245 18.7093C67.0675 18.7093 63.6547 23.3608 63.6547 28.5432C63.6547 31.8549 65.7023 34.5345 69.5449 34.5345C74.6009 34.5345 78.0136 30.0095 78.0136 24.7007C78.0389 21.6418 76.244 18.7093 72.2245 18.7093ZM70.1263 31.2734C68.6601 31.2734 68.0534 30.0347 68.0534 28.4674C68.0534 26.0152 69.3174 22.021 71.6431 22.021C73.1599 22.021 73.6655 23.3356 73.6655 24.5996C73.6655 27.2287 72.3762 31.2734 70.1263 31.2734Z" fill="black"/>
<path d="M88.9857 18.7093C86.1038 18.7093 84.4606 21.2626 84.4606 21.2626H84.41L84.6628 18.9621H80.8708C80.6939 20.5042 80.34 22.8805 80.0113 24.6501L77.0283 40.3236H81.3006L82.4888 33.9784H82.5899C82.5899 33.9784 83.4747 34.5345 85.0926 34.5345C90.1233 34.5345 93.4097 29.3775 93.4097 24.1698C93.4097 21.2879 92.1204 18.7093 88.9857 18.7093ZM84.8903 31.324C83.778 31.324 83.1207 30.692 83.1207 30.692L83.8286 26.6978C84.3342 24.0181 85.7246 22.2485 87.2161 22.2485C88.5306 22.2485 88.9351 23.462 88.9351 24.5996C88.9351 27.3803 87.2919 31.324 84.8903 31.324Z" fill="black"/>
<path d="M99.5266 12.5666C98.1615 12.5666 97.0745 13.6537 97.0745 15.0441C97.0745 16.308 97.8835 17.1928 99.0969 17.1928H99.1474C100.487 17.1928 101.625 16.2828 101.65 14.7154C101.65 13.4767 100.816 12.5666 99.5266 12.5666Z" fill="black"/>
<path d="M93.5356 34.2313H97.8079L100.715 19.0634H96.4175L93.5356 34.2313Z" fill="black"/>
<path d="M111.61 19.0384H108.627L108.779 18.3305C109.032 16.8643 109.891 15.575 111.332 15.575C112.091 15.575 112.697 15.8026 112.697 15.8026L113.532 12.4403C113.532 12.4403 112.799 12.0611 111.206 12.0611C109.689 12.0611 108.172 12.4909 107.009 13.4768C105.543 14.7155 104.861 16.5104 104.532 18.3305L104.406 19.0384H102.409L101.777 22.2742H103.774L101.498 34.2569H105.771L108.046 22.2742H111.004L111.61 19.0384Z" fill="black"/>
<path d="M121.924 19.0634C121.924 19.0634 119.245 25.8131 118.057 29.504H118.006C117.93 28.3158 116.944 19.0634 116.944 19.0634H112.444L115.023 32.9926C115.074 33.296 115.048 33.4982 114.922 33.7005C114.416 34.6611 113.582 35.5964 112.596 36.279C111.787 36.8604 110.877 37.2396 110.169 37.4924L111.357 41.1327C112.217 40.9558 114.037 40.2227 115.554 38.807C117.5 36.9868 119.321 34.1555 121.166 30.313L126.399 19.0634H121.924Z" fill="black"/>
</svg>
