<svg width="147" height="48" viewBox="0 0 147 48" fill="none" xmlns="http://www.w3.org/2000/svg">
<g clip-path="url(#clip0_1005_171564)">
<path d="M12.3537 20.1158V18.7191C11.8688 18.6423 11.3791 18.6002 10.8883 18.5932C6.13629 18.5832 1.92916 21.6625 0.502203 26.1952C-0.924755 30.7279 0.759606 35.662 4.66036 38.376C1.73842 35.2489 0.927088 30.6965 2.58878 26.7525C4.25048 22.8084 8.07487 20.2092 12.3537 20.1158Z" fill="#25F4EE"/>
<path d="M12.617 35.9375C15.2739 35.9339 17.4578 33.8408 17.5741 31.1864V7.49974H21.9016C21.8133 7.0048 21.7711 6.50273 21.7757 6H15.8569V29.6638C15.7585 32.3316 13.5694 34.4449 10.8997 34.4492C10.1019 34.4425 9.31718 34.2462 8.61005 33.8768C9.53957 35.1646 11.0287 35.9305 12.617 35.9375Z" fill="#25F4EE"/>
<path d="M29.9842 15.5365V14.22C28.3916 14.2205 26.8343 13.7505 25.5079 12.869C26.6706 14.2208 28.242 15.1571 29.9842 15.5365Z" fill="#25F4EE"/>
<path d="M25.5079 12.869C24.2013 11.3811 23.481 9.46845 23.4815 7.48828H21.9016C22.314 9.70089 23.618 11.6466 25.5079 12.869Z" fill="#FE2C55"/>
<path d="M10.8883 24.512C8.60827 24.5237 6.62884 26.0857 6.08733 28.3005C5.54582 30.5153 6.58121 32.8144 8.59859 33.8768C7.50548 32.3677 7.35106 30.373 8.19888 28.7135C9.04671 27.0541 10.7535 26.0104 12.617 26.0118C13.1138 26.018 13.6073 26.0951 14.0824 26.2407V20.2189C13.5972 20.1462 13.1075 20.108 12.617 20.1044H12.3537V24.6838C11.8761 24.5557 11.3825 24.4979 10.8883 24.512Z" fill="#FE2C55"/>
<path d="M29.9842 15.5365L29.9842 20.1158C27.0359 20.1101 24.1641 19.1769 21.7757 17.4484V29.4806C21.763 35.4846 16.8923 40.3451 10.8883 40.3451C8.65855 40.3491 6.48253 39.6611 4.66036 38.376C7.7013 41.6466 12.4339 42.7232 16.5904 41.0899C20.7469 39.4566 23.4805 35.4462 23.4815 30.9803V18.9824C25.8779 20.6997 28.7532 21.6207 31.7014 21.6156V15.7197C31.1242 15.7178 30.5488 15.6565 29.9842 15.5365Z" fill="#FE2C55"/>
<path d="M21.7757 29.4806V17.4484C24.1714 19.167 27.0472 20.0882 29.9956 20.0815V15.5021C28.2537 15.1343 26.6787 14.2102 25.5079 12.869C23.618 11.6466 22.314 9.70089 21.9016 7.48828H17.5741L17.5741 31.1864C17.4876 33.3007 16.0715 35.1281 14.0458 35.7397C12.0201 36.3513 9.82926 35.6128 8.58717 33.8997C6.56979 32.8373 5.5344 30.5382 6.07591 28.3234C6.61743 26.1086 8.59685 24.5466 10.8768 24.5349C11.3739 24.5394 11.8676 24.6165 12.3422 24.7639V20.1845C8.03945 20.2574 4.18616 22.8657 2.51974 26.8334C0.853327 30.801 1.68859 35.3785 4.64893 38.5019C6.48907 39.7446 8.66823 40.3884 10.8883 40.3451C16.8923 40.3451 21.763 35.4846 21.7757 29.4806Z" fill="black"/>
<path d="M54.0227 20.2489H49.2373V39.7112H43.2498V20.2489H37.2738L37.2623 14.914H55.7171L54.0227 20.2489Z" fill="black"/>
<path d="M103.125 20.2489H97.9272V39.7112H91.9512V20.2489H85.9522L85.9408 14.914H104.819L103.125 20.2489Z" fill="black"/>
<path d="M62.7579 39.7111H56.8848L56.8391 22.8019H62.7579V39.7111Z" fill="black"/>
<path d="M71.0121 26.3967L76.8737 20.6725H83.9259L76.5188 27.8621L84.8189 39.7112H78.3047L72.7637 31.4798L71.0121 33.1741V39.7112H65.1048V14.8453H71.0121V26.3967Z" fill="black"/>
<path d="M133.692 26.3967L139.542 20.6725H146.594L139.187 27.8621L147.43 39.7112H140.916L135.386 31.4798L133.692 33.1741V39.7112H127.773L127.716 14.8453H133.692V26.3967Z" fill="black"/>
<path d="M59.8041 20.8671C61.4481 20.8671 62.7807 19.5345 62.7807 17.8906C62.7807 16.2466 61.4481 14.914 59.8041 14.914C58.1602 14.914 56.8276 16.2466 56.8276 17.8906C56.8276 19.5345 58.1602 20.8671 59.8041 20.8671Z" fill="black"/>
<path d="M104.064 29.5908C104.065 24.3092 108.128 19.917 113.394 19.5048C113.131 19.5048 112.776 19.5048 112.512 19.5048C107.161 19.8169 102.981 24.2475 102.981 29.608C102.981 34.9684 107.161 39.399 112.512 39.7112C112.776 39.7112 113.131 39.7112 113.394 39.7112C108.115 39.2979 104.047 34.8856 104.064 29.5908Z" fill="#25F4EE"/>
<path d="M115.695 19.4704C115.42 19.4704 115.065 19.4704 114.802 19.4704C120.051 19.9039 124.089 24.2901 124.089 29.5564C124.089 34.8228 120.051 39.209 114.802 39.6425C115.065 39.6425 115.42 39.6425 115.695 39.6425C121.284 39.6425 125.815 35.1114 125.815 29.5221C125.815 23.9328 121.284 19.4017 115.695 19.4017V19.4704Z" fill="#FE2C55"/>
<path d="M114.092 34.5136C111.374 34.5136 109.17 32.3096 109.17 29.5908C109.17 26.872 111.374 24.668 114.092 24.668C116.811 24.668 119.015 26.872 119.015 29.5908C119.009 32.307 116.808 34.5073 114.092 34.5136ZM114.092 19.4704C108.503 19.4704 103.972 24.0015 103.972 29.5908C103.972 35.1801 108.503 39.7111 114.092 39.7111C119.682 39.7111 124.213 35.1801 124.213 29.5908C124.213 26.9067 123.146 24.3325 121.248 22.4346C119.351 20.5367 116.776 19.4704 114.092 19.4704Z" fill="black"/>
</g>
<defs>
<clipPath id="clip0_1005_171564">
<rect width="147" height="48" fill="white"/>
</clipPath>
</defs>
</svg>
