<svg width="146" height="48" viewBox="0 0 146 48" fill="none" xmlns="http://www.w3.org/2000/svg">
<g clip-path="url(#clip0_1005_171730)">
<path fill-rule="evenodd" clip-rule="evenodd" d="M13.9217 24.4418C13.9217 24.2596 13.9282 23.9018 13.9282 23.9018C8.55252 23.0581 4.66766 20.743 4.56028 18.0212C3.23678 19.672 2.48585 21.5623 2.48585 23.5766C2.48585 29.5036 8.99198 34.36 17.2616 34.7928C15.3459 33.5852 13.9217 29.4066 13.9217 24.4418ZM1.52588e-05 24.009C1.52588e-05 17.3771 8.25303 12 18.4344 12C28.6154 12 36.8687 17.3771 36.8687 24.009C36.8687 30.641 28.6153 36.0182 18.4344 36.0182C8.25303 36.0182 1.52588e-05 30.6408 1.52588e-05 24.009ZM22.6921 20.8714C26.5169 20.273 29.1941 18.9 29.1941 17.3023C29.1941 15.1579 24.3763 13.4215 18.4344 13.4215C12.492 13.4215 7.67462 15.158 7.67462 17.3023C7.67462 18.9 10.3514 20.273 14.1767 20.8714C14.7971 16.7147 16.4694 13.7331 18.4344 13.7331C20.3998 13.7331 22.0716 16.7146 22.6921 20.8714ZM19.6072 34.7927C27.8765 34.36 34.3835 29.5034 34.3835 23.5764C34.3835 21.5623 33.6317 19.672 32.3082 18.0211C32.2006 20.7429 28.3168 23.0579 22.9406 23.9017C22.9406 23.9017 22.9473 24.2594 22.9473 24.4416C22.9473 29.4064 21.5221 33.5851 19.6072 34.7927ZM20.9893 21.0746C20.5811 18.4085 19.5912 16.5265 18.4344 16.5265C17.2776 16.5265 16.2878 18.4085 15.8791 21.0746C17.6057 21.2164 19.3071 21.2187 20.9893 21.0746ZM15.6798 24.1188C15.7473 27.9795 16.9541 31.0589 18.4344 31.0589C19.914 31.0589 21.1211 27.9797 21.1895 24.1188C19.2982 24.2831 17.4519 24.283 15.6798 24.1188Z" fill="#E40521"/>
<path fill-rule="evenodd" clip-rule="evenodd" d="M83.2169 32.7708H87.1389V26.1989L93.8855 15.4635H89.3701L85.178 22.7381L80.9865 15.4635H76.4696L83.2169 26.1989V32.7708ZM57.9334 24.009C57.9334 18.94 62.0434 14.8306 67.113 14.8306C72.1822 14.8306 76.2918 18.9399 76.2918 24.009C76.2918 29.0786 72.1822 33.1874 67.113 33.1874C62.0434 33.1874 57.9334 29.0786 57.9334 24.009ZM67.113 29.8218C69.9427 29.8218 72.2378 27.2191 72.2378 24.009C72.2378 20.7991 69.9429 18.1961 67.113 18.1961C64.2828 18.1961 61.9877 20.7991 61.9877 24.009C61.9877 27.2189 64.2828 29.8218 67.113 29.8218ZM51.5494 32.7708H47.6821V18.6549H42.2866V15.4635H56.9443V18.6549H51.5494V32.7708ZM132.91 28.8767L131.422 32.7708H126.906L134.046 15.4634H138.859L146 32.7708H141.483L139.996 28.8767L132.91 28.8767ZM136.47 19.6218H136.436L134.019 25.956H138.886L136.47 19.6218ZM122.837 32.7708H118.969V18.6549H113.574V15.4635H128.231V18.6549H122.837V32.7708ZM94.0643 24.009C94.0643 18.94 98.1745 14.8306 103.242 14.8306C108.313 14.8306 112.422 18.9399 112.422 24.009C112.422 29.0786 108.313 33.1874 103.242 33.1874C98.1745 33.1874 94.0643 29.0786 94.0643 24.009ZM103.242 29.8218C106.074 29.8218 108.368 27.2191 108.368 24.009C108.368 20.7991 106.074 18.1961 103.242 18.1961C100.413 18.1961 98.1187 20.7991 98.1187 24.009C98.1187 27.2189 100.413 29.8218 103.242 29.8218Z" fill="#E40521"/>
</g>
<defs>
<clipPath id="clip0_1005_171730">
<rect width="146" height="48" fill="white"/>
</clipPath>
</defs>
</svg>
