<svg width="40" height="48" viewBox="0 0 40 48" fill="none" xmlns="http://www.w3.org/2000/svg">
<g clip-path="url(#clip0_1005_171437)">
<path d="M19.68 46.2076C20.0796 46.0088 30.469 41.5375 33.7657 38.8547C37.1622 36.0726 38.9604 32.0981 38.9604 27.3287V4.97214L38.6607 4.87277C30.3691 0.401464 20.0796 0.699551 19.5801 0.699551C19.1805 0.699551 8.89096 0.401464 0.599391 4.87277L0.399594 4.97214V27.428C0.399594 32.1974 2.19777 36.1719 5.59431 38.9541C8.89096 41.6369 19.2804 46.1082 19.68 46.2076Z" fill="#341B14"/>
<path d="M19.68 46.7044C19.68 46.7044 8.69117 41.935 5.29462 39.2522C1.69827 36.2713 0 32.1974 0 27.5274V4.2766C8.69117 -0.393435 19.68 0.0040143 19.68 0.0040143C19.68 0.0040143 30.6688 -0.393435 39.36 4.2766V27.428C39.36 32.0981 37.6617 36.1719 34.0654 39.1528C30.6688 41.935 19.68 46.7044 19.68 46.7044ZM1.59838 27.5274C1.59838 31.8994 3.19675 35.4764 6.2936 37.9605C9.09076 40.2458 17.3823 43.9222 19.68 44.9158C21.9777 43.9222 30.3691 40.1464 33.0664 37.9605C36.1632 35.4764 37.7616 31.8 37.7616 27.5274V4.67405C26.1734 3.58106 12.3874 4.17724 1.59838 14.1135V27.5274Z" fill="#FFB406"/>
<path d="M30.7687 24.2484C32.2672 25.1427 32.8666 25.7389 32.9665 26.8319C32.9665 28.0242 32.1673 28.7198 30.8686 28.7198C29.7698 28.7198 28.4711 28.1236 27.572 27.3287V30.5083C28.6709 31.1045 29.9695 31.6013 31.3681 31.6013C34.7647 31.6013 36.3631 29.2166 36.3631 27.0306C36.463 25.0434 35.8636 23.4536 32.9665 21.7644C31.6678 20.9695 30.6688 20.4727 30.6688 19.2803C30.6688 18.088 31.7677 17.5912 32.6668 17.5912C33.8656 17.5912 35.0644 18.2867 35.7637 18.9822V16.0014C35.1643 15.5046 33.8656 14.809 31.9675 14.9084C29.6699 15.0077 27.2723 16.5975 27.2723 19.3797C27.3722 21.2676 27.9716 22.6586 30.7687 24.2484ZM18.9807 31.4025C19.2804 31.5019 19.7799 31.6013 20.5791 31.6013C24.4751 31.6013 26.6729 28.1236 26.6729 23.1555C26.6729 18.088 24.3752 15.0077 20.2794 15.0077C18.3813 15.0077 16.8828 15.4052 15.5842 16.2001V38.656H18.9807V31.4025ZM18.9807 17.8893C19.2804 17.7899 19.7799 17.5912 20.1795 17.5912C22.1775 17.5912 22.9767 19.181 22.9767 23.0561C22.9767 26.8319 21.9777 28.6204 19.9797 28.6204C19.4802 28.6204 19.0806 28.521 18.8808 28.4217V17.8893H18.9807ZM8.49137 31.6013C10.5892 31.6013 12.3874 31.1045 13.6861 30.2102V15.2065H10.1896V28.2229C9.79005 28.521 9.29056 28.6204 8.59127 28.6204C6.99289 28.6204 6.7931 27.13 6.7931 26.2357V15.2065H3.29665V26.037C3.29665 29.7134 5.09482 31.6013 8.49137 31.6013ZM31.7677 45.0152V47.3005H32.1673V46.4063H32.2672L32.8666 47.3005H33.3661C33.3661 47.3005 32.7667 46.4063 32.6668 46.3069C32.9665 46.2076 33.1663 46.0088 33.1663 45.7107C33.1663 45.4127 32.9665 45.0152 32.3671 45.0152H31.7677ZM32.3671 45.3133C32.6668 45.3133 32.7667 45.512 32.7667 45.6114C32.7667 45.8101 32.6668 46.0088 32.2672 46.0088H32.1673V45.3133H32.3671Z" fill="#FFB406"/>
<path d="M33.9655 46.1082C33.9655 46.9031 33.2662 47.5986 32.467 47.5986C31.6678 47.5986 30.9685 46.9031 30.9685 46.1082C30.9685 45.3133 31.6678 44.6177 32.467 44.6177C33.3661 44.6177 33.9655 45.3133 33.9655 46.1082ZM32.467 44.2203C31.468 44.2203 30.5689 45.0152 30.5689 46.1082C30.5689 47.1018 31.3681 47.9961 32.467 47.9961C33.466 47.9961 34.3651 47.2012 34.3651 46.1082C34.3651 45.1146 33.466 44.2203 32.467 44.2203Z" fill="#FFB406"/>
</g>
<defs>
<clipPath id="clip0_1005_171437">
<rect width="39.36" height="48" fill="white"/>
</clipPath>
</defs>
</svg>
