<svg width="88" height="48" viewBox="0 0 88 48" fill="none" xmlns="http://www.w3.org/2000/svg">
<path d="M56.9919 10C50.7791 10 45.227 13.1804 45.227 19.0565C45.227 25.7951 55.0738 26.2605 55.0738 29.6459C55.0738 31.0713 53.4198 32.3473 50.5949 32.3473C46.5857 32.3473 43.5893 30.5644 43.5893 30.5644L42.3072 36.494C42.3072 36.494 45.759 38 50.3419 38C57.1345 38 62.4795 34.6634 62.4795 28.687C62.4795 21.5663 52.5917 21.1147 52.5917 17.9726C52.5917 16.8558 53.9494 15.6324 56.7663 15.6324C59.9445 15.6324 62.5376 16.9291 62.5376 16.9291L63.7924 11.2021C63.7924 11.2021 60.9709 10 56.9919 10ZM0.150475 10.4323L0 11.2967C0 11.2967 2.61379 11.7691 4.96788 12.7116C7.99894 13.7922 8.21493 14.4213 8.72539 16.3753L14.2881 37.5542H21.7451L33.2331 10.4323H25.7932L18.4115 28.8726L15.3994 13.2417C15.1231 11.4528 13.7238 10.4323 12.0111 10.4323H0.150475ZM36.2247 10.4323L30.3884 37.5542H37.4829L43.2987 10.4322H36.2247V10.4323ZM75.7932 10.4323C74.0825 10.4323 73.1761 11.3368 72.511 12.9175L62.117 37.5542H69.5569L70.9963 33.448H80.0601L80.9355 37.5542H87.5L81.7731 10.4323H75.7932ZM76.7608 17.7598L78.9661 27.9372H73.0579L76.7608 17.7598Z" fill="#1434CB"/>
</svg>
