<svg width="169" height="48" viewBox="0 0 169 48" fill="none" xmlns="http://www.w3.org/2000/svg">
<g clip-path="url(#clip0_1005_170476)">
<path d="M43.0276 23.6383C43.0276 35.0362 33.7909 44.2766 22.3931 44.2766C10.9952 44.2766 1.75476 35.0362 1.75476 23.6383C1.75476 12.2404 10.9952 3 22.3931 3C33.7909 3 43.0276 12.2404 43.0276 23.6383Z" fill="#EE3023"/>
<path d="M22.5561 35.1462C16.8875 35.1655 10.9876 30.327 10.961 22.554C10.9421 17.4162 13.7176 12.468 17.2591 9.53319C20.7171 6.67424 25.453 4.83524 29.7452 4.82008C30.2988 4.82008 30.8789 4.8655 31.2315 4.98684C27.4777 5.76415 24.4899 9.26009 24.5012 13.2225C24.5012 13.3551 24.5125 13.4954 24.5277 13.5599C30.8105 15.0918 33.6619 18.8835 33.6809 24.1274C33.696 29.3751 29.5556 35.1234 22.5561 35.1462Z" fill="white"/>
<path d="M165.189 22.8459C165.147 22.3264 165.037 21.8714 164.859 21.4884C164.681 21.1016 164.461 20.7907 164.199 20.5518C163.938 20.3092 163.657 20.1348 163.354 20.0172C163.047 19.9036 162.74 19.8466 162.425 19.8466C161.754 19.8466 161.117 20.0968 160.51 20.5974C159.903 21.0979 159.547 21.8448 159.441 22.8459H165.189ZM159.35 25.6251C159.433 26.8954 159.827 27.813 160.54 28.3742C161.249 28.9354 162.171 29.2197 163.297 29.2197C163.82 29.2197 164.313 29.1705 164.772 29.0794C165.231 28.9847 165.64 28.867 165.997 28.7192C166.353 28.575 166.656 28.4272 166.907 28.2831C167.157 28.1354 167.343 27.9988 167.472 27.8737L168.503 31.0321C168.355 31.1345 168.12 31.2748 167.798 31.453C167.475 31.6313 167.073 31.7943 166.596 31.9535C166.118 32.109 165.553 32.2417 164.908 32.3592C164.264 32.4728 163.555 32.5298 162.785 32.5298C161.803 32.5298 160.874 32.3743 159.987 32.0634C159.103 31.7487 158.326 31.2634 157.662 30.6074C156.995 29.9515 156.464 29.1362 156.07 28.158C155.672 27.1797 155.475 26.0119 155.475 24.6582C155.475 23.388 155.657 22.2619 156.021 21.2836C156.385 20.3053 156.885 19.4825 157.518 18.8152C158.155 18.1516 158.895 17.6397 159.736 17.2833C160.582 16.9307 161.481 16.7525 162.44 16.7525C163.399 16.7525 164.283 16.9118 165.098 17.2226C165.909 17.5336 166.611 18.0189 167.206 18.6749C167.798 19.3309 168.268 20.1802 168.609 21.2229C168.954 22.2618 169.125 23.5018 169.125 24.9388V25.6251L159.35 25.6251Z" fill="#EE3023"/>
<path d="M56.3554 32.1848L50.046 17.1279H54.1676L58.1034 27.1266L61.9179 17.1279H65.8537L59.7301 32.1848H56.3554Z" fill="#EE3023"/>
<path d="M76.8345 24.5787C76.8345 23.9531 76.7625 23.3578 76.6145 22.7928C76.4705 22.2278 76.2505 21.7425 75.9586 21.3368C75.6666 20.9273 75.314 20.605 74.8969 20.3661C74.4798 20.1234 73.9907 20.0021 73.4295 20.0021C72.8683 20.0021 72.3754 20.1234 71.9621 20.3661C71.545 20.6049 71.1886 20.9273 70.9004 21.3368C70.6085 21.7425 70.3886 22.2278 70.2445 22.7928C70.0966 23.3578 70.0245 23.9531 70.0245 24.5787C70.0245 25.2271 70.0966 25.8299 70.2445 26.3835C70.3886 26.9371 70.6009 27.4225 70.8815 27.8396C71.1621 28.2567 71.5185 28.5865 71.9469 28.8292C72.3716 29.068 72.8683 29.1894 73.4295 29.1894C73.9907 29.1894 74.4798 29.0681 74.8969 28.8292C75.314 28.5865 75.6666 28.2567 75.9586 27.8396C76.2505 27.4225 76.4705 26.9371 76.6145 26.3835C76.7624 25.8299 76.8345 25.2271 76.8345 24.5787ZM80.6451 24.5952C80.6451 25.5773 80.4935 26.5403 80.1939 27.4883C79.8906 28.4362 79.4432 29.2817 78.8479 30.0325C78.2564 30.7833 77.5056 31.3862 76.5994 31.845C75.6932 32.3038 74.6353 32.5313 73.4295 32.5313C72.22 32.5313 71.1621 32.3037 70.2596 31.845C69.3534 31.3862 68.6027 30.7833 68.0074 30.0325C67.4159 29.2817 66.9684 28.4362 66.6651 27.4883C66.3656 26.5404 66.2139 25.5773 66.2139 24.5952C66.2139 23.617 66.3655 22.6614 66.6651 21.7211C66.9684 20.7845 67.4159 19.9466 68.0074 19.2072C68.6027 18.4678 69.3534 17.8763 70.2596 17.4289C71.1621 16.9814 72.22 16.754 73.4295 16.754C74.6353 16.754 75.6894 16.9815 76.5842 17.4289C77.4791 17.8763 78.2298 18.4678 78.8327 19.2072C79.4394 19.9466 79.8906 20.7845 80.1939 21.7211C80.4935 22.6614 80.6451 23.617 80.6451 24.5952Z" fill="#EE3023"/>
<path d="M92.2819 20.4418C91.5349 20.1499 90.841 20.002 90.1965 20.002C89.5367 20.002 88.9642 20.1311 88.4902 20.3812C88.0124 20.6313 87.6181 20.9689 87.3072 21.3973C86.9963 21.8258 86.765 22.3073 86.6095 22.842C86.454 23.3728 86.3744 23.9227 86.3744 24.4876C86.3744 25.1132 86.4426 25.7123 86.5792 26.2886C86.7119 26.8612 86.9204 27.3655 87.201 27.794C87.4778 28.2224 87.8304 28.5675 88.2551 28.8291C88.6798 29.0869 89.1841 29.2196 89.7642 29.2196C90.242 29.2196 90.7273 29.087 91.224 28.8291C91.7207 28.5674 92.0734 28.2566 92.2819 27.9039L92.2819 20.4418ZM92.5928 32.1848L92.4374 31.0321C92.0847 31.4264 91.6184 31.7753 91.0344 32.0748C90.4543 32.3781 89.768 32.5298 88.9793 32.5298C87.9442 32.5298 87.0266 32.31 86.2417 31.8739C85.4492 31.4378 84.7857 30.8539 84.2473 30.1259C83.7088 29.3979 83.2955 28.5523 83.015 27.593C82.7382 26.6375 82.5979 25.6365 82.5979 24.5938C82.5979 23.6155 82.742 22.6562 83.0301 21.7197C83.3221 20.7831 83.7619 19.9451 84.3534 19.2058C84.9487 18.4664 85.6881 17.8749 86.583 17.4274C87.474 16.98 88.5243 16.7525 89.7263 16.7525C90.515 16.7525 91.3681 16.9003 92.2819 17.1885V11.3493H96.1532V32.1848H92.5928Z" fill="#EE3023"/>
<path d="M107.058 25.1247C106.641 25.1467 106.209 25.1855 105.769 25.2347C105.329 25.2878 104.912 25.3561 104.514 25.4395C103.672 25.6062 103.092 25.8907 102.766 26.2964C102.444 26.7059 102.281 27.1457 102.281 27.6273C102.281 28.124 102.463 28.526 102.83 28.8293C103.198 29.1288 103.714 29.2805 104.385 29.2805C104.889 29.2805 105.378 29.1781 105.849 28.9696C106.319 28.761 106.725 28.4994 107.058 28.1885V25.1247ZM107.369 32.1735L107.217 31.0473C106.797 31.5099 106.266 31.874 105.617 32.1356C104.969 32.3973 104.26 32.5299 103.486 32.5299C102.838 32.5299 102.212 32.4198 101.621 32.2C101.022 31.9841 100.495 31.6692 100.036 31.2635C99.5772 30.8578 99.2056 30.3611 98.925 29.7658C98.6406 29.1705 98.5003 28.4993 98.5003 27.7486C98.5003 27.0016 98.6444 26.3381 98.9401 25.7655C99.2321 25.193 99.6264 24.7114 100.131 24.3133C100.631 23.9189 101.208 23.5967 101.856 23.3464C102.501 23.0963 103.183 22.9065 103.892 22.7814C104.393 22.6791 104.942 22.6031 105.538 22.55C106.133 22.4969 106.63 22.4515 107.028 22.4097V22.1899C107.028 21.3557 106.816 20.7641 106.383 20.4077C105.955 20.0551 105.363 19.8769 104.613 19.8769C104.173 19.8769 103.752 19.93 103.354 20.0362C102.956 20.1385 102.603 20.2676 102.288 20.423C101.974 20.5823 101.697 20.7377 101.454 20.8931C101.215 21.0486 101.022 21.1889 100.874 21.314L99.5923 18.5991C99.7592 18.4514 100.013 18.2768 100.358 18.0683C100.703 17.8597 101.117 17.655 101.61 17.4578C102.099 17.2605 102.648 17.0938 103.263 16.9573C103.877 16.8208 104.54 16.7526 105.246 16.7526C106.08 16.7526 106.842 16.8627 107.528 17.0825C108.215 17.3023 108.81 17.6437 109.31 18.1138C109.807 18.5802 110.198 19.1717 110.482 19.8921C110.763 20.6088 110.903 21.4771 110.903 22.497V32.1735H107.369Z" fill="#EE3023"/>
<path d="M122.87 14.7847C122.745 14.7241 122.502 14.6331 122.138 14.5191C121.77 14.4055 121.289 14.3486 120.682 14.3486C120.143 14.3486 119.688 14.5117 119.324 14.8339C118.96 15.1562 118.778 15.6832 118.778 16.4112V17.1279H122.028V20.2522H118.809V32.1848H114.934V20.2522H112.935V17.1279H114.934V16.3164C114.934 15.3382 115.059 14.5116 115.309 13.8329C115.559 13.158 115.908 12.6044 116.355 12.1797C116.803 11.7512 117.33 11.4365 117.933 11.2394C118.54 11.0421 119.195 10.9436 119.905 10.9436C120.841 10.9436 121.615 11.0308 122.229 11.2091C122.843 11.3874 123.203 11.5049 123.306 11.5693L122.87 14.7847Z" fill="#EE3023"/>
<path d="M133.43 24.5787C133.43 23.9531 133.354 23.3578 133.21 22.7928C133.066 22.2278 132.846 21.7425 132.554 21.3368C132.262 20.9273 131.909 20.605 131.492 20.3661C131.075 20.1234 130.586 20.0021 130.025 20.0021C129.463 20.0021 128.97 20.1234 128.557 20.3661C128.14 20.6049 127.784 20.9273 127.492 21.3368C127.204 21.7425 126.984 22.2278 126.836 22.7928C126.692 23.3578 126.62 23.9531 126.62 24.5787C126.62 25.2271 126.692 25.8299 126.836 26.3835C126.984 26.9371 127.196 27.4225 127.477 27.8396C127.757 28.2567 128.114 28.5865 128.538 28.8292C128.967 29.068 129.463 29.1894 130.025 29.1894C130.586 29.1894 131.075 29.0681 131.492 28.8292C131.909 28.5865 132.262 28.2567 132.554 27.8396C132.846 27.4225 133.066 26.9371 133.21 26.3835C133.354 25.8299 133.43 25.2271 133.43 24.5787ZM137.24 24.5952C137.24 25.5773 137.089 26.5403 136.785 27.4883C136.486 28.4362 136.038 29.2817 135.443 30.0325C134.851 30.7833 134.101 31.3862 133.194 31.845C132.288 32.3038 131.23 32.5313 130.025 32.5313C128.815 32.5313 127.757 32.3037 126.855 31.845C125.949 31.3862 125.198 30.7833 124.602 30.0325C124.011 29.2817 123.564 28.4362 123.26 27.4883C122.957 26.5404 122.809 25.5773 122.809 24.5952C122.809 23.617 122.957 22.6614 123.26 21.7211C123.564 20.7845 124.011 19.9466 124.602 19.2072C125.198 18.4678 125.949 17.8763 126.855 17.4289C127.757 16.9814 128.815 16.754 130.025 16.754C131.23 16.754 132.284 16.9815 133.179 17.4289C134.074 17.8763 134.825 18.4678 135.428 19.2072C136.034 19.9466 136.486 20.7845 136.785 21.7211C137.089 22.6614 137.24 23.617 137.24 24.5952Z" fill="#EE3023"/>
<path d="M149.264 32.1849V23.5967C149.264 22.4516 149.025 21.5643 148.547 20.9387C148.066 20.3169 147.402 20.0021 146.545 20.0021C145.942 20.0021 145.385 20.1576 144.877 20.4723C144.365 20.7832 143.921 21.1283 143.546 21.5036V32.1849H139.675V17.128H143.205L143.39 18.3148C143.997 17.8181 144.676 17.4314 145.438 17.1621C146.196 16.8892 146.962 16.7564 147.732 16.7564C148.524 16.7564 149.252 16.8739 149.92 17.1129C150.587 17.3555 151.16 17.7347 151.637 18.2541C152.119 18.7736 152.487 19.4523 152.748 20.2827C153.006 21.1169 153.139 22.1179 153.139 23.282V32.1849H149.264Z" fill="#EE3023"/>
</g>
<defs>
<clipPath id="clip0_1005_170476">
<rect width="169" height="48" fill="white"/>
</clipPath>
</defs>
</svg>
