<svg width="225" height="48" viewBox="0 0 225 48" fill="none" xmlns="http://www.w3.org/2000/svg">
<path fill-rule="evenodd" clip-rule="evenodd" d="M17.3225 35.2154H10.5533L0 6.58381H6.84874L12.2854 22.7384C12.9253 24.6372 13.4899 26.5606 13.9777 28.5041C14.4604 26.5261 14.9848 24.7923 15.6284 22.9391L21.2676 6.58381H28.035L17.3225 35.2154ZM40.8827 26.3417C40.8827 28.7174 39.1994 30.8545 36.6754 30.8545C34.4715 30.8545 32.4284 29.0013 32.4284 26.4231C32.4284 24.0076 34.0321 21.8705 36.6357 21.8705C38.9987 21.8723 40.8827 23.8069 40.8827 26.3417ZM46.6701 26.3417C46.6701 20.9105 42.4502 16.913 36.6736 16.913C30.6855 16.913 26.6374 21.0732 26.6374 26.3038C26.6374 31.8616 30.9278 35.8175 36.3934 35.8175C42.9727 35.8175 46.6701 31.1384 46.6701 26.3417ZM51.0545 35.2154V5H56.7823V35.2154H51.0545ZM73.1972 35.2154L67.6322 26.9384V35.2154H61.9044V5H67.6322V24.8031L73.1972 17.5512H80.2159L73.3997 25.689L80.6986 35.2154H73.1972ZM89.2975 35.7452C85.2349 35.7452 83.1322 34.4181 82.042 31.5542L86.8929 29.6648C87.3377 30.831 88.2724 31.6772 89.4621 31.6772C90.6101 31.6772 91.308 31.2324 91.308 30.4694C91.308 27.8912 82.6477 29.0176 82.6477 22.8595C82.6477 19.6394 85.2747 16.9799 89.7893 16.9799C93.1179 16.9799 95.4502 18.1876 96.6163 21.1292L92.0294 22.9011C91.4653 21.4926 90.4854 21.0479 89.5416 21.0479C88.8039 21.0479 87.9831 21.4926 87.9831 22.2972C87.9831 25.1159 96.6561 23.8268 96.6561 30.0228C96.6579 33.6099 93.4795 35.7452 89.2975 35.7452ZM124.324 35.2154H118.918L115.893 26.5243C115.573 25.6597 115.33 24.7685 115.167 23.8611C114.979 24.7751 114.736 25.6771 114.441 26.5623L111.415 35.2136H105.767L98.1423 17.5078H104.112L107.461 26.0398C107.864 27.0071 108.146 28.0955 108.47 29.1441C108.752 28.0955 109.034 26.9655 109.318 26.1211L112.303 17.5078H118.193L120.976 25.5552C121.381 26.763 121.742 27.893 121.985 29.0646C122.388 27.7339 122.791 26.5605 123.194 25.5552L126.34 17.5078H132.191L124.324 35.2154ZM147.539 26.6672C147.539 29.0863 145.964 31.3029 143.299 31.3029C140.553 31.3029 138.897 29.0845 138.897 26.4611C138.897 23.7599 140.714 21.9483 143.097 21.9483C145.803 21.9501 147.539 24.1251 147.539 26.6672ZM152.99 35.2136V17.553H147.338V19.6087C146.369 18.1171 144.268 16.9889 141.804 16.9889C136.32 16.9889 133.019 21.0605 133.019 26.6256C133.019 31.9899 136.159 35.8211 141.28 35.8211C144.026 35.8211 145.883 34.8538 147.338 33.3984V35.2136H152.99ZM171.517 26.1519C171.517 28.5312 170.025 30.6267 167.488 30.6267C164.829 30.6267 163.216 28.8151 163.216 26.1953C163.216 23.8575 164.869 21.8796 167.286 21.8796C170.186 21.8796 171.517 24.2589 171.517 26.1519ZM177.008 33.5322V17.5385H171.354V19.5472C170.266 17.8188 168.253 17.0558 165.794 17.0558C161.001 17.0558 157.337 20.9954 157.337 26.3146C157.337 30.9901 159.994 35.0654 165.633 35.0654C167.85 35.0654 169.783 34.4199 171.354 32.686V35.1865C171.354 38.0612 170.067 39.5998 167.407 39.5998C165.675 39.5998 164.023 38.506 164.023 36.9656H158.345C158.345 40.8492 161.526 43.8794 167.046 43.8794C170.267 43.8794 172.719 43.1128 174.686 41.2126C176.447 39.4353 177.008 37.4519 177.008 33.5322ZM194.035 24.3674H186.948C187.149 22.4075 188.526 20.9665 190.593 20.9665C192.741 20.9683 194.035 22.6877 194.035 24.3674ZM199.689 26.1446C199.689 20.2795 196.003 16.913 190.635 16.913C185.133 16.913 181.383 21.0497 181.383 26.5045C181.383 32.7403 185.818 35.8121 190.593 35.8121C194.679 35.8121 197.243 34.4 199.288 31.7296L195.601 29.3032C194.439 30.8527 193.027 31.6048 191.201 31.6048C188.733 31.6048 187.029 29.9378 186.906 27.752H199.651C199.689 27.0703 199.689 26.4665 199.689 26.1446ZM215.934 35.2154V25.4269C215.934 23.8123 215.412 21.9519 213.244 21.9519C212.121 21.9519 209.754 22.601 209.754 25.9096V35.2136H204.027V17.5313H209.754V19.8636C210.595 18.6957 212.24 17.1299 215.45 17.1299C217.706 17.1299 219.161 17.9327 220.085 18.8584C221.215 19.9848 221.66 21.433 221.66 24.0148V35.2154H215.934Z" fill="black"/>
</svg>
