<svg width="156" height="48" viewBox="0 0 156 48" fill="none" xmlns="http://www.w3.org/2000/svg">
<path d="M152.145 28.4664C152.057 28.9093 151.902 29.2858 151.691 29.6178C151.481 29.9496 151.204 30.2158 150.85 30.4257C150.507 30.6253 150.076 30.7356 149.566 30.7356C149.068 30.7356 148.636 30.6362 148.293 30.4257C147.951 30.2254 147.659 29.949 147.441 29.6178C147.23 29.2861 147.075 28.9093 146.976 28.4664C146.879 28.0267 146.83 27.5775 146.832 27.1271C146.832 26.6623 146.877 26.1971 146.965 25.766C147.054 25.3231 147.209 24.9357 147.419 24.6036C147.629 24.26 147.906 23.9948 148.26 23.7736C148.603 23.563 149.035 23.4524 149.544 23.4524C150.042 23.4524 150.463 23.563 150.806 23.7736C151.15 23.9862 151.441 24.2737 151.658 24.6145C151.88 24.9576 152.035 25.3559 152.134 25.7879C152.233 26.2306 152.278 26.6732 152.278 27.1271C152.278 27.581 152.233 28.0237 152.145 28.4664ZM155.09 24.8913C154.879 24.1497 154.569 23.5077 154.149 22.9432C153.717 22.39 153.186 21.9358 152.544 21.604C151.901 21.2719 151.127 21.0948 150.23 21.0948C149.522 21.0948 148.88 21.2388 148.293 21.5156C147.706 21.7924 147.219 22.246 146.843 22.8548H146.799V21.4047H143.832V36.7573H146.954V31.3663H146.998C147.366 31.9079 147.87 32.3432 148.459 32.6284C149.057 32.9161 149.699 33.0601 150.407 33.0601C151.237 33.0601 151.968 32.8942 152.599 32.5731C153.208 32.2611 153.741 31.819 154.16 31.2779C154.58 30.7356 154.89 30.1155 155.09 29.4073C155.3 28.6988 155.399 27.9687 155.399 27.2046C155.399 26.3967 155.3 25.622 155.09 24.8801V24.8913ZM139.693 28.4664C139.604 28.9093 139.449 29.2858 139.239 29.6178C139.028 29.9499 138.752 30.2158 138.397 30.4257C138.054 30.6253 137.623 30.7356 137.114 30.7356C136.615 30.7356 136.195 30.6362 135.841 30.4257C135.498 30.2252 135.207 29.9488 134.988 29.6178C134.778 29.2861 134.623 28.9093 134.524 28.4664C134.426 28.0267 134.378 27.5775 134.38 27.1271C134.38 26.6623 134.424 26.1971 134.512 25.766C134.601 25.3231 134.756 24.9357 134.966 24.6036C135.177 24.26 135.453 23.9948 135.807 23.7736C136.15 23.563 136.582 23.4524 137.091 23.4524C137.59 23.4524 138.01 23.563 138.353 23.7736C138.697 23.9862 138.988 24.2736 139.205 24.6145C139.427 24.9576 139.582 25.3559 139.682 25.7879C139.781 26.2306 139.825 26.6732 139.825 27.1271C139.825 27.581 139.781 28.0237 139.693 28.4664ZM141.696 22.9432C141.275 22.39 140.733 21.9358 140.091 21.604C139.449 21.2719 138.674 21.0948 137.777 21.0948C137.069 21.0948 136.427 21.2388 135.84 21.5156C135.254 21.7924 134.767 22.246 134.39 22.8548H134.346V21.4047H131.379V36.7573H134.501V31.3663H134.545C134.913 31.9079 135.417 32.3432 136.007 32.6284C136.604 32.9161 137.246 33.0601 137.954 33.0601C138.795 33.0601 139.515 32.8942 140.147 32.5731C140.755 32.261 141.288 31.8188 141.707 31.2779C142.128 30.7356 142.438 30.1155 142.648 29.4073C142.852 28.6908 142.957 27.9496 142.958 27.2046C142.958 26.3967 142.858 25.622 142.648 24.8801C142.438 24.1388 142.128 23.4965 141.696 22.9323V22.9432ZM121.151 26.7066L123.199 20.9395H123.244L125.225 26.7066H121.151ZM121.484 17.0656L115.54 32.7721H119.015L120.244 29.2745H126.122L127.306 32.7721H130.892L125.015 17.0656H121.473H121.484ZM115.285 27.7913C115.074 27.437 114.809 27.1271 114.466 26.8838C114.134 26.6404 113.746 26.4517 113.314 26.2971C112.877 26.1534 112.434 26.0279 111.986 25.921C111.543 25.821 111.112 25.7214 110.691 25.6329C110.27 25.5445 109.883 25.4446 109.562 25.334C109.23 25.2234 108.964 25.0797 108.765 24.9023C108.554 24.7251 108.455 24.504 108.455 24.2162C108.455 23.9838 108.51 23.7954 108.632 23.6514C108.754 23.5077 108.898 23.4081 109.064 23.3306C109.23 23.2531 109.418 23.2088 109.628 23.1869C109.82 23.1658 110.012 23.1547 110.204 23.1538C110.757 23.1538 111.244 23.2644 111.654 23.4746C112.064 23.6849 112.296 24.0944 112.329 24.692H115.296C115.24 23.9835 115.053 23.4081 114.754 22.9429C114.455 22.4778 114.079 22.1129 113.625 21.8361C113.171 21.5593 112.651 21.3603 112.075 21.2385C111.499 21.1167 110.901 21.0614 110.282 21.0614C109.662 21.0614 109.064 21.117 108.478 21.2273C107.891 21.3378 107.36 21.5262 106.895 21.803C106.419 22.0798 106.043 22.4453 105.766 22.9098C105.478 23.3747 105.334 23.9838 105.334 24.7139C105.334 25.2122 105.434 25.6326 105.644 25.9756C105.844 26.3193 106.12 26.6067 106.452 26.8391C106.795 27.0606 107.172 27.249 107.604 27.3927C108.035 27.5364 108.478 27.6585 108.932 27.7578C110.05 27.9903 110.913 28.2227 111.544 28.4551C112.164 28.6875 112.474 29.0418 112.474 29.5066C112.474 29.7834 112.408 30.0158 112.275 30.2039C112.145 30.3877 111.974 30.5391 111.776 30.6466C111.577 30.7571 111.356 30.8349 111.112 30.8899C110.884 30.9419 110.65 30.9679 110.415 30.9674C110.105 30.9674 109.806 30.9346 109.529 30.8568C109.242 30.7793 108.987 30.6681 108.766 30.5135C108.544 30.3585 108.367 30.1592 108.224 29.9159C108.08 29.6725 108.013 29.3845 108.013 29.0524H105.047C105.08 29.8159 105.246 30.4469 105.567 30.9561C105.877 31.4656 106.286 31.8639 106.774 32.1738C107.261 32.4837 107.825 32.7049 108.456 32.8377C109.087 32.9708 109.729 33.0373 110.393 33.0373C111.035 33.0373 111.677 32.9708 112.297 32.8486C112.917 32.7271 113.47 32.5056 113.957 32.1957C114.444 31.8858 114.832 31.4763 115.131 30.978C115.429 30.4691 115.584 29.8493 115.584 29.0965C115.584 28.5654 115.485 28.1227 115.274 27.7682L115.285 27.7913ZM102.367 17.9955H99.2458V21.4047H97.3526V23.4965H99.2458V30.2045C99.2458 30.7803 99.3451 31.2342 99.5335 31.5881C99.7218 31.9427 99.9874 32.2079 100.319 32.4075C100.652 32.5956 101.028 32.7283 101.46 32.7949C101.914 32.8625 102.373 32.8957 102.832 32.8942C103.142 32.8942 103.452 32.8833 103.784 32.8724C104.077 32.8624 104.369 32.8328 104.659 32.7836V30.3595C104.506 30.3939 104.35 30.4161 104.194 30.4257C104.025 30.4389 103.855 30.4463 103.685 30.4479C103.153 30.4479 102.81 30.3595 102.633 30.182C102.456 30.0052 102.368 29.6506 102.368 29.1308V23.4965H104.659V21.4047H102.368V17.9955H102.367ZM93.4121 28.378C93.4121 28.5548 93.3902 28.7875 93.3568 29.0865C93.3195 29.3922 93.2176 29.6866 93.0578 29.9499C92.892 30.2379 92.6483 30.4813 92.3053 30.6918C91.9735 30.9018 91.4862 31.0017 90.8777 31.0017C90.634 31.0017 90.3903 30.9793 90.147 30.9352C89.9145 30.8905 89.7043 30.8131 89.5272 30.7028C89.3501 30.5919 89.2173 30.4482 89.1064 30.2489C89.007 30.0608 88.9514 29.8284 88.9514 29.5404C88.9514 29.2414 89.007 29.009 89.1064 28.81C89.206 28.6213 89.3497 28.4664 89.5162 28.3339C89.6821 28.2121 89.8814 28.1127 90.1139 28.0353C90.3463 27.9578 90.5678 27.9022 90.8111 27.8578C91.061 27.8148 91.312 27.7779 91.5637 27.7472C91.8183 27.7141 92.051 27.6807 92.2834 27.6366C92.5159 27.5926 92.7261 27.537 92.9254 27.4708C93.1247 27.4045 93.2906 27.3158 93.4237 27.194V28.3564L93.4121 28.378ZM96.5335 30.2486V24.3265C96.5335 23.6405 96.3786 23.0869 96.069 22.6665C95.7591 22.2457 95.3602 21.9248 94.8844 21.6924C94.3974 21.46 93.866 21.305 93.2793 21.2166C92.7035 21.1379 92.123 21.0972 91.5418 21.0948C90.9105 21.0948 90.2797 21.1613 89.6599 21.2832C89.0405 21.405 88.4757 21.6149 87.9774 21.9142C87.4869 22.206 87.0673 22.6031 86.7487 23.0766C86.4279 23.5637 86.2395 24.1722 86.1955 24.9029H89.3169C89.3722 24.2834 89.5825 23.8517 89.9364 23.5858C90.291 23.32 90.7668 23.1875 91.3869 23.1875C91.6636 23.1875 91.9289 23.2094 92.1728 23.2428C92.3996 23.2726 92.6179 23.348 92.8148 23.4643C93.0032 23.5749 93.1469 23.7298 93.2578 23.9292C93.3684 24.1285 93.4237 24.3937 93.4237 24.737C93.4346 25.0578 93.3462 25.3018 93.1356 25.4786C92.9254 25.6445 92.6486 25.7776 92.2947 25.866C91.9407 25.9544 91.5421 26.0209 91.0882 26.0653C90.6343 26.1097 90.1695 26.165 89.7046 26.2424C89.2398 26.3199 88.7746 26.4192 88.3098 26.5411C87.8449 26.6629 87.4351 26.851 87.0808 27.1059C86.7156 27.3602 86.4279 27.6922 86.1955 28.1018C85.9631 28.5226 85.8522 29.054 85.8522 29.6959C85.8522 30.2826 85.9515 30.7918 86.1511 31.2123C86.338 31.6222 86.6186 31.9825 86.9702 32.2641C87.3358 32.5484 87.753 32.7589 88.1989 32.8839C88.6637 33.0167 89.1729 33.0829 89.7152 33.0829C90.4237 33.0829 91.1101 32.9836 91.7852 32.773C92.4529 32.5692 93.0583 32.2 93.5452 31.6996C93.5561 31.8877 93.5895 32.0754 93.6227 32.2641C93.6558 32.4409 93.7111 32.6293 93.7667 32.8064H96.9325C96.7885 32.574 96.6779 32.2195 96.6226 31.7546C96.564 31.2661 96.5344 30.7746 96.5339 30.2826V30.2486H96.5335ZM83.6717 22.3897C83.3618 21.9914 82.941 21.6702 82.4099 21.4487C81.8785 21.2163 81.1925 21.1054 80.3509 21.1054C79.7642 21.1054 79.1666 21.2604 78.5468 21.5593C77.9271 21.8583 77.4288 22.3453 77.0305 22.9982H76.9639V17.0765H73.8425V32.7833H76.9639V26.8172C76.9639 25.6548 77.1523 24.8248 77.5397 24.3156C77.9161 23.8064 78.5359 23.563 79.3881 23.563C80.1297 23.563 80.6611 23.7954 80.9488 24.26C81.2369 24.7248 81.3918 25.4224 81.3918 26.363V32.7833H84.5133V25.7879C84.5133 25.0794 84.4467 24.4377 84.3249 23.862C84.203 23.2862 83.9816 22.7883 83.6717 22.3897ZM67.1676 27.9022H67.1232L64.4448 17.0768H61.2124L58.4893 27.7694H58.4449L55.9542 17.0768H52.501L56.6627 32.7836H60.1606L62.7728 22.0907H62.8172L65.4738 32.7836H68.9051L70.7867 25.8101L73.1334 17.0768H69.7461L67.1676 27.9022Z" fill="#272525"/>
<path d="M23.2233 42.236C19.4043 42.236 15.8402 41.0848 12.8627 39.1258L5.62333 41.4387L7.97003 34.4433C5.71205 31.3437 4.38407 27.525 4.38407 23.4073C4.38407 13.0246 12.8296 4.57906 23.2123 4.57906C33.5951 4.57906 42.0406 13.0246 42.0406 23.4073C42.0406 33.7898 33.5951 42.2356 23.2123 42.2356H23.2233V42.236ZM23.2233 1.01465C10.8587 1.01465 0.830587 11.0437 0.830587 23.4077C0.830587 27.6359 2.00394 31.5986 4.04043 34.9747L0.000244141 46.9846L12.3979 43.011C15.7116 44.8433 19.4367 45.8032 23.2233 45.8004C35.5875 45.8004 45.616 35.7719 45.616 23.4077C45.6157 11.0437 35.5875 1.01465 23.2233 1.01465Z" fill="#FEFEFE"/>
<path d="M23.2233 4.5791C12.8406 4.5791 4.39502 13.0247 4.39502 23.4074C4.39502 27.525 5.72332 31.3437 7.9813 34.4433L5.6346 41.4387L12.8737 39.1258C15.8511 41.096 19.4043 42.236 23.2342 42.236C33.617 42.236 42.0625 33.7901 42.0625 23.4077C42.0625 13.025 33.617 4.57941 23.2342 4.57941H23.2233V4.5791Z" fill="url(#paint0_linear_1005_172215)"/>
<path d="M17.9653 14.1433C17.6001 13.2689 17.3233 13.2358 16.7701 13.2133C16.56 13.1997 16.3496 13.1924 16.1391 13.1914C15.4193 13.1914 14.6667 13.4016 14.2128 13.8665C13.6596 14.431 12.2869 15.748 12.2869 18.449C12.2869 21.15 14.2572 23.7622 14.5227 24.1277C14.7995 24.4926 18.3639 30.1157 23.8983 32.4074C28.2262 34.2005 29.5105 34.0343 30.4954 33.8241C31.9343 33.5142 33.7387 32.4511 34.1926 31.1675C34.6465 29.8832 34.6465 28.7874 34.5134 28.5549C34.3807 28.3225 34.0152 28.1901 33.4619 27.913C32.9087 27.6362 30.2186 26.3079 29.7094 26.1308C29.2112 25.9427 28.7354 26.0092 28.3593 26.5406C27.8279 27.2822 27.3078 28.0351 26.887 28.4887C26.5549 28.843 26.0123 28.8873 25.5587 28.699C24.9498 28.4447 23.2454 27.8464 21.142 25.9758C19.5148 24.526 18.408 22.7219 18.0871 22.1796C17.766 21.6264 18.054 21.3049 18.3083 21.0063C18.5851 20.6629 18.8506 20.4196 19.1274 20.0984C19.4042 19.7776 19.5591 19.6114 19.7363 19.235C19.9246 18.8698 19.7916 18.4934 19.6588 18.2166C19.526 17.9398 18.4192 15.2388 17.9653 14.1433Z" fill="#FEFEFE"/>
<defs>
<linearGradient id="paint0_linear_1005_172215" x1="-137.133" y1="-58.5032" x2="-137.133" y2="-57.1216" gradientUnits="userSpaceOnUse">
<stop stop-color="#6EBF61"/>
<stop offset="0.231" stop-color="#50A557"/>
<stop offset="0.522" stop-color="#2A904F"/>
<stop offset="0.812" stop-color="#50A557"/>
<stop offset="1" stop-color="#6EBF63"/>
</linearGradient>
</defs>
</svg>
