<svg width="306" height="306" fill="none" xmlns="http://www.w3.org/2000/svg"><path d="M229.904 125.403c-.669 4.608-3.707 10.868-7.193 16.31a30.38 30.38 0 01-19.364 13.348l-35.185 7.357a27.066 27.066 0 00-14.633 8.446l-23.069 25.787c-4.336 4.846-7.367 3.69-7.367-2.81-.052.241-11.449 29.634 18.755 47.055 11.605 6.694 28.311 4.289 39.916-2.405l61.49-35.468a93.064 93.064 0 0044.63-61.679c.214-1.027.378-2.058.556-3.089l-58.536-12.852z" fill="url(#prefix__paint0_linear_2_234997)"/><path d="M213.958 89.97c11.605 6.695 16.347 16.661 16.346 30.048 0 1.818-.142 3.614-.399 5.382l24.776 10.643 33.76 2.209c4.323-25.018-4.149-50.77-19.336-71.24-11.429-15.403-26.136-28.771-43.816-38.97-14.362-8.284-29.288-13.742-44.283-16.737l-16.848 21.818-5.322 25.054 55.122 31.794z" fill="url(#prefix__paint1_linear_2_234997)"/><path d="M15.642 108.332c-.006.02.011.026.018.006 1.3-3.899 2.93-8.25 4.965-12.897 10.631-24.277 31.118-40.469 56.322-48.724 25.204-8.256 52.723-5.362 75.693 7.887l6.196 3.574 22.17-46.871C110.492-2.777 38.423 38.65 15.732 108.06l-.09.271z" fill="url(#prefix__paint2_linear_2_234997)"/><path d="M179.358 238.489a37.54 37.54 0 01-37.509 0 37.555 37.555 0 01-4.464-3.037l-20.411 14.033-17.591 28.426c19.526 16.25 44.88 21.474 70.218 18.568 19.067-2.186 38.008-8.227 55.689-18.425 14.362-8.284 26.556-18.468 36.65-29.945l-10.489-25.486-16.971-15.929-55.122 31.795z" fill="url(#prefix__paint3_linear_2_234997)"/><path d="M137.385 235.453a37.452 37.452 0 01-14.29-29.416v-97.518c0-5.45 1.606-6.376 6.33-3.651-7.276-4.197-24.085-18.605-44.839-6.634-11.605 6.694-21.161 21.47-21.161 34.858v70.936c0 26.529 13.74 54.202 33.558 71.859.784.698 1.596 1.356 2.4 2.026l38.002-42.46z" fill="url(#prefix__paint4_linear_2_234997)"/><path d="M260.517 56.522c-.014-.015-.028-.003-.014.013 2.73 3.074 5.686 6.66 8.697 10.745a92.996 92.996 0 0116.161 74.294c-5.446 25.934-21.714 48.297-44.685 61.546l-6.196 3.574 27.461 41.415c47.466-53.968 47.588-137.036-1.234-191.373l-.19-.214z" fill="url(#prefix__paint5_linear_2_234997)"/><path d="M65.831 133.089a37.467 37.467 0 0118.755-32.453 37.517 37.517 0 014.864-2.345l-1.958-24.675L73.73 45.385C49.882 54.154 30.59 72.277 20.44 95.65c-7.638 17.591-11.873 36.999-11.873 57.395 0 16.569 2.732 32.211 7.633 46.683l27.337 3.668 22.293-6.72v-63.588z" fill="url(#prefix__paint6_linear_2_234997)"/><path d="M89.45 98.291a37.534 37.534 0 0132.644 2.345l1 .577 80.299 46.316c5.633 3.249 5.121 6.447-1.246 7.778l4.632-.969a30.349 30.349 0 0015.923-8.929c7.322-7.804 10.01-17.221 10.01-25.392a37.467 37.467 0 00-18.754-32.453l-61.491-35.468a93.225 93.225 0 00-75.78-7.774c-.998.329-1.974.702-2.956 1.063L89.45 98.29z" fill="url(#prefix__paint7_linear_2_234997)"/><path d="M182.99 294.292c.02-.004.016-.022-.004-.018a152.686 152.686 0 01-13.663 2.152 93.205 93.205 0 01-72.482-23.165c-19.758-17.679-31.01-42.935-31.01-69.434v-7.148l-49.63 3.051c23.05 68.052 94.995 109.692 166.508 94.62l.281-.058z" fill="url(#prefix__paint8_linear_2_234997)"/><defs><linearGradient id="prefix__paint0_linear_2_234997" x1="189.649" y1="223.14" x2="218.061" y2="124.176" gradientUnits="userSpaceOnUse"><stop stop-color="#B00132"/><stop offset="1" stop-color="#E61749"/></linearGradient><linearGradient id="prefix__paint1_linear_2_234997" x1="255.089" y1="102.45" x2="180.349" y2="27.973" gradientUnits="userSpaceOnUse"><stop stop-color="#E51648"/><stop offset="1" stop-color="#FF1C53"/></linearGradient><linearGradient id="prefix__paint2_linear_2_234997" x1="154.485" y1="53.894" x2="41.736" y2="61.018" gradientUnits="userSpaceOnUse"><stop stop-color="#FF1C53"/><stop offset="1" stop-color="#F21A4F"/></linearGradient><linearGradient id="prefix__paint3_linear_2_234997" x1="146.86" y1="267.305" x2="248.114" y2="239.982" gradientUnits="userSpaceOnUse"><stop stop-color="#EC164A"/><stop offset="1" stop-color="#E31546"/></linearGradient><linearGradient id="prefix__paint4_linear_2_234997" x1="74.184" y1="150.136" x2="146.072" y2="224.627" gradientUnits="userSpaceOnUse"><stop stop-color="#B00132"/><stop offset="1" stop-color="#ED174B"/></linearGradient><linearGradient id="prefix__paint5_linear_2_234997" x1="238.31" y1="203.872" x2="288.468" y2="102.76" gradientUnits="userSpaceOnUse"><stop stop-color="#E31546"/><stop offset="1" stop-color="#E31546"/></linearGradient><linearGradient id="prefix__paint6_linear_2_234997" x1="56.988" y1="90.99" x2="30.148" y2="191.871" gradientUnits="userSpaceOnUse"><stop stop-color="#E11345"/><stop offset="1" stop-color="#F2194E"/></linearGradient><linearGradient id="prefix__paint7_linear_2_234997" x1="194.01" y1="86.191" x2="95.928" y2="110.612" gradientUnits="userSpaceOnUse"><stop stop-color="#B00132"/><stop offset="1" stop-color="#E11345"/></linearGradient><linearGradient id="prefix__paint8_linear_2_234997" x1="66.402" y1="201.353" x2="128.921" y2="295.395" gradientUnits="userSpaceOnUse"><stop stop-color="#F2194E"/><stop offset="1" stop-color="#F21A4F"/></linearGradient></defs></svg>