<svg width="48" height="48" viewBox="0 0 48 48" fill="none" xmlns="http://www.w3.org/2000/svg">
<path d="M34.7796 19.4881L38.4415 13.1458C38.506 13.0372 38.5442 12.9052 38.5442 12.7644C38.5442 12.3433 38.2038 12.0029 37.7827 12.0029C37.5025 12.0029 37.2575 12.154 37.1255 12.38L37.124 12.3829L33.4166 18.8044C30.6482 17.5325 27.4103 16.7901 23.9993 16.7901C20.5882 16.7901 17.3503 17.5325 14.4381 18.8631L14.5819 18.8044L10.8745 12.3814C10.741 12.1526 10.4945 12 10.2143 12C9.79327 12 9.4529 12.3404 9.4529 12.7614C9.4529 12.9023 9.49105 13.0328 9.55707 13.1458L9.5556 13.1429L13.2175 19.4852C6.92948 22.9578 2.60151 29.3104 2.0044 36.7149L2 36.7912H46C45.3985 29.3104 41.0705 22.9578 34.894 19.5409L34.7825 19.4852L34.7796 19.4881ZM13.8704 30.5252C12.8581 30.5252 12.0379 29.705 12.0379 28.6927C12.0379 27.6804 12.8581 26.8603 13.8704 26.8603C14.8827 26.8603 15.7028 27.6804 15.7028 28.6927C15.7013 29.7036 14.8827 30.5237 13.8704 30.5252ZM34.1223 30.5252C33.11 30.5252 32.2899 29.705 32.2899 28.6927C32.2899 27.6804 33.11 26.8603 34.1223 26.8603C35.1346 26.8603 35.9547 27.6804 35.9547 28.6927C35.9533 29.7036 35.1346 30.5237 34.1223 30.5252Z" fill="#1F2A37"/>
</svg>
