<svg width="48" height="48" viewBox="0 0 48 48" fill="none" xmlns="http://www.w3.org/2000/svg">
<path d="M35.2696 16.8285L39.0979 10.1979C39.1654 10.0844 39.2053 9.94635 39.2053 9.79911C39.2053 9.35891 38.8494 9.00307 38.4092 9.00307C38.1163 9.00307 37.8601 9.16105 37.7221 9.39725L37.7206 9.40032L33.8447 16.1137C30.9504 14.7839 27.5653 14.0078 23.9992 14.0078C20.4332 14.0078 17.0481 14.7839 14.0035 16.1751L14.1538 16.1137L10.2779 9.39879C10.1383 9.15951 9.88066 9 9.58771 9C9.14751 9 8.79167 9.35584 8.79167 9.79604C8.79167 9.94328 8.83155 10.0798 8.90057 10.1979L8.89904 10.1948L12.7274 16.8254C6.15355 20.4559 1.62886 27.0972 1.0046 34.8383L1 34.918H47C46.3711 27.0972 41.8465 20.4559 35.3892 16.8837L35.2726 16.8254L35.2696 16.8285ZM13.4099 28.3672C12.3516 28.3672 11.4942 27.5098 11.4942 26.4515C11.4942 25.3932 12.3516 24.5358 13.4099 24.5358C14.4682 24.5358 15.3256 25.3932 15.3256 26.4515C15.3241 27.5083 14.4682 28.3657 13.4099 28.3672ZM34.5824 28.3672C33.5241 28.3672 32.6667 27.5098 32.6667 26.4515C32.6667 25.3932 33.5241 24.5358 34.5824 24.5358C35.6407 24.5358 36.4981 25.3932 36.4981 26.4515C36.4966 27.5083 35.6407 28.3657 34.5824 28.3672Z" fill="white"/>
</svg>
