<svg width="48" height="48" viewBox="0 0 48 48" fill="none" xmlns="http://www.w3.org/2000/svg">
<path d="M41.2455 36.3068C40.5992 37.8 39.8341 39.1745 38.9477 40.4381C37.7394 42.1608 36.7501 43.3533 35.9877 44.0154C34.8058 45.1024 33.5395 45.659 32.1835 45.6907C31.21 45.6907 30.0361 45.4137 28.6695 44.8517C27.2985 44.2924 26.0385 44.0154 24.8864 44.0154C23.6781 44.0154 22.3823 44.2924 20.9962 44.8517C19.608 45.4137 18.4897 45.7065 17.6347 45.7355C16.3344 45.7909 15.0383 45.2184 13.7445 44.0154C12.9188 43.2952 11.8859 42.0606 10.6487 40.3115C9.32115 38.4437 8.22975 36.2778 7.37473 33.8085C6.45904 31.1413 6 28.5586 6 26.0581C6 23.1939 6.61891 20.7236 7.85857 18.6534C8.83283 16.9906 10.1289 15.6789 11.7511 14.716C13.3733 13.7531 15.1261 13.2624 17.0137 13.231C18.0465 13.231 19.4009 13.5505 21.0841 14.1783C22.7625 14.8083 23.8401 15.1278 24.3126 15.1278C24.6659 15.1278 25.8631 14.7542 27.8926 14.0095C29.8118 13.3188 31.4316 13.0329 32.7586 13.1455C36.3544 13.4357 39.0558 14.8532 40.8524 17.4069C37.6365 19.3554 36.0457 22.0846 36.0774 25.5857C36.1064 28.3127 37.0957 30.582 39.04 32.3839C39.9212 33.2202 40.9052 33.8665 42 34.3256C41.7626 35.0141 41.5119 35.6736 41.2455 36.3068ZM32.9987 3.85503C32.9987 5.99247 32.2178 7.9882 30.6613 9.83543C28.7829 12.0314 26.511 13.3004 24.0472 13.1001C24.0158 12.8437 23.9976 12.5738 23.9976 12.2902C23.9976 10.2383 24.8909 8.04228 26.4772 6.24676C27.2692 5.33766 28.2764 4.58176 29.4979 3.97875C30.7167 3.38475 31.8696 3.05625 32.9538 3C32.9855 3.28574 32.9987 3.5715 32.9987 3.855V3.85503Z" fill="#111928"/>
</svg>
