<svg width="50" height="50" viewBox="0 0 50 50" fill="none" xmlns="http://www.w3.org/2000/svg">
<path d="M46.3415 30.325C43.4029 42.112 31.464 49.2847 19.6756 46.346C7.89278 43.4073 0.719391 31.4684 3.65874 19.6822C6.59603 7.89382 18.5343 0.71975 30.3192 3.65841C42.1068 6.59707 49.2802 18.5374 46.3415 30.325Z" fill="#F7931A"/>
<path d="M34.701 21.868C35.1383 18.9403 32.9092 17.3665 29.8612 16.3165L30.85 12.3507L28.4352 11.749L27.4726 15.6104C26.8387 15.4523 26.1869 15.3031 25.5392 15.1552L26.5087 11.2684L24.096 10.6668L23.1066 14.6313C22.5813 14.5117 22.0656 14.3934 21.5651 14.269L21.5678 14.2566L18.2386 13.4253L17.5964 16.0037C17.5964 16.0037 19.3875 16.4142 19.3497 16.4396C20.3274 16.6837 20.5048 17.3307 20.4746 17.8436L19.3483 22.3616C19.4157 22.3788 19.503 22.4036 19.5993 22.4421L19.3449 22.3788L17.7656 28.7079C17.6459 29.0049 17.3427 29.4504 16.6593 29.2813C16.6833 29.3164 14.9046 28.8433 14.9046 28.8433L13.7062 31.6073L16.8483 32.3905C17.4328 32.5369 18.0055 32.6903 18.5686 32.8346L17.5696 36.8466L19.9809 37.4482L20.971 33.4796C21.629 33.6584 22.2684 33.8234 22.8941 33.9788L21.9081 37.9288L24.3222 38.5305L25.3212 34.5268C29.4377 35.3058 32.5338 34.9915 33.8354 31.2691C34.8853 28.2713 33.7838 26.542 31.618 25.4137C33.1952 25.0486 34.3841 24.0111 34.701 21.868ZM29.1847 29.6024C28.438 32.6002 23.3912 30.9803 21.7541 30.5732L23.0798 25.259C24.7162 25.6675 29.9623 26.476 29.1847 29.6024ZM29.9307 21.8246C29.25 24.5515 25.049 23.1661 23.6855 22.8264L24.8874 18.0066C26.2508 18.3462 30.6402 18.9802 29.9307 21.8246Z" fill="white"/>
</svg>
