<svg width="48" height="48" viewBox="0 0 48 48" fill="none" xmlns="http://www.w3.org/2000/svg">
<path d="M5.19306 34.882C3.43611 34.882 2 36.3181 2 38.075C2 39.832 3.43611 41.2681 5.19306 41.2681C6.95 41.2681 8.38611 39.832 8.38611 38.075C8.38611 36.3181 6.96528 34.882 5.19306 34.882Z" fill="#6515DD"/>
<path d="M44.5028 7L24.3972 13.4167V7.07639L2.71805 13.9972V32.3764L21.4181 26.4028V32.7125L46 24.875L39.3389 18.3667L44.5028 7ZM21.4181 23.2556L5.71249 28.2667V16.1819L21.4181 11.1708V23.2556ZM40.4389 23.5153L24.3972 28.6333V16.5639L39.1708 11.8431L35.7792 18.9931L40.4389 23.5153Z" fill="#6515DD"/>
</svg>
