<svg width="48" height="48" viewBox="0 0 48 48" fill="none" xmlns="http://www.w3.org/2000/svg">
<path d="M3.48333 35.75C1.56667 35.75 0 37.3167 0 39.2333C0 41.15 1.56667 42.7167 3.48333 42.7167C5.4 42.7167 6.96667 41.15 6.96667 39.2333C6.96667 37.3167 5.41667 35.75 3.48333 35.75Z" fill="white"/>
<path d="M46.3667 5.33325L24.4333 12.3333V5.41659L0.783325 12.9666V33.0166L21.1833 26.4999V33.3833L48 24.8333L40.7333 17.7333L46.3667 5.33325ZM21.1833 23.0666L4.04999 28.5333V15.3499L21.1833 9.88325V23.0666ZM41.9333 23.3499L24.4333 28.9333V15.7666L40.55 10.6166L36.85 18.4166L41.9333 23.3499Z" fill="white"/>
</svg>
