<svg width="48" height="48" viewBox="0 0 48 48" fill="none" xmlns="http://www.w3.org/2000/svg">
<path d="M39.2479 9.78009C36.4434 8.49331 33.4361 7.54526 30.2918 7.00228C30.2346 6.9918 30.1774 7.01799 30.1479 7.07037C29.7611 7.75826 29.3327 8.65567 29.0327 9.36104C25.6507 8.85473 22.2862 8.85473 18.9736 9.36104C18.6735 8.63999 18.2296 7.75826 17.8411 7.07037C17.8116 7.01973 17.7544 6.99355 17.6971 7.00228C14.5545 7.54353 11.5472 8.49157 8.74105 9.78009C8.71675 9.79056 8.69593 9.80804 8.68211 9.83072C2.97788 18.3527 1.41526 26.6652 2.18183 34.8747C2.1853 34.9149 2.20784 34.9533 2.23906 34.9777C6.00255 37.7415 9.64813 39.4194 13.226 40.5316C13.2833 40.549 13.3439 40.5281 13.3804 40.4809C14.2267 39.3252 14.9812 38.1065 15.628 36.8249C15.6662 36.7499 15.6298 36.6608 15.5518 36.6311C14.3551 36.1772 13.2156 35.6237 12.1195 34.9952C12.0328 34.9446 12.0259 34.8206 12.1056 34.7612C12.3363 34.5883 12.567 34.4085 12.7873 34.2269C12.8271 34.1938 12.8826 34.1868 12.9295 34.2077C20.1304 37.4954 27.9262 37.4954 35.0421 34.2077C35.0889 34.185 35.1445 34.192 35.186 34.2252C35.4063 34.4068 35.637 34.5883 35.8694 34.7612C35.9492 34.8206 35.944 34.9446 35.8573 34.9952C34.7612 35.6359 33.6217 36.1772 32.4233 36.6294C32.3452 36.6591 32.3105 36.7499 32.3487 36.8249C33.0095 38.1047 33.7639 39.3234 34.5946 40.4792C34.6293 40.5281 34.6918 40.549 34.749 40.5316C38.3442 39.4194 41.9898 37.7415 45.7533 34.9777C45.7863 34.9533 45.8071 34.9166 45.8106 34.8765C46.728 25.3854 44.2739 17.141 39.3051 9.83246C39.2929 9.80804 39.2722 9.79056 39.2479 9.78009ZM16.7034 29.876C14.5354 29.876 12.7491 27.8857 12.7491 25.4413C12.7491 22.9969 14.5008 21.0066 16.7034 21.0066C18.9233 21.0066 20.6923 23.0144 20.6576 25.4413C20.6576 27.8857 18.9059 29.876 16.7034 29.876ZM31.3237 29.876C29.1558 29.876 27.3695 27.8857 27.3695 25.4413C27.3695 22.9969 29.1211 21.0066 31.3237 21.0066C33.5437 21.0066 35.3126 23.0144 35.278 25.4413C35.278 27.8857 33.5437 29.876 31.3237 29.876Z" fill="#5865F2"/>
</svg>
