<svg width="48" height="48" viewBox="0 0 48 48" fill="none" xmlns="http://www.w3.org/2000/svg">
<path d="M24 45.3125C35.7706 45.3125 45.3125 35.7706 45.3125 24C45.3125 12.2294 35.7706 2.6875 24 2.6875C12.2294 2.6875 2.6875 12.2294 2.6875 24C2.6875 35.7706 12.2294 45.3125 24 45.3125Z" fill="#EA4C89"/>
<path fill-rule="evenodd" clip-rule="evenodd" d="M24 2C11.8547 2 2 11.8547 2 24C2 36.1454 11.8547 46 24 46C36.1215 46 46 36.1454 46 24C46 11.8547 36.1215 2 24 2ZM38.5314 12.141C41.1562 15.3384 42.7311 19.4186 42.7788 23.8329C42.1584 23.7137 35.9544 22.449 29.7028 23.2365C29.5597 22.9263 29.4403 22.5921 29.2972 22.2582C28.9154 21.3515 28.4859 20.4209 28.0564 19.538C34.9761 16.7224 38.1258 12.6659 38.5314 12.141ZM24 5.24512C28.7722 5.24512 33.1388 7.03471 36.4556 9.96964C36.1215 10.4469 33.2819 14.2408 26.6008 16.7462C23.5227 11.0911 20.1107 6.46204 19.5857 5.7462C20.9934 5.41214 22.4729 5.24512 24 5.24512ZM16.0066 7.01084C16.5076 7.67896 19.8482 12.3319 22.974 17.8676C14.1931 20.2061 6.43818 20.1584 5.60304 20.1584C6.81995 14.3362 10.757 9.4924 16.0066 7.01084ZM5.1974 24.0239C5.1974 23.8329 5.1974 23.6421 5.1974 23.4512C6.00868 23.475 15.1236 23.5944 24.5011 20.7788C25.05 21.8286 25.551 22.9023 26.0283 23.9761C25.7896 24.0477 25.5271 24.1194 25.2885 24.1908C15.6009 27.3166 10.4469 35.859 10.0174 36.5748C7.0347 33.2582 5.1974 28.8439 5.1974 24.0239ZM24 42.8026C19.6572 42.8026 15.6486 41.3232 12.4751 38.8416C12.8091 38.1497 16.6268 30.8005 27.2212 27.102C27.2689 27.0781 27.2929 27.0781 27.3406 27.0543C29.9891 33.9023 31.063 39.6529 31.3492 41.2993C29.0824 42.2776 26.6008 42.8026 24 42.8026ZM34.475 39.5814C34.2842 38.436 33.2819 32.948 30.8243 26.1952C36.7181 25.2646 41.872 26.7918 42.5163 27.0066C41.7051 32.2321 38.6985 36.7419 34.475 39.5814Z" fill="#C32361"/>
</svg>
