<svg width="50" height="50" viewBox="0 0 50 50" fill="none" xmlns="http://www.w3.org/2000/svg">
<path d="M42.808 41.5659C42.3355 40.4108 41.8542 39.2557 41.3292 38.1181C40.8654 37.103 40.2703 36.8055 39.159 37.0593C37.7501 37.383 36.3675 37.8118 34.9586 38.1006C32.2371 38.6694 29.5069 38.7219 26.8204 37.8731C23.4514 36.8142 21.6575 34.3728 20.5549 31.2225H29.6907C30.4082 31.2225 30.9858 30.645 30.9858 29.9274V27.0484C30.9858 26.3308 30.4082 25.7533 29.6907 25.7533H19.6798C19.6798 24.9482 19.6711 24.1782 19.6798 23.4081H29.6907C30.4082 23.4081 30.9858 22.8305 30.9858 22.113V19.234C30.9858 18.5164 30.4082 17.9389 29.6907 17.9389H20.9399C20.9399 17.9039 20.9399 17.8689 20.9574 17.8514C22.0075 15.4624 23.5389 13.546 26.0504 12.5484C28.9731 11.3933 31.9571 11.4196 34.9674 12.0409C36.3937 12.3296 37.7939 12.7672 39.2202 13.091C40.2616 13.3272 40.8654 13.0209 41.3117 12.0496C41.828 10.9295 42.3005 9.79192 42.773 8.64557C43.2193 7.56923 42.9568 6.80792 41.9417 6.21286C41.6879 6.0641 41.4254 5.94159 41.1542 5.83658C36.9363 4.19144 32.5872 3.57889 28.098 4.29645C24.939 4.80399 21.99 5.88909 19.4436 7.86676C16.232 10.352 14.1494 13.6335 12.9418 17.4926L12.793 17.9389H8.29511C7.57755 17.9389 7 18.5164 7 19.234V22.113C7 22.8305 7.57755 23.4081 8.29511 23.4081H11.8392C11.8392 24.1957 11.8392 24.957 11.8392 25.7533H8.29511C7.57755 25.7533 7 26.3308 7 27.0484V29.9274C7 30.645 7.57755 31.2225 8.29511 31.2225H12.5655C12.8893 32.2726 13.1605 33.3402 13.5718 34.3465C15.7332 39.562 19.356 43.2723 24.8078 45.0399C29.3144 46.5013 33.856 46.4576 38.3977 45.2062C39.579 44.8824 40.7516 44.4624 41.8717 43.9461C42.9568 43.4473 43.2368 42.6072 42.808 41.5659Z" fill="#1F2A37"/>
</svg>
