<svg width="48" height="48" viewBox="0 0 48 48" fill="none" xmlns="http://www.w3.org/2000/svg">
<path d="M46 24C46 11.8497 36.1503 2 24 2C11.8497 2 2 11.8497 2 24C2 34.9807 10.045 44.0823 20.5625 45.7327V30.3594H14.9766V24H20.5625V19.1531C20.5625 13.6394 23.847 10.5938 28.8722 10.5938C31.2785 10.5938 33.7969 11.0234 33.7969 11.0234V16.4375H31.0228C28.29 16.4375 27.4375 18.1335 27.4375 19.875V24H33.5391L32.5637 30.3594H27.4375V45.7327C37.955 44.0823 46 34.9807 46 24Z" fill="#1877F2"/>
<path d="M32.5637 30.3594L33.5391 24H27.4375V19.875C27.4375 18.1352 28.29 16.4375 31.0228 16.4375H33.7969V11.0234C33.7969 11.0234 31.2785 10.5938 28.8722 10.5938C23.847 10.5938 20.5625 13.6394 20.5625 19.1531V24H14.9766V30.3594H20.5625V45.7327C22.8403 46.0891 25.1597 46.0891 27.4375 45.7327V30.3594H32.5637Z" fill="white"/>
</svg>
