<svg width="48" height="48" viewBox="0 0 48 48" fill="none" xmlns="http://www.w3.org/2000/svg">
<path d="M16.5001 47C20.6401 47 24.0002 43.6399 24.0002 39.4999V31.9999H16.5001C12.3601 31.9999 9 35.3599 9 39.4999C9 43.6399 12.3601 47 16.5001 47Z" fill="#0ACF83"/>
<path d="M9 24.5C9 20.36 12.3601 16.9999 16.5001 16.9999H24.0002V31.9999H16.5001C12.3601 32.0001 9 28.64 9 24.5Z" fill="#A259FF"/>
<path d="M9 9.50006C9 5.36006 12.3601 2 16.5001 2H24.0002V16.9999H16.5001C12.3601 16.9999 9 13.6401 9 9.50006Z" fill="#F24E1E"/>
<path d="M24.0002 2H31.4999C35.6399 2 39 5.36006 39 9.50006C39 13.6401 35.6399 16.9999 31.4999 16.9999L24.0002 16.9999V2Z" fill="#FF7262"/>
<path d="M39 24.5C39 28.64 35.6399 32 31.4999 32C27.3599 32 23.9998 28.64 23.9998 24.5C23.9998 20.36 27.3599 16.9999 31.4999 16.9999C35.6399 16.9999 39 20.36 39 24.5Z" fill="#1ABCFE"/>
</svg>
