<svg width="48" height="48" viewBox="0 0 48 48" fill="none" xmlns="http://www.w3.org/2000/svg">
<path fill-rule="evenodd" clip-rule="evenodd" d="M23.9927 3C18.7699 3.00271 13.7182 4.85255 9.74116 8.21875C5.76409 11.5849 3.1209 16.248 2.28422 21.3741C1.44755 26.5002 2.47193 31.7551 5.17422 36.1991C7.87652 40.6431 12.0805 43.9865 17.0344 45.6315C18.1274 45.8343 18.539 45.1569 18.539 44.581C18.539 44.005 18.5172 42.3351 18.5099 40.5094C12.3895 41.8316 11.0962 37.9267 11.0962 37.9267C10.098 35.3911 8.65538 34.7246 8.65538 34.7246C6.65897 33.3698 8.80476 33.3951 8.80476 33.3951C11.0161 33.5509 12.1782 35.6519 12.1782 35.6519C14.1382 38.9953 17.3259 38.0281 18.5791 37.4631C18.7758 36.0467 19.3478 35.0832 19.9781 34.5362C15.089 33.9856 9.95231 32.1092 9.95231 23.7271C9.92201 21.5532 10.7333 19.451 12.2183 17.8553C11.9924 17.3047 11.2383 15.0805 12.4332 12.0595C12.4332 12.0595 14.2803 11.4727 18.4844 14.3017C22.0904 13.3212 25.895 13.3212 29.501 14.3017C33.7015 11.4727 35.5449 12.0595 35.5449 12.0595C36.7435 15.0733 35.9894 17.2974 35.7635 17.8553C37.2532 19.4512 38.0662 21.5572 38.0331 23.7343C38.0331 32.1346 32.8855 33.9856 27.9892 34.5253C28.7761 35.2063 29.4792 36.5357 29.4792 38.5787C29.4792 41.5056 29.4537 43.8601 29.4537 44.581C29.4537 45.1642 29.8508 45.8452 30.9655 45.6315C35.9201 43.9863 40.1245 40.6423 42.8267 36.1976C45.529 31.7528 46.5528 26.4971 45.7152 21.3705C44.8776 16.244 42.2331 11.5809 38.2547 8.21523C34.2763 4.84961 29.2235 3.00099 24 3H23.9927Z" fill="#191717"/>
<path d="M10.3234 34.4094C10.276 34.5181 10.1012 34.5507 9.95907 34.4746C9.81699 34.3985 9.71135 34.2573 9.76236 34.145C9.81336 34.0327 9.98458 34.0037 10.1267 34.0798C10.2687 34.1558 10.378 34.3007 10.3234 34.4094Z" fill="#191717"/>
<path d="M11.216 35.3983C11.1405 35.4361 11.0542 35.4467 10.9718 35.4282C10.8894 35.4096 10.816 35.3632 10.7642 35.2969C10.6222 35.1447 10.593 34.9346 10.7023 34.8405C10.8116 34.7463 11.0083 34.7898 11.1504 34.9419C11.2925 35.094 11.3253 35.3041 11.216 35.3983Z" fill="#191717"/>
<path d="M12.0831 36.6553C11.9483 36.7494 11.7188 36.6553 11.5912 36.4669C11.556 36.4331 11.528 36.3926 11.5088 36.3478C11.4896 36.303 11.4798 36.2548 11.4798 36.2061C11.4798 36.1574 11.4896 36.1092 11.5088 36.0644C11.528 36.0196 11.556 35.9791 11.5912 35.9453C11.726 35.8547 11.9556 35.9453 12.0831 36.13C12.2106 36.3148 12.2142 36.5611 12.0831 36.6553Z" fill="#191717"/>
<path d="M13.2598 37.8724C13.1395 38.0064 12.8954 37.9702 12.6951 37.789C12.4947 37.6079 12.4473 37.3616 12.5676 37.2312C12.6878 37.1008 12.9319 37.137 13.1395 37.3145C13.3472 37.492 13.3873 37.742 13.2598 37.8724Z" fill="#191717"/>
<path d="M14.91 38.5823C14.8554 38.7526 14.6076 38.8287 14.3599 38.7562C14.1122 38.6838 13.9482 38.4809 13.9956 38.307C14.043 38.1332 14.2943 38.0535 14.5457 38.1332C14.7971 38.2129 14.9574 38.4049 14.91 38.5823Z" fill="#191717"/>
<path d="M16.7098 38.7055C16.7098 38.883 16.5058 39.0351 16.2435 39.0388C15.9812 39.0424 15.7662 38.8975 15.7662 38.72C15.7662 38.5425 15.9702 38.3904 16.2325 38.3867C16.4948 38.3831 16.7098 38.5244 16.7098 38.7055Z" fill="#191717"/>
<path d="M18.3856 38.4266C18.4184 38.6041 18.2362 38.7888 17.9739 38.8323C17.7116 38.8758 17.4821 38.7707 17.4493 38.5968C17.4165 38.423 17.606 38.2346 17.861 38.1875C18.116 38.1404 18.3528 38.2491 18.3856 38.4266Z" fill="#191717"/>
</svg>
