<svg width="48" height="48" viewBox="0 0 48 48" fill="none" xmlns="http://www.w3.org/2000/svg">
<g clip-path="url(#clip0_3213_21041)">
<path fill-rule="evenodd" clip-rule="evenodd" d="M33.6867 13.0956C31.2086 10.7322 27.9016 9.4447 24.48 9.49761C18.2188 9.49761 12.9011 13.7217 11.0051 19.4097C9.99975 22.3904 9.99975 25.6182 11.0051 28.5989H11.0139C12.9187 34.2781 18.2275 38.5022 24.4888 38.5022C27.7209 38.5022 30.4956 37.6755 32.6461 36.2154V36.2094C35.1771 34.5339 36.9055 31.8971 37.4435 28.9164H24.48V19.6744H47.1176C47.3998 21.2794 47.532 22.9197 47.532 24.5512C47.532 31.8508 44.9233 38.0224 40.3841 42.2024L40.3889 42.2061C36.4116 45.8746 30.9529 47.9999 24.48 47.9999C15.4056 47.9999 7.10721 42.8851 3.03298 34.7808C-0.370998 27.9992 -0.37099 20.0095 3.03301 13.228C7.10723 5.11479 15.4056 -9.16524e-05 24.48 -9.16524e-05C30.4414 -0.070641 36.2 2.1693 40.5388 6.24352L33.6867 13.0956Z" fill="white"/>
</g>
<defs>
<clipPath id="clip0_3213_21041">
<rect width="48" height="48" fill="white"/>
</clipPath>
</defs>
</svg>
