<svg width="48" height="48" viewBox="0 0 48 48" fill="none" xmlns="http://www.w3.org/2000/svg">
<path d="M46 24.9602C46 23.4346 45.8763 21.9007 45.6124 20.3998H24.4432V29.0423H36.5658C36.0628 31.8297 34.4464 34.2954 32.0797 35.8623V41.47H39.312C43.559 37.5611 46 31.7884 46 24.9602Z" fill="#4285F4"/>
<path d="M24.4432 46.888C30.4963 46.888 35.6009 44.9006 39.3202 41.47L32.0879 35.8622C30.0757 37.2312 27.478 38.0064 24.4515 38.0064C18.5964 38.0064 13.6319 34.0562 11.8506 28.7454H4.3874V34.5263C8.19735 42.105 15.9574 46.888 24.4432 46.888Z" fill="#34A853"/>
<path d="M11.8424 28.7454C10.9023 25.958 10.9023 22.9398 11.8424 20.1524V14.3715H4.38742C1.20422 20.7132 1.2042 28.1846 4.3874 34.5263L11.8424 28.7454Z" fill="#FBBC04"/>
<path d="M24.4432 10.8831C27.6429 10.8337 30.7354 12.0377 33.0527 14.2478L39.4604 7.84013C35.403 4.03019 30.018 1.93554 24.4432 2.00151C15.9574 2.00151 8.19737 6.78459 4.38742 14.3715L11.8424 20.1524C13.6154 14.8333 18.5881 10.8831 24.4432 10.8831Z" fill="#EA4335"/>
</svg>
