<svg width="48" height="48" viewBox="0 0 48 48" fill="none" xmlns="http://www.w3.org/2000/svg">
<path d="M24.0129 5.96404C29.8945 5.96404 30.591 5.98984 32.904 6.09302C35.0537 6.18761 36.2146 6.54876 36.9885 6.84972C38.0117 7.24526 38.7512 7.72679 39.5165 8.49209C40.2904 9.26598 40.7633 9.99687 41.1589 11.0201C41.4598 11.794 41.821 12.9635 41.9156 15.1046C42.0188 17.4262 42.0446 18.1227 42.0446 23.9957C42.0446 29.8773 42.0188 30.5738 41.9156 32.8869C41.821 35.0365 41.4598 36.1974 41.1589 36.9713C40.7633 37.9945 40.2818 38.734 39.5165 39.4993C38.7426 40.2732 38.0117 40.7461 36.9885 41.1417C36.2146 41.4426 35.0451 41.8038 32.904 41.8984C30.5824 42.0016 29.8859 42.0274 24.0129 42.0274C18.1313 42.0274 17.4348 42.0016 15.1218 41.8984C12.9721 41.8038 11.8112 41.4426 11.0373 41.1417C10.0141 40.7461 9.27458 40.2646 8.50928 39.4993C7.73539 38.7254 7.26246 37.9945 6.86691 36.9713C6.56596 36.1974 6.20481 35.0279 6.11022 32.8869C6.00704 30.5652 5.98124 29.8687 5.98124 23.9957C5.98124 18.1141 6.00704 17.4176 6.11022 15.1046C6.20481 12.9549 6.56596 11.794 6.86691 11.0201C7.26246 9.99687 7.74399 9.25738 8.50928 8.49209C9.28317 7.71819 10.0141 7.24526 11.0373 6.84972C11.8112 6.54876 12.9807 6.18761 15.1218 6.09302C17.4348 5.98984 18.1313 5.96404 24.0129 5.96404ZM24.0129 2C18.0367 2 17.2886 2.0258 14.9412 2.12898C12.6023 2.23217 10.9943 2.61051 9.60133 3.15224C8.14813 3.71976 6.91851 4.46785 5.69748 5.69748C4.46785 6.91851 3.71976 8.14813 3.15224 9.59273C2.61051 10.9943 2.23217 12.5937 2.12898 14.9326C2.0258 17.2886 2 18.0367 2 24.0129C2 29.9891 2.0258 30.7372 2.12898 33.0846C2.23217 35.4235 2.61051 37.0315 3.15224 38.4245C3.71976 39.8777 4.46785 41.1073 5.69748 42.3283C6.91851 43.5493 8.14813 44.306 9.59273 44.865C10.9943 45.4067 12.5937 45.785 14.9326 45.8882C17.28 45.9914 18.0281 46.0172 24.0043 46.0172C29.9805 46.0172 30.7286 45.9914 33.076 45.8882C35.4149 45.785 37.0229 45.4067 38.4159 44.865C39.8605 44.306 41.0901 43.5493 42.3111 42.3283C43.5321 41.1073 44.2888 39.8777 44.8478 38.4331C45.3895 37.0315 45.7678 35.4321 45.871 33.0932C45.9742 30.7458 46 29.9977 46 24.0215C46 18.0453 45.9742 17.2972 45.871 14.9498C45.7678 12.6109 45.3895 11.0029 44.8478 9.60993C44.306 8.14813 43.5579 6.91851 42.3283 5.69748C41.1073 4.47645 39.8777 3.71976 38.4331 3.16084C37.0315 2.61911 35.4321 2.24077 33.0932 2.13758C30.7372 2.0258 29.9891 2 24.0129 2Z" fill="#CD486B"/>
<path d="M24.0129 12.7055C17.7702 12.7055 12.7055 17.7702 12.7055 24.0129C12.7055 30.2556 17.7702 35.3203 24.0129 35.3203C30.2556 35.3203 35.3203 30.2556 35.3203 24.0129C35.3203 17.7702 30.2556 12.7055 24.0129 12.7055ZM24.0129 31.3477C19.9629 31.3477 16.6781 28.0629 16.6781 24.0129C16.6781 19.9629 19.9629 16.6781 24.0129 16.6781C28.0629 16.6781 31.3477 19.9629 31.3477 24.0129C31.3477 28.0629 28.0629 31.3477 24.0129 31.3477Z" fill="#CD486B"/>
<path d="M38.4073 12.2584C38.4073 13.7202 37.2206 14.8982 35.7674 14.8982C34.3056 14.8982 33.1276 13.7116 33.1276 12.2584C33.1276 10.7966 34.3142 9.61855 35.7674 9.61855C37.2206 9.61855 38.4073 10.8052 38.4073 12.2584Z" fill="#CD486B"/>
</svg>
