<svg width="48" height="48" viewBox="0 0 48 48" fill="none" xmlns="http://www.w3.org/2000/svg">
<path d="M42.7519 2H5.24805C4.38662 2 3.56046 2.34221 2.95133 2.95133C2.3422 3.56046 2 4.38662 2 5.24806V42.7519C2 43.6134 2.3422 44.4395 2.95133 45.0487C3.56046 45.6578 4.38662 46 5.24805 46H42.7519C43.6134 46 44.4395 45.6578 45.0487 45.0487C45.6578 44.4395 46 43.6134 46 42.7519V5.24806C46 4.38662 45.6578 3.56046 45.0487 2.95133C44.4395 2.34221 43.6134 2 42.7519 2ZM15.1144 39.4825H8.49917V18.4694H15.1144V39.4825ZM11.8022 15.5575C11.0518 15.5533 10.3195 15.3269 9.69768 14.9068C9.07585 14.4868 8.59237 13.892 8.30827 13.1974C8.02418 12.5029 7.95219 11.7398 8.10139 11.0043C8.25059 10.2689 8.6143 9.59417 9.14662 9.06527C9.67893 8.53636 10.356 8.17699 11.0924 8.03251C11.8287 7.88803 12.5914 7.96492 13.2841 8.25347C13.9768 8.54203 14.5685 9.02931 14.9845 9.65382C15.4005 10.2783 15.6223 11.0121 15.6217 11.7625C15.6287 12.2649 15.5346 12.7636 15.3449 13.2288C15.1551 13.694 14.8736 14.1163 14.5172 14.4705C14.1608 14.8246 13.7367 15.1034 13.2703 15.2901C12.8038 15.4769 12.3046 15.5678 11.8022 15.5575ZM39.4978 39.5008H32.8856V28.0211C32.8856 24.6356 31.4464 23.5906 29.5886 23.5906C27.6269 23.5906 25.7019 25.0694 25.7019 28.1067V39.5008H19.0867V18.4847H25.4483V21.3967H25.5339C26.1725 20.1042 28.4092 17.895 31.8222 17.895C35.5133 17.895 39.5008 20.0858 39.5008 26.5025L39.4978 39.5008Z" fill="#0A66C2"/>
</svg>
