<svg width="48" height="48" viewBox="0 0 48 48" fill="none" xmlns="http://www.w3.org/2000/svg">
<path d="M26.8187 23.5175C26.8187 30.4304 21.2627 36.0345 14.4095 36.0345C7.55634 36.0345 2 30.4292 2 23.5175C2 16.6057 7.55592 11 14.4095 11C21.2632 11 26.8187 16.6045 26.8187 23.5175Z" fill="#111928"/>
<path d="M40.4318 23.5175C40.4318 30.0246 37.6539 35.3017 34.2271 35.3017C30.8002 35.3017 28.0223 30.0246 28.0223 23.5175C28.0223 17.0104 30.7998 11.7332 34.2266 11.7332C37.6535 11.7332 40.4318 17.0087 40.4318 23.5175Z" fill="#111928"/>
<path d="M46 23.5175C46 29.3462 45.0231 34.0743 43.8178 34.0743C42.6124 34.0743 41.636 29.3475 41.636 23.5175C41.636 17.6874 42.6128 12.9606 43.8178 12.9606C45.0227 12.9606 46 17.687 46 23.5175Z" fill="#111928"/>
</svg>
