<svg width="48" height="48" viewBox="0 0 48 48" fill="none" xmlns="http://www.w3.org/2000/svg">
<path d="M24 46C36.1503 46 46 36.1503 46 24C46 11.8497 36.1503 2 24 2C11.8497 2 2 11.8497 2 24C2 36.1503 11.8497 46 24 46Z" fill="white"/>
<path d="M24 2C11.8497 2 2 11.8497 2 24C2 33.3251 7.79424 41.2922 15.9786 44.4971C15.7794 42.7588 15.6165 40.079 16.051 38.1778C16.4494 36.4576 18.6222 27.2412 18.6222 27.2412C18.6222 27.2412 17.9704 25.9193 17.9704 23.9819C17.9704 20.9218 19.7449 18.6403 21.9539 18.6403C23.837 18.6403 24.7424 20.0527 24.7424 21.7366C24.7424 23.6198 23.5473 26.4444 22.9136 29.07C22.3885 31.2609 24.0181 33.0535 26.1728 33.0535C30.084 33.0535 33.0897 28.9251 33.0897 22.986C33.0897 17.7169 29.3054 14.0412 23.8914 14.0412C17.6263 14.0412 13.9506 18.7309 13.9506 23.5835C13.9506 25.4667 14.6749 27.4946 15.5802 28.5992C15.7613 28.8165 15.7794 29.0156 15.7251 29.2329C15.5621 29.921 15.1819 31.4239 15.1095 31.7317C15.0189 32.13 14.7835 32.2206 14.3671 32.0214C11.6148 30.7358 9.89465 26.7342 9.89465 23.493C9.89465 16.558 14.9284 10.1844 24.4346 10.1844C32.0576 10.1844 37.9967 15.6165 37.9967 22.8955C37.9967 30.4823 33.2165 36.5844 26.5893 36.5844C24.3621 36.5844 22.2617 35.4255 21.5556 34.0494C21.5556 34.0494 20.451 38.2502 20.1794 39.2823C19.6905 41.2016 18.3506 43.5918 17.4453 45.0584C19.5095 45.6922 21.6823 46.0362 23.9638 46.0362C36.1136 46.0362 45.9638 36.186 45.9638 24.0362C46 11.8502 36.1498 2 24 2Z" fill="#E60019"/>
</svg>
