<svg width="48" height="48" viewBox="0 0 48 48" fill="none" xmlns="http://www.w3.org/2000/svg">
<g clip-path="url(#clip0_3213_21050)">
<path d="M24 0C10.7438 0 0 10.7438 0 24C0 34.1719 6.32812 42.8531 15.2531 46.35C15.0469 44.4469 14.85 41.5406 15.3375 39.4688C15.7781 37.5938 18.15 27.5437 18.15 27.5437C18.15 27.5437 17.4281 26.1094 17.4281 23.9813C17.4281 20.6438 19.3594 18.15 21.7687 18.15C23.8125 18.15 24.8063 19.6875 24.8063 21.5344C24.8063 23.5969 23.4937 26.6719 22.8187 29.5219C22.2562 31.9125 24.0187 33.8625 26.3719 33.8625C30.6375 33.8625 33.9187 29.3625 33.9187 22.875C33.9187 17.1281 29.7937 13.1063 23.8969 13.1063C17.0719 13.1063 13.0594 18.225 13.0594 23.5219C13.0594 25.5844 13.8562 27.7969 14.85 28.9969C15.0469 29.2312 15.075 29.4469 15.0187 29.6813C14.8406 30.4406 14.4281 32.0719 14.3531 32.4C14.25 32.8406 14.0063 32.9344 13.5469 32.7188C10.5469 31.3219 8.67188 26.9438 8.67188 23.4188C8.67188 15.8438 14.175 8.89688 24.525 8.89688C32.85 8.89688 39.3187 14.8313 39.3187 22.7625C39.3187 31.0312 34.1063 37.6875 26.8688 37.6875C24.4406 37.6875 22.1531 36.4219 21.3656 34.9313C21.3656 34.9313 20.1656 39.5156 19.875 40.6406C19.3312 42.7219 17.8687 45.3375 16.8937 46.9313C19.1437 47.625 21.525 48 24 48C37.2562 48 48 37.2562 48 24C48 10.7438 37.2562 0 24 0Z" fill="white"/>
</g>
<defs>
<clipPath id="clip0_3213_21050">
<rect width="48" height="48" fill="white"/>
</clipPath>
</defs>
</svg>
