<svg width="48" height="48" viewBox="0 0 48 48" fill="none" xmlns="http://www.w3.org/2000/svg">
<path d="M24 46C36.1503 46 46 36.1503 46 24C46 11.8497 36.1503 2 24 2C11.8497 2 2 11.8497 2 24C2 36.1503 11.8497 46 24 46Z" fill="#FF4500"/>
<path d="M38.6667 24C38.6667 22.2246 37.2257 20.7836 35.4503 20.7836C34.5754 20.7836 33.8035 21.1181 33.2374 21.6842C31.0503 20.1146 28.014 19.0854 24.669 18.9567L26.1357 12.0865L30.8959 13.0901C30.9474 14.2994 31.9509 15.2772 33.186 15.2772C34.4468 15.2772 35.476 14.248 35.476 12.9871C35.476 11.7263 34.4468 10.6971 33.186 10.6971C32.2854 10.6971 31.5134 11.2117 31.1532 11.9836L25.8269 10.8515C25.6725 10.8257 25.5181 10.8515 25.3895 10.9287C25.2608 11.0058 25.1836 11.1345 25.1322 11.2889L23.5111 18.9567C20.0889 19.0596 17.0269 20.0632 14.814 21.6842C14.2479 21.1439 13.4503 20.7836 12.6012 20.7836C10.8257 20.7836 9.38478 22.2246 9.38478 24C9.38478 25.3123 10.1567 26.4187 11.2889 26.9333C11.2374 27.2421 11.2117 27.5766 11.2117 27.9111C11.2117 32.8515 16.9497 36.8398 24.0515 36.8398C31.1532 36.8398 36.8912 32.8515 36.8912 27.9111C36.8912 27.5766 36.8655 27.2678 36.814 26.9591C37.869 26.4444 38.6667 25.3123 38.6667 24ZM16.6667 26.2901C16.6667 25.0292 17.6959 24 18.9567 24C20.2175 24 21.2468 25.0292 21.2468 26.2901C21.2468 27.5509 20.2175 28.5801 18.9567 28.5801C17.6959 28.5801 16.6667 27.5509 16.6667 26.2901ZM29.455 32.3368C27.8854 33.9064 24.9006 34.0094 24.0257 34.0094C23.1509 34.0094 20.1403 33.8807 18.5965 32.3368C18.3649 32.1053 18.3649 31.7193 18.5965 31.4877C18.8281 31.2561 19.214 31.2561 19.4456 31.4877C20.4234 32.4655 22.5333 32.8257 24.0515 32.8257C25.5696 32.8257 27.6538 32.4655 28.6573 31.4877C28.8889 31.2561 29.2748 31.2561 29.5064 31.4877C29.6865 31.745 29.6865 32.1053 29.455 32.3368ZM29.0433 28.5801C27.7824 28.5801 26.7532 27.5509 26.7532 26.2901C26.7532 25.0292 27.7824 24 29.0433 24C30.3041 24 31.3333 25.0292 31.3333 26.2901C31.3333 27.5509 30.3041 28.5801 29.0433 28.5801Z" fill="white"/>
</svg>
