<svg width="48" height="48" viewBox="0 0 48 48" fill="none" xmlns="http://www.w3.org/2000/svg">
<path d="M18.7184 2.64226L19.2122 4.6424C17.266 5.12339 15.4033 5.89458 13.6868 6.93006L12.6304 5.16119C14.5199 4.01695 16.5728 3.16754 18.7184 2.64226ZM29.2816 2.64226L28.7878 4.6424C30.734 5.12339 32.5967 5.89458 34.3132 6.93006L35.3821 5.16119C33.4876 4.01795 31.4308 3.16865 29.2816 2.64226ZM5.16116 12.6242C4.01799 14.5165 3.16867 16.5713 2.64223 18.7184L4.64237 19.2122C5.12336 17.266 5.89455 15.4034 6.93003 13.6868L5.16116 12.6242ZM4.06108 24C4.06093 22.9999 4.13615 22.0012 4.2861 21.0123L2.24845 20.6998C1.91718 22.8854 1.91718 25.1084 2.24845 27.294L4.2861 26.9877C4.13638 25.9989 4.06117 25.0002 4.06108 24ZM35.3696 42.8326L34.3132 41.07C32.5994 42.1064 30.7386 42.8777 28.7941 43.3577L29.2879 45.3578C31.4308 44.8275 33.4812 43.9761 35.3696 42.8326ZM43.9389 24C43.9388 25.0002 43.8636 25.9989 43.7139 26.9877L45.7515 27.294C46.0828 25.1084 46.0828 22.8854 45.7515 20.6998L43.7139 21.0123C43.8639 22.0012 43.9391 22.9999 43.9389 24ZM45.3578 29.2754L43.3576 28.7816C42.8778 30.7301 42.1065 32.595 41.07 34.3133L42.8388 35.3758C43.9831 33.4819 44.8325 31.4249 45.3578 29.2754ZM26.9877 43.7139C25.0072 44.014 22.9928 44.014 21.0123 43.7139L20.706 45.7516C22.8895 46.0829 25.1105 46.0829 27.294 45.7516L26.9877 43.7139ZM40.0511 35.8259C38.8631 37.4369 37.4386 38.8593 35.8258 40.0449L37.0509 41.7075C38.8273 40.3998 40.3989 38.8346 41.7138 37.0635L40.0511 35.8259ZM35.8258 7.94888C37.4388 9.13679 38.8632 10.5613 40.0511 12.1742L41.7138 10.9366C40.4035 9.16386 38.8362 7.5965 37.0634 6.28627L35.8258 7.94888ZM7.94886 12.1742C9.13676 10.5613 10.5612 9.13679 12.1742 7.94888L10.9366 6.28627C9.16383 7.5965 7.59647 9.16386 6.28624 10.9366L7.94886 12.1742ZM42.8388 12.6242L41.07 13.6868C42.1064 15.4007 42.8777 17.2614 43.3576 19.2059L45.3578 18.7122C44.8313 16.567 43.982 14.5143 42.8388 12.6242ZM21.0123 4.28612C22.9928 3.98607 25.0072 3.98607 26.9877 4.28612L27.294 2.24848C25.1105 1.91717 22.8895 1.91717 20.706 2.24848L21.0123 4.28612ZM9.00518 42.2576L4.74863 43.2451L5.74245 38.9886L3.73606 38.5198L2.74224 42.7764C2.68005 43.0403 2.67051 43.3138 2.71415 43.5814C2.7578 43.849 2.85377 44.1054 2.99658 44.3359C3.13939 44.5663 3.32624 44.7664 3.54643 44.9246C3.76663 45.0828 4.01585 45.196 4.27985 45.2578C4.58859 45.3265 4.90867 45.3265 5.21741 45.2578L9.47397 44.2765L9.00518 42.2576ZM4.16109 36.6822L6.17373 37.1447L6.86128 34.1945C5.85723 32.5103 5.1094 30.686 4.64237 28.7816L2.64223 29.2754C3.09213 31.0983 3.77266 32.8563 4.66737 34.507L4.16109 36.6822ZM13.7868 41.145L10.8366 41.8325L11.3053 43.8452L13.4743 43.3389C15.1237 44.2363 16.8821 44.917 18.7059 45.364L19.1997 43.3639C17.3012 42.8908 15.4834 42.1388 13.8055 41.1325L13.7868 41.145ZM24 6.12375C14.1243 6.13 6.12998 14.1368 6.12998 24.0063C6.13542 27.3678 7.08627 30.6601 8.87392 33.507L7.15505 40.845L14.4868 39.1261C22.8437 44.3827 33.882 41.8763 39.1386 33.5257C44.3952 25.1751 41.895 14.1368 33.5444 8.87395C30.6856 7.0762 27.3771 6.12284 24 6.12375Z" fill="#3A76F0"/>
</svg>
