<svg width="48" height="48" viewBox="0 0 48 48" fill="none" xmlns="http://www.w3.org/2000/svg">
<path d="M18.2382 0.700643L18.7769 2.88262C16.6538 3.40733 14.6218 4.24863 12.7492 5.37825L11.5968 3.44857C13.6581 2.20031 15.8976 1.27368 18.2382 0.700643ZM29.7618 0.700643L29.2231 2.88262C31.3462 3.40733 33.3782 4.24863 35.2508 5.37825L36.4168 3.44857C34.3501 2.2014 32.1063 1.27489 29.7618 0.700643ZM3.44854 11.5901C2.20144 13.6543 1.27491 15.8959 0.700615 18.2383L2.88259 18.7769C3.4073 16.6539 4.2486 14.6219 5.37822 12.7492L3.44854 11.5901ZM2.24845 24C2.24829 22.909 2.33034 21.8194 2.49392 20.7407L0.271038 20.3998C-0.0903461 22.7841 -0.0903461 25.2092 0.271038 27.5935L2.49392 27.2593C2.3306 26.1806 2.24854 25.0911 2.24845 24ZM36.4032 44.5447L35.2508 42.6218C33.3811 43.7525 31.3512 44.5939 29.2299 45.1174L29.7686 47.2994C32.1063 46.7209 34.3432 45.7921 36.4032 44.5447ZM45.7515 24C45.7515 25.0911 45.6694 26.1806 45.5061 27.2593L47.729 27.5935C48.0903 25.2092 48.0903 22.7841 47.729 20.3998L45.5061 20.7407C45.6697 21.8194 45.7517 22.909 45.7515 24ZM47.2994 29.755L45.1174 29.2163C44.5939 31.3419 43.7526 33.3764 42.6218 35.2508L44.5515 36.41C45.7998 34.3439 46.7263 32.0999 47.2994 29.755ZM27.2593 45.5061C25.0988 45.8334 22.9012 45.8334 20.7407 45.5061L20.4066 47.729C22.7886 48.0904 25.2114 48.0904 27.5934 47.729L27.2593 45.5061ZM41.5103 36.9009C40.2143 38.6584 38.6603 40.2101 36.9009 41.5035L38.2374 43.3173C40.1753 41.8907 41.8897 40.1832 43.3241 38.251L41.5103 36.9009ZM36.9009 6.48969C38.6605 7.78559 40.2144 9.33955 41.5103 11.0991L43.3241 9.74901C41.8948 7.81512 40.1849 6.10527 38.251 4.67593L36.9009 6.48969ZM6.48966 11.0991C7.78556 9.33955 9.33952 7.78559 11.0991 6.48969L9.74899 4.67593C7.81509 6.10527 6.10524 7.81512 4.6759 9.74901L6.48966 11.0991ZM44.5515 11.5901L42.6218 12.7492C43.7524 14.6189 44.5938 16.6488 45.1174 18.7701L47.2994 18.2314C46.725 15.8913 45.7985 13.6519 44.5515 11.5901ZM20.7407 2.49395C22.9012 2.16662 25.0988 2.16662 27.2593 2.49395L27.5934 0.271067C25.2114 -0.0903557 22.7886 -0.0903557 20.4066 0.271067L20.7407 2.49395ZM7.64202 43.9174L2.99851 44.9947L4.08267 40.3512L1.89388 39.8398L0.809713 44.4833C0.741878 44.7712 0.731468 45.0696 0.779078 45.3616C0.826688 45.6535 0.931384 45.9332 1.08718 46.1846C1.24297 46.436 1.4468 46.6542 1.68702 46.8268C1.92723 46.9994 2.19911 47.1229 2.48711 47.1903C2.82391 47.2653 3.1731 47.2653 3.50991 47.1903L8.15342 46.1198L7.64202 43.9174ZM2.35755 37.8351L4.55316 38.3397L5.30321 35.1213C4.20789 33.2839 3.39208 31.2938 2.88259 29.2163L0.700615 29.755C1.19141 31.7436 1.93381 33.6615 2.90986 35.4622L2.35755 37.8351ZM12.8583 42.7036L9.63989 43.4537L10.1513 45.6493L12.5174 45.097C14.3168 46.076 16.235 46.8185 18.2246 47.3062L18.7633 45.1243C16.6922 44.6081 14.7092 43.7878 12.8788 42.69L12.8583 42.7036ZM24 4.49864C13.2265 4.50546 4.50543 13.2402 4.50543 24.0068C4.51136 27.674 5.54866 31.2656 7.49883 34.3712L5.62369 42.3763L13.622 40.5012C22.7385 46.2357 34.7803 43.5014 40.5148 34.3917C46.2493 25.2819 43.5218 13.2402 34.4121 7.49885C31.2934 5.53767 27.6841 4.49764 24 4.49864Z" fill="white"/>
</svg>
