<svg width="48" height="48" viewBox="0 0 48 48" fill="none" xmlns="http://www.w3.org/2000/svg">
<path d="M47.8265 34.9153C47.4955 34.0083 46.8582 33.518 46.135 33.1258C46.0001 33.0522 45.8776 32.9787 45.7673 32.9297C45.5466 32.8194 45.326 32.709 45.1054 32.5987C42.8501 31.3975 41.085 29.9021 39.8716 28.1126C39.5284 27.6101 39.2219 27.0707 38.9768 26.5192C38.8665 26.225 38.8787 26.0534 38.9523 25.8941C39.0258 25.7715 39.1239 25.6734 39.2464 25.5876C39.6387 25.3302 40.0309 25.0728 40.3006 24.9012C40.7786 24.5825 41.1708 24.3374 41.416 24.1658C42.3353 23.5162 42.9849 22.8298 43.3894 22.0576C43.9655 20.9789 44.039 19.7164 43.5977 18.5765C42.9849 16.9586 41.465 15.9657 39.6142 15.9657C39.2219 15.9657 38.842 16.0025 38.4497 16.0883C38.3517 16.1128 38.2414 16.1373 38.1433 16.1619C38.1556 15.0587 38.131 13.8943 38.033 12.7421C37.6898 8.70949 36.2679 6.60126 34.7971 4.92202C33.8533 3.86791 32.7501 2.97313 31.5122 2.27447C29.2814 0.999728 26.7441 0.350098 23.9863 0.350098C21.2284 0.350098 18.7034 0.999728 16.4726 2.27447C15.2346 2.97313 14.1315 3.86791 13.1877 4.92202C11.7168 6.60126 10.3073 8.72175 9.95179 12.7421C9.85373 13.8943 9.82922 15.0587 9.84148 16.1619C9.74342 16.1373 9.64536 16.1128 9.53505 16.0883C9.15507 16.0025 8.76285 15.9657 8.38287 15.9657C6.53204 15.9657 5.01215 16.9708 4.39929 18.5765C3.95803 19.7164 4.03157 20.9789 4.60766 22.0576C5.01215 22.8298 5.66178 23.5162 6.58107 24.1658C6.82621 24.3374 7.20618 24.5825 7.69647 24.9012C7.95387 25.0728 8.33384 25.318 8.71382 25.5631C8.84864 25.6489 8.95896 25.7592 9.04476 25.8941C9.1183 26.0534 9.13056 26.225 9.00799 26.5437C8.76284 27.083 8.46867 27.6101 8.12547 28.1003C6.93653 29.8409 5.22052 31.324 3.03874 32.5129C1.88657 33.1258 0.685365 33.5303 0.170564 34.9153C-0.209408 35.9572 0.035735 37.1339 1.00405 38.139C1.35951 38.5067 1.77625 38.8254 2.22977 39.0705C3.17357 39.5853 4.17866 39.9898 5.23278 40.2717C5.45341 40.333 5.64952 40.4188 5.83338 40.5414C6.18884 40.8478 6.13981 41.3136 6.60558 42C6.83847 42.3554 7.1449 42.6619 7.4881 42.907C8.48093 43.5934 9.59633 43.6302 10.773 43.6792C11.8394 43.716 13.0406 43.765 14.4257 44.2185C15.0017 44.4024 15.5901 44.7701 16.2765 45.1991C17.9312 46.2165 20.1865 47.6015 23.974 47.6015C27.7615 47.6015 30.029 46.2042 31.696 45.1869C32.3824 44.7701 32.9708 44.4024 33.5223 44.2185C34.8951 43.765 36.1086 43.716 37.175 43.6792C38.3517 43.6302 39.4671 43.5934 40.4599 42.907C40.8767 42.6128 41.2198 42.2451 41.465 41.8039C41.8082 41.2278 41.7959 40.8233 42.1146 40.5414C42.2862 40.4188 42.4823 40.333 42.6785 40.284C43.7326 40.0021 44.7622 39.5976 45.7182 39.0705C46.1963 38.8131 46.6375 38.4699 47.0052 38.0654L47.0175 38.0532C47.9736 37.0726 48.2064 35.9204 47.8265 34.9153ZM44.468 36.7171C42.4211 37.8448 41.0483 37.7222 39.9941 38.4086C39.0871 38.9847 39.6264 40.235 38.9768 40.6885C38.1678 41.24 35.7899 40.6517 32.7256 41.669C30.1884 42.5025 28.5827 44.9172 24.023 44.9172C19.4634 44.9172 17.8944 42.5148 15.3204 41.669C12.2561 40.6517 9.87825 41.2523 9.06927 40.6885C8.41964 40.235 8.9467 38.9847 8.05193 38.4086C6.98556 37.7222 5.62501 37.8448 3.57806 36.7171C2.26654 35.994 3.01423 35.5527 3.44323 35.3443C10.8711 31.753 12.06 26.2005 12.1091 25.7837C12.1703 25.2812 12.2439 24.889 11.6923 24.3864C11.1653 23.8961 8.81187 22.4375 8.14999 21.984C7.07135 21.2241 6.59333 20.4764 6.94878 19.5448C7.19393 18.9075 7.79453 18.6623 8.41964 18.6623C8.61576 18.6623 8.81187 18.6868 9.00799 18.7236C10.1969 18.981 11.3491 19.5694 12.011 19.741C12.0968 19.7655 12.1703 19.7777 12.2561 19.7777C12.6116 19.7777 12.7342 19.5939 12.7097 19.1894C12.6361 17.8901 12.4523 15.3651 12.6606 12.9995C12.9425 9.75135 13.9844 8.1334 15.2346 6.71157C15.8352 6.02517 18.6421 3.05893 24.023 3.05893C29.4039 3.05893 32.2108 6.01291 32.8114 6.69932C34.0617 8.12115 35.1035 9.73909 35.3854 12.9872C35.5938 15.3529 35.4099 17.8779 35.3241 19.1771C35.2996 19.6061 35.4222 19.7655 35.7777 19.7655C35.8635 19.7655 35.937 19.7532 36.0228 19.7287C36.6847 19.5693 37.8369 18.9688 39.0258 18.7113C39.2219 18.6623 39.418 18.6501 39.6142 18.6501C40.2393 18.6501 40.8399 18.8952 41.085 19.5326C41.4405 20.4641 40.9625 21.2118 39.8838 21.9718C39.2342 22.4253 36.8808 23.8839 36.3415 24.3742C35.7899 24.8767 35.8635 25.2689 35.9248 25.7715C35.9738 26.1882 37.1627 31.7407 44.5906 35.3321C45.0318 35.5405 45.7673 35.994 44.468 36.7171Z" fill="white"/>
</svg>
