<svg width="48" height="48" viewBox="0 0 48 48" fill="none" xmlns="http://www.w3.org/2000/svg">
<path d="M42.8782 34.092C36.0645 30.7926 34.9785 25.6985 34.9302 25.3207C34.8718 24.863 34.8054 24.5032 35.3102 24.0376C35.797 23.5878 37.9565 22.2508 38.5557 21.8324C39.5461 21.1397 39.9823 20.4482 39.6608 19.598C39.4359 19.0099 38.8885 18.7884 38.3118 18.7884C38.1298 18.7889 37.9485 18.8093 37.771 18.8491C36.6828 19.0852 35.6261 19.6306 35.0145 19.7779C34.941 19.7969 34.8656 19.8071 34.7897 19.8083C34.4637 19.8083 34.34 19.6632 34.3715 19.2708C34.4479 18.081 34.6098 15.7589 34.4221 13.5897C34.1646 10.6052 33.2023 9.12647 32.0613 7.81865C31.5093 7.18442 28.9462 4.45971 23.9998 4.45971C19.0533 4.45971 16.4936 7.18442 15.945 7.81078C14.8005 9.1186 13.8394 10.5973 13.5842 13.5818C13.3964 15.751 13.5651 18.072 13.6348 19.2629C13.6573 19.6362 13.5426 19.8004 13.2166 19.8004C13.1407 19.7991 13.0652 19.7889 12.9917 19.7701C12.3813 19.6228 11.3246 19.0774 10.2364 18.8412C10.0588 18.8014 9.87754 18.781 9.69562 18.7805C9.11667 18.7805 8.57144 19.0054 8.3466 19.5901C8.02508 20.4403 8.45902 21.1319 9.4528 21.8246C10.052 22.2429 12.2116 23.5788 12.6983 24.0297C13.202 24.4953 13.1368 24.8552 13.0783 25.3128C13.03 25.6963 11.9429 30.7904 5.13031 34.0841C4.73122 34.2775 4.05221 34.6868 5.24947 35.3481C7.12911 36.3871 8.38033 36.2758 9.35275 36.9021C10.1779 37.434 9.69 38.5811 10.2903 38.9949C11.0278 39.5043 13.2076 38.9589 16.0237 39.8889C18.3845 40.667 19.8189 42.8655 24.0054 42.8655C28.1918 42.8655 29.6679 40.6569 31.9871 39.8889C34.7976 38.9589 36.9818 39.5043 37.7204 38.9949C38.3196 38.5811 37.8329 37.434 38.658 36.9021C39.6304 36.2758 40.8805 36.3871 42.7613 35.3481C43.9563 34.6947 43.2773 34.2854 42.8782 34.092Z" fill="white"/>
<path d="M45.8427 33.7048C45.5369 32.8726 44.9546 32.4273 44.2913 32.0585C44.1665 31.9854 44.0519 31.9269 43.9541 31.8819C43.7562 31.7796 43.5539 31.6806 43.3526 31.576C41.2853 30.4796 39.6709 29.0965 38.5512 27.4569C38.2333 26.9953 37.9575 26.5061 37.7272 25.995C37.6316 25.7218 37.6361 25.5666 37.7047 25.4249C37.7727 25.3157 37.8627 25.2219 37.9689 25.1494C38.3242 24.9144 38.6906 24.676 38.9391 24.5152C39.382 24.2284 39.7328 24.0013 39.9587 23.8405C40.8075 23.2467 41.401 22.6158 41.772 21.9108C42.0309 21.4236 42.1818 20.8865 42.2146 20.3358C42.2474 19.7851 42.1612 19.2338 41.962 18.7194C41.3999 17.2395 40.0026 16.3208 38.3095 16.3208C37.9524 16.3204 37.5963 16.3581 37.2472 16.4332C37.1539 16.4535 37.0606 16.4748 36.9695 16.4985C36.9852 15.4864 36.9628 14.4181 36.8728 13.3667C36.5536 9.67036 35.2596 7.73281 33.9106 6.18772C33.0467 5.2195 32.0292 4.40036 30.8989 3.76325C28.8518 2.59375 26.5303 2 23.9998 2C21.4692 2 19.159 2.59375 17.1096 3.76325C15.9766 4.40055 14.957 5.22133 14.0923 6.19221C12.7433 7.73731 11.4494 9.67823 11.1301 13.3712C11.0402 14.4226 11.0177 15.4965 11.0323 16.503C10.9412 16.4793 10.8491 16.458 10.7558 16.4377C10.4066 16.3626 10.0505 16.3249 9.6934 16.3253C7.99925 16.3253 6.59964 17.244 6.0398 18.7239C5.83969 19.2385 5.75268 19.7902 5.78468 20.3415C5.81669 20.8927 5.96696 21.4306 6.22529 21.9186C6.59739 22.6237 7.19096 23.2546 8.03972 23.8483C8.26456 24.0058 8.61643 24.2329 9.05936 24.523C9.29881 24.6782 9.64843 24.9054 9.99131 25.1325C10.1113 25.2101 10.2132 25.3125 10.2903 25.4328C10.3623 25.5801 10.3645 25.7386 10.2577 26.031C10.0306 26.5313 9.75933 27.0104 9.4472 27.4625C8.35225 29.065 6.78513 30.4234 4.78408 31.5108C3.72398 32.0731 2.62227 32.4487 2.15686 33.7137C1.80612 34.6685 2.03545 35.7548 2.92693 36.6701C3.25411 37.0118 3.63359 37.2991 4.05111 37.5214C4.91987 37.999 5.84367 38.3687 6.80199 38.6223C6.99976 38.6733 7.18751 38.7573 7.35734 38.8708C7.68223 39.1553 7.63614 39.5837 8.06895 40.2112C8.28621 40.5355 8.56228 40.8163 8.88286 41.0389C9.7912 41.6664 10.812 41.7057 11.8934 41.7473C12.8703 41.7844 13.9777 41.8272 15.2424 42.2444C15.7662 42.4175 16.3104 42.7527 16.941 43.144C18.4553 44.0751 20.5283 45.3492 23.9975 45.3492C27.4668 45.3492 29.5544 44.0683 31.0799 43.1339C31.7061 42.7493 32.2468 42.4175 32.7561 42.2489C34.0208 41.8305 35.1281 41.7889 36.105 41.7518C37.1865 41.7102 38.2072 41.6709 39.1156 41.0434C39.4952 40.7785 39.8116 40.4329 40.0419 40.0313C40.3533 39.5017 40.3454 39.1317 40.6377 38.8731C40.7971 38.765 40.9734 38.6844 41.1593 38.6347C42.1308 38.3802 43.0671 38.0071 43.9473 37.5236C44.3909 37.2856 44.7902 36.9729 45.1277 36.5993L45.139 36.5858C45.9754 35.6907 46.1856 34.6359 45.8427 33.7048ZM42.7591 35.3623C40.8783 36.4014 39.6282 36.29 38.6558 36.9164C37.8295 37.4483 38.3185 38.5953 37.7182 39.0091C36.9807 39.5185 34.801 38.9731 31.9849 39.9031C29.6623 40.6712 28.1806 42.8797 24.0032 42.8797C19.8257 42.8797 18.3789 40.6757 16.0181 39.8975C13.2076 38.9675 11.0233 39.5129 10.2847 39.0035C9.68553 38.5897 10.1723 37.4427 9.34715 36.9108C8.37361 36.2844 7.12351 36.3957 5.24387 35.3623C4.04662 34.7011 4.72562 34.2918 5.12471 34.0983C11.9373 30.799 13.0244 25.7049 13.0727 25.3271C13.1312 24.8694 13.1964 24.5095 12.6927 24.044C12.206 23.5942 10.0464 22.2571 9.4472 21.8388C8.45567 21.1461 8.01949 20.4545 8.341 19.6044C8.56584 19.0163 9.11444 18.7947 9.69003 18.7947C9.87194 18.7953 10.0533 18.8156 10.2308 18.8554C11.319 19.0916 12.3757 19.637 12.9861 19.7843C13.0596 19.8032 13.1351 19.8134 13.211 19.8147C13.537 19.8147 13.6517 19.6505 13.6292 19.2771C13.5595 18.0863 13.3908 15.7653 13.5786 13.5961C13.836 10.6116 14.7972 9.13284 15.9394 7.82502C16.488 7.19641 19.0657 4.4717 23.9953 4.4717C28.9248 4.4717 31.5093 7.18517 32.0579 7.81153C33.2012 9.11934 34.1635 10.5981 34.4187 13.5826C34.6065 15.7518 34.4446 18.0739 34.3681 19.2636C34.3423 19.6561 34.4603 19.8012 34.7863 19.8012C34.8622 19.8 34.9377 19.7898 35.0112 19.7708C35.6227 19.6235 36.6795 19.0781 37.7677 18.842C37.9452 18.8021 38.1265 18.7818 38.3084 18.7812C38.8874 18.7812 39.4326 19.0061 39.6574 19.5909C39.979 20.441 39.545 21.1326 38.5524 21.8253C37.9532 22.2436 35.7936 23.5796 35.3068 24.0305C34.8021 24.496 34.8684 24.8559 34.9269 25.3136C34.9752 25.697 36.0612 30.7911 42.8749 34.0848C43.2773 34.2861 43.9563 34.6955 42.7591 35.3623Z" fill="#111928"/>
</svg>
