<svg width="48" height="48" viewBox="0 0 48 48" fill="none" xmlns="http://www.w3.org/2000/svg">
<path d="M24 2C11.85 2 2 11.849 2 24C2 36.151 11.85 46 24 46C36.15 46 46 36.151 46 24C46 11.849 36.15 2 24 2ZM34.7333 33.7143C34.38 34.34 33.73 34.692 33.06 34.692C32.7467 34.692 32.4233 34.6137 32.1267 34.4487C29.38 32.9087 26.3867 31.9653 23.2233 31.645C20.0533 31.3273 16.9233 31.649 13.9167 32.609C12.9133 32.9293 11.8333 32.375 11.5133 31.37C11.19 30.3633 11.7467 29.287 12.7533 28.965C16.26 27.8447 19.9167 27.4637 23.61 27.839C27.2967 28.2143 30.79 29.3143 33.9967 31.1117C34.92 31.6257 35.25 32.7917 34.7333 33.7143ZM37.3667 27.032C37.0267 27.6863 36.36 28.0617 35.67 28.0617C35.37 28.0617 35.07 27.993 34.7867 27.8447C31.41 26.086 27.7633 24.997 23.94 24.609C20.0866 24.2147 16.27 24.5583 12.59 25.6197C11.5733 25.9083 10.5133 25.327 10.2233 24.3107C9.93002 23.296 10.5167 22.236 11.53 21.943C15.6833 20.7453 19.99 20.3617 24.3267 20.8017C28.6333 21.2403 32.7467 22.467 36.5567 24.4523C37.49 24.9407 37.8567 26.0953 37.3667 27.032ZM38.32 21.4727C38.0333 21.4727 37.7433 21.408 37.4667 21.272C33.46 19.274 29.15 18.0297 24.6533 17.5733C20.15 17.1127 15.67 17.4687 11.3333 18.6267C10.3133 18.8973 9.26666 18.2923 8.99333 17.2707C8.71999 16.2503 9.32668 15.2013 10.35 14.929C15.1334 13.6517 20.08 13.2627 25.0433 13.7673C30 14.269 34.7533 15.6427 39.1733 17.847C40.12 18.3183 40.5033 19.468 40.0333 20.4127C39.7 21.085 39.0233 21.4727 38.32 21.4727Z" fill="#1ED760"/>
</svg>
