<svg width="48" height="48" viewBox="0 0 48 48" fill="none" xmlns="http://www.w3.org/2000/svg">
<path d="M24 0C10.7455 0 0 10.7444 0 24C0 37.2556 10.7455 48 24 48C37.2545 48 48 37.2556 48 24C48 10.7444 37.2545 0 24 0ZM35.7091 34.5975C35.3236 35.28 34.6146 35.664 33.8837 35.664C33.5418 35.664 33.1891 35.5785 32.8655 35.3985C29.8691 33.7185 26.6037 32.6895 23.1527 32.34C19.6946 31.9935 16.28 32.3444 13 33.3916C11.9055 33.7411 10.7273 33.1364 10.3782 32.04C10.0255 30.9418 10.6327 29.7676 11.7309 29.4164C15.5564 28.1942 19.5454 27.7785 23.5745 28.188C27.5963 28.5975 31.4073 29.7975 34.9055 31.7582C35.9127 32.3189 36.2727 33.5909 35.7091 34.5975ZM38.5818 27.3076C38.2109 28.0215 37.4836 28.4309 36.7309 28.4309C36.4036 28.4309 36.0764 28.356 35.7673 28.1942C32.0836 26.2756 28.1054 25.0876 23.9345 24.6644C19.7309 24.2342 15.5673 24.6091 11.5527 25.7669C10.4436 26.0818 9.28729 25.4476 8.97093 24.3389C8.65093 23.232 9.2909 22.0756 10.3964 21.756C14.9273 20.4495 19.6254 20.0309 24.3564 20.5109C29.0545 20.9895 33.5418 22.3276 37.6982 24.4935C38.7164 25.0262 39.1164 26.2858 38.5818 27.3076ZM39.6218 21.2429C39.3091 21.2429 38.9927 21.1724 38.6909 21.024C34.32 18.8444 29.6182 17.4869 24.7127 16.9891C19.8 16.4865 14.9127 16.8749 10.1818 18.1382C9.06909 18.4335 7.92727 17.7735 7.62908 16.6589C7.3309 15.5458 7.99275 14.4015 9.10911 14.1044C14.3273 12.7109 19.7236 12.2865 25.1382 12.8371C30.5455 13.3844 35.7309 14.8829 40.5527 17.2876C41.5855 17.8018 42.0036 19.056 41.4909 20.0865C41.1273 20.82 40.3891 21.2429 39.6218 21.2429Z" fill="white"/>
</svg>
