<svg width="48" height="48" viewBox="0 0 48 48" fill="none" xmlns="http://www.w3.org/2000/svg">
<path d="M24 46C36.1503 46 46 36.1503 46 24C46 11.8497 36.1503 2 24 2C11.8497 2 2 11.8497 2 24C2 36.1503 11.8497 46 24 46Z" fill="url(#paint0_linear_3213_21017)"/>
<path fill-rule="evenodd" clip-rule="evenodd" d="M11.9585 23.7678C18.3719 20.9735 22.6485 19.1314 24.7884 18.2414C30.898 15.7002 32.1675 15.2587 32.995 15.2442C33.177 15.2409 33.5839 15.2861 33.8475 15.4999C34.0701 15.6805 34.1313 15.9245 34.1606 16.0957C34.1899 16.2669 34.2264 16.657 34.1974 16.9618C33.8663 20.4405 32.4337 28.8824 31.7049 32.7786C31.3965 34.4273 30.7893 34.9801 30.2014 35.0342C28.9238 35.1517 27.9537 34.1898 26.7163 33.3787C24.78 32.1095 23.6861 31.3193 21.8066 30.0808C19.6345 28.6494 21.0426 27.8627 22.2805 26.577C22.6044 26.2405 28.2335 21.1205 28.3424 20.656C28.356 20.5979 28.3687 20.3814 28.24 20.2671C28.1114 20.1527 27.9216 20.1918 27.7845 20.2229C27.5903 20.267 24.4971 22.3115 18.5048 26.3565C17.6268 26.9594 16.8315 27.2531 16.119 27.2377C15.3335 27.2208 13.8225 26.7936 12.6992 26.4284C11.3214 25.9806 10.2264 25.7438 10.3218 24.9832C10.3715 24.5871 10.917 24.1819 11.9585 23.7678Z" fill="white"/>
<defs>
<linearGradient id="paint0_linear_3213_21017" x1="24" y1="2" x2="24" y2="45.6737" gradientUnits="userSpaceOnUse">
<stop stop-color="#2AABEE"/>
<stop offset="1" stop-color="#229ED9"/>
</linearGradient>
</defs>
</svg>
