<svg width="48" height="48" viewBox="0 0 48 48" fill="none" xmlns="http://www.w3.org/2000/svg">
<path d="M32.6802 18.7446C35.3069 20.6289 38.5246 21.7376 42 21.7376V15.0261C41.3423 15.0262 40.6862 14.9574 40.0428 14.8206V20.1035C36.5677 20.1035 33.3503 18.9948 30.723 17.1106V30.8068C30.723 37.6583 25.1885 43.2121 18.3617 43.2121C15.8145 43.2121 13.447 42.4393 11.4802 41.1139C13.7249 43.4172 16.8553 44.8461 20.3185 44.8461C27.1457 44.8461 32.6805 39.2922 32.6805 32.4404L32.6802 18.7446ZM35.0946 11.9735C33.7523 10.5017 32.8709 8.59976 32.6802 6.49704V5.6338H30.8254C31.2923 8.30636 32.8847 10.5896 35.0946 11.9735ZM15.7982 35.8562C15.0482 34.8694 14.6429 33.6621 14.6447 32.4208C14.6447 29.2872 17.1761 26.7464 20.2993 26.7464C20.8813 26.7463 21.4599 26.8357 22.0145 27.0123V20.1509C21.3663 20.0617 20.7121 20.0239 20.0581 20.0377V25.3784C19.503 25.2017 18.9242 25.112 18.342 25.1126C15.2189 25.1126 12.6876 27.6531 12.6876 30.7871C12.6876 33.0031 13.9529 34.9216 15.7982 35.8562Z" fill="#FF004F"/>
<path d="M30.723 17.1106C33.3503 18.9948 36.5677 20.1035 40.0428 20.1035V14.8206C38.103 14.4059 36.3858 13.3885 35.0946 11.9735C32.8847 10.5896 31.2923 8.30636 30.8254 5.6338H25.9535V32.4402C25.9424 35.5652 23.4153 38.0956 20.2989 38.0956C18.4624 38.0956 16.8314 37.2171 15.7982 35.8562C13.9529 34.9216 12.6876 33.0031 12.6876 30.7871C12.6876 27.6531 15.2189 25.1126 18.342 25.1126C18.9404 25.1126 19.5171 25.2061 20.0581 25.3784V20.0377C13.3513 20.1768 7.95704 25.6765 7.95704 32.4403C7.95704 35.8167 9.3002 38.8774 11.4802 41.1139C13.447 42.4393 15.8145 43.2121 18.3617 43.2121C25.1885 43.2121 30.723 37.6583 30.723 30.8068V17.1106Z" fill="#111928"/>
<path d="M40.0428 14.8206L40.0427 13.392C38.2935 13.3947 36.5787 12.9032 35.0946 11.9735C36.4084 13.417 38.1383 14.4123 40.0428 14.8206ZM30.8254 5.6338C30.7809 5.37839 30.7467 5.12131 30.7229 4.86324V4H23.9961V30.8066C23.9854 33.9313 21.4584 36.4617 18.3417 36.4617C17.4267 36.4617 16.5632 36.2436 15.7982 35.8562C16.8314 37.2171 18.4624 38.0956 20.2989 38.0956C23.4153 38.0956 25.9424 35.5652 25.9535 32.4402V5.6338H30.8254ZM20.0581 20.0377L20.0581 18.5172C19.496 18.4401 18.9293 18.4014 18.362 18.4017C11.5345 18.4015 6 23.9557 6 30.8066C6 35.1018 8.17492 38.8872 11.4802 41.1139C9.3002 38.8774 7.95704 35.8167 7.95704 32.4403C7.95704 25.6765 13.3513 20.1768 20.0581 20.0377Z" fill="#00F2EA"/>
</svg>
