<svg width="48" height="48" viewBox="0 0 48 48" fill="none" xmlns="http://www.w3.org/2000/svg">
<g clip-path="url(#clip0_3213_21031)">
<path d="M15.1003 43.5C33.2091 43.5 43.1166 28.4934 43.1166 15.4837C43.1166 15.0618 43.1072 14.6306 43.0884 14.2087C45.0158 12.8149 46.679 11.0885 48 9.1106C46.205 9.9092 44.2993 10.4308 42.3478 10.6575C44.4026 9.42582 45.9411 7.49094 46.6781 5.21153C44.7451 6.35712 42.6312 7.16522 40.4269 7.60122C38.9417 6.02312 36.978 4.97823 34.8394 4.6281C32.7008 4.27797 30.5064 4.6421 28.5955 5.66419C26.6846 6.68629 25.1636 8.30941 24.2677 10.2826C23.3718 12.2558 23.1509 14.4692 23.6391 16.5806C19.725 16.3842 15.8959 15.3674 12.4 13.5962C8.90405 11.825 5.81939 9.33887 3.34594 6.29903C2.0888 8.46649 1.70411 11.0313 2.27006 13.4722C2.83601 15.9131 4.31013 18.0469 6.39281 19.44C4.82926 19.3903 3.29995 18.9694 1.93125 18.2118V18.3337C1.92985 20.6083 2.7162 22.8132 4.15662 24.5735C5.59704 26.3339 7.60265 27.5411 9.8325 27.99C8.38411 28.3863 6.86396 28.444 5.38969 28.1587C6.01891 30.1149 7.24315 31.8258 8.89154 33.0527C10.5399 34.2796 12.5302 34.9612 14.5847 35.0025C11.0968 37.7422 6.78835 39.2283 2.35313 39.2212C1.56657 39.22 0.780798 39.1718 0 39.0768C4.50571 41.9675 9.74706 43.5028 15.1003 43.5Z" fill="white"/>
</g>
<defs>
<clipPath id="clip0_3213_21031">
<rect width="48" height="48" fill="white"/>
</clipPath>
</defs>
</svg>
