<svg width="48" height="48" viewBox="0 0 48 48" fill="none" xmlns="http://www.w3.org/2000/svg">
<path d="M15.8371 41.7523C32.441 41.7523 41.5226 27.9961 41.5226 16.0668C41.5226 15.6761 41.5226 15.2872 41.4962 14.9C43.2629 13.6221 44.788 12.0398 46 10.2272C44.3526 10.9576 42.6047 11.4364 40.815 11.6475C42.6997 10.5194 44.1101 8.74492 44.7838 6.65437C43.0118 7.70598 41.0732 8.44705 39.0515 8.84557C37.6904 7.39829 35.8903 6.43994 33.9297 6.11882C31.9691 5.7977 29.9573 6.13171 28.2056 7.06917C26.4539 8.00662 25.0601 9.49525 24.2397 11.3047C23.4193 13.1142 23.2182 15.1436 23.6674 17.0788C20.0783 16.8988 16.5672 15.9661 13.362 14.3412C10.1568 12.7163 7.32907 10.4355 5.0624 7.64701C3.908 9.63433 3.55443 11.9869 4.07368 14.2258C4.59293 16.4646 5.94596 18.4214 7.85728 19.6977C6.42059 19.6556 5.01519 19.2681 3.76 18.5678V18.6822C3.76057 20.7664 4.48206 22.7863 5.8021 24.3992C7.12213 26.0121 8.95945 27.1188 11.0024 27.5315C9.67338 27.894 8.27894 27.947 6.92624 27.6864C7.50333 29.48 8.62645 31.0484 10.1386 32.1724C11.6508 33.2964 13.4763 33.9198 15.3602 33.9555C13.4885 35.4267 11.3451 36.5144 9.0526 37.1565C6.76013 37.7985 4.36356 37.9823 2 37.6972C6.12836 40.3464 10.9319 41.7517 15.8371 41.7452" fill="#1DA1F2"/>
</svg>
