<svg width="48" height="48" viewBox="0 0 48 48" fill="none" xmlns="http://www.w3.org/2000/svg">
<path d="M2 23.12C2 13.1639 2 8.1859 5.09295 5.09295C8.1859 2 13.1639 2 23.12 2H24.88C34.8361 2 39.8141 2 42.9071 5.09295C46 8.1859 46 13.1639 46 23.12V24.88C46 34.8361 46 39.8141 42.9071 42.9071C39.8141 46 34.8361 46 24.88 46H23.12C13.1639 46 8.1859 46 5.09295 42.9071C2 39.8141 2 34.8361 2 24.88V23.12Z" fill="#0077FF"/>
<path d="M25.4117 33.6984C15.3833 33.6984 9.66342 26.8234 9.42509 15.3834H14.4484C14.6134 23.7801 18.3167 27.3368 21.25 28.0701V15.3834H25.9802V22.6251C28.8769 22.3134 31.9198 19.0134 32.9465 15.3834H37.6766C36.8882 19.8568 33.5882 23.1568 31.2416 24.5134C33.5882 25.6134 37.3468 28.4918 38.7768 33.6984H33.5699C32.4516 30.2151 29.6652 27.5201 25.9802 27.1534V33.6984H25.4117Z" fill="white"/>
</svg>
