<svg width="48" height="48" viewBox="0 0 48 48" fill="none" xmlns="http://www.w3.org/2000/svg">
<path d="M45.08 13.84C44.8312 12.9039 44.341 12.0496 43.6583 11.3625C42.9756 10.6755 42.1245 10.1798 41.19 9.925C37.75 9 24 9 24 9C24 9 10.25 9 6.81 9.925C5.87554 10.1798 5.02438 10.6755 4.34169 11.3625C3.65901 12.0496 3.16876 12.9039 2.92 13.84C2 17.295 2 24.5 2 24.5C2 24.5 2 31.705 2.92 35.16C3.16876 36.0961 3.65901 36.9504 4.34169 37.6375C5.02438 38.3245 5.87554 38.8202 6.81 39.075C10.25 40 24 40 24 40C24 40 37.75 40 41.19 39.075C42.1245 38.8202 42.9756 38.3245 43.6583 37.6375C44.341 36.9504 44.8312 36.0961 45.08 35.16C46 31.705 46 24.5 46 24.5C46 24.5 46 17.295 45.08 13.84Z" fill="#FF0302"/>
<path d="M19.5 31.0426V17.9576L31 24.5001L19.5 31.0426Z" fill="#FEFEFE"/>
</svg>
