<svg width="38" height="48" viewBox="0 0 38 48" fill="none" xmlns="http://www.w3.org/2000/svg">
<path d="M30.2593 24C30.2593 30.2224 25.2224 35.2593 19 35.2593V24H30.2593ZM19 12.7407V24H7.74076C7.74076 17.7776 12.7776 12.7407 19 12.7407Z" fill="#0166B1"/>
<path d="M19 12.7407C25.2224 12.7407 30.2593 17.7776 30.2593 24H19V12.7407ZM7.74076 24H19V35.2593C12.7776 35.2593 7.74076 30.2224 7.74076 24Z" fill="white"/>
<path d="M19 12.7407L19 13.3581C24.8674 13.3581 29.6419 18.1315 29.6419 24L30.2593 24C30.2593 17.7821 25.218 12.7407 19 12.7407ZM19 34.6419C13.1326 34.6419 8.35807 29.8685 8.35807 24L7.74076 24C7.74076 30.2179 12.7821 35.2593 19 35.2593M19 5C8.50688 5 0 13.5069 0 24C0 34.4931 8.50688 43 19 43C29.4931 43 38 34.4931 38 24C38 13.5069 29.4931 5 19 5ZM36.7645 24C36.7645 33.8106 28.8117 41.7645 19 41.7645C9.18832 41.7645 1.23554 33.8106 1.23554 24C1.23554 14.1894 9.18944 6.23554 19 6.23554C28.8106 6.23554 36.7645 14.1894 36.7645 24Z" fill="#6F6F6F"/>
<path d="M10.8805 14.834C11.4876 14.1989 11.8314 13.4651 11.2242 12.7646C10.8939 12.3845 10.3392 12.3013 9.87932 12.4886L9.83357 12.5064L9.84807 12.4665C9.91616 12.2858 9.95968 11.7094 9.46526 11.3115C9.22418 11.1176 8.92172 11.0455 8.61591 11.0765C8.04559 11.1342 7.60697 11.521 6.41275 12.8433C6.05226 13.2424 5.52769 13.8719 5.21296 14.2798L8.49314 17.37C9.58021 16.1752 10.0233 15.7307 10.8805 14.834ZM6.60026 14.0781C7.26098 13.2756 7.963 12.5474 8.28109 12.2592C8.38153 12.1683 8.49091 12.0774 8.62372 12.042C8.83913 11.9832 9.06123 12.1351 9.11146 12.3545C9.16168 12.5751 9.02217 12.7846 8.86703 12.9575C8.5177 13.3488 7.23643 14.6799 7.23643 14.6799L6.60026 14.0781ZM7.88487 15.2885C7.88487 15.2885 9.13266 13.9783 9.54003 13.5594C9.70187 13.3931 9.80566 13.2922 9.91727 13.2379C10.0612 13.1681 10.2186 13.1537 10.3592 13.2468C10.4976 13.3388 10.5613 13.4973 10.5267 13.6547C10.4854 13.842 10.3313 14.0204 10.2041 14.1568C10.0322 14.3397 8.55229 15.9125 8.55006 15.9147L7.88487 15.2885ZM19.375 11.1486L20.4253 8.81209L20.4922 8.60482L20.4732 8.82095L20.5837 11.9433C20.952 11.9777 21.3326 12.0287 21.7076 12.0907L21.5369 7.46649C21.0123 7.40886 20.49 7.36784 19.9677 7.34568L18.933 9.8961L18.8962 10.0856L18.8594 9.8961L17.8259 7.34568C17.3036 7.36784 16.7812 7.40886 16.2567 7.46649L16.0859 12.0907C16.4609 12.0287 16.8415 11.9788 17.2098 11.9433L17.3203 8.82095L17.3013 8.60482L17.3683 8.81209L18.4185 11.1486H19.375ZM28.0972 15.9823C28.3551 16.2572 28.7267 16.7006 28.9354 16.9699L32.7792 14.5469C32.5873 14.2975 32.2815 13.9185 32.0527 13.6514L29.6185 15.2497L29.4522 15.3915L29.5761 15.212L30.6509 13.0816L29.8908 12.3268L27.7446 13.3942L27.5638 13.5172L27.7077 13.3521L29.3183 10.9358C29.0348 10.6964 28.7624 10.4769 28.4153 10.2109L25.9756 14.0249C26.2847 14.261 26.6921 14.6079 26.9521 14.844L29.2491 13.6602L29.3964 13.5527L29.2881 13.699L28.0972 15.9823Z" fill="#6F6F6F"/>
</svg>
