<svg width="164" height="48" viewBox="0 0 164 48" fill="none" xmlns="http://www.w3.org/2000/svg">
<g clip-path="url(#clip0_1005_171697)">
<path fill-rule="evenodd" clip-rule="evenodd" d="M31.1945 5.33379C37.7497 8.78119 42.2275 15.6543 42.2275 23.5769C42.2275 31.4995 37.7497 38.3943 31.1945 41.8206V39.4649C33.7014 37.9652 35.822 35.8669 37.365 33.3833L31.1945 30.8786V27.0671L37.9642 32.3561C39.3783 29.7436 40.1709 26.767 40.1709 23.5764C40.1709 16.8528 36.5713 10.9435 31.1945 7.6884V5.33379ZM21.6612 2.99976C25.0891 2.99976 28.3236 3.8352 31.1945 5.33379V7.68949C28.5593 6.10421 25.4743 5.16258 22.2182 5.05531L24.5744 21.9071L31.1945 27.0671V30.8786L21.6179 27.0032L12.1057 30.9003V27.1099L18.7686 21.9066L21.1037 5.05476C17.8042 5.16204 14.7409 6.10421 12.1057 7.6884V5.33379C14.9555 3.8352 18.2117 2.99976 21.6612 2.99976ZM31.1945 41.8206C28.3236 43.3192 25.0886 44.1752 21.6612 44.1752C18.2122 44.1752 14.956 43.3192 12.1062 41.8417V39.4649C14.8916 41.1558 18.1688 42.1197 21.6612 42.1197C25.1319 42.1197 28.3886 41.1558 31.1945 39.4649V41.8206ZM12.1062 41.8417C5.52889 38.3943 1.05154 31.4995 1.05154 23.5769C1.05154 15.6543 5.52835 8.78119 12.1057 5.33379L12.1062 7.68949C6.70729 10.944 3.10818 16.8322 3.10818 23.5769C3.10818 26.767 3.92249 29.7869 5.33656 32.3989L12.1057 27.1099V30.9003L5.95745 33.4261C7.49993 35.8896 9.59936 37.9658 12.1062 39.4649V41.8417Z" fill="#231F20"/>
<path d="M105.417 16.92C104.474 17.1707 103.623 17.3215 102.567 17.435V17.7558C103.756 17.7558 103.907 17.8887 103.907 18.8706V22.1719C103.209 21.04 102.661 20.7009 101.642 20.7009C99.6221 20.7009 98.2083 22.6059 98.2083 25.3237C98.2083 28.0415 99.6417 29.948 101.699 29.948C102.775 29.948 103.51 29.4584 104.038 28.4014C104.115 29.1179 104.115 29.1936 104.304 29.911C105.077 29.6653 105.398 29.5889 106.512 29.4577L106.794 29.4191V29.0984C105.53 29.0609 105.417 28.9662 105.417 27.8155V16.92ZM54.4953 17.0573C53.7778 17.1332 53.3997 17.1529 52.702 17.1529C52.173 17.1529 51.8906 17.1345 51.1554 17.0773V17.5476C52.4571 17.6236 52.7205 17.8125 52.7205 18.681V18.7951L52.3242 28.0607C52.2867 29.0801 52.099 29.2304 50.7776 29.3251V29.7784C51.7595 29.7024 52.1355 29.6844 52.6634 29.6844C53.1924 29.6844 53.5691 29.7024 54.5323 29.7784V29.3251C53.2109 29.2304 52.9656 29.0602 52.9656 28.2303V28.0607L53.3434 18.2662L56.4381 26.6267L56.6648 27.2866L56.93 28.0221L57.1937 28.7592L57.4019 29.3636H57.6856L57.8922 28.7407L58.1374 28.0221L58.4011 27.3252L58.6277 26.7007L61.7425 18.2847L61.9121 28.0607V28.1548C61.9121 29.0419 61.6294 29.2491 60.3455 29.3251V29.7784C61.5346 29.6649 61.9872 29.6273 62.7047 29.6273C63.4211 29.6273 63.8747 29.665 65.0639 29.7784V29.3251C63.705 29.2304 63.5345 29.0801 63.5157 28.0607L63.3091 18.7951V18.6625C63.3091 17.8128 63.5919 17.6236 64.8757 17.5476V17.0773C64.1583 17.1346 63.8564 17.1529 63.3847 17.1529C62.8182 17.1529 62.4226 17.1333 61.5729 17.0573L58.0063 26.6082L54.4953 17.0573ZM127.91 17.1328V17.6062C129.268 17.6812 129.458 17.8311 129.458 18.8505V28.0036C129.458 29.023 129.307 29.1545 127.91 29.268V29.7214H132.685C134.081 29.7214 134.836 29.5519 135.629 29.0614C136.573 28.4574 137.195 27.3054 137.195 26.1163C137.195 25.0978 136.761 24.1739 136.025 23.6075C135.628 23.3055 135.213 23.1353 134.534 23.003C135.893 22.4938 136.611 21.531 136.611 20.2106C136.611 19.2286 136.195 18.3595 135.477 17.8128C134.836 17.3411 134.1 17.1328 132.873 17.1328L127.91 17.1328ZM131.043 17.7187H132.646C134.232 17.7187 134.93 18.4919 134.93 20.2476C134.93 21.115 134.724 21.7385 134.309 22.229C133.893 22.7007 133.384 22.8519 132.326 22.8519H131.043V17.7187ZM87.6366 20.4172L87.1262 21.3794C86.5223 20.7942 86.0131 20.5868 85.2019 20.5868C82.9745 20.5868 81.4642 22.5121 81.4642 25.3237C81.4642 28.079 82.956 29.9295 85.1448 29.9295C86.8442 29.9295 87.9192 28.8339 88.164 26.8148H87.3899C87.1639 28.4756 86.4648 29.3066 85.2944 29.3066C83.8417 29.3066 83.1063 27.9665 83.1063 25.3237C83.1063 22.6246 83.9378 21.0972 85.353 21.0972C86.5046 21.0972 87.2015 21.8893 87.541 23.5304H87.9574V20.4172L87.6366 20.4172ZM121.453 20.4742L121.133 21.2468C120.491 20.8135 119.944 20.6439 119.208 20.6439C117.547 20.6439 116.377 21.663 116.377 23.1542C116.377 24.2486 116.812 24.7769 118.189 25.4193L119.057 25.814L119.774 26.1348C120.699 26.5502 121.059 26.9844 121.059 27.6258C121.059 28.589 120.227 29.3251 119.114 29.3251C117.793 29.3251 117 28.4949 116.659 26.7778L116.246 26.7963V29.948H116.585L117.037 29.0984C117.755 29.6649 118.434 29.891 119.302 29.891C121.077 29.891 122.341 28.7599 122.341 27.1741C122.341 26.0609 121.831 25.4561 120.397 24.8334L119.605 24.4941C117.886 23.7392 117.605 23.4943 117.605 22.7394C117.605 21.8522 118.378 21.1727 119.378 21.1727C120.567 21.1727 121.19 21.8904 121.359 23.3993H121.794V20.4742H121.453ZM149.352 20.4742C148.599 20.7387 147.956 20.8891 146.86 21.0401V21.3609C146.955 21.3609 147.051 21.3794 147.107 21.3794C148.051 21.3794 148.163 21.4938 148.182 22.2675V28.3814C148.182 29.1926 147.995 29.3443 146.843 29.4006V29.7784C147.825 29.6837 148.22 29.6659 148.88 29.6659C149.56 29.6659 149.938 29.6837 150.92 29.7784V29.4006C149.938 29.3631 149.693 29.1739 149.693 28.42V23.8511C149.693 22.3037 150.372 21.4935 151.656 21.4935C152.863 21.4935 153.353 22.1535 153.353 23.7956V28.42C153.353 29.1739 153.108 29.3631 152.089 29.4006V29.7784C153.07 29.6837 153.447 29.6659 154.146 29.6659C154.825 29.6659 155.204 29.6837 156.204 29.7784V29.4006C155.053 29.3444 154.863 29.1926 154.863 28.3814V23.8511C154.863 23.1347 154.769 22.6064 154.579 22.1534C154.202 21.2288 153.221 20.6439 152.089 20.6439C150.996 20.6439 150.22 21.097 149.54 22.1164C149.502 21.399 149.447 20.9085 149.352 20.4742ZM76.718 20.5112C75.9433 20.7372 75.3019 20.8513 74.2262 20.9461V21.2853H74.4714C75.4523 21.3041 75.5474 21.3993 75.5662 22.2105V28.3814C75.5662 29.1926 75.3593 29.3444 74.2077 29.4006V29.7784C75.2458 29.6837 75.6418 29.6643 76.3217 29.6643C76.9819 29.6643 77.3785 29.6837 78.4157 29.7784V29.4006C77.265 29.3444 77.0757 29.1926 77.0757 28.3814V24.4371C77.0757 22.568 77.6984 21.3809 78.6794 21.3809C79.0189 21.3809 79.2468 21.5682 79.2468 21.8327V22.0023L79.2083 22.192C79.1896 22.268 79.1713 22.3426 79.1713 22.3801C79.1713 22.7581 79.5111 23.0216 79.9453 23.0216C80.417 23.0216 80.7379 22.6626 80.7379 22.1149C80.7379 21.2099 80.0391 20.5868 79.0957 20.5868C78.1148 20.5868 77.3021 21.2104 76.8876 22.286V22.0779C76.8493 21.5114 76.8117 21.2099 76.718 20.5112ZM69.6481 20.5868C67.3833 20.5868 65.969 22.4174 65.969 25.3237C65.969 28.23 67.3832 29.9295 69.8177 29.9295C71.6671 29.9295 72.8749 28.7774 73.1206 26.8333H72.3666C72.1396 28.4379 71.309 29.3066 69.9688 29.3066C68.2517 29.3066 67.4973 27.9863 67.4786 25.0415H73.1021C73.0646 22.1352 71.8754 20.5868 69.6481 20.5868ZM93.1892 20.5868C90.9244 20.5868 89.5086 22.4174 89.5086 25.3237C89.5086 28.23 90.9243 29.9295 93.3588 29.9295C95.2082 29.9295 96.417 28.7774 96.6617 26.8333H95.9061C95.6801 28.4379 94.8501 29.3066 93.5099 29.3066C91.7928 29.3066 91.0369 27.9863 91.0181 25.0415H96.6432C96.6047 22.1352 95.4165 20.5868 93.1892 20.5868ZM111.19 20.5868C108.925 20.5868 107.509 22.4174 107.509 25.3237C107.509 28.23 108.925 29.9295 111.36 29.9295C113.209 29.9295 114.417 28.7774 114.663 26.8333H113.907C113.68 28.4379 112.851 29.3066 111.511 29.3066C109.794 29.3066 109.038 27.9863 109.019 25.0415H114.644C114.606 22.1352 113.416 20.5868 111.19 20.5868ZM142.409 20.5868C140.144 20.5868 138.728 22.4174 138.728 25.3237C138.728 28.23 140.144 29.9295 142.578 29.9295C144.428 29.9295 145.635 28.7774 145.881 26.8333H145.126C144.9 28.4379 144.07 29.3066 142.731 29.3066C141.013 29.3066 140.258 27.9863 140.239 25.0415H145.863C145.824 22.1352 144.636 20.5868 142.409 20.5868ZM157.58 20.8135L157.144 23.2667H157.523C158.202 21.5683 158.503 21.3038 159.731 21.3038H162.05L156.937 29.7214H163.429L163.92 27.0044H163.524C162.957 28.7215 162.43 29.231 161.145 29.231H158.938L164.072 20.8135L157.58 20.8135ZM69.6296 21.0771C70.8563 21.0771 71.479 22.1342 71.5925 24.3615H67.5156C67.7041 22.1914 68.4217 21.0771 69.6296 21.0771ZM93.1692 21.0771C94.3958 21.0771 95.0186 22.1342 95.1321 24.3615H91.0551C91.2436 22.1914 91.9613 21.0771 93.1692 21.0771ZM111.172 21.0771C112.398 21.0771 113.021 22.1342 113.134 24.3615H109.058C109.246 22.1914 109.964 21.0771 111.172 21.0771ZM142.39 21.0771C143.617 21.0771 144.239 22.1342 144.353 24.3615H140.276C140.465 22.1914 141.182 21.0771 142.39 21.0771ZM101.812 21.2283C103.208 21.2283 103.926 22.6638 103.926 25.4378C103.926 28.0609 103.228 29.4191 101.869 29.4191C100.51 29.4191 99.7934 28.0042 99.7934 25.3052C99.7934 22.5686 100.453 21.2283 101.812 21.2283ZM131.043 23.4379H132.836C133.837 23.4379 134.402 23.6066 134.836 24.0408C135.27 24.475 135.514 25.2859 135.514 26.1918C135.514 28.0787 134.571 29.137 132.892 29.137H132.213C131.212 29.137 131.043 28.9847 131.043 28.1547V23.4379ZM123.473 24.1857V25.1618H127.691V24.1857H123.473Z" fill="#231F20"/>
</g>
<defs>
<clipPath id="clip0_1005_171697">
<rect width="164" height="48" fill="white"/>
</clipPath>
</defs>
</svg>
