<svg width="184" height="48" viewBox="0 0 184 48" fill="none" xmlns="http://www.w3.org/2000/svg">
<path d="M14.1163 14.0198C12.737 16.2205 11.5337 18.201 11.431 18.4064C11.2549 18.8025 11.2989 18.9052 12.693 21.2966C12.9865 21.8247 13.368 22.4849 13.5294 22.7637C15.2462 25.7712 16.3615 27.7224 16.5082 27.9425C16.6696 28.1772 16.7577 28.0745 17.3446 27.0622C17.7115 26.4314 18.9734 24.2748 20.162 22.2649C21.38 20.2109 22.3044 18.5238 22.2604 18.3771C22.231 18.245 21.0718 16.4552 19.7071 14.4013C18.3424 12.3473 17.1392 10.5135 17.0365 10.3228C16.9484 10.1467 16.8164 10 16.743 10C16.6696 10 15.4957 11.8045 14.1163 14.0198Z" fill="#ED1B24"/>
<path d="M85.828 18.4064C84.434 18.8319 83.6269 19.3014 82.6437 20.299C80.9562 22.0008 80.4867 24.3188 81.3818 26.5488C81.6752 27.3263 83.0253 28.5734 84.0084 28.9988C84.4193 29.1749 85.5051 29.4976 86.4296 29.7177C89.1883 30.3632 89.8486 30.8033 89.8486 32.0064C89.8486 33.5468 88.1611 34.2657 85.9454 33.6935C84.9329 33.4294 83.5682 32.7546 82.9079 32.1971C82.6437 31.977 82.3943 31.8596 82.3649 31.933C82.3356 32.021 81.822 32.9013 81.2057 33.8842L80.1051 35.6888L80.4426 35.9675C81.0589 36.481 83.3921 37.5666 84.5954 37.8894C85.5051 38.1388 86.2242 38.2121 87.7503 38.2268C89.9954 38.2415 90.8318 38.0801 92.3872 37.3466C94.8965 36.1582 96.2758 33.8402 96.0704 31.1261C95.9383 29.439 95.6302 28.7054 94.5737 27.6638C93.4584 26.5781 92.2111 26.006 89.9073 25.5658C88.1905 25.2284 87.6035 24.9937 87.2514 24.4949C86.7671 23.8053 87.1486 22.7344 87.9704 22.3823C89.0269 21.9421 90.8318 22.2355 92.1965 23.0718C92.578 23.3065 92.9448 23.4972 93.0035 23.4972C93.1356 23.4972 95.0285 19.8735 94.9405 19.7855C94.8965 19.7415 94.4416 19.5068 93.928 19.2427C91.5948 18.0837 88.1611 17.7316 85.828 18.4064Z" fill="black"/>
<path d="M142.924 18.4505C140.122 19.1987 138.302 20.9739 137.774 23.4679C137.407 25.2578 138.038 27.209 139.315 28.2213C140.386 29.0722 140.885 29.2776 142.998 29.7911C144.054 30.0551 145.169 30.3926 145.492 30.5393C146.842 31.1848 146.989 32.872 145.756 33.6348C144.436 34.4564 141.721 33.8989 139.696 32.3878L139.197 32.0064L138.728 32.7693C138.463 33.1947 137.979 34.0016 137.642 34.5444C137.304 35.1019 137.011 35.6594 136.996 35.7915C136.981 36.1142 139.168 37.3466 140.621 37.8014C142.954 38.5496 146.167 38.5936 148.134 37.9187C151.421 36.8037 153.269 33.8696 152.756 30.6273C152.33 27.9572 150.555 26.4901 146.842 25.7419C144.964 25.3605 144.671 25.2578 144.142 24.7736C143.717 24.3922 143.687 23.5413 144.098 23.0278C144.524 22.4703 145.14 22.2796 146.285 22.3529C147.136 22.3969 147.517 22.5143 148.53 23.0278C149.19 23.3652 149.777 23.5999 149.836 23.5266C149.997 23.3505 151.729 20.1229 151.729 19.9909C151.729 19.7708 149.454 18.8172 148.207 18.5091C146.696 18.157 144.142 18.1277 142.924 18.4505Z" fill="black"/>
<path d="M180.152 18.8612C179.433 19.1253 179.096 19.4334 178.729 20.1816C178.289 21.1059 178.333 22.1035 178.861 22.9397C180.049 24.8176 182.808 24.5976 183.733 22.5436C184.246 21.4286 184.011 20.3137 183.102 19.4187C182.309 18.6705 181.267 18.4651 180.152 18.8612ZM182.207 19.4041C183.366 19.9616 183.777 21.4873 183.087 22.6757C182.074 24.4655 179.404 23.9814 179.037 21.9421C178.832 20.8125 179.257 19.8735 180.196 19.3747C180.857 19.0079 181.429 19.0226 182.207 19.4041Z" fill="black"/>
<path d="M180.196 21.4433C180.196 22.7784 180.24 23.0571 180.416 23.0571C180.578 23.0571 180.636 22.8811 180.636 22.3236C180.636 21.3259 181.003 21.3259 181.561 22.3236C181.84 22.8224 182.074 23.0571 182.265 23.0571C182.529 23.0571 182.515 22.9984 182.104 22.4116C181.605 21.678 181.576 21.59 181.869 21.59C182.163 21.59 182.441 21.1939 182.441 20.7538C182.441 20.1523 181.928 19.8295 180.989 19.8295H180.196V21.4433ZM181.942 20.6217C182.001 20.9885 181.59 21.2966 181.047 21.2966C180.68 21.2966 180.636 21.2526 180.636 20.7684V20.255L181.253 20.299C181.737 20.3283 181.898 20.4017 181.942 20.6217Z" fill="black"/>
<path d="M35.3642 38.1681H39.7664L39.7811 31.6689C39.7811 27.8398 39.8398 25.3018 39.9132 25.4778C39.9865 25.6392 40.3681 26.8275 40.7789 28.1186C41.1898 29.4096 42.0702 32.1824 42.7599 34.2803L43.9925 38.0948H47.6023L48.0132 36.701C48.6442 34.6324 50.3023 28.9401 50.8599 27.0476C51.1094 26.138 51.3735 25.3458 51.4322 25.2871C51.4909 25.2284 51.5056 28.1039 51.4762 31.6689L51.3882 38.1681H56.1279V18.8759H48.9817L48.1746 21.5167C47.7344 22.9691 47.0887 25.1404 46.7219 26.3581C46.355 27.5611 46.0322 28.6614 45.9735 28.7788C45.9001 28.9841 45.0637 26.5488 43.3615 21.1205L42.6278 18.8025H35.3642V38.1681Z" fill="black"/>
<path d="M57.8154 38.1681H63.1714V18.8759L60.5007 18.8319L57.8154 18.8025V38.1681Z" fill="black"/>
<path d="M64.4187 22.617H69.848V38.1681H75.0866L75.1747 35.0579C75.2334 33.3561 75.2774 29.8644 75.2774 27.2823V22.617H80.4133V18.8025H64.4187V22.617Z" fill="black"/>
<path d="M96.9949 25.4485C96.9949 31.4929 97.0242 32.1971 97.2737 33.1507C98.1835 36.6277 101.837 38.931 105.682 38.4469C107.633 38.1975 108.998 37.5666 110.407 36.2609C111.478 35.2633 111.948 34.5297 112.373 33.2534C112.652 32.4318 112.681 31.9037 112.725 25.6245L112.769 18.8759L108.162 18.7879L108.118 25.4338C108.074 31.9477 108.074 32.0944 107.751 32.6812C107.091 33.8989 105.785 34.6471 104.64 34.4271C103.98 34.295 102.967 33.3121 102.703 32.5198C102.556 32.0797 102.498 30.3192 102.454 25.3604L102.41 18.8026H96.9949V25.4485Z" fill="black"/>
<path d="M113.723 38.4909L119.417 38.4322C124.729 38.3735 125.169 38.3442 126.167 38.0508C128.779 37.2585 129.718 36.4076 130.246 34.339C130.657 32.7252 130.319 30.9941 129.351 29.7177C129.145 29.4536 128.544 29.0135 127.972 28.7347L126.959 28.2213L127.663 27.7665C128.529 27.209 129.234 26.4167 129.586 25.6245C129.923 24.8763 130.202 23.1451 130.085 22.5876C129.835 21.502 127.898 19.6681 126.372 19.096C125.638 18.8172 125.242 18.8026 119.666 18.8026H113.723V38.4909ZM123.569 22.8077C124.626 23.5119 124.685 25.2284 123.657 25.8446C123.261 26.094 122.909 26.138 121.324 26.138H119.446V22.4703H121.266C122.909 22.4703 123.114 22.4996 123.569 22.8077ZM123.834 30.9207C124.156 31.0527 124.523 31.3022 124.641 31.4929C125.154 32.2704 124.787 33.5908 123.892 34.163C123.555 34.383 123.173 34.4271 121.456 34.4271H119.431V32.6225C119.431 31.6396 119.431 30.8033 119.446 30.7593C119.446 30.7153 120.297 30.686 121.354 30.686C122.748 30.686 123.408 30.7447 123.834 30.9207Z" fill="black"/>
<path d="M130.892 38.3149H136.321V18.9493H134.824C133.988 18.9493 132.77 18.9053 132.11 18.8466L130.892 18.7586V38.3149Z" fill="black"/>
<path d="M153.548 18.9346C153.519 18.9639 153.49 23.3505 153.49 28.6614V38.3149H158.772V30.3926H164.202V38.3149H169.484V18.9493H164.202V25.6979H158.772V18.9639L156.19 18.9199C154.766 18.8906 153.578 18.9053 153.548 18.9346Z" fill="black"/>
<path d="M171.274 28.588L171.318 38.2415H176.454L176.498 28.588L176.528 18.9493H171.245L171.274 28.588Z" fill="black"/>
<path d="M2.80273 33.2534C1.26196 35.8648 0 38.0508 0 38.0948C0 38.1388 2.4212 38.1535 5.38534 38.1388L10.7707 38.0948L12.0326 35.9675C12.7223 34.7938 13.9843 32.6812 14.8354 31.2728C15.6718 29.8644 16.3908 28.6614 16.4055 28.6027C16.4348 28.544 14.0136 28.4853 11.0348 28.4853H5.60545L2.80273 33.2534Z" fill="#ED1B24"/>
<path d="M16.9337 28.7054C16.9778 28.8228 17.3886 29.571 17.8729 30.3485C18.3424 31.1408 19.5164 33.18 20.4702 34.8965L22.231 38.0068L28.0126 38.0214C32.9724 38.0214 33.7648 37.9921 33.7061 37.816C33.618 37.6106 32.7963 36.2462 31.2995 33.8402C30.9034 33.1947 29.9936 31.7276 29.2745 30.5686L27.9832 28.4853H22.4071C17.5501 28.4853 16.8604 28.5147 16.9337 28.7054Z" fill="#ED1B24"/>
</svg>
