<svg width="115" height="48" viewBox="0 0 115 48" fill="none" xmlns="http://www.w3.org/2000/svg">
<path d="M60.9454 16.0251C60.787 16.2167 60.6974 16.4307 60.6974 16.8029V27.0349H60.6406C60.6406 27.0349 55.0297 17.0504 54.7585 16.5889C54.5665 16.2614 54.352 16.0362 54.0696 15.8669C53.7872 15.7096 53.4936 15.6082 52.9295 15.6082H51.0782C50.6485 15.6082 50.3781 15.7543 50.1861 15.9803C50.0277 16.1712 49.9373 16.386 49.9373 16.7574V31.261C49.9373 31.6331 50.0277 31.8471 50.1861 32.0388C50.3781 32.264 50.6485 32.4101 51.0782 32.4101H52.1279C52.5567 32.4101 52.8279 32.264 53.0199 32.0388C53.1775 31.8471 53.2679 31.6331 53.2679 31.261V20.7805H53.3248C53.3248 20.7805 59.15 31.0805 59.3876 31.4638C59.7149 32.0044 60.2677 32.4101 61.0582 32.4101H62.8535C63.2824 32.4101 63.5536 32.264 63.7456 32.0388C63.9032 31.8471 63.9936 31.6331 63.9936 31.261V18.1772H87.5788C87.8164 18.1772 87.9964 18.1101 88.1324 17.9975C88.2788 17.8618 88.3468 17.6813 88.3468 17.4114V16.4196C88.3468 16.1488 88.2788 15.9684 88.1324 15.8334C87.9964 15.7208 87.8164 15.6529 87.5788 15.6529H61.8375C61.4086 15.6529 61.1374 15.7999 60.9454 16.0251ZM71.2422 19.9013C67.3243 19.9013 65.1225 22.9558 65.1225 26.1789C65.1225 29.6159 67.4827 32.6361 71.2646 32.6361C73.1504 32.6361 75.0017 31.9262 76.0626 30.6748C76.5258 30.1342 76.8987 29.3787 76.8987 28.9172C76.8987 28.759 76.8643 28.6241 76.7747 28.5227C76.6843 28.4101 76.5483 28.3422 76.3114 28.3422H74.4937C74.1321 28.3422 73.884 28.4772 73.7032 28.7479C73.1728 29.5257 72.4047 29.9313 71.2758 29.9313C69.5821 29.9313 68.4876 28.6465 68.4084 27.2378H76.2666C76.6163 27.2378 76.8643 27.1587 77.0339 26.9902C77.2259 26.8097 77.3163 26.5502 77.3163 26.0655C77.3163 24.5897 76.8531 23.0573 75.8826 21.885C74.8889 20.7015 73.376 19.9013 71.2422 19.9013ZM83.356 19.9013C80.263 19.9013 78.2308 21.3667 78.2308 23.7105C78.2308 24.5442 78.5356 25.2206 79.0325 25.75C79.6085 26.3705 80.4326 26.7986 81.6295 27.1028L84.2145 27.756C84.9257 27.9365 85.5578 28.1505 85.5578 28.7702C85.5578 29.7285 84.5417 30.0551 83.4584 30.0551C82.9272 30.0551 82.3743 29.9537 81.9223 29.7285C81.6063 29.5704 81.3358 29.3452 81.1438 29.0409C80.9742 28.7814 80.9182 28.5898 80.6582 28.4436C80.4998 28.3534 80.3078 28.3422 80.0485 28.3422H78.6484C78.3436 28.3422 78.1972 28.4324 78.0956 28.5562C77.994 28.68 77.9596 28.8605 77.9596 29.0409C77.9596 29.4913 78.118 30.0551 78.4908 30.5622C79.3485 31.7114 81.1438 32.6361 83.4352 32.6361C85.6938 32.6361 88.8213 31.7002 88.8213 28.68C88.8213 27.903 88.5948 27.2378 88.1772 26.6971C87.6468 26.0096 86.8907 25.536 85.6034 25.2094L83.0408 24.5554C81.9791 24.2855 81.4823 24.0938 81.4823 23.4398C81.4823 22.8089 82.0471 22.3018 83.356 22.3018C84.1241 22.3018 84.8241 22.4711 85.2762 22.9447C85.6482 23.3392 85.581 23.542 85.8746 23.6993C86.0546 23.7896 86.2579 23.7896 86.5747 23.7896H87.85C88.0532 23.7896 88.2004 23.756 88.3124 23.6314C88.4036 23.53 88.4596 23.3727 88.4596 23.1132C88.4596 22.527 88.0756 21.7724 87.3987 21.1974C86.4955 20.4196 85.073 19.9013 83.356 19.9013ZM90.3902 20.3301H89.7581C89.5213 20.3301 89.3405 20.3972 89.2053 20.5098C89.0581 20.6456 88.9901 20.8261 88.9901 21.096V21.8738C88.9901 22.1445 89.0581 22.3242 89.2053 22.4599C89.3405 22.5725 89.5213 22.6404 89.7581 22.6404H90.3902V28.2631C90.3902 29.7054 90.7854 30.6069 91.5191 31.3288C92.1967 31.9933 93.0776 32.4101 94.6129 32.4101H95.5722C95.8098 32.4101 95.9898 32.343 96.1259 32.2304C96.2723 32.0947 96.3627 31.9142 96.3627 31.6443V30.6636C96.3627 30.3929 96.2723 30.2132 96.1259 30.0775C95.9898 29.9649 95.8098 29.897 95.5722 29.897H95.437C94.8273 29.897 94.4097 29.7397 94.1273 29.469C93.7889 29.1535 93.6192 28.6688 93.6192 28.0379V22.6404H95.6746C95.9114 22.6404 96.0923 22.5725 96.2275 22.4599C96.3739 22.3242 96.4419 22.1445 96.4419 21.8738V21.096C96.4419 20.8261 96.3739 20.6456 96.2275 20.5098C96.0923 20.3972 95.9114 20.3301 95.6746 20.3301H93.6305V16.6559C93.6305 16.3629 93.54 16.1488 93.4048 15.9803C93.2352 15.7775 92.9984 15.6529 92.6488 15.6529H91.3727C91.0222 15.6529 90.7854 15.7775 90.6158 15.9803C90.4806 16.1488 90.3902 16.3629 90.3902 16.6559V20.3301ZM97.3003 31.4071C97.3003 31.7002 97.39 31.9142 97.526 32.0835C97.6948 32.2863 97.9324 32.4101 98.282 32.4101H99.6253C99.9758 32.4101 100.213 32.2863 100.382 32.0835C100.517 31.9142 100.608 31.7002 100.608 31.4071V16.6567C100.608 16.3637 100.517 16.1496 100.382 15.9803C100.213 15.7775 99.9758 15.6529 99.6253 15.6529H98.282C97.9324 15.6529 97.6948 15.7775 97.526 15.9803C97.39 16.1496 97.3003 16.3637 97.3003 16.6567V31.4071ZM68.4308 24.8373C68.5772 23.451 69.6389 22.4144 71.2534 22.4144C72.8344 22.4144 73.9288 23.451 74.076 24.8373H68.4308ZM112.835 18.1772C113.072 18.1772 113.253 18.1101 113.388 17.9975C113.535 17.8618 113.603 17.6813 113.603 17.4114V16.3629C113.603 15.9572 113.524 15.7543 113.388 15.6082C113.264 15.4725 113.061 15.3942 112.835 15.3942C112.654 15.3942 112.474 15.4166 112.17 15.4501L103.159 16.3405C102.9 16.3629 102.776 16.4419 102.686 16.5433C102.584 16.6559 102.538 16.8029 102.538 17.0057V17.5911C102.538 17.8171 102.584 17.9185 102.663 18.0087C102.764 18.1213 102.911 18.1772 103.114 18.1772H112.835ZM107.856 19.9013C103.938 19.9013 101.737 22.9558 101.737 26.1789C101.737 29.6159 104.097 32.6361 107.879 32.6361C109.765 32.6361 111.616 31.9262 112.677 30.6748C113.14 30.1342 113.513 29.3787 113.513 28.9172C113.513 28.759 113.478 28.6241 113.388 28.5227C113.298 28.4101 113.162 28.3422 112.926 28.3422H111.108C110.746 28.3422 110.498 28.4772 110.317 28.7479C109.787 29.5257 109.019 29.9313 107.89 29.9313C106.196 29.9313 105.101 28.6465 105.023 27.2378H112.903C113.253 27.2378 113.502 27.1587 113.67 26.9902C113.863 26.8097 113.953 26.5502 113.953 26.0655C113.953 24.5897 113.49 23.0573 112.519 21.885C111.526 20.7015 109.99 19.9013 107.856 19.9013ZM105.045 24.8373C105.192 23.451 106.253 22.4144 107.868 22.4144C109.449 22.4144 110.543 23.451 110.69 24.8373H105.045Z" fill="#939CA1"/>
<path d="M37.2038 18.3123C34.2812 13.9609 31.713 12.4947 30.9905 11.8047C30.1969 11.0437 29.592 10.1813 29.2072 9.766C28.3511 8.83247 27.243 7.68014 25.4205 7.68014C23.6611 7.68014 22.4986 8.82449 22.121 9.81312C22.0114 10.095 21.925 10.44 21.8466 10.5654C21.6738 10.8481 20.8961 12.1729 20.5737 12.6983H22.0274L21.3201 14.0312C22.145 13.8507 22.7338 13.7173 23.5195 13.7173C24.2188 13.7173 24.7212 13.8826 24.9412 14.321C25.3501 15.1372 25.3501 17.6064 26.0413 19.4654C26.6854 21.2127 28.2567 22.9224 30.024 24.2321C30.0472 24.2473 30.0712 24.2552 30.1024 24.2552C30.1889 24.2552 30.2441 24.193 30.2441 24.1299C30.2441 24.0827 30.2281 24.0516 30.1889 24.0125C28.7119 22.5383 27.5102 20.9076 26.8662 19.1204C26.2293 17.3796 26.3317 14.9327 25.7741 13.8427C25.4045 13.1216 24.6196 12.9339 23.8963 12.9339C23.3155 12.9339 22.773 13.0513 22.5218 13.1056L23.1579 12.0315H22.0818C22.3098 11.6323 22.545 11.2633 22.6634 11.0437C22.765 10.8552 22.8051 10.6205 22.9307 10.2994C23.3387 9.27169 24.242 8.62085 25.4205 8.62085C26.8974 8.62085 27.7615 9.56955 28.6175 10.5183C29.0104 10.9575 29.6544 11.875 30.4009 12.557C30.9113 13.0274 31.8858 13.5528 33.3859 15.098C34.25 15.9916 35.2557 17.152 36.3158 18.7044C40.1105 24.2473 42.6003 29.1321 43.9908 32.9429L43.9676 32.9588C39.9849 30.2613 36.5358 27.713 33.7555 24.5691C31.7834 22.3347 30.0712 19.7473 28.5783 16.446C28.4759 16.2264 28.3903 16.0228 28.2959 15.8112C28.2567 15.7249 28.2175 15.701 28.1543 15.701C28.0759 15.701 28.0207 15.7561 28.0207 15.8343C28.0207 15.9206 28.0599 16.109 28.1463 16.4852C28.94 19.9038 31.1393 22.9695 33.4883 25.5178C35.8293 28.0508 38.4759 30.2301 40.6521 31.8145L42.3491 36.6594C42.3883 36.7776 42.4355 36.903 42.4355 37.0204C42.4355 37.1066 42.4115 37.1769 42.3571 37.224C42.3098 37.2711 42.2474 37.2951 42.1058 37.2951H41.5954C41.3754 37.2951 41.2882 37.2631 41.2098 37.2008C41.1314 37.1378 41.0769 37.0435 41.0369 36.9341C40.8881 36.4789 39.9921 33.9307 39.82 33.4132C39.788 33.3198 39.7328 33.2879 39.6704 33.2879C39.592 33.2879 39.5368 33.3509 39.5368 33.4212C39.5368 33.4843 39.56 33.5546 39.6 33.7742C39.8272 34.9345 40.0945 36.2362 40.2041 36.7305C40.2521 36.9573 40.3065 37.1697 40.3065 37.3262C40.3065 37.4668 40.2753 37.5458 40.1577 37.6632L39.6312 38.1967C39.5056 38.322 39.4344 38.3532 39.3328 38.3532C39.2072 38.3532 39.1048 38.2669 39.0576 38.0473C38.4607 35.2635 37.5575 31.8145 37.3214 30.857C37.2662 30.6462 37.227 30.528 37.1014 30.528C36.9918 30.528 36.9526 30.6063 36.9526 30.7005C36.9526 30.7708 36.9678 30.857 36.9758 30.9201C37.1174 31.9079 37.6911 35.5071 38.3111 38.7924C38.4215 39.357 38.6335 39.67 39.1208 39.67C39.3408 39.67 39.552 39.5838 39.7488 39.3961C40.0713 39.0743 40.1649 38.988 40.5505 38.6119C40.8249 38.3452 41.0137 38.2358 41.485 38.2358H42.6475C42.9227 38.2358 43.0715 38.1655 43.2051 38.0393C43.3307 37.922 43.4091 37.7574 43.4091 37.5219C43.4091 37.2791 43.3467 37.0835 43.2603 36.8399C42.9619 36.0405 42.0034 33.335 41.7202 32.5747L41.7442 32.5588C42.7259 33.3038 44.1556 34.2525 44.7845 34.2525C44.9805 34.2525 45.0989 34.1663 45.0989 33.8604C45.0989 32.4182 42.6947 26.4824 37.2038 18.3123Z" fill="#939CA1"/>
<path d="M10.2361 9.20121C10.4009 8.84025 10.7625 8.5895 11.1946 8.5895C11.7834 8.5895 12.2547 9.04469 12.2547 9.6484C12.2547 10.0006 12.0899 10.3072 11.8306 10.4949C11.8858 10.6993 11.925 10.879 11.925 11.0515C11.925 11.7103 11.5322 12.1727 10.8097 12.4162C10.7153 12.8155 10.5425 13.1765 10.2593 13.4432C9.78806 13.8976 9.30882 13.8976 9.30882 14.0861C9.30882 14.1883 9.38003 14.2506 9.57605 14.2506C10.4481 14.2506 11.3042 13.765 11.4066 12.9569C12.2395 12.675 12.7419 11.8357 12.7419 11.1697C12.7419 10.9964 12.7259 10.8479 12.6555 10.7073C12.8835 10.4869 13.1507 10.1108 13.1507 9.55417C13.1507 9.06784 12.9379 8.57433 12.5611 8.21338C12.2315 7.89155 11.7674 7.67993 11.2258 7.67993C10.4401 7.67993 9.92968 8.10397 9.63925 8.51923C8.78238 8.51923 7.67509 9.46793 7.67509 10.8247H7.55748C7.47828 10.3543 6.99184 10.0397 6.583 10.0165C6.25337 9.02871 5.50691 8.18223 4.28121 8.18223C4.1404 8.18223 3.96759 8.19022 3.81798 8.21338C3.45715 7.88357 3.05631 7.67993 2.49867 7.67993C1.42978 7.67993 0.557709 8.5352 0.557709 9.61646C0.557709 10.2913 0.864134 10.7536 1.44578 11.1617C1.44578 11.1617 1.43778 11.2479 1.43778 11.2871C1.43778 12.1495 2.38026 13.4983 3.77877 13.4983C3.77877 13.7171 4.05399 14.0158 4.36042 14.0701V14.1803H4.24201C2.31785 14.1803 1.50099 15.1058 1.50099 15.7247C0.927339 15.9603 0.557709 16.5952 0.557709 17.1829C0.557709 18.3512 1.41458 19.1825 2.54587 19.1825C2.9227 19.1825 3.30753 19.034 3.57476 18.8296C3.77077 18.8998 4.02199 18.939 4.28121 18.939C4.82366 18.939 5.42851 18.7513 5.85254 18.1316C5.91575 18.1396 5.97015 18.1396 6.03336 18.1396C6.72461 18.1396 7.32146 17.6844 7.63589 17.0887C7.71429 16.9401 7.7455 16.8228 7.7455 16.7357C7.7455 16.6503 7.70629 16.5792 7.61989 16.5792C7.51028 16.5792 7.49428 16.6814 7.29826 16.8619C6.85822 17.262 6.18217 17.4105 5.49091 17.4105C5.15328 17.9048 4.73725 18.1635 4.25801 18.1635C3.90438 18.1635 3.62996 18.0693 3.34674 17.8809C3.11872 18.1316 2.8363 18.2338 2.56107 18.2338C1.94102 18.2338 1.50099 17.8026 1.50099 17.1749C1.50099 16.7357 1.78341 16.3444 2.17624 16.1951C2.24665 15.4189 3.07951 14.8934 4.1164 14.8934C4.25001 14.8934 4.38362 14.9014 4.52523 14.9174C4.68205 14.6666 5.05888 14.3999 5.59332 14.3288C5.70373 14.3136 5.78934 14.3057 5.85254 14.2745C5.91575 14.2426 5.94695 14.1803 5.94695 14.1092C5.94695 14.0469 5.92295 13.9918 5.86054 13.9527C5.80534 13.9215 5.71093 13.9064 5.60132 13.8824C5.10608 13.7882 4.51723 13.4823 4.21881 12.7373C3.03231 12.7373 2.16024 11.7886 2.16024 10.7225V10.6522C1.76741 10.4949 1.50099 10.1188 1.50099 9.67156C1.50099 9.08382 1.96422 8.61346 2.55307 8.61346C2.9067 8.61346 3.21313 8.78595 3.40994 9.04469C3.57476 8.99757 3.76277 8.9816 3.94359 8.9816C4.82366 8.9816 5.76613 9.5382 5.94695 10.6203C7.07824 10.7225 7.34546 11.6792 7.41587 12.0792C7.45507 12.2829 7.48628 12.4554 7.61989 12.4554C7.7615 12.4554 7.7927 12.2981 7.8399 12.0864C7.92631 11.6872 8.07592 11.3653 8.37435 11.1146C8.37435 10.0868 9.14401 9.20121 10.2361 9.20121Z" fill="#939CA1"/>
<path d="M12.5219 15.3482C12.1523 15.8737 11.8859 16.1324 11.045 17.1203C9.93771 18.4299 9.35606 19.4888 8.38958 21.8406C8.54719 21.8246 8.77521 21.8095 9.02643 21.8095C9.15204 21.8095 9.25365 21.8095 9.41927 21.8166L9.53688 21.5659C10.0793 20.4056 10.809 18.8372 11.8307 17.6297L12.1843 17.2145C13.2364 15.9839 13.8884 15.254 14.2973 13.5762C14.4389 12.9805 14.5565 12.4478 14.9573 12.0629C15.3181 11.7179 15.7742 11.5694 16.2374 11.5694C16.6303 11.5694 16.9215 11.6636 17.3455 11.8433C17.7303 12.0078 17.8712 12.0398 18.28 12.0398C18.4216 12.0398 18.5232 12.0318 18.6176 12.0238L18.068 12.7609L18.8144 13.2863C17.8792 13.5602 17.3847 14.4626 17.2191 14.8779C17.1879 14.9641 17.1727 15.0192 17.1727 15.0743C17.1727 15.1374 17.2039 15.1997 17.2983 15.1997C17.3999 15.1997 17.4783 15.1214 17.6119 14.9641C18.068 14.4155 18.4296 14.0386 20.1097 13.5139L18.924 12.6195L19.8193 11.3107H18.9792C18.4448 11.3107 18.0912 11.3027 17.6279 11.0911C16.9991 10.8012 16.6775 10.6758 16.1198 10.6758C15.4366 10.6758 14.8157 10.9186 14.3053 11.3889C13.7156 11.9296 13.5348 12.6515 13.3236 13.4436C13.158 14.0546 12.962 14.7293 12.5219 15.3482Z" fill="#939CA1"/>
<path d="M14.3286 20.6878C13.8806 21.2915 13.2677 22.0829 12.7965 22.9222C12.9461 22.9933 13.4413 23.26 13.6142 23.3534C14.1558 22.5381 14.9103 21.5351 15.4047 20.7741C15.8527 20.0841 16.0335 19.7862 16.0648 18.8607C16.0728 18.7042 16.0728 18.5548 16.088 18.4063C16.1272 17.928 16.2536 17.4416 16.7088 16.9952C17.0464 16.6574 17.5337 16.4857 18.0209 16.4857C18.4921 16.4857 18.7666 16.6183 19.1754 16.6183C19.4658 16.6183 19.6778 16.548 19.8667 16.4778L20.0163 16.4227L19.6546 17.2859L20.5027 17.6301C19.9611 17.9671 18.7746 19.4181 18.7746 21.135C18.7746 21.7547 18.869 22.3265 19.0026 22.836C19.0186 22.8911 19.0498 22.9462 19.1362 22.9462C19.2146 22.9462 19.2698 22.8991 19.2778 22.8128L19.2858 22.6323C19.309 22.1069 19.3482 21.2764 19.5602 20.5313C19.9139 19.2767 20.8643 18.1004 21.8148 17.5359L20.4635 16.9481L21.0452 15.5291L20.4091 15.6624C20.0243 15.7407 19.7411 15.811 19.4034 15.811C19.1834 15.811 18.9322 15.7798 18.6338 15.7087C18.4057 15.6544 18.1617 15.6073 17.8169 15.6073C17.196 15.6073 16.528 15.8421 16.0728 16.2813C15.2399 17.0735 15.1927 17.928 15.1375 18.689C15.0671 19.7 14.8783 19.9507 14.3286 20.6878Z" fill="#939CA1"/>
<path d="M34.4858 21.166C34.4306 21.0957 34.3834 21.0638 34.321 21.0638C34.2265 21.0638 34.1793 21.1269 34.1793 21.1972C34.1793 21.3074 34.2577 21.4407 34.4546 21.7705C35.0514 22.7815 35.7899 23.8005 36.7011 24.758C37.6828 25.8001 38.8373 26.772 40.071 27.6424L40.4559 27.9091C40.5111 27.9491 40.5503 27.9722 40.5975 27.9722C40.6759 27.9722 40.7311 27.894 40.7311 27.8309C40.7311 27.7917 40.7151 27.7518 40.6679 27.7127C39.5214 26.6706 38.2877 25.4 37.1332 24.1774C36.2291 23.2127 35.3026 22.1938 34.4858 21.166Z" fill="#939CA1"/>
<path d="M9.20692 17.6144C9.32453 17.4187 9.67816 16.9404 9.81977 16.791C9.21492 15.5684 8.22524 14.4001 7.79321 13.9369L7.43158 14.2899C7.84841 14.8936 8.54687 16.0619 9.20692 17.6144Z" fill="#939CA1"/>
<path d="M3.44892 10.5343C3.37772 10.4712 3.36251 10.4321 3.36251 10.385C3.36251 10.3307 3.40172 10.2676 3.48813 10.2676C3.51933 10.2676 3.55053 10.2756 3.59053 10.2916C4.17138 10.5263 4.66662 10.801 5.10666 11.138C5.47549 11.4199 5.83712 11.7657 6.18995 12.181L5.86032 12.5571C5.45229 12.2193 4.13218 11.1149 3.44892 10.5343Z" fill="#939CA1"/>
<path d="M9.01844 13.1609L8.59441 12.9022C8.86883 12.2513 9.20726 11.6556 9.60729 11.2084C9.89051 10.8874 10.1577 10.6279 10.4562 10.3699C10.5266 10.3148 10.5658 10.2677 10.6362 10.2677C10.7154 10.2677 10.7706 10.3308 10.7706 10.3931C10.7706 10.4242 10.7546 10.4634 10.7234 10.5105C10.2441 11.2555 9.30887 12.7297 9.01844 13.1609Z" fill="#939CA1"/>
<path d="M3.69252 16.7988C3.59011 16.8379 3.54291 16.8619 3.48851 16.8619C3.4021 16.8619 3.3621 16.7908 3.3621 16.7357C3.3621 16.6814 3.3861 16.6503 3.4413 16.6024C4.40698 15.8501 5.25585 15.5522 6.42635 15.3558L6.56716 15.827L3.69252 16.7988Z" fill="#939CA1"/>
<path d="M23.8415 10.7148C23.8415 10.4401 23.9832 9.94577 24.4936 9.94577C24.6664 9.94577 24.8312 9.9849 24.9648 10.048C25.1537 10.1342 25.2793 10.2596 25.2793 10.393C25.2793 10.5343 25.1377 10.6757 24.9256 10.8482C24.7056 11.0278 24.4232 11.1931 24.1952 11.1931C23.9208 11.1931 23.8415 10.9336 23.8415 10.7148Z" fill="#939CA1"/>
<path d="M15.8683 13.0041C15.8683 12.6671 16.0723 12.2981 16.4652 12.2981C16.638 12.2981 16.842 12.3684 16.9916 12.5106C17.078 12.5888 17.1172 12.6743 17.1172 12.7613C17.1172 12.9498 16.9364 13.1294 16.7244 13.2548C16.5596 13.3491 16.3868 13.4121 16.238 13.4121C15.9939 13.4121 15.8683 13.262 15.8683 13.0041Z" fill="#939CA1"/>
<path d="M17.7144 17.8419C17.7144 17.7636 17.7224 17.6694 17.7536 17.5752C17.8168 17.3715 17.9496 17.1751 18.28 17.1751C18.4297 17.1751 18.5937 17.2142 18.7273 17.3093C18.8457 17.3875 18.8929 17.4889 18.8929 17.5911C18.8929 17.9281 18.3273 18.3202 18.044 18.3202C17.84 18.3202 17.7144 18.1238 17.7144 17.8419Z" fill="#939CA1"/>
<path d="M14.6193 27.7366C13.5592 27.7366 13.0872 27.2351 13.0872 26.6002C13.0872 25.4862 15.0434 24.397 16.8027 23.7222L17.2587 24.3107C16.1747 24.7412 13.9913 25.6675 13.9913 26.4669C13.9913 26.7488 14.1561 26.9532 14.8153 26.9532C15.9626 26.9532 17.1963 26.3958 18.3348 25.8392C18.4212 25.8001 18.5236 25.7609 18.6181 25.7609C18.7669 25.7609 18.8613 25.808 18.9709 25.9646L19.1597 26.2233C17.8324 26.9532 16.1747 27.7366 14.6193 27.7366Z" fill="#939CA1"/>
<path d="M17.5417 28.0349C16.5048 28.6146 15.4287 28.9995 14.4782 28.9995C13.4174 28.9995 12.4749 28.5444 11.6892 27.3601C11.3596 26.8586 11.1004 26.2317 10.7859 25.6751C10.4091 25.0163 10.0003 24.6633 9.28582 24.6633C8.63376 24.6633 7.99691 24.93 7.32166 25.2199L7.35286 25.3693C7.40806 25.612 7.50247 25.7845 7.72969 25.7845C7.8321 25.7845 7.93451 25.7382 7.98971 25.7222C8.36654 25.604 8.64097 25.5018 9.0266 25.5018C9.61545 25.5018 9.89787 25.8476 10.2987 26.6941L10.4483 27.0079C10.0395 27.1493 9.081 27.2195 8.36654 27.2195H8.02891L8.08412 27.5565C8.10732 27.6979 8.16253 27.8153 8.28014 27.8704C8.42095 27.9406 8.62576 27.9486 8.97939 27.9486C9.87467 27.9486 10.5267 27.8392 10.9036 27.7442C11.87 29.18 13.1973 29.7286 14.4782 29.7286C15.5695 29.7286 16.6776 29.3286 17.7385 28.7488L17.5417 28.0349Z" fill="#939CA1"/>
<path d="M18.6098 28.3877L18.4218 27.6658C20.0395 26.7962 21.5164 26.0982 23.8734 25.8706C23.9206 26.7722 23.8574 27.9094 24.5255 27.9094C25.1375 27.9094 26.4728 26.333 28.013 24.3573C28.1546 24.4907 28.3818 24.632 28.5866 24.7886L28.1938 25.298C26.6928 27.2274 25.4127 28.874 24.3599 28.874C23.3782 28.874 23.0085 27.7209 22.9933 26.8584C21.4932 27.0078 20.0787 27.5093 18.6098 28.3877Z" fill="#939CA1"/>
<path d="M39.3955 12.6512C38.7827 12.6512 38.6099 12.3134 38.6099 11.8359C38.6099 10.8481 39.2307 9.42902 39.6236 8.62086H38.6723C38.1778 9.57755 36.2297 12.6433 35.1768 13.9138L35.7816 14.5638C36.3473 13.9369 36.9681 12.8709 37.6434 11.8199H37.769C37.769 11.875 37.7618 11.9373 37.7618 11.9924C37.7618 12.8788 38.217 13.5369 39.3403 13.5369C40.0316 13.5369 41.1157 13.1919 42.1374 12.8469C42.9854 12.557 43.7631 12.2591 44.1479 12.1497V11.209C43.7079 11.3416 42.8126 11.6866 41.8853 12.0084C40.9117 12.3454 39.9532 12.6512 39.3955 12.6512Z" fill="#939CA1"/>
<path d="M41.4928 15.4973C42.4352 15.098 44.1242 14.4232 45.0987 14.0702V13.1135C43.1425 13.8354 39.7094 15.2545 37.3684 16.525C37.4316 16.6025 37.8405 17.175 37.8869 17.2461C38.8765 16.8381 39.7646 16.5713 40.5655 16.5713C41.6896 16.5713 42.6081 16.5713 44.1482 16.2104V15.4893C43.2841 15.6466 42.3648 15.8343 41.768 15.8343C41.4144 15.8343 41.3119 15.7871 41.3119 15.6697C41.3119 15.5995 41.3591 15.5524 41.4928 15.4973Z" fill="#939CA1"/>
<path d="M21.367 19.9037L20.9894 20.6256H25.0041L24.7057 19.9037H21.367Z" fill="#939CA1"/>
<path d="M6.90519 24.2084C7.32922 24.2084 7.67485 24.067 8.00528 23.9345C8.3189 23.8083 8.63333 23.6829 9.05736 23.6829C10.063 23.6829 11.3039 24.1692 12.396 24.6316C12.4592 24.6556 12.5296 24.6707 12.6001 24.6707C12.7737 24.6707 12.9073 24.5925 12.9929 24.428L13.1345 24.1692C11.9328 23.4713 10.0158 22.7262 9.01816 22.7262C8.56292 22.7262 8.2325 22.8444 7.91887 22.969C7.56524 23.1111 7.25882 23.2597 6.93639 23.2597C6.14353 23.2597 4.10896 22.4755 4.10896 21.7152C4.10896 20.8216 7.34522 20.4767 7.69885 20.4767L8.02048 19.7468C5.67229 19.7468 2.87526 20.5701 2.87526 21.6601C2.87526 21.974 3.05607 22.1305 3.05607 22.4204C3.05607 22.8125 2.87526 23.0792 2.87526 23.5184C2.87526 23.8083 3.04807 24.1772 3.25209 24.4991C3.47211 24.836 3.73133 25.0549 3.73133 25.3375C3.73133 25.5492 3.59052 25.7999 3.59052 26.2942C3.59052 27.3523 4.19537 27.996 5.37306 29.2577L5.60908 29.5085C4.6354 29.8854 2.82005 30.6696 2.39602 30.8493C0.927099 31.461 0.558268 32.206 0.558268 33.3823C0.558268 33.8367 0.558268 34.3542 0.589471 34.8166H0.871894C1.46154 34.8166 1.53195 34.4644 1.53195 34.1274C1.53195 33.8998 1.52395 33.6411 1.52395 33.3584C1.53195 32.7083 1.55595 32.1278 2.60804 31.6574C3.03287 31.469 5.11384 30.6225 6.66197 29.9637C7.11721 29.7672 7.54124 29.6027 8.01248 29.6027C8.53892 29.6027 9.14377 29.8303 9.89823 30.2775C10.5343 30.6536 11.2023 31.1631 11.7288 31.7509L12.396 31.2414C11.8224 30.5674 11.0295 29.9637 10.2359 29.4933C9.4422 29.0229 8.73574 28.7482 8.13889 28.7482C7.87967 28.7482 7.66765 28.7954 7.48684 28.8425C7.27482 28.8976 7.078 28.9599 6.82678 28.9599C6.53636 28.9599 6.29234 28.8896 5.93871 28.4815C5.8051 28.333 4.95703 27.3683 4.77621 27.0864C4.68981 26.9531 4.53299 26.6863 4.53299 26.3725C4.53299 26.2391 4.5562 26.0826 4.6354 25.9413C5.36506 26.5059 6.26914 26.8508 7.36843 26.9842L7.21961 26.2391C5.64028 25.8239 3.95935 24.436 3.95935 23.5424C3.95935 23.3539 4.00655 23.2205 4.07776 23.056C4.68981 23.6206 6.12752 24.2084 6.90519 24.2084Z" fill="#939CA1"/>
<path d="M18.2094 24.3498C19.1991 23.6518 20.22 23.5736 21.0449 23.5736C21.5401 23.5736 22.1209 23.6438 22.7338 23.7221C23.229 23.7852 23.6763 23.8323 24.2107 23.8323C25.2868 23.8323 26.3709 23.4402 26.8421 23.2358C26.9757 23.4011 27.2038 23.6207 27.3846 23.7772C27.1566 23.9186 25.7116 24.7019 24.2347 24.7019C23.5827 24.7019 22.9618 24.6245 22.4274 24.5534C21.9561 24.4911 21.4457 24.436 20.9505 24.436C20.4088 24.436 19.3167 24.5925 18.6415 24.9144L18.2094 24.3498Z" fill="#939CA1"/>
<path d="M32.7968 27.1489C31.6183 29.6269 29.827 31.43 27.9892 32.473C27.1172 32.9665 26.3315 33.2883 24.6354 33.2883H20.9663C19.6549 33.2883 18.8301 33.4608 18.186 33.6253C17.494 33.8058 17.0547 33.9854 16.3555 33.9854C15.3186 33.9854 14.3601 33.476 13.8969 32.9904L14.7609 32.3084L14.3289 31.7351C14.0777 31.9164 11.0062 34.1819 10.3614 34.6914L10.3222 34.6682C10.3382 34.5117 10.3382 34.3704 10.3382 34.229C10.3382 32.5041 9.53652 32.088 8.31962 31.6025L7.49475 32.088C9.16769 32.6454 9.58372 33.0918 9.58372 34.3384C9.58372 35.327 9.23009 35.7183 8.71965 36.017C8.19321 36.3229 7.54115 36.4634 6.9683 36.4634C6.72428 36.4634 6.61468 36.5105 6.52827 36.5968C6.43386 36.691 6.38666 36.8323 6.38666 37.028V37.3027H6.58347C7.63556 37.3027 8.61004 37.1382 9.67813 36.2989L13.1584 33.5862C13.6529 34.1507 14.9026 34.9349 16.3787 34.9349C17.2115 34.9349 17.746 34.7305 18.5156 34.5349C19.1125 34.3855 19.6941 34.2522 20.9663 34.2522H24.6506C26.5363 34.2522 27.4476 33.8601 28.4525 33.2963C30.6366 32.0729 32.4984 30.003 33.5513 27.6264C33.2761 27.4547 33.0168 27.2974 32.7968 27.1489Z" fill="#939CA1"/>
<path d="M26.8817 30.0971C27.8322 28.5758 28.6803 27.227 30.762 26.1298C30.542 25.9964 30.2284 25.7928 30.0628 25.6826C29.2539 26.0356 28.453 26.7407 27.7698 27.4546C26.1984 29.0853 26.3393 30.026 24.6823 30.6617C24.2655 30.8182 23.755 30.9907 23.103 31.14C22.7182 29.9557 21.7525 28.7795 20.7308 28.7795C20.0235 28.7795 19.2067 29.1476 18.2642 29.5636C17.1569 30.05 16.1432 30.6066 15.8216 30.8182L16.2536 31.3988C16.5833 31.2175 17.5337 30.7471 18.4842 30.3399C19.3091 29.9869 20.0555 29.697 20.558 29.697C21.3669 29.697 21.8933 30.6146 22.1845 31.3508C21.1236 31.6024 19.3795 31.6647 18.8538 31.6647C18.6098 31.6647 18.5234 31.7038 18.437 31.7749C18.3586 31.8452 18.2954 31.9705 18.2562 32.143L18.1938 32.4097H18.7586C21.6973 32.4097 24.4703 31.9474 26.2529 30.8653C26.5049 30.9364 26.7249 30.9827 27.0073 30.9827C28.0282 30.9827 29.0811 30.4261 29.7411 29.9166C29.9764 29.7361 30.0316 29.5708 30.0316 29.3912C30.0316 29.3049 30.0236 29.2267 30.0156 29.1476L29.9844 28.8425C29.0419 29.5868 28.2562 30.1442 27.2825 30.1442C27.1097 30.1442 26.9841 30.1282 26.8817 30.0971Z" fill="#939CA1"/>
</svg>
