<svg width="115" height="25" viewBox="0 0 115 25" fill="none" xmlns="http://www.w3.org/2000/svg">
<path d="M34.5092 4.44491C34.1097 2.96095 32.9397 1.79092 31.4557 1.39139C28.7446 0.649414 17.9004 0.649414 17.9004 0.649414C17.9004 0.649414 7.05614 0.649414 4.34508 1.36285C2.88966 1.76238 1.69109 2.96095 1.29156 4.44491C0.578125 7.15597 0.578125 12.7779 0.578125 12.7779C0.578125 12.7779 0.578125 18.4283 1.29156 21.1108C1.69109 22.5948 2.86113 23.7648 4.34508 24.1643C7.08468 24.9063 17.9004 24.9063 17.9004 24.9063C17.9004 24.9063 28.7446 24.9063 31.4557 24.1929C32.9397 23.7934 34.1097 22.6233 34.5092 21.1394C35.2227 18.4283 35.2227 12.8064 35.2227 12.8064C35.2227 12.8064 35.2512 7.15597 34.5092 4.44491Z" fill="#6B7280"/>
<path d="M14.4473 7.58399V17.9716L23.4653 12.7778L14.4473 7.58399Z" fill="white"/>
<path d="M56.1621 21.7957C55.4771 21.3391 54.992 20.6257 54.7066 19.6269C54.4213 18.6566 54.2786 17.3439 54.2786 15.7458V13.5484C54.2786 11.9218 54.4498 10.609 54.7637 9.61022C55.1062 8.61141 55.6198 7.89797 56.3047 7.44137C57.0182 6.98477 57.9314 6.75647 59.0729 6.75647C60.1858 6.75647 61.099 6.98477 61.7839 7.44137C62.4688 7.89797 62.954 8.63995 63.2679 9.61022C63.5818 10.5805 63.753 11.8932 63.753 13.5484V15.7458C63.753 17.3724 63.6103 18.6566 63.2964 19.6554C62.9825 20.6257 62.4974 21.3676 61.8125 21.8242C61.1276 22.2808 60.1858 22.5091 59.0158 22.5091C57.8172 22.4806 56.847 22.2523 56.1621 21.7957ZM60.0146 19.3986C60.2144 18.9134 60.3 18.0858 60.3 16.9729V12.2357C60.3 11.1512 60.2144 10.3522 60.0146 9.83852C59.8149 9.32484 59.5009 9.09655 59.0158 9.09655C58.5592 9.09655 58.2168 9.35338 58.0455 9.83852C57.8458 10.3522 57.7601 11.1512 57.7601 12.2357V16.9729C57.7601 18.0858 57.8458 18.9134 58.0455 19.3986C58.2168 19.8837 58.5592 20.1405 59.0443 20.1405C59.5009 20.1405 59.8149 19.9122 60.0146 19.3986Z" fill="#6B7280"/>
<path d="M108.842 16.5448C108.842 17.5151 108.871 18.2571 108.928 18.7422C108.985 19.2274 109.099 19.5983 109.299 19.7981C109.47 20.0264 109.755 20.1406 110.155 20.1406C110.669 20.1406 111.011 19.9408 111.211 19.5413C111.411 19.1417 111.496 18.4854 111.525 17.5436L114.464 17.7149C114.493 17.8576 114.493 18.0288 114.493 18.2571C114.493 19.6554 114.122 20.7113 113.351 21.3962C112.581 22.0811 111.496 22.4236 110.098 22.4236C108.414 22.4236 107.244 21.8813 106.559 20.8255C105.874 19.7696 105.532 18.1429 105.532 15.917V13.263C105.532 10.98 105.874 9.32482 106.588 8.26894C107.301 7.21305 108.5 6.69937 110.183 6.69937C111.353 6.69937 112.267 6.92767 112.894 7.35573C113.522 7.7838 113.95 8.4687 114.207 9.35336C114.464 10.2666 114.578 11.5222 114.578 13.1203V15.7172H108.842V16.5448ZM109.27 9.3819C109.099 9.6102 108.985 9.95265 108.928 10.4378C108.871 10.9229 108.842 11.6649 108.842 12.6637V13.7481H111.353V12.6637C111.353 11.6934 111.325 10.9515 111.268 10.4378C111.211 9.92411 111.068 9.58166 110.897 9.3819C110.726 9.18214 110.44 9.06799 110.098 9.06799C109.698 9.03945 109.442 9.1536 109.27 9.3819Z" fill="#6B7280"/>
<path d="M47.829 15.4889L43.9479 1.4199H47.3438L48.7136 7.78377C49.0561 9.35334 49.3129 10.6946 49.4841 11.8076H49.5698C49.6839 11.0085 49.9408 9.69579 50.3403 7.81231L51.7672 1.4199H55.1631L51.2249 15.4889V22.2238H47.8575V15.4889H47.829Z" fill="#6B7280"/>
<path d="M74.7969 7.04183V22.2523H72.1144L71.829 20.3974H71.7434C71.03 21.7957 69.917 22.5092 68.4616 22.5092C67.4628 22.5092 66.7208 22.1667 66.2357 21.5103C65.7506 20.854 65.5223 19.8266 65.5223 18.3998V7.04183H68.9467V18.2C68.9467 18.8849 69.0323 19.37 69.175 19.6554C69.3177 19.9408 69.5746 20.0835 69.917 20.0835C70.2024 20.0835 70.4878 19.9979 70.7731 19.7981C71.0585 19.6269 71.2583 19.3986 71.3724 19.1132V7.04183H74.7969Z" fill="#6B7280"/>
<path d="M92.3475 7.04183V22.2523H89.665L89.3796 20.3974H89.294C88.5806 21.7957 87.4676 22.5092 86.0122 22.5092C85.0134 22.5092 84.2714 22.1667 83.7862 21.5103C83.3011 20.854 83.0728 19.8266 83.0728 18.3998V7.04183H86.4973V18.2C86.4973 18.8849 86.5829 19.37 86.7256 19.6554C86.8683 19.9408 87.1251 20.0835 87.4676 20.0835C87.753 20.0835 88.0384 19.9979 88.3237 19.7981C88.6091 19.6269 88.8089 19.3986 88.923 19.1132V7.04183H92.3475Z" fill="#6B7280"/>
<path d="M84.1 4.18804H80.7041V22.2238H77.3652V4.18804H73.9693V1.4199H84.1V4.18804Z" fill="#6B7280"/>
<path d="M103.677 9.46751C103.477 8.49724 103.135 7.81234 102.678 7.38427C102.221 6.95621 101.565 6.72791 100.766 6.72791C100.138 6.72791 99.5389 6.89914 98.9967 7.27012C98.4545 7.61257 98.0264 8.09771 97.741 8.66846H97.7125V0.649414H94.4021V22.2238H97.2273L97.5698 20.7969H97.6554C97.9122 21.3106 98.3118 21.7101 98.854 22.024C99.3962 22.3094 99.9669 22.4806 100.623 22.4806C101.793 22.4806 102.621 21.9384 103.163 20.8825C103.705 19.8266 103.991 18.1429 103.991 15.8885V13.4913C103.962 11.7505 103.877 10.4093 103.677 9.46751ZM100.538 15.6602C100.538 16.7731 100.481 17.6293 100.395 18.2571C100.309 18.8849 100.138 19.3415 99.9384 19.5983C99.7101 19.8552 99.4247 19.9979 99.0823 19.9979C98.7969 19.9979 98.5401 19.9408 98.3118 19.7981C98.0835 19.6554 97.8837 19.4557 97.741 19.1988V10.5805C97.8552 10.181 98.0549 9.8385 98.3403 9.55313C98.6257 9.29629 98.9396 9.1536 99.2535 9.1536C99.5959 9.1536 99.8813 9.29629 100.053 9.55313C100.252 9.8385 100.366 10.2951 100.452 10.9229C100.538 11.5793 100.566 12.4925 100.566 13.6625V15.6602H100.538Z" fill="#6B7280"/>
</svg>
