<svg width="24" height="24" viewBox="0 0 24 24" fill="none" xmlns="http://www.w3.org/2000/svg">
<path d="M16 12C16 10.9391 15.5786 9.92172 14.8284 9.17158C14.0783 8.42143 13.0609 8 12 8C10.9391 8 9.92172 8.42143 9.17158 9.17158C8.42143 9.92172 8 10.9391 8 12C8 13.0609 8.42143 14.0783 9.17158 14.8284C9.92172 15.5786 10.9391 16 12 16C13.0609 16 14.0783 15.5786 14.8284 14.8284C15.5786 14.0783 16 13.0609 16 12ZM16 12V13.5C16 14.163 16.2634 14.7989 16.7322 15.2678C17.2011 15.7366 17.837 16 18.5 16C19.163 16 19.7989 15.7366 20.2678 15.2678C20.7366 14.7989 21 14.163 21 13.5V12C21 10.22 20.4722 8.47991 19.4832 6.99987C18.4943 5.51983 17.0887 4.36628 15.4442 3.68509C13.7996 3.0039 11.99 2.82567 10.2442 3.17294C8.49836 3.5202 6.89472 4.37737 5.63604 5.63604C4.37737 6.89472 3.5202 8.49836 3.17294 10.2442C2.82567 11.99 3.0039 13.7996 3.68509 15.4442C4.36628 17.0887 5.51983 18.4943 6.99987 19.4832C8.47991 20.4722 10.22 21 12 21C13.5802 21.0016 15.1327 20.5862 16.5 19.794" stroke="#111928" stroke-width="2" stroke-linecap="round" stroke-linejoin="round"/>
</svg>
