<svg width="24" height="24" viewBox="0 0 24 24" fill="none" xmlns="http://www.w3.org/2000/svg">
<path d="M12 14L14 12M14 12L16 10M14 12L12 10M14 12L16 14M3 12L9.414 18.414C9.78899 18.7891 10.2976 18.9999 10.828 19H19C19.5304 19 20.0391 18.7893 20.4142 18.4142C20.7893 18.0391 21 17.5304 21 17V7C21 6.46957 20.7893 5.96086 20.4142 5.58579C20.0391 5.21071 19.5304 5 19 5H10.828C10.2976 5.00011 9.78899 5.2109 9.414 5.586L3 12Z" stroke="#111928" stroke-width="2" stroke-linecap="round" stroke-linejoin="round"/>
</svg>
