<svg width="24" height="24" viewBox="0 0 24 24" fill="none" xmlns="http://www.w3.org/2000/svg">
<path d="M19.428 15.428C19.1488 15.1488 18.7932 14.9584 18.406 14.881L16.019 14.404C14.7107 14.1424 13.3524 14.3243 12.159 14.921L11.841 15.079C10.6476 15.6757 9.28938 15.8576 7.98102 15.596L6.05002 15.21C5.72722 15.1455 5.39349 15.1617 5.07845 15.2571C4.76341 15.3525 4.47678 15.5242 4.24402 15.757M8.00002 4H16L15 5V10.172C15.0001 10.7024 15.2109 11.211 15.586 11.586L20.586 16.586C21.846 17.846 20.953 20 19.171 20H4.82802C3.04602 20 2.15402 17.846 3.41402 16.586L8.41402 11.586C8.78911 11.211 8.9999 10.7024 9.00002 10.172V5L8.00002 4Z" stroke="#111928" stroke-width="2" stroke-linecap="round" stroke-linejoin="round"/>
</svg>
