<svg width="24" height="24" viewBox="0 0 24 24" fill="none" xmlns="http://www.w3.org/2000/svg">
<path d="M3.58579 7.58579C3.21071 7.96086 3 8.46957 3 9V18C3 18.5304 3.21071 19.0391 3.58579 19.4142C3.96086 19.7893 4.46957 20 5 20H19C19.5304 20 20.0391 19.7893 20.4142 19.4142C20.7893 19.0391 21 18.5304 21 18V9C21 8.46957 20.7893 7.96086 20.4142 7.58579C20.0391 7.21071 19.5304 7 19 7H18.07C17.7408 7.00005 17.4167 6.91884 17.1264 6.76359C16.8362 6.60834 16.5887 6.38383 16.406 6.11L15.594 4.89C15.4113 4.61617 15.1638 4.39166 14.8736 4.23641C14.5833 4.08116 14.2592 3.99995 13.93 4H10.07C9.74082 3.99995 9.41671 4.08116 9.12643 4.23641C8.83616 4.39166 8.5887 4.61617 8.406 4.89L7.594 6.11C7.4113 6.38383 7.16384 6.60834 6.87357 6.76359C6.58329 6.91884 6.25918 7.00005 5.93 7H5C4.46957 7 3.96086 7.21071 3.58579 7.58579Z" stroke="#111928" stroke-width="2" stroke-linecap="round" stroke-linejoin="round"/>
<path d="M14.1213 15.1213C14.6839 14.5587 15 13.7956 15 13C15 12.2044 14.6839 11.4413 14.1213 10.8787C13.5587 10.3161 12.7956 10 12 10C11.2044 10 10.4413 10.3161 9.87868 10.8787C9.31607 11.4413 9 12.2044 9 13C9 13.7956 9.31607 14.5587 9.87868 15.1213C10.4413 15.6839 11.2044 16 12 16C12.7956 16 13.5587 15.6839 14.1213 15.1213Z" stroke="#111928" stroke-width="2" stroke-linecap="round" stroke-linejoin="round"/>
</svg>
