<svg width="24" height="24" viewBox="0 0 24 24" fill="none" xmlns="http://www.w3.org/2000/svg">
<path d="M6.39241 4.95929C7.71833 3.90338 9.31546 3.24331 11 3.05505V13.0001H20.945C20.7567 14.6846 20.0966 16.2817 19.0407 17.6076C17.9848 18.9335 16.576 19.9344 14.9763 20.4949C13.3767 21.0555 11.6513 21.1529 9.99874 20.7761C8.34615 20.3993 6.83354 19.5636 5.63499 18.365C4.43644 17.1665 3.60068 15.6539 3.22388 14.0013C2.84708 12.3487 2.94456 10.6233 3.50511 9.02368C4.06566 7.42405 5.06649 6.0152 6.39241 4.95929Z" stroke="#111928" stroke-width="2" stroke-linecap="round" stroke-linejoin="round"/>
<path d="M15 8.99996H20.488C20.0391 7.73458 19.3135 6.5853 18.3641 5.6359C17.4147 4.6865 16.2654 3.96089 15 3.51196V8.99996Z" stroke="#111928" stroke-width="2" stroke-linecap="round" stroke-linejoin="round"/>
</svg>
