<svg width="24" height="24" viewBox="0 0 24 24" fill="none" xmlns="http://www.w3.org/2000/svg">
<path d="M4.17157 17.8284C3.42143 17.0783 3 16.0608 3 15C2.99995 14.0919 3.30881 13.2108 3.87581 12.5015C4.44281 11.7922 5.23422 11.2969 6.12 11.097C5.96791 10.4495 5.94648 9.77816 6.05696 9.12228C6.16745 8.4664 6.40763 7.83914 6.76345 7.27721C7.11927 6.71527 7.58359 6.22995 8.12924 5.84962C8.6749 5.4693 9.29092 5.20161 9.94127 5.06223C10.5916 4.92285 11.2632 4.91458 11.9168 5.03789C12.5704 5.1612 13.1928 5.41362 13.7477 5.78038C14.3026 6.14714 14.7787 6.62088 15.1483 7.17388C15.5178 7.72687 15.7734 8.34802 15.9 9.00098C16.5607 8.98776 17.2174 9.10564 17.8323 9.3478C18.4471 9.58996 19.0079 9.9516 19.4821 10.4118C19.9563 10.872 20.3346 11.4217 20.5951 12.029C20.8556 12.6363 20.9931 13.2892 20.9997 13.95C21.0064 14.6108 20.8819 15.2663 20.6336 15.8787C20.3853 16.4911 20.0181 17.0482 19.5532 17.5178C19.0882 17.9874 18.5348 18.3602 17.925 18.6146C17.3151 18.869 16.6608 19 16 19H7C5.93913 19 4.92172 18.5785 4.17157 17.8284Z" stroke="#111928" stroke-width="2" stroke-linecap="round" stroke-linejoin="round"/>
</svg>
