<svg width="24" height="24" viewBox="0 0 24 24" fill="none" xmlns="http://www.w3.org/2000/svg">
<path d="M13.675 4.317C13.249 2.561 10.751 2.561 10.325 4.317C10.049 5.452 8.749 5.99 7.753 5.382C6.209 4.442 4.443 6.209 5.383 7.752C5.5243 7.98375 5.60889 8.24559 5.62987 8.51621C5.65085 8.78683 5.60764 9.05859 5.50375 9.30935C5.39985 9.56011 5.23822 9.7828 5.032 9.95929C4.82578 10.1358 4.5808 10.2611 4.317 10.325C2.561 10.751 2.561 13.249 4.317 13.675C4.58056 13.7391 4.82529 13.8645 5.03127 14.0409C5.23726 14.2174 5.3987 14.44 5.50247 14.6906C5.60624 14.9412 5.64942 15.2128 5.62848 15.4832C5.60755 15.7537 5.5231 16.0153 5.382 16.247C4.442 17.791 6.209 19.557 7.752 18.617C7.98375 18.4757 8.24559 18.3911 8.51621 18.3701C8.78683 18.3491 9.05859 18.3924 9.30935 18.4963C9.56011 18.6001 9.7828 18.7618 9.95929 18.968C10.1358 19.1742 10.2611 19.4192 10.325 19.683C10.751 21.439 13.249 21.439 13.675 19.683C13.7391 19.4194 13.8645 19.1747 14.0409 18.9687C14.2174 18.7627 14.44 18.6013 14.6906 18.4975C14.9412 18.3938 15.2128 18.3506 15.4832 18.3715C15.7537 18.3924 16.0153 18.4769 16.247 18.618C17.791 19.558 19.557 17.791 18.617 16.248C18.4757 16.0162 18.3911 15.7544 18.3701 15.4838C18.3491 15.2132 18.3924 14.9414 18.4963 14.6907C18.6001 14.4399 18.7618 14.2172 18.968 14.0407C19.1742 13.8642 19.4192 13.7389 19.683 13.675C21.439 13.249 21.439 10.751 19.683 10.325C19.4194 10.2609 19.1747 10.1355 18.9687 9.95905C18.7627 9.78258 18.6013 9.55999 18.4975 9.30938C18.3938 9.05877 18.3506 8.78721 18.3715 8.51677C18.3924 8.24634 18.4769 7.98466 18.618 7.753C19.558 6.209 17.791 4.443 16.248 5.383C16.0162 5.5243 15.7544 5.60889 15.4838 5.62987C15.2132 5.65085 14.9414 5.60764 14.6907 5.50375C14.4399 5.39985 14.2172 5.23822 14.0407 5.032C13.8642 4.82578 13.7389 4.5808 13.675 4.317Z" stroke="#111928" stroke-width="2" stroke-linecap="round" stroke-linejoin="round"/>
<path d="M14.1213 14.1213C14.6839 13.5587 15 12.7956 15 12C15 11.2044 14.6839 10.4413 14.1213 9.87868C13.5587 9.31607 12.7956 9 12 9C11.2044 9 10.4413 9.31607 9.87868 9.87868C9.31607 10.4413 9 11.2044 9 12C9 12.7956 9.31607 13.5587 9.87868 14.1213C10.4413 14.6839 11.2044 15 12 15C12.7956 15 13.5587 14.6839 14.1213 14.1213Z" stroke="#111928" stroke-width="2" stroke-linecap="round" stroke-linejoin="round"/>
</svg>
