<svg width="24" height="24" viewBox="0 0 24 24" fill="none" xmlns="http://www.w3.org/2000/svg">
<path d="M9 8H15M10 8C10.394 8 10.7841 8.0776 11.1481 8.22836C11.512 8.37913 11.8427 8.6001 12.1213 8.87868C12.3999 9.15726 12.6209 9.48797 12.7716 9.85195C12.9224 10.2159 13 10.606 13 11C13 11.394 12.9224 11.7841 12.7716 12.1481C12.6209 12.512 12.3999 12.8427 12.1213 13.1213C11.8427 13.3999 11.512 13.6209 11.1481 13.7716C10.7841 13.9224 10.394 14 10 14H9L12 17M9 11H15M21 12C21 13.1819 20.7672 14.3522 20.3149 15.4442C19.8626 16.5361 19.1997 17.5282 18.364 18.364C17.5282 19.1997 16.5361 19.8626 15.4442 20.3149C14.3522 20.7672 13.1819 21 12 21C10.8181 21 9.64778 20.7672 8.55585 20.3149C7.46392 19.8626 6.47177 19.1997 5.63604 18.364C4.80031 17.5282 4.13738 16.5361 3.68508 15.4442C3.23279 14.3522 3 13.1819 3 12C3 9.61305 3.94821 7.32387 5.63604 5.63604C7.32387 3.94821 9.61305 3 12 3C14.3869 3 16.6761 3.94821 18.364 5.63604C20.0518 7.32387 21 9.61305 21 12Z" stroke="#111928" stroke-width="2" stroke-linecap="round" stroke-linejoin="round"/>
</svg>
