<svg width="24" height="24" viewBox="0 0 24 24" fill="none" xmlns="http://www.w3.org/2000/svg">
<path d="M10 21H17C17.5304 21 18.0391 20.7893 18.4142 20.4142C18.7893 20.0391 19 19.5304 19 19V9.414C18.9999 9.1488 18.8946 8.89449 18.707 8.707L13.293 3.293C13.1055 3.10545 12.8512 3.00006 12.586 3H7C6.46957 3 5.96086 3.21071 5.58579 3.58579C5.21071 3.96086 5 4.46957 5 5V16M5 21L9.879 16.121M9.879 16.121C10.1567 16.4033 10.4876 16.6279 10.8525 16.7817C11.2174 16.9355 11.6092 17.0156 12.0052 17.0173C12.4012 17.0189 12.7936 16.9421 13.1599 16.7914C13.5261 16.6406 13.8588 16.4188 14.1388 16.1388C14.4189 15.8588 14.6408 15.5262 14.7916 15.16C14.9425 14.7938 15.0193 14.4014 15.0177 14.0054C15.0162 13.6094 14.9362 13.2176 14.7825 12.8526C14.6287 12.4877 14.4043 12.1568 14.122 11.879C13.5579 11.3239 12.7973 11.0142 12.0059 11.0173C11.2145 11.0204 10.4564 11.3362 9.8967 11.8957C9.33702 12.4553 9.02111 13.2133 9.0178 14.0047C9.01448 14.7961 9.32402 15.5568 9.879 16.121Z" stroke="#111928" stroke-width="2" stroke-linecap="round" stroke-linejoin="round"/>
</svg>
