<svg width="24" height="24" viewBox="0 0 24 24" fill="none" xmlns="http://www.w3.org/2000/svg">
<path d="M8 7V15C8 15.5304 8.21071 16.0391 8.58579 16.4142C8.96086 16.7893 9.46957 17 10 17H16M8 7V5C8 4.46957 8.21071 3.96086 8.58579 3.58579C8.96086 3.21071 9.46957 3 10 3H14.586C14.8512 3.00006 15.1055 3.10545 15.293 3.293L19.707 7.707C19.8946 7.89449 19.9999 8.1488 20 8.414V15C20 15.5304 19.7893 16.0391 19.4142 16.4142C19.0391 16.7893 18.5304 17 18 17H16M8 7H6C5.46957 7 4.96086 7.21071 4.58579 7.58579C4.21071 7.96086 4 8.46957 4 9V19C4 19.5304 4.21071 20.0391 4.58579 20.4142C4.96086 20.7893 5.46957 21 6 21H14C14.5304 21 15.0391 20.7893 15.4142 20.4142C15.7893 20.0391 16 19.5304 16 19V17" stroke="#111928" stroke-width="2" stroke-linecap="round" stroke-linejoin="round"/>
</svg>
