<svg width="24" height="24" viewBox="0 0 24 24" fill="none" xmlns="http://www.w3.org/2000/svg">
<path d="M12 11C12 14.517 10.991 17.799 9.247 20.571M5.807 18.531L5.861 18.441C7.26352 16.2129 8.00523 13.6327 8 11C8 9.9391 8.42143 8.92168 9.17157 8.17154C9.92172 7.42139 10.9391 6.99997 12 6.99997C13.0609 6.99997 14.0783 7.42139 14.8284 8.17154C15.5786 8.92168 16 9.9391 16 11C16 12.017 15.93 13.019 15.797 14M13.679 20.844C14.2962 19.6125 14.7958 18.3254 15.171 17M19.01 18.132C19.655 15.866 20 13.473 20 11C20.0003 9.59552 19.6309 8.21574 18.9289 6.99934C18.2269 5.78293 17.217 4.77277 16.0008 4.07041C14.7846 3.36806 13.4049 2.99825 12.0004 2.99817C10.596 2.99809 9.21629 3.36774 8 4.06997M3 15.364C3.64 14.045 4 12.564 4 11C4 9.54297 4.39 8.17697 5.07 6.99997" stroke="#111928" stroke-width="2" stroke-linecap="round" stroke-linejoin="round"/>
</svg>
