<svg width="24" height="24" viewBox="0 0 24 24" fill="none" xmlns="http://www.w3.org/2000/svg">
<path d="M7 11.5V14M7 11.5V5.5C7 5.10218 7.15804 4.72064 7.43934 4.43934C7.72064 4.15804 8.10218 4 8.5 4C8.89782 4 9.27936 4.15804 9.56066 4.43934C9.84196 4.72064 10 5.10218 10 5.5M7 11.5C7 11.1022 6.84196 10.7206 6.56066 10.4393C6.27936 10.158 5.89782 10 5.5 10C5.10218 10 4.72064 10.158 4.43934 10.4393C4.15804 10.7206 4 11.1022 4 11.5V13.5C4 15.4891 4.79018 17.3968 6.1967 18.8033C7.60322 20.2098 9.51088 21 11.5 21C13.4891 21 15.3968 20.2098 16.8033 18.8033C18.2098 17.3968 19 15.4891 19 13.5V8.5C19 8.10218 18.842 7.72064 18.5607 7.43934C18.2794 7.15804 17.8978 7 17.5 7C17.1022 7 16.7206 7.15804 16.4393 7.43934C16.158 7.72064 16 8.10218 16 8.5M10 5.5V11M10 5.5V4.5C10 4.10218 10.158 3.72064 10.4393 3.43934C10.7206 3.15804 11.1022 3 11.5 3C11.8978 3 12.2794 3.15804 12.5607 3.43934C12.842 3.72064 13 4.10218 13 4.5V5.5M16 8.5V5.5C16 5.10218 15.842 4.72064 15.5607 4.43934C15.2794 4.15804 14.8978 4 14.5 4C14.1022 4 13.7206 4.15804 13.4393 4.43934C13.158 4.72064 13 5.10218 13 5.5M16 8.5V11M13 5.5V11" stroke="#111928" stroke-width="2" stroke-linecap="round" stroke-linejoin="round"/>
</svg>
