<svg width="24" height="24" viewBox="0 0 24 24" fill="none" xmlns="http://www.w3.org/2000/svg">
<path d="M8 4H6C5.46957 4 4.96086 4.21071 4.58579 4.58579C4.21071 4.96086 4 5.46957 4 6V18C4 18.5304 4.21071 19.0391 4.58579 19.4142C4.96086 19.7893 5.46957 20 6 20H18C18.5304 20 19.0391 19.7893 19.4142 19.4142C19.7893 19.0391 20 18.5304 20 18V6C20 5.46957 19.7893 4.96086 19.4142 4.58579C19.0391 4.21071 18.5304 4 18 4H16M12 3V11M12 11L15 8M12 11L9 8M4 13H6.586C6.85119 13.0001 7.10551 13.1055 7.293 13.293L9.707 15.707C9.89449 15.8945 10.1488 15.9999 10.414 16H13.586C13.8512 15.9999 14.1055 15.8945 14.293 15.707L16.707 13.293C16.8945 13.1055 17.1488 13.0001 17.414 13H20" stroke="#111928" stroke-width="2" stroke-linecap="round" stroke-linejoin="round"/>
</svg>
