<svg width="24" height="24" viewBox="0 0 24 24" fill="none" xmlns="http://www.w3.org/2000/svg">
<path d="M20 13V6C20 5.46957 19.7893 4.96086 19.4142 4.58579C19.0391 4.21071 18.5304 4 18 4H6C5.46957 4 4.96086 4.21071 4.58579 4.58579C4.21071 4.96086 4 5.46957 4 6V13M20 13V18C20 18.5304 19.7893 19.0391 19.4142 19.4142C19.0391 19.7893 18.5304 20 18 20H6C5.46957 20 4.96086 19.7893 4.58579 19.4142C4.21071 19.0391 4 18.5304 4 18V13M20 13H17.414C17.1488 13.0001 16.8945 13.1055 16.707 13.293L14.293 15.707C14.1055 15.8945 13.8512 15.9999 13.586 16H10.414C10.1488 15.9999 9.89449 15.8945 9.707 15.707L7.293 13.293C7.10551 13.1055 6.85119 13.0001 6.586 13H4" stroke="#111928" stroke-width="2" stroke-linecap="round" stroke-linejoin="round"/>
</svg>
