<svg width="24" height="24" viewBox="0 0 24 24" fill="none" xmlns="http://www.w3.org/2000/svg">
<path d="M15 6.99995C15.5304 6.99995 16.0391 7.21067 16.4142 7.58574C16.7893 7.96081 17 8.46952 17 8.99995M21 8.99995C21.0003 9.93712 20.781 10.8613 20.3598 11.6985C19.9386 12.5357 19.3271 13.2625 18.5744 13.8208C17.8216 14.3791 16.9486 14.7533 16.0252 14.9135C15.1018 15.0736 14.1538 15.0152 13.257 14.743L11 17H9V19H7V21H4C3.73478 21 3.48043 20.8946 3.29289 20.7071C3.10536 20.5195 3 20.2652 3 20V17.414C3.00006 17.1488 3.10545 16.8944 3.293 16.707L9.257 10.743C9.00745 9.91797 8.93857 9.0489 9.05504 8.1949C9.17152 7.3409 9.47062 6.52202 9.93199 5.794C10.3934 5.06598 11.0062 4.4459 11.7287 3.97597C12.4512 3.50605 13.2665 3.1973 14.1191 3.07076C14.9716 2.94421 15.8415 3.00284 16.6693 3.24264C17.4972 3.48244 18.2637 3.89779 18.9166 4.46042C19.5696 5.02305 20.0936 5.71974 20.4531 6.50309C20.8127 7.28644 20.9992 8.13805 21 8.99995Z" stroke="#111928" stroke-width="2" stroke-linecap="round" stroke-linejoin="round"/>
</svg>
