<svg width="24" height="24" viewBox="0 0 24 24" fill="none" xmlns="http://www.w3.org/2000/svg">
<path d="M9.663 17H14.336M12 3V4M18.364 5.636L17.657 6.343M21 12H20M4 12H3M6.343 6.343L5.636 5.636M8.464 15.536C7.76487 14.8367 7.2888 13.9458 7.09598 12.9759C6.90316 12.006 7.00225 11.0008 7.38073 10.0872C7.75921 9.17366 8.40007 8.39284 9.22229 7.84349C10.0445 7.29414 11.0111 7.00093 12 7.00093C12.9889 7.00093 13.9555 7.29414 14.7777 7.84349C15.5999 8.39284 16.2408 9.17366 16.6193 10.0872C16.9977 11.0008 17.0968 12.006 16.904 12.9759C16.7112 13.9458 16.2351 14.8367 15.536 15.536L14.988 16.083C14.6747 16.3963 14.4262 16.7683 14.2567 17.1777C14.0872 17.5871 13.9999 18.0259 14 18.469V19C14 19.5304 13.7893 20.0391 13.4142 20.4142C13.0391 20.7893 12.5304 21 12 21C11.4696 21 10.9609 20.7893 10.5858 20.4142C10.2107 20.0391 10 19.5304 10 19V18.469C10 17.574 9.644 16.715 9.012 16.083L8.464 15.536Z" stroke="#111928" stroke-width="2" stroke-linecap="round" stroke-linejoin="round"/>
</svg>
