<svg width="24" height="24" viewBox="0 0 24 24" fill="none" xmlns="http://www.w3.org/2000/svg">
<path d="M8 11V7C8 5.93913 8.42143 4.92172 9.17157 4.17157C9.92172 3.42143 10.9391 3 12 3C13.0609 3 14.0783 3.42143 14.8284 4.17157C15.5786 4.92172 16 5.93913 16 7M12 15V17M6 21H18C18.5304 21 19.0391 20.7893 19.4142 20.4142C19.7893 20.0391 20 19.5304 20 19V13C20 12.4696 19.7893 11.9609 19.4142 11.5858C19.0391 11.2107 18.5304 11 18 11H6C5.46957 11 4.96086 11.2107 4.58579 11.5858C4.21071 11.9609 4 12.4696 4 13V19C4 19.5304 4.21071 20.0391 4.58579 20.4142C4.96086 20.7893 5.46957 21 6 21Z" stroke="#111928" stroke-width="2" stroke-linecap="round" stroke-linejoin="round"/>
</svg>
