<svg width="24" height="24" viewBox="0 0 24 24" fill="none" xmlns="http://www.w3.org/2000/svg">
<path d="M11.555 9.03595L14.752 11.1679C14.889 11.2593 15.0013 11.384 15.0789 11.5291C15.1566 11.6743 15.1972 11.8363 15.1972 12.0009C15.1972 12.1656 15.1566 12.3276 15.0789 12.4728C15.0013 12.6179 14.889 12.7416 14.752 12.8329L11.555 14.9649C11.4044 15.0654 11.2293 15.1231 11.0485 15.1319C10.8677 15.1407 10.6879 15.1002 10.5282 15.0148C10.3686 14.9294 10.2352 14.8023 10.1421 14.647C10.0491 14.4916 9.99998 14.314 10 14.1329V9.86995C9.99961 9.68874 10.0485 9.51082 10.1414 9.35523C10.2342 9.19963 10.3677 9.0722 10.5274 8.98655C10.687 8.9009 10.867 8.86025 11.048 8.86895C11.229 8.87765 11.4043 8.93538 11.555 9.03595Z" stroke="#111928" stroke-width="2" stroke-linecap="round" stroke-linejoin="round"/>
<path d="M20.3149 15.4442C20.7672 14.3522 21 13.1819 21 12C21 9.61305 20.0518 7.32387 18.364 5.63604C16.6761 3.94821 14.3869 3 12 3C9.61305 3 7.32387 3.94821 5.63604 5.63604C3.94821 7.32387 3 9.61305 3 12C3 13.1819 3.23279 14.3522 3.68508 15.4442C4.13738 16.5361 4.80031 17.5282 5.63604 18.364C6.47177 19.1997 7.46392 19.8626 8.55585 20.3149C9.64778 20.7672 10.8181 21 12 21C13.1819 21 14.3522 20.7672 15.4442 20.3149C16.5361 19.8626 17.5282 19.1997 18.364 18.364C19.1997 17.5282 19.8626 16.5361 20.3149 15.4442Z" stroke="#111928" stroke-width="2" stroke-linecap="round" stroke-linejoin="round"/>
</svg>
