<svg width="24" height="24" viewBox="0 0 24 24" fill="none" xmlns="http://www.w3.org/2000/svg">
<path d="M11.7716 11.5528C11.841 11.4139 11.9418 11.2931 12.066 11.2H12.067L17.4 7.2C17.5486 7.08857 17.7252 7.02072 17.9102 7.00404C18.0952 6.98736 18.2811 7.02252 18.4472 7.10557C18.6133 7.18863 18.753 7.31629 18.8507 7.47427C18.9483 7.63225 19 7.81429 19 8V16C19 16.1857 18.9483 16.3678 18.8507 16.5257C18.753 16.6837 18.6133 16.8114 18.4472 16.8944C18.2811 16.9775 18.0952 17.0126 17.9102 16.996C17.7252 16.9793 17.5486 16.9114 17.4 16.8L12.066 12.8C11.9418 12.7069 11.841 12.5861 11.7716 12.4472C11.7022 12.3084 11.666 12.1552 11.666 12C11.666 11.8448 11.7022 11.6916 11.7716 11.5528Z" stroke="#111928" stroke-width="2" stroke-linecap="round" stroke-linejoin="round"/>
<path d="M3.77159 11.5528C3.84102 11.4139 3.94182 11.2931 4.06602 11.2L9.40002 7.2C9.54858 7.08857 9.72525 7.02072 9.91021 7.00404C10.0952 6.98736 10.2811 7.02252 10.4472 7.10557C10.6133 7.18863 10.753 7.31629 10.8507 7.47427C10.9483 7.63225 11 7.81429 11 8V16C11 16.1857 10.9483 16.3678 10.8507 16.5257C10.753 16.6837 10.6133 16.8114 10.4472 16.8944C10.2811 16.9775 10.0952 17.0126 9.91021 16.996C9.72525 16.9793 9.54858 16.9114 9.40002 16.8L4.06602 12.8C3.94182 12.7069 3.84102 12.5861 3.77159 12.4472C3.70216 12.3084 3.66602 12.1552 3.66602 12C3.66602 11.8448 3.70216 11.6916 3.77159 11.5528Z" stroke="#111928" stroke-width="2" stroke-linecap="round" stroke-linejoin="round"/>
</svg>
