<svg width="24" height="24" viewBox="0 0 24 24" fill="none" xmlns="http://www.w3.org/2000/svg">
<path d="M8 16L10.879 13.121M10.879 13.121C11.1567 13.4033 11.4876 13.6279 11.8525 13.7817C12.2174 13.9355 12.6092 14.0156 13.0052 14.0172C13.4012 14.0189 13.7936 13.9421 14.1599 13.7914C14.5261 13.6406 14.8588 13.4188 15.1388 13.1388C15.4189 12.8588 15.6408 12.5262 15.7916 12.16C15.9425 11.7938 16.0193 11.4014 16.0177 11.0054C16.0162 10.6094 15.9362 10.2176 15.7825 9.85265C15.6287 9.48768 15.4043 9.15677 15.122 8.879C14.5579 8.32389 13.7973 8.01417 13.0059 8.0173C12.2145 8.02043 11.4564 8.33615 10.8967 8.89571C10.337 9.45526 10.0211 10.2133 10.0178 11.0047C10.0145 11.7961 10.324 12.5568 10.879 13.121ZM21 12C21 13.1819 20.7672 14.3522 20.3149 15.4442C19.8626 16.5361 19.1997 17.5282 18.364 18.364C17.5282 19.1997 16.5361 19.8626 15.4442 20.3149C14.3522 20.7672 13.1819 21 12 21C10.8181 21 9.64778 20.7672 8.55585 20.3149C7.46392 19.8626 6.47177 19.1997 5.63604 18.364C4.80031 17.5282 4.13738 16.5361 3.68508 15.4442C3.23279 14.3522 3 13.1819 3 12C3 9.61305 3.94821 7.32387 5.63604 5.63604C7.32387 3.94821 9.61305 3 12 3C14.3869 3 16.6761 3.94821 18.364 5.63604C20.0518 7.32387 21 9.61305 21 12Z" stroke="#111928" stroke-width="2" stroke-linecap="round" stroke-linejoin="round"/>
</svg>
