<svg width="24" height="24" viewBox="0 0 24 24" fill="none" xmlns="http://www.w3.org/2000/svg">
<path d="M5 12H19M5 12C4.46957 12 3.96086 11.7893 3.58579 11.4142C3.21071 11.0391 3 10.5304 3 10V6C3 5.46957 3.21071 4.96086 3.58579 4.58579C3.96086 4.21071 4.46957 4 5 4H19C19.5304 4 20.0391 4.21071 20.4142 4.58579C20.7893 4.96086 21 5.46957 21 6V10C21 10.5304 20.7893 11.0391 20.4142 11.4142C20.0391 11.7893 19.5304 12 19 12M5 12C4.46957 12 3.96086 12.2107 3.58579 12.5858C3.21071 12.9609 3 13.4696 3 14V18C3 18.5304 3.21071 19.0391 3.58579 19.4142C3.96086 19.7893 4.46957 20 5 20H19C19.5304 20 20.0391 19.7893 20.4142 19.4142C20.7893 19.0391 21 18.5304 21 18V14C21 13.4696 20.7893 12.9609 20.4142 12.5858C20.0391 12.2107 19.5304 12 19 12M17 8H17.01M17 16H17.01" stroke="#111928" stroke-width="2" stroke-linecap="round" stroke-linejoin="round"/>
</svg>
