<svg width="24" height="24" viewBox="0 0 24 24" fill="none" xmlns="http://www.w3.org/2000/svg">
<path d="M11 5.882V19.24C10.9997 19.6545 10.8531 20.0555 10.5861 20.3725C10.3191 20.6896 9.9488 20.9022 9.54041 20.9729C9.13203 21.0437 8.71178 20.968 8.35369 20.7593C7.99561 20.5506 7.72267 20.2222 7.58297 19.832L5.43597 13.682M5.43597 13.682C4.58719 13.3211 3.88915 12.6791 3.46 11.8627C3.03084 11.0463 2.89692 10.1067 3.0809 9.2029C3.26488 8.29912 3.75546 7.48665 4.46962 6.903C5.18378 6.31935 6.07765 6.00035 6.99997 6H8.83197C12.932 6 16.457 4.766 18 3V17C16.457 15.234 12.933 14 8.83197 14H6.99997C6.4626 14.0008 5.93062 13.892 5.43597 13.682ZM18 13C18.7956 13 19.5587 12.6839 20.1213 12.1213C20.6839 11.5587 21 10.7956 21 10C21 9.20435 20.6839 8.44129 20.1213 7.87868C19.5587 7.31607 18.7956 7 18 7V13Z" stroke="#111928" stroke-width="2" stroke-linecap="round" stroke-linejoin="round"/>
</svg>
