<svg width="24" height="24" viewBox="0 0 24 24" fill="none" xmlns="http://www.w3.org/2000/svg">
<path d="M18.364 5.636C19.1997 6.47173 19.8627 7.46389 20.315 8.55582C20.7673 9.64776 21 10.8181 21 12C21 13.1819 20.7673 14.3522 20.315 15.4442C19.8627 16.5361 19.1997 17.5283 18.364 18.364M18.364 18.364L15.535 15.535M18.364 18.364L21 21M15.536 8.464C16.0004 8.92831 16.3688 9.47956 16.6202 10.0863C16.8715 10.693 17.0009 11.3433 17.0009 12C17.0009 12.6567 16.8715 13.307 16.6202 13.9137C16.3688 14.5204 16.0004 15.0717 15.536 15.536L12.707 12.707M12.707 12.707C12.8025 12.6148 12.8787 12.5044 12.9311 12.3824C12.9835 12.2604 13.0111 12.1292 13.0122 11.9964C13.0134 11.8636 12.9881 11.7319 12.9378 11.609C12.8875 11.4861 12.8133 11.3745 12.7194 11.2806C12.6255 11.1867 12.5138 11.1125 12.3909 11.0622C12.268 11.0119 12.1363 10.9866 12.0036 10.9877C11.8708 10.9889 11.7396 11.0165 11.6176 11.0689C11.4956 11.1213 11.3852 11.1975 11.293 11.293M12.707 12.707L11.293 11.293M8.46397 15.536C7.69745 14.7715 7.20104 13.778 7.04997 12.706M5.63597 18.364C4.45018 17.1788 3.61901 15.686 3.23613 14.0538C2.85326 12.4216 2.9339 10.7148 3.46897 9.126M11.293 11.293L2.99997 3" stroke="#111928" stroke-width="2" stroke-linecap="round" stroke-linejoin="round"/>
</svg>
