<svg width="24" height="24" viewBox="0 0 24 24" fill="none" xmlns="http://www.w3.org/2000/svg">
<path d="M18.364 5.636L14.828 9.172M18.364 5.636C16.6762 3.94817 14.3869 3 12 3C9.61305 3 7.32383 3.94817 5.636 5.636M18.364 5.636C20.0518 7.32383 21 9.61305 21 12C21 13.1819 20.7672 14.3522 20.3149 15.4442C19.8626 16.5361 19.1997 17.5283 18.364 18.364M14.828 9.172C14.0779 8.42185 13.0609 8 12 8C10.9391 8 9.92215 8.42185 9.172 9.172M14.828 9.172C15.5781 9.92215 16 10.9391 16 12C16 13.0609 15.5781 14.0779 14.828 14.828M14.828 14.828L18.364 18.364M14.828 14.828C14.0779 15.5781 13.0609 16 12 16C10.9391 16 9.92215 15.5781 9.172 14.828M18.364 18.364C17.5283 19.1997 16.5361 19.8626 15.4442 20.3149C14.3522 20.7672 13.1819 21 12 21C10.8181 21 9.64778 20.7672 8.55585 20.3149C7.46392 19.8626 6.47173 19.1997 5.636 18.364M9.172 9.172L5.636 5.636M9.172 9.172C8.42185 9.92215 8 10.9391 8 12C8 13.0609 8.42185 14.0779 9.172 14.828M5.636 5.636C3.94817 7.32383 3 9.61305 3 12C3 13.1819 3.23279 14.3522 3.68508 15.4442C4.13738 16.5361 4.80027 17.5283 5.636 18.364M9.172 14.828L5.636 18.364" stroke="#111928" stroke-width="2" stroke-linecap="round" stroke-linejoin="round"/>
</svg>
