<svg width="161" height="34" viewBox="0 0 161 34" fill="none" xmlns="http://www.w3.org/2000/svg">
<path d="M33.6816 0.226074H0.578125V33.3295H33.6816V0.226074Z" fill="#6B7280"/>
<path d="M16.0264 18.9847L10.2885 8.28125H12.9367L16.2471 15.0123C16.2471 15.1226 16.3574 15.233 16.4678 15.3433C16.5781 15.4537 16.5781 15.564 16.6885 15.7847L16.7988 15.895V16.0054C16.9092 16.2261 16.9092 16.3364 17.0195 16.5571C17.1298 16.6675 17.1299 16.8881 17.2402 16.9985C17.3505 16.6675 17.5712 16.4468 17.6816 16.0054C17.7919 15.6743 18.0126 15.3433 18.2333 15.0123L21.5436 8.28125H23.9712L18.2333 19.095V25.9364H16.0264V18.9847Z" fill="white"/>
<path d="M48.7988 6.62607C50.454 6.62607 51.8885 7.06745 52.9919 7.95021L51.8885 9.27435C50.8954 8.61228 49.9023 8.1709 48.6885 8.1709C46.8126 8.1709 45.3781 9.16401 44.6057 11.0399C44.1643 12.1433 43.9436 13.5778 43.9436 15.4537C43.9436 16.8881 44.1643 18.1019 44.4954 18.9847C45.3781 21.0812 46.8126 22.0743 49.0195 22.0743C50.2333 22.0743 51.3367 21.7433 52.3298 20.9709L53.4333 22.4054C51.9988 23.2881 50.454 23.7295 48.7988 23.7295C46.8126 23.7295 45.1574 22.9571 43.8333 21.3019C42.5092 19.7571 41.9574 17.6606 41.9574 15.1226C41.9574 12.5847 42.6195 10.5985 43.9436 8.94332C45.1574 7.50883 46.8126 6.62607 48.7988 6.62607Z" fill="#6B7280"/>
<path d="M55.0885 17.5502C55.0885 15.564 55.5299 14.0192 56.523 12.9157C57.5161 11.8123 58.7298 11.1502 60.2747 11.1502C62.0402 11.1502 63.4747 11.8123 64.4678 13.2468C65.2402 14.3502 65.5712 15.895 65.5712 17.7709C65.5712 19.9778 64.9092 21.7433 63.6954 22.8468C62.8126 23.6192 61.7092 24.0606 60.385 24.0606C58.7299 24.0606 57.5161 23.5088 56.523 22.295C55.5299 21.1916 55.0885 19.5364 55.0885 17.5502ZM62.8126 14.3502C62.2609 13.3571 61.4885 12.8054 60.2747 12.8054C59.0609 12.8054 58.2885 13.2468 57.7367 14.1295C57.2954 14.7916 57.185 15.895 57.185 17.3295C57.185 19.2054 57.4057 20.5295 57.9574 21.3019C58.5092 22.0744 59.2816 22.5157 60.385 22.5157C61.7092 22.5157 62.5919 21.8537 63.0333 20.6399C63.254 19.9778 63.3643 19.095 63.3643 17.9916C63.4747 16.3364 63.254 15.1226 62.8126 14.3502Z" fill="#6B7280"/>
<path d="M69.1023 14.5709C69.1023 13.3571 68.9919 12.364 68.6609 11.5916L70.5368 11.1502C70.8678 11.7019 70.9781 12.364 70.9781 12.9157V13.0261C71.4195 12.5847 71.8609 12.1433 72.5229 11.8123C73.2954 11.3709 73.9574 11.1502 74.6195 11.1502C75.6126 11.1502 76.4954 11.5916 77.0471 12.364C77.1574 12.5847 77.3781 12.9157 77.4885 13.1364C78.8126 11.8123 80.0264 11.1502 81.3505 11.1502C82.2333 11.1502 83.0057 11.4812 83.5574 12.033C84.1092 12.695 84.4402 13.4675 84.4402 14.3502V23.5088H82.454V14.4606C82.454 13.2468 81.9023 12.695 80.9092 12.695C80.3574 12.695 79.6954 12.9157 79.1436 13.3571C78.923 13.5778 78.4816 13.9088 77.9298 14.3502L77.7092 14.5709V23.5088H75.6126V14.9019C75.6126 14.1295 75.5023 13.5778 75.2816 13.3571C74.9505 13.0261 74.6195 12.9157 74.0678 12.9157C73.185 12.9157 72.1919 13.4675 70.9781 14.5709V23.6192H69.1023V14.5709Z" fill="#6B7280"/>
<path d="M87.8609 6.18469L89.8471 5.74332C90.0678 6.62607 90.1781 7.61918 90.1781 8.83297V11.5916C90.1781 12.2537 90.1781 12.695 90.1781 12.9157C91.2816 11.8123 92.4954 11.2606 93.7092 11.2606C95.1436 11.2606 96.3574 11.8123 97.1299 12.9157C98.0126 14.0192 98.454 15.564 98.454 17.4399C98.454 19.4261 98.0126 20.9709 97.1299 22.1847C96.2471 23.3985 95.0333 23.9502 93.5988 23.9502C92.9368 23.9502 92.385 23.8399 91.723 23.5088C91.0609 23.1778 90.6195 22.8468 90.2885 22.4054C90.1781 22.9571 90.0678 23.3985 89.9574 23.7295H88.0816C88.3023 23.1778 88.4126 22.1847 88.4126 20.6399V9.05366C88.3023 7.72952 88.1919 6.73642 87.8609 6.18469ZM91.0609 13.6881C90.7299 13.9088 90.3988 14.2399 90.1781 14.5709V20.8606C90.9505 21.8537 91.9436 22.295 93.1574 22.295C94.1505 22.295 94.923 21.964 95.3643 21.1916C95.9161 20.3088 96.2471 19.095 96.2471 17.3295C96.2471 15.7847 96.0264 14.6812 95.4747 14.0192C95.0333 13.3571 94.2609 13.0261 93.1574 13.0261C92.4954 12.9157 91.723 13.1364 91.0609 13.6881Z" fill="#6B7280"/>
<path d="M101.323 7.72952C101.323 7.28814 101.433 6.95711 101.764 6.62607C102.095 6.29504 102.426 6.18469 102.868 6.18469C103.309 6.18469 103.64 6.29504 103.971 6.62607C104.302 6.95711 104.413 7.28814 104.413 7.72952C104.413 8.1709 104.302 8.50194 103.971 8.83297C103.64 9.16401 103.309 9.27435 102.868 9.27435C102.426 9.27435 102.095 9.16401 101.764 8.83297C101.433 8.50194 101.323 8.1709 101.323 7.72952ZM101.764 23.6192V11.4812L103.751 11.1502V23.6192H101.764Z" fill="#6B7280"/>
<path d="M108.054 14.5709C108.054 13.6881 108.054 13.1364 107.944 12.9157C107.944 12.5847 107.723 12.2537 107.502 11.7019L109.378 11.1502C109.709 11.8123 109.82 12.364 109.82 13.0261C111.033 11.8123 112.357 11.1502 113.682 11.1502C114.344 11.1502 114.895 11.2606 115.447 11.5916C115.999 11.9226 116.44 12.364 116.661 12.9157C116.882 13.3571 116.992 13.7985 116.992 14.3502V23.6192H115.116V15.3433C115.116 14.3502 115.006 13.6881 114.675 13.3571C114.344 13.0261 113.902 12.8054 113.351 12.8054C112.909 12.8054 112.247 13.0261 111.585 13.3571C110.923 13.6881 110.371 14.1295 109.93 14.5709V23.6192H108.054V14.5709Z" fill="#6B7280"/>
<path d="M121.406 14.1295L120.413 12.8054C122.068 11.7019 123.723 11.1502 125.488 11.1502C127.254 11.1502 128.357 11.8123 128.909 13.0261C129.13 13.4675 129.13 14.1295 129.13 15.1226V15.7847L129.02 19.7571C129.02 19.8675 129.02 20.0881 129.02 20.3088C129.02 20.9709 129.02 21.4123 129.13 21.7433C129.24 22.1847 129.571 22.5157 130.013 22.7364L129.02 24.0606C128.137 23.7295 127.585 23.1778 127.364 22.295C126.261 23.3985 125.047 23.9502 123.833 23.9502C122.619 23.9502 121.626 23.6192 120.854 22.9571C120.192 22.4054 119.861 21.5226 119.861 20.4192C119.861 18.9847 120.413 17.9916 121.516 17.2192C122.619 16.4468 124.275 16.1157 126.261 16.1157C126.592 16.1157 126.813 16.1157 127.144 16.1157V15.233C127.144 14.2399 127.033 13.5778 126.702 13.3571C126.261 12.9157 125.82 12.695 125.047 12.695C124.385 12.695 123.613 12.9157 122.73 13.2468C122.399 13.4675 121.957 13.7985 121.406 14.1295ZM127.254 20.6399L127.364 17.4399C126.813 17.4399 126.482 17.4399 126.371 17.4399C124.606 17.4399 123.502 17.7709 122.84 18.433C122.399 18.8743 122.178 19.5364 122.178 20.4192C122.178 21.8537 122.84 22.6261 124.275 22.6261C125.599 22.5157 126.592 21.8537 127.254 20.6399Z" fill="#6B7280"/>
<path d="M135.419 11.4812H138.509L137.957 13.0261H135.419V20.8606C135.419 21.5226 135.53 21.964 135.751 22.295C135.971 22.5157 136.413 22.7364 136.964 22.7364C137.406 22.7364 137.847 22.6261 138.178 22.5157L138.399 23.7295C137.737 24.0606 137.075 24.1709 136.302 24.1709C134.426 24.1709 133.544 23.2881 133.544 21.4123V13.0261H131.888V11.4812H133.433V11.2606C133.433 11.0399 133.544 10.1571 133.654 8.72263V8.39159L135.64 7.95021C135.42 9.27435 135.419 10.4881 135.419 11.4812Z" fill="#6B7280"/>
<path d="M140.495 17.5502C140.495 15.564 140.937 14.0192 141.93 12.9157C142.813 11.8123 144.137 11.1502 145.682 11.1502C147.447 11.1502 148.882 11.8123 149.875 13.2468C150.647 14.3502 150.978 15.895 150.978 17.7709C150.978 19.9778 150.316 21.7433 149.102 22.8468C148.22 23.6192 147.116 24.0606 145.792 24.0606C144.137 24.0606 142.923 23.5088 141.93 22.295C141.047 21.1916 140.495 19.5364 140.495 17.5502ZM148.33 14.3502C147.778 13.3571 147.006 12.8054 145.792 12.8054C144.578 12.8054 143.806 13.2468 143.254 14.1295C142.813 14.7916 142.702 15.895 142.702 17.3295C142.702 19.2054 142.923 20.5295 143.475 21.3019C144.026 22.0744 144.799 22.5157 145.902 22.5157C147.226 22.5157 148.109 21.8537 148.551 20.6399C148.771 19.9778 148.882 19.095 148.882 17.9916C148.882 16.3364 148.661 15.1226 148.33 14.3502Z" fill="#6B7280"/>
<path d="M154.62 14.3502C154.62 13.2468 154.509 12.364 154.178 11.7019L156.054 11.1502C156.385 11.8123 156.495 12.364 156.495 13.0261V13.2468C157.488 11.9226 158.592 11.2606 159.916 11.2606C160.137 11.2606 160.357 11.2606 160.578 11.3709L159.806 13.4675C159.585 13.3571 159.364 13.3571 159.254 13.3571C158.813 13.3571 158.261 13.4675 157.82 13.7985C157.378 14.1295 156.937 14.4606 156.716 14.9019C156.606 15.233 156.495 15.6743 156.495 16.2261V23.8399H154.62V14.3502Z" fill="#6B7280"/>
</svg>
