<svg width="48" height="48" viewBox="0 0 48 48" fill="none" xmlns="http://www.w3.org/2000/svg">
<path d="M15.2724 20.7273C15.2724 21.2195 15.3256 21.6186 15.4188 21.9113C15.5252 22.204 15.6582 22.5233 15.8445 22.8692C15.911 22.9756 15.9376 23.082 15.9376 23.1751C15.9376 23.3082 15.8578 23.4412 15.6848 23.5742L14.8467 24.133C14.727 24.2128 14.6072 24.2527 14.5008 24.2527C14.3678 24.2527 14.2347 24.1862 14.1017 24.0665C13.9155 23.8669 13.7558 23.6541 13.6228 23.4412C13.4897 23.215 13.3567 22.9623 13.2104 22.6563C12.1727 23.8802 10.8689 24.4922 9.29911 24.4922C8.18161 24.4922 7.29027 24.1729 6.6384 23.5343C5.98652 22.8958 5.65393 22.0443 5.65393 20.98C5.65393 19.8492 6.05304 18.9313 6.86456 18.2395C7.67607 17.5477 8.75366 17.2018 10.1239 17.2018C10.5763 17.2018 11.0419 17.2417 11.5341 17.3083C12.0263 17.3748 12.5319 17.4812 13.064 17.6009V16.6298C13.064 15.6187 12.8512 14.9136 12.4388 14.5012C12.013 14.0888 11.2946 13.8892 10.2703 13.8892C9.80465 13.8892 9.32572 13.9425 8.83349 14.0622C8.34125 14.1819 7.86232 14.3283 7.3967 14.5145C7.18384 14.6076 7.0242 14.6608 6.93107 14.6875C6.83795 14.7141 6.77143 14.7274 6.71822 14.7274C6.53197 14.7274 6.43884 14.5943 6.43884 14.315V13.6631C6.43884 13.4502 6.46545 13.2906 6.53197 13.1975C6.59848 13.1043 6.71822 13.0112 6.90447 12.9181C7.37009 12.6786 7.92884 12.4791 8.58072 12.3194C9.23259 12.1465 9.92438 12.0666 10.6561 12.0666C12.2392 12.0666 13.3966 12.4258 14.1416 13.1442C14.8733 13.8626 15.2458 14.9535 15.2458 16.4169V20.7273H15.2724ZM9.87117 22.7494C10.3102 22.7494 10.7625 22.6696 11.2414 22.51C11.7204 22.3503 12.1461 22.0576 12.5053 21.6585C12.7181 21.4058 12.8778 21.1264 12.9576 20.8071C13.0374 20.4878 13.0906 20.102 13.0906 19.6497V19.0909C12.7048 18.9978 12.2924 18.918 11.8667 18.8648C11.441 18.8116 11.0286 18.785 10.6162 18.785C9.72483 18.785 9.07295 18.9579 8.63393 19.3171C8.19491 19.6763 7.98206 20.1818 7.98206 20.847C7.98206 21.4723 8.1417 21.9379 8.47429 22.2572C8.79358 22.5898 9.2592 22.7494 9.87117 22.7494ZM20.5539 24.1862C20.3145 24.1862 20.1548 24.1463 20.0484 24.0532C19.942 23.9733 19.8489 23.7871 19.769 23.5343L16.6427 13.2507C16.5629 12.9846 16.523 12.8116 16.523 12.7185C16.523 12.5057 16.6294 12.3859 16.8422 12.3859H18.146C18.3988 12.3859 18.5717 12.4258 18.6648 12.519C18.7713 12.5988 18.8511 12.785 18.9309 13.0378L21.1659 21.8448L23.2413 13.0378C23.3078 12.7717 23.3876 12.5988 23.494 12.519C23.6005 12.4391 23.7867 12.3859 24.0262 12.3859H25.0905C25.3432 12.3859 25.5162 12.4258 25.6226 12.519C25.729 12.5988 25.8222 12.785 25.8754 13.0378L27.9773 21.9512L30.2789 13.0378C30.3587 12.7717 30.4518 12.5988 30.5449 12.519C30.6514 12.4391 30.8243 12.3859 31.0638 12.3859H32.301C32.5139 12.3859 32.6336 12.4924 32.6336 12.7185C32.6336 12.785 32.6203 12.8516 32.607 12.9314C32.5937 13.0112 32.5671 13.1176 32.5139 13.264L29.3077 23.5476C29.2279 23.8137 29.1348 23.9867 29.0283 24.0665C28.9219 24.1463 28.7489 24.1995 28.5228 24.1995H27.3787C27.1259 24.1995 26.953 24.1596 26.8465 24.0665C26.7401 23.9734 26.647 23.8004 26.5938 23.5343L24.5317 14.9535L22.483 23.521C22.4164 23.7871 22.3366 23.96 22.2302 24.0532C22.1238 24.1463 21.9375 24.1862 21.698 24.1862H20.5539ZM37.649 24.5454C36.9573 24.5454 36.2655 24.4656 35.6003 24.3059C34.9351 24.1463 34.4163 23.9734 34.0704 23.7738C33.8575 23.6541 33.7112 23.521 33.658 23.4013C33.6048 23.2816 33.5781 23.1485 33.5781 23.0288V22.3503C33.5781 22.0709 33.6846 21.9379 33.8841 21.9379C33.964 21.9379 34.0438 21.9512 34.1236 21.9778C34.2034 22.0044 34.3231 22.0576 34.4562 22.1108C34.9085 22.3104 35.4007 22.47 35.9196 22.5765C36.4517 22.6829 36.9706 22.7361 37.5027 22.7361C38.3408 22.7361 38.9927 22.5898 39.445 22.2971C39.8973 22.0044 40.1368 21.5787 40.1368 21.0333C40.1368 20.6608 40.0171 20.3548 39.7776 20.102C39.5382 19.8492 39.0858 19.6231 38.434 19.4102L36.5049 18.8116C35.5338 18.5056 34.8154 18.0533 34.3764 17.4546C33.9373 16.8692 33.7112 16.2174 33.7112 15.5256C33.7112 14.9668 33.8309 14.4746 34.0704 14.0489C34.3098 13.6232 34.6291 13.2507 35.0282 12.958C35.4273 12.652 35.8797 12.4258 36.4118 12.2662C36.944 12.1066 37.5027 12.04 38.0881 12.04C38.3807 12.04 38.6867 12.0533 38.9794 12.0933C39.2854 12.1332 39.5648 12.1864 39.8441 12.2396C40.1102 12.3061 40.363 12.3726 40.6024 12.4525C40.8419 12.5323 41.0282 12.6121 41.1612 12.6919C41.3474 12.7983 41.4805 12.9048 41.5603 13.0245C41.6401 13.1309 41.68 13.2773 41.68 13.4635V14.0888C41.68 14.3682 41.5736 14.5145 41.374 14.5145C41.2676 14.5145 41.0947 14.4613 40.8685 14.3549C40.1102 14.009 39.2588 13.836 38.3142 13.836C37.5559 13.836 36.9573 13.9558 36.5448 14.2085C36.1324 14.4613 35.9196 14.8471 35.9196 15.3925C35.9196 15.765 36.0526 16.0843 36.3187 16.3371C36.5848 16.5899 37.077 16.8426 37.7821 17.0688L39.6712 17.6675C40.629 17.9734 41.3208 18.3992 41.7332 18.9446C42.1457 19.49 42.3452 20.1153 42.3452 20.8071C42.3452 21.3792 42.2255 21.898 41.9993 22.3503C41.7598 22.8026 41.4406 23.2017 41.0281 23.521C40.6157 23.8536 40.1235 24.0931 39.5515 24.266C38.9528 24.4523 38.3275 24.5454 37.649 24.5454Z" fill="#252F3E"/>
<path d="M40.1634 31.0109C35.7865 34.2437 29.4274 35.9598 23.9596 35.9598C16.2968 35.9598 9.39221 33.1262 4.17721 28.4167C3.76479 28.0442 4.1373 27.5387 4.62953 27.8313C10.2702 31.104 17.228 33.0863 24.4253 33.0863C29.2811 33.0863 34.6158 32.0752 39.5248 29.9998C40.2565 29.6672 40.8818 30.4788 40.1634 31.0109ZM41.986 28.9355C41.4272 28.2171 38.2876 28.5896 36.8641 28.7626C36.4384 28.8158 36.3719 28.4433 36.7577 28.1639C39.2587 26.4079 43.3696 26.9134 43.8485 27.4987C44.3274 28.0974 43.7154 32.2082 41.374 34.1771C41.0148 34.4831 40.6689 34.3235 40.8286 33.9244C41.3607 32.6073 42.5447 29.6406 41.986 28.9355Z" fill="#FF9900"/>
</svg>
