<svg width="48" height="48" viewBox="0 0 48 48" fill="none" xmlns="http://www.w3.org/2000/svg">
<path d="M6 37.3581C6 39.9221 8.07823 42 10.6419 42H37.3581C39.9221 42 42 39.9218 42 37.3581V10.6419C42 8.07795 39.9218 6 37.3581 6H10.6419C8.07795 6 6 8.07823 6 10.6419V37.3581Z" fill="#563D7C"/>
<path d="M20.9284 21.9241V16.826H25.416C25.8434 16.826 26.2555 16.8616 26.6523 16.9328C27.0492 17.004 27.4003 17.1312 27.7055 17.3144C28.0108 17.4976 28.255 17.752 28.4382 18.0776C28.6214 18.4032 28.713 18.8204 28.713 19.3292C28.713 20.2451 28.4382 20.9065 27.8887 21.3136C27.3392 21.7206 26.6371 21.9241 25.7823 21.9241H20.9284ZM16.1355 13.1016V34.8984H26.6981C27.675 34.8984 28.6265 34.7763 29.5525 34.5321C30.4785 34.2879 31.3027 33.9114 32.0252 33.4026C32.7477 32.8938 33.3227 32.2374 33.7501 31.4335C34.1775 30.6296 34.3911 29.6782 34.3911 28.5792C34.3911 27.2156 34.0604 26.0505 33.399 25.0837C32.7376 24.117 31.7352 23.4403 30.392 23.0536C31.3689 22.5855 32.1066 21.9852 32.6053 21.2525C33.1039 20.5198 33.3532 19.604 33.3532 18.505C33.3532 17.4874 33.1853 16.6326 32.8495 15.9407C32.5137 15.2487 32.0405 14.6941 31.4299 14.2769C30.8194 13.8597 30.0867 13.5595 29.2319 13.3763C28.3772 13.1931 27.4308 13.1016 26.3929 13.1016H16.1355ZM20.9284 31.174V25.1906H26.1486C27.1866 25.1906 28.021 25.4297 28.6519 25.908C29.2828 26.3863 29.5983 27.1851 29.5983 28.3044C29.5983 28.8743 29.5016 29.3424 29.3083 29.7087C29.1149 30.075 28.8554 30.3651 28.5298 30.5787C28.2042 30.7924 27.8277 30.9451 27.4003 31.0367C26.9729 31.1283 26.5251 31.174 26.057 31.174H20.9284Z" fill="white"/>
</svg>
