<svg width="48" height="48" viewBox="0 0 48 48" fill="none" xmlns="http://www.w3.org/2000/svg">
<path d="M39.5898 13.641L40.4787 11.3162C40.4787 11.3162 39.3163 10.0171 37.8804 8.5812C36.4445 7.1453 33.4359 7.96581 33.4359 7.96581L30.0171 4H24H17.9829L14.5641 7.96581C14.5641 7.96581 11.5556 7.1453 10.1197 8.5812C8.68379 10.0171 7.5214 11.3162 7.5214 11.3162L8.54704 13.641L7.38464 17.0598C7.38464 17.0598 10.8034 30.3248 11.2137 31.9658C12.0342 35.1795 12.5812 36.4103 14.7693 37.9829C16.9573 39.5556 21.1282 42.4273 21.7436 42.8376C22.4274 43.2479 23.2479 44 24 44C24.7522 44 25.5727 43.2479 26.2564 42.8376C26.9402 42.4273 31.0428 39.6239 33.2308 37.9829C35.4188 36.3419 36.0342 35.1111 36.7864 31.9658C37.1966 30.3248 40.6154 17.0598 40.6154 17.0598L39.5898 13.641Z" fill="url(#paint0_linear_1108_170820)"/>
<path d="M24.0684 28.8889C24.2736 28.8889 25.7778 29.4359 26.9402 30.0512C28.1026 30.6666 28.9915 31.0769 29.265 31.282C29.5385 31.4871 29.4018 31.7606 29.1283 31.9658C28.8548 32.1709 25.5727 34.7692 25.2308 35.0427C24.889 35.3162 24.4103 35.7948 24.1368 35.7948C23.8633 35.7948 23.3163 35.3162 23.0428 35.0427C22.7009 34.7692 19.4189 32.1025 19.1454 31.9658C18.8719 31.7606 18.7351 31.4871 19.0086 31.282C19.2821 31.0769 20.1026 30.6666 21.3334 30.0512C22.359 29.3675 23.8633 28.8889 24.0684 28.8889ZM24.0684 10.1538C24.2052 10.1538 24.8206 10.2222 25.7095 10.4957C26.7351 10.8376 27.7608 11.2478 28.3078 11.2478C28.8548 11.2478 32.5471 10.4957 32.5471 10.4957C32.5471 10.4957 36.9231 15.8974 36.9231 17.0598C36.9231 18.2222 36.3761 18.4957 35.8291 19.1111C35.2821 19.7265 32.8206 22.3247 32.5471 22.6666C32.2052 23.0085 31.5898 23.4871 32.0001 24.4444C32.4103 25.3333 32.9573 26.5641 32.342 27.7265C31.7266 28.8889 30.6325 29.7094 29.9488 29.5726C29.265 29.4359 27.624 28.547 27.077 28.2051C26.4616 27.7948 24.6155 26.2222 24.6155 25.6068C24.6155 24.9914 26.53 23.8974 26.9402 23.6923C27.2821 23.4188 28.9231 22.4615 28.9915 22.1196C28.9915 21.7777 28.9915 21.641 28.5129 20.6837C28.0343 19.7265 27.1454 18.4957 27.2821 17.6752C27.4189 16.8547 28.8548 16.4444 29.812 16.0342C30.8377 15.6239 32.7522 14.9401 32.9573 14.8034C33.2308 14.6666 33.1625 14.5983 32.4103 14.5299C31.6582 14.4615 29.6069 14.188 28.6496 14.4615C27.6924 14.735 26.1197 15.1453 25.983 15.3504C25.8462 15.5555 25.7095 15.6239 25.8462 16.376C25.983 17.1282 26.6667 20.6837 26.7351 21.2991C26.8035 21.9145 26.9402 22.3247 26.2565 22.5299C25.5727 22.6666 24.4787 22.9401 24.0684 22.9401C23.6582 22.9401 22.5642 22.6666 21.8804 22.5299C21.1967 22.3931 21.3334 21.9829 21.4018 21.2991C21.4702 20.6837 22.1539 17.1282 22.2907 16.376C22.4274 15.6239 22.2907 15.6239 22.1539 15.4188C22.0172 15.2136 20.4445 14.8034 19.4873 14.5299C18.53 14.2564 16.4787 14.5299 15.7266 14.5983C14.9744 14.6666 14.9061 14.8034 15.1796 14.8718C15.4531 15.0085 17.3676 15.6923 18.3249 16.1025C19.3505 16.5128 20.718 16.923 20.8548 17.7436C20.9915 18.5641 20.1026 19.7948 19.624 20.7521C19.1454 21.7094 19.1454 21.7777 19.1454 22.188C19.1454 22.5299 20.7864 23.4871 21.1967 23.7606C21.5385 24.0342 23.5214 25.1282 23.5214 25.6752C23.5214 26.2906 21.6069 27.8632 21.0599 28.2735C20.4445 28.6837 18.8719 29.5042 18.1881 29.641C17.5043 29.7777 16.4103 28.9572 15.7949 27.7948C15.1796 26.6324 15.7266 25.4017 16.1368 24.5128C16.5471 23.6239 15.8633 23.0769 15.5898 22.735C15.2479 22.3931 12.8548 19.7948 12.3078 19.1795C11.7608 18.5641 11.2137 18.2906 11.2137 17.1282C11.2137 15.9658 15.5898 10.5641 15.5898 10.5641C15.5898 10.5641 19.2821 11.3162 19.8291 11.3162C20.3761 11.3162 21.4018 10.9059 22.4274 10.5641C23.3163 10.1538 23.9317 10.1538 24.0684 10.1538Z" fill="white"/>
<path d="M33.5042 8.03429L30.0854 4.06848H24.0683H18.0512L14.6324 8.03429C14.6324 8.03429 11.6239 7.21378 10.188 8.64968C10.188 8.64968 14.2222 8.3078 15.5897 10.5642C15.5897 10.5642 19.282 11.3163 19.829 11.3163C20.376 11.3163 21.4017 10.9061 22.4273 10.5642C23.4529 10.2223 24.0683 10.2223 24.0683 10.2223C24.0683 10.2223 24.7521 10.2223 25.7094 10.5642C26.735 10.9061 27.7606 11.3163 28.3076 11.3163C28.8547 11.3163 32.547 10.5642 32.547 10.5642C33.9145 8.3078 37.9487 8.64968 37.9487 8.64968C36.5128 7.1454 33.5042 8.03429 33.5042 8.03429Z" fill="url(#paint1_linear_1108_170820)"/>
<defs>
<linearGradient id="paint0_linear_1108_170820" x1="7.37256" y1="23.9983" x2="40.7386" y2="23.9983" gradientUnits="userSpaceOnUse">
<stop stop-color="#FF5500"/>
<stop offset="0.4099" stop-color="#FF5500"/>
<stop offset="0.582" stop-color="#FF2000"/>
<stop offset="1" stop-color="#FF2000"/>
</linearGradient>
<linearGradient id="paint1_linear_1108_170820" x1="10.8315" y1="7.65259" x2="37.9298" y2="7.65259" gradientUnits="userSpaceOnUse">
<stop stop-color="#FF452A"/>
<stop offset="1" stop-color="#FF2000"/>
</linearGradient>
</defs>
</svg>
