<svg width="48" height="48" viewBox="0 0 48 48" fill="none" xmlns="http://www.w3.org/2000/svg">
<path d="M24.0001 24L32.6605 28.9999L24.0001 43.9999C35.0458 43.9999 44 35.0457 44 24C44 20.356 43.0207 16.9426 41.3178 13.9999H23.9999L24.0001 24Z" fill="#FBBF12"/>
<path d="M24 4C16.5975 4 10.1392 8.02461 6.68091 14.0025L15.3396 29.0002L24 24.0002V14.0001H41.318C37.8591 8.02373 31.4017 4 24 4Z" fill="url(#paint0_linear_1108_170839)"/>
<path d="M4.00012 24C4.00012 35.0456 12.9541 43.9999 24.0001 43.9999L32.6605 28.9999L24.0001 24L15.3396 28.9999L6.68093 14.0022C4.97905 16.9441 4 20.3562 4 23.9997" fill="url(#paint1_linear_1108_170839)"/>
<path d="M34.0002 24C34.0002 29.5228 29.523 34.0001 24.0001 34.0001C18.4773 34.0001 14 29.5228 14 24C14 18.4772 18.4773 13.9999 24.0001 13.9999C29.523 13.9999 34.0002 18.4772 34.0002 24Z" fill="white"/>
<path d="M32.1252 24C32.1252 28.4873 28.4874 32.1251 24.0001 32.1251C19.5128 32.1251 15.875 28.4873 15.875 24C15.875 19.5127 19.5128 15.8749 24.0001 15.8749C28.4874 15.8749 32.1252 19.5127 32.1252 24Z" fill="#1A73E8"/>
<defs>
<linearGradient id="paint0_linear_1108_170839" x1="12.6809" y1="16.4999" x2="30.7772" y2="16.4999" gradientUnits="userSpaceOnUse">
<stop stop-color="#DB3328"/>
<stop offset="1" stop-color="#E53D30"/>
</linearGradient>
<linearGradient id="paint1_linear_1108_170839" x1="11.6218" y1="17.5635" x2="19.0385" y2="30.4098" gradientUnits="userSpaceOnUse">
<stop stop-color="#32A651"/>
<stop offset="1" stop-color="#279847"/>
</linearGradient>
</defs>
</svg>
