<svg width="48" height="48" viewBox="0 0 48 48" fill="none" xmlns="http://www.w3.org/2000/svg">
<path d="M23.9844 42L13.5688 39.1085L11.2477 13.0748H36.7524L34.4289 39.1044L23.9844 42Z" fill="#264DE4"/>
<path d="M32.4396 37.447L34.4252 15.2035H24V39.7868L32.4396 37.447Z" fill="#2965F1"/>
<path d="M16.5687 24.859L16.8549 28.0519H24.0001V24.859H16.5687Z" fill="#EBEBEB"/>
<path d="M15.9937 18.3965L16.2839 21.5894H24V18.3965H15.9937Z" fill="#EBEBEB"/>
<path d="M24.0001 33.1514L23.9861 33.1551L20.4301 32.1949L20.2028 29.6484H16.9976L17.4449 34.6618L23.9854 36.4775L24.0001 36.4734V33.1514Z" fill="#EBEBEB"/>
<path d="M17.25 6H21.1172V7.61719H18.8672V9.23438H21.1172V10.8516H17.25V6Z" fill="black"/>
<path d="M21.8906 6H25.7578V7.40625H23.5078V7.6875H25.7578V10.9219H21.8906V9.44531H24.1406V9.16406H21.8906V6Z" fill="black"/>
<path d="M26.5312 6H30.3984V7.40625H28.1484V7.6875H30.3984V10.9219H26.5312V9.44531H28.7812V9.16406H26.5312V6Z" fill="black"/>
<path d="M31.4109 24.859L31.9873 18.3965H23.989V21.5894H28.4882L28.1976 24.859H23.989V28.0519H27.9207L27.5501 32.1929L23.989 33.1541V36.4759L30.5347 34.6618L30.5827 34.1224L31.333 25.7164L31.4109 24.859Z" fill="white"/>
</svg>
