<svg width="48" height="48" viewBox="0 0 48 48" fill="none" xmlns="http://www.w3.org/2000/svg">
<path d="M41.2569 20.9239C40.4462 20.3614 38.5885 20.1505 37.1361 20.4318C36.9672 19.0256 36.1903 17.7951 34.8392 16.7053L34.0624 16.1429L33.5219 16.9514C32.8464 18.0061 32.5086 19.4826 32.6099 20.8888C32.6437 21.3809 32.8126 22.2598 33.3193 23.0332C32.8464 23.3144 31.8668 23.666 30.5833 23.666H6.16239L6.09484 23.9472C5.85839 25.3534 5.85839 29.7478 8.62813 33.1226C10.7223 35.6889 13.8298 36.9897 17.9169 36.9897C26.7665 36.9897 33.3193 32.7359 36.393 25.037C37.609 25.0722 40.2098 25.037 41.5271 22.4004C41.5609 22.3301 41.6285 22.1895 41.8649 21.6622L42 21.3809L41.2569 20.9239ZM25.6856 11.0103H21.9701V14.5257H25.6856V11.0103ZM25.6856 15.2288H21.9701V18.7443H25.6856V15.2288ZM21.2946 15.2288H17.5791V18.7443H21.2946V15.2288ZM16.9035 15.2288H13.188V18.7443H16.9035V15.2288ZM12.5125 19.4474H8.79701V22.9629H12.5125V19.4474ZM16.9035 19.4474H13.188V22.9629H16.9035V19.4474ZM21.2946 19.4474H17.5791V22.9629H21.2946V19.4474ZM25.6856 19.4474H21.9701V22.9629H25.6856V19.4474ZM30.0766 19.4474H26.3612V22.9629H30.0766V19.4474Z" fill="#2396ED"/>
</svg>
