<svg width="48" height="48" viewBox="0 0 48 48" fill="none" xmlns="http://www.w3.org/2000/svg">
<path d="M24.0067 6C33.9453 6.00334 42 14.0614 42 24V24.0067C41.9967 33.9469 33.9352 42.0033 23.9933 42C14.0531 41.9967 5.99666 33.9336 6 23.9933C6.00334 14.0531 14.0648 5.99666 24.0067 6ZM23.9148 10.6294C23.4205 12.4999 21.7538 14.1616 20.0085 15.9068C17.3982 18.5238 14.4305 21.4849 14.4305 25.9323C14.4372 31.1629 18.6725 35.4032 23.9031 35.4166C29.1438 35.4166 33.3941 31.1713 33.3991 25.9323C33.3991 21.4849 30.4398 18.5255 27.8211 15.9068L27.5872 15.6729C25.9288 14.0125 24.3854 12.4178 23.9148 10.6294ZM24.0434 24.8317C25.1323 25.9924 25.8237 26.7924 26.5402 27.6658C26.5936 27.7309 26.642 27.8011 26.6855 27.8762C27.5623 29.1405 27.4437 30.8439 26.3999 31.9729C25.1707 33.304 23.0965 33.3858 21.7654 32.1566C20.4344 30.9274 20.3526 28.8532 21.5817 27.5222C22.2798 26.6972 23.1232 25.8855 24.0434 24.8317ZM19.7096 20.4795L20.1672 20.912L22.2915 23.0848C22.3717 23.1767 22.3717 23.3119 22.2915 23.4038L20.0703 25.8588L19.2937 26.804C18.9981 27.1648 18.7476 27.5572 18.5472 27.9781C18.5188 28.0482 18.4587 28.1 18.3852 28.1167H18.3067C18.0913 28.0984 17.8441 27.7009 17.8441 27.7009L17.8048 27.6413C17.7535 27.5614 17.7065 27.4791 17.6638 27.3936L17.622 27.3034C17.3181 26.3147 17.2947 25.2609 17.5502 24.2589L17.579 24.1547C17.8148 23.3229 18.187 22.5341 18.6808 21.8222C18.9981 21.3546 19.3422 20.907 19.7096 20.4795ZM23.9282 16.0872C24.4943 16.7302 25.1323 17.3748 25.7335 17.9761L25.7469 18.0178C27.0045 19.1885 28.1401 20.4828 29.1405 21.8807C29.9889 23.0731 30.4531 24.496 30.4698 25.9607C30.4698 26.5936 30.3747 27.2216 30.1876 27.8261L30.1783 27.8511C30.128 27.9736 30.0185 28.0631 29.887 28.085H29.8269C29.6966 28.0432 29.5881 27.9564 29.5196 27.8378L29.4189 27.6866C28.8773 26.8832 28.2667 26.1291 27.594 25.4312L26.7272 24.5161L23.838 21.5066C23.3503 21.0373 22.4786 20.1956 22.1112 19.738C22.0995 19.7129 22.0861 19.6896 22.0694 19.6662C21.9692 19.5292 21.8924 19.3773 21.8406 19.2153V19.1251C21.7905 18.8311 21.8306 18.5289 21.9542 18.2583C22.0343 18.0863 22.1446 17.9293 22.2798 17.7957C22.8393 17.2362 23.3988 16.6884 23.9282 16.0872Z" fill="#009DDE"/>
</svg>
