<svg width="48" height="48" viewBox="0 0 48 48" fill="none" xmlns="http://www.w3.org/2000/svg">
<path d="M40.1016 33.7685C39.5683 34.0474 39.0184 34.2932 38.4549 34.5044C36.6612 35.1755 34.7612 35.5174 32.8461 35.5136C25.4532 35.5136 19.0133 30.4283 19.0133 23.9024C19.0228 23.0272 19.2657 22.1703 19.7169 21.4202C20.1682 20.6702 20.8114 20.0542 21.5802 19.6357C14.8935 19.917 13.1749 26.8849 13.1749 30.9673C13.1749 42.5097 23.8128 43.6799 26.1047 43.6799C27.3405 43.6799 29.2044 43.3206 30.323 42.9675L30.5277 42.8987C34.8322 41.4106 38.5019 38.5013 40.9327 34.6497C41.0072 34.5324 41.0404 34.3936 41.0272 34.2553C41.014 34.117 40.955 33.987 40.8597 33.886C40.7644 33.7849 40.6381 33.7185 40.5008 33.6972C40.3635 33.676 40.223 33.701 40.1016 33.7685Z" fill="url(#paint0_linear_1108_170986)"/>
<path opacity="0.35" d="M40.1016 33.7685C39.5683 34.0474 39.0184 34.2932 38.4549 34.5044C36.6612 35.1755 34.7612 35.5174 32.8461 35.5136C25.4532 35.5136 19.0133 30.4283 19.0133 23.9024C19.0228 23.0272 19.2657 22.1703 19.7169 21.4202C20.1682 20.6702 20.8114 20.0542 21.5802 19.6357C14.8935 19.917 13.1749 26.8849 13.1749 30.9673C13.1749 42.5097 23.8128 43.6799 26.1047 43.6799C27.3405 43.6799 29.2044 43.3206 30.323 42.9675L30.5277 42.8987C34.8322 41.4106 38.5019 38.5013 40.9327 34.6497C41.0072 34.5324 41.0404 34.3936 41.0272 34.2553C41.014 34.117 40.955 33.987 40.8597 33.886C40.7644 33.7849 40.6381 33.7185 40.5008 33.6972C40.3635 33.676 40.223 33.701 40.1016 33.7685Z" fill="url(#paint1_radial_1108_170986)"/>
<path d="M20.5194 41.7176C19.1259 40.8527 17.9183 39.7194 16.9667 38.3836C15.8821 36.8976 15.1358 35.1924 14.78 33.3874C14.4242 31.5825 14.4677 29.7216 14.9073 27.9352C15.3469 26.1488 16.172 24.4803 17.3247 23.0465C18.4775 21.6128 19.9299 20.4486 21.5802 19.6357C22.0677 19.406 22.9004 18.9905 24.0081 19.0108C24.7885 19.0165 25.557 19.2028 26.2533 19.5552C26.9496 19.9075 27.5549 20.4164 28.0217 21.0418C28.6526 21.8842 29.0004 22.9048 29.0153 23.9571C29.0153 23.9243 32.8368 11.521 16.5167 11.521C9.65814 11.521 4.01815 18.0296 4.01815 23.7399C3.9911 26.7606 4.63741 29.7493 5.91012 32.4889C7.99009 36.9268 11.6274 40.4464 16.1313 42.3792C20.6352 44.3121 25.6921 44.5236 30.3417 42.9737C28.7137 43.487 26.9937 43.6411 25.3004 43.4253C23.6071 43.2095 21.9807 42.629 20.5335 41.7238L20.5194 41.7176Z" fill="url(#paint2_linear_1108_170986)"/>
<path opacity="0.41" d="M20.5194 41.7176C19.1259 40.8527 17.9183 39.7194 16.9667 38.3836C15.8821 36.8976 15.1358 35.1924 14.78 33.3874C14.4242 31.5825 14.4677 29.7216 14.9073 27.9352C15.3469 26.1488 16.172 24.4803 17.3247 23.0465C18.4775 21.6128 19.9299 20.4486 21.5802 19.6357C22.0677 19.406 22.9004 18.9905 24.0081 19.0108C24.7885 19.0165 25.557 19.2028 26.2533 19.5552C26.9496 19.9075 27.5549 20.4164 28.0217 21.0418C28.6526 21.8842 29.0004 22.9048 29.0153 23.9571C29.0153 23.9243 32.8368 11.521 16.5167 11.521C9.65814 11.521 4.01815 18.0296 4.01815 23.7399C3.9911 26.7606 4.63741 29.7493 5.91012 32.4889C7.99009 36.9268 11.6274 40.4464 16.1313 42.3792C20.6352 44.3121 25.6921 44.5236 30.3417 42.9737C28.7137 43.487 26.9937 43.6411 25.3004 43.4253C23.6071 43.2095 21.9807 42.629 20.5335 41.7238L20.5194 41.7176Z" fill="url(#paint3_radial_1108_170986)"/>
<path d="M27.7999 27.2567C27.6733 27.4208 27.2843 27.6473 27.2843 28.141C27.2843 28.5488 27.5499 28.9409 28.0217 29.2706C30.2683 30.8329 34.5038 30.6267 34.5147 30.6267C36.1794 30.6227 37.8126 30.1722 39.2439 29.3221C40.6878 28.479 41.8862 27.2731 42.7201 25.8239C43.5541 24.3747 43.9946 22.7326 43.998 21.0606C44.0386 17.5594 42.7482 15.2315 42.2263 14.2004C38.9158 7.72458 31.7697 4 23.9987 4C18.7434 3.99948 13.699 6.06773 9.95668 9.75743C6.21436 13.4471 4.07488 18.4617 4.00098 23.7165C4.07597 18.0078 9.75033 13.3974 16.4996 13.3974C17.0464 13.3974 20.1648 13.4505 23.0613 14.9706C25.6142 16.3111 26.9515 17.9297 27.8811 19.5342C28.8466 21.2012 29.0185 23.3072 29.0185 24.1462C29.0185 24.9851 28.5904 26.2287 27.7999 27.2567Z" fill="url(#paint4_radial_1108_170986)"/>
<path d="M27.7999 27.2567C27.6733 27.4208 27.2843 27.6473 27.2843 28.141C27.2843 28.5488 27.5499 28.9409 28.0217 29.2706C30.2683 30.8329 34.5038 30.6267 34.5147 30.6267C36.1794 30.6227 37.8126 30.1722 39.2439 29.3221C40.6878 28.479 41.8862 27.2731 42.7201 25.8239C43.5541 24.3747 43.9946 22.7326 43.998 21.0606C44.0386 17.5594 42.7482 15.2315 42.2263 14.2004C38.9158 7.72458 31.7697 4 23.9987 4C18.7434 3.99948 13.699 6.06773 9.95668 9.75743C6.21436 13.4471 4.07488 18.4617 4.00098 23.7165C4.07597 18.0078 9.75033 13.3974 16.4996 13.3974C17.0464 13.3974 20.1648 13.4505 23.0613 14.9706C25.6142 16.3111 26.9515 17.9297 27.8811 19.5342C28.8466 21.2012 29.0185 23.3072 29.0185 24.1462C29.0185 24.9851 28.5904 26.2287 27.7999 27.2567Z" fill="url(#paint5_radial_1108_170986)"/>
<defs>
<linearGradient id="paint0_linear_1108_170986" x1="13.1749" y1="31.6609" x2="41.0374" y2="31.6609" gradientUnits="userSpaceOnUse">
<stop stop-color="#0C59A4"/>
<stop offset="1" stop-color="#114A8B"/>
</linearGradient>
<radialGradient id="paint1_radial_1108_170986" cx="0" cy="0" r="1" gradientUnits="userSpaceOnUse" gradientTransform="translate(28.5638 31.8805) scale(14.9014 14.1564)">
<stop offset="0.72" stop-opacity="0"/>
<stop offset="0.95" stop-opacity="0.53"/>
<stop offset="1"/>
</radialGradient>
<linearGradient id="paint2_linear_1108_170986" x1="27.8639" y1="19.5748" x2="10.4612" y2="38.5304" gradientUnits="userSpaceOnUse">
<stop stop-color="#1B9DE2"/>
<stop offset="0.16" stop-color="#1595DF"/>
<stop offset="0.67" stop-color="#0680D7"/>
<stop offset="1" stop-color="#0078D4"/>
</linearGradient>
<radialGradient id="paint3_radial_1108_170986" cx="0" cy="0" r="1" gradientUnits="userSpaceOnUse" gradientTransform="translate(15.0301 35.0915) rotate(-81.3844) scale(22.4078 18.1032)">
<stop offset="0.76" stop-opacity="0"/>
<stop offset="0.95" stop-opacity="0.5"/>
<stop offset="1"/>
</radialGradient>
<radialGradient id="paint4_radial_1108_170986" cx="0" cy="0" r="1" gradientUnits="userSpaceOnUse" gradientTransform="translate(8.04153 11.4018) rotate(92.2906) scale(31.6514 67.4109)">
<stop stop-color="#35C1F1"/>
<stop offset="0.11" stop-color="#34C1ED"/>
<stop offset="0.23" stop-color="#2FC2DF"/>
<stop offset="0.31" stop-color="#2BC3D2"/>
<stop offset="0.67" stop-color="#36C752"/>
</radialGradient>
<radialGradient id="paint5_radial_1108_170986" cx="0" cy="0" r="1" gradientUnits="userSpaceOnUse" gradientTransform="translate(41.508 16.0933) rotate(73.7398) scale(15.2077 12.3669)">
<stop stop-color="#66EB6E"/>
<stop offset="1" stop-color="#66EB6E" stop-opacity="0"/>
</radialGradient>
</defs>
</svg>
