<svg width="48" height="48" viewBox="0 0 48 48" fill="none" xmlns="http://www.w3.org/2000/svg">
<path d="M14.1175 33.2048C14.1456 33.1345 14.1738 33.0642 14.2019 32.9938L14.216 32.9657C14.2863 32.7969 14.3566 32.614 14.427 32.4452C14.5114 32.2201 14.5958 31.9809 14.6802 31.7559C14.7365 31.6292 14.7787 31.5026 14.8209 31.362C14.9062 31.1273 15.0158 30.8362 15.1434 30.5374C15.1842 30.442 15.2268 30.3459 15.2711 30.2506C15.3836 30.0114 15.468 29.8426 15.5665 29.6879C15.679 29.505 15.7916 29.3362 15.9182 29.1674L16.0166 29.0267L16.1714 28.9282C16.1855 28.9142 16.2136 28.9001 16.2417 28.886C16.2859 28.8595 16.3356 28.8386 16.3804 28.8197C16.407 28.8085 16.4318 28.798 16.4528 28.7875C16.5512 28.7453 16.6778 28.7031 16.8185 28.6609C17.0155 28.6047 17.2406 28.5484 17.5078 28.4921C17.9017 28.4077 18.3238 28.3233 18.8584 28.2389C19.5408 28.1311 20.2639 28.0336 21.0972 27.9375C21.2431 27.9207 21.3923 27.904 21.5453 27.8872C23.3601 27.6902 25.1748 27.5496 26.9192 27.4652C27.8477 27.423 28.5511 27.4089 29.2123 27.4089C29.353 27.4089 29.4936 27.4089 29.6343 27.4089C30.0704 27.423 30.5769 27.437 31.0411 27.5074C31.2099 27.5355 31.3647 27.5636 31.4772 27.6058C31.5194 27.6199 31.5616 27.634 31.5757 27.648L31.7164 27.7043L31.8289 27.8028C31.8711 27.845 31.9133 27.8872 31.9555 27.9294C32.1103 28.0841 32.2791 28.267 32.4479 28.478C32.9825 29.1533 33.4608 29.9692 33.8828 30.8977C34.099 31.3749 34.2718 31.8244 34.4094 32.2587C34.5315 32.644 34.626 33.0174 34.6987 33.3877L34.9098 34.4991H34.2176H32.3213L32.1665 33.7535C31.9977 32.9657 29.8735 30.8836 28.8184 30.4757C28.7058 30.4335 28.2557 30.3069 26.863 30.3069C23.9931 30.3069 19.9416 30.8133 19.3648 30.9399C18.6755 31.2635 17.6204 32.614 17.0155 33.9645L16.7622 34.5132" fill="white"/>
<path d="M36.7527 31.7418C36.0476 31.7418 35.3049 31.4564 34.691 31.0654C34.3128 30.8245 33.9835 30.5436 33.7421 30.2647C33.1654 29.6035 33.1091 29.0126 33.1654 28.6328C33.1783 28.5474 33.2017 28.462 33.2356 28.3795C33.3859 28.0135 33.7423 27.7043 34.3048 27.7043C34.3563 27.7043 34.4077 27.7066 34.4582 27.7103C34.4882 27.7125 34.5179 27.7152 34.547 27.7182C34.5896 27.7225 34.631 27.7275 34.6706 27.7325C34.6988 27.6054 34.7368 27.4438 34.795 27.273C34.8516 27.1067 34.9274 26.9316 35.032 26.7711C35.0846 26.6904 35.1446 26.6133 35.2131 26.5429C35.2411 26.5142 35.2705 26.4865 35.3015 26.4602C35.5053 26.2868 35.7747 26.1709 36.1337 26.1709C36.1899 26.1709 36.2321 26.1709 36.2884 26.1709C36.8089 26.2272 37.2028 26.5508 37.3576 27.0431C37.5264 26.9587 37.7233 26.8884 37.9484 26.8884C38.286 26.8884 38.6096 27.0291 38.8488 27.2823C39.2286 27.6902 39.313 28.253 39.0738 28.7875C39.3271 28.9423 39.524 29.1814 39.6084 29.4909C39.721 29.8848 39.6506 30.3069 39.3974 30.6445C38.9187 31.3147 37.8283 31.6392 36.9407 31.6825C36.9153 31.6837 36.8902 31.6847 36.8652 31.6855C36.8089 31.7418 36.7808 31.7418 36.7527 31.7418Z" fill="white"/>
<path d="M20.2792 10.9917C20.659 10.4149 20.5324 9.92256 20.434 9.68341C20.2349 9.25681 19.8569 9.11768 19.5326 9.07231C18.682 9.41397 17.9564 9.83889 17.3769 10.2974C17.4401 10.282 17.5053 10.2743 17.5782 10.2743C17.9439 10.2743 18.2816 10.4712 18.4785 10.8088C18.6472 11.1052 18.7174 11.5835 18.7034 12.1332C18.7496 12.1338 18.7954 12.1346 18.8408 12.1356C19.4737 11.8475 20.007 11.4124 20.2792 10.9917Z" fill="white"/>
<path d="M29.5038 9.41782C29.5511 9.40635 29.5982 9.39393 29.6449 9.38061C28.3993 8.75414 26.6594 8.32137 24.2041 8.24849C23.9417 8.23467 23.7064 8.23442 23.4849 8.23442C22.0695 8.23455 20.5364 8.38831 19.0951 9.05035H19.1256C19.2312 9.05035 19.3756 9.05035 19.5326 9.07231C20.7543 8.58155 22.234 8.26255 23.9087 8.26255H24.0213C26.2149 8.27949 28.0465 8.66868 29.5038 9.41782Z" fill="white"/>
<path d="M17.2201 10.2889C17.2539 10.3009 17.2844 10.3102 17.3109 10.3165C17.3328 10.3092 17.3547 10.3028 17.3769 10.2974C17.9564 9.83889 18.682 9.41397 19.5326 9.07231C19.3756 9.05035 19.2312 9.05035 19.1256 9.05035H19.0951C18.445 9.34895 17.8136 9.75095 17.2201 10.2889Z" fill="white"/>
<path d="M16.0762 9.71861C15.0728 9.17496 13.9339 8.55798 12.7951 8.55798C12.364 8.55798 11.9701 8.64654 11.6197 8.8198C11.4785 8.91447 11.345 9.01948 11.2195 9.13476L12.0583 10.7315C12.1903 10.7201 12.3288 10.7104 12.4575 10.7104C13.5977 10.7104 14.5593 11.2464 15.4101 11.7207L15.4399 11.7373L15.5093 11.7756L15.5095 11.7757C15.6115 11.832 15.7114 11.8871 15.8096 11.9401C16.2424 11.2805 16.7129 10.7352 17.21 10.2853C16.9648 10.1963 16.5554 9.97626 16.2239 9.79807C16.1865 9.77799 16.1502 9.75845 16.1151 9.73968L16.0762 9.71861Z" fill="white"/>
<path d="M13.2312 12.2578H13.1046C13.029 12.2636 12.9545 12.2779 12.8823 12.2999L14.3511 15.0958C14.7032 13.9993 15.1203 13.0748 15.5866 12.296C15.2936 12.3293 14.9961 12.3681 14.6943 12.4126H14.5677C14.3426 12.4126 14.0753 12.3704 13.8502 12.3282C13.6251 12.286 13.4282 12.2578 13.2312 12.2578Z" fill="white"/>
<path d="M20.7206 27.2206C20.9528 27.1947 21.1942 27.1686 21.4468 27.1416C23.2757 26.9587 25.1045 26.818 26.877 26.7477C27.0421 26.7422 27.2003 26.7367 27.3523 26.7314L27.3525 26.7314C27.9777 26.7096 28.5007 26.6914 28.9872 26.6914H29.6343L29.6679 26.6925C30.1096 26.7062 30.6045 26.7217 31.1396 26.804H31.1537C31.1878 26.8116 31.2271 26.8192 31.2707 26.8276C31.3886 26.8504 31.538 26.8792 31.7023 26.9306H31.7164C31.748 26.9464 31.7884 26.9622 31.8353 26.9805C31.8719 26.9948 31.9123 27.0106 31.9555 27.0291C31.9864 27.0476 32.0145 27.0634 32.0399 27.0776C32.0725 27.0959 32.1006 27.1117 32.1243 27.1275L32.1947 27.1838L32.2509 27.226L32.3072 27.2823L32.462 27.437C32.6448 27.6199 32.8137 27.8169 32.9965 28.056C33.0777 28.1615 33.1573 28.2692 33.2356 28.3795C33.3859 28.0135 33.7423 27.7043 34.3048 27.7043C34.3563 27.7043 34.4077 27.7066 34.4582 27.7103L32.884 26.9165C32.9121 26.8532 32.9403 26.7864 32.9684 26.7196L32.9685 26.7192C32.9966 26.6525 33.0247 26.5858 33.0528 26.5226C33.6296 25.144 34.0657 23.9341 33.3764 23.1604C32.9794 22.7223 31.9596 22.1111 30.6639 21.4336C30.4572 21.4501 30.2361 21.4582 30.0001 21.4582C28.5792 21.4582 26.2018 21.1065 25.3858 20.3187C24.9029 19.8568 24.6472 19.1676 24.4433 18.4325C24.0216 18.2313 23.6139 18.0355 23.2206 17.8446C22.8641 18.6876 22.3711 19.5665 21.6016 20.1217C21.1233 20.4734 19.3929 20.7829 18.0565 20.7829C17.7998 20.7829 17.555 20.7726 17.3223 20.7517L20.7206 27.2206Z" fill="white"/>
<path d="M35.5287 6.86984C35.3599 6.7995 35.1911 6.77136 35.0082 6.77136C34.9379 6.77136 34.8682 6.77617 34.7989 6.78564C33.8029 6.92197 32.9134 8.02418 31.7164 9.65527C31.5467 9.89439 31.3431 10.1758 31.1568 10.4183C31.5949 10.8353 31.9215 11.2847 32.171 11.7408C32.2738 11.8904 32.3695 12.0417 32.4586 12.1941C32.7547 12.7009 32.9785 13.2208 33.1523 13.7346C33.1882 13.7509 33.222 13.7631 33.2498 13.7631H33.306C33.4651 13.7631 33.6881 13.7205 33.8915 13.6816L33.9387 13.6727C33.953 13.6699 33.9673 13.6672 33.9813 13.6646C34.1244 13.6288 34.2676 13.6031 34.4022 13.579L34.4466 13.571L34.4737 13.5661H34.6003C34.9341 13.5661 35.2432 13.7145 35.4771 13.9734C35.4851 13.9641 35.493 13.9549 35.5006 13.946C36.5557 12.708 37.2732 11.3575 37.442 10.218C37.6811 8.67052 36.9777 7.44662 35.5287 6.86984Z" fill="white"/>
<path d="M30.7597 10.8932C30.4362 10.9636 29.9157 11.2309 29.9157 12.2156C29.9157 12.3767 29.9284 12.5809 29.9583 12.8099C30.0004 12.8352 30.042 12.8592 30.0832 12.8821C30.6392 12.9553 31.1159 13.0524 31.5215 13.1569C31.7556 13.0823 31.9567 12.936 32.0962 12.7221C32.2024 12.566 32.3071 12.4132 32.4104 12.2638C32.3215 12.0558 32.2193 11.8472 32.1006 11.6403C32.0362 11.55 31.9692 11.4604 31.8992 11.3715C31.6544 11.0595 31.3845 10.7705 31.0898 10.5048C30.9624 10.6677 30.8464 10.8065 30.7597 10.8932Z" fill="white"/>
<path d="M15.3273 33.1908L14.7365 34.4991H15.0178H15.0243L15.6368 33.1767C15.8793 32.659 16.2805 31.9399 16.7807 31.261C16.6904 31.2283 16.601 31.195 16.5125 31.1611C16.032 31.815 15.6192 32.5357 15.3273 33.1908Z" fill="white"/>
<path d="M15.2711 30.2506C15.3836 30.0114 15.468 29.8426 15.5665 29.6879C15.679 29.505 15.7916 29.3362 15.9182 29.1674L16.0166 29.0267L16.1714 28.9282C16.1855 28.9142 16.2136 28.9001 16.2417 28.886C16.2859 28.8595 16.3356 28.8386 16.3804 28.8197C16.407 28.8085 16.4318 28.798 16.4528 28.7875C16.5512 28.7453 16.6778 28.7031 16.8185 28.6609C17.0155 28.6047 17.2406 28.5484 17.5078 28.4921C17.9017 28.4077 18.3238 28.3233 18.8584 28.2389C19.5408 28.1311 20.2639 28.0336 21.0972 27.9375L20.7206 27.2206C19.9832 27.3029 19.3382 27.3829 18.7177 27.4792C18.169 27.5636 17.7329 27.648 17.325 27.7325L17.3022 27.7373C17.1077 27.779 16.85 27.8341 16.5794 27.9153C16.545 27.9268 16.5084 27.9383 16.4702 27.9503C16.3676 27.9826 16.2521 28.0189 16.1292 28.0701C16.0589 28.0982 15.9604 28.1404 15.8338 28.2108C15.7916 28.2248 15.7072 28.267 15.6227 28.3374H15.6087C15.5243 28.3936 15.4117 28.4921 15.2851 28.6469C15.1444 28.8297 15.0038 29.0267 14.8772 29.2236C14.7365 29.4347 14.6239 29.6175 14.5255 29.8004C14.4625 29.9054 14.402 30.0128 14.3429 30.1235C14.5955 30.2641 14.863 30.4027 15.1434 30.5374C15.1842 30.442 15.2268 30.3459 15.2711 30.2506Z" fill="white"/>
<path d="M22.0799 32.192C22.4175 32.192 22.7551 32.1779 23.0787 32.1498C23.153 32.1437 23.2269 32.1375 23.3003 32.1312L22.6151 30.8269C21.081 30.9714 19.8051 31.1403 19.4633 31.2072C19.272 31.3029 19.0248 31.5102 18.7572 31.799C19.8269 32.0442 20.9519 32.192 22.0799 32.192Z" fill="white"/>
<path d="M30.1267 33.5847H26.666V34.4991H30.1267V33.5847Z" fill="white"/>
<path d="M35.0364 32.0091C35.1911 32.5015 35.3037 32.9657 35.3881 33.4159L35.5569 34.4991H34.9098H34.2176L34.2204 34.5132H35.6781L35.9367 34.0911C36.2448 33.585 36.6131 32.6229 36.9407 31.6825C36.9153 31.6837 36.8902 31.6847 36.8652 31.6855C36.8089 31.7418 36.7808 31.7418 36.7527 31.7418C36.0476 31.7418 35.3049 31.4564 34.691 31.0654C34.7391 31.1812 34.7851 31.2967 34.8288 31.4117L34.8394 31.4042L34.8321 31.4203C34.9073 31.6184 34.9757 31.8151 35.0364 32.0091Z" fill="white"/>
<path fill-rule="evenodd" clip-rule="evenodd" d="M31.9689 8.0724C31.244 8.59663 30.5003 9.13444 29.6539 9.37804C28.4086 8.75296 26.6701 8.32127 24.2182 8.24849C23.9509 8.23442 23.7118 8.23442 23.4867 8.23442L23.4849 8.23442L23.4726 8.23442C22.0568 8.23442 20.5229 8.38802 19.081 9.05035H18.8865H18.6051C18.2534 9.05035 17.7892 9.02222 17.4375 8.89561C16.1292 8.4173 14.9616 8.17815 13.9768 8.17815C13.0448 8.17815 12.254 8.3946 11.6197 8.8198C11.1926 9.03102 10.8302 9.36811 10.5443 9.82408C10.2207 10.3305 9.96748 11.2027 10.5443 12.4829C10.8629 13.1892 11.382 13.8875 12.0016 14.499C12.0243 14.5888 12.0541 14.6727 12.0917 14.7478C12.2345 15.0465 12.4972 15.2252 12.7138 15.3727C12.7319 15.385 12.7496 15.3971 12.767 15.409C12.781 15.4161 12.7916 15.4231 12.8021 15.4301C12.8127 15.4372 12.8232 15.4442 12.8373 15.4512C13.0316 16.3004 13.2631 17.0489 13.5318 17.694C13.3209 18.0943 13.0498 18.5365 12.7683 18.9957L12.7248 19.0667L12.6624 19.1686C11.904 20.4089 11.0557 21.7961 10.7271 23.3433C10.3332 25.2846 10.8538 27.0572 12.3027 28.6187C12.5407 28.8768 12.8626 29.1566 13.2552 29.4424C13.5749 29.6698 13.94 29.8993 14.3429 30.1235C14.204 30.3838 14.0728 30.6621 13.9346 30.9681C13.7517 31.3901 13.597 31.784 13.4704 32.1498C13.4 32.3467 13.3297 32.5437 13.2734 32.7547C13.2594 32.8039 13.2453 32.8567 13.2312 32.9094C13.2171 32.9622 13.2031 33.0149 13.189 33.0642L13.1468 33.2189L13.1187 33.3455V33.3877C13.1046 33.5847 13.1046 34.063 13.6673 34.3865L13.6955 34.4006L13.9346 34.5132H15.0178H15.5805L15.5869 34.4991H17.0717H26.666V36.5811H30.1267V34.4991H32.0507L32.054 34.5132H32.9965H33.0528H33.1372L35.6694 34.5272L35.6781 34.5132H35.7116L35.9789 34.063C36.9637 32.403 37.456 31.1087 37.4138 30.2225C37.3716 29.3503 36.7949 28.675 35.9086 28.478C35.7398 28.4358 35.5569 28.4218 35.374 28.4218C34.6565 28.4218 34.1079 28.7031 33.8547 29.1814C33.8387 29.2121 33.8232 29.2419 33.8075 29.2707C33.6249 28.9563 33.4347 28.6599 33.2356 28.3795C33.1573 28.2692 33.0777 28.1615 32.9965 28.056C32.8137 27.8169 32.6448 27.6199 32.462 27.437L32.3072 27.2823L32.2509 27.226L32.1947 27.1838L32.1243 27.1275C32.1006 27.1117 32.0725 27.0959 32.0399 27.0776C32.0145 27.0634 31.9864 27.0476 31.9555 27.0291C31.9123 27.0106 31.8719 26.9948 31.8353 26.9805C31.7884 26.9622 31.748 26.9464 31.7164 26.9306H31.7023C31.538 26.8792 31.3886 26.8504 31.2707 26.8276C31.2271 26.8192 31.1878 26.8116 31.1537 26.804H31.1396C30.6045 26.7217 30.1096 26.7062 29.6679 26.6925L29.6343 26.6914H28.9872C28.5007 26.6914 27.9777 26.7096 27.3525 26.7314L27.3523 26.7314C27.2003 26.7367 27.0421 26.7422 26.877 26.7477C25.1045 26.818 23.2757 26.9587 21.4468 27.1416C21.1942 27.1686 20.9528 27.1947 20.7206 27.2206L17.3223 20.7517C17.555 20.7726 17.7998 20.7829 18.0565 20.7829C19.3929 20.7829 21.1233 20.4734 21.6016 20.1217C22.3711 19.5665 22.8641 18.6876 23.2206 17.8446C23.6139 18.0355 24.0216 18.2313 24.4433 18.4325C24.6472 19.1676 24.9029 19.8568 25.3858 20.3187C26.2018 21.1065 28.5792 21.4582 30.0001 21.4582C30.2361 21.4582 30.4572 21.4501 30.6639 21.4336C31.9596 22.1111 32.9794 22.7223 33.3764 23.1604C34.0657 23.9341 33.6296 25.144 33.0528 26.5226C33.0247 26.5858 32.9966 26.6525 32.9685 26.7192L32.9684 26.7196C32.9403 26.7864 32.9121 26.8532 32.884 26.9165L34.4582 27.7103L34.5299 27.7465C34.5356 27.7371 34.5413 27.7277 34.547 27.7182C34.6288 27.5821 34.7123 27.4336 34.795 27.273C34.8754 27.117 34.9551 26.9496 35.032 26.7711C35.1937 26.3959 35.3429 25.9717 35.4597 25.5016C35.4935 25.3655 35.5245 25.2255 35.5524 25.0818C35.8709 23.4396 35.7713 21.3035 34.5314 18.7776C34.4365 18.4808 34.3349 18.177 34.2265 17.8658C34.2467 17.8267 34.2669 17.7874 34.287 17.7483L34.2888 17.7447L34.2891 17.7442L34.2903 17.7418L34.2906 17.7413L34.2907 17.7411L34.2908 17.7408L34.2911 17.7403L34.2912 17.7401C34.4096 17.5096 34.5242 17.2865 34.6003 17.1534C34.6425 17.1253 34.6987 17.0972 34.741 17.0831L34.7555 17.0764C35.0902 16.9231 35.4902 16.7398 35.7398 16.3516C36.1196 15.7607 35.9367 14.7338 35.6694 14.2414C35.6133 14.1424 35.5487 14.0527 35.4771 13.9734C35.2432 13.7145 34.9341 13.5661 34.6003 13.5661H34.4737L34.4466 13.571L34.4022 13.579C34.2676 13.6031 34.1244 13.6288 33.9813 13.6646C33.9673 13.6672 33.953 13.6699 33.9387 13.6727L33.8915 13.6816C33.6881 13.7205 33.4651 13.7631 33.306 13.7631H33.2498C33.222 13.7631 33.1882 13.7509 33.1523 13.7346C32.9785 13.2208 32.7547 12.7009 32.4586 12.1941C32.3695 12.0417 32.2738 11.8904 32.171 11.7408C31.9215 11.2847 31.5949 10.8353 31.1568 10.4183C31.3431 10.1758 31.5467 9.89439 31.7164 9.65527C32.9134 8.02418 33.8029 6.92197 34.7989 6.78564C34.789 6.7855 34.779 6.78543 34.7691 6.78543C33.7562 6.78543 32.9121 7.39035 31.9977 8.05154L31.9689 8.0724ZM34.9098 34.4991H34.2176L34.2204 34.5132H35.6781L35.9367 34.0911C36.2448 33.585 36.6131 32.6229 36.9407 31.6825C36.9153 31.6837 36.8902 31.6847 36.8652 31.6855C36.8089 31.7418 36.7808 31.7418 36.7527 31.7418C36.0476 31.7418 35.3049 31.4564 34.691 31.0654C34.7391 31.1812 34.7851 31.2967 34.8288 31.4117L34.8394 31.4042L34.8321 31.4203C34.7226 31.6616 34.5832 31.9411 34.4094 32.2587C34.5315 32.644 34.626 33.0174 34.6987 33.3877L34.9098 34.4991ZM30.1267 34.4991V33.5847H26.666V34.4991H30.1267ZM20.7206 27.2206L21.0972 27.9375C20.2639 28.0336 19.5408 28.1311 18.8584 28.2389C18.3238 28.3233 17.9017 28.4077 17.5078 28.4921C17.2406 28.5484 17.0155 28.6047 16.8185 28.6609C16.6778 28.7031 16.5512 28.7453 16.4528 28.7875C16.4318 28.798 16.407 28.8085 16.3804 28.8197C16.3356 28.8386 16.2859 28.8595 16.2417 28.886C16.2136 28.9001 16.1855 28.9142 16.1714 28.9282L16.0166 29.0267L15.9182 29.1674C15.7916 29.3362 15.679 29.505 15.5665 29.6879C15.468 29.8426 15.3836 30.0114 15.2711 30.2506C15.2268 30.3459 15.1842 30.442 15.1434 30.5374C14.863 30.4027 14.5955 30.2641 14.3429 30.1235C14.402 30.0128 14.4625 29.9054 14.5255 29.8004C14.6239 29.6175 14.7365 29.4347 14.8772 29.2236C15.0038 29.0267 15.1444 28.8297 15.2851 28.6469C15.4117 28.4921 15.5243 28.3936 15.6087 28.3374H15.6227C15.7072 28.267 15.7916 28.2248 15.8338 28.2108C15.9604 28.1404 16.0589 28.0982 16.1292 28.0701C16.2521 28.0189 16.3676 27.9826 16.4702 27.9503C16.5084 27.9383 16.545 27.9268 16.5794 27.9153C16.85 27.8341 17.1077 27.779 17.3022 27.7373L17.325 27.7325C17.7329 27.648 18.169 27.5636 18.7177 27.4792C19.3382 27.3829 19.9832 27.3029 20.7206 27.2206ZM11.6197 8.8198C11.9701 8.64654 12.364 8.55798 12.7951 8.55798C13.9339 8.55798 15.0728 9.17496 16.0762 9.71861L16.1151 9.73968C16.1502 9.75845 16.1865 9.77799 16.2239 9.79807C16.5554 9.97626 16.9648 10.1963 17.21 10.2853C16.7129 10.7352 16.2424 11.2805 15.8096 11.9401C15.7114 11.8871 15.6115 11.832 15.5095 11.7757L15.5093 11.7756L15.4399 11.7373L15.4101 11.7207C14.5593 11.2464 13.5977 10.7104 12.4575 10.7104C12.3288 10.7104 12.1903 10.7201 12.0583 10.7315L11.2195 9.13476C11.345 9.01948 11.4785 8.91447 11.6197 8.8198ZM23.4849 8.23442C23.7064 8.23442 23.9417 8.23467 24.2041 8.24849C26.6594 8.32137 28.3993 8.75414 29.6449 9.38061C29.5982 9.39393 29.5511 9.40635 29.5038 9.41782C28.0465 8.66868 26.2149 8.27949 24.0213 8.26255H23.9087C22.234 8.26255 20.7543 8.58155 19.5326 9.07231C19.8569 9.11768 20.2349 9.25681 20.434 9.68341C20.5324 9.92256 20.659 10.4149 20.2792 10.9917C20.007 11.4124 19.4737 11.8475 18.8408 12.1356C18.7954 12.1346 18.7496 12.1338 18.7034 12.1332C18.7174 11.5835 18.6472 11.1052 18.4785 10.8088C18.2816 10.4712 17.9439 10.2743 17.5782 10.2743C17.5053 10.2743 17.4401 10.282 17.3769 10.2974C17.3547 10.3028 17.3328 10.3092 17.3109 10.3165C17.2844 10.3102 17.2539 10.3009 17.2201 10.2889C17.8136 9.75095 18.445 9.34895 19.0951 9.05035C20.5364 8.38831 22.0695 8.23455 23.4849 8.23442ZM15.0243 34.4991H15.0178H14.7365L15.3273 33.1908C15.6192 32.5357 16.032 31.815 16.5125 31.1611C16.601 31.195 16.6904 31.2283 16.7807 31.261C16.2805 31.9399 15.8793 32.659 15.6368 33.1767L15.0243 34.4991ZM34.5063 18.7266C34.3934 18.499 34.2713 18.2683 34.1393 18.0345C34.1658 17.9837 34.1928 17.9313 34.22 17.8786C34.3211 18.1675 34.4165 18.4501 34.5063 18.7266ZM13.1046 12.2578H13.2312C13.4282 12.2578 13.6251 12.286 13.8502 12.3282C14.0753 12.3704 14.3426 12.4126 14.5677 12.4126H14.6943C14.9961 12.3681 15.2936 12.3293 15.5866 12.296C15.1203 13.0748 14.7032 13.9993 14.3511 15.0958L12.8823 12.2999C12.9545 12.2779 13.029 12.2636 13.1046 12.2578ZM31.5215 13.1569C31.7556 13.0823 31.9567 12.936 32.0962 12.7221C32.2024 12.566 32.3071 12.4132 32.4104 12.2638C32.3215 12.0558 32.2193 11.8472 32.1006 11.6403C32.0362 11.55 31.9692 11.4604 31.8992 11.3715C31.6544 11.0595 31.3845 10.7705 31.0898 10.5048C30.9624 10.6677 30.8464 10.8065 30.7597 10.8932C30.4362 10.9636 29.9157 11.2309 29.9157 12.2156C29.9157 12.3767 29.9284 12.5809 29.9583 12.8099C30.0004 12.8352 30.042 12.8592 30.0832 12.8821C30.6392 12.9553 31.1159 13.0524 31.5215 13.1569ZM30.7175 29.3784C30.777 29.4378 30.8364 29.5042 30.8958 29.5776C30.7943 29.5019 30.6935 29.4296 30.5942 29.3611C30.636 29.3662 30.6771 29.3719 30.7175 29.3784ZM22.0799 32.192C22.4175 32.192 22.7551 32.1779 23.0787 32.1498C23.153 32.1437 23.2269 32.1375 23.3003 32.1312L22.6151 30.8269C21.081 30.9714 19.8051 31.1403 19.4633 31.2072C19.272 31.3029 19.0248 31.5102 18.7572 31.799C19.8269 32.0442 20.9519 32.192 22.0799 32.192Z" fill="white"/>
<path d="M34.6987 33.3877L34.9098 34.4991H35.5569L35.3881 33.4159C35.3037 32.9657 35.1911 32.5015 35.0364 32.0091C34.9757 31.8151 34.9073 31.6184 34.8321 31.4203C34.7226 31.6616 34.5832 31.9411 34.4094 32.2587C34.5315 32.644 34.626 33.0174 34.6987 33.3877Z" fill="white"/>
<path d="M34.6706 27.7325C34.6988 27.6054 34.7368 27.4438 34.795 27.273C34.7123 27.4336 34.6288 27.5821 34.547 27.7182C34.5896 27.7225 34.631 27.7275 34.6706 27.7325Z" fill="white"/>
<path d="M35.2131 26.5429C35.3204 26.2139 35.4027 25.8674 35.4597 25.5016C35.3429 25.9717 35.1937 26.3959 35.032 26.7711C35.0846 26.6904 35.1446 26.6133 35.2131 26.5429Z" fill="white"/>
<path d="M35.3015 26.4602C35.4266 26.0315 35.5104 25.5733 35.5524 25.0818C35.5245 25.2255 35.4935 25.3655 35.4597 25.5016C35.4027 25.8674 35.3204 26.2139 35.2131 26.5429C35.2411 26.5142 35.2705 26.4865 35.3015 26.4602Z" fill="white"/>
<path d="M34.1393 18.0345C34.2713 18.2683 34.3934 18.499 34.5063 18.7266C34.4165 18.4501 34.3211 18.1675 34.22 17.8786C34.1928 17.9313 34.1658 17.9837 34.1393 18.0345Z" fill="white"/>
<path d="M31.7023 29.0971C31.5756 28.9283 31.435 28.7735 31.2802 28.6329C31.2521 28.6047 31.2099 28.5625 31.1817 28.5344C31.1817 28.5344 31.1677 28.5344 31.1536 28.5203C31.0833 28.4922 30.9848 28.4781 30.8863 28.464C30.4784 28.4078 30.0422 28.3937 29.6061 28.3796C28.7199 28.3656 27.8336 28.3937 26.9473 28.4359C25.1748 28.5203 23.3882 28.661 21.6297 28.8579C20.7434 28.9564 19.8571 29.069 18.9849 29.2096C18.5488 29.28 18.1127 29.3503 17.6907 29.4488C17.4797 29.491 17.2686 29.5473 17.0717 29.6035C16.9732 29.6317 16.8747 29.6598 16.7903 29.702C16.7481 29.7161 16.7059 29.7301 16.6919 29.7583C16.6919 29.7583 16.6778 29.7583 16.6778 29.7724C16.5793 29.913 16.4808 30.0537 16.3824 30.2085C16.2839 30.3632 16.2136 30.532 16.1291 30.7008C15.9744 31.0385 15.8337 31.3902 15.7071 31.7418C15.5805 32.0935 15.4398 32.4593 15.3132 32.8251C15.2429 33.008 15.1725 33.1908 15.0881 33.3737C15.06 33.4581 15.0178 33.5425 14.9756 33.6269H16.1714C16.8185 32.178 18.0424 30.5179 19.0553 30.11C19.3366 29.9974 23.8665 29.4347 26.8629 29.4347C27.9743 29.4347 28.7339 29.5191 29.156 29.6739C30.3799 30.1522 32.8277 32.4171 33.0809 33.641H33.7702C33.6295 32.8673 33.3482 32.1076 33.0246 31.3761C32.6589 30.532 32.2228 29.7583 31.7023 29.0971Z" fill="#BA8449"/>
<path d="M33.6713 31.0243C33.2915 30.1802 32.8554 29.3784 32.2786 28.6469C32.1379 28.464 31.9832 28.2811 31.8144 28.1123C31.7721 28.0701 31.7299 28.0279 31.6877 27.9857L31.6596 27.9575L31.6455 27.9435L31.6174 27.9153C31.5893 27.9013 31.5611 27.8872 31.5471 27.8731C31.5049 27.845 31.4627 27.8309 31.4205 27.8168C31.2657 27.7606 31.1532 27.7465 31.0266 27.7184C30.5482 27.648 30.0981 27.634 29.6479 27.6199C28.7335 27.6058 27.8472 27.6199 26.9469 27.6621C25.1462 27.7324 23.3596 27.8731 21.573 28.056C20.6867 28.1545 19.7863 28.253 18.886 28.3936C18.4358 28.464 17.9997 28.5343 17.5496 28.6328C17.3245 28.6891 17.0994 28.7313 16.8743 28.8016C16.7618 28.8297 16.6492 28.8719 16.5226 28.9282C16.4663 28.9563 16.396 28.9845 16.3257 29.0267C16.2975 29.0548 16.2553 29.0689 16.2131 29.097C16.1709 29.1252 16.1287 29.1674 16.0724 29.2377C15.9458 29.3924 15.8192 29.5753 15.7067 29.7441C15.5941 29.913 15.4816 30.0958 15.3831 30.2787C15.1862 30.6304 15.0033 30.9962 14.8345 31.3619C14.6797 31.7277 14.525 32.0935 14.3984 32.4733C14.328 32.6562 14.2717 32.8391 14.2295 33.036C14.2014 33.1345 14.1733 33.2189 14.1451 33.3174L14.1029 33.4581L14.0889 33.5284C14.0889 33.5425 14.117 33.5565 14.1733 33.5987H14.1873H15.0033C15.0455 33.5143 15.0736 33.4299 15.1158 33.3455C15.1862 33.1626 15.2706 32.9797 15.3409 32.8109C15.4816 32.4452 15.6082 32.0935 15.7348 31.7277C15.8614 31.376 16.0021 31.0102 16.1568 30.6867C16.2412 30.5179 16.3257 30.3631 16.4101 30.1943C16.5085 30.0396 16.5929 29.8989 16.7055 29.7582C16.7055 29.7582 16.7196 29.7582 16.7196 29.7441C16.7477 29.7301 16.7899 29.716 16.818 29.6879C16.9024 29.6597 17.0009 29.6175 17.0994 29.5894C17.2963 29.5331 17.5074 29.4769 17.7184 29.4347C18.1404 29.3362 18.5765 29.2658 19.0126 29.1955C19.8848 29.0548 20.7711 28.9423 21.6574 28.8438C23.4299 28.6469 25.2025 28.5062 26.975 28.4218C27.8613 28.3796 28.7476 28.3514 29.6338 28.3655C30.0699 28.3796 30.5201 28.3936 30.914 28.4499C31.0125 28.464 31.111 28.4921 31.1813 28.5062C31.1954 28.5062 31.2094 28.5062 31.2094 28.5202C31.2376 28.5484 31.2798 28.5906 31.3079 28.6187C31.4627 28.7735 31.5893 28.9282 31.7299 29.083C32.2505 29.7441 32.6866 30.5179 33.0523 31.3057C33.3759 32.0372 33.6572 32.7969 33.7979 33.5706H34.5013C34.431 33.1345 34.3184 32.7125 34.1918 32.3045C34.023 31.8684 33.8542 31.4464 33.6713 31.0243Z" fill="#895B2E"/>
<path d="M29.0567 29.8848C28.691 29.7441 27.9454 29.6597 26.8762 29.6597C23.8657 29.6597 19.4203 30.2224 19.1811 30.3209C18.2667 30.6866 17.1272 32.2341 16.4941 33.5846H32.7988C32.5315 32.5295 30.2666 30.3631 29.0567 29.8848Z" fill="#FFF8EE"/>
<path d="M29.1555 29.6176C28.7476 29.4628 27.9738 29.3784 26.8625 29.3784C23.866 29.3784 19.3362 29.9411 19.0548 30.0537C18.0279 30.4757 16.818 32.1216 16.1709 33.5706H16.4804C17.1134 32.2342 18.2529 30.6867 19.1673 30.3069C19.4065 30.2084 23.8519 29.6457 26.8625 29.6457C27.9316 29.6457 28.6772 29.716 29.043 29.8708C30.2528 30.335 32.5177 32.5155 32.785 33.5706H33.0664C32.8272 32.3608 30.3794 30.0959 29.1555 29.6176Z" fill="#E5D0AE"/>
<path d="M34.726 29.7441C34.5572 30.0958 33.6709 30.9962 32.9253 30.7852C32.5314 30.6726 32.6017 32.7547 33.5021 33.5847H35.134C35.5841 32.8672 36.2875 30.6726 36.3719 30.4475C36.4704 30.1802 34.8948 29.3924 34.726 29.7441Z" fill="#BA8449"/>
<path d="M36.4572 30.2646C36.4291 29.8145 36.1618 29.4909 35.6835 29.3784C35.3036 29.294 34.7972 29.3643 34.6706 29.6035C34.4174 30.0818 34.1079 30.6585 32.5745 30.7429C32.476 30.7429 32.3916 30.8414 32.3916 30.9399C32.3916 31.0384 32.4901 31.1228 32.5886 31.1228C34.1923 31.0524 34.6565 30.4335 34.9942 29.8004C35.0645 29.7441 35.4443 29.6738 35.7538 29.8004C35.9789 29.8989 36.0774 30.0536 36.0914 30.2928C36.1336 31.165 35.2192 32.7828 34.7269 33.5987H35.163C35.7116 32.6421 36.4994 31.165 36.4572 30.2646Z" fill="#895B2E"/>
<path opacity="0.15" d="M33.2966 33.6269C34.2955 33.3877 35.1817 32.3889 35.2521 30.968C35.2661 30.7008 34.7175 30.1943 34.7175 30.0536C34.7175 29.913 36.3916 30.0818 36.476 30.4757C36.5463 30.8696 35.435 33.247 35.0551 33.6409C34.6894 34.0208 32.7058 33.7675 33.2966 33.6269Z" fill="#E3AB5E"/>
<path opacity="0.15" d="M15.6834 31.6526C21.831 35.1836 34.0278 31.5963 33.3807 30.4427C32.5226 28.9094 32.1849 27.9527 30.2998 28.0371C28.4288 28.1356 16.3867 29.0922 15.8944 29.458C15.4161 29.8378 14.8815 31.1883 15.6834 31.6526Z" fill="#E3AB5E"/>
<path d="M34.0798 28.7734C33.9532 29.6456 35.6554 30.8414 36.809 30.8132C37.7656 30.7851 38.8488 30.3349 38.694 29.8003C38.5393 29.2517 37.6108 29.8988 37.5264 29.519C37.4561 29.1532 38.6096 28.4639 38.1454 27.9575C37.7093 27.4932 37.2029 28.689 36.6964 28.5202C36.19 28.3513 36.7949 27.1837 36.1618 27.1134C35.4162 27.043 35.6976 28.703 35.1349 28.7312C34.741 28.7734 34.122 28.492 34.0798 28.7734Z" fill="#FCD4C3"/>
<path fill-rule="evenodd" clip-rule="evenodd" d="M35.8546 27.0408C35.9472 26.9855 36.0547 26.962 36.1751 26.9734L36.1763 26.9735L36.1775 26.9736C36.28 26.985 36.368 27.0202 36.438 27.0808C36.5071 27.1407 36.5492 27.217 36.5749 27.2951C36.6241 27.4444 36.6216 27.6273 36.6173 27.7837C36.6168 27.8011 36.6163 27.8182 36.6159 27.835C36.6115 27.9823 36.6078 28.1097 36.6268 28.2139C36.6467 28.3239 36.684 28.3678 36.741 28.3868C36.8069 28.4087 36.8864 28.3927 36.9989 28.3201C37.0942 28.2585 37.1891 28.1723 37.2931 28.0779C37.3128 28.06 37.3329 28.0418 37.3533 28.0235C37.4724 27.9164 37.6112 27.7968 37.7565 27.7417C37.833 27.7128 37.9186 27.6986 38.0081 27.7177C38.0982 27.7369 38.1781 27.7868 38.248 27.8612L38.2492 27.8624L38.2492 27.8624C38.404 28.0313 38.423 28.2228 38.3697 28.4035C38.3197 28.5728 38.2061 28.736 38.0942 28.8781C38.046 28.9393 37.9954 28.9998 37.9476 29.0571C37.9389 29.0675 37.9303 29.0777 37.9219 29.0878C37.8658 29.1551 37.8149 29.2171 37.7722 29.2752C37.7292 29.3338 37.6987 29.383 37.6809 29.4239C37.664 29.4627 37.6634 29.4829 37.6644 29.4909C37.6651 29.4937 37.6658 29.4955 37.6663 29.4966C37.671 29.4991 37.6871 29.5049 37.7246 29.5054C37.7919 29.5063 37.8745 29.4913 37.978 29.4725C38.0039 29.4678 38.0311 29.4628 38.0598 29.4578C38.1888 29.4353 38.3468 29.4121 38.4863 29.4405C38.5593 29.4554 38.633 29.4853 38.696 29.5408C38.7595 29.5967 38.8038 29.6713 38.8294 29.7617C38.8839 29.9505 38.8242 30.1252 38.709 30.2684C38.5965 30.4084 38.4257 30.5268 38.2305 30.6229C37.839 30.8159 37.3088 30.9393 36.8132 30.9539L36.8125 30.9539C36.1938 30.969 35.4498 30.6596 34.8814 30.2446C34.5954 30.0357 34.3457 29.7944 34.1745 29.5433C34.0046 29.2943 33.9019 29.0202 33.9407 28.7532L33.9408 28.7526L33.9408 28.7526C33.9504 28.6885 33.9787 28.631 34.0277 28.5874C34.0743 28.546 34.1297 28.526 34.1799 28.5161C34.276 28.4971 34.3912 28.5085 34.4954 28.5234C34.5473 28.5308 34.6016 28.5399 34.6548 28.5489L34.6625 28.5502C34.719 28.5597 34.7746 28.569 34.8295 28.5768C34.9408 28.5924 35.0393 28.6 35.12 28.5914L35.124 28.5909L35.1279 28.5907C35.1812 28.5881 35.2376 28.5514 35.2976 28.4037C35.3471 28.282 35.3817 28.127 35.4203 27.954C35.4276 27.9213 35.435 27.888 35.4427 27.8542C35.4887 27.652 35.5449 27.4286 35.6453 27.2605C35.6968 27.1742 35.764 27.095 35.8546 27.0408ZM35.1462 28.8715C35.0309 28.8833 34.9058 28.8716 34.7903 28.8554C34.7311 28.847 34.6718 28.8371 34.6158 28.8277L34.6094 28.8266C34.555 28.8174 34.504 28.8088 34.4556 28.8019C34.3506 28.7869 34.2785 28.7834 34.2344 28.7921C34.227 28.7935 34.222 28.7951 34.2187 28.7963C34.1952 28.9648 34.2579 29.1663 34.4069 29.3848C34.5553 29.6024 34.7795 29.8218 35.0474 30.0174C35.5867 30.4112 36.2705 30.6856 36.8053 30.6726C37.2662 30.659 37.7557 30.5433 38.1062 30.3706C38.2821 30.2839 38.4129 30.1877 38.4898 30.0921C38.564 29.9997 38.5817 29.9178 38.559 29.8395L38.5587 29.8386L38.5587 29.8386C38.5456 29.7921 38.5271 29.767 38.51 29.7519C38.4923 29.7363 38.4673 29.7238 38.4302 29.7162C38.3495 29.6998 38.2411 29.7118 38.1081 29.735C38.0869 29.7387 38.0647 29.7428 38.0419 29.747C37.9366 29.7663 37.8184 29.788 37.721 29.7867C37.6595 29.7859 37.5875 29.7765 37.5236 29.7391C37.4533 29.6981 37.4075 29.632 37.3892 29.5495L37.3887 29.5476L37.3884 29.5456C37.3721 29.4608 37.3933 29.3795 37.423 29.3115C37.453 29.2427 37.4975 29.174 37.5454 29.1087C37.5938 29.0428 37.6499 28.9747 37.7058 28.9077C37.7146 28.8971 37.7234 28.8865 37.7322 28.876C37.7801 28.8187 37.8277 28.7617 37.8732 28.704C37.9829 28.5647 38.0662 28.4377 38.0998 28.3239C38.1299 28.2217 38.1192 28.1373 38.0424 28.0532C38.0035 28.012 37.9724 27.9978 37.9495 27.9929C37.9258 27.9879 37.8963 27.9897 37.8561 28.0049C37.768 28.0382 37.6668 28.12 37.5414 28.2327C37.5236 28.2487 37.5053 28.2653 37.4867 28.2823C37.3835 28.3762 37.2681 28.4811 37.1516 28.5564C37.013 28.6459 36.8393 28.7161 36.652 28.6537C36.4558 28.5883 36.3787 28.4229 36.3499 28.2642C36.3253 28.1287 36.3302 27.9692 36.3345 27.8282C36.3351 27.8105 36.3356 27.7931 36.3361 27.776C36.3406 27.6107 36.3389 27.478 36.3077 27.3832C36.2932 27.3393 36.2747 27.3116 36.2538 27.2935C36.2339 27.2762 36.2025 27.2597 36.1475 27.2534C36.0822 27.2474 36.0357 27.2604 35.999 27.2823C35.9601 27.3056 35.9226 27.3448 35.8868 27.4047C35.8127 27.5289 35.7643 27.709 35.717 27.9166C35.7102 27.9469 35.7033 27.9778 35.6963 28.0091C35.6582 28.181 35.6175 28.3639 35.5583 28.5097C35.4899 28.6779 35.3716 28.8581 35.1462 28.8715Z" fill="#F8A38F"/>
<path opacity="0.5" d="M34.5634 28.7653C34.7462 28.906 35.4074 29.0888 35.5059 28.8497C35.6184 28.6105 35.7029 28.1322 35.6325 28.0619C35.5762 28.287 35.5059 28.709 35.2667 28.8075C35.0839 28.8778 34.69 28.7934 34.5634 28.7653Z" fill="#FCD4C3"/>
<path opacity="0.5" d="M36.3816 27.8368C36.3534 27.9915 36.2268 28.7231 36.6067 28.8215C36.9302 28.9059 37.1694 28.709 37.4226 28.301C37.2819 28.4276 36.9302 28.7371 36.6629 28.6246C36.3956 28.498 36.3675 28.2166 36.3816 27.8368Z" fill="#FCD4C3"/>
<path opacity="0.25" d="M34.7518 29.8085C36.6651 28.866 37.059 30.3994 36.9605 30.7089C36.2008 30.8355 34.8644 30.0477 34.7518 29.8085Z" fill="#FCD4C3"/>
<path opacity="0.5" d="M37.5334 29.2089C37.2098 29.5746 37.3646 29.8701 37.5756 29.9123C37.8429 29.9685 38.1946 29.6872 38.1383 29.6872C38.068 29.6872 37.5475 29.856 37.449 29.6028C37.3787 29.4058 37.4912 29.2933 37.5334 29.2089Z" fill="#FCD4C3"/>
<path d="M29.0852 10.4431C31.8425 10.1899 33.4603 7.33409 35.1344 7.77019C34.009 8.47359 32.8976 9.88037 31.3361 12.1875C30.9562 12.7361 28.3255 10.5134 29.0852 10.4431Z" fill="#FFF8EE"/>
<path fill-rule="evenodd" clip-rule="evenodd" d="M32.6395 9.01931C31.7075 9.69141 30.5982 10.4852 29.1986 10.6436C29.209 10.6612 29.2215 10.6807 29.2364 10.7021C29.3657 10.8881 29.6177 11.1409 29.9165 11.3837C30.2138 11.6253 30.5392 11.8423 30.8054 11.9645C30.9404 12.0265 31.0451 12.057 31.1158 12.0626C31.1444 12.0648 31.1597 12.0628 31.167 12.061C32.4901 10.1066 33.5079 8.76996 34.5018 7.9652C34.3298 8.00017 34.1516 8.06583 33.9635 8.15782C33.5615 8.3544 33.1414 8.65732 32.6695 8.9977C32.6595 9.00488 32.6495 9.01209 32.6395 9.01931ZM31.1724 12.0587C31.1726 12.0588 31.1717 12.0595 31.1692 12.0603C31.171 12.0589 31.1723 12.0585 31.1724 12.0587ZM33.7781 7.77869C34.2317 7.55686 34.701 7.43923 35.1877 7.566C35.2692 7.58724 35.3303 7.65497 35.3431 7.73828C35.3558 7.82158 35.3178 7.90448 35.2463 7.94914C34.1648 8.62506 33.0766 9.99253 31.5109 12.3058L31.5096 12.3076C31.4011 12.4644 31.2255 12.4946 31.0827 12.4833C30.9398 12.4721 30.7826 12.4184 30.6293 12.3481C30.3193 12.2057 29.9632 11.9654 29.6503 11.7112C29.3389 11.4581 29.052 11.1763 28.8898 10.9429C28.8486 10.8836 28.8122 10.8229 28.7856 10.763C28.7599 10.7052 28.7373 10.6352 28.7373 10.5607C28.7373 10.4795 28.7651 10.3904 28.8405 10.323C28.9094 10.2614 28.9941 10.2396 29.0658 10.233L29.066 10.233C30.3792 10.1124 31.4287 9.37208 32.3927 8.67699C32.4083 8.6657 32.424 8.65442 32.4396 8.64315C32.8973 8.31297 33.3431 7.9914 33.7781 7.77869ZM29.0935 10.6549C29.0935 10.6549 29.0938 10.6548 29.0945 10.6547C29.0939 10.6548 29.0935 10.6549 29.0935 10.6549Z" fill="#E5D0AE"/>
<path d="M11.8525 9.82405C13.0905 8.67048 15.3273 9.12065 17.128 9.76778C18.1549 10.1335 19.4914 9.83811 19.5758 10.0491C19.8009 10.5415 18.4644 11.5544 17.3671 11.5263C16.2839 11.5122 14.4692 9.47235 11.8525 9.82405Z" fill="#BA8449"/>
<path fill-rule="evenodd" clip-rule="evenodd" d="M12.3264 9.64456C13.4634 9.61206 14.438 9.99875 15.2489 10.4127C15.4803 10.5309 15.6993 10.6518 15.9046 10.7658C15.9237 10.7765 15.9427 10.787 15.9616 10.7975C16.1461 10.9001 16.3184 10.9959 16.4811 11.08C16.8451 11.268 17.1349 11.3826 17.369 11.3856L17.3708 11.3857L17.3708 11.3857C17.8802 11.3987 18.4594 11.1678 18.8866 10.8678C19.0993 10.7184 19.2653 10.558 19.3635 10.4128C19.4542 10.2787 19.4699 10.1855 19.4551 10.1282C19.4539 10.1279 19.4526 10.1275 19.4512 10.1271C19.4199 10.1185 19.3693 10.1118 19.2951 10.1081C19.19 10.1028 19.0595 10.1041 18.9061 10.1057C18.8431 10.1063 18.7764 10.1069 18.7059 10.1072C18.2326 10.109 17.6196 10.0922 17.0808 9.90034L17.0805 9.90021C16.1859 9.57872 15.1913 9.30939 14.2719 9.26118C13.5363 9.22261 12.8629 9.3261 12.3264 9.64456ZM19.4711 10.1343C19.471 10.1343 19.4702 10.134 19.4689 10.1331C19.4705 10.1339 19.4712 10.1343 19.4711 10.1343ZM17.1754 9.63537C16.2694 9.30975 15.2453 9.03048 14.2867 8.98021C13.3293 8.93001 12.4153 9.10743 11.7567 9.72117C11.7119 9.76292 11.6992 9.82888 11.7254 9.88425C11.7516 9.93961 11.8106 9.97167 11.8713 9.96351C13.1375 9.79333 14.2142 10.2004 15.1209 10.6633C15.3476 10.779 15.5628 10.8978 15.7679 11.0118C15.7872 11.0225 15.8063 11.0331 15.8254 11.0437C16.009 11.1458 16.1852 11.2438 16.3519 11.3299C16.7143 11.5171 17.0572 11.6627 17.3645 11.667C17.9521 11.6817 18.5894 11.4204 19.0483 11.098C19.2786 10.9362 19.4732 10.7528 19.5965 10.5705C19.715 10.3954 19.7909 10.1845 19.7049 9.99324C19.6671 9.90358 19.5784 9.87032 19.5259 9.85587C19.464 9.83883 19.3883 9.83109 19.3092 9.82712C19.1952 9.82139 19.0513 9.82282 18.8935 9.82438C18.8324 9.82498 18.7692 9.82561 18.7049 9.82585C18.2322 9.8276 17.6636 9.80916 17.1754 9.63537Z" fill="#895B2E"/>
<path d="M30.9708 11.8076C31.6038 11.9905 34.0094 7.2778 35.177 7.74203C38.891 9.21916 34.0516 14.9026 32.5182 15.0292C30.9708 15.1417 30.6191 11.6951 30.9708 11.8076Z" fill="#FCD4C3"/>
<path fill-rule="evenodd" clip-rule="evenodd" d="M31.0091 11.9535C30.9928 12.0184 30.9835 12.1281 30.9873 12.2758C30.9946 12.5686 31.0519 12.9736 31.1677 13.3799C31.2837 13.7874 31.4552 14.1843 31.6839 14.4694C31.9108 14.7522 32.1819 14.9123 32.5073 14.8889C32.6651 14.8757 32.885 14.7875 33.1504 14.6211C33.4125 14.4567 33.7056 14.2247 34.0066 13.9423C34.6087 13.3772 35.2324 12.6194 35.6936 11.8216C36.1567 11.0206 36.4459 10.1966 36.4037 9.49443C36.3828 9.14623 36.2806 8.82977 36.079 8.5578C35.8773 8.28557 35.5698 8.0496 35.1251 7.87274C35.0289 7.83447 34.9063 7.84327 34.747 7.91823C34.5873 7.99332 34.4075 8.12744 34.2124 8.30989C33.8227 8.67432 33.3992 9.20522 32.9859 9.75395C32.8495 9.93499 32.714 10.1183 32.5816 10.2975C32.3164 10.6563 32.0634 10.9986 31.84 11.2731C31.6725 11.4789 31.5156 11.6542 31.3771 11.7731C31.308 11.8325 31.2379 11.8827 31.1686 11.9147C31.1212 11.9366 31.0666 11.9535 31.0091 11.9535ZM34.6272 7.66362C34.8254 7.57043 35.0334 7.5335 35.2291 7.61129L35.2291 7.6113C35.7129 7.80372 36.0666 8.06847 36.3051 8.39028C36.5437 8.71235 36.6608 9.08323 36.6845 9.47755C36.7316 10.2604 36.4114 11.1422 35.9372 11.9624C35.4612 12.7859 34.8197 13.5651 34.1992 14.1474C33.8888 14.4387 33.5813 14.683 33.2998 14.8595C33.022 15.0337 32.7554 15.1507 32.5299 15.1694L32.5285 15.1695L32.5285 15.1695C32.0805 15.202 31.7276 14.9736 31.4645 14.6455C31.203 14.3195 31.0184 13.8829 30.8971 13.4569C30.7754 13.0297 30.714 12.6012 30.706 12.2829C30.702 12.1256 30.7108 11.9857 30.7365 11.8839C30.7488 11.8352 30.7689 11.7786 30.8066 11.7348C30.8268 11.7112 30.8558 11.6871 30.8952 11.6739C30.9343 11.6608 30.9735 11.6619 31.0087 11.6721C31.0111 11.6722 31.0236 11.6718 31.0505 11.6593C31.0866 11.6426 31.1342 11.6108 31.1938 11.5597C31.3125 11.4577 31.4566 11.2984 31.6218 11.0954C31.8411 10.826 32.0872 10.4931 32.3497 10.1379C32.483 9.9574 32.6206 9.7712 32.7611 9.58467C33.1743 9.03611 33.6107 8.4873 34.0202 8.10438C34.2247 7.91315 34.4294 7.75669 34.6272 7.66362Z" fill="#F8A38F"/>
<path d="M17.5498 11.2449C16.5228 11.6951 12.8792 7.88271 11.3458 10.3305C10.3329 11.9483 13.3997 15.2121 15.5943 15.5638C17.7889 15.9155 18.0843 11.0058 17.5498 11.2449Z" fill="#FCD4C3"/>
<path fill-rule="evenodd" clip-rule="evenodd" d="M17.0893 11.0991C17.2809 11.1529 17.4105 11.1524 17.4933 11.1161C17.5303 11.0998 17.573 11.0914 17.6184 11.0982C17.6639 11.1051 17.7017 11.1257 17.7313 11.1509C17.7863 11.1978 17.8198 11.2663 17.842 11.3298C17.888 11.4609 17.9123 11.6488 17.919 11.864C17.9326 12.2989 17.8756 12.8919 17.7322 13.4799C17.5892 14.0662 17.3568 14.6621 17.0105 15.092C16.6602 15.5267 16.1838 15.8007 15.5721 15.7027C14.4293 15.5196 13.0866 14.5892 12.1607 13.5138C11.6959 12.9739 11.3272 12.3875 11.1403 11.8257C10.9536 11.2647 10.9428 10.7093 11.2266 10.2559L11.2266 10.2559C11.6377 9.59969 12.2003 9.35677 12.8192 9.36341C13.4249 9.36992 14.0796 9.61472 14.6986 9.91184C15.0099 10.0612 15.3164 10.2261 15.6072 10.3845C15.6497 10.4077 15.6919 10.4308 15.7336 10.4536C15.9786 10.5874 16.2104 10.7139 16.4259 10.8221C16.6788 10.9489 16.9017 11.0464 17.0893 11.0991ZM11.4651 10.4053C11.2425 10.7608 11.2352 11.22 11.4072 11.7369C11.579 12.2531 11.9243 12.808 12.3739 13.3302C13.2768 14.379 14.5648 15.2563 15.6166 15.4249C16.1022 15.5027 16.4857 15.2949 16.7914 14.9155C17.1009 14.5312 17.3205 13.9805 17.4588 13.4133C17.5968 12.8477 17.6505 12.2801 17.6378 11.8728C17.6313 11.6668 17.6081 11.5131 17.5765 11.4229C17.5718 11.4093 17.5673 11.3987 17.5634 11.3904C17.3986 11.4464 17.2064 11.4242 17.0132 11.37C16.799 11.3099 16.5568 11.2025 16.2997 11.0735C16.0795 10.963 15.8427 10.8337 15.598 10.7001C15.5564 10.6774 15.5146 10.6545 15.4725 10.6316C15.1821 10.4733 14.8811 10.3115 14.5769 10.1655C13.9649 9.87175 13.357 9.65056 12.8162 9.64475C12.2886 9.63909 11.8207 9.83754 11.4651 10.4052" fill="#F8A38F"/>
<path d="M33.8355 8.65649C33.6385 9.30361 31.9785 10.9777 32.2036 12.4126C32.288 12.9472 32.8507 14.5228 33.0899 14.4665C33.3291 14.4102 33.934 14.0304 33.8777 14.1148C33.8214 14.1992 33.0336 14.776 32.7382 14.9308C32.4428 14.776 31.1907 11.864 31.3736 11.7092C31.9223 11.2168 33.5963 8.68463 33.8355 8.65649Z" fill="#FCD4C3"/>
<path d="M11.3926 10.4291C12.518 9.73978 14.5719 10.0352 15.7677 11.2028C16.1897 11.6249 16.3163 13.0317 15.3597 13.9883C14.9799 14.3681 17.6106 12.6378 17.6246 12.1313C17.6246 11.6249 17.4558 11.4842 17.0619 11.3435C15.6129 10.8089 14.0936 9.57097 12.7712 9.5991C11.9131 9.61317 11.5192 10.204 11.3926 10.4291Z" fill="#FCD4C3"/>
<path opacity="0.25" d="M34.2908 8.28724C36.8512 9.69403 32.7293 11.8323 33.0388 14.4912C32.5042 14.4349 31.1818 11.8605 31.5054 11.6354C31.9556 11.3259 33.8547 8.1747 34.2908 8.28724Z" fill="#FCD4C3"/>
<path d="M14.5389 16.9284C14.5811 16.7455 14.6092 16.5485 14.6092 16.3656C14.6233 16.1687 14.6374 15.9717 14.6796 15.7889C14.6937 15.6904 14.7218 15.5919 14.764 15.5075C14.8062 15.4231 14.8343 15.3246 14.8625 15.2402C14.9328 15.0573 15.0031 14.8745 15.0876 14.7056C15.4111 13.9882 15.7769 13.3129 16.2271 12.6799C16.6772 12.0468 17.1696 11.456 17.7323 10.9495C18.295 10.429 18.9562 10.007 19.6596 9.72562C20.363 9.4302 21.1227 9.24732 21.8823 9.16291C22.642 9.06443 23.4017 9.05037 24.1613 9.06443C24.921 9.0785 25.6806 9.12071 26.4403 9.21918C27.2 9.31766 27.9596 9.48647 28.6912 9.75376C29.0569 9.89444 29.4086 10.0492 29.7463 10.2461C30.0839 10.4431 30.4074 10.6822 30.7029 10.9636C30.9983 11.2309 31.2515 11.5544 31.4625 11.8921C31.6735 12.2297 31.8283 12.5955 31.969 12.9753C32.0956 13.3411 32.1941 13.7209 32.2785 14.1007C32.3629 14.4806 32.4191 14.8463 32.5035 15.198C32.5458 15.3668 32.602 15.5356 32.6583 15.7045C32.7286 15.8733 32.799 16.0562 32.8552 16.239C32.9819 16.5907 33.1225 16.9565 33.2491 17.3082C33.7415 18.7431 34.1776 20.2062 34.4449 21.6974C34.5715 22.443 34.67 23.2026 34.6841 23.9623C34.6981 24.7219 34.6278 25.4816 34.4168 26.2131C34.3605 26.396 34.3042 26.5789 34.2339 26.7477C34.1636 26.9165 34.0651 27.0853 34.0088 27.2682C33.9807 27.3667 33.9525 27.4511 33.9103 27.5355C33.8681 27.6199 33.8119 27.7043 33.7556 27.7887C33.6571 27.9435 33.5305 28.1123 33.4039 28.253C32.9115 28.8438 32.2785 29.3221 31.6032 29.6879C30.9279 30.0537 30.1964 30.335 29.4649 30.546C28.7193 30.7571 27.9878 30.9259 27.2281 31.0665C26.4684 31.2072 25.7228 31.3057 24.9773 31.4042C24.5974 31.4464 24.2176 31.4886 23.8378 31.5308L23.275 31.5871C23.0922 31.6011 22.8952 31.6152 22.6983 31.6293C21.1508 31.7137 19.6033 31.4886 18.1262 31.0806C17.3806 30.8696 16.6632 30.6164 15.9598 30.3069C15.2564 29.9974 14.567 29.6457 13.9199 29.2237C13.5964 29.0126 13.2728 28.7735 12.9774 28.5062C12.907 28.4359 12.8226 28.3655 12.7523 28.2952C12.682 28.2248 12.6257 28.1404 12.5553 28.0701C12.4287 27.9153 12.3021 27.7606 12.1896 27.6059C11.7535 26.9587 11.4018 26.1991 11.2892 25.4113C11.1626 24.6094 11.2752 23.7935 11.5003 23.0479C11.7253 22.2882 12.077 21.5989 12.4428 20.9236C12.8226 20.2624 13.2306 19.6153 13.6245 18.9823C13.8214 18.6587 14.0043 18.3351 14.1731 18.0116C14.3279 17.5895 14.4686 17.266 14.5389 16.9284ZM15.1016 17.055C15.0031 17.4489 14.8343 17.8146 14.6515 18.1663C14.4686 18.518 14.2716 18.8416 14.0747 19.1651C13.6808 19.8123 13.2728 20.4453 12.9211 21.0924C12.5694 21.7396 12.2459 22.4148 12.0489 23.1041C11.852 23.7935 11.7675 24.5109 11.8801 25.2143C11.9926 25.9036 12.2881 26.5648 12.7101 27.1416C12.8086 27.2823 12.9352 27.423 13.0477 27.5637C13.104 27.634 13.1743 27.7043 13.2306 27.7606C13.2869 27.8309 13.3572 27.8872 13.4135 27.9435C13.6667 28.1826 13.9621 28.3937 14.2716 28.6047C14.8906 28.9986 15.5377 29.3503 16.2271 29.6457C16.9023 29.9411 17.6057 30.1943 18.3232 30.3913C19.0406 30.5882 19.7581 30.743 20.4896 30.8415C21.2211 30.9399 21.9527 30.9681 22.6842 30.9399C22.8671 30.9259 23.05 30.9118 23.2328 30.8977L23.7956 30.8415C24.1613 30.8133 24.5411 30.7711 24.921 30.7289C25.6666 30.6586 26.4122 30.5601 27.1437 30.4335C27.8893 30.3069 28.6068 30.1662 29.3242 29.9693C30.0417 29.7723 30.7451 29.5472 31.4203 29.2518C32.0815 28.9423 32.7286 28.5625 33.2491 28.042C33.3758 27.9153 33.5024 27.7747 33.6149 27.634C33.6712 27.5637 33.7274 27.4792 33.7837 27.4089C33.84 27.3386 33.9103 27.2682 33.9666 27.1838C34.0932 27.0291 34.1495 26.8603 34.2339 26.6914C34.3042 26.5226 34.3605 26.3397 34.4027 26.1569C34.5856 25.4253 34.6278 24.6657 34.5856 23.9201C34.5293 23.1745 34.4027 22.4289 34.2198 21.6974C33.8681 20.2343 33.3476 18.8275 32.799 17.4348C32.6583 17.0831 32.5176 16.7314 32.3769 16.3938L32.1519 15.8733C32.0815 15.6904 32.0112 15.4934 31.9549 15.3106C31.8564 14.9307 31.7861 14.565 31.7017 14.1992C31.6313 13.8334 31.5329 13.4817 31.4203 13.1441C31.1812 12.4548 30.8295 11.8358 30.309 11.3434C29.8025 10.8511 29.1695 10.4712 28.4942 10.1899C27.819 9.90851 27.0874 9.72562 26.3559 9.59901C25.6244 9.4724 24.8788 9.40206 24.1332 9.35986C23.3876 9.33172 22.6279 9.31766 21.8823 9.40206C21.1367 9.48647 20.4052 9.64122 19.7159 9.93664C19.0266 10.218 18.3935 10.626 17.8589 11.1324C17.3103 11.6389 16.8742 12.2578 16.5506 12.905C16.213 13.5661 15.9738 14.2695 15.7628 14.9729C15.7065 15.1417 15.6643 15.3246 15.6221 15.5075C15.594 15.5919 15.5799 15.6904 15.5518 15.7748C15.5377 15.817 15.5377 15.8733 15.5237 15.9155C15.5096 15.9577 15.4955 15.9999 15.4674 16.0421C15.397 16.2109 15.3126 16.3797 15.2282 16.5485C15.2001 16.7033 15.1438 16.8721 15.1016 17.055Z" fill="#E5D0AE"/>
<path d="M14.8206 16.9987C14.2298 19.6154 9.0669 23.7513 12.9918 27.9857C14.3283 29.4206 18.6612 31.6293 23.0081 31.2213C34.3187 30.1522 37.1745 27.423 32.4055 15.7186C31.6317 13.8194 32.5039 9.43024 24.1898 9.17702C20.701 9.07854 16.5088 9.55685 14.8206 16.9987Z" fill="#FFF8EE"/>
<path d="M16.7762 11.878C17.142 11.3153 17.6203 10.851 18.1549 10.4712C18.6895 10.0914 19.2944 9.81003 19.8993 9.58494C21.1373 9.13477 22.4315 8.96596 23.7258 8.92375C25.02 8.89562 26.3283 8.99409 27.5944 9.31765C28.2275 9.48647 28.8464 9.71155 29.4373 10.0351C30.0281 10.3587 30.5768 10.7526 31.041 11.2449C31.5053 11.7373 31.8851 12.286 32.1805 12.8909C32.476 13.4958 32.687 14.1289 32.8417 14.7619C32.9965 15.409 33.0949 16.0421 33.1793 16.6751C33.2215 16.9987 33.2638 17.3082 33.3341 17.6036C33.3622 17.7584 33.4044 17.899 33.4466 18.0116C33.4607 18.0397 33.4748 18.0679 33.4888 18.096L33.5029 18.1101L33.517 18.1241L33.5451 18.1804L33.6717 18.3914C34.2907 19.5309 34.7549 20.7829 34.9238 22.0913C35.0082 22.7384 35.0222 23.3996 34.9519 24.0608C34.8816 24.7079 34.7127 25.355 34.4595 25.9599C34.3329 26.2553 34.1922 26.5508 34.0234 26.8462C33.9812 26.9165 33.939 26.9869 33.8968 27.0572C33.8546 27.1275 33.8124 27.1838 33.7561 27.2682C33.7421 27.2823 33.7421 27.2964 33.728 27.3104C33.6858 27.2823 33.7843 27.4089 33.5029 27.3104C33.4326 27.1838 33.4748 27.2119 33.4607 27.1838C33.4607 27.1416 33.4748 27.1275 33.4748 27.0994L33.517 26.9728L33.5873 26.7477C33.7843 26.1428 33.9531 25.5379 34.0234 24.9048C34.0515 24.5953 34.0656 24.2858 34.0234 23.9623C33.9812 23.6528 33.8968 23.3574 33.7421 23.1041C33.6999 23.0338 33.6576 22.9775 33.6014 22.9213C33.5451 22.865 33.5029 22.8087 33.4466 22.7524C33.3341 22.6399 33.2215 22.5414 33.0949 22.4429C32.8417 22.246 32.5744 22.0913 32.2931 21.9506C31.7163 21.6974 31.0832 21.5989 30.4643 21.627C29.8312 21.6551 29.2122 21.7818 28.6073 21.9506C28.2978 22.035 28.0024 22.1335 27.6929 22.2319C27.5381 22.2882 27.3834 22.3304 27.2286 22.3726C27.1442 22.4007 27.0739 22.4148 26.9754 22.4289C26.891 22.4429 26.8207 22.457 26.7363 22.457C26.0892 22.5274 25.4561 22.5696 24.7949 22.5555C24.1478 22.5414 23.5007 22.4711 22.8535 22.3304C22.2205 22.1897 21.5874 21.9787 20.9966 21.7114C20.4057 21.4301 19.843 21.0924 19.3366 20.6704C18.8301 20.2484 18.38 19.7701 17.9861 19.2495C17.1983 18.1945 16.6778 16.9706 16.4245 15.6904C16.2979 15.0433 16.2417 14.3961 16.2698 13.735C16.2839 13.4114 16.3261 13.0738 16.3964 12.7502C16.4808 12.497 16.5934 12.1734 16.7762 11.878ZM17.0576 12.0609C16.9028 12.3141 16.8044 12.5955 16.734 12.905C16.6637 13.2004 16.6356 13.5099 16.6074 13.8194C16.5793 14.4383 16.6496 15.0714 16.7762 15.6763C17.0435 16.9002 17.564 18.0678 18.3237 19.0526C18.7035 19.545 19.1396 19.9951 19.6179 20.389C20.0962 20.7829 20.6308 21.1206 21.1935 21.3879C21.7563 21.6552 22.3471 21.8521 22.9661 21.9928C23.571 22.1335 24.2041 22.2179 24.823 22.2319C25.4561 22.2601 26.0751 22.2319 26.7081 22.1616L26.9473 22.1335C27.0176 22.1194 27.088 22.1053 27.1724 22.0913C27.3271 22.049 27.4678 22.0068 27.6225 21.9646C27.932 21.8802 28.2415 21.7818 28.551 21.7114C29.17 21.5567 29.8171 21.4441 30.4783 21.4441C31.1254 21.4441 31.7866 21.5567 32.3775 21.838C32.6729 21.9787 32.9543 22.1475 33.2075 22.3445C33.3341 22.443 33.4607 22.5555 33.5732 22.668C33.6295 22.7243 33.6858 22.7806 33.7421 22.8368C33.7983 22.8931 33.8546 22.9635 33.8968 23.0338C34.0797 23.3152 34.1782 23.6387 34.2204 23.9763C34.2626 24.314 34.2626 24.6375 34.2344 24.9611C34.1782 25.6082 34.0375 26.2413 33.8546 26.8603L33.7843 27.0853L33.7561 27.1979C33.7561 27.2119 33.7421 27.2401 33.7561 27.2401C33.7421 27.226 33.7843 27.2682 33.728 27.1416C33.4607 27.0431 33.5592 27.1697 33.531 27.1275C33.5592 27.0713 33.6014 27.0009 33.6436 26.9306C33.6858 26.8603 33.7139 26.7899 33.7561 26.7196C33.8968 26.4382 34.0234 26.1569 34.136 25.8614C34.558 24.6938 34.6424 23.4136 34.4314 22.1897C34.3329 21.5707 34.15 20.9799 33.9249 20.4031C33.6999 19.8263 33.4326 19.2636 33.1231 18.715L33.0105 18.518L32.9824 18.4617L32.9683 18.4336L32.9543 18.4055C32.9261 18.3633 32.9121 18.3211 32.898 18.2789C32.8276 18.1101 32.7854 17.9272 32.7432 17.7724C32.6729 17.4489 32.6166 17.1253 32.5744 16.8158C32.476 16.1828 32.3915 15.5638 32.2368 14.9589C32.0961 14.3539 31.8992 13.7631 31.6319 13.2144C31.3646 12.6658 31.041 12.1594 30.619 11.7092C29.8031 10.8229 28.6776 10.2321 27.4819 9.88037C26.2861 9.52867 25.02 9.41613 23.7539 9.41613C22.5019 9.41613 21.2357 9.57087 20.054 9.96477C19.4632 10.1617 18.9005 10.429 18.38 10.7807C17.8454 11.1183 17.3952 11.5404 17.0576 12.0609Z" fill="#E5BFA1"/>
<path d="M16.6077 11.8076C16.8187 11.47 17.0719 11.2027 17.3251 10.9495C17.5924 10.6963 17.8738 10.4853 18.1692 10.2883C18.7601 9.89442 19.3931 9.58493 20.0543 9.34578C21.3767 8.88154 22.7694 8.69866 24.1481 8.72679C25.5126 8.769 26.8913 8.93781 28.2137 9.41612C28.8748 9.65527 29.5079 9.96476 30.0847 10.3868C30.6615 10.7948 31.1679 11.3012 31.5899 11.878C31.9979 12.4548 32.3074 13.0878 32.5466 13.749C32.7716 14.4102 32.9264 15.0855 33.0389 15.7466C33.0952 16.0843 33.1374 16.4078 33.1937 16.7455C33.2499 17.069 33.2922 17.4067 33.3484 17.7021C33.3766 17.8568 33.4188 17.9975 33.475 18.11L33.4891 18.1382L33.5032 18.1663L33.5313 18.2226L33.5876 18.3351L33.7142 18.5602C33.8689 18.8556 34.0237 19.1651 34.1644 19.4746C34.4316 20.0936 34.6567 20.7548 34.8115 21.4301C34.9662 22.0912 35.0366 22.7806 35.0366 23.4699C35.0225 24.8485 34.6427 26.2131 33.9252 27.3808C33.8689 27.4652 33.7564 27.5074 33.672 27.4511C33.5876 27.3948 33.5594 27.2963 33.5876 27.226C33.7845 26.7196 33.9955 26.2413 34.1503 25.7489C34.3191 25.2565 34.4316 24.7501 34.4316 24.2577C34.4316 23.7653 34.305 23.287 34.0096 22.9072C33.9955 22.879 33.9674 22.8509 33.9533 22.8368L33.9252 22.8087L33.8971 22.7665C33.8549 22.7243 33.8127 22.6821 33.7705 22.6399C33.6861 22.5555 33.5876 22.4711 33.4891 22.4007C33.2922 22.246 33.0671 22.1053 32.856 21.9646C31.9698 21.416 31.0272 20.9377 30.0706 20.4594C29.114 19.9951 28.1433 19.545 27.1867 19.1089C25.2453 18.2226 23.304 17.3363 21.3908 16.3797C20.4341 15.8873 19.4916 15.395 18.5631 14.8041C18.0707 14.4524 17.6206 14.1429 17.1845 13.749C16.9734 13.5521 16.7624 13.327 16.5936 13.0175C16.5092 12.8627 16.4389 12.6799 16.4248 12.4548C16.4248 12.3422 16.4248 12.2297 16.4529 12.1171C16.467 12.0609 16.4811 12.0046 16.5092 11.9483C16.5233 11.9061 16.5655 11.8217 16.5796 11.8076H16.6077ZM17.3955 12.286C17.3673 12.3282 17.3814 12.3141 17.3673 12.3282C17.3673 12.3422 17.3674 12.3422 17.3533 12.3563C17.3533 12.3704 17.3533 12.3844 17.3533 12.4126C17.3533 12.4548 17.3814 12.5251 17.4096 12.6095C17.494 12.7783 17.6487 12.9612 17.8175 13.116C18.1692 13.4536 18.5772 13.7631 19.0133 14.0444C19.8714 14.6212 20.7999 15.1277 21.7424 15.6341C23.6135 16.6189 25.5408 17.5333 27.454 18.4617C28.4106 18.926 29.3672 19.4043 30.3238 19.8826C31.2804 20.375 32.223 20.8673 33.1374 21.4723C33.3625 21.627 33.5876 21.7818 33.7986 21.9646C33.9111 22.049 34.0096 22.1475 34.1222 22.246C34.1784 22.3023 34.2206 22.3445 34.2769 22.4148L34.305 22.457L34.3472 22.4992C34.3754 22.5273 34.3894 22.5555 34.4176 22.5836C34.5864 22.8228 34.713 23.0901 34.7974 23.3714C34.8818 23.6528 34.8959 23.9482 34.8959 24.2296C34.8818 24.7923 34.7271 25.3409 34.5442 25.8614C34.3613 26.3819 34.1362 26.8602 33.9252 27.3526L33.5876 27.1838C34.2488 26.0584 34.5583 24.7641 34.5442 23.4699C34.5161 22.1757 34.1784 20.8955 33.6298 19.7138C33.4891 19.4184 33.3484 19.1229 33.1796 18.8416L32.9264 18.3914C32.8279 18.2085 32.7857 18.0256 32.7435 17.8568C32.6591 17.5051 32.6028 17.1816 32.5466 16.8439C32.4903 16.5063 32.434 16.1828 32.3777 15.8733C32.2511 15.2261 32.0964 14.6072 31.8713 14.0022C31.6462 13.4114 31.3508 12.8346 30.985 12.3422C30.6193 11.8358 30.155 11.3997 29.6486 11.048C29.1281 10.6963 28.5654 10.4149 27.9604 10.218C26.7506 9.81002 25.4564 9.66934 24.1621 9.65527C23.515 9.65527 22.8819 9.68341 22.2489 9.79595C21.6158 9.89442 20.9969 10.0492 20.406 10.2602C19.8152 10.4712 19.2384 10.7385 18.7179 11.0761C18.4506 11.2449 18.2114 11.4278 17.9863 11.6388C17.7612 11.8499 17.5502 12.0609 17.3955 12.286Z" fill="#895B2E"/>
<path d="M16.9164 11.9624C15.369 14.3539 17.2118 23.5402 26.9327 22.3022C27.9597 22.1756 31.3782 20.3468 33.6853 22.9072C34.9373 24.3139 33.2492 27.8731 33.6853 27.1275C34.1777 26.3116 36.0628 23.1604 33.2351 18.307C32.3348 16.7454 33.826 9.24728 24.091 9.1488C20.363 9.13473 17.9434 10.3727 16.9164 11.9624Z" fill="#BA8449"/>
<path opacity="0.15" d="M16.6587 12.5438C19.4582 10.7431 27.927 10.8697 30.6281 15.1886C32.4288 18.0584 29.1369 25.1486 27.913 26.0489C26.7031 26.9493 25.015 27.7371 20.5696 26.6679C16.7994 25.7676 22.4687 22.2647 18.0514 21.7583C14.0139 21.294 13.606 14.5133 16.6587 12.5438Z" fill="#E3AB5E"/>
<path opacity="0.4" d="M11.6528 10.6705C13.5098 11.1489 13.2144 14.3563 14.3117 14.6095C15.423 14.8628 16.872 11.9648 17.0127 11.3317C14.8744 10.4173 13.8756 9.34817 12.3422 9.65766C11.8357 9.75613 11.1323 10.5299 11.6528 10.6705Z" fill="#FCD4C3"/>
<path opacity="0.25" d="M24.4841 19.5121C24.4841 19.7231 24.0761 19.906 23.5697 19.906C23.0632 19.906 22.6553 19.7371 22.6553 19.5121C22.6553 19.301 23.0632 19.1182 23.5697 19.1182C24.0761 19.1322 24.4841 19.301 24.4841 19.5121Z" fill="#E3AB5E"/>
<path d="M22.8667 18.3633C23.0778 18.2226 24.2032 18.2648 24.3439 18.4195C24.4845 18.5602 24.794 19.1511 24.4423 19.4043C24.3157 19.4887 24.3157 19.137 24.0344 19.1933C23.6967 19.2636 23.8796 19.6997 23.6123 19.6997C23.2044 19.6857 23.5983 19.2214 23.2466 19.1651C22.9793 19.1089 22.923 19.3762 22.7964 19.348C22.3884 19.2636 22.5713 18.5602 22.8667 18.3633Z" fill="#F8A38F"/>
<path d="M23.4745 18.2797C23.2072 18.2797 22.954 18.3078 22.8696 18.3641C22.5742 18.561 22.3913 19.2644 22.7852 19.3348H22.7993C22.8977 19.3348 22.954 19.1378 23.165 19.1378C23.1932 19.1378 23.2072 19.1378 23.2354 19.1378C23.5871 19.1941 23.2072 19.6724 23.6011 19.6724C23.8544 19.6724 23.6715 19.2503 24.0232 19.18C24.0513 19.18 24.0654 19.18 24.0794 19.18C24.2764 19.18 24.3045 19.4051 24.3889 19.4051C24.403 19.4051 24.4171 19.4051 24.4311 19.391C24.7969 19.1378 24.4874 18.547 24.3327 18.4063C24.2623 18.3359 23.8544 18.2797 23.4745 18.2797ZM23.4745 18.3781C23.8966 18.3781 24.2201 18.4344 24.2764 18.4766C24.3608 18.561 24.5296 18.8705 24.5015 19.0956C24.4874 19.18 24.4593 19.2503 24.403 19.2925C24.403 19.2785 24.3889 19.2785 24.3749 19.2644C24.3186 19.1941 24.2342 19.0815 24.0794 19.0815C24.0513 19.0815 24.0232 19.0815 24.0091 19.0956C23.7699 19.1519 23.7277 19.3348 23.6855 19.4614C23.6574 19.588 23.6433 19.588 23.6011 19.588C23.4886 19.588 23.4886 19.5598 23.4886 19.4332C23.4886 19.3066 23.4886 19.1097 23.2354 19.0675C23.2072 19.0675 23.1791 19.0675 23.151 19.0675C22.9962 19.0675 22.8977 19.1659 22.8274 19.2222C22.8133 19.2363 22.7852 19.2644 22.7711 19.2644C22.7149 19.2503 22.6586 19.2222 22.6305 19.1097C22.5882 18.9127 22.7289 18.5751 22.8837 18.4625C22.9681 18.4063 23.165 18.3781 23.4745 18.3781Z" fill="#F8A38F"/>
<path opacity="0.25" d="M32.2498 22.0561C32.6719 24.7571 29.2956 28.1475 24.7517 28.8509C20.2078 29.5402 16.8596 25.4887 16.4376 22.7736C16.0155 20.0725 18.801 21.0995 23.3449 20.4102C27.8888 19.7208 31.8278 19.3551 32.2498 22.0561Z" fill="#F7E8D0"/>
<path opacity="0.5" d="M20.3931 26.1676C20.2665 25.9706 20.1962 25.7315 20.1258 25.5064C20.0555 25.2813 19.9851 25.0562 19.9148 24.8312C19.7741 24.381 19.6194 23.9308 19.4084 23.5088C19.1973 23.0867 18.93 22.6928 18.5924 22.3974C18.2548 22.102 17.8468 21.905 17.4107 21.8206C17.256 21.7644 17.1856 21.6096 17.2419 21.4689C17.2982 21.3283 17.4389 21.2579 17.5655 21.2861C18.5784 21.5252 19.6334 21.6378 20.6745 21.6518C21.7155 21.6659 22.7846 21.6096 23.8397 21.483C24.8948 21.3564 25.9358 21.1735 26.9628 20.9344C27.9897 20.6952 29.0167 20.4138 30.0155 20.0762C30.1703 20.0199 30.325 20.1044 30.3672 20.245C30.4094 20.3576 30.3672 20.4701 30.2828 20.5405C30.2547 20.5686 30.1984 20.6108 30.1562 20.653C30.114 20.6952 30.0718 20.7515 30.0296 20.7937C29.9452 20.8922 29.8608 21.0047 29.7764 21.1172C29.6075 21.3423 29.4528 21.5674 29.3121 21.8066C29.0026 22.2708 28.7213 22.7491 28.454 23.2415C28.1867 23.7339 27.9194 24.2262 27.6802 24.7186C27.5536 24.9718 27.4411 25.2251 27.3426 25.4783C27.2863 25.6049 27.2441 25.7315 27.1879 25.8722C27.1597 25.9425 27.1457 25.9988 27.1316 26.0691C27.1316 26.0691 27.1316 26.0832 27.1316 26.0973C27.1316 26.1113 27.1316 26.1113 27.1175 26.1254C27.1175 26.1395 27.1035 26.1535 27.0894 26.1535C27.0753 26.1676 27.0613 26.1817 27.0331 26.1957C27.005 26.2239 26.9628 26.2379 26.9347 26.252C26.6674 26.3645 26.386 26.4208 26.1187 26.4771C25.8514 26.5334 25.5701 26.5756 25.2887 26.6037C24.726 26.674 24.1774 26.7303 23.6146 26.7444C23.0519 26.7725 22.4892 26.7725 21.9406 26.7162C21.6592 26.6881 21.3779 26.6459 21.1106 26.5756C20.9699 26.5334 20.8433 26.4912 20.7167 26.4208C20.5901 26.3645 20.4775 26.2801 20.3931 26.1676ZM20.4072 26.1535C20.4775 26.2661 20.6041 26.3505 20.7307 26.4068C20.8573 26.463 20.984 26.5052 21.1246 26.5474C21.3919 26.6178 21.6733 26.66 21.9546 26.674C22.5173 26.7162 23.066 26.7162 23.6287 26.6881C24.1914 26.66 24.7401 26.5896 25.2887 26.5193C25.556 26.4771 25.8374 26.4349 26.1046 26.3645C26.3719 26.2942 26.6533 26.2379 26.8924 26.1254C26.9206 26.1113 26.9487 26.0973 26.9769 26.0691C27.005 26.0551 27.0191 26.041 27.0191 26.0269C27.0331 25.9566 27.0472 25.8862 27.0753 25.8159C27.1175 25.6752 27.1597 25.5486 27.2019 25.4079C27.3004 25.1406 27.3989 24.8874 27.5114 24.6201C27.7365 24.0996 27.9616 23.5932 28.2008 23.0867C28.4399 22.5803 28.6931 22.0739 28.9604 21.5815C29.087 21.3283 29.2277 21.0891 29.3825 20.8359C29.4528 20.7093 29.5372 20.5827 29.6216 20.4701C29.6638 20.4138 29.706 20.3435 29.7482 20.2872C29.8045 20.231 29.8467 20.1606 29.917 20.1044L30.1843 20.5827C29.1574 20.9344 28.1304 21.2157 27.0753 21.4549C26.0202 21.694 24.9652 21.891 23.896 22.0176C22.8268 22.1442 21.7436 22.2145 20.6604 22.1864C19.5772 22.1583 18.4939 22.0317 17.4248 21.7784L17.5795 21.2157C18.0438 21.4971 18.4658 21.7644 18.7894 22.1442C19.1129 22.524 19.338 22.9601 19.5209 23.4103C19.6897 23.8605 19.8304 24.3247 19.9429 24.7749C19.9992 25 20.0695 25.2391 20.1258 25.4642C20.2102 25.7315 20.2806 25.9566 20.4072 26.1535Z" fill="#D8CAB2"/>
<path opacity="0.5" d="M20.3953 26.1693C20.2687 25.9724 20.1984 25.7473 20.128 25.5222C20.0577 25.2971 20.0014 25.072 19.9311 24.8469C19.7904 24.3968 19.6497 23.9466 19.4387 23.5105C19.2417 23.0885 18.9745 22.6946 18.6509 22.3851C18.3133 22.0615 17.9053 21.8364 17.4692 21.7379V21.7239C17.3989 21.6957 17.3567 21.6113 17.3848 21.541C17.4129 21.4707 17.4833 21.4285 17.5536 21.4425C18.5806 21.6817 19.6356 21.7942 20.7048 21.8083C21.774 21.8224 22.829 21.7661 23.8841 21.6395C24.9392 21.5129 25.9802 21.3159 27.0213 21.0908C28.0623 20.8517 29.0892 20.5703 30.0881 20.2327C30.1584 20.2046 30.2428 20.2468 30.2709 20.3171C30.285 20.3734 30.2709 20.4296 30.2287 20.4718C30.1443 20.5422 30.0458 20.6547 29.9614 20.7532C29.877 20.8517 29.7926 20.9783 29.7082 21.0768C29.5535 21.3018 29.3987 21.541 29.2581 21.7802C28.9626 22.2444 28.6813 22.7368 28.414 23.2291C28.1467 23.7215 27.8935 24.2139 27.6684 24.7203C27.5558 24.9736 27.4433 25.2268 27.3308 25.48C27.2745 25.6066 27.2323 25.7332 27.1901 25.8739C27.1619 25.9442 27.1479 26.0005 27.1338 26.0708C27.1197 26.1271 27.0775 26.1412 27.0494 26.1693C27.0213 26.1975 26.9791 26.2115 26.9509 26.2256C26.6836 26.3381 26.4023 26.3944 26.135 26.4507C25.8677 26.5069 25.5863 26.5492 25.305 26.5914C24.7563 26.6617 24.1936 26.718 23.6309 26.7461C23.0682 26.7742 22.5055 26.7742 21.9568 26.718C21.6755 26.6898 21.3941 26.6476 21.1268 26.5773C20.9862 26.5351 20.8595 26.4929 20.7329 26.4366C20.5923 26.3663 20.4656 26.2819 20.3953 26.1693ZM20.3953 26.1553C20.4656 26.2678 20.5923 26.3522 20.7189 26.4225C20.8455 26.4788 20.9721 26.521 21.1128 26.5632C21.3801 26.6336 21.6614 26.6758 21.9428 26.6898C22.5055 26.7461 23.0541 26.732 23.6168 26.7039C24.1796 26.6758 24.7282 26.6195 25.2909 26.5351C25.5582 26.4929 25.8396 26.4507 26.1209 26.3803C26.3882 26.3241 26.6696 26.2537 26.9087 26.1412C26.9369 26.1271 26.965 26.113 26.9931 26.0849C27.0213 26.0708 27.0494 26.0427 27.0494 26.0286C27.0635 25.9583 27.0775 25.888 27.1057 25.8176C27.1479 25.6769 27.1901 25.5503 27.2463 25.4237C27.3448 25.1564 27.4574 24.9032 27.5699 24.65C27.795 24.1295 28.0341 23.6371 28.2874 23.1307C28.5406 22.6242 28.7938 22.1318 29.0752 21.6395C29.2158 21.3863 29.3565 21.1471 29.5113 20.922C29.5816 20.7954 29.666 20.6829 29.7504 20.5703C29.8348 20.4578 29.9192 20.3452 30.0458 20.2327L30.1865 20.4859C29.1736 20.8376 28.1326 21.119 27.0916 21.3581C26.0506 21.5973 24.9955 21.7802 23.9263 21.9208C22.8572 22.0474 21.788 22.1178 20.7048 22.0896C19.6356 22.0615 18.5524 21.949 17.4973 21.7098L17.5677 21.4425C18.0319 21.6254 18.4539 21.9068 18.7775 22.2725C19.1011 22.6383 19.3402 23.0603 19.5231 23.4964C19.706 23.9325 19.8467 24.3827 19.9733 24.8469C20.0295 25.072 20.0999 25.2971 20.1702 25.5363C20.1984 25.7332 20.2687 25.9583 20.3953 26.1553Z" fill="#D8CAB2"/>
<path d="M20.4044 26.1569C21.1219 27.2823 26.9882 26.5085 27.0866 26.0584C27.3399 24.9189 29.45 20.8955 30.1253 20.3328C28.9155 20.7548 22.6271 22.7665 17.5205 21.5426C19.8136 22.3163 19.8417 25.2846 20.4044 26.1569Z" fill="#333333"/>
<path d="M22.8101 26.7477C21.6003 26.7477 20.8125 26.5789 20.503 26.2413C20.4748 26.2131 20.4748 26.0443 20.6155 25.7208C20.9532 24.947 21.9942 23.6247 23.7949 23.5121C23.9215 23.5121 24.034 23.498 24.1466 23.498C26.2567 23.498 27.5228 24.5672 27.5228 24.7501C27.4947 24.8064 27.4666 24.8908 27.4244 25.0033C27.3118 25.2706 27.143 25.6926 26.9883 26.1428C26.8054 26.3257 24.6952 26.7477 22.8101 26.7477Z" fill="#FCD4C3"/>
<path d="M24.1469 23.4277C24.0203 23.4277 23.9078 23.4277 23.7812 23.4418C21.3193 23.5966 20.1798 26.0303 20.433 26.3257C20.7988 26.7196 21.7413 26.8603 22.8105 26.8603C24.7096 26.8603 27.0027 26.4242 27.073 26.2132C27.2841 25.5801 27.5232 25.0596 27.6217 24.8064C27.7061 24.5532 26.2852 23.4137 24.1469 23.4277ZM24.1469 23.6106C26.032 23.6106 27.2981 24.511 27.4247 24.7783C27.3966 24.8345 27.3685 24.9049 27.3403 24.9893C27.2278 25.2566 27.059 25.6505 26.9042 26.1006C26.6088 26.2694 24.6393 26.6493 22.8105 26.6493C21.671 26.6493 20.8832 26.4805 20.5878 26.185C20.5737 26.0866 20.6722 25.6927 21.0239 25.2003C21.3334 24.7501 22.2337 23.695 23.7952 23.6106C23.9078 23.6106 24.0344 23.6106 24.1469 23.6106Z" fill="#F8A38F"/>
<path d="M20.4732 26.1733C20.3044 26.933 24.9609 23.205 27.4649 24.9916C27.9854 24.3023 25.2141 23.1347 23.5963 23.402C22.2317 23.6411 20.8249 24.5133 20.4732 26.1733Z" fill="#FCD4C3"/>
<path d="M21.418 22.1615C21.6571 22.5836 22.0932 24.6375 22.2761 24.6797C22.459 24.7219 23.6126 25.0454 23.7673 24.9751C23.9361 24.9048 23.922 24.5109 24.0909 24.6234C24.2315 24.7219 24.3019 24.9048 24.4426 24.8344C24.6958 24.7078 25.4414 24.2436 25.568 24.0466C25.6805 23.8356 25.6665 22.668 25.568 21.7395C25.0897 21.9646 22.262 22.26 21.418 22.1615Z" fill="#FFF7E3"/>
<path d="M25.5748 21.7466C25.1528 21.9295 22.9441 22.1827 21.8328 22.1827C21.664 22.1827 21.5373 22.1827 21.4248 22.1686C21.664 22.5907 22.1001 24.6446 22.2829 24.6868C22.4518 24.729 23.4084 24.9963 23.7038 24.9963C23.7319 24.9963 23.7601 24.9963 23.7741 24.9822C23.9148 24.9259 23.9289 24.6164 24.0414 24.6164C24.0555 24.6164 24.0836 24.6164 24.0977 24.6446C24.2243 24.7149 24.2806 24.8696 24.3931 24.8696C24.4072 24.8696 24.4353 24.8696 24.4494 24.8556C24.7026 24.729 25.4482 24.2647 25.5748 24.0678C25.7014 23.8568 25.6733 22.6891 25.5748 21.7466ZM25.5045 21.8732C25.5889 22.8298 25.5889 23.8427 25.5045 24.0115C25.406 24.1803 24.7307 24.6164 24.4213 24.7712H24.4072C24.379 24.7712 24.3368 24.729 24.3087 24.6868C24.2665 24.6446 24.2243 24.6024 24.168 24.5602C24.1258 24.532 24.0977 24.5179 24.0555 24.5179C23.9289 24.5179 23.8867 24.6446 23.8445 24.743C23.8163 24.7993 23.7882 24.8837 23.746 24.8978C23.746 24.8978 23.7319 24.8978 23.7038 24.8978C23.4646 24.8978 22.7472 24.7008 22.4518 24.6305C22.3955 24.6164 22.3533 24.6024 22.3251 24.6024C22.2407 24.5039 22.0579 23.8427 21.9172 23.3644C21.7906 22.9283 21.678 22.5203 21.5796 22.2812C21.6499 22.2812 21.7484 22.2812 21.8468 22.2812C22.9019 22.2812 24.8714 22.0561 25.5045 21.8732Z" fill="#FFDC99"/>
<path d="M21.7489 23.1533C21.6786 22.3937 25.1815 22.1404 25.6176 22.2108C25.6176 22.0279 25.5895 21.9154 25.5895 21.7043C25.0127 21.9998 21.8615 22.3093 21.4395 22.1827C21.4817 22.2671 21.6364 22.6891 21.7489 23.1533Z" fill="#EADCBE"/>
<path d="M23.4946 22.5791C23.5649 22.7479 23.6352 22.9027 23.6915 23.0715C23.7478 23.2403 23.8041 23.4091 23.8603 23.5779L24.0151 24.0844L24.1698 24.5908L23.9307 24.6611L23.8181 24.1406L23.6915 23.6201C23.6493 23.4513 23.6071 23.2825 23.5649 23.1137C23.5086 22.9449 23.4664 22.7761 23.4102 22.6213L23.4946 22.5791Z" fill="#FFDC99"/>
<path opacity="0.5" d="M16.7992 20.056C19.1344 20.2389 21.0617 20.3374 21.751 19.6199C22.4404 18.9025 22.6936 15.7231 23.819 15.8076C24.7756 15.8779 25.0992 20.0138 25.7182 20.1264C26.3372 20.253 30.7123 21.4488 31.8095 20.3233C32.8928 19.1979 33.3992 18.4945 33.146 17.8193C32.8928 17.144 26.4919 14.9635 25.1836 14.8369C23.8753 14.7103 15.0407 15.8216 14.8156 16.3703C14.5905 16.933 14.3513 16.8486 14.3936 17.4394C14.478 18.5789 14.4639 19.8732 16.7992 20.056Z" fill="#E3AB5E"/>
<path d="M23.3457 15.3528C23.5146 15.3528 24.1757 15.2965 24.3305 15.4231C25.1746 16.0843 25.1464 18.7994 26.0327 19.6435C26.8205 20.4031 31.1253 20.9518 31.8709 20.0936C32.6164 19.2355 33.7137 16.6189 33.967 16.4219C34.2202 16.239 34.7829 16.0984 34.9517 15.8311C35.1205 15.5778 34.9798 14.4243 34.5859 14.4806C34.192 14.5368 33.4465 14.776 32.9822 14.6494C32.518 14.5087 30.253 13.0878 24.5556 13.946C24.0069 14.0304 23.4583 13.946 23.0784 13.8475C22.6986 13.749 20.5603 12.5111 14.8347 13.327C14.272 13.4114 13.4842 13.1582 13.2028 13.1863C12.9215 13.2144 12.8371 14.1007 12.9496 14.3258C13.0621 14.5509 13.653 14.7478 13.7233 15.0292C13.7937 15.3106 14.3142 18.0679 15.6647 19.2073C17.0996 20.4172 20.7573 19.5731 21.0808 19.348C22.5298 18.3211 22.8534 15.3528 23.3457 15.3528Z" fill="#333333"/>
<path d="M18.4136 13.063C17.4148 13.063 16.219 13.1333 14.8122 13.3443C14.7278 13.3584 14.6434 13.3584 14.559 13.3584C14.0666 13.3584 13.4899 13.2037 13.2226 13.2037C13.2085 13.2037 13.1944 13.2037 13.1804 13.2037C12.899 13.2318 12.8146 14.1181 12.9271 14.3432C13.0397 14.5823 13.6305 14.7652 13.7009 15.0466C13.7712 15.3279 14.2917 18.0852 15.6422 19.2247C16.2049 19.703 17.1334 19.8578 18.0619 19.8578C19.4687 19.8578 20.8614 19.5061 21.0584 19.3654C22.5214 18.3244 22.859 15.356 23.3514 15.356C23.4218 15.356 23.6046 15.342 23.7734 15.342C23.9985 15.342 24.2377 15.356 24.3221 15.4123C25.1662 16.0735 25.138 18.7886 26.0243 19.6327C26.5307 20.111 28.4721 20.5189 29.9914 20.5189C30.8496 20.5189 31.5811 20.3923 31.8484 20.0828C32.594 19.2247 33.6913 16.6081 33.9445 16.4111C34.1977 16.2142 34.7604 16.0876 34.9292 15.8203C35.084 15.5671 34.9574 14.4698 34.5776 14.4698C34.5776 14.4698 34.5635 14.4698 34.5494 14.4698C34.2399 14.512 33.7053 14.6667 33.2692 14.6667C33.1567 14.6667 33.0442 14.6527 32.9457 14.6245C32.5799 14.512 31.1591 13.6538 27.9235 13.6538C26.9528 13.6538 25.8274 13.7242 24.519 13.9211C24.3643 13.9493 24.1955 13.9493 24.0548 13.9493C23.675 13.9493 23.3233 13.893 23.056 13.8227C22.7746 13.7945 21.4804 13.063 18.4136 13.063ZM18.4136 13.3443C20.9599 13.3443 22.2682 13.8508 22.7465 14.0477C22.845 14.0899 22.9153 14.1181 22.9856 14.1321C23.2389 14.1884 23.6187 14.2728 24.0548 14.2728C24.2236 14.2728 24.4065 14.2588 24.5612 14.2306C25.757 14.0477 26.8824 13.9633 27.9235 13.9633C30.5963 13.9633 31.9891 14.5542 32.594 14.8215C32.7206 14.8777 32.805 14.9059 32.8753 14.934C33.002 14.9762 33.1286 14.9903 33.2833 14.9903C33.5928 14.9903 33.9304 14.9199 34.2118 14.8637C34.3384 14.8355 34.465 14.8074 34.5635 14.7933C34.6901 14.934 34.7745 15.553 34.7042 15.7218C34.6479 15.8062 34.4087 15.9188 34.2399 15.9891C34.0711 16.0594 33.9164 16.1298 33.8038 16.2142C33.6491 16.3267 33.4943 16.6222 33.0442 17.5225C32.6081 18.3806 32.0735 19.4498 31.6655 19.914C31.5248 20.0828 31.0184 20.2517 30.0055 20.2517C28.5284 20.2517 26.6433 19.8578 26.2212 19.4498C25.8274 19.084 25.6304 18.2259 25.4335 17.3959C25.2084 16.4674 24.9973 15.5952 24.505 15.2013C24.3784 15.1028 24.1814 15.0606 23.7875 15.0606C23.675 15.0606 23.5624 15.0606 23.478 15.0606C23.4217 15.0606 23.3795 15.0606 23.3514 15.0606C22.9575 15.0606 22.7887 15.5249 22.4933 16.3689C22.1697 17.2974 21.7055 18.5494 20.9036 19.1262C20.7207 19.2388 19.3983 19.5764 18.0619 19.5764C17.0349 19.5764 16.2612 19.3795 15.8251 19.0137C15.2905 18.5635 14.5449 17.5084 14.0104 15.1028C13.9963 15.0466 13.9822 15.0044 13.9822 14.9762C13.9119 14.7089 13.6587 14.5542 13.4477 14.4135C13.3632 14.3572 13.2226 14.2588 13.1944 14.2166C13.1382 14.0899 13.1944 13.6257 13.2788 13.471C13.3773 13.471 13.518 13.4991 13.6727 13.5272C13.94 13.5694 14.2777 13.6257 14.5871 13.6257C14.6856 13.6257 14.7982 13.6257 14.8826 13.5976C16.1346 13.4428 17.3304 13.3443 18.4136 13.3443Z" fill="#1A1A1A"/>
<path opacity="0.5" fill-rule="evenodd" clip-rule="evenodd" d="M21.7621 14.7582C21.9022 14.8383 22.035 14.9344 22.1219 15.0503C22.2143 15.1735 22.2236 15.3321 22.2212 15.4394C22.2185 15.5633 22.1964 15.7056 22.1626 15.8542C22.0946 16.153 21.9706 16.5137 21.8114 16.8748C21.652 17.2364 21.4532 17.6079 21.2315 17.926C21.0137 18.2387 20.7571 18.5243 20.4745 18.6852L20.4725 18.6863L20.4705 18.6875C20.3634 18.7461 20.224 18.7899 20.0783 18.8246C19.928 18.8603 19.7523 18.8904 19.5619 18.9151C19.1808 18.9645 18.7268 18.9936 18.2719 18.9981C17.8173 19.0026 17.3549 18.9825 16.958 18.9314C16.5768 18.8823 16.2074 18.7992 15.9763 18.6488C15.6465 18.4373 15.4247 18.0978 15.2747 17.739C15.1234 17.3774 15.0343 16.9711 14.9849 16.592C14.9353 16.2116 14.9241 15.848 14.9339 15.566C14.9387 15.4253 14.9489 15.3008 14.9631 15.2023C14.9702 15.1534 14.9789 15.1062 14.99 15.0644C14.998 15.0342 15.0162 14.9688 15.0585 14.9115C15.163 14.7692 15.34 14.6182 15.5158 14.4991C15.6878 14.3826 15.9004 14.2682 16.0935 14.2275C17.2821 13.9209 18.6509 13.9638 19.7696 14.1503C20.3319 14.244 20.8401 14.3754 21.2396 14.5225C21.4392 14.596 21.6167 14.6751 21.7621 14.7582ZM19.6771 14.7054C18.6035 14.5264 17.3165 14.4918 16.2278 14.774L16.2201 14.776L16.2123 14.7776C16.1263 14.7948 15.9839 14.8617 15.8314 14.965C15.6971 15.056 15.5887 15.1522 15.531 15.2206C15.5278 15.2349 15.524 15.2554 15.5201 15.2827C15.5096 15.3553 15.5006 15.4583 15.4963 15.5854C15.4875 15.8388 15.4975 16.1715 15.5429 16.5192C15.5884 16.8681 15.6681 17.2215 15.7938 17.5219C15.9205 17.8248 16.0836 18.0494 16.2807 18.1756L16.2818 18.1763L16.2829 18.177C16.3965 18.2512 16.6508 18.3245 17.0299 18.3733C17.394 18.4202 17.8293 18.4397 18.2663 18.4354C18.703 18.4311 19.1343 18.4031 19.4896 18.3571C19.6674 18.334 19.8226 18.3069 19.9481 18.2771C20.0763 18.2466 20.1571 18.217 20.1984 18.1949C20.3724 18.095 20.5704 17.8906 20.7698 17.6044C20.9662 17.3224 21.1482 16.9843 21.2965 16.6478C21.445 16.3109 21.5558 15.9849 21.6139 15.7293C21.6432 15.6007 21.6571 15.4989 21.6587 15.4269C21.6593 15.3992 21.6579 15.3812 21.6567 15.3707C21.6297 15.3431 21.5762 15.3001 21.483 15.2468C21.3725 15.1837 21.2255 15.1169 21.0453 15.0506C20.6852 14.9181 20.2121 14.7945 19.6771 14.7054ZM15.5369 15.1987C15.537 15.1988 15.5365 15.2003 15.5354 15.2031C15.5364 15.1999 15.5369 15.1986 15.5369 15.1987ZM26.1243 15.6269C26.1217 15.6372 26.1177 15.6557 26.1146 15.6851C26.1069 15.7575 26.1076 15.861 26.1201 15.9929C26.1451 16.255 26.2132 16.5934 26.3176 16.9473C26.4219 17.3007 26.5593 17.6598 26.7185 17.9648C26.8805 18.275 27.0516 18.5035 27.2125 18.6246C27.2487 18.651 27.3237 18.6905 27.4468 18.7374C27.5664 18.783 27.7158 18.8297 27.8883 18.8755C28.2329 18.9669 28.6557 19.0506 29.0872 19.1118C29.5191 19.173 29.9528 19.2106 30.32 19.2121C30.7006 19.2136 30.9629 19.1753 31.0874 19.1172C31.2982 19.0138 31.4887 18.809 31.6537 18.5234C31.8176 18.2394 31.9433 17.8979 32.0344 17.5574C32.1251 17.218 32.1787 16.8896 32.2028 16.6379C32.2149 16.5116 32.2191 16.4091 32.2178 16.3367C32.2173 16.3102 32.216 16.2905 32.2147 16.2767C32.1661 16.2018 32.0696 16.0912 31.9465 15.9812C31.8079 15.8575 31.6741 15.7692 31.5899 15.7382L31.5863 15.7369L31.5827 15.7354C30.5406 15.3186 29.2605 15.1865 28.173 15.2243C27.631 15.2432 27.1461 15.304 26.7719 15.3886C26.5845 15.4309 26.4302 15.4781 26.3125 15.5264C26.2133 15.5671 26.1547 15.6029 26.1243 15.6269ZM32.2115 16.2547C32.2116 16.2546 32.212 16.2561 32.2126 16.2597C32.2118 16.2565 32.2115 16.2548 32.2115 16.2547ZM31.7884 15.2116C30.6506 14.7573 29.2875 14.6225 28.1534 14.6619C27.584 14.6818 27.0631 14.7458 26.6478 14.8397C26.4403 14.8866 26.254 14.9421 26.0988 15.0058C25.9493 15.0672 25.805 15.1457 25.7036 15.2499L25.7027 15.2508L25.7018 15.2518C25.5962 15.3624 25.5666 15.5175 25.5551 15.6254C25.5419 15.7493 25.5454 15.8939 25.5599 16.0462C25.5891 16.3525 25.666 16.7271 25.7779 17.1065C25.8899 17.4864 26.04 17.8809 26.2197 18.2252C26.3964 18.5636 26.6152 18.8799 26.876 19.0756L26.877 19.0763L26.8779 19.077C26.9757 19.149 27.1076 19.2104 27.2465 19.2633C27.3899 19.3179 27.5592 19.3704 27.744 19.4194C28.1137 19.5175 28.5588 19.6052 29.0082 19.6689C29.4574 19.7325 29.9178 19.7732 30.3177 19.7748C30.7027 19.7763 31.08 19.7429 31.3289 19.6254L31.3306 19.6247L31.3322 19.6239C31.6834 19.4527 31.9459 19.1426 32.141 18.8048C32.3375 18.4644 32.4791 18.0727 32.578 17.7027C32.6772 17.3317 32.7361 16.9726 32.763 16.6915C32.7764 16.5513 32.7823 16.4262 32.7804 16.326C32.7794 16.2763 32.7765 16.2276 32.7702 16.1838C32.7658 16.1529 32.7552 16.0856 32.7187 16.0228C32.6332 15.8722 32.4782 15.7017 32.3212 15.5615C32.1655 15.4224 31.9704 15.2797 31.7884 15.2116Z" fill="#333333"/>
<mask id="mask0_1108_170668" style="mask-type:alpha" maskUnits="userSpaceOnUse" x="15" y="14" width="18" height="6">
<path d="M15.2849 15.0714C15.1582 15.2402 15.0738 17.7302 16.1289 18.4055C16.8182 18.8556 19.7444 18.7572 20.3352 18.4336C21.2496 17.9131 22.15 15.5497 21.8967 15.2121C21.4747 14.6494 18.4361 13.9038 16.1571 14.4946C15.8757 14.565 15.4396 14.8604 15.2849 15.0714Z" fill="white"/>
<path d="M32.4758 16.1687C32.5883 16.3516 32.3351 18.8275 31.2097 19.3762C30.4641 19.7278 27.5802 19.2495 27.0456 18.8556C26.2015 18.2226 25.6107 15.7607 25.9061 15.4512C26.3985 14.9448 29.5075 14.6072 31.688 15.4794C31.9553 15.5778 32.3351 15.9295 32.4758 16.1687Z" fill="white"/>
</mask>
<g mask="url(#mask0_1108_170668)">
<path d="M15.2849 15.0714C15.1582 15.2402 15.0738 17.7302 16.1289 18.4055C16.8182 18.8556 19.7444 18.7572 20.3352 18.4336C21.2496 17.9131 22.15 15.5497 21.8967 15.2121C21.4747 14.6494 18.4361 13.9038 16.1571 14.4946C15.8757 14.565 15.4396 14.8604 15.2849 15.0714Z" fill="white"/>
<path d="M32.4758 16.1687C32.5883 16.3516 32.3351 18.8275 31.2097 19.3762C30.4641 19.7278 27.5802 19.2495 27.0456 18.8556C26.2015 18.2226 25.6107 15.7607 25.9061 15.4512C26.3985 14.9448 29.5075 14.6072 31.688 15.4794C31.9553 15.5778 32.3351 15.9295 32.4758 16.1687Z" fill="white"/>
<path d="M15.3147 16.7842C15.4132 15.5744 15.5257 14.5896 17.9313 14.5193C19.8586 14.463 21.392 14.9132 21.603 15.3774C21.7437 15.6729 21.6311 16.9671 20.6745 18.1488C21.2935 17.6002 22.3047 15.3739 21.8826 15.1066C20.3211 14.1078 17.1857 14.1254 16.0321 14.5334C15.8211 14.6037 15.4256 14.8534 15.2005 15.1066C15.1583 15.4161 15.2162 16.6154 15.3147 16.7842Z" fill="#D0DDDC"/>
<path d="M15.3147 16.8651C15.6805 19.2285 20.1523 18.5111 20.4055 18.4126C20.3914 18.5392 18.0539 19.1793 16.1688 18.4478C15.4092 18.1664 15.2866 16.5978 15.3147 16.8651Z" fill="#D0DDDC"/>
<path d="M32.2728 17.841C32.3291 16.6171 32.3291 15.6464 29.9657 15.2806C28.0665 14.9852 26.4909 15.2384 26.2096 15.6745C26.0408 15.9418 25.9905 17.3294 26.8065 18.6236C26.2578 17.9905 25.4277 15.5427 25.892 15.3177C27.566 14.5158 30.7676 14.9712 31.8508 15.5198C32.0477 15.6183 32.3713 15.8856 32.5542 16.181C32.5401 16.4764 32.3994 17.6862 32.2728 17.841Z" fill="#D0DDDC"/>
<path d="M32.2225 17.9202C31.5754 20.2133 27.2565 18.9612 27.0174 18.8346C27.0174 18.9612 29.2519 19.8705 31.2214 19.3922C32.0092 19.1952 32.3069 17.6529 32.2225 17.9202Z" fill="#D0DDDC"/>
<path d="M18.6191 16.5908C18.5488 17.1394 18.2674 17.5474 18.0002 17.5052C17.7329 17.463 17.5922 16.9988 17.6625 16.4501C17.7329 15.9015 18.0142 15.4935 18.2815 15.5357C18.5488 15.5779 18.6895 16.0422 18.6191 16.5908Z" fill="black"/>
<path d="M29.8312 17.2098C29.8875 17.7584 29.7187 18.2227 29.4655 18.2508C29.1982 18.2789 28.9449 17.8569 28.8887 17.3083C28.8324 16.7596 29.0012 16.2954 29.2544 16.2672C29.5077 16.2532 29.7609 16.6752 29.8312 17.2098Z" fill="black"/>
<g opacity="0.25">
<path d="M18.545 15.8874C18.545 15.817 18.4888 15.7467 18.4044 15.7467C18.3199 15.7467 18.2637 15.803 18.2637 15.8874C18.2637 15.9718 18.3199 16.0281 18.4044 16.0281C18.4888 16.0281 18.545 15.9718 18.545 15.8874Z" fill="white"/>
<path d="M29.6586 16.5486C29.6586 16.4782 29.6024 16.4079 29.5179 16.4079C29.4476 16.4079 29.3773 16.4642 29.3773 16.5486C29.3773 16.633 29.4335 16.6892 29.5179 16.6892C29.5883 16.6892 29.6586 16.6189 29.6586 16.5486Z" fill="white"/>
</g>
</g>
<path opacity="0.3" d="M13.2134 13.9952C13.537 14.2062 13.8324 14.0796 13.9027 14.5017C13.9731 14.9237 14.9438 18.5813 16.1536 19.0034C18.1372 19.6927 20.6412 19.0174 20.9789 18.8064C21.3165 18.5954 22.9062 15.0362 23.1735 14.8955C23.4407 14.7549 24.2848 14.9096 24.4677 14.994C25.0163 15.2332 26.0292 19.0878 26.2965 19.2847C27.5204 20.1429 31.4453 20.0725 31.6282 19.8474C31.8252 19.6083 33.2882 16.2461 33.5555 16.0491C33.9354 15.7537 34.8216 15.5567 34.8498 15.6833C34.8779 15.81 34.1323 15.9366 33.9072 16.2039C33.6821 16.4852 32.205 19.7068 31.7408 19.9881C31.2765 20.2695 27.844 20.7337 26.0996 19.5098C25.2696 18.919 24.946 15.4161 24.2848 15.2191C23.8628 15.0925 23.5392 15.1066 23.2297 15.191C22.8218 15.4583 22.245 18.4406 21.0211 19.1862C20.5287 19.4817 16.7163 20.2273 15.5768 19.0315C13.4526 16.8088 14.0997 14.8252 13.4104 14.5439C12.9461 14.3469 12.8477 14.0937 12.8477 13.9249C12.8899 13.742 13.0446 13.8827 13.2134 13.9952Z" fill="#333333"/>
<path opacity="0.3" d="M13.2519 13.2496C13.0268 13.1652 14.2085 13.6576 14.6446 13.6294C15.0807 13.6013 15.8122 13.2918 16.0514 13.2215C16.2624 13.1511 14.9541 13.3903 14.6305 13.3762C14.3069 13.3622 13.3785 13.2918 13.2519 13.2496Z" fill="#333333"/>
<path opacity="0.3" d="M22.375 13.9108C22.783 14.0936 22.9658 14.5579 23.3597 14.6001C23.7536 14.6423 24.232 14.7126 24.457 14.586C24.6821 14.4594 25.2448 14.164 25.3996 14.1359C25.5684 14.1077 24.1757 14.3187 23.6552 14.2765C23.1347 14.2203 22.5297 13.9248 22.375 13.9108Z" fill="#333333"/>
<path opacity="0.3" d="M32.3594 14.4488C32.1906 14.3785 32.9784 15.0115 33.2176 14.9834C33.4567 14.9553 33.8788 14.688 34.0616 14.6176C34.2023 14.5614 33.4989 14.7583 33.2879 14.7161C33.0769 14.702 32.5283 14.5192 32.3594 14.4488Z" fill="#333333"/>
<path opacity="0.3" d="M14.8417 14.7091C15.8828 13.6822 18.3587 14.0339 18.8089 14.1183C15.8406 14.3293 15.7843 14.5544 15.2638 15.0749C15.1934 15.4829 15.095 16.8334 15.5592 18.0151C15.0387 17.7337 14.49 15.0608 14.8417 14.7091Z" fill="#333333"/>
<path opacity="0.3" d="M33.0468 15.8167C32.1465 14.6631 29.6565 14.6772 29.1923 14.7194C32.1043 15.3243 32.1324 15.5494 32.5826 16.1403C32.6107 16.5482 32.5263 17.8988 31.9214 19.0101C32.456 18.785 33.3423 16.1965 33.0468 15.8167Z" fill="#333333"/>
<g opacity="0.1">
<path d="M13.291 13.844C13.6286 14.2238 13.8397 14.266 14.2898 14.2097C18.6649 13.647 21.0846 13.6611 22.2804 14.7725C22.5336 15.0116 22.3929 14.055 21.9146 13.9284C18.2288 12.9577 15.5559 13.8299 14.9932 13.9003C14.4164 13.9847 14.0085 13.858 13.291 13.844Z" fill="#D0DDDC"/>
<path d="M25.3894 14.4067C25.2909 14.5052 25.3331 15.5181 25.8114 15.1382C27.19 14.0409 30.074 14.2941 32.0857 14.9694C31.7621 14.3364 29.4128 13.9002 28.0904 13.9143C27.4573 13.9425 25.6567 14.1253 25.3894 14.4067Z" fill="#D0DDDC"/>
</g>
<path d="M33.7137 15.212C33.7137 15.2542 33.4886 15.2824 33.2213 15.2824C32.954 15.2824 32.729 15.2542 32.729 15.212C32.729 15.1698 32.954 15.1417 33.2213 15.1417C33.5027 15.1417 33.7137 15.1839 33.7137 15.212Z" fill="#D0DDDC"/>
<path d="M14.7502 14.0022C14.7502 14.0444 14.5252 14.0444 14.2579 14.0022C13.9906 13.96 13.7796 13.8897 13.7936 13.8474C13.8077 13.8052 14.0187 13.8052 14.286 13.8474C14.5533 13.8756 14.7643 13.9459 14.7502 14.0022Z" fill="#D0DDDC"/>
<path d="M41.9912 36.544C41.9068 35.6858 41.2738 35.306 40.697 35.306C40.4297 35.306 40.2187 35.3763 40.1343 35.4185L40.0217 35.4748L39.9232 35.5452C39.7826 35.6436 39.5434 35.7984 39.3324 35.8687C39.3183 35.6999 39.3324 35.4748 39.3605 35.2779V35.2497C39.5153 33.7445 39.2058 32.8582 38.418 32.6331C38.2914 32.5909 38.1507 32.5768 38.01 32.5768C37.5317 32.5768 37.1097 32.8019 36.8424 32.9989C36.6173 32.7035 36.2234 32.5487 35.7451 32.5487C35.0276 32.5487 34.4509 32.8863 34.2398 33.4209C34.2117 33.4772 34.1836 33.5616 34.1554 33.6741C33.7334 32.7457 32.8753 32.394 32.0734 32.394C31.3137 32.394 30.5822 32.6894 30.3149 32.9004C30.3008 32.9145 30.2868 32.9145 30.2727 32.9285C29.5552 33.435 28.9925 34.0821 28.5986 34.8558C28.4017 34.1946 27.9797 33.5616 27.2341 33.0974L27.22 33.0833C27.1919 33.0692 27.1778 33.0551 27.1637 33.0551C27.9093 31.7468 28.5564 30.0024 28.1625 28.3424C27.7405 26.5699 26.6995 26.3167 26.1227 26.3167C25.8835 26.3167 25.6303 26.3589 25.3771 26.4433H25.363H25.349C24.2517 26.8794 23.7734 27.5265 23.6608 27.6812C23.5483 27.85 22.3525 29.6789 22.0571 32.3518C22.0289 32.6472 21.9867 32.9567 21.9586 33.2662C21.7898 33.027 21.5084 32.8019 21.0723 32.6753C20.9317 32.6331 20.791 32.619 20.6503 32.619C20.0454 32.619 19.553 32.9848 19.2857 33.238C19.0606 32.9004 18.6949 32.6894 18.2869 32.6753C18.2588 32.6753 18.2166 32.6753 18.1884 32.6753C17.5413 32.6753 17.0349 32.9567 16.655 33.2802C16.4159 32.8582 15.9657 32.5909 15.4452 32.5909C15.403 32.5909 15.3608 32.5909 15.3186 32.5909C15.2905 32.5909 15.2623 32.5909 15.2342 32.5909C14.5167 32.5909 13.954 32.9285 13.7289 33.4913C13.7149 33.5335 13.6867 33.5897 13.6726 33.6601C13.1099 32.9567 12.3925 32.6331 11.4218 32.6331C11.3937 32.6331 11.3655 32.6331 11.3233 32.6331C10.7184 32.6472 9.22721 32.9004 8.29873 34.9684C8.15805 35.2919 8.04551 35.6155 7.96111 35.925C7.76416 35.8265 7.56721 35.8124 7.4406 35.8124C6.96229 35.8124 6.59652 36.0797 6.42771 36.347C6.28703 36.558 5.83686 37.2896 6.06195 38.0211C6.18856 38.415 6.45584 38.7104 6.84974 38.8652C7.20144 39.0058 7.63755 39.1325 7.96111 39.2309C8.15806 39.6952 8.52382 40.2157 9.17094 40.7081C9.62111 41.0598 10.212 41.2286 10.8872 41.2286C12.0408 41.2286 13.1521 40.7362 13.2647 40.6799L13.3069 40.6518L13.321 40.6377C13.546 40.8628 13.8274 41.0316 14.1932 41.102C14.3057 41.1301 14.4464 41.1442 14.6152 41.1442C15.2342 41.1442 15.6703 40.8206 16.0783 40.2297C16.4018 40.7503 17.0067 41.0316 17.7101 41.0316C17.7523 41.0316 17.7805 41.0598 17.8367 41.0598C18.2025 41.0598 18.6808 40.9331 19.0606 40.3001C19.3842 40.8769 19.975 41.2145 20.6784 41.2145C21.2974 41.2145 21.8461 40.9613 21.9445 40.905L21.9727 40.8909C22.1837 40.7784 22.3525 40.6799 22.4932 40.6096C22.9574 40.8628 23.6608 41.1301 24.533 41.1301C24.6878 41.1301 24.8285 41.1301 24.9832 41.102H25.0254H25.0676C26.8964 40.7362 28.0922 40.3001 28.8097 39.9625C29.302 40.5252 30.1039 41.0598 31.2293 41.1442C31.3559 41.1582 31.4825 41.1582 31.6092 41.1582C32.5376 41.1582 33.2832 40.8909 33.8319 40.6096C34.0007 40.7925 34.2258 40.9613 34.5071 41.0738C34.6759 41.1442 34.8588 41.1723 35.0276 41.1723C36.1671 41.1723 36.7017 39.8218 36.8424 39.3575L37.1097 38.626C37.3488 38.8792 37.6583 39.0903 38.0522 39.2028C38.2632 39.2591 38.5024 39.3013 38.7275 39.3013C39.9795 39.3013 41.1894 38.415 41.3722 38.2603C41.6958 37.9367 42.0616 37.3458 41.9912 36.544Z" fill="white"/>
<path d="M30.4987 36.9205C30.4987 36.9205 30.344 36.3578 30.9348 35.2886C31.5257 34.2195 31.9758 34.7963 31.9758 34.7963C31.9758 34.7963 32.4823 35.3449 31.9055 36.1609C31.3287 36.9768 30.4987 36.9205 30.4987 36.9205ZM25.9829 37.6942C25.3077 39.4527 23.6758 38.7353 23.6758 38.7353C23.6758 38.7353 23.4929 38.1022 24.0275 36.3437C24.5621 34.5853 25.8001 35.2746 25.8001 35.2746C25.8001 35.2746 26.6582 35.9358 25.9829 37.6942ZM24.759 30.3086C24.759 30.3086 25.7719 27.6498 26.0251 28.944C26.2784 30.2383 23.8868 34.0788 23.8868 34.0788C23.915 33.2207 24.759 30.3086 24.759 30.3086ZM10.1988 36.9205C10.241 35.2183 11.3524 34.4727 11.7463 34.8385C12.1402 35.2042 11.9995 36.0202 11.2539 36.5125C10.5364 37.019 10.1988 36.9205 10.1988 36.9205ZM41.0496 36.6392C40.9933 36.0624 40.4728 36.2734 40.4728 36.2734C40.4728 36.2734 39.6428 36.9205 38.9113 36.8502C38.1798 36.7798 38.4189 35.148 38.4189 35.148C38.4189 35.148 38.5737 33.6427 38.1516 33.5161C37.7155 33.3895 37.195 33.91 37.195 33.91C37.195 33.91 36.5338 34.6415 36.2243 35.57L36.1399 35.5981C36.1399 35.5981 36.2384 33.9663 36.1258 33.5864C36.0414 33.4036 35.2536 33.4176 35.127 33.7412C35.0004 34.0647 34.3674 36.3578 34.3252 37.3285C34.3252 37.3285 33.0872 38.3695 32.018 38.5524C30.9348 38.7212 30.6816 38.0459 30.6816 38.0459C30.6816 38.0459 33.6077 37.23 33.5092 34.8947C33.4108 32.5595 31.1458 33.4176 30.8926 33.6146C30.6394 33.7975 29.3311 34.5993 28.9372 36.7939C28.9231 36.8642 28.895 37.2019 28.895 37.2019C28.895 37.2019 27.7555 37.9615 27.1365 38.1585C27.1365 38.1585 28.895 35.1902 26.7426 33.8397C25.7719 33.2488 24.9841 34.4868 24.9841 34.4868C24.9841 34.4868 27.8962 31.2512 27.249 28.5079C26.9395 27.1996 26.2924 27.059 25.6875 27.27C24.7731 27.6357 24.4355 28.1562 24.4355 28.1562C24.4355 28.1562 23.2538 29.8585 22.9865 32.4047C22.7192 34.951 22.3112 38.0037 22.3112 38.0037C22.3112 38.0037 21.7485 38.5524 21.2421 38.5805C20.7216 38.6087 20.9607 37.0471 20.9607 37.0471C20.9607 37.0471 21.3546 34.6697 21.3265 34.2617C21.2983 33.8537 21.2702 33.6427 20.7919 33.502C20.3277 33.3614 19.8071 33.9663 19.8071 33.9663C19.8071 33.9663 18.4426 36.0342 18.33 36.3437L18.2597 36.4703L18.1893 36.3859C18.1893 36.3859 19.146 33.5724 18.2316 33.5302C17.3171 33.488 16.7122 34.529 16.7122 34.529C16.7122 34.529 15.6712 36.2875 15.629 36.4844L15.5587 36.4C15.5587 36.4 15.9948 34.3602 15.9104 33.8537C15.826 33.3473 15.3476 33.4598 15.3476 33.4598C15.3476 33.4598 14.7427 33.3895 14.588 33.7834C14.4332 34.1773 13.8565 36.7376 13.7861 37.5536C13.7861 37.5536 12.2809 38.6368 11.2961 38.6368C10.3114 38.6509 10.4098 38.0037 10.4098 38.0037C10.4098 38.0037 14.0393 36.7658 13.0546 34.3039C12.6044 33.6708 12.098 33.4739 11.3664 33.488C10.6349 33.502 9.77678 33.9522 9.18593 35.2605C8.90457 35.8936 8.79203 36.4844 8.79203 36.9346C8.79203 36.9346 8.11677 37.0612 7.76507 36.7798C7.41338 36.4985 7.21643 36.7798 7.21643 36.7798C7.21643 36.7798 6.61151 37.638 7.20236 37.8631C7.79321 38.0881 8.69355 38.3132 8.69355 38.3132C8.77796 38.679 9.01711 39.298 9.73457 39.8326C10.8037 40.6485 12.8717 39.7059 12.8717 39.7059L13.7158 39.1995C13.7158 39.1995 13.7439 39.9592 14.3629 40.0717C14.9819 40.1843 15.2351 40.0576 16.3183 37.4551C16.9514 36.1187 16.9936 36.189 16.9936 36.189L17.0639 36.1749C17.0639 36.1749 16.5715 38.7212 16.7685 39.4105C16.9654 40.0998 17.7673 40.0295 17.7673 40.0295C17.7673 40.0295 18.2175 40.1843 18.5692 38.9182C18.9349 37.652 19.6102 36.3297 19.6102 36.3297H19.6946C19.6946 36.3297 19.3992 38.8759 19.8494 39.7059C20.3136 40.536 21.4953 39.9592 21.4953 39.9592C21.4953 39.9592 22.3253 39.5231 22.4519 39.3965C22.4519 39.3965 23.4367 40.2265 24.8294 40.0717C27.9384 39.4527 29.0497 38.6227 29.0497 38.6227C29.0497 38.6227 29.5843 39.9732 31.2443 40.0998C33.1435 40.2405 34.1704 39.0448 34.1704 39.0448C34.1704 39.0448 34.1564 39.8185 34.8175 40.0858C35.4787 40.3531 35.9289 38.9182 35.9289 38.9182L37.0403 35.9498H37.1387C37.1387 35.9498 37.195 37.849 38.2923 38.1585C39.3896 38.468 40.8104 37.3707 40.8104 37.3707C40.8104 37.3707 41.1199 37.2159 41.0496 36.6392Z" fill="#E24B31"/>
</svg>
