<svg width="48" height="48" viewBox="0 0 48 48" fill="none" xmlns="http://www.w3.org/2000/svg">
<path fill-rule="evenodd" clip-rule="evenodd" d="M36.6062 13.5678C36.3686 12.2907 35.6124 11.6614 34.9286 11.414C34.191 11.1463 32.6952 10.869 30.8158 10.6466C29.3038 10.4679 27.5267 10.4821 26.4532 10.5154C26.3244 9.62946 25.7054 8.82013 25.0129 8.53992C23.1677 7.79425 20.3166 7.97439 19.5847 8.18035C19.003 8.34356 18.3592 8.6781 18.0009 9.19349C17.7606 9.53779 17.6051 9.97888 17.6039 10.5951C17.6039 10.9439 17.6135 11.7654 17.6224 12.4954C17.6297 13.1054 17.6376 13.6617 17.64 13.833L17.6407 13.8869C17.6404 14.5388 17.1141 15.0694 16.462 15.0702H13.4702C12.832 15.0702 12.3444 15.1779 11.972 15.3478C11.5989 15.5178 11.3347 15.7471 11.134 16.0183C10.7343 16.5568 10.665 17.2215 10.6667 17.8997C10.6667 17.8997 10.6725 18.4539 10.8055 19.5267C10.9161 20.3567 11.8126 26.155 12.6643 27.9184C12.9944 28.6045 13.2144 28.8903 13.863 29.1927C15.3083 29.8139 18.6096 30.5051 20.1569 30.703C20.4128 30.7358 20.6529 30.7747 20.8781 30.8112C22.0118 30.9947 22.7664 31.1169 23.2484 30.1024C23.2503 30.0994 23.3641 29.7998 23.5206 29.3604C24.0221 27.8346 24.092 26.4807 24.092 25.5011C24.092 25.4015 24.2376 25.3969 24.2376 25.5011C24.2376 25.5396 24.2372 25.5835 24.2367 25.6323C24.229 26.4596 24.2085 28.6769 25.9476 29.2971C26.6746 29.5559 28.1828 29.7867 29.7152 29.967C31.1008 30.1269 32.1064 30.6743 32.1064 34.2434C32.1064 36.4148 31.6522 36.7125 29.2773 36.7125L29.1007 36.7126C27.3072 36.7141 26.6185 36.7146 26.6185 35.2271C26.6185 34.0918 27.6417 34.1039 28.5097 34.1142C28.5905 34.1152 28.6699 34.1161 28.7471 34.1161C29.0018 34.1161 28.9799 33.9964 28.9286 33.7168C28.8984 33.5521 28.8581 33.332 28.8581 33.0483C28.8581 32.7254 28.9433 32.4603 29.0074 32.2612C29.0944 31.9905 29.1423 31.8417 28.8838 31.8352C25.7507 31.7487 23.9072 31.8316 23.9072 35.7655C23.9072 39.3368 25.2685 40 29.7152 40C33.2017 40 34.4307 39.8854 35.8703 35.4009C36.1552 34.5156 36.8441 31.8139 37.2611 27.2777C37.5245 24.4095 37.0125 15.7527 36.6062 13.5678ZM30.5286 23.1363C30.0979 23.1212 29.6836 23.1485 29.2973 23.2108C29.406 22.3292 29.7684 21.2475 31.0524 21.2928C32.4737 21.3419 32.6728 22.6905 32.6779 23.604C32.0786 23.3358 31.3367 23.1648 30.5286 23.1363ZM13.33 14.1979C12.5954 14.1979 11.9816 14.3236 11.4755 14.5529C11.4524 14.563 11.2908 14.6432 11.1709 14.7028L11.1676 14.7044C11.1709 14.692 11.178 14.6798 11.1894 14.6704L17.0016 8.88383C17.0129 8.87242 17.0244 8.86679 17.0359 8.86486L16.9336 9.05775C16.7195 9.48721 16.5966 9.99979 16.5966 10.5877V10.5961C16.5966 11.2848 16.6302 13.694 16.6328 13.876L16.6329 13.8869C16.6325 14.0577 16.4947 14.1979 16.3233 14.1979H13.33Z" fill="#20C05C"/>
</svg>
