<svg width="48" height="48" viewBox="0 0 48 48" fill="none" xmlns="http://www.w3.org/2000/svg">
<path d="M41.918 17.4158C41.0781 15.3895 39.3756 13.2019 38.0392 12.5109C39.127 14.6485 39.7562 16.7925 39.9967 18.3923C39.9967 18.3923 39.9967 18.4036 40.0007 18.4246C37.8147 12.9624 34.1073 10.7595 31.0797 5.96423C30.926 5.72233 30.7731 5.48043 30.6235 5.2216C30.539 5.07565 30.4706 4.94341 30.4111 4.81843C30.2856 4.57597 30.1887 4.31971 30.1222 4.05483C30.1227 4.04225 30.1186 4.02992 30.1106 4.02024C30.1025 4.01055 30.0912 4.0042 30.0788 4.00242C30.0669 3.99919 30.0544 3.99919 30.0426 4.00242C30.0394 4.00388 30.0364 4.00578 30.0337 4.00806C30.0289 4.00806 30.0241 4.0137 30.0192 4.01532L30.0273 4.00483C25.1701 6.85604 23.5223 12.1303 23.371 14.7694C21.4301 14.9025 19.5742 15.6187 18.0456 16.8248C17.8858 16.6894 17.7187 16.5629 17.5451 16.4458C17.1046 14.9003 17.086 13.2646 17.4912 11.7094C15.5048 12.6165 13.96 14.0478 12.8368 15.3145H12.8279C12.0612 14.3413 12.1151 11.1312 12.1585 10.4612C12.1497 10.4192 11.5873 10.7539 11.5149 10.8047C10.8383 11.2884 10.2058 11.8313 9.62494 12.427C8.96391 13.0987 8.35999 13.8245 7.81948 14.5969C6.57594 16.3631 5.69403 18.3588 5.22474 20.4686C5.21589 20.5106 5.20784 20.5541 5.19899 20.5968C5.16279 20.767 5.03164 21.6209 5.00831 21.8063V21.8491C4.83734 22.7314 4.73086 23.625 4.6897 24.5229V24.6221C4.6897 35.3238 13.3469 44 24.0252 44C33.5891 44 41.5294 37.0413 43.0847 27.9006C43.1169 27.6531 43.1434 27.4031 43.1724 27.1532C43.5569 23.8294 43.1297 20.3364 41.918 17.4158ZM19.6314 32.5847C19.7215 32.6274 19.8068 32.675 19.8993 32.7169L19.9122 32.725C19.8197 32.6798 19.7255 32.633 19.6322 32.5847H19.6314ZM40.0024 18.4334V18.4149V18.4359V18.4334Z" fill="url(#paint0_linear_1108_170825)"/>
<path d="M41.9179 17.4158C41.078 15.3895 39.3755 13.2019 38.0391 12.5109C39.1269 14.6485 39.7561 16.7925 39.9966 18.3923V18.4318C41.8214 23.3892 40.8269 28.4304 39.3948 31.5106C37.179 36.276 31.8149 41.1608 23.4176 40.923C14.3525 40.6649 6.3607 33.9151 4.86822 25.0817C4.59627 23.6875 4.86822 22.9803 5.00499 21.8491C4.83845 22.7207 4.77489 22.9731 4.69202 24.5229V24.6221C4.69202 35.3238 13.3492 44 24.0275 44C33.5914 44 41.5317 37.0413 43.087 27.9006C43.1192 27.6531 43.1457 27.4031 43.1747 27.1531C43.5569 23.8294 43.1296 20.3364 41.9179 17.4158Z" fill="url(#paint1_radial_1108_170825)"/>
<path d="M41.9179 17.4158C41.078 15.3895 39.3755 13.2019 38.0391 12.5109C39.1269 14.6485 39.7561 16.7925 39.9966 18.3923V18.4318C41.8214 23.3892 40.8269 28.4304 39.3948 31.5106C37.179 36.276 31.8149 41.1608 23.4176 40.923C14.3525 40.6649 6.3607 33.9151 4.86822 25.0817C4.59627 23.6875 4.86822 22.9803 5.00499 21.8491C4.83845 22.7207 4.77489 22.9731 4.69202 24.5229V24.6221C4.69202 35.3238 13.3492 44 24.0275 44C33.5914 44 41.5317 37.0413 43.087 27.9006C43.1192 27.6531 43.1457 27.4031 43.1747 27.1531C43.5569 23.8294 43.1296 20.3364 41.9179 17.4158Z" fill="url(#paint2_radial_1108_170825)"/>
<path d="M32.5216 19.693C32.5642 19.7228 32.602 19.7527 32.6423 19.7825C32.157 18.9189 31.5524 18.1285 30.8464 17.4344C24.8363 11.4111 29.2711 4.37338 30.0185 4.01537L30.0266 4.00488C25.1694 6.85609 23.5216 12.1303 23.3704 14.7695C23.5956 14.7542 23.8201 14.7348 24.0494 14.7348C27.674 14.7348 30.8312 16.7329 32.5216 19.693Z" fill="url(#paint3_radial_1108_170825)"/>
<path d="M24.0614 20.8961C24.03 21.3799 22.3308 23.0409 21.7362 23.0409C16.2377 23.0409 15.3455 26.3743 15.3455 26.3743C15.5868 29.182 17.5387 31.4938 19.9001 32.717C20.008 32.7726 20.1166 32.8226 20.222 32.8726C20.411 32.9532 20.6009 33.0339 20.79 33.1056C21.5998 33.3919 22.4479 33.555 23.3059 33.5894C32.9431 34.0426 34.8113 22.0411 27.8557 18.5561C29.6363 18.2456 31.4852 18.9641 32.5174 19.6906C30.8278 16.7305 27.6699 14.7324 24.0453 14.7324C23.816 14.7324 23.5915 14.7518 23.3662 14.7671C21.4267 14.9018 19.5726 15.6188 18.0456 16.8249C18.3409 17.0756 18.674 17.4095 19.3748 18.1013C20.6894 19.4011 24.0541 20.7388 24.0614 20.8961Z" fill="url(#paint4_radial_1108_170825)"/>
<path d="M24.0614 20.8961C24.03 21.3799 22.3308 23.0409 21.7362 23.0409C16.2377 23.0409 15.3455 26.3743 15.3455 26.3743C15.5868 29.182 17.5387 31.4938 19.9001 32.717C20.008 32.7726 20.1166 32.8226 20.222 32.8726C20.411 32.9532 20.6009 33.0339 20.79 33.1056C21.5998 33.3919 22.4479 33.555 23.3059 33.5894C32.9431 34.0426 34.8113 22.0411 27.8557 18.5561C29.6363 18.2456 31.4852 18.9641 32.5174 19.6906C30.8278 16.7305 27.6699 14.7324 24.0453 14.7324C23.816 14.7324 23.5915 14.7518 23.3662 14.7671C21.4267 14.9018 19.5726 15.6188 18.0456 16.8249C18.3409 17.0756 18.674 17.4095 19.3748 18.1013C20.6894 19.4011 24.0541 20.7388 24.0614 20.8961Z" fill="url(#paint5_radial_1108_170825)"/>
<path d="M17.1469 16.1806C17.3038 16.2822 17.4325 16.3677 17.5492 16.4459C17.1086 14.9004 17.09 13.2647 17.4953 11.7095C15.5088 12.6166 13.964 14.0479 12.8408 15.3146C12.9317 15.3122 15.7365 15.2614 17.1469 16.1806Z" fill="url(#paint6_radial_1108_170825)"/>
<path d="M4.86882 25.0816C6.3613 33.915 14.3531 40.6649 23.4247 40.9229C31.822 41.1607 37.1828 36.276 39.4018 31.5105C40.834 28.4295 41.8284 23.3891 40.0037 18.4317V18.3946C40.0037 18.3995 40.0037 18.4059 40.0077 18.4269C40.6932 22.9158 38.4154 27.2643 34.8544 30.205C34.8507 30.2133 34.8472 30.2216 34.8439 30.23C27.9045 35.8929 21.2644 33.6465 19.9199 32.7297C19.8266 32.6845 19.7325 32.6378 19.6391 32.5894C15.593 30.6542 13.9219 26.9571 14.2799 23.789C10.8645 23.789 9.69947 20.9007 9.69947 20.9007C9.69947 20.9007 12.7665 18.7091 16.8087 20.6153C20.5523 22.3812 24.0683 20.9015 24.0683 20.9007C24.0611 20.7435 20.6964 19.4017 19.3841 18.106C18.6833 17.4141 18.3502 17.0803 18.0549 16.8295C17.8952 16.6941 17.7281 16.5676 17.5545 16.4505C17.4394 16.3699 17.3131 16.2893 17.1522 16.1853C15.7418 15.266 12.9371 15.3168 12.8445 15.3193H12.8357C12.0689 14.346 12.1228 11.136 12.1663 10.4659C12.1574 10.424 11.595 10.7586 11.5226 10.8094C10.846 11.2931 10.2136 11.836 9.63269 12.4318C8.97166 13.1034 8.36774 13.8292 7.82723 14.6016C6.58368 16.3678 5.70178 18.3635 5.23249 20.4734C5.2172 20.5104 4.52929 23.5205 4.86882 25.0816Z" fill="url(#paint7_radial_1108_170825)"/>
<path d="M30.8463 17.4344C31.5523 18.1284 32.1569 18.9189 32.6421 19.7824C32.7427 19.8581 32.8394 19.9389 32.9318 20.0243C37.3151 24.0689 35.022 29.7947 34.8475 30.206C38.4085 27.2653 40.6862 22.9167 40.0007 18.4278C37.8147 12.9624 34.1073 10.7595 31.0796 5.96423C30.926 5.72233 30.7731 5.48043 30.6235 5.2216C30.539 5.07565 30.4706 4.94341 30.411 4.81843C30.2856 4.57597 30.1887 4.31971 30.1222 4.05483C30.1227 4.04225 30.1186 4.02992 30.1106 4.02024C30.1025 4.01055 30.0912 4.0042 30.0788 4.00242C30.0669 3.99919 30.0544 3.99919 30.0426 4.00242C30.0394 4.00388 30.0364 4.00578 30.0337 4.00806C30.0289 4.00806 30.0241 4.0137 30.0192 4.01532C29.271 4.37333 24.8362 11.411 30.8463 17.4344Z" fill="url(#paint8_radial_1108_170825)"/>
<path d="M32.9302 20.0203C32.8378 19.9348 32.7411 19.8541 32.6406 19.7784C32.6011 19.7486 32.5601 19.7187 32.5199 19.6889C31.4876 18.9632 29.6387 18.244 27.8582 18.5544C34.8129 22.0394 32.9455 34.0409 23.3083 33.5877C22.4503 33.5533 21.6023 33.3902 20.7924 33.1039C20.6034 33.033 20.4135 32.9548 20.2244 32.8709C20.115 32.8209 20.0064 32.7709 19.9026 32.7153L19.9155 32.7234C21.2599 33.6426 27.9 35.889 34.8394 30.2237C34.8394 30.2237 34.8435 30.2132 34.8499 30.1987C35.0221 29.7947 37.3151 24.0689 32.9302 20.0203Z" fill="url(#paint9_radial_1108_170825)"/>
<path d="M15.3453 26.3743C15.3453 26.3743 16.2376 23.0409 21.736 23.0409C22.3306 23.0409 24.0299 21.3782 24.0612 20.896C24.0926 20.4138 20.5453 22.3765 16.8016 20.6106C12.7594 18.7044 9.69238 20.896 9.69238 20.896C9.69238 20.896 10.8574 23.7843 14.2728 23.7843C13.9148 26.9524 15.5859 30.6463 19.6321 32.5847C19.7222 32.6274 19.8075 32.675 19.9 32.7169C17.5386 31.4961 15.5891 29.1819 15.3453 26.3743Z" fill="url(#paint10_radial_1108_170825)"/>
<path d="M41.918 17.4158C41.0781 15.3895 39.3756 13.2019 38.0392 12.5109C39.127 14.6485 39.7562 16.7925 39.9967 18.3923C39.9967 18.3923 39.9967 18.4036 40.0007 18.4246C37.8147 12.9624 34.1073 10.7595 31.0797 5.96423C30.926 5.72233 30.7731 5.48043 30.6235 5.2216C30.539 5.07565 30.4706 4.94341 30.4111 4.81843C30.2856 4.57597 30.1887 4.31971 30.1222 4.05483C30.1227 4.04225 30.1186 4.02992 30.1106 4.02024C30.1025 4.01055 30.0912 4.0042 30.0788 4.00242C30.0669 3.99919 30.0544 3.99919 30.0426 4.00242C30.0394 4.00388 30.0364 4.00578 30.0337 4.00806C30.0289 4.00806 30.0241 4.0137 30.0192 4.01532L30.0273 4.00483C25.1701 6.85604 23.5223 12.1303 23.371 14.7694C23.5963 14.7541 23.8208 14.7348 24.0501 14.7348C27.6747 14.7348 30.8318 16.7329 32.5222 19.6929C31.49 18.9672 29.6411 18.248 27.8606 18.5584C34.8153 22.0434 32.9479 34.0449 23.3107 33.5918C22.4527 33.5573 21.6046 33.3942 20.7948 33.108C20.6057 33.037 20.4159 32.9588 20.2268 32.8749C20.1174 32.8249 20.0087 32.775 19.905 32.7193L19.9178 32.7274C19.8245 32.6822 19.7304 32.6355 19.637 32.5871C19.7271 32.6298 19.8124 32.6774 19.905 32.7193C17.5387 31.4961 15.5892 29.1819 15.3454 26.3742C15.3454 26.3742 16.2377 23.0408 21.7362 23.0408C22.3307 23.0408 24.03 21.3782 24.0614 20.896C24.0541 20.7388 20.6894 19.397 19.3772 18.1012C18.6764 17.4094 18.3433 17.0756 18.048 16.8248C17.8882 16.6894 17.7212 16.5629 17.5476 16.4458C17.107 14.9003 17.0884 13.2646 17.4937 11.7094C15.5072 12.6165 13.9624 14.0478 12.8392 15.3145H12.8304C12.0636 14.3413 12.1175 11.1312 12.161 10.4612C12.1521 10.4192 11.5897 10.7539 11.5173 10.8047C10.8407 11.2884 10.2082 11.8313 9.62735 12.427C8.96632 13.0987 8.3624 13.8245 7.8219 14.5969C6.57835 16.3631 5.69644 18.3588 5.22715 20.4686C5.2183 20.5106 5.21026 20.5541 5.2014 20.5968C5.1652 20.767 5.00107 21.633 4.97854 21.8184C4.97854 21.8047 4.97854 21.833 4.97854 21.8184C4.82789 22.7133 4.73143 23.6164 4.6897 24.5229V24.6221C4.6897 35.3238 13.3469 44 24.0252 44C33.5891 44 41.5294 37.0413 43.0847 27.9006C43.1169 27.6531 43.1434 27.4031 43.1724 27.1532C43.5569 23.8294 43.1297 20.3364 41.918 17.4158ZM39.9999 18.4109V18.4318V18.4109Z" fill="url(#paint11_linear_1108_170825)"/>
<defs>
<linearGradient id="paint0_linear_1108_170825" x1="39.3587" y1="10.1967" x2="7.19166" y2="41.1638" gradientUnits="userSpaceOnUse">
<stop offset="0.05" stop-color="#FFF44F"/>
<stop offset="0.11" stop-color="#FFE847"/>
<stop offset="0.22" stop-color="#FFC830"/>
<stop offset="0.37" stop-color="#FF980E"/>
<stop offset="0.4" stop-color="#FF8B16"/>
<stop offset="0.46" stop-color="#FF672A"/>
<stop offset="0.53" stop-color="#FF3647"/>
<stop offset="0.7" stop-color="#E31587"/>
</linearGradient>
<radialGradient id="paint1_radial_1108_170825" cx="0" cy="0" r="1" gradientUnits="userSpaceOnUse" gradientTransform="translate(37.875 8.43967) scale(40.3099 40.3983)">
<stop offset="0.13" stop-color="#FFBD4F"/>
<stop offset="0.19" stop-color="#FFAC31"/>
<stop offset="0.25" stop-color="#FF9D17"/>
<stop offset="0.28" stop-color="#FF980E"/>
<stop offset="0.4" stop-color="#FF563B"/>
<stop offset="0.47" stop-color="#FF3750"/>
<stop offset="0.71" stop-color="#F5156C"/>
<stop offset="0.78" stop-color="#EB0878"/>
<stop offset="0.86" stop-color="#E50080"/>
</radialGradient>
<radialGradient id="paint2_radial_1108_170825" cx="0" cy="0" r="1" gradientUnits="userSpaceOnUse" gradientTransform="translate(23.1457 24.9551) scale(40.3099 40.3983)">
<stop offset="0.3" stop-color="#960E18"/>
<stop offset="0.35" stop-color="#B11927" stop-opacity="0.74"/>
<stop offset="0.43" stop-color="#DB293D" stop-opacity="0.34"/>
<stop offset="0.5" stop-color="#F5334B" stop-opacity="0.09"/>
<stop offset="0.53" stop-color="#FF3750" stop-opacity="0"/>
</radialGradient>
<radialGradient id="paint3_radial_1108_170825" cx="0" cy="0" r="1" gradientUnits="userSpaceOnUse" gradientTransform="translate(28.0063 -0.728316) scale(29.2027 29.2668)">
<stop offset="0.13" stop-color="#FFF44F"/>
<stop offset="0.25" stop-color="#FFDC3E"/>
<stop offset="0.51" stop-color="#FF9D12"/>
<stop offset="0.53" stop-color="#FF980E"/>
</radialGradient>
<radialGradient id="paint4_radial_1108_170825" cx="0" cy="0" r="1" gradientUnits="userSpaceOnUse" gradientTransform="translate(18.6877 35.5077) scale(19.1931 19.2352)">
<stop offset="0.35" stop-color="#3A8EE6"/>
<stop offset="0.47" stop-color="#5C79F0"/>
<stop offset="0.67" stop-color="#9059FF"/>
<stop offset="1" stop-color="#C139E6"/>
</radialGradient>
<radialGradient id="paint5_radial_1108_170825" cx="0" cy="0" r="1" gradientUnits="userSpaceOnUse" gradientTransform="translate(23.7247 20.154) rotate(-13.9265) scale(10.1699 11.9704)">
<stop offset="0.21" stop-color="#9059FF" stop-opacity="0"/>
<stop offset="0.28" stop-color="#8C4FF3" stop-opacity="0.06"/>
<stop offset="0.75" stop-color="#7716A8" stop-opacity="0.45"/>
<stop offset="0.97" stop-color="#6E008B" stop-opacity="0.6"/>
</radialGradient>
<radialGradient id="paint6_radial_1108_170825" cx="0" cy="0" r="1" gradientUnits="userSpaceOnUse" gradientTransform="translate(22.6365 6.78678) scale(13.8081 13.8384)">
<stop stop-color="#FFE226"/>
<stop offset="0.12" stop-color="#FFDB27"/>
<stop offset="0.3" stop-color="#FFC82A"/>
<stop offset="0.5" stop-color="#FFA930"/>
<stop offset="0.73" stop-color="#FF7E37"/>
<stop offset="0.79" stop-color="#FF7139"/>
</radialGradient>
<radialGradient id="paint7_radial_1108_170825" cx="0" cy="0" r="1" gradientUnits="userSpaceOnUse" gradientTransform="translate(33.4907 -1.99039) scale(58.9115 59.0408)">
<stop offset="0.11" stop-color="#FFF44F"/>
<stop offset="0.46" stop-color="#FF980E"/>
<stop offset="0.62" stop-color="#FF5634"/>
<stop offset="0.72" stop-color="#FF3647"/>
<stop offset="0.9" stop-color="#E31587"/>
</radialGradient>
<radialGradient id="paint8_radial_1108_170825" cx="0" cy="0" r="1" gradientUnits="userSpaceOnUse" gradientTransform="translate(27.7957 4.46034) rotate(84.2447) scale(43.034 28.2128)">
<stop stop-color="#FFF44F"/>
<stop offset="0.06" stop-color="#FFE847"/>
<stop offset="0.17" stop-color="#FFC830"/>
<stop offset="0.3" stop-color="#FF980E"/>
<stop offset="0.36" stop-color="#FF8B16"/>
<stop offset="0.45" stop-color="#FF672A"/>
<stop offset="0.57" stop-color="#FF3647"/>
<stop offset="0.74" stop-color="#E31587"/>
</radialGradient>
<radialGradient id="paint9_radial_1108_170825" cx="0" cy="0" r="1" gradientUnits="userSpaceOnUse" gradientTransform="translate(22.3115 11.9118) scale(36.7785 36.8593)">
<stop offset="0.14" stop-color="#FFF44F"/>
<stop offset="0.48" stop-color="#FF980E"/>
<stop offset="0.59" stop-color="#FF5634"/>
<stop offset="0.66" stop-color="#FF3647"/>
<stop offset="0.9" stop-color="#E31587"/>
</radialGradient>
<radialGradient id="paint10_radial_1108_170825" cx="0" cy="0" r="1" gradientUnits="userSpaceOnUse" gradientTransform="translate(32.0201 14.0696) scale(40.2543 40.3427)">
<stop offset="0.09" stop-color="#FFF44F"/>
<stop offset="0.23" stop-color="#FFE141"/>
<stop offset="0.51" stop-color="#FFAF1E"/>
<stop offset="0.63" stop-color="#FF980E"/>
</radialGradient>
<linearGradient id="paint11_linear_1108_170825" x1="38.9725" y1="10.0306" x2="11.6006" y2="37.3433" gradientUnits="userSpaceOnUse">
<stop offset="0.17" stop-color="#FFF44F" stop-opacity="0.8"/>
<stop offset="0.27" stop-color="#FFF44F" stop-opacity="0.63"/>
<stop offset="0.49" stop-color="#FFF44F" stop-opacity="0.22"/>
<stop offset="0.6" stop-color="#FFF44F" stop-opacity="0"/>
</linearGradient>
</defs>
</svg>
