<svg width="48" height="48" viewBox="0 0 48 48" fill="none" xmlns="http://www.w3.org/2000/svg">
<path d="M33.5847 20.5605C33.5013 21.1348 33.1227 21.915 32.6883 22.5933C32.1402 23.4491 31.2704 24.0486 30.275 24.2567L25.89 25.1736C25.1853 25.321 24.5462 25.6899 24.0664 26.2262L21.1912 29.44C20.6509 30.044 20.2732 29.8999 20.2732 29.0899C20.2667 29.1199 18.8463 32.783 22.6105 34.9542C24.0568 35.7884 26.1388 35.4887 27.5851 34.6544L35.2485 30.2341C38.1145 28.581 40.138 25.7845 40.8106 22.5473C40.8372 22.4192 40.8578 22.2907 40.8799 22.1623L33.5847 20.5605Z" fill="url(#paint0_linear_1138_167043)"/>
<path d="M31.5976 16.1453C33.0439 16.9796 33.6349 18.2216 33.6348 19.8901C33.6348 20.1166 33.617 20.3404 33.585 20.5607L36.6728 21.8871L40.8803 22.1625C41.419 19.0445 40.3632 15.8351 38.4705 13.2841C37.0461 11.3643 35.2132 9.69835 33.0098 8.42737C31.2198 7.39493 29.3597 6.71469 27.4909 6.34143L25.3912 9.06058L24.7279 12.1829L31.5976 16.1453Z" fill="url(#paint1_linear_1138_167043)"/>
<path d="M6.88164 18.4334C6.88085 18.4358 6.88303 18.4365 6.88385 18.4341C7.04587 17.9481 7.24905 17.4059 7.50269 16.8267C8.82762 13.8011 11.3808 11.7832 14.5219 10.7544C17.663 9.72553 21.0926 10.0862 23.9554 11.7374L24.7276 12.1828L27.4906 6.34134C18.7025 4.58613 9.7208 9.74913 6.89281 18.3995C6.89146 18.4036 6.88654 18.4181 6.88164 18.4334Z" fill="url(#paint2_linear_1138_167043)"/>
<path d="M27.2849 34.6545C25.8385 35.4887 24.0566 35.4887 22.6103 34.6545C22.4139 34.5412 22.2288 34.4139 22.0538 34.276L19.5101 36.0249L17.3177 39.5676C19.7512 41.5927 22.9111 42.2438 26.0688 41.8817C28.4451 41.6092 30.8057 40.8564 33.0092 39.5854C34.7992 38.553 36.3188 37.2837 37.5768 35.8534L36.2696 32.6772L34.1545 30.692L27.2849 34.6545Z" fill="url(#paint3_linear_1138_167043)"/>
<path d="M22.0538 34.276C20.9395 33.3982 20.273 32.0519 20.273 30.6099V30.4661V18.4564C20.273 17.7772 20.4731 17.6618 21.0619 18.0014C20.1551 17.4784 18.0603 15.6828 15.4738 17.1747C14.0274 18.009 12.8364 19.8505 12.8364 21.5189V30.3595C12.8364 33.6657 14.5489 37.1145 17.0187 39.315C17.1164 39.4021 17.2176 39.4841 17.3178 39.5675L22.0538 34.276Z" fill="url(#paint4_linear_1138_167043)"/>
<path d="M37.3993 11.9765C37.3975 11.9746 37.3958 11.9761 37.3975 11.978C37.7378 12.3612 38.1062 12.8081 38.4814 13.3171C40.4417 15.9763 41.1741 19.3441 40.4955 22.5763C39.8168 25.8084 37.7893 28.5954 34.9266 30.2466L34.1544 30.692L37.5767 35.8534C43.4923 29.1276 43.5076 18.775 37.423 12.0031C37.4201 11.9998 37.4101 11.9883 37.3993 11.9765Z" fill="url(#paint5_linear_1138_167043)"/>
<path d="M13.1365 21.519C13.1365 19.8505 14.0275 18.3088 15.4738 17.4745C15.6702 17.3613 15.8731 17.2648 16.0801 17.1823L15.836 14.1071L14.121 10.5887C11.1488 11.6816 8.74468 13.9402 7.4797 16.8533C6.52774 19.0456 6.00001 21.4644 6 24.0063C6 26.0712 6.34037 28.0207 6.95123 29.8242L10.3582 30.2813L13.1365 29.4439V21.519Z" fill="url(#paint6_linear_1138_167043)"/>
<path d="M16.0802 17.1824C17.3982 16.6572 18.8985 16.7537 20.1485 17.4747L20.2732 17.5466L30.2806 23.3189C30.9826 23.7238 30.9188 24.1222 30.1253 24.2881L30.7026 24.1674C31.4623 24.0086 32.1563 23.6204 32.687 23.0547C33.5995 22.082 33.9345 20.9085 33.9345 19.89C33.9345 18.2216 33.0436 16.6798 31.5972 15.8456L23.9338 11.4253C21.0679 9.77218 17.6319 9.41969 14.4895 10.4564C14.3652 10.4974 14.2435 10.5439 14.1211 10.5889L16.0802 17.1824Z" fill="url(#paint7_linear_1138_167043)"/>
<path d="M27.7376 41.6093C27.7401 41.6088 27.7396 41.6065 27.7371 41.607C27.2348 41.7098 26.6632 41.8052 26.0343 41.8753C22.7491 42.2418 19.4635 41.1915 17.0011 38.9883C14.5387 36.785 13.1365 33.6374 13.1365 30.3349L13.1365 29.4441L6.95117 29.8244C9.82371 38.3055 18.7901 43.495 27.7026 41.6166C27.7069 41.6157 27.7219 41.6127 27.7376 41.6093Z" fill="url(#paint8_linear_1138_167043)"/>
<defs>
<linearGradient id="paint0_linear_1138_167043" x1="28.5678" y1="32.7413" x2="32.1088" y2="20.4077" gradientUnits="userSpaceOnUse">
<stop stop-color="#1724C9"/>
<stop offset="1" stop-color="#1C64F2"/>
</linearGradient>
<linearGradient id="paint1_linear_1138_167043" x1="36.7237" y1="17.7005" x2="27.409" y2="8.41864" gradientUnits="userSpaceOnUse">
<stop stop-color="#1C64F2"/>
<stop offset="1" stop-color="#0092FF"/>
</linearGradient>
<linearGradient id="paint2_linear_1138_167043" x1="24.1852" y1="11.6488" x2="10.1337" y2="12.5367" gradientUnits="userSpaceOnUse">
<stop stop-color="#0092FF"/>
<stop offset="1" stop-color="#45B2FF"/>
</linearGradient>
<linearGradient id="paint3_linear_1138_167043" x1="23.2347" y1="38.2457" x2="35.8538" y2="34.8406" gradientUnits="userSpaceOnUse">
<stop stop-color="#1C64F2"/>
<stop offset="1" stop-color="#0092FF"/>
</linearGradient>
<linearGradient id="paint4_linear_1138_167043" x1="14.1773" y1="23.6431" x2="23.1365" y2="32.9266" gradientUnits="userSpaceOnUse">
<stop stop-color="#1724C9"/>
<stop offset="1" stop-color="#1C64F2"/>
</linearGradient>
<linearGradient id="paint5_linear_1138_167043" x1="34.6317" y1="30.3403" x2="40.8828" y2="17.7389" gradientUnits="userSpaceOnUse">
<stop stop-color="#0092FF"/>
<stop offset="1" stop-color="#45B2FF"/>
</linearGradient>
<linearGradient id="paint6_linear_1138_167043" x1="12.0344" y1="16.2724" x2="8.68937" y2="28.845" gradientUnits="userSpaceOnUse">
<stop stop-color="#1C64F2"/>
<stop offset="1" stop-color="#0092FF"/>
</linearGradient>
<linearGradient id="paint7_linear_1138_167043" x1="29.1112" y1="15.6745" x2="16.8875" y2="18.7179" gradientUnits="userSpaceOnUse">
<stop stop-color="#1724C9"/>
<stop offset="1" stop-color="#1C64F2"/>
</linearGradient>
<linearGradient id="paint8_linear_1138_167043" x1="13.2076" y1="30.0265" x2="20.9991" y2="41.7468" gradientUnits="userSpaceOnUse">
<stop stop-color="#0092FF"/>
<stop offset="1" stop-color="#45B2FF"/>
</linearGradient>
</defs>
</svg>
