<svg width="48" height="48" viewBox="0 0 48 48" fill="none" xmlns="http://www.w3.org/2000/svg">
<path d="M37.8684 40C39.0384 40 39.9968 39.0576 39.9968 37.9036V16.5201C39.9968 15.3661 39.0384 14.4237 37.8684 14.4237H17.0939L25.4312 40H37.8684Z" fill="#DBDBDB"/>
<path d="M37.8684 15.3853C38.1793 15.3853 38.4742 15.5071 38.6954 15.7251C38.9134 15.9399 39.0352 16.222 39.0352 16.5201V37.9036C39.0352 38.2017 38.9166 38.4838 38.6954 38.6986C38.4742 38.9165 38.1793 39.0384 37.8684 39.0384H26.13L18.4177 15.3853H37.8684ZM37.8684 14.4237H17.0939L25.4312 40H37.8684C39.0384 40 39.9968 39.0576 39.9968 37.9036V16.5201C39.9968 15.3661 39.0384 14.4237 37.8684 14.4237Z" fill="#DCDCDC"/>
<path d="M23.463 33.9578L25.4312 40L30.9029 33.9578H23.463Z" fill="#4352B8"/>
<path d="M38.0093 23.2611V22.0078H31.9671V19.9819H30.0053V22.0078H26.1492V23.2611H33.823C33.4127 24.7068 32.5056 26.0723 31.6209 27.1333C30.0534 25.2773 30.047 24.6747 30.047 24.6747H28.4186C28.4186 24.6747 28.4859 25.5786 30.6849 28.1558C29.9701 28.8867 29.4283 29.3194 29.4283 29.3194L29.9284 30.8837C29.9284 30.8837 30.6849 30.233 31.6305 29.2297C32.5793 30.2586 33.8038 31.4959 35.3873 32.9704L36.4162 31.9415C34.7205 30.4029 33.4768 29.1816 32.5633 28.2007C33.7878 26.7518 35.0315 24.9279 35.2943 23.2579H38.0061V23.2611H38.0093Z" fill="#607988"/>
<path d="M10.1316 8C8.9616 8 8.00317 8.95843 8.00317 10.1316V31.8325C8.00317 33.0025 8.9616 33.9609 10.1316 33.9609H30.9061L22.5687 8H10.1316Z" fill="#4285F4"/>
<path d="M25.1299 14.4237H37.8683C39.0383 14.4237 39.9968 15.3661 39.9968 16.5201V29.3483L25.1299 14.4237Z" fill="url(#paint0_linear_1108_171013)"/>
<path d="M19.9082 21.8026C19.8281 22.7739 18.9979 24.2131 16.988 24.2131C15.2475 24.2131 13.8371 22.7739 13.8371 21.0013C13.8371 19.2287 15.2475 17.7894 16.988 17.7894C17.9785 17.7894 18.6389 18.2189 19.0171 18.5683L20.3377 17.299C19.4691 16.4976 18.3375 15.9976 16.988 15.9976C14.2282 15.9976 11.9875 18.2382 11.9875 20.9981C11.9875 23.758 14.2282 25.9986 16.988 25.9986C19.8794 25.9986 21.7898 23.9695 21.7898 21.107C21.7898 20.6967 21.7385 20.3954 21.6712 20.0877H16.9913V21.7994L19.9082 21.8026Z" fill="#EEEEEE"/>
<path d="M37.8683 14.4237H24.633L22.5687 8H10.1316C8.9616 8 8.00317 8.95843 8.00317 10.1316V31.8325C8.00317 33.0025 8.9616 33.9609 10.1316 33.9609H23.4631L25.4312 40H37.8683C39.0383 40 39.9968 39.0576 39.9968 37.9036V16.5201C39.9968 15.3661 39.0383 14.4237 37.8683 14.4237Z" fill="url(#paint1_radial_1108_171013)"/>
<defs>
<linearGradient id="paint0_linear_1108_171013" x1="25.1299" y1="21.886" x2="39.9968" y2="21.886" gradientUnits="userSpaceOnUse">
<stop stop-color="white" stop-opacity="0.2"/>
<stop offset="1" stop-color="white" stop-opacity="0.02"/>
</linearGradient>
<radialGradient id="paint1_radial_1108_171013" cx="0" cy="0" r="1" gradientUnits="userSpaceOnUse" gradientTransform="translate(10.0934 8.62077) scale(44.8209 44.8209)">
<stop stop-color="white" stop-opacity="0.1"/>
<stop offset="1" stop-color="white" stop-opacity="0"/>
</radialGradient>
</defs>
</svg>
