<svg width="48" height="48" viewBox="0 0 48 48" fill="none" xmlns="http://www.w3.org/2000/svg">
<path d="M33.4737 14.5262H14.5264V33.4736H33.4737V14.5262Z" fill="white"/>
<path d="M33.4737 41.9999L42 33.4736L37.7368 32.7462L33.4737 33.4736L32.6956 37.3731L33.4737 41.9999Z" fill="#EA4335"/>
<path d="M6 33.4736V39.1578C6 40.7281 7.27184 41.9999 8.84211 41.9999H14.5263L15.4017 37.7367L14.5263 33.4736L9.88114 32.7462L6 33.4736Z" fill="#188038"/>
<path d="M42 14.5263V8.84211C42 7.27184 40.7281 6 39.1579 6H33.4737C32.9549 8.11442 32.6956 9.67047 32.6956 10.6681C32.6956 11.6658 32.9549 12.9519 33.4737 14.5263C35.3594 15.0663 36.7804 15.3363 37.7368 15.3363C38.6932 15.3363 40.1143 15.0663 42 14.5263Z" fill="#1967D2"/>
<path d="M41.9999 14.5262H33.4736V33.4736H41.9999V14.5262Z" fill="#FBBC04"/>
<path d="M33.4737 33.4738H14.5264V42.0001H33.4737V33.4738Z" fill="#34A853"/>
<path d="M33.4737 6H8.84211C7.27184 6 6 7.27184 6 8.84211V33.4737H14.5263V14.5263H33.4737V6Z" fill="#4285F4"/>
<path d="M18.413 29.2246C17.7048 28.7462 17.2145 28.0475 16.9469 27.1238L18.5906 26.4465C18.7398 27.0149 19.0003 27.4554 19.3722 27.768C19.7416 28.0807 20.1916 28.2346 20.7174 28.2346C21.2551 28.2346 21.7169 28.0712 22.103 27.7443C22.489 27.4175 22.6832 27.0007 22.6832 26.4962C22.6832 25.9799 22.4795 25.5583 22.0722 25.2315C21.6648 24.9046 21.1532 24.7412 20.5422 24.7412H19.5924V23.1141H20.4451C20.9708 23.1141 21.4137 22.972 21.7737 22.6878C22.1337 22.4036 22.3137 22.0151 22.3137 21.5201C22.3137 21.0796 22.1527 20.7291 21.8306 20.4662C21.5085 20.2033 21.1011 20.0707 20.6061 20.0707C20.123 20.0707 19.7393 20.1986 19.4551 20.4567C19.171 20.7156 18.9575 21.0424 18.8345 21.4065L17.2074 20.7291C17.423 20.118 17.8185 19.578 18.3987 19.1115C18.979 18.6449 19.7203 18.4104 20.6203 18.4104C21.2858 18.4104 21.8851 18.5383 22.4156 18.7965C22.9461 19.0546 23.363 19.4122 23.6637 19.867C23.9645 20.3241 24.1137 20.8357 24.1137 21.4041C24.1137 21.9843 23.974 22.4746 23.6945 22.8772C23.4151 23.2799 23.0716 23.5878 22.6643 23.8033V23.9004C23.1903 24.1173 23.6472 24.4735 23.9858 24.9307C24.3293 25.3925 24.5022 25.9443 24.5022 26.5886C24.5022 27.2328 24.3387 27.8083 24.0119 28.3128C23.6851 28.8172 23.2327 29.2151 22.6595 29.5041C22.084 29.793 21.4374 29.9399 20.7198 29.9399C19.8885 29.9422 19.1211 29.703 18.413 29.2246ZM28.5095 21.0678L26.7048 22.3728L25.8024 21.0038L29.0401 18.6686H30.2811V29.6841H28.5095V21.0678Z" fill="#4285F4"/>
</svg>
