<svg width="48" height="48" viewBox="0 0 48 48" fill="none" xmlns="http://www.w3.org/2000/svg">
<path fill-rule="evenodd" clip-rule="evenodd" d="M32.9375 5.06265L32.9389 5.06095L32.9463 5.05322L32.9454 5.05249C33.041 4.91644 32.8713 4.5947 32.5573 4.32261C32.2352 4.04371 31.883 3.92244 31.7706 4.05181L27.0479 9.05193L26.1126 12.856C25.4349 12.833 24.7277 12.8208 24.0001 12.8208C19.0262 12.8208 14.994 13.3877 14.994 14.0868C14.994 14.7859 19.0262 15.3527 24.0001 15.3527C28.9739 15.3527 33.006 14.7859 33.006 14.0868C33.006 13.572 30.8191 13.1288 27.6799 12.9311L28.4854 9.74707L32.9277 5.07275C32.9311 5.06957 32.9344 5.06621 32.9375 5.06265ZM26.5237 14.7556C27.0369 14.7534 27.2114 14.7143 27.2114 14.7143L27.2204 14.7131C27.3721 14.6926 27.5969 14.6622 27.5978 14.4821C27.598 14.3741 27.5072 14.3116 27.4031 14.2793L27.3257 14.4004C27.3896 14.4156 27.4263 14.435 27.4263 14.4556C27.4259 14.5236 26.9405 14.5567 26.5387 14.5617C26.1371 14.5668 25.6119 14.5195 25.6122 14.4505C25.6123 14.4358 25.6316 14.422 25.6654 14.4103L25.5877 14.2884C25.5055 14.3219 25.441 14.3755 25.4406 14.4663C25.4404 14.5141 25.4617 14.5846 25.5007 14.6201C25.6459 14.7523 26.0104 14.7578 26.5237 14.7556Z" fill="#D34A47"/>
<path d="M28.8906 42.7941L29.2743 36.3992L30.334 34.5903C30.334 34.5903 27.9222 35.577 23.8844 35.577C19.8465 35.577 17.4712 34.6086 17.4712 34.6086L18.6588 36.5818L19.0789 42.7941C19.0789 43.4601 21.2753 44 23.9848 44C26.6941 44 28.8906 43.4601 28.8906 42.7941Z" fill="#D34A47"/>
<path d="M29.8739 25.3414C29.3448 25.8688 28.6158 26.5954 28.676 27.1743C28.8075 28.4395 30.8618 27.3171 31.5109 26.685L30.7176 33.8172C30.7176 33.8172 28.9566 35.138 23.8412 35.138C18.7258 35.138 17.0277 33.7963 17.0277 33.7963L16.3888 27.6385C17.4643 28.166 18.3345 27.3003 18.885 26.7526C18.9641 26.6739 19.0366 26.6018 19.1022 26.5413C19.1128 26.6473 19.0254 26.9145 18.921 27.2336C18.7026 27.9014 18.41 28.7961 18.7857 28.915C19.214 29.0506 19.4505 28.1722 19.7395 27.0986C19.8252 26.7804 19.9155 26.445 20.0167 26.1138C20.0826 25.8985 20.1539 25.6784 20.2244 25.4606C20.5769 24.373 20.9117 23.3395 20.4585 23.2159C20.0774 23.1119 19.8808 23.7751 19.7117 24.3456C19.6395 24.5893 19.5723 24.816 19.4978 24.9588C19.1447 25.6364 17.0575 27.9185 16.8077 26.2249C16.6116 24.8965 18.0957 22.232 18.7857 21.5566C19.1317 21.2179 19.6671 20.9053 20.0517 21.0027C20.3173 21.07 20.4619 21.3321 20.5958 21.575C20.7306 21.8194 20.8546 22.0442 21.0803 22.0313C22.1435 21.9707 20.9023 20.1804 19.9725 20.1324C17.9286 20.027 16.6319 23.1663 16.0858 24.7183L15.057 14.8022C15.057 14.8022 16.1472 15.7875 23.8831 15.7875C31.6191 15.7875 32.835 14.7812 32.835 14.7812L31.6266 25.6451C31.1876 26.2372 30.1594 26.8884 29.5247 26.9709C29.2813 27.0026 29.494 26.7903 29.8331 26.4519C30.4006 25.8856 31.3219 24.9661 31.0497 24.2467C30.6825 23.2762 29.1617 24.2561 28.7551 24.7215C28.8553 24.4297 28.9246 24.0467 28.5114 24.0212C28.301 24.0083 28.2051 24.3119 28.0798 24.7088C27.9591 25.0911 27.8111 25.56 27.507 25.9159C26.9822 26.53 26.6655 26.6336 26.1965 26.787C26.1116 26.8148 26.0216 26.8442 25.9246 26.8786C25.3473 27.0831 26.4129 24.6373 27.1937 22.8453C27.269 22.6724 27.3417 22.5056 27.41 22.3478C27.5754 21.9658 27.9554 20.941 27.4943 20.789C27.1466 20.6743 26.7203 21.7818 26.2433 23.0209C26.0879 23.4248 25.927 23.8426 25.7618 24.2367C25.3775 25.1531 25.2356 25.7035 25.1468 26.0477C25.0802 26.3057 25.0436 26.4479 24.9572 26.5413C24.6455 26.8786 24.1331 27.0315 24.0078 26.9369C23.6683 26.6806 24.0109 25.8583 24.3135 25.1319C24.5644 24.5298 24.7878 23.9937 24.5723 23.9006C24.2288 23.7521 23.8255 24.6456 23.5502 25.2556C23.4445 25.4896 23.3578 25.6818 23.3004 25.7577L23.299 25.7595C23.2486 25.8263 22.1641 27.2658 21.7624 26.9603C21.525 26.7798 21.8803 25.8978 22.1879 25.1962C22.2122 25.1409 22.2483 25.0705 22.2892 24.991C22.4837 24.6119 22.7848 24.025 22.4175 23.8748C21.9732 23.693 20.1863 27.2967 21.3176 27.7282C22.1791 28.0568 22.8968 27.266 23.2166 26.6995C23.0717 28.0405 24.3561 27.7639 24.9572 27.2534C25.3162 28.2672 26.6684 27.2678 27.1255 26.9301C27.1443 26.9161 27.1617 26.9033 27.1774 26.8918C27.0602 27.2838 26.8403 27.7674 26.6228 28.2458C26.2037 29.1675 25.7934 30.0698 26.144 30.2601C26.5969 30.5059 27.2517 28.8453 27.5838 28.0033C27.6424 27.8547 27.6909 27.7317 27.7265 27.649C28.3743 26.1457 29.0152 24.7104 30.3027 24.6368C30.5605 24.6571 30.2745 24.9422 29.8739 25.3414Z" fill="#D34A47"/>
</svg>
