<svg width="48" height="48" viewBox="0 0 48 48" fill="none" xmlns="http://www.w3.org/2000/svg">
<path d="M38.1693 11.861L35.5876 40.7828L23.9826 44L12.4097 40.7873L9.83069 11.861H38.1693Z" fill="#E44D26"/>
<path d="M24 41.5408L33.3773 38.9411L35.5836 14.2261H24V41.5408Z" fill="#F16529"/>
<path d="M23.9999 21.3215H18.9812L19.3054 24.9544H23.9999V28.5021H16.0609L15.104 17.7738H23.9999V21.3215Z" fill="#EBEBEB"/>
<path d="M16.2195 30.276H19.7808L20.0334 33.1055L23.9845 34.1723L24 34.1682V37.8593L23.9837 37.8638L16.7165 35.8464L16.2195 30.276Z" fill="#EBEBEB"/>
<path d="M14.2702 4H12.4674V9.39406H14.2703V7.58781H15.9195V9.39406H17.7224V4H15.9194V5.78125H14.2702V4Z" fill="black"/>
<path d="M18.5061 5.78875H20.0933L20.0933 9.39406H21.8963V5.78875H23.4842V4H18.5061V5.78875Z" fill="black"/>
<path d="M24.2743 4H26.1542L27.3106 5.89531L28.4658 4H30.3465V9.39406H28.551V6.72047L27.3106 8.63836H27.2796L26.0383 6.72047V9.39406H24.2743V4Z" fill="black"/>
<path d="M33.0472 4H31.2437V9.39406H35.5826V7.61109H33.0472V4Z" fill="black"/>
<path d="M23.9877 21.3215V17.7738H32.8747L32.557 21.3215H23.9877Z" fill="white"/>
<path d="M28.3563 28.5021H23.9877V24.9545H32.2342L32.1477 25.9071L31.2606 35.8464L23.9877 37.8621V34.1712L27.9445 33.1032L28.3563 28.5021Z" fill="white"/>
</svg>
