<svg width="48" height="48" viewBox="0 0 48 48" fill="none" xmlns="http://www.w3.org/2000/svg">
<rect x="6" y="6" width="36" height="36" rx="8" fill="#330000"/>
<path d="M32.1305 19.459C31.6318 19.4733 31.1482 19.2868 30.7856 18.9568C30.438 18.5981 30.2566 18.1246 30.2717 17.6368C30.2566 17.149 30.4531 16.6898 30.8158 16.3598C31.1785 16.0298 31.662 15.8577 32.1607 15.8577C32.7501 15.8577 33.2035 16.0298 33.5359 16.3598C33.8684 16.7042 34.0497 17.1633 34.0346 17.6368C34.0497 18.1246 33.8684 18.5981 33.5057 18.9568C33.1581 19.3011 32.6443 19.4877 32.1305 19.459Z" fill="#FF9A00"/>
<path d="M30.438 31.9129V20.8651C30.438 20.7216 30.4984 20.6642 30.6344 20.6642H33.6266C33.7626 20.6642 33.8231 20.7359 33.8231 20.8651V31.9129C33.8231 32.0707 33.7626 32.1424 33.6266 32.1424H30.6647C30.5135 32.1424 30.438 32.0564 30.438 31.9129Z" fill="#FF9A00"/>
<path fill-rule="evenodd" clip-rule="evenodd" d="M24.0457 28.5555H18.4241L17.2756 31.9272C17.2453 32.0564 17.1244 32.1425 16.9884 32.1281H14.1474C13.9812 32.1281 13.9358 32.042 13.9812 31.8698L18.8472 18.5694C18.8604 18.5276 18.8736 18.4846 18.8872 18.4403C18.9202 18.3327 18.9555 18.2179 18.9983 18.0959C19.0588 17.7946 19.089 17.479 19.089 17.1633C19.0739 17.0916 19.1343 17.0198 19.2099 17.0055H23.1239C23.2448 17.0055 23.3052 17.0485 23.3203 17.1203L28.8362 31.8985C28.8815 32.0564 28.8362 32.1281 28.6851 32.1281H25.5267C25.4209 32.1425 25.3151 32.0707 25.2849 31.9703L24.0457 28.5555ZM19.3006 25.6429H23.139C23.0483 25.3416 22.9274 24.9829 22.7914 24.6098C22.6554 24.2225 22.5194 23.8064 22.3834 23.3759C22.3078 23.1535 22.2361 22.9347 22.1643 22.7159C22.0925 22.4971 22.0207 22.2783 21.9451 22.0559C21.794 21.6111 21.658 21.1951 21.5371 20.779C21.4836 20.6012 21.4331 20.429 21.3842 20.2624C21.3226 20.0527 21.2636 19.8518 21.2047 19.6598H21.1744C21.0384 20.2768 20.8722 20.8938 20.6606 21.5107C20.5743 21.773 20.488 22.0394 20.4008 22.3084C20.2591 22.7457 20.1152 23.1901 19.9655 23.6342C19.7539 24.3659 19.5272 25.0403 19.3006 25.6429Z" fill="#FF9A00"/>
</svg>
