<svg width="48" height="48" viewBox="0 0 48 48" fill="none" xmlns="http://www.w3.org/2000/svg">
<path d="M31.6743 32.3763C38.4285 28.8665 35.3056 25.4937 33.1259 25.9481C32.5917 26.0593 32.3534 26.1557 32.3534 26.1557C32.3534 26.1557 32.5518 25.845 32.9306 25.7105C37.2428 24.1945 40.5591 30.1818 31.5386 32.5532C31.5386 32.5533 31.6431 32.4598 31.6743 32.3763Z" fill="#5382A1"/>
<path d="M17.6201 27.9338C13.3942 27.3695 19.9372 25.8154 19.9372 25.8154C19.9372 25.8154 17.3963 25.6441 14.2713 27.1547C10.5761 28.9421 23.4116 29.755 30.0558 28.0076C30.7466 27.5359 31.7014 27.127 31.7014 27.127C31.7014 27.127 28.9824 27.6126 26.2747 27.8411C22.9614 28.1187 19.4044 28.1727 17.6201 27.9338Z" fill="#5382A1"/>
<path d="M19.2281 31.2853C16.8716 31.0416 18.4146 29.8994 18.4146 29.8994C12.3168 31.9233 21.8073 34.2184 30.328 31.7268C29.4224 31.4075 28.8464 30.8235 28.8464 30.8235C24.6821 31.6254 22.2755 31.5997 19.2281 31.2853Z" fill="#5382A1"/>
<path d="M20.2545 34.9116C17.8997 34.6408 19.2755 33.8408 19.2755 33.8408C13.7401 35.3875 22.6424 38.5828 29.6898 35.5624C28.5355 35.1136 27.709 34.5953 27.709 34.5953C24.5652 35.1903 23.1072 35.237 20.2545 34.9116Z" fill="#5382A1"/>
<path d="M34.995 36.7561C34.995 36.7561 36.013 37.595 33.8738 38.2439C29.8059 39.4762 16.943 39.8483 13.3697 38.293C12.0852 37.7342 14.494 36.9587 15.2517 36.796C16.0419 36.6247 16.4935 36.6566 16.4935 36.6566C15.065 35.6503 7.26027 38.6325 12.5291 39.4866C26.8979 41.8168 38.7221 38.4373 34.995 36.7561Z" fill="#5382A1"/>
<path d="M37.2754 38.5889C37.0396 41.6565 27.084 42.3018 20.6008 41.8868C16.3713 41.6155 15.5237 40.9377 15.5114 40.9278C19.5592 41.5952 26.3839 41.7167 31.9174 40.6753C36.8222 39.7518 37.2754 38.5889 37.2754 38.5889Z" fill="#5382A1"/>
<path d="M24.0547 15.4957C31.3431 9.74183 27.6025 6 27.6025 6C28.6096 9.9661 25.9036 12.0848 23.2591 14.1556C21.9404 15.1881 20.637 16.2086 19.8168 17.4403C18.1372 19.9622 20.6408 22.6718 24.0523 25.7498C23.7507 25.0681 23.2855 24.4057 22.8146 23.735C21.2085 21.4477 19.5353 19.0648 24.0547 15.4957Z" fill="#E76F00"/>
<path d="M25.218 27.0119C25.218 27.0119 27.4107 25.2128 25.6743 23.2136C19.7879 16.4311 32.1122 13.353 32.1122 13.353C24.5979 17.711 25.6036 19.1079 27.3617 21.5499C27.4406 21.6595 27.521 21.7712 27.6023 21.8854C29.6272 24.7357 25.218 27.0119 25.218 27.0119Z" fill="#E76F00"/>
</svg>
