<svg width="48" height="48" viewBox="0 0 48 48" fill="none" xmlns="http://www.w3.org/2000/svg">
<rect x="6" y="6" width="36" height="36" fill="#FFCA28"/>
<path d="M27.8571 35.9413L30.5077 34.1875C30.7154 34.8401 32.0308 36.39 33.6923 36.39C35.3538 36.39 36.1253 35.4825 36.1253 34.8809C36.1253 33.2413 34.4287 32.6632 33.6138 32.3856C33.4809 32.3403 33.3715 32.3031 33.2967 32.2705C33.2584 32.2538 33.2003 32.2316 33.1258 32.2031C32.2195 31.8569 28.8758 30.5794 28.8758 26.8764C28.8758 22.7977 32.8121 22.3286 33.7022 22.3286C34.2845 22.3286 37.0846 22.4 38.4791 25.0206L35.9077 26.8152C35.344 25.6732 34.4073 25.2959 33.8308 25.2959C32.4066 25.2959 32.1099 26.34 32.1099 26.8152C32.1099 28.1488 33.6572 28.7465 34.9637 29.2512C35.3055 29.3832 35.6309 29.5089 35.9077 29.6397C37.3319 30.3127 39.4286 31.4139 39.4286 34.8809C39.4286 36.6173 37.9721 39.4286 34.3055 39.4286C29.3802 39.4286 28.0747 36.4716 27.8571 35.9413Z" fill="#3E3E3E"/>
<path d="M15 36.2896L17.7626 34.5366C17.9791 35.1889 18.8202 36.3915 20.0407 36.3915C21.2612 36.3915 21.8858 35.1379 21.8858 34.5366V22.7143H25.2834V34.5366C25.3384 36.1673 24.434 39.4286 20.4427 39.4286C16.773 39.4286 15.2474 37.2476 15 36.2896Z" fill="#3E3E3E"/>
</svg>
