<svg width="48" height="48" viewBox="0 0 48 48" fill="none" xmlns="http://www.w3.org/2000/svg">
<path d="M41.874 10.8804C41.874 8.27193 39.7594 6.15735 37.1509 6.15735C34.7692 6.15735 32.8003 7.9206 32.4759 10.2128C32.4456 10.1967 32.428 10.1877 32.428 10.1877C28.5655 8.44551 25.3119 11.5312 25.3119 11.5312L16.7057 20.1795L20.1062 23.4543L27.0333 16.6489C30.2679 13.4141 32.0292 15.6035 32.0292 15.6035C34.4642 17.6606 32.1131 20.0956 32.1131 20.0956L35.5977 23.4543C38.4432 20.381 38.6082 17.6988 37.7433 15.5651C40.0719 15.2735 41.874 13.2881 41.874 10.8804Z" fill="#F9AE41"/>
<path d="M37.7872 32.6018C37.8033 32.5716 37.8124 32.554 37.8124 32.554C39.5547 28.6914 36.4689 25.4379 36.4689 25.4379L27.8204 16.8314L24.5458 20.2321L31.3512 27.1591C34.586 30.3939 32.3965 32.1552 32.3965 32.1552C30.3395 34.5903 27.9044 32.2391 27.9044 32.2391L24.5458 35.7236C27.6189 38.5691 30.3012 38.7341 32.4348 37.8692C32.7264 40.198 34.7119 42 37.1196 42C39.7281 42 41.8425 39.8854 41.8425 37.277C41.8425 34.8952 40.0794 32.9263 37.7872 32.6018Z" fill="#EE4035"/>
<path d="M27.8939 24.5457L20.9669 31.3509C17.7321 34.5858 15.9708 32.3965 15.9708 32.3965C13.5357 30.3394 15.8869 27.9044 15.8869 27.9044L12.4024 24.5458C9.55695 27.6189 9.3919 30.3011 10.2567 32.4348C7.9279 32.7264 6.12598 34.7117 6.12598 37.1195C6.12598 39.728 8.24056 41.8424 10.8491 41.8424C13.2308 41.8426 15.1997 40.0795 15.5241 37.7872C15.5544 37.8033 15.572 37.8122 15.572 37.8122C19.4346 39.5547 22.6881 36.4688 22.6881 36.4688L31.2944 27.8202L27.8939 24.5457Z" fill="#4F91CD"/>
<path d="M16.6489 20.8409C13.4141 17.6061 15.6032 15.8448 15.6032 15.8448C17.6606 13.4098 20.0955 15.7609 20.0955 15.7609L23.4541 12.2766C20.381 9.43112 17.6988 9.26606 15.5652 10.1309C15.2735 7.80193 13.2883 6 10.8803 6C8.27193 6 6.15749 8.11458 6.15735 10.7231C6.15735 13.1049 7.92046 15.0739 10.2127 15.3983C10.1966 15.4286 10.1877 15.4462 10.1877 15.4462C8.44509 19.3086 11.531 22.562 11.531 22.562L20.1797 31.1685L23.4543 27.7679L16.6489 20.8409Z" fill="#7AC043"/>
</svg>
