<svg width="48" height="48" viewBox="0 0 48 48" fill="none" xmlns="http://www.w3.org/2000/svg">
<path d="M6 19.0286C6 14.4681 6 12.1879 6.88752 10.4461C7.6682 8.9139 8.9139 7.6682 10.4461 6.88752C12.1879 6 14.4681 6 19.0286 6H28.9714C33.5319 6 35.8121 6 37.5539 6.88752C39.0861 7.6682 40.3318 8.9139 41.1125 10.4461C42 12.1879 42 14.4681 42 19.0286V28.9714C42 33.5319 42 35.8121 41.1125 37.5539C40.3318 39.0861 39.0861 40.3318 37.5539 41.1125C35.8121 42 33.5319 42 28.9714 42H19.0286C14.4681 42 12.1879 42 10.4461 41.1125C8.9139 40.3318 7.6682 39.0861 6.88752 37.5539C6 35.8121 6 33.5319 6 28.9714V19.0286Z" fill="#001E36"/>
<path d="M24.9061 32.5116H15.391C15.2299 32.5116 15.1494 32.4208 15.1495 32.2391V16.5106C15.1317 16.3827 15.2421 16.2694 15.3669 16.2877H18.3132C18.4102 16.2737 18.4957 16.3632 18.4822 16.4611V29.3907H25.4133C25.5581 29.3907 25.6145 29.465 25.5823 29.6136L25.1476 32.2887C25.1438 32.4234 25.0333 32.5102 24.9061 32.5116Z" fill="#31A8FF"/>
<path d="M27.3234 20.184H29.9558C30.101 20.1852 30.2313 20.2881 30.2697 20.4317C30.4626 20.871 30.4864 21.4008 30.4871 21.8751C30.9385 21.336 31.4829 20.8867 32.093 20.5499C32.7474 20.1702 33.4893 19.9777 34.241 19.9926C34.3658 19.9743 34.4762 20.0876 34.4584 20.2155V23.2126C34.4584 23.3283 34.3776 23.386 34.2169 23.386C33.1027 23.3071 31.368 23.5771 30.5584 24.4758V32.2687C30.5584 32.4173 30.494 32.4916 30.3652 32.4916H27.5408C27.402 32.5121 27.2797 32.384 27.2992 32.2439V23.7823C27.2992 22.6485 27.3232 21.4805 27.1544 20.3574C27.1284 20.254 27.2249 20.1579 27.3234 20.184Z" fill="#31A8FF"/>
</svg>
