<svg width="48" height="48" viewBox="0 0 48 48" fill="none" xmlns="http://www.w3.org/2000/svg">
<path d="M17.4219 35.2656C15.2031 32.6562 13.7812 28.7969 13.6875 24.4688V23.5312C13.7812 19.2031 15.2188 15.3438 17.4219 12.7344C20.2969 9.01563 24.5156 7.34375 29.2812 7.34375C32.2188 7.34375 34.9844 7.54688 37.3281 9.10938C33.8125 5.9375 29.1719 4.01562 24.0781 4H24C12.9531 4 4 12.9531 4 24C4 34.7188 12.4375 43.4844 23.0469 43.9844C23.3594 44 23.6875 44 24 44C29.125 44 33.7969 42.0781 37.3281 38.9062C34.9844 40.4688 32.375 40.5312 29.4375 40.5312C24.6875 40.5469 20.2812 39 17.4219 35.2656Z" fill="url(#paint0_linear_1108_170816)"/>
<path d="M17.4219 12.7344C19.25 10.5625 21.625 9.26563 24.2187 9.26563C30.0469 9.26563 34.7656 15.8594 34.7656 24.0156C34.7656 32.1719 30.0469 38.7656 24.2187 38.7656C21.625 38.7656 19.2656 37.4531 17.4219 35.2969C20.2969 39.0156 24.5625 41.3906 29.3125 41.3906C32.2344 41.3906 34.9844 40.5 37.3281 38.9375C41.4219 35.25 44 29.9219 44 24C44 18.0781 41.4219 12.75 37.3281 9.09375C34.9844 7.53125 32.25 6.64062 29.3125 6.64062C24.5469 6.64062 20.2812 9 17.4219 12.7344Z" fill="url(#paint1_linear_1108_170816)"/>
<defs>
<linearGradient id="paint0_linear_1108_170816" x1="20.6651" y1="4.652" x2="20.6651" y2="43.418" gradientUnits="userSpaceOnUse">
<stop offset="0.3" stop-color="#FF1B2D"/>
<stop offset="0.4381" stop-color="#FA1A2C"/>
<stop offset="0.5939" stop-color="#ED1528"/>
<stop offset="0.7581" stop-color="#D60E21"/>
<stop offset="0.9272" stop-color="#B70519"/>
<stop offset="1" stop-color="#A70014"/>
</linearGradient>
<linearGradient id="paint1_linear_1108_170816" x1="30.7083" y1="6.93704" x2="30.7083" y2="41.2235" gradientUnits="userSpaceOnUse">
<stop stop-color="#9C0000"/>
<stop offset="0.7" stop-color="#FF4B4B"/>
</linearGradient>
</defs>
</svg>
