<svg width="48" height="48" viewBox="0 0 48 48" fill="none" xmlns="http://www.w3.org/2000/svg">
<rect x="6" y="6" width="36" height="36" rx="8" fill="#001E36"/>
<path fill-rule="evenodd" clip-rule="evenodd" d="M13.1694 31.6596V16.083C13.1694 15.9771 13.2144 15.9165 13.3194 15.9165C13.5744 15.9165 13.8144 15.9165 14.1594 15.9014C14.3448 15.8936 14.5342 15.8898 14.7296 15.8859C14.9136 15.8822 15.103 15.8784 15.2994 15.8711C15.5089 15.8633 15.7264 15.8595 15.9519 15.8556C16.1624 15.8519 16.3799 15.8481 16.6044 15.8408C17.0694 15.8257 17.5194 15.8257 17.9694 15.8257C19.1994 15.8257 20.2194 15.9771 21.0594 16.2949C21.8094 16.5523 22.4994 16.9761 23.0694 17.5362C23.5494 18.0206 23.9244 18.611 24.1644 19.2619C24.3894 19.8977 24.5094 20.5486 24.5094 21.2298C24.5094 22.5316 24.2094 23.6064 23.6094 24.4541C23.0094 25.3018 22.1694 25.9376 21.1944 26.3009C20.1744 26.6794 19.0494 26.8156 17.8194 26.8156C17.4594 26.8156 17.2194 26.8156 17.0694 26.8005C16.9194 26.7853 16.7095 26.7853 16.4245 26.7853L16.4244 31.6445C16.4394 31.7505 16.3644 31.8413 16.2594 31.8564H13.3494C13.2294 31.8564 13.1694 31.7959 13.1694 31.6596ZM16.4394 18.8381V23.9243L16.4844 23.9276C16.6773 23.9415 16.8574 23.9546 17.0244 23.9546H17.8194C18.4044 23.9546 18.9894 23.8638 19.5444 23.6821C20.0244 23.5459 20.4444 23.2583 20.7744 22.8798C21.0894 22.5014 21.2394 21.9867 21.2394 21.3206C21.2544 20.8514 21.1344 20.3821 20.8944 19.9734C20.6394 19.5798 20.2794 19.2771 19.8444 19.1105C19.2894 18.8835 18.6894 18.7927 18.0744 18.8078C17.6844 18.8078 17.3394 18.8078 17.0544 18.8229C16.7544 18.8078 16.5444 18.8229 16.4394 18.8381Z" fill="#31A8FF"/>
<path d="M32.4293 22.4862C32.9393 22.5922 33.4193 22.7587 33.8693 23.0009C33.9293 23.0312 34.0043 23.0312 34.1393 23.0009C34.1843 22.9706 34.2143 22.9101 34.2143 22.8495V20.3821C34.2143 20.3215 34.1993 20.261 34.1843 20.2004C34.1543 20.1399 34.0943 20.0793 34.0343 20.0642C33.6293 19.8977 33.1943 19.7766 32.7443 19.716C32.1293 19.6252 31.4993 19.5798 30.8843 19.5798C29.8193 19.5798 28.9343 19.7463 28.2293 20.1096C27.5843 20.4124 27.0293 20.8968 26.6543 21.5023C26.3243 22.0624 26.1443 22.683 26.1443 23.3339C26.1293 23.8637 26.2493 24.3936 26.4893 24.878C26.7743 25.3926 27.1643 25.8316 27.6293 26.1647C28.2893 26.6188 28.9943 26.9821 29.7593 27.2546C30.4943 27.5422 30.9893 27.7693 31.2293 27.966C31.4693 28.1628 31.5893 28.3596 31.5893 28.5715C31.5893 28.844 31.4243 29.1014 31.1843 29.2073C30.9143 29.3436 30.5093 29.4193 29.9393 29.4193C29.3393 29.4193 28.7393 29.3436 28.1693 29.1922C27.5093 29.0408 26.8943 28.7986 26.3093 28.4504C26.2643 28.4202 26.2193 28.405 26.1743 28.4353C26.1293 28.4656 26.1143 28.5261 26.1143 28.5715V31.2055C26.0993 31.3266 26.1743 31.4326 26.2793 31.4931C26.7593 31.7202 27.2843 31.8867 27.8093 31.9775C28.4843 32.1137 29.1593 32.1743 29.8493 32.1743C30.9293 32.1743 31.8293 32.0078 32.5643 31.6899C33.2393 31.4174 33.8243 30.9482 34.2443 30.3426C34.6343 29.7523 34.8443 29.0408 34.8293 28.3293C34.8443 27.7844 34.7243 27.2546 34.4843 26.7702C34.1993 26.2555 33.7943 25.8316 33.2993 25.5137C32.5793 25.0596 31.7993 24.6812 30.9893 24.4087C30.6293 24.2573 30.2693 24.0908 29.9243 23.9092C29.7293 23.8032 29.5493 23.667 29.4143 23.5004C29.3243 23.3793 29.2643 23.2431 29.2643 23.1069C29.2643 22.9706 29.3093 22.8193 29.3843 22.6982C29.4893 22.5468 29.6543 22.4408 29.8493 22.3954C30.1343 22.3197 30.4493 22.2743 30.7493 22.2894C31.3193 22.2894 31.8743 22.3651 32.4293 22.4862Z" fill="#31A8FF"/>
</svg>
