<svg width="48" height="48" viewBox="0 0 48 48" fill="none" xmlns="http://www.w3.org/2000/svg">
<path fill-rule="evenodd" clip-rule="evenodd" d="M24 42C33.9414 42 42 33.9414 42 24C42 14.0586 33.9414 6 24 6C14.0586 6 6 14.0586 6 24C6 33.9414 14.0586 42 24 42Z" fill="url(#paint0_linear_1108_170639)"/>
<path fill-rule="evenodd" clip-rule="evenodd" d="M19.5 16.7999V31.1999H22.2V26.6999H26.286C28.9995 26.6279 31.2 24.4274 31.2 21.7499C31.2 19.0004 28.9995 16.7999 26.286 16.7999H19.5ZM26.3193 23.9999H22.2V19.4999H26.3193C27.5235 19.4999 28.5 20.5079 28.5 21.7499C28.5 22.9919 27.5235 23.9999 26.3193 23.9999Z" fill="white"/>
<defs>
<linearGradient id="paint0_linear_1108_170639" x1="24" y1="6" x2="24" y2="42" gradientUnits="userSpaceOnUse">
<stop stop-color="#DA552F"/>
<stop offset="1" stop-color="#D04B25"/>
</linearGradient>
</defs>
</svg>
