<svg width="48" height="48" viewBox="0 0 48 48" fill="none" xmlns="http://www.w3.org/2000/svg">
<path d="M24 42C33.9411 42 42 33.9411 42 24C42 14.0589 33.9411 6 24 6C14.0589 6 6 14.0589 6 24C6 33.9411 14.0589 42 24 42Z" fill="#FF4500"/>
<path d="M35.9742 24.1716C35.9742 22.7124 34.7942 21.5536 33.3562 21.5536C32.6482 21.5536 32.0042 21.8324 31.5322 22.2832C29.7298 20.9956 27.2618 20.1588 24.515 20.0516L25.7166 14.4292L29.6222 15.266C29.6654 16.2532 30.4806 17.0472 31.4894 17.0472C32.5194 17.0472 33.3562 16.2104 33.3562 15.18C33.3562 14.15 32.5194 13.3132 31.4894 13.3132C30.7598 13.3132 30.1158 13.7424 29.8154 14.3648L25.4594 13.442C25.3306 13.4204 25.2018 13.442 25.1158 13.5064C25.0086 13.5708 24.9442 13.678 24.923 13.8068L23.5922 20.0728C20.8026 20.1588 18.2918 20.9956 16.4678 22.3048C15.9958 21.854 15.3518 21.5752 14.6438 21.5752C13.1846 21.5752 12.0258 22.7552 12.0258 24.1932C12.0258 25.266 12.6694 26.1672 13.571 26.5752C13.5278 26.8324 13.5066 27.09 13.5066 27.3692C13.5066 31.4032 18.2062 34.6868 24.0002 34.6868C29.7942 34.6868 34.4938 31.4248 34.4938 27.3692C34.4938 27.1116 34.4722 26.8324 34.4294 26.5752C35.3306 26.1672 35.9742 25.2444 35.9742 24.1716ZM17.9914 26.0384C17.9914 25.0084 18.8282 24.1716 19.8586 24.1716C20.8886 24.1716 21.7254 25.0084 21.7254 26.0384C21.7254 27.0684 20.8886 27.9056 19.8586 27.9056C18.8282 27.9268 17.9914 27.0684 17.9914 26.0384ZM28.4422 30.9956C27.1546 32.2832 24.7082 32.3692 24.0002 32.3692C23.2706 32.3692 20.8242 32.2616 19.5578 30.9956C19.365 30.8024 19.365 30.502 19.5578 30.3088C19.751 30.116 20.0514 30.116 20.2446 30.3088C21.0602 31.1244 22.777 31.4032 24.0002 31.4032C25.2234 31.4032 26.9614 31.1244 27.7554 30.3088C27.9486 30.116 28.249 30.116 28.4422 30.3088C28.6138 30.502 28.6138 30.8024 28.4422 30.9956ZM28.0986 27.9268C27.0686 27.9268 26.2318 27.09 26.2318 26.06C26.2318 25.03 27.0686 24.1932 28.0986 24.1932C29.129 24.1932 29.9658 25.03 29.9658 26.06C29.9658 27.0684 29.129 27.9268 28.0986 27.9268Z" fill="white"/>
</svg>
