<svg width="48" height="48" viewBox="0 0 48 48" fill="none" xmlns="http://www.w3.org/2000/svg">
<path d="M24 44C35.0457 44 44 35.0457 44 24C44 12.9543 35.0457 4 24 4C12.9543 4 4 12.9543 4 24C4 35.0457 12.9543 44 24 44Z" fill="url(#paint0_linear_1108_170846)"/>
<path d="M24.0001 42.4999C34.2174 42.4999 42.5001 34.2171 42.5001 23.9999C42.5001 13.7826 34.2174 5.49988 24.0001 5.49988C13.7829 5.49988 5.50012 13.7826 5.50012 23.9999C5.50012 34.2171 13.7829 42.4999 24.0001 42.4999Z" fill="url(#paint1_radial_1108_170846)"/>
<path d="M24.0312 10.0001C23.9062 10.0001 23.7969 9.90637 23.7969 9.78137V6.51571C23.7969 6.39071 23.9062 6.297 24.0312 6.297C24.1562 6.297 24.2656 6.39071 24.2656 6.51571V9.78137C24.2499 9.90637 24.1562 10.0001 24.0312 10.0001Z" fill="#F3F3F3"/>
<path d="M24.0314 10.0157C23.8907 10.0157 23.7814 9.90635 23.7814 9.78135V6.51573C23.7814 6.39073 23.8907 6.28137 24.0314 6.28137C24.172 6.28137 24.2814 6.39073 24.2814 6.51573V9.78135C24.2814 9.90635 24.1564 10.0157 24.0314 10.0157ZM24.0314 6.3125C23.922 6.3125 23.8127 6.40637 23.8127 6.51573V9.78135C23.8127 9.8907 23.9064 9.98458 24.0314 9.98458C24.1407 9.98458 24.2501 9.8907 24.2501 9.78135V6.51573C24.2346 6.40637 24.1407 6.3125 24.0314 6.3125Z" fill="white"/>
<path d="M25.5938 8.25005C25.4688 8.23441 25.3751 8.14069 25.3751 8.01569L25.4845 6.56244C25.5 6.4376 25.6095 6.34373 25.7345 6.35937C25.8595 6.37502 25.9532 6.46889 25.9532 6.59389L25.8438 8.04698C25.8282 8.17198 25.7188 8.2657 25.5938 8.25021V8.25005Z" fill="#F3F3F3"/>
<path d="M25.5937 8.26558C25.4531 8.24993 25.3594 8.14058 25.3594 8.01558L25.4687 6.56234C25.4844 6.4375 25.5937 6.32815 25.7344 6.34363C25.8749 6.35928 25.9687 6.46879 25.9687 6.59363L25.8594 8.04687C25.8437 8.18751 25.7344 8.28122 25.5937 8.26558ZM25.7344 6.37492C25.625 6.37492 25.5155 6.45315 25.5155 6.5625L25.4061 8.01574C25.4061 8.12493 25.4844 8.2188 25.6094 8.23429C25.7187 8.23429 25.8281 8.15622 25.8281 8.04687L25.9374 6.59363C25.9374 6.48428 25.8437 6.39057 25.7342 6.37492H25.7344Z" fill="white"/>
<path d="M26.7656 10.2814C26.6405 10.2501 26.5624 10.1407 26.578 10.0157L27.2186 6.81247C27.2499 6.68763 27.3593 6.6094 27.4843 6.64069C27.6093 6.67198 27.6873 6.78134 27.6717 6.90634L27.0311 10.1096C27.0154 10.2188 26.8904 10.297 26.7654 10.2814H26.7656Z" fill="#F3F3F3"/>
<path d="M26.7657 10.2969C26.6249 10.2656 26.5469 10.1406 26.5625 10.0156L27.2031 6.81238C27.2344 6.68754 27.3594 6.59367 27.4999 6.62496C27.6405 6.65625 27.7187 6.78125 27.7031 6.90625L27.0625 10.1095C27.0312 10.2343 26.9062 10.3125 26.7657 10.2969ZM27.4999 6.65625C27.3905 6.64061 27.2812 6.70303 27.2499 6.81254L26.6095 10.0157C26.5938 10.1249 26.6562 10.2343 26.7812 10.2657C26.8906 10.2812 26.9999 10.2186 27.0312 10.1093L27.6718 6.90625C27.6874 6.78125 27.6094 6.68754 27.4999 6.65625Z" fill="white"/>
<path d="M28.6406 8.875C28.6109 8.86783 28.5828 8.85486 28.5581 8.83684C28.5333 8.81881 28.5124 8.79609 28.4964 8.76996C28.4805 8.74384 28.4698 8.71482 28.4651 8.68458C28.4603 8.65434 28.4616 8.62346 28.4688 8.59371L28.8595 7.18758C28.8906 7.06258 29.0156 7 29.1406 7.03129C29.2656 7.06258 29.3439 7.18758 29.3126 7.31258L28.9219 8.71887C28.8906 8.84371 28.7656 8.90629 28.6406 8.875Z" fill="#F3F3F3"/>
<path d="M28.6407 8.89079C28.5157 8.8595 28.422 8.71886 28.469 8.59402L28.8596 7.18758C28.8907 7.06275 29.0313 6.98452 29.1563 7.01581C29.2813 7.0471 29.375 7.18775 29.3282 7.31258L28.9376 8.71902C28.9063 8.84385 28.7814 8.92208 28.6409 8.89079H28.6407ZM29.1563 7.06275C29.047 7.03146 28.922 7.09404 28.8907 7.20339L28.5003 8.6095C28.469 8.71886 28.5314 8.82837 28.6564 8.8595C28.7657 8.89079 28.8907 8.82837 28.922 8.71902L29.3126 7.31258C29.3282 7.20339 29.2658 7.09404 29.1563 7.06259V7.06275Z" fill="white"/>
<path d="M29.4063 11.0782C29.2813 11.0313 29.2346 10.8907 29.2813 10.7813L30.5313 7.76569C30.5781 7.65633 30.7189 7.59375 30.828 7.65633C30.9532 7.70311 31.0001 7.84391 30.9532 7.95311L29.7033 10.9687C29.6565 11.0782 29.5157 11.1407 29.4065 11.0782H29.4063Z" fill="#F3F3F3"/>
<path d="M29.4063 11.094C29.3463 11.0711 29.2977 11.0254 29.2714 10.9668C29.245 10.9082 29.243 10.8416 29.2657 10.7814L30.5157 7.76578C30.5626 7.64078 30.7033 7.59385 30.8439 7.64078C30.9039 7.66366 30.9525 7.70941 30.9788 7.76801C31.0052 7.8266 31.0073 7.89326 30.9846 7.95336L29.7345 10.969C29.6719 11.094 29.5313 11.1564 29.4063 11.094ZM30.8283 7.67207C30.7189 7.6253 30.5939 7.67207 30.547 7.78143L29.2969 10.7971C29.2502 10.9064 29.3126 11.0158 29.4219 11.0627C29.5313 11.1095 29.6563 11.0627 29.7032 10.9534L30.9533 7.93772C30.9846 7.84385 30.9376 7.71885 30.8283 7.67207Z" fill="white"/>
<path d="M31.5158 10.0782C31.4063 10.0157 31.3594 9.89067 31.4063 9.78132L32.0625 8.48457C32.1249 8.37506 32.2499 8.32812 32.375 8.3907C32.4844 8.45328 32.5312 8.57828 32.4844 8.68747L31.828 9.98438C31.7656 10.0937 31.6406 10.1408 31.5156 10.0782H31.5158Z" fill="#F3F3F3"/>
<path d="M31.5158 10.0939C31.3907 10.0314 31.3439 9.89072 31.4063 9.76572L32.0626 8.46895C32.1251 8.34379 32.2659 8.29702 32.3907 8.35944C32.5157 8.42202 32.5626 8.56266 32.5001 8.68766L31.8439 9.98443C31.7813 10.1094 31.6407 10.1564 31.5157 10.0938L31.5158 10.0939ZM32.3752 8.39073C32.2657 8.34395 32.1407 8.37508 32.0939 8.48444L31.4376 9.78136C31.3908 9.87507 31.4376 10.0001 31.5313 10.0627C31.6407 10.1094 31.7657 10.0783 31.8126 9.96894L32.4689 8.67202C32.5157 8.57831 32.4689 8.45331 32.3752 8.39073Z" fill="white"/>
<path d="M31.8282 12.3907C31.7189 12.3126 31.6876 12.172 31.7656 12.0783L33.5782 9.37503C33.6406 9.26568 33.7814 9.25003 33.8906 9.31261C34.0001 9.39068 34.0313 9.53132 33.9532 9.62503L32.1406 12.3283C32.0782 12.4376 31.9376 12.4689 31.8282 12.3907Z" fill="#F3F3F3"/>
<path d="M31.8282 12.4063C31.7189 12.3282 31.6876 12.1719 31.7502 12.0626L33.5626 9.35942C33.6407 9.25007 33.7813 9.21878 33.9063 9.297C34.0157 9.37506 34.047 9.53135 33.9845 9.6407L32.1719 12.3439C32.0939 12.4532 31.9376 12.4844 31.8282 12.4063ZM33.8907 9.32829C33.7971 9.26571 33.6563 9.28136 33.5939 9.37506L31.7813 12.0782C31.7189 12.1718 31.75 12.2969 31.8439 12.3594C31.9376 12.4219 32.0782 12.4063 32.1407 12.3126L33.9533 9.62506C34.0157 9.53135 33.9845 9.39071 33.8907 9.32829Z" fill="white"/>
<path d="M34.1094 11.8126C34.0159 11.7344 33.9846 11.5937 34.0627 11.5L34.9689 10.3594C35.0469 10.2658 35.1876 10.25 35.2813 10.3282C35.3751 10.4063 35.4063 10.547 35.328 10.6407L34.422 11.7813C34.3439 11.875 34.2033 11.8907 34.1096 11.8126H34.1094Z" fill="#F3F3F3"/>
<path d="M34.0938 11.8282C33.9845 11.75 33.9688 11.5937 34.0471 11.4843L34.9532 10.3438C35.0312 10.2343 35.1875 10.2186 35.2968 10.3125C35.4062 10.3906 35.4218 10.5469 35.3436 10.6562L34.4375 11.7969C34.3595 11.9062 34.2032 11.9219 34.0938 11.8282ZM35.2656 10.3436C35.172 10.2656 35.0469 10.2812 34.9688 10.3749L34.0626 11.5156C34.0001 11.6093 34.0158 11.7343 34.1093 11.8124C34.2032 11.8906 34.3282 11.875 34.4062 11.7812L35.3125 10.6406C35.3751 10.5469 35.3593 10.4062 35.2657 10.3438L35.2656 10.3436Z" fill="white"/>
<path d="M33.9532 14.1563C33.8595 14.0626 33.8595 13.922 33.9532 13.8438L36.2655 11.547C36.3594 11.4533 36.4999 11.4688 36.5781 11.547C36.6562 11.6251 36.6718 11.7814 36.5781 11.8594L34.2814 14.1563C34.1876 14.25 34.0469 14.25 33.9532 14.1563Z" fill="#F3F3F3"/>
<path d="M33.9375 14.172C33.8924 14.1261 33.8672 14.0644 33.8672 14.0001C33.8672 13.9358 33.8924 13.8741 33.9375 13.8283L36.25 11.5313C36.2958 11.4862 36.3576 11.4609 36.4219 11.4609C36.4863 11.4609 36.548 11.4862 36.5939 11.5313C36.6389 11.5772 36.6642 11.6389 36.6642 11.7032C36.6642 11.7675 36.6389 11.8292 36.5939 11.875L34.2812 14.1718C34.2354 14.2169 34.1737 14.2421 34.1094 14.2421C34.0451 14.2421 33.9834 14.2169 33.9375 14.1718V14.172ZM36.5782 11.547C36.5001 11.4688 36.3595 11.4688 36.2814 11.547L33.9688 13.8437C33.8906 13.922 33.8906 14.0626 33.9688 14.1407C34.0469 14.2189 34.1875 14.2189 34.2656 14.1407L36.5782 11.8439C36.6563 11.7657 36.6563 11.6407 36.5782 11.547Z" fill="white"/>
<path d="M36.2968 14.0313C36.2188 13.9376 36.2188 13.797 36.3125 13.7187L37.4218 12.7813C37.5155 12.7033 37.6561 12.7188 37.7343 12.8126C37.8124 12.9063 37.8124 13.047 37.7187 13.125L36.6094 14.0626C36.5155 14.1407 36.3749 14.125 36.2968 14.0313Z" fill="#F3F3F3"/>
<path d="M36.2812 14.0469C36.1875 13.9375 36.2031 13.7813 36.2968 13.7032L37.4061 12.7656C37.4998 12.6719 37.6561 12.6876 37.7498 12.7969C37.8437 12.9063 37.828 13.0626 37.7343 13.1406L36.6249 14.0782C36.5313 14.1717 36.3749 14.1563 36.2814 14.0469H36.2812ZM37.7187 12.8126C37.6405 12.7188 37.5155 12.7188 37.4219 12.7813L36.3125 13.7188C36.2344 13.7969 36.2188 13.9219 36.2968 14.0156C36.3749 14.1093 36.5001 14.1093 36.5936 14.0469L37.703 13.1093C37.7967 13.0313 37.7967 12.9063 37.7187 12.8126Z" fill="white"/>
<path d="M35.6719 16.2814C35.5938 16.172 35.6251 16.0314 35.7345 15.9688L38.453 14.1563C38.5624 14.0938 38.703 14.125 38.7654 14.2189C38.8437 14.3283 38.8124 14.4689 38.703 14.5313L35.9844 16.3438C35.8906 16.4064 35.7499 16.3751 35.6719 16.2814Z" fill="#F3F3F3"/>
<path d="M35.6563 16.2813C35.5782 16.172 35.6095 16.0157 35.7188 15.9376L38.4375 14.1251C38.5469 14.047 38.7032 14.0783 38.7813 14.2033C38.8595 14.3126 38.828 14.4689 38.7188 14.5468L36.0001 16.3595C35.8906 16.4378 35.7345 16.4065 35.6563 16.2815V16.2813ZM38.75 14.2346C38.6875 14.1407 38.5625 14.1094 38.4688 14.172L35.75 15.9844C35.6564 16.047 35.625 16.172 35.7032 16.2813C35.7656 16.375 35.8906 16.4063 35.9845 16.3439L38.7032 14.5313C38.7969 14.4533 38.8125 14.3281 38.75 14.2346Z" fill="white"/>
<path d="M38.0003 16.6095C37.9377 16.5 37.969 16.3595 38.0784 16.2969L39.344 15.5782C39.4534 15.5156 39.594 15.5626 39.6564 15.6718C39.719 15.7813 39.6877 15.9217 39.5784 15.9843L38.3127 16.7032C38.2034 16.7656 38.0627 16.7188 38.0001 16.6093L38.0003 16.6095Z" fill="#F3F3F3"/>
<path d="M37.9847 16.625C37.9221 16.5 37.9534 16.3594 38.0627 16.2969L39.3284 15.5782C39.4378 15.5156 39.594 15.5626 39.6565 15.6718C39.719 15.7969 39.6878 15.9376 39.5784 16L38.3127 16.7189C38.2034 16.7813 38.0471 16.7344 37.9847 16.625ZM39.6408 15.6876C39.5784 15.5782 39.4534 15.5469 39.3597 15.6093L38.094 16.3282C38.0003 16.3907 37.969 16.5157 38.0158 16.6094C38.0784 16.7187 38.2034 16.75 38.2971 16.6876L39.5628 15.9687C39.6565 15.9219 39.6878 15.7969 39.6408 15.6876Z" fill="white"/>
<path d="M36.9532 18.6875C36.9064 18.5625 36.9532 18.4375 37.0782 18.3908L40.0938 17.1408C40.2032 17.0939 40.3438 17.1563 40.3906 17.2656C40.4375 17.3906 40.3906 17.5156 40.2656 17.5624L37.2501 18.8124C37.1406 18.8593 37.0001 18.8124 36.9532 18.6875Z" fill="#F3F3F3"/>
<path d="M36.9376 18.7031C36.8908 18.5783 36.9376 18.4376 37.0626 18.375L40.0782 17.1251C40.1383 17.1024 40.2049 17.1045 40.2635 17.1309C40.322 17.1573 40.3677 17.2057 40.3906 17.2657C40.4375 17.3907 40.3906 17.5314 40.2656 17.5938L37.2502 18.8437C37.1901 18.8664 37.1234 18.8644 37.0649 18.8381C37.0063 18.8117 36.9605 18.7633 36.9376 18.7033V18.7031ZM40.3595 17.2814C40.3125 17.172 40.1875 17.1251 40.0938 17.1564L37.0782 18.4063C36.9689 18.4531 36.9219 18.5783 36.9689 18.6876C37.0157 18.797 37.1406 18.8439 37.2345 18.8126L40.25 17.5627C40.3595 17.5159 40.4064 17.3907 40.3595 17.2814Z" fill="white"/>
<path d="M39.1565 19.469C39.1097 19.3438 39.1722 19.219 39.2971 19.172L40.672 18.7188C40.7814 18.672 40.922 18.7501 40.9533 18.8594C41 18.9844 40.9376 19.1094 40.8126 19.1564L39.4378 19.6096C39.3284 19.6564 39.2034 19.594 39.1565 19.4688V19.469Z" fill="#F3F3F3"/>
<path d="M39.1406 19.4843C39.0938 19.3593 39.1562 19.2187 39.297 19.1719L40.6717 18.7187C40.7967 18.6719 40.9373 18.75 40.9843 18.8751C41.031 19 40.9686 19.1406 40.8278 19.1875L39.4531 19.6408C39.3281 19.6719 39.1875 19.6093 39.1406 19.4843ZM40.953 18.8908C40.9217 18.7812 40.7967 18.7187 40.6874 18.75L39.3125 19.2032C39.2032 19.2343 39.1562 19.3593 39.1875 19.4688C39.2188 19.5782 39.3438 19.6406 39.4531 19.6093L40.828 19.1563C40.9373 19.1095 40.9843 19 40.953 18.8906V18.8908Z" fill="white"/>
<path d="M37.7503 21.3282C37.719 21.2032 37.7971 21.0782 37.9221 21.0625L41.1251 20.4376C41.2499 20.4063 41.3594 20.5 41.3906 20.625C41.4218 20.75 41.3438 20.875 41.2188 20.8906L38.0158 21.5156C37.8908 21.5312 37.7658 21.4531 37.7502 21.3282H37.7503Z" fill="#F3F3F3"/>
<path d="M37.7187 21.3283C37.6874 21.1877 37.7811 21.0626 37.9061 21.0313L41.1093 20.4063C41.2343 20.375 41.3593 20.4689 41.3905 20.6095C41.4218 20.75 41.3281 20.875 41.2031 20.9063L37.9998 21.5314C37.875 21.5627 37.7498 21.469 37.7187 21.3281V21.3283ZM41.3593 20.625C41.3437 20.5157 41.2343 20.4376 41.125 20.4532L37.9218 21.0783C37.8124 21.0939 37.7344 21.2188 37.7655 21.3283C37.7811 21.4377 37.8905 21.5157 38 21.5001L41.2031 20.875C41.3124 20.8438 41.3905 20.7344 41.3593 20.625Z" fill="white"/>
<path d="M39.7502 22.5312C39.7345 22.4062 39.8126 22.2968 39.9376 22.2812L41.375 22.1092C41.5 22.0937 41.6095 22.1875 41.625 22.3125C41.6406 22.4375 41.5626 22.5469 41.4376 22.5625L40 22.7343C39.8906 22.75 39.7656 22.6562 39.75 22.5312H39.7502Z" fill="#F3F3F3"/>
<path d="M39.7345 22.5313C39.7189 22.3906 39.8126 22.2656 39.9376 22.25L41.3749 22.0782C41.4999 22.0626 41.6249 22.1563 41.6405 22.2969C41.6562 22.4376 41.5625 22.5626 41.4375 22.5782L40 22.75C39.8751 22.7656 39.75 22.6719 39.7345 22.5313ZM41.6249 22.3126C41.6094 22.2032 41.5001 22.1094 41.3905 22.125L39.9532 22.2969C39.8438 22.3126 39.7656 22.4219 39.7813 22.5313C39.7969 22.6406 39.9063 22.7345 40.0156 22.7188L41.4531 22.5469C41.5625 22.5313 41.6405 22.4219 41.625 22.3126H41.6249Z" fill="white"/>
<path d="M38.0004 24.0468C38.0004 23.9218 38.0939 23.8125 38.2191 23.8125H41.4847C41.6097 23.8125 41.7034 23.9218 41.7034 24.0468C41.7034 24.1718 41.6097 24.2812 41.4847 24.2812H38.2191C38.0941 24.2812 38.0004 24.1718 38.0004 24.0468Z" fill="#F3F3F3"/>
<path d="M37.9846 24.047C37.9846 23.9063 38.094 23.797 38.219 23.797H41.4846C41.6096 23.797 41.719 23.9063 41.719 24.047C41.719 24.1876 41.6096 24.297 41.4846 24.297H38.219C38.094 24.297 37.9846 24.1876 37.9846 24.047ZM41.6877 24.0626C41.6877 23.9533 41.594 23.8439 41.4845 23.8439H38.2191C38.1098 23.8439 38.0159 23.9375 38.0159 24.0626C38.0159 24.172 38.1098 24.2813 38.2191 24.2813H41.4848C41.5941 24.2657 41.6878 24.172 41.6878 24.0626H41.6877Z" fill="white"/>
<path d="M39.7345 25.625C39.75 25.5 39.8439 25.4062 39.9689 25.4062L41.422 25.5156C41.5469 25.5312 41.6406 25.6406 41.6249 25.7656C41.6094 25.8906 41.5156 25.9843 41.3906 25.9843L39.9376 25.875C39.8282 25.8593 39.7344 25.75 39.7344 25.625H39.7345Z" fill="#F3F3F3"/>
<path d="M39.7189 25.6251C39.7345 25.4845 39.8439 25.3907 39.9689 25.3907L41.4223 25.5001C41.5471 25.5157 41.6565 25.6251 41.6408 25.7657C41.6253 25.9064 41.5158 26.0001 41.3908 26.0001L39.9376 25.8907C39.8126 25.8751 39.7189 25.7501 39.7189 25.6251ZM41.6253 25.7657C41.6408 25.6564 41.5471 25.547 41.4377 25.547L39.9844 25.4377C39.8752 25.4377 39.7813 25.5157 39.7657 25.6409C39.7502 25.7501 39.8439 25.8595 39.9532 25.8595L41.4066 25.9688C41.5158 25.9688 41.6097 25.8753 41.6253 25.7657Z" fill="white"/>
<path d="M37.719 26.7656C37.7503 26.6406 37.8597 26.5624 37.9847 26.5782L41.1878 27.2188C41.3128 27.25 41.391 27.3593 41.3597 27.4843C41.3284 27.6093 41.2191 27.6875 41.0941 27.6719L37.8908 27.0313C37.7815 27.0156 37.7034 26.8906 37.719 26.7656Z" fill="#F3F3F3"/>
<path d="M37.703 26.7657C37.7343 26.6251 37.8593 26.547 37.9843 26.5625L41.1876 27.2032C41.3127 27.2344 41.4064 27.3593 41.3751 27.5C41.3439 27.6406 41.2189 27.7188 41.0939 27.7032L37.8905 27.0626C37.7655 27.0313 37.6874 26.9063 37.703 26.7659V26.7657ZM41.3439 27.5C41.3596 27.3906 41.2972 27.2813 41.1876 27.25L37.9842 26.6094C37.875 26.5939 37.7655 26.6563 37.7342 26.7813C37.7187 26.8907 37.7811 27 37.8906 27.0313L41.0939 27.6719C41.2189 27.6875 41.3127 27.6093 41.3439 27.5Z" fill="white"/>
<path d="M39.1251 28.6407C39.1323 28.611 39.1453 28.5829 39.1633 28.5582C39.1813 28.5335 39.204 28.5125 39.2301 28.4966C39.2562 28.4806 39.2852 28.47 39.3154 28.4652C39.3457 28.4605 39.3765 28.4617 39.4063 28.4689L40.8125 28.8594C40.9375 28.8907 40.9999 29.0159 40.9688 29.1408C40.9617 29.1705 40.9487 29.1986 40.9307 29.2234C40.9127 29.2481 40.89 29.2691 40.8638 29.2851C40.8377 29.301 40.8087 29.3117 40.7784 29.3164C40.7482 29.3212 40.7173 29.3199 40.6875 29.3127L39.2813 28.922C39.1563 28.8907 39.0939 28.7657 39.125 28.6407H39.1251Z" fill="#F3F3F3"/>
<path d="M39.1095 28.6407C39.1408 28.5157 39.2814 28.422 39.4064 28.469L40.8127 28.8594C40.9377 28.8907 41.0159 29.0313 40.9846 29.1563C40.9533 29.2813 40.8127 29.375 40.6877 29.3282L39.2814 28.9376C39.1564 28.9063 39.0782 28.7813 39.1096 28.6409L39.1095 28.6407ZM40.9377 29.1563C40.9689 29.047 40.9064 28.922 40.797 28.8907L39.3907 28.5001C39.2814 28.4688 39.172 28.5314 39.1408 28.6564C39.1096 28.7657 39.172 28.8907 39.2814 28.922L40.6877 29.3126C40.797 29.3282 40.9064 29.2658 40.9377 29.1563Z" fill="white"/>
<path d="M36.9219 29.3907C36.9687 29.2657 37.1095 29.2187 37.2187 29.2657L40.2344 30.5156C40.3437 30.5624 40.4061 30.7032 40.3594 30.8124C40.3124 30.9375 40.1718 30.9843 40.0624 30.9375L37.0469 29.6876C36.9219 29.6408 36.875 29.5 36.9219 29.3908V29.3907Z" fill="#F3F3F3"/>
<path d="M36.9062 29.3749C36.9291 29.3149 36.9748 29.2664 37.0334 29.24C37.092 29.2136 37.1587 29.2116 37.2188 29.2343L40.2343 30.4843C40.3593 30.5313 40.4061 30.6719 40.3593 30.8126C40.3364 30.8726 40.2907 30.9211 40.2321 30.9475C40.1735 30.9739 40.1069 30.9759 40.0468 30.9532L37.0312 29.7032C36.9062 29.6406 36.8594 29.4999 36.9062 29.3749ZM40.328 30.7969C40.3748 30.6876 40.328 30.5626 40.2187 30.5156L37.2031 29.2656C37.0938 29.2188 36.9844 29.2812 36.9375 29.3906C36.8907 29.4999 36.9375 29.6249 37.0469 29.6719L40.0624 30.9219C40.1718 30.9532 40.2967 30.9063 40.328 30.7969Z" fill="white"/>
<path d="M37.9374 31.5C38 31.3907 38.1248 31.3437 38.2342 31.3907L39.5309 32.047C39.6403 32.0938 39.6872 32.2344 39.6248 32.3595C39.5622 32.4688 39.4372 32.5159 39.3279 32.4688L38.0313 31.8126C37.9218 31.7501 37.8749 31.6094 37.9374 31.5Z" fill="#F3F3F3"/>
<path d="M37.9217 31.4844C37.9843 31.3594 38.1249 31.3126 38.2499 31.3751L39.5467 32.0314C39.6717 32.094 39.7187 32.2346 39.6561 32.3594C39.5937 32.4844 39.4529 32.5314 39.328 32.4688L38.0312 31.8127C37.906 31.7659 37.8593 31.6094 37.9217 31.4844ZM39.6093 32.3438C39.6561 32.2344 39.6248 32.1094 39.5154 32.0627L38.2186 31.4064C38.1248 31.3596 37.9999 31.4064 37.9373 31.5001C37.8906 31.6094 37.9217 31.7344 38.0311 31.7814L39.3279 32.4377C39.4374 32.4844 39.5624 32.4533 39.6093 32.3438Z" fill="white"/>
<path d="M35.6405 31.7968C35.7187 31.6875 35.8437 31.6562 35.9531 31.7343L38.6719 33.5468C38.7812 33.6093 38.7969 33.7501 38.7344 33.8593C38.6562 33.9688 38.5312 33.9999 38.4219 33.9218L35.7031 32.1093C35.5937 32.0312 35.5624 31.8905 35.6405 31.7968Z" fill="#F3F3F3"/>
<path d="M35.625 31.7812C35.7032 31.6719 35.8595 31.6406 35.9689 31.7032L38.6877 33.5156C38.797 33.5936 38.8283 33.7343 38.7501 33.8593C38.672 33.9688 38.5157 33.9999 38.4065 33.9375L35.6876 32.1249C35.5625 32.0469 35.5469 31.8906 35.625 31.7812ZM38.7033 33.8436C38.7657 33.7501 38.7501 33.6093 38.6565 33.5468L35.9376 31.7343C35.8439 31.6719 35.7188 31.7032 35.6563 31.7969C35.5938 31.8906 35.6095 32.0312 35.703 32.0936L38.422 33.9062C38.5157 33.9688 38.6407 33.9375 38.7033 33.8438V33.8436Z" fill="white"/>
<path d="M36.2188 34.0626C36.2968 33.9687 36.4375 33.9376 36.5312 34.0158L37.6718 34.9063C37.7656 34.9844 37.7812 35.125 37.7031 35.2189C37.6251 35.3125 37.4844 35.3439 37.3905 35.2657L36.2499 34.375C36.1563 34.297 36.1405 34.1563 36.2188 34.0626Z" fill="#F3F3F3"/>
<path d="M36.2033 34.047C36.2813 33.9376 36.4376 33.922 36.5469 34.0002L37.6875 34.8907C37.7969 34.9688 37.8125 35.1251 37.7343 35.2344C37.6563 35.3439 37.5 35.3594 37.3908 35.2814L36.25 34.3907C36.1407 34.3126 36.1252 34.1563 36.2033 34.047ZM37.7032 35.2189C37.7812 35.1251 37.7656 35.0001 37.6719 34.922L36.5313 34.0313C36.4376 33.9689 36.3126 33.9846 36.2345 34.0781C36.1563 34.172 36.172 34.297 36.2657 34.375L37.4063 35.2657C37.5 35.3283 37.625 35.3125 37.703 35.2189H37.7032Z" fill="white"/>
<path d="M33.8906 33.9063C33.9845 33.8126 34.1251 33.8126 34.2032 33.9063L36.5156 36.2031C36.6095 36.297 36.5939 36.4376 36.5156 36.5157C36.4221 36.6094 36.2813 36.6094 36.2032 36.5157L33.8906 34.2189C33.8125 34.1407 33.8125 33.9844 33.8906 33.9063Z" fill="#F3F3F3"/>
<path d="M33.8905 33.8906C33.9363 33.8455 33.9981 33.8202 34.0624 33.8202C34.1268 33.8202 34.1885 33.8455 34.2344 33.8906L36.5469 36.1873C36.592 36.2332 36.6173 36.2949 36.6173 36.3592C36.6173 36.4236 36.592 36.4853 36.5469 36.5312C36.501 36.5762 36.4393 36.6015 36.375 36.6015C36.3107 36.6015 36.249 36.5762 36.2032 36.5312L33.8905 34.2344C33.7811 34.1406 33.7811 33.9845 33.8905 33.8906ZM36.5156 36.4999C36.5938 36.4218 36.5938 36.2812 36.5156 36.2031L34.2031 33.9062C34.125 33.8282 33.9844 33.8282 33.9063 33.9062C33.8281 33.9843 33.8281 34.1249 33.9063 34.203L36.2188 36.4999C36.2969 36.5937 36.422 36.5937 36.5156 36.4999Z" fill="white"/>
<path d="M34.0312 36.2343C34.1251 36.1563 34.2656 36.1563 34.3438 36.25L35.2971 37.3437C35.375 37.4376 35.3595 37.5782 35.2656 37.6563C35.1721 37.7344 35.0312 37.7344 34.9532 37.6407L33.9999 36.5469C33.9219 36.4689 33.9375 36.3282 34.0312 36.2343Z" fill="#F3F3F3"/>
<path d="M34.0158 36.2344C34.1251 36.1408 34.2658 36.1563 34.3593 36.25L35.3126 37.3437C35.4063 37.4376 35.3906 37.5937 35.2813 37.6876C35.1719 37.7813 35.0313 37.7657 34.9376 37.672L33.9843 36.5783C33.9063 36.4689 33.9063 36.3126 34.0156 36.2344H34.0158ZM35.2658 37.6563C35.3593 37.5783 35.3593 37.4531 35.2969 37.3595L34.3437 36.2657C34.2656 36.1876 34.1406 36.172 34.0469 36.25C33.9532 36.3283 33.9532 36.4533 34.0156 36.5468L34.9688 37.6407C35.0469 37.7344 35.1721 37.7344 35.2656 37.6563H35.2658Z" fill="white"/>
<path d="M31.7813 35.6408C31.8907 35.5627 32.0313 35.594 32.0939 35.7033L33.9063 38.4063C33.9689 38.5157 33.9376 38.6563 33.8439 38.7189C33.7345 38.797 33.5939 38.7657 33.5313 38.6563L31.7187 35.9532C31.6561 35.844 31.6874 35.7032 31.7811 35.6408H31.7813Z" fill="#F3F3F3"/>
<path d="M31.7812 35.625C31.8906 35.5469 32.0469 35.5782 32.1249 35.6876L33.9374 38.3906C34.0154 38.4998 33.9841 38.6561 33.8593 38.7342C33.7498 38.8124 33.5937 38.7811 33.5155 38.6717L31.7032 35.9687C31.6251 35.8439 31.6564 35.7032 31.7812 35.6252V35.625ZM33.8437 38.703C33.9374 38.6405 33.9687 38.5155 33.9061 38.4218L32.0938 35.7187C32.0312 35.6252 31.9062 35.6094 31.797 35.6719C31.7032 35.7344 31.6719 35.8593 31.7345 35.9532L33.5468 38.6561C33.6093 38.7342 33.75 38.7655 33.8435 38.7029L33.8437 38.703Z" fill="white"/>
<path d="M31.4532 37.9531C31.5626 37.8906 31.7032 37.9219 31.7656 38.0313L32.4845 39.2969C32.5469 39.4063 32.4999 39.5469 32.3906 39.6094C32.2812 39.6719 32.1406 39.6407 32.0782 39.5313L31.3595 38.2656C31.3126 38.1563 31.3439 38.0156 31.4531 37.9532L31.4532 37.9531Z" fill="#F3F3F3"/>
<path d="M31.4531 37.9377C31.5781 37.8751 31.7188 37.9064 31.7812 38.0157L32.4999 39.2815C32.5625 39.3909 32.5312 39.5472 32.4064 39.6096C32.2812 39.6722 32.1406 39.6409 32.0781 39.5315L31.3594 38.2658C31.2968 38.1564 31.3281 38.0157 31.453 37.9377H31.4531ZM32.3906 39.5941C32.4844 39.5315 32.5312 39.4065 32.4688 39.3128L31.7501 38.047C31.6875 37.9533 31.5625 37.922 31.4688 37.9688C31.3749 38.0314 31.3281 38.1564 31.3906 38.2501L32.1094 39.5159C32.1562 39.6096 32.2968 39.6566 32.3906 39.594V39.5941Z" fill="white"/>
<path d="M29.3751 36.922C29.5001 36.8752 29.6251 36.922 29.6721 37.0313L30.9377 40.0469C30.9845 40.1563 30.9221 40.2969 30.8127 40.3437C30.7034 40.3906 30.5627 40.3437 30.516 40.2343L29.2503 37.2189C29.2034 37.1094 29.2658 36.9689 29.3751 36.922Z" fill="#F3F3F3"/>
<path d="M29.3749 36.9063C29.4999 36.8596 29.6406 36.9063 29.7031 37.0313L30.9687 40.047C30.9914 40.1071 30.9893 40.1737 30.9629 40.2322C30.9366 40.2908 30.8881 40.3365 30.8281 40.3594C30.7031 40.4063 30.5625 40.3594 30.5 40.2344L29.2345 37.2189C29.1875 37.1094 29.2501 36.9689 29.3749 36.9063ZM30.7968 40.3283C30.9062 40.2813 30.9531 40.1563 30.9062 40.0626L29.6406 37.047C29.5938 36.9376 29.4688 36.8907 29.3595 36.9376C29.2501 36.9844 29.203 37.1094 29.2501 37.2033L30.5155 40.2189C30.5781 40.3283 30.6875 40.375 30.7968 40.3283Z" fill="white"/>
<path d="M28.6093 39.1408C28.7344 39.094 28.8593 39.1564 28.9062 39.2814L29.3594 40.6564C29.4062 40.7658 29.3281 40.9064 29.2188 40.9377C29.0938 40.9845 28.9688 40.9221 28.922 40.7971L28.4688 39.4221C28.422 39.3127 28.4844 39.1877 28.6094 39.1408H28.6093Z" fill="#F3F3F3"/>
<path d="M28.5941 39.1251C28.6542 39.1024 28.7208 39.1045 28.7794 39.1309C28.8379 39.1573 28.8837 39.2057 28.9066 39.2657L29.3598 40.6407C29.4066 40.7657 29.3286 40.9063 29.2034 40.9532C29.1433 40.9759 29.0767 40.9738 29.0181 40.9474C28.9595 40.9211 28.9138 40.8726 28.8909 40.8126L28.4378 39.4377C28.4065 39.3127 28.4691 39.172 28.5941 39.1251ZM29.2035 40.9218C29.3129 40.8907 29.3753 40.7657 29.3442 40.6563L28.8909 39.2814C28.8598 39.172 28.7348 39.1251 28.6254 39.1564C28.5159 39.1877 28.4534 39.3127 28.4847 39.422L28.9379 40.7969C28.9458 40.8235 28.9593 40.848 28.9774 40.869C28.9954 40.89 29.0177 40.9069 29.0428 40.9187C29.0679 40.9305 29.0951 40.9369 29.1228 40.9374C29.1505 40.938 29.178 40.9327 29.2035 40.9219V40.9218Z" fill="white"/>
<path d="M26.7658 37.7189C26.8906 37.6877 27.0158 37.7657 27.0313 37.8907L27.6877 41.0941C27.719 41.2189 27.6251 41.3284 27.5001 41.3595C27.3752 41.3908 27.25 41.3128 27.2345 41.1878L26.578 37.9844C26.5625 37.8751 26.6406 37.7501 26.7656 37.7188L26.7658 37.7189Z" fill="#F3F3F3"/>
<path d="M26.7658 37.7028C26.9063 37.6717 27.0312 37.7654 27.0625 37.8904L27.7187 41.0939C27.75 41.2187 27.6561 41.3594 27.5312 41.375C27.3905 41.4063 27.2656 41.3126 27.2344 41.1876L26.5781 37.9841C26.547 37.8591 26.6252 37.7341 26.7656 37.703L26.7658 37.7028ZM27.4999 41.3437C27.6094 41.3283 27.6874 41.2187 27.6718 41.0937L27.0156 37.8904C27.0001 37.781 26.8751 37.703 26.7656 37.7341C26.6563 37.7497 26.5782 37.8591 26.5939 37.9841L27.2501 41.1876C27.2812 41.297 27.3905 41.3594 27.5 41.3439L27.4999 41.3437Z" fill="white"/>
<path d="M25.5783 39.7499C25.7033 39.7343 25.8126 39.8125 25.8439 39.9375L26.0313 41.3749C26.047 41.4998 25.9533 41.6092 25.8281 41.6248C25.7033 41.6405 25.5939 41.5624 25.5627 41.4374L25.3752 39.9999C25.3596 39.8749 25.4533 39.7656 25.5783 39.7499Z" fill="#F3F3F3"/>
<path d="M25.5781 39.7345C25.7188 39.719 25.8438 39.8127 25.8595 39.9377L26.047 41.3752C26.0626 41.5002 25.9689 41.6252 25.8282 41.6408C25.6875 41.6565 25.5624 41.5628 25.5468 41.4376L25.3592 40.0001C25.3436 39.8751 25.4373 39.7501 25.5781 39.7345ZM25.8125 41.6096C25.9219 41.5941 26.0158 41.4845 26.0002 41.3752L25.8125 39.9377C25.7969 39.8283 25.6875 39.7501 25.5781 39.7658C25.4687 39.7814 25.3747 39.8908 25.3904 40.0001L25.5781 41.4378C25.5937 41.5471 25.7031 41.6252 25.8125 41.6096Z" fill="white"/>
<path d="M23.9688 37.9999C24.0938 37.9999 24.2032 38.0938 24.2032 38.2188V41.4843C24.2032 41.6093 24.0938 41.7032 23.9688 41.7032C23.8438 41.7032 23.7345 41.6093 23.7345 41.4843V38.2188C23.7501 38.0938 23.8438 37.9999 23.9688 37.9999Z" fill="#F3F3F3"/>
<path d="M23.9687 37.9843C24.1094 37.9843 24.2187 38.0936 24.2187 38.2186V41.4843C24.2187 41.6093 24.1094 41.7186 23.9687 41.7186C23.8281 41.7186 23.7188 41.6093 23.7188 41.4843V38.2188C23.7188 38.0938 23.8437 37.9843 23.9687 37.9843ZM23.9687 41.6875C24.0781 41.6875 24.1874 41.5938 24.1874 41.4843V38.2188C24.1874 38.1093 24.0937 38.0155 23.9687 38.0155C23.8594 38.0155 23.75 38.1093 23.75 38.2188V41.4843C23.7655 41.5938 23.8594 41.6875 23.9687 41.6875Z" fill="white"/>
<path d="M22.4063 39.75C22.5313 39.7656 22.6251 39.8594 22.6251 39.9843L22.5157 41.4376C22.5002 41.5626 22.3907 41.6563 22.2657 41.6408C22.1407 41.625 22.047 41.5313 22.047 41.4063L22.1563 39.9531C22.172 39.8282 22.2813 39.7344 22.4063 39.75Z" fill="#F3F3F3"/>
<path d="M22.4062 39.7345C22.5469 39.7501 22.6406 39.8595 22.6406 39.9845L22.5312 41.4378C22.5156 41.5628 22.4062 41.6721 22.2656 41.6565C22.1251 41.6408 22.0312 41.5315 22.0312 41.4065L22.1406 39.9532C22.1562 39.8127 22.2656 39.719 22.4062 39.7345ZM22.2656 41.6252C22.375 41.6252 22.4845 41.5471 22.4845 41.4378L22.5938 39.9845C22.5938 39.8751 22.5156 39.7814 22.3906 39.7657C22.2812 39.7657 22.1719 39.8438 22.1719 39.9533L22.0625 41.4065C22.0625 41.5158 22.1562 41.6097 22.2658 41.6252H22.2656Z" fill="white"/>
<path d="M21.2344 37.7187C21.3594 37.7498 21.4375 37.8592 21.4218 37.9842L20.7812 41.1877C20.7499 41.3127 20.6406 41.3909 20.5156 41.3595C20.3906 41.3283 20.3125 41.219 20.3282 41.0938L20.9688 37.8905C20.9844 37.7811 21.1094 37.703 21.2344 37.7187Z" fill="#F3F3F3"/>
<path d="M21.2346 37.7029C21.3751 37.7342 21.4533 37.8594 21.4377 37.9842L20.797 41.1876C20.7657 41.3126 20.6407 41.4063 20.5002 41.375C20.3596 41.3437 20.2814 41.2187 20.297 41.0937L20.9377 37.8905C20.969 37.7655 21.094 37.6873 21.2344 37.7031L21.2346 37.7029ZM20.5002 41.3437C20.6096 41.3593 20.719 41.2969 20.7502 41.1876L21.3907 37.9842C21.4064 37.8749 21.344 37.7655 21.219 37.7342C21.1096 37.7187 21.0002 37.7811 20.969 37.8907L20.3283 41.0937C20.3127 41.2187 20.3907 41.3126 20.5002 41.3437Z" fill="white"/>
<path d="M19.3596 39.1252C19.4848 39.1565 19.5628 39.2815 19.5315 39.4065L19.1409 40.8126C19.1098 40.9376 18.9848 41 18.8598 40.9689C18.83 40.9617 18.8019 40.9488 18.7772 40.9308C18.7524 40.9128 18.7314 40.89 18.7155 40.8639C18.6995 40.8378 18.6888 40.8088 18.6841 40.7785C18.6793 40.7483 18.6806 40.7174 18.6878 40.6876L19.0785 39.2815C19.1098 39.1565 19.2348 39.0941 19.3598 39.1252H19.3596Z" fill="#F3F3F3"/>
<path d="M19.3594 39.1097C19.4846 39.1409 19.5783 39.2815 19.5314 39.4065L19.1407 40.8128C19.1096 40.9378 18.969 41.016 18.844 40.9845C18.719 40.9534 18.6253 40.8128 18.672 40.6878L19.0627 39.2815C19.094 39.1565 19.2189 39.0783 19.3594 39.1096V39.1097ZM18.844 40.9378C18.9533 40.969 19.0783 40.9065 19.1096 40.7971L19.5001 39.3908C19.5314 39.2815 19.4689 39.1721 19.3439 39.1409C19.2346 39.1096 19.1096 39.1721 19.0783 39.2815L18.6877 40.6878C18.672 40.7971 18.7344 40.9065 18.844 40.9378Z" fill="white"/>
<path d="M18.5937 36.922C18.7187 36.9687 18.7654 37.1094 18.7187 37.2187L17.4687 40.2344C17.4219 40.3439 17.2811 40.4063 17.1719 40.3439C17.0624 40.2813 16.9998 40.1563 17.0468 40.047L18.2967 37.0313C18.3435 36.922 18.4843 36.8594 18.5935 36.922H18.5937Z" fill="#F3F3F3"/>
<path d="M18.5936 36.9062C18.6536 36.9291 18.7022 36.9748 18.7285 37.0334C18.7549 37.092 18.757 37.1587 18.7343 37.2188L17.4842 40.2342C17.4373 40.3592 17.2966 40.4062 17.156 40.3592C17.096 40.3363 17.0475 40.2906 17.0212 40.2321C16.9948 40.1735 16.9927 40.1069 17.0154 40.0468L18.2654 37.0312C18.328 36.9062 18.4686 36.8438 18.5936 36.9062ZM17.1716 40.3281C17.281 40.3749 17.406 40.3281 17.4529 40.2187L18.703 37.2031C18.7497 37.0938 18.6873 36.9843 18.578 36.9375C18.4686 36.8907 18.3436 36.9375 18.2967 37.0468L17.0466 40.0624C17.0154 40.1562 17.0623 40.2812 17.1716 40.3281Z" fill="white"/>
<path d="M16.4845 37.9221C16.5938 37.9845 16.6406 38.1095 16.5938 38.2188L15.9375 39.5155C15.875 39.6248 15.75 39.6718 15.625 39.6092C15.5156 39.5468 15.4688 39.4218 15.5156 39.3125L16.1721 38.0159C16.2345 37.9064 16.3595 37.8595 16.4845 37.9221Z" fill="#F3F3F3"/>
<path d="M16.4846 37.9064C16.6096 37.9688 16.6564 38.1096 16.594 38.2345L15.9377 39.5313C15.8751 39.6563 15.7345 39.7032 15.6096 39.6407C15.4846 39.5782 15.4377 39.4374 15.5003 39.3126L16.1564 38.0159C16.219 37.8908 16.3596 37.844 16.4846 37.9064ZM15.6253 39.6095C15.7346 39.6563 15.8596 39.625 15.9064 39.5157L16.5627 38.219C16.6094 38.1251 16.5627 38.0001 16.469 37.9377C16.3596 37.8909 16.2346 37.9221 16.1877 38.0314L15.5314 39.3281C15.4846 39.422 15.5314 39.547 15.6253 39.6094V39.6095Z" fill="white"/>
<path d="M16.1719 35.6096C16.2812 35.6876 16.3125 35.8283 16.2344 35.922L14.4219 38.6254C14.3595 38.7346 14.2187 38.7503 14.1095 38.6879C14.0001 38.6096 13.9688 38.4691 14.0469 38.3753L15.8594 35.6718C15.9219 35.5626 16.0625 35.5313 16.1719 35.6094V35.6096Z" fill="#F3F3F3"/>
<path d="M16.1719 35.5938C16.2813 35.672 16.3126 35.8283 16.25 35.9376L14.4375 38.6409C14.3594 38.7501 14.2188 38.7814 14.0938 38.7033C13.9844 38.6251 13.9531 38.469 14.0156 38.3594L15.8282 35.6563C15.9063 35.547 16.0625 35.5157 16.1719 35.5938ZM14.1094 38.672C14.203 38.7344 14.3438 38.7188 14.4062 38.6253L16.2188 35.922C16.2813 35.8283 16.2501 35.7033 16.1563 35.6407C16.0625 35.5783 15.9219 35.5939 15.8595 35.6875L14.0468 38.3751C13.9844 38.469 14.0156 38.6094 14.1094 38.6719V38.672Z" fill="white"/>
<path d="M13.8907 36.1876C13.9846 36.2657 14.0157 36.4063 13.9376 36.5L13.0313 37.6406C12.9533 37.7343 12.8126 37.75 12.7189 37.6719C12.6252 37.5938 12.5939 37.4532 12.6722 37.3593L13.5783 36.2187C13.6563 36.1252 13.797 36.1094 13.8907 36.1876Z" fill="#F3F3F3"/>
<path d="M13.9063 36.172C14.0157 36.2501 14.0313 36.4064 13.9531 36.5158L13.0469 37.6565C12.9689 37.7658 12.8126 37.7815 12.7032 37.6878C12.5939 37.6095 12.5782 37.4534 12.6564 37.3439L13.5626 36.2033C13.6407 36.0938 13.7969 36.0783 13.9063 36.172ZM12.7345 37.6565C12.8281 37.7345 12.9532 37.719 13.0313 37.6252L13.9376 36.4845C14.0002 36.3909 13.9844 36.2658 13.8908 36.1877C13.7969 36.1095 13.6719 36.1251 13.5939 36.219L12.6876 37.3595C12.6252 37.4534 12.6408 37.5939 12.7344 37.6565H12.7345Z" fill="white"/>
<path d="M14.0468 33.8438C14.1405 33.9374 14.1405 34.0782 14.0468 34.1563L11.7344 36.453C11.6405 36.5469 11.5001 36.5313 11.4218 36.453C11.3438 36.375 11.3281 36.2187 11.4218 36.1406L13.7185 33.8438C13.8124 33.75 13.9531 33.75 14.0468 33.8438Z" fill="#F3F3F3"/>
<path d="M14.0625 33.8283C14.1075 33.8741 14.1327 33.9358 14.1327 34C14.1327 34.0643 14.1075 34.126 14.0625 34.1718L11.75 36.469C11.7042 36.514 11.6425 36.5392 11.5782 36.5392C11.514 36.5392 11.4523 36.514 11.4065 36.469C11.3613 36.4231 11.3361 36.3614 11.3361 36.297C11.3361 36.2327 11.3613 36.1709 11.4065 36.1251L13.7188 33.8283C13.7646 33.7832 13.8264 33.7579 13.8907 33.7579C13.9549 33.7579 14.0167 33.7832 14.0625 33.8283ZM11.4219 36.4532C11.5 36.5312 11.6406 36.5312 11.7187 36.4532L14.0312 34.1562C14.1094 34.0781 14.1094 33.9374 14.0312 33.8594C13.9531 33.7812 13.8125 33.7812 13.7344 33.8594L11.4219 36.1562C11.3439 36.2343 11.3439 36.3594 11.4219 36.453V36.4532Z" fill="white"/>
<path d="M11.7032 33.969C11.7812 34.0625 11.7812 34.2033 11.6875 34.2814L10.5782 35.2191C10.4845 35.2971 10.3438 35.2815 10.2656 35.1878C10.1875 35.0939 10.1875 34.9534 10.2812 34.8752L11.3906 33.9377C11.4845 33.8594 11.6249 33.8751 11.7032 33.969Z" fill="#F3F3F3"/>
<path d="M11.7187 33.9531C11.8124 34.0626 11.7968 34.2187 11.703 34.297L10.5937 35.2343C10.5 35.3282 10.3437 35.3125 10.25 35.2032C10.1561 35.0937 10.1717 34.9376 10.2655 34.8593L11.375 33.922C11.4685 33.8283 11.625 33.8439 11.7185 33.9533L11.7187 33.9531ZM10.2811 35.1875C10.3593 35.2812 10.4843 35.2812 10.5779 35.2188L11.6874 34.2813C11.7655 34.2033 11.7811 34.0781 11.703 33.9846C11.6248 33.8907 11.4998 33.8907 11.4063 33.9533L10.2967 34.8906C10.203 34.9687 10.203 35.0938 10.2811 35.1874V35.1875Z" fill="white"/>
<path d="M12.3283 31.7187C12.4064 31.8282 12.3751 31.9687 12.2657 32.0313L9.54704 33.8437C9.43769 33.9062 9.29704 33.8749 9.23462 33.7812C9.1564 33.6718 9.18769 33.5312 9.29704 33.4686L12.0159 31.6563C12.1098 31.5939 12.2502 31.625 12.3285 31.7187H12.3283Z" fill="#F3F3F3"/>
<path d="M12.3438 31.7187C12.4218 31.8283 12.3905 31.9844 12.2812 32.0626L9.56254 33.875C9.45318 33.9532 9.2969 33.9218 9.21883 33.7969C9.14061 33.6876 9.17206 33.5313 9.28125 33.4532L12.0001 31.6407C12.1094 31.5626 12.2655 31.5939 12.3436 31.7187H12.3438ZM9.25012 33.7656C9.31254 33.8594 9.43754 33.8906 9.53125 33.8282L12.2499 32.0157C12.3438 31.9533 12.3749 31.8283 12.2968 31.7189C12.2344 31.625 12.1094 31.5939 12.0155 31.6563L9.2969 33.4689C9.20319 33.5469 9.18754 33.6719 9.25012 33.7656Z" fill="white"/>
<path d="M10.0001 31.3907C10.0626 31.5 10.0314 31.6406 9.922 31.7032L8.65634 32.4218C8.54698 32.4843 8.40633 32.4375 8.34391 32.3281C8.28133 32.2188 8.31262 32.0782 8.42198 32.0156L9.68764 31.297C9.797 31.2344 9.93764 31.2813 10.0002 31.3907H10.0001Z" fill="#F3F3F3"/>
<path d="M10.0158 31.375C10.0782 31.5 10.047 31.6406 9.9376 31.7032L8.67197 32.4219C8.56262 32.4843 8.40633 32.4375 8.34391 32.3282C8.28133 32.2032 8.31262 32.0625 8.42198 32L9.68761 31.2813C9.79696 31.2188 9.95325 31.2657 10.0157 31.375H10.0158ZM8.3594 32.3125C8.42198 32.4219 8.54698 32.4532 8.64068 32.3906L9.90631 31.6719C10 31.6094 10.0313 31.4844 9.98454 31.3907C9.92196 31.2813 9.79696 31.25 9.70325 31.3126L8.43762 32.0313C8.34391 32.078 8.31262 32.2032 8.35956 32.3125H8.3594Z" fill="white"/>
<path d="M11.0467 29.3126C11.0935 29.4376 11.0467 29.5626 10.9217 29.6094L7.90606 30.8594C7.79671 30.9063 7.65606 30.8439 7.60929 30.7344C7.56235 30.6094 7.60929 30.4844 7.73429 30.4376L10.7499 29.1876C10.8593 29.1408 10.9999 29.1876 11.0467 29.3126Z" fill="#F3F3F3"/>
<path d="M11.0624 29.297C11.1091 29.422 11.0624 29.5626 10.9374 29.6251L7.92171 30.875C7.86162 30.8977 7.795 30.8956 7.73645 30.8692C7.67789 30.8429 7.63217 30.7944 7.60929 30.7344C7.56235 30.6094 7.60929 30.4688 7.73429 30.4063L10.7499 29.1563C10.81 29.1337 10.8766 29.1358 10.9352 29.1621C10.9937 29.1885 11.0395 29.237 11.0624 29.297ZM7.64042 30.7188C7.68735 30.8283 7.81235 30.8752 7.90606 30.8438L10.9217 29.5938C11.0311 29.547 11.078 29.422 11.0311 29.3126C10.9843 29.2033 10.8593 29.1563 10.7654 29.1876L7.74977 30.4376C7.64042 30.4844 7.59364 30.6094 7.64042 30.7189V30.7188Z" fill="white"/>
<path d="M8.84384 28.5313C8.89061 28.6563 8.82819 28.7813 8.70319 28.8281L7.32818 29.2813C7.21883 29.328 7.07818 29.25 7.04689 29.1406C7.00012 29.0156 7.06254 28.8906 7.18754 28.8439L8.56255 28.3906C8.6719 28.3439 8.7969 28.4063 8.84384 28.5313Z" fill="#F3F3F3"/>
<path d="M8.85903 28.5157C8.90597 28.6407 8.84355 28.7813 8.7029 28.8283L7.32792 29.2814C7.20292 29.3282 7.06228 29.2501 7.01534 29.1251C6.96857 29.0001 7.03099 28.8594 7.17179 28.8126L8.54662 28.3594C8.67161 28.3282 8.81226 28.3907 8.85919 28.5158L8.85903 28.5157ZM7.0468 29.1096C7.07809 29.219 7.20308 29.2816 7.31244 29.2503L8.68742 28.797C8.79677 28.7659 8.84371 28.6408 8.81242 28.5315C8.78113 28.4221 8.65613 28.3595 8.54678 28.3908L7.17179 28.8441C7.06244 28.8909 7.01551 29.0002 7.0468 29.1096Z" fill="white"/>
<path d="M10.2502 26.6719C10.2813 26.7969 10.2033 26.9219 10.0783 26.9376L6.87505 27.5626C6.75005 27.5939 6.6407 27.5 6.60957 27.375C6.57828 27.25 6.65634 27.125 6.78134 27.1094L9.98455 26.4844C10.1095 26.4689 10.2345 26.5469 10.25 26.6719H10.2502Z" fill="#F3F3F3"/>
<path d="M10.2812 26.672C10.3125 26.8126 10.2188 26.9376 10.0938 26.9688L6.8906 27.5938C6.7656 27.625 6.6406 27.5313 6.60947 27.3907C6.57818 27.25 6.67189 27.1251 6.79689 27.0939L10.0001 26.4689C10.125 26.4376 10.2501 26.5313 10.2812 26.672ZM6.6406 27.3752C6.65624 27.4844 6.7656 27.5626 6.87495 27.547L10.0782 26.922C10.1875 26.9063 10.2656 26.7813 10.2345 26.672C10.2188 26.5626 10.1095 26.4844 9.99995 26.5001L6.79689 27.1251C6.68753 27.1563 6.60947 27.2657 6.6406 27.375V27.3752Z" fill="white"/>
<path d="M8.25016 25.4689C8.26564 25.5938 8.18757 25.7033 8.06257 25.7189L6.62516 25.8908C6.49999 25.9064 6.39064 25.8127 6.37516 25.6875C6.35951 25.5626 6.43758 25.4532 6.56258 25.4374L8.00016 25.2656C8.10951 25.25 8.23451 25.3437 8.25016 25.4689Z" fill="#F3F3F3"/>
<path d="M8.26591 25.4688C8.28139 25.6093 8.18768 25.7343 8.06268 25.7499L6.62526 25.9218C6.5001 25.9375 6.37526 25.8438 6.35962 25.7032C6.34397 25.5625 6.43768 25.4375 6.56268 25.4219L8.00026 25.25C8.1251 25.2343 8.25026 25.3282 8.26575 25.4687L8.26591 25.4688ZM6.3751 25.6875C6.39075 25.7969 6.50026 25.8907 6.60962 25.8749L8.04704 25.7032C8.15639 25.6875 8.23462 25.5782 8.21897 25.4688C8.20333 25.3593 8.09397 25.2656 7.98462 25.2813L6.54704 25.4532C6.43768 25.4688 6.35962 25.5782 6.3751 25.6875Z" fill="white"/>
<path d="M9.99988 23.9531C9.99988 24.0782 9.90633 24.1876 9.78117 24.1876H6.51571C6.39071 24.1876 6.297 24.0782 6.297 23.9532C6.297 23.8283 6.39071 23.7188 6.51571 23.7188H9.78133C9.90633 23.7188 10.0002 23.8283 10.0002 23.9532L9.99988 23.9531Z" fill="#F3F3F3"/>
<path d="M10.0158 23.953C10.0158 24.0938 9.90633 24.203 9.78133 24.203H6.51585C6.39085 24.203 6.28149 24.0936 6.28149 23.953C6.28149 23.8125 6.39085 23.703 6.51585 23.703H9.78149C9.90649 23.703 10.0158 23.8125 10.0158 23.953ZM6.31262 23.9375C6.31262 24.0469 6.40633 24.1562 6.51585 24.1562H9.78133C9.89069 24.1562 9.98456 24.0625 9.98456 23.9375C9.98456 23.8282 9.89069 23.7186 9.78133 23.7186H6.51585C6.40649 23.7343 6.31278 23.8282 6.31278 23.9375H6.31262Z" fill="white"/>
<path d="M8.26604 22.375C8.25023 22.5 8.15652 22.5937 8.03152 22.5937L6.57828 22.4843C6.45344 22.4687 6.35973 22.3593 6.37521 22.2343C6.39086 22.1093 6.48473 22.0156 6.60973 22.0156L8.06281 22.125C8.17217 22.1406 8.26604 22.25 8.26604 22.375Z" fill="#E2E2E2"/>
<path d="M8.28117 22.375C8.26552 22.5156 8.15617 22.6094 8.03117 22.6094L6.57795 22.5C6.45312 22.4844 6.34376 22.375 6.35941 22.2344C6.37489 22.0939 6.48441 22 6.60941 22L8.06246 22.1094C8.18746 22.125 8.28117 22.25 8.28117 22.375ZM6.37489 22.2344C6.35941 22.3437 6.45312 22.4532 6.56247 22.4532L8.01569 22.5626C8.12488 22.5626 8.21875 22.4844 8.2344 22.3594C8.25004 22.25 8.15617 22.1406 8.04682 22.1406L6.5936 22.0313C6.48441 22.0313 6.39054 22.125 6.37489 22.2345V22.2344Z" fill="white"/>
<path d="M10.2811 21.2343C10.2498 21.3593 10.1404 21.4375 10.0154 21.4219L6.81238 20.7656C6.68738 20.7343 6.60915 20.625 6.64045 20.5C6.67174 20.375 6.78109 20.2968 6.90609 20.3126L10.1093 20.9532C10.2187 20.9843 10.2967 21.1093 10.2811 21.2343Z" fill="#F3F3F3"/>
<path d="M10.297 21.2344C10.2657 21.3751 10.1407 21.4533 10.0157 21.4377L6.81263 20.797C6.68763 20.7657 6.59392 20.6407 6.62521 20.5002C6.65634 20.3594 6.78134 20.2814 6.90634 20.297L10.1095 20.9377C10.2345 20.9689 10.3126 21.0939 10.297 21.2344ZM6.65634 20.5001C6.6407 20.6094 6.70312 20.7188 6.81263 20.7501L10.0158 21.3907C10.1252 21.4064 10.2345 21.3439 10.2658 21.2188C10.2813 21.1094 10.2189 21.0001 10.1094 20.9688L6.9065 20.3283C6.7815 20.3127 6.68779 20.3907 6.6565 20.5001H6.65634Z" fill="white"/>
<path d="M8.87537 19.3595C8.8682 19.3892 8.85523 19.4173 8.83721 19.442C8.81918 19.4668 8.79646 19.4877 8.77033 19.5037C8.74421 19.5196 8.71519 19.5303 8.68495 19.535C8.65471 19.5397 8.62383 19.5385 8.59408 19.5312L7.18777 19.1406C7.06277 19.1093 7.00035 18.9843 7.03148 18.8593C7.03865 18.8296 7.05162 18.8015 7.06964 18.7768C7.08767 18.7521 7.11039 18.7311 7.13652 18.7152C7.16264 18.6992 7.19165 18.6886 7.2219 18.6838C7.25214 18.6791 7.28302 18.6804 7.31277 18.6876L8.71908 19.0782C8.84408 19.1093 8.9065 19.2343 8.87537 19.3593V19.3595Z" fill="#F3F3F3"/>
<path d="M8.89048 19.3594C8.85935 19.4842 8.7187 19.5781 8.5937 19.5312L7.18738 19.1405C7.06238 19.1092 6.98415 18.9686 7.01545 18.8438C7.04674 18.7186 7.18738 18.6249 7.31239 18.6719L8.7187 19.0625C8.8437 19.0938 8.92193 19.2188 8.89048 19.3592V19.3594ZM7.06238 18.8435C7.03109 18.953 7.09367 19.078 7.20303 19.1091L8.60934 19.4997C8.7187 19.531 8.82806 19.4684 8.85935 19.3434C8.89048 19.2341 8.82806 19.1091 8.7187 19.078L7.31239 18.6873C7.20303 18.6717 7.09367 18.7341 7.06238 18.8436V18.8435Z" fill="white"/>
<path d="M11.078 18.6096C11.0313 18.7344 10.8905 18.7813 10.7813 18.7344L7.76546 17.4844C7.6561 17.4376 7.59368 17.297 7.64046 17.1877C7.68739 17.0627 7.82804 17.0157 7.93739 17.0627L10.953 18.3126C11.078 18.3594 11.125 18.5 11.078 18.6094V18.6096Z" fill="#F3F3F3"/>
<path d="M11.0937 18.6251C11.0708 18.6851 11.0251 18.7336 10.9665 18.76C10.9079 18.7863 10.8412 18.7884 10.7811 18.7657L7.76547 17.5157C7.64047 17.469 7.59369 17.3283 7.64047 17.1877C7.66335 17.1276 7.7091 17.0791 7.76769 17.0527C7.82629 17.0264 7.89294 17.0243 7.95305 17.047L10.9687 18.297C11.0937 18.3594 11.1405 18.5002 11.0937 18.6251ZM7.67176 17.2033C7.62498 17.3127 7.67176 17.4377 7.78111 17.4844L10.7968 18.7344C10.9061 18.7813 11.0155 18.7188 11.0624 18.6094C11.1092 18.5001 11.0624 18.3751 10.9531 18.3283L7.93741 17.0783C7.82805 17.047 7.70305 17.094 7.67176 17.2033Z" fill="white"/>
<path d="M10.0626 16.5001C10.0002 16.6094 9.8752 16.6564 9.76585 16.6094L8.46891 15.9533C8.35956 15.9063 8.31262 15.7657 8.3752 15.6407C8.43762 15.5313 8.56262 15.4844 8.67198 15.5313L9.96875 16.1876C10.0783 16.2501 10.1252 16.3909 10.0626 16.5001Z" fill="#F3F3F3"/>
<path d="M10.0784 16.5158C10.0158 16.6408 9.87513 16.6877 9.75013 16.6251L8.45336 15.9688C8.32836 15.9064 8.28143 15.7657 8.34401 15.6407C8.40643 15.5157 8.54723 15.4688 8.67207 15.5314L9.96884 16.1877C10.094 16.2345 10.1408 16.3909 10.0784 16.5158ZM8.39078 15.6564C8.34401 15.7657 8.3753 15.8907 8.48465 15.9377L9.78142 16.594C9.87529 16.6408 10.0003 16.594 10.0627 16.5001C10.1095 16.3908 10.0784 16.2658 9.969 16.2188L8.65627 15.5628C8.56256 15.5161 8.43756 15.5472 8.39062 15.6566L8.39078 15.6564Z" fill="white"/>
<path d="M12.3593 16.2031C12.2812 16.3126 12.1562 16.3439 12.0468 16.2657L9.34355 14.4689C9.23435 14.4063 9.21871 14.2657 9.28113 14.1563C9.34371 14.047 9.48436 14.0157 9.59371 14.0938L12.3125 15.9063C12.4062 15.9689 12.4375 16.1096 12.3593 16.2031Z" fill="#F3F3F3"/>
<path d="M12.3748 16.2187C12.2968 16.3282 12.1405 16.3593 12.0313 16.2969L9.32809 14.4843C9.21873 14.4062 9.18744 14.2656 9.26551 14.1408C9.34373 14.0312 9.50002 14 9.60938 14.0625L12.3124 15.875C12.4374 15.9532 12.4531 16.1093 12.3748 16.2187ZM9.2968 14.1562C9.23438 14.25 9.25002 14.3906 9.34357 14.453L12.0624 16.2658C12.1561 16.3283 12.2811 16.2971 12.3437 16.2033C12.4061 16.1095 12.3905 15.9688 12.2969 15.9064L9.57792 14.0938C9.48422 14.0312 9.35922 14.0625 9.29664 14.1562H9.2968Z" fill="white"/>
<path d="M11.7813 13.9376C11.7032 14.0313 11.5626 14.0626 11.4689 13.9843L10.3282 13.0939C10.2345 13.0157 10.2189 12.875 10.2969 12.7813C10.375 12.6876 10.5156 12.6563 10.6095 12.7345L11.75 13.625C11.8439 13.7032 11.8595 13.8437 11.7813 13.9376Z" fill="#F3F3F3"/>
<path d="M11.7969 13.9531C11.7189 14.0626 11.5626 14.0782 11.4532 14L10.3126 13.1095C10.2032 13.0315 10.1876 12.8752 10.2658 12.766C10.3439 12.6565 10.5002 12.6408 10.6094 12.7191L11.75 13.6095C11.8595 13.6877 11.8751 13.8439 11.7969 13.9534V13.9531ZM10.2969 12.7813C10.2189 12.875 10.2345 13 10.3282 13.0781L11.4689 13.9689C11.5626 14.0313 11.6876 14.0156 11.7656 13.9219C11.8439 13.8282 11.8282 13.7032 11.7345 13.6252L10.5939 12.7344C10.5002 12.672 10.375 12.6876 10.2971 12.7813H10.2969Z" fill="white"/>
<path d="M14.1093 14.0937C14.0157 14.1876 13.8749 14.1876 13.7969 14.0937L11.4689 11.7969C11.3752 11.7032 11.3907 11.5626 11.4689 11.4843C11.5626 11.3908 11.7033 11.3908 11.7813 11.4843L14.094 13.7813C14.1877 13.8594 14.1877 14.0157 14.1096 14.0939L14.1093 14.0937Z" fill="#F3F3F3"/>
<path d="M14.1095 14.1095C14.0636 14.1545 14.002 14.1797 13.9377 14.1797C13.8735 14.1797 13.8118 14.1545 13.7659 14.1095L11.4532 11.8124C11.4081 11.7665 11.3828 11.7048 11.3828 11.6404C11.3828 11.5761 11.4081 11.5144 11.4532 11.4685C11.4991 11.4234 11.5608 11.3982 11.6251 11.3982C11.6894 11.3982 11.7511 11.4234 11.7969 11.4685L14.1095 13.7654C14.2188 13.8591 14.2188 14.0154 14.1095 14.1091V14.1095ZM11.4848 11.4998C11.4066 11.578 11.4066 11.7187 11.4848 11.7966L13.7972 14.0935C13.8754 14.1717 14.0159 14.1717 14.094 14.0935C14.1722 14.0154 14.1722 13.8748 14.094 13.7967L11.7816 11.4843C11.7035 11.4063 11.5784 11.4063 11.4848 11.5V11.4998Z" fill="white"/>
<path d="M13.9687 11.7656C13.875 11.8439 13.7344 11.8439 13.6562 11.75L12.703 10.6563C12.6251 10.5626 12.6405 10.4219 12.7344 10.3439C12.828 10.2656 12.9688 10.2656 13.0468 10.3593L14 11.4532C14.0781 11.5313 14.0625 11.6719 13.9687 11.7656Z" fill="#F3F3F3"/>
<path d="M13.9844 11.7657C13.8751 11.8594 13.7344 11.8439 13.6406 11.75L12.6875 10.6563C12.5938 10.5626 12.6094 10.4063 12.7188 10.3126C12.8281 10.2187 12.9688 10.2344 13.0625 10.3282L14.0157 11.4218C14.0938 11.5313 14.0938 11.6876 13.9844 11.7657ZM12.7344 10.3439C12.6406 10.4219 12.6406 10.5469 12.7031 10.6406L13.6564 11.7344C13.7344 11.8126 13.8594 11.8282 13.9531 11.75C14.0468 11.6719 14.0468 11.5468 13.9844 11.4532L13.0312 10.3594C12.9531 10.2658 12.828 10.2658 12.7344 10.3439Z" fill="white"/>
<path d="M16.2188 12.3596C16.1095 12.4376 15.9688 12.4064 15.9063 12.297L14.0782 9.59379C14.0156 9.48444 14.0469 9.3438 14.1406 9.28138C14.25 9.20331 14.3906 9.2346 14.4532 9.34396L16.2656 12.047C16.3438 12.1564 16.3126 12.297 16.2188 12.3594V12.3596Z" fill="#F3F3F3"/>
<path d="M16.2189 12.375C16.1095 12.4532 15.9532 12.4217 15.875 12.3125L14.0627 9.6093C13.9846 9.49995 14.0159 9.34382 14.1407 9.26575C14.2501 9.18753 14.4064 9.21882 14.4846 9.32817L16.2969 12.0313C16.375 12.1563 16.3437 12.2969 16.2189 12.375ZM14.1562 9.29688C14.0625 9.3593 14.0312 9.4843 14.0938 9.57817L15.9061 12.2813C15.9687 12.375 16.0937 12.3906 16.2029 12.328C16.2968 12.2656 16.3281 12.1406 16.2655 12.0469L14.4533 9.3593C14.3907 9.26575 14.2501 9.2343 14.1565 9.29688H14.1562Z" fill="white"/>
<path d="M16.5469 10.0471C16.4375 10.1095 16.2969 10.0784 16.2345 9.96906L15.5156 8.70341C15.4532 8.59406 15.5 8.45341 15.6095 8.39083C15.7188 8.32841 15.8595 8.35954 15.9219 8.46906L16.6406 9.73454C16.6875 9.8439 16.6562 9.98454 16.547 10.0471H16.5469Z" fill="#F3F3F3"/>
<path d="M16.5467 10.0628C16.4217 10.1252 16.2811 10.0941 16.2187 9.98455L15.4998 8.71906C15.4374 8.60954 15.4687 8.45341 15.5937 8.39083C15.7187 8.32841 15.8593 8.35954 15.9217 8.46906L16.6404 9.73455C16.703 9.84391 16.6717 9.98455 16.5469 10.0628H16.5467ZM15.6093 8.40648C15.5155 8.4689 15.4687 8.5939 15.5311 8.68777L16.25 9.95342C16.3124 10.047 16.4374 10.0784 16.5311 10.0315C16.625 9.96907 16.6717 9.84391 16.6093 9.7502L15.8905 8.48454C15.8437 8.39099 15.703 8.3439 15.6093 8.40648Z" fill="white"/>
<path d="M18.6248 11.0782C18.5 11.125 18.3748 11.0782 18.328 10.9689L17.0625 7.95305C17.0157 7.8437 17.0781 7.70305 17.1874 7.65612C17.3124 7.60934 17.4374 7.65612 17.4842 7.76547L18.7498 10.7811C18.7967 10.8905 18.7343 11.0311 18.6248 11.0779V11.0782Z" fill="#F3F3F3"/>
<path d="M18.6252 11.0939C18.5004 11.1407 18.3598 11.0939 18.2972 10.9688L17.0315 7.95329C17.0088 7.89318 17.0109 7.82653 17.0372 7.76794C17.0636 7.70934 17.1121 7.66359 17.1722 7.64071C17.2972 7.59394 17.4378 7.64071 17.5004 7.76571L18.7659 10.7813C18.8128 10.8907 18.7504 11.0313 18.6254 11.0939H18.6252ZM17.2035 7.672C17.0941 7.71878 17.0472 7.84394 17.0941 7.93765L18.3596 10.9531C18.4064 11.0625 18.5314 11.1092 18.6407 11.0625C18.7501 11.0157 18.7972 10.8905 18.7501 10.7968L17.4846 7.7812C17.422 7.67184 17.3127 7.62491 17.2033 7.67184L17.2035 7.672Z" fill="white"/>
<path d="M19.3903 8.85965C19.2654 8.90642 19.1404 8.84384 19.0936 8.719L18.6404 7.34386C18.5937 7.23451 18.6717 7.09386 18.7811 7.06273C18.8904 7.03144 19.031 7.07838 19.0778 7.20338L19.531 8.57836C19.5777 8.68771 19.5153 8.81271 19.3903 8.85949V8.85965Z" fill="#F3F3F3"/>
<path d="M19.4063 8.87503C19.3462 8.89768 19.2796 8.8956 19.2211 8.86924C19.1625 8.84288 19.1168 8.79439 19.0939 8.73439L18.6407 7.35939C18.5939 7.23439 18.672 7.09391 18.7971 7.04697C18.8572 7.02432 18.9238 7.02641 18.9824 7.05277C19.0409 7.07913 19.0867 7.12762 19.1096 7.18762L19.5626 8.56262C19.5939 8.68762 19.5313 8.82826 19.4063 8.87503ZM18.797 7.07826C18.6876 7.10939 18.625 7.23439 18.6563 7.34374L19.1096 8.71891C19.1407 8.82826 19.2657 8.87503 19.3752 8.84374C19.4846 8.81262 19.547 8.68762 19.5157 8.57826L19.0626 7.2031C19.0546 7.17658 19.0412 7.15202 19.0231 7.13105C19.005 7.11007 18.9827 7.09313 18.9577 7.08134C18.9326 7.06955 18.9053 7.06317 18.8777 7.06261C18.85 7.06205 18.8225 7.06733 18.797 7.0781V7.07826Z" fill="white"/>
<path d="M21.2342 10.2813C21.1092 10.3126 20.9842 10.2345 20.9686 10.1094L20.3123 6.90634C20.2811 6.78134 20.3749 6.67199 20.4997 6.6407C20.6249 6.60941 20.7497 6.68747 20.7654 6.81263L21.4218 10.0158C21.4373 10.125 21.3592 10.25 21.2342 10.2813Z" fill="#F3F3F3"/>
<path d="M21.2343 10.2969C21.0937 10.3282 20.9687 10.2343 20.9374 10.1093L20.2811 6.90625C20.2498 6.78125 20.3437 6.64061 20.4687 6.62496C20.6093 6.59367 20.7343 6.68754 20.7654 6.81254L21.4219 10.0158C21.453 10.1406 21.375 10.2658 21.2343 10.2969ZM20.5 6.65625C20.3904 6.6719 20.3124 6.78125 20.328 6.90625L20.9843 10.1095C21 10.2187 21.1248 10.2969 21.2343 10.2656C21.3437 10.25 21.4217 10.1406 21.4061 10.0156L20.7498 6.81238C20.7187 6.70319 20.6093 6.64061 20.4998 6.65625H20.5Z" fill="white"/>
<path d="M22.4219 8.25005C22.2969 8.2657 22.1876 8.18763 22.1563 8.06263L21.9689 6.62503C21.9532 6.50003 22.0469 6.39068 22.1721 6.37503C22.2969 6.35939 22.4063 6.43761 22.4376 6.56261L22.625 8.00005C22.6406 8.12505 22.5469 8.23441 22.4219 8.25005Z" fill="#F3F3F3"/>
<path d="M22.4219 8.26564C22.2813 8.28129 22.1563 8.18758 22.1406 8.06242L21.9532 6.62499C21.9376 6.49999 22.0313 6.37499 22.1719 6.35934C22.3126 6.34386 22.4376 6.43757 22.4532 6.56257L22.6406 8C22.6563 8.125 22.5626 8.25 22.4219 8.26564ZM22.1876 6.39063C22.0782 6.40628 21.9844 6.51563 22 6.62499L22.1876 8.06258C22.2032 8.17193 22.3126 8.25 22.4219 8.23435C22.5313 8.21887 22.6251 8.10935 22.6095 8L22.4219 6.56257C22.4063 6.45321 22.2969 6.37499 22.1876 6.39063Z" fill="white"/>
<path d="M24.1095 42.4844C34.3268 42.4844 42.6095 34.2016 42.6095 23.9844C42.6095 13.7671 34.3268 5.48438 24.1095 5.48438C13.8922 5.48438 5.6095 13.7671 5.6095 23.9844C5.6095 34.2016 13.8922 42.4844 24.1095 42.4844Z" fill="url(#paint2_linear_1108_170846)" fill-opacity="0.2"/>
<path d="M36.922 12.25L22 21.8126H21.9844V21.8281L21.9688 21.8437L12.6565 37.2032L26.3439 26.1876L26.3596 26.1721V26.1564L36.9221 12.2502L36.922 12.25Z" fill="black" fill-opacity="0.05"/>
<path d="M36.6406 11.3593L21.8906 21.8436L26.2656 26.1873L36.6406 11.3593Z" fill="#CD151E"/>
<path d="M21.9064 21.8124L24.1096 23.9842L36.6406 11.3593L21.9064 21.8124Z" fill="#FA5153"/>
<path d="M21.9062 21.8125L26.2812 26.1561L11.5312 36.6406L21.9062 21.8124V21.8125Z" fill="#ACACAC"/>
<path d="M11.5312 36.6406L24.1093 23.9843L21.9061 21.8124L11.5312 36.6406Z" fill="#EEEEEE"/>
<defs>
<linearGradient id="paint0_linear_1108_170846" x1="24" y1="44" x2="24" y2="4" gradientUnits="userSpaceOnUse">
<stop offset="0.25" stop-color="#DBDBDA"/>
<stop offset="1" stop-color="white"/>
</linearGradient>
<radialGradient id="paint1_radial_1108_170846" cx="0" cy="0" r="1" gradientUnits="userSpaceOnUse" gradientTransform="translate(26.5994 19.9362) scale(22.5818 22.5818)">
<stop stop-color="#2ABCE1"/>
<stop offset="0.11363" stop-color="#2ABBE1"/>
<stop offset="1" stop-color="#3375F8"/>
</radialGradient>
<linearGradient id="paint2_linear_1108_170846" x1="23.758" y1="18.6945" x2="15.1233" y2="34.186" gradientUnits="userSpaceOnUse">
<stop stop-opacity="0"/>
<stop offset="1"/>
</linearGradient>
</defs>
</svg>
