<svg width="48" height="48" viewBox="0 0 48 48" fill="none" xmlns="http://www.w3.org/2000/svg">
<path d="M35.8984 13.0093C35.8735 12.8283 35.715 12.7282 35.584 12.7172C35.4533 12.7062 32.6862 12.5012 32.6862 12.5012C32.6862 12.5012 30.7645 10.5933 30.5537 10.3822C30.3426 10.1711 29.9305 10.2353 29.7705 10.2825C29.7468 10.2894 29.3506 10.4117 28.695 10.6144C28.053 8.76734 26.9202 7.06975 24.927 7.06975C24.8721 7.06975 24.8154 7.07206 24.7587 7.07524C24.1919 6.32564 23.4897 6 22.8833 6C18.2405 6 16.0223 11.8039 15.3268 14.7535C13.5228 15.3125 12.2411 15.7098 12.0774 15.7613C11.0704 16.0771 11.0386 16.1089 10.9064 17.0578C10.8066 17.7762 8.17175 38.1531 8.17175 38.1531L28.7034 42L39.8283 39.5933C39.8283 39.5933 35.9229 13.1903 35.8984 13.0093ZM27.5602 10.9655C27.0446 11.1252 26.4583 11.3065 25.823 11.5032C25.8236 11.3808 25.8241 11.2602 25.8241 11.1286C25.8241 9.98053 25.6648 9.05625 25.4091 8.32342C26.4361 8.4524 27.12 9.62076 27.5602 10.9655ZM24.1352 8.55102C24.4207 9.2665 24.6063 10.2932 24.6063 11.6787C24.6063 11.7496 24.6057 11.8143 24.6052 11.88C23.4753 12.2299 22.2476 12.6099 21.0171 12.9911C21.708 10.3247 23.003 9.03687 24.1352 8.55102ZM22.7557 7.24529C22.9562 7.24529 23.158 7.31325 23.3512 7.44628C21.8633 8.14643 20.2683 9.90996 19.5948 13.4315C18.6104 13.7363 17.6482 14.0342 16.7586 14.3098C17.5476 11.6238 19.421 7.24529 22.7557 7.24529Z" fill="#95BF46"/>
<path d="M35.5839 12.7173C35.4532 12.7063 32.6862 12.5013 32.6862 12.5013C32.6862 12.5013 30.7644 10.5934 30.5536 10.3823C30.4747 10.3036 30.3682 10.2634 30.2569 10.2461L28.7045 41.9998L39.8282 39.5934C39.8282 39.5934 35.9229 13.1904 35.8983 13.0094C35.8734 12.8283 35.7149 12.7283 35.5839 12.7173Z" fill="#5E8E3E"/>
<path d="M24.9271 18.8642L23.5554 22.9445C23.5554 22.9445 22.3535 22.303 20.8803 22.303C18.7206 22.303 18.6118 23.6585 18.6118 24C18.6118 25.8636 23.4698 26.5777 23.4698 30.9428C23.4698 34.3771 21.2916 36.5886 18.3545 36.5886C14.83 36.5886 13.0277 34.395 13.0277 34.395L13.9714 31.2771C13.9714 31.2771 15.824 32.8677 17.3874 32.8677C18.4088 32.8677 18.8244 32.0635 18.8244 31.4758C18.8244 29.0448 14.839 28.9364 14.839 24.942C14.839 21.58 17.252 18.3265 22.123 18.3265C23.9999 18.3265 24.9271 18.8642 24.9271 18.8642Z" fill="white"/>
</svg>
