<svg width="48" height="48" viewBox="0 0 48 48" fill="none" xmlns="http://www.w3.org/2000/svg">
<path d="M37.0682 10.7632C33.7253 5.97872 27.1232 4.56057 22.3495 7.60203L13.9658 12.9454C11.6757 14.3861 10.0984 16.7247 9.6205 19.3877C9.22058 21.6061 9.57209 23.8946 10.6194 25.8908C9.90175 26.9794 9.4123 28.2022 9.1806 29.4853C8.69812 32.1994 9.32925 34.9935 10.9315 37.2367C14.2751 42.0217 20.8773 43.4392 25.6502 40.3979L34.0339 35.0546C36.3241 33.614 37.9015 31.2754 38.3792 28.6123C38.779 26.3938 38.4278 24.1054 37.381 22.109C38.0985 21.0205 38.5877 19.7977 38.8192 18.5147C39.302 15.8005 38.6708 13.0063 37.0683 10.7632" fill="#FF3E00"/>
<path d="M21.5297 37.6919C18.8265 38.3947 15.9719 37.3366 14.3799 35.0417C13.4159 33.6923 13.0361 32.0115 13.3264 30.3788C13.3751 30.1134 13.442 29.8517 13.5268 29.5956L13.6847 29.1141L14.1144 29.4296C15.1066 30.1587 16.2161 30.713 17.3949 31.0687L17.7066 31.1633L17.6779 31.4743C17.6398 31.9169 17.7596 32.3586 18.0161 32.7212C18.4952 33.4125 19.3547 33.7315 20.1688 33.5202C20.351 33.4715 20.5248 33.3952 20.6839 33.2938L29.0703 27.9495C29.4852 27.6883 29.7712 27.2646 29.8582 26.7821C29.9452 26.29 29.8308 25.7836 29.5407 25.3766C29.0614 24.6852 28.2017 24.3661 27.3872 24.5772C27.2052 24.6259 27.0317 24.7022 26.8728 24.8034L23.6726 26.8435C23.1464 27.178 22.5721 27.4302 21.9697 27.5913C19.2665 28.2941 16.412 27.236 14.82 24.9411C13.8559 23.5918 13.4762 21.9109 13.7665 20.2782C14.0539 18.6764 15.0028 17.2697 16.3805 16.4034L24.7662 11.0587C25.2926 10.7236 25.8673 10.471 26.4703 10.31C29.1734 9.60714 32.0279 10.6653 33.6199 12.9601C34.5839 14.3095 34.9637 15.9903 34.6734 17.623C34.6245 17.8883 34.5576 18.15 34.473 18.4062L34.315 18.8877L33.8856 18.5727C32.8934 17.8432 31.7839 17.2886 30.6049 16.9329L30.2932 16.8383L30.3219 16.5272C30.3597 16.0847 30.2399 15.6431 29.9837 15.2804C29.5046 14.5891 28.6451 14.2701 27.831 14.4814C27.6487 14.5301 27.475 14.6064 27.3159 14.7078L18.9295 20.0523C18.5146 20.3133 18.2288 20.737 18.1422 21.2194C18.0547 21.7115 18.1689 22.2181 18.459 22.625C18.9384 23.3164 19.7981 23.6356 20.6125 23.4244C20.7948 23.3756 20.9685 23.2993 21.1276 23.1981L24.3274 21.1588C24.8534 20.8238 25.4277 20.5714 26.0302 20.4104C28.7333 19.7075 31.5879 20.7656 33.1798 23.0606C34.1439 24.4099 34.5236 26.0907 34.2333 27.7234C33.9457 29.3253 32.9969 30.7321 31.6193 31.5988L23.2336 36.9431C22.7072 37.2783 22.1325 37.5308 21.5295 37.6919" fill="white"/>
</svg>
