<svg width="48" height="48" viewBox="0 0 48 48" fill="none" xmlns="http://www.w3.org/2000/svg">
<path d="M6 24V42H24H42V24V6H24H6V24Z" fill="#007ACC"/>
<path d="M13.961 24.1194L13.9495 25.5937H16.2924H18.6353V32.2508V38.908H20.2924H21.9495V32.2508V25.5937H24.2924H26.6353L26.6353 24.148C26.6353 23.348 26.6181 22.6794 26.5953 22.6622C26.5781 22.6394 23.7267 22.628 20.2695 22.6337L13.9781 22.6508L13.961 24.1194Z" fill="white"/>
<path d="M35.0485 22.6089C35.9628 22.8375 36.6599 23.2432 37.2999 23.9061C37.6313 24.2604 38.1228 24.9061 38.1628 25.0604C38.1742 25.1061 36.6085 26.1575 35.6599 26.7461C35.6256 26.7689 35.4885 26.6204 35.3342 26.3918C34.8713 25.7175 34.3856 25.4261 33.6428 25.3747C32.5513 25.3004 31.8485 25.8718 31.8542 26.8261C31.8542 27.1061 31.8942 27.2718 32.0085 27.5004C32.2485 27.9975 32.6942 28.2947 34.0942 28.9004C36.6713 30.0089 37.7742 30.7404 38.4599 31.7804C39.2256 32.9404 39.397 34.7918 38.877 36.1689C38.3056 37.6661 36.8885 38.6832 34.8942 39.0204C34.277 39.1289 32.8142 39.1118 32.1513 38.9918C30.7056 38.7347 29.3342 38.0204 28.4885 37.0832C28.157 36.7175 27.5113 35.7632 27.5513 35.6947C27.5685 35.6718 27.7171 35.5804 27.8828 35.4832C28.0428 35.3918 28.6485 35.0432 29.2199 34.7118L30.2542 34.1118L30.4713 34.4318C30.7742 34.8947 31.4371 35.5289 31.8371 35.7404C32.9856 36.3461 34.5628 36.2604 35.3399 35.5632C35.6713 35.2604 35.8085 34.9461 35.8085 34.4832C35.8085 34.0661 35.7571 33.8832 35.5399 33.5689C35.2599 33.1689 34.6885 32.8318 33.0656 32.1289C31.2085 31.3289 30.4085 30.8318 29.6771 30.0432C29.2542 29.5861 28.8542 28.8547 28.6885 28.2432C28.5513 27.7347 28.517 26.4604 28.6256 25.9461C29.0085 24.1518 30.3628 22.9004 32.3171 22.5289C32.9513 22.4089 34.4256 22.4547 35.0485 22.6089Z" fill="white"/>
</svg>
