<svg width="48" height="48" viewBox="0 0 48 48" fill="none" xmlns="http://www.w3.org/2000/svg">
<path d="M41.8584 11.3283L24.9686 41.5301C24.6199 42.1537 23.724 42.1574 23.37 41.5368L6.1454 11.3312C5.75979 10.655 6.33802 9.83595 7.1043 9.97291L24.0121 12.9951C24.12 13.0144 24.2304 13.0142 24.3383 12.9945L40.8925 9.97724C41.6562 9.83805 42.2372 10.6508 41.8584 11.3283Z" fill="url(#paint0_linear_1108_170800)"/>
<path d="M32.0663 6.00886L19.5673 8.45798C19.3619 8.49823 19.2098 8.67232 19.1974 8.88125L18.4286 21.8666C18.4105 22.1725 18.6914 22.4099 18.9899 22.341L22.4698 21.5379C22.7953 21.4628 23.0895 21.7496 23.0226 22.077L21.9888 27.1397C21.9192 27.4804 22.2391 27.7718 22.5718 27.6707L24.7212 27.0177C25.0544 26.9166 25.3746 27.2087 25.3041 27.5497L23.661 35.5021C23.5582 35.9995 24.2199 36.2707 24.4958 35.8443L24.6801 35.5594L34.865 15.2339C35.0355 14.8935 34.7414 14.5055 34.3676 14.5776L30.7857 15.2689C30.4491 15.3338 30.1627 15.0203 30.2577 14.691L32.5956 6.58647C32.6906 6.25659 32.4032 5.94284 32.0663 6.00886Z" fill="url(#paint1_linear_1108_170800)"/>
<defs>
<linearGradient id="paint0_linear_1108_170800" x1="5.72484" y1="12.4096" x2="23.9404" y2="37.1478" gradientUnits="userSpaceOnUse">
<stop stop-color="#41D1FF"/>
<stop offset="1" stop-color="#BD34FE"/>
</linearGradient>
<linearGradient id="paint1_linear_1108_170800" x1="25.5791" y1="6.67379" x2="29.3263" y2="32.3793" gradientUnits="userSpaceOnUse">
<stop stop-color="#FFEA83"/>
<stop offset="0.0833333" stop-color="#FFDD35"/>
<stop offset="1" stop-color="#FFA800"/>
</linearGradient>
</defs>
</svg>
