<svg width="48" height="48" viewBox="0 0 48 48" fill="none" xmlns="http://www.w3.org/2000/svg">
<path d="M33.0022 7.43588C33.0022 6.30578 31.7369 6.30577 31.1746 6.44703C31.9619 5.82548 32.8851 5.97617 33.2131 6.16452L40.816 9.89246C41.5404 10.2477 42 10.9868 42 11.7967V36.3212C42 37.142 41.5282 37.8889 40.7891 38.2384L33.6349 41.6212C33.1428 41.833 32.0743 42.3557 31.1746 41.6212C32.2993 41.8331 32.9085 41.0326 33.0022 40.4911V7.43588Z" fill="url(#paint0_linear_1108_170630)"/>
<path d="M31.2659 6.42659C31.8627 6.30865 33.0023 6.36334 33.0023 7.43581V15.8774L9.95176 33.3153C9.54885 33.6201 8.98183 33.5695 8.63866 33.1982L6.26297 30.6275C5.8908 30.2248 5.91684 29.5944 6.32094 29.2241L31.1746 6.44697L31.2659 6.42659Z" fill="url(#paint1_linear_1108_170630)"/>
<path d="M33.0023 32.1908L9.95176 14.753C9.54885 14.4482 8.98183 14.4987 8.63866 14.8701L6.26297 17.4407C5.8908 17.8435 5.91684 18.4738 6.32094 18.8442L31.1746 41.6213C32.2993 41.8332 32.9085 41.0326 33.0023 40.4911V32.1908Z" fill="url(#paint2_linear_1108_170630)"/>
<defs>
<linearGradient id="paint0_linear_1108_170630" x1="36.5873" y1="6" x2="36.5873" y2="42" gradientUnits="userSpaceOnUse">
<stop stop-color="#32B5F1"/>
<stop offset="1" stop-color="#2B9FED"/>
</linearGradient>
<linearGradient id="paint1_linear_1108_170630" x1="33.0023" y1="10.5435" x2="7.31362" y2="32.1064" gradientUnits="userSpaceOnUse">
<stop stop-color="#0F6FB3"/>
<stop offset="0.270551" stop-color="#1279B7"/>
<stop offset="0.421376" stop-color="#1176B5"/>
<stop offset="0.618197" stop-color="#0E69AC"/>
<stop offset="0.855344" stop-color="#0F70AF"/>
<stop offset="1" stop-color="#0F6DAD"/>
</linearGradient>
<linearGradient id="paint2_linear_1108_170630" x1="7.48528" y1="16.2648" x2="33.1017" y2="37.4752" gradientUnits="userSpaceOnUse">
<stop stop-color="#1791D2"/>
<stop offset="1" stop-color="#1173C5"/>
</linearGradient>
</defs>
</svg>
