<svg width="48" height="48" viewBox="0 0 48 48" fill="none" xmlns="http://www.w3.org/2000/svg">
<path d="M24 6L39.9079 14.9985V33.0015L24 42L8.09204 33.0015V14.9985L24 6Z" fill="white"/>
<path d="M37.0685 32.3771L24.5283 39.4787V33.9559L32.3442 29.6518L37.0685 32.3771ZM37.927 31.6028V16.7633L33.3407 19.4107V28.9554L37.927 31.6028ZM10.8835 32.3771L23.4237 39.4727V33.9499L15.6078 29.6518L10.8835 32.3771ZM10.025 31.6028V16.7633L14.6113 19.4107V28.9554L10.025 31.6028ZM10.5593 15.8029L23.4237 8.52722V13.8699L15.1816 18.4022L15.1156 18.4382L10.5593 15.8029ZM37.3867 15.8029L24.5283 8.52722V13.8699L32.7644 18.4082L32.8304 18.4442L37.3867 15.8029Z" fill="#8ED6FB"/>
<path d="M23.4237 32.6954L15.7158 28.4513V20.0531L23.4237 24.5013V32.6954ZM24.5282 32.6954L32.2361 28.4573V20.0531L24.5282 24.5013V32.6954ZM16.2321 19.0806L23.976 14.8245L31.7138 19.0806L23.976 23.5468L16.2321 19.0806Z" fill="#1C78C0"/>
</svg>
