<svg width="48" height="48" viewBox="0 0 48 48" fill="none" xmlns="http://www.w3.org/2000/svg">
<path fill-rule="evenodd" clip-rule="evenodd" d="M40.2715 12.095H7.7124C5.6519 12.095 3.98388 13.7793 4.00012 15.8235V28.2519C4.00012 30.3123 5.66826 31.9804 7.72876 31.9804H23.1497L30.198 35.9051L28.5954 31.9804H40.2715C42.3321 31.9804 44 30.3123 44 28.2519V15.8235C44 13.763 42.3321 12.095 40.2715 12.095ZM7.02564 14.9731C6.56775 15.0058 6.22433 15.1694 5.99539 15.4801C5.76645 15.7744 5.68469 16.1505 5.73374 16.5757C6.69858 22.7082 7.598 26.8455 8.43201 28.9878C8.75908 29.7727 9.1352 30.1489 9.57673 30.1162C10.2636 30.0671 11.0812 29.1186 12.0461 27.2707C12.553 26.224 13.338 24.6542 14.4009 22.561C15.2839 25.6517 16.4941 27.9739 18.015 29.5274C18.4402 29.9689 18.8817 30.1652 19.3068 30.1325C19.683 30.0998 19.9773 29.9035 20.1735 29.5437C20.3371 29.233 20.4025 28.8732 20.3698 28.4644C20.2717 26.9763 20.4189 24.8995 20.8277 22.2339C21.2528 19.4866 21.7762 17.5079 22.4139 16.3304C22.5448 16.0851 22.5938 15.8398 22.5775 15.5455C22.5448 15.1694 22.3812 14.8586 22.0706 14.6134C21.7599 14.3681 21.4164 14.2536 21.0403 14.2863C20.566 14.319 20.2063 14.5479 19.961 15.0058C18.9471 16.8537 18.2275 19.8464 17.8024 24C17.1809 22.4302 16.6576 20.5822 16.2488 18.4073C16.0689 17.4424 15.6274 16.9846 14.9078 17.0336C14.4173 17.0663 14.0084 17.3934 13.6814 18.0148L10.1 24.8341C9.51132 22.4629 8.95531 19.5684 8.44836 16.1505C8.33389 15.3002 7.85965 14.9077 7.02564 14.9731ZM38.5381 16.1506C39.6993 16.3959 40.566 17.0173 41.1546 18.0476C41.678 18.9306 41.9396 19.9936 41.9396 21.2691C41.9396 22.9535 41.5144 24.4907 40.664 25.8971C39.6828 27.5324 38.4073 28.35 36.8211 28.35C36.5431 28.35 36.2487 28.3173 35.938 28.2519C34.7769 28.0066 33.9102 27.3853 33.3215 26.355C32.7982 25.4555 32.5365 24.3763 32.5365 23.117C32.5365 21.4327 32.9618 19.8955 33.8121 18.5055C34.8097 16.8701 36.0852 16.0525 37.6551 16.0525C37.9331 16.0525 38.2275 16.0852 38.5381 16.1506ZM37.8514 24.9976C38.4564 24.458 38.8652 23.6567 39.0942 22.5774C39.1596 22.2013 39.2086 21.7924 39.2086 21.3672C39.2086 20.893 39.1105 20.3861 38.9142 19.8791C38.669 19.2413 38.3419 18.8979 37.9494 18.8162C37.3607 18.7017 36.7884 19.0288 36.2487 19.8301C35.8072 20.4515 35.5291 21.1056 35.382 21.7761C35.3002 22.1522 35.2675 22.5611 35.2675 22.9699C35.2675 23.4441 35.3656 23.951 35.5618 24.458C35.8072 25.0957 36.1342 25.4391 36.5267 25.521C36.9355 25.6027 37.377 25.4228 37.8514 24.9976ZM30.9012 18.0476C30.3124 17.0173 29.4294 16.3959 28.2847 16.1506C27.9739 16.0852 27.6796 16.0525 27.4016 16.0525C25.8318 16.0525 24.5562 16.8701 23.5586 18.5055C22.7082 19.8955 22.2831 21.4327 22.2831 23.117C22.2831 24.3763 22.5448 25.4555 23.068 26.355C23.6568 27.3853 24.5235 28.0066 25.6845 28.2519C25.9952 28.3173 26.2896 28.35 26.5676 28.35C28.1539 28.35 29.4294 27.5324 30.4106 25.8971C31.261 24.4907 31.6861 22.9535 31.6861 21.2691C31.6861 19.9936 31.4244 18.9306 30.9012 18.0476ZM28.8407 22.5774C28.6118 23.6567 28.2029 24.458 27.5978 24.9976C27.1236 25.4228 26.6821 25.6027 26.2733 25.521C25.8808 25.4391 25.5537 25.0957 25.3084 24.458C25.1122 23.951 25.014 23.4441 25.014 22.9699C25.014 22.5611 25.0467 22.1522 25.1286 21.7761C25.2757 21.1056 25.5537 20.4515 25.9952 19.8301C26.5349 19.0288 27.1073 18.7017 27.6959 18.8162C28.0885 18.8979 28.4155 19.2413 28.6608 19.8791C28.8571 20.3861 28.9552 20.893 28.9552 21.3672C28.9552 21.7924 28.9225 22.2013 28.8407 22.5774Z" fill="#7F54B3"/>
</svg>
