<svg width="48" height="48" viewBox="0 0 48 48" fill="none" xmlns="http://www.w3.org/2000/svg">
<path d="M42 24C42 33.9411 33.9411 42 24 42C14.0589 42 6 33.9411 6 24C6 14.0589 14.0589 6 24 6C33.9411 6 42 14.0589 42 24Z" fill="#028CB0"/>
<path d="M11.7284 24C11.7284 28.863 14.5569 33.0514 18.6475 35.0423L12.7945 19.0065C12.0917 20.5774 11.7284 22.279 11.7284 24ZM24 36.2717C25.4252 36.2717 26.7959 36.0214 28.0797 35.5754L27.9926 35.4122L24.2176 25.077L20.5404 35.7712C21.6284 36.0976 22.7924 36.2717 24 36.2717ZM25.6863 18.2449L30.1249 31.4413L31.3543 27.3508C31.8765 25.6536 32.279 24.4352 32.279 23.3799C32.279 21.8568 31.7351 20.8124 31.2781 20.0074C30.6471 18.9847 30.0705 18.1253 30.0705 17.1244C30.0705 15.993 30.9191 14.9486 32.1376 14.9486H32.2899C30.0287 12.8727 27.0695 11.7232 24 11.7284C21.9676 11.728 19.9669 12.2328 18.1781 13.1975C16.3892 14.1623 14.8682 15.5565 13.7519 17.2549L14.5352 17.2767C15.8189 17.2767 17.7989 17.1135 17.7989 17.1135C18.4734 17.0809 18.5496 18.0491 17.8859 18.1253C17.8859 18.1253 17.2223 18.2123 16.4716 18.2449L20.9538 31.5392L23.641 23.4887L21.7263 18.2449C21.2974 18.2213 20.8693 18.185 20.4425 18.1362C19.7789 18.0926 19.8551 17.0809 20.5187 17.1135C20.5187 17.1135 22.5422 17.2767 23.7498 17.2767C25.0335 17.2767 27.0135 17.1135 27.0135 17.1135C27.6771 17.0809 27.7642 18.0491 27.1005 18.1253C27.1005 18.1253 26.4369 18.2014 25.6863 18.2449ZM30.1685 34.6071C32.0249 33.5277 33.5656 31.98 34.6366 30.1186C35.7076 28.2573 36.2714 26.1475 36.2717 24C36.2717 21.8677 35.7277 19.8659 34.7703 18.1144C34.9647 20.0414 34.673 21.9864 33.9218 23.7715L30.1685 34.6071ZM24 38.1429C20.2491 38.1429 16.6518 36.6528 13.9995 34.0005C11.3472 31.3482 9.85714 27.7509 9.85714 24C9.85714 20.2491 11.3472 16.6518 13.9995 13.9995C16.6518 11.3472 20.2491 9.85714 24 9.85714C27.7509 9.85714 31.3482 11.3472 34.0005 13.9995C36.6528 16.6518 38.1429 20.2491 38.1429 24C38.1429 27.7509 36.6528 31.3482 34.0005 34.0005C31.3482 36.6528 27.7509 38.1429 24 38.1429Z" fill="white"/>
</svg>
