<svg width="48" height="48" viewBox="0 0 48 48" fill="none" xmlns="http://www.w3.org/2000/svg">
<path fill-rule="evenodd" clip-rule="evenodd" d="M11.5489 29.4524L9.66557 30.1404L9.56445 35.743L16.0838 33.3614C13.8477 32.6103 12.2148 31.2888 11.5489 29.4524Z" fill="#FDBD39"/>
<path fill-rule="evenodd" clip-rule="evenodd" d="M12.5344 23.5266L6 25.9137L9.66552 30.1403L11.5488 29.4524C10.8848 27.6213 11.2943 25.5515 12.5344 23.5266Z" fill="#F69833"/>
<path fill-rule="evenodd" clip-rule="evenodd" d="M23.5306 15.4424C15.2097 18.4821 9.84525 24.7546 11.5488 29.4524L41.6816 18.4446C39.978 13.7467 31.8515 12.4027 23.5306 15.4424Z" fill="#FECF33"/>
<path fill-rule="evenodd" clip-rule="evenodd" d="M29.6996 32.4546C38.0206 29.4149 43.3951 23.1702 41.6814 18.4446L11.5487 29.4524C13.2623 34.1781 21.3787 35.4943 29.6996 32.4546Z" fill="#EE6723"/>
<path fill-rule="evenodd" clip-rule="evenodd" d="M41.6814 18.4446L11.5487 29.4524C12.1387 31.0796 14.3888 31.8812 17.5459 31.8812C20.6238 31.8812 24.5638 31.1198 28.6714 29.6192C36.9924 26.5795 42.8467 21.658 41.6814 18.4446Z" fill="#F69833"/>
<path fill-rule="evenodd" clip-rule="evenodd" d="M35.6843 16.0157C32.6064 16.0157 28.6664 16.7771 24.5588 18.2777C16.2378 21.3174 10.3835 26.2389 11.5488 29.4524L41.6815 18.4445C41.0915 16.8174 38.8414 16.0157 35.6843 16.0157Z" fill="#FDBD39"/>
<path fill-rule="evenodd" clip-rule="evenodd" d="M34.0202 36.0397H34.02C33.1335 36.0397 31.8255 35.2389 30.1325 33.6595C28.1295 31.791 25.8352 29.0543 23.6719 25.9534C21.5087 22.8527 19.7312 19.7527 18.6668 17.2245C17.5071 14.4693 17.3418 12.7753 18.1753 12.1893C18.3581 12.061 18.5784 11.996 18.8301 11.996C19.5082 11.996 20.8294 12.5008 23.2724 14.9059L23.3258 14.9584L23.3186 15.0332C23.3019 15.206 23.2865 15.3803 23.2728 15.5514L23.2455 15.8912L23.0059 15.6497C20.3736 12.9978 19.2148 12.7115 18.8388 12.7115C18.7315 12.7115 18.6461 12.7333 18.5849 12.7763C18.2234 13.0304 18.2001 14.2747 19.3244 16.9455C20.3698 19.4287 22.1215 22.4818 24.2567 25.5424C26.392 28.6032 28.6513 31.2996 30.6184 33.1347C32.7397 35.1135 33.6956 35.3271 34.0082 35.3271C34.1161 35.3271 34.2038 35.3039 34.2688 35.2582C34.6502 34.9902 34.6507 33.6572 33.3969 30.7825L33.3393 30.6505L33.4653 30.5816C33.5913 30.5126 33.7132 30.4446 33.8275 30.3797L33.9784 30.2939L34.048 30.4533C34.937 32.4903 35.7681 35.0792 34.6784 35.8452C34.4946 35.9743 34.2733 36.0397 34.0202 36.0397ZM34.02 35.7255H34.0202L34.0201 35.8826L34.02 35.7255Z" fill="#EE6723"/>
<path fill-rule="evenodd" clip-rule="evenodd" d="M29.9018 32.3687L29.8892 32.5253C29.6788 35.1283 29.1249 38.2577 27.6807 38.3843C27.6516 38.3869 27.6215 38.3882 27.5914 38.3882C26.6103 38.3882 25.6821 36.9826 24.8327 34.2102C24.0289 31.5874 23.4053 28.0658 23.0765 24.2943C22.7478 20.5235 22.7527 16.9468 23.0904 14.223C23.4585 11.255 24.1593 9.70498 25.1731 9.616C25.2031 9.61324 25.2342 9.61182 25.2648 9.61182C25.9766 9.61182 27.0492 10.4177 28.1473 14.1714L27.4303 14.3098C27.0637 13.0554 26.6641 12.0352 26.2674 11.3341C25.9005 10.6857 25.5438 10.3286 25.2628 10.3286C25.2536 10.3286 25.2443 10.329 25.2351 10.3298C24.7957 10.3684 24.1557 11.4344 23.7989 14.3116C23.4672 16.9864 23.4632 20.5096 23.7876 24.2319C24.1122 27.9548 24.7257 31.4238 25.515 33.9996C25.8685 35.1532 26.2562 36.104 26.6362 36.7491C26.9867 37.3441 27.3258 37.6717 27.5912 37.6717C27.6003 37.6717 27.6094 37.6713 27.6184 37.6706C28.0389 37.6337 28.8313 36.5244 29.1648 32.6216L29.9018 32.3687Z" fill="#EE6723"/>
</svg>
