<svg width="24" height="24" viewBox="0 0 24 24" fill="none" xmlns="http://www.w3.org/2000/svg">
<path d="M11.7188 3C6.90234 3 3 6.9375 3 11.7188C3 16.5352 6.90234 20.4375 11.7188 20.4375C16.5 20.4375 20.4375 16.5352 20.4375 11.7188C20.4375 6.9375 16.5 3 11.7188 3ZM17.4492 7.04297C18.5039 8.30859 19.1367 9.92578 19.1367 11.6836C18.8906 11.6133 16.4297 11.1211 13.9688 11.4375C13.7578 10.9453 13.582 10.5234 13.3008 9.96094C16.0781 8.83594 17.3086 7.25391 17.4492 7.04297ZM16.6406 6.16406C16.5 6.375 15.375 7.88672 12.7383 8.87109C11.5078 6.62109 10.1719 4.79297 9.96094 4.51172C12.3164 3.94922 14.8125 4.54688 16.6406 6.16406ZM8.51953 5.00391C8.73047 5.28516 10.0664 7.11328 11.2969 9.32812C7.81641 10.2422 4.75781 10.2422 4.40625 10.207C4.89844 7.92188 6.44531 5.98828 8.51953 5.00391ZM4.26562 11.7539C4.26562 11.6836 4.26562 11.6133 4.26562 11.5078C4.58203 11.543 8.20312 11.5781 11.8945 10.4531C12.1406 10.875 12.3164 11.2969 12.5273 11.7188C9.82031 12.4922 7.35938 14.6719 6.16406 16.7109C4.96875 15.4102 4.26562 13.6523 4.26562 11.7539ZM7.11328 17.625C7.92188 16.043 10.0312 13.9688 13.0195 12.9492C14.0742 15.6562 14.4961 17.9414 14.6016 18.6094C12.2109 19.6289 9.32812 19.3477 7.11328 17.625ZM15.8672 17.9062C15.7969 17.4844 15.375 15.3047 14.4258 12.5977C16.7461 12.2461 18.7852 12.8438 19.0664 12.9141C18.7148 14.9883 17.5195 16.7812 15.8672 17.9062Z" fill="#111928"/>
</svg>
