<svg width="24" height="24" viewBox="0 0 24 24" fill="none" xmlns="http://www.w3.org/2000/svg">
<path d="M19.1367 8.62109C19.8398 8.09375 20.4727 7.46094 20.9648 6.72266C20.332 7.00391 19.5938 7.21484 18.8555 7.28516C19.6289 6.82812 20.1914 6.125 20.4727 5.24609C19.7695 5.66797 18.9609 5.98438 18.1523 6.16016C17.4492 5.42188 16.5 5 15.4453 5C13.4062 5 11.7539 6.65234 11.7539 8.69141C11.7539 8.97266 11.7891 9.25391 11.8594 9.53516C8.80078 9.35938 6.05859 7.88281 4.23047 5.66797C3.91406 6.19531 3.73828 6.82812 3.73828 7.53125C3.73828 8.79688 4.37109 9.92188 5.39062 10.5898C4.79297 10.5547 4.19531 10.4141 3.70312 10.1328V10.168C3.70312 11.9609 4.96875 13.4375 6.65625 13.7891C6.375 13.8594 6.02344 13.9297 5.70703 13.9297C5.46094 13.9297 5.25 13.8945 5.00391 13.8594C5.46094 15.3359 6.83203 16.3906 8.44922 16.4258C7.18359 17.4102 5.60156 18.0078 3.87891 18.0078C3.5625 18.0078 3.28125 17.9727 3 17.9375C4.61719 18.9922 6.55078 19.5898 8.66016 19.5898C15.4453 19.5898 19.1367 14 19.1367 9.11328C19.1367 8.9375 19.1367 8.79688 19.1367 8.62109Z" fill="#111928"/>
</svg>
