<svg width="20" height="20" viewBox="0 0 20 20" fill="none" xmlns="http://www.w3.org/2000/svg">
<path d="M10.3939 2.08003C10.2694 2.02667 10.1353 1.99915 9.99988 1.99915C9.86443 1.99915 9.73038 2.02667 9.60588 2.08003L2.60588 5.08003C2.42549 5.15688 2.27168 5.28506 2.16356 5.44864C2.05545 5.61221 1.9978 5.80396 1.9978 6.00004C1.9978 6.19611 2.05545 6.38786 2.16356 6.55143C2.27168 6.71501 2.42549 6.84319 2.60588 6.92004L5.24988 8.05103C5.34802 7.94003 5.46963 7.85224 5.60588 7.79403L9.60588 6.08004C9.72693 6.02609 9.85749 5.99673 9.98997 5.99369C10.1225 5.99064 10.2542 6.01395 10.3776 6.06227C10.501 6.1106 10.6136 6.18296 10.7088 6.27517C10.8039 6.36738 10.8799 6.47758 10.9321 6.59938C10.9843 6.72118 11.0118 6.85214 11.0129 6.98466C11.0141 7.11718 10.9889 7.2486 10.9388 7.37129C10.8888 7.49399 10.8148 7.60551 10.7212 7.69937C10.6277 7.79323 10.5164 7.86756 10.3939 7.91804L7.66688 9.08804L9.60688 9.91903C9.73125 9.97226 9.86511 9.99971 10.0004 9.99971C10.1357 9.99971 10.2695 9.97226 10.3939 9.91903L17.3939 6.91903C17.5737 6.8419 17.7269 6.71372 17.8346 6.55037C17.9422 6.38702 17.9996 6.19568 17.9996 6.00004C17.9996 5.80439 17.9422 5.61305 17.8346 5.4497C17.7269 5.28635 17.5737 5.15817 17.3939 5.08103L10.3939 2.08104V2.08003ZM3.30988 9.39704L4.99988 10.12V14.222C4.65364 14.1433 4.30302 14.0852 3.94988 14.048C3.72203 14.0241 3.50931 13.9226 3.3473 13.7606C3.18529 13.5986 3.08383 13.3859 3.05988 13.158C2.92837 11.8989 3.01292 10.6266 3.30988 9.39604V9.39704ZM9.29988 16.573C8.6239 15.9098 7.84774 15.357 6.99988 14.935V10.978L8.81788 11.758C9.19138 11.9181 9.59352 12.0007 9.99988 12.0007C10.4063 12.0007 10.8084 11.9181 11.1819 11.758L16.6899 9.39704C16.9886 10.6274 17.0732 11.9 16.9399 13.159C16.9159 13.3869 16.8145 13.5996 16.6525 13.7616C16.4905 13.9236 16.2777 14.0251 16.0499 14.049C14.0324 14.2611 12.1464 15.1508 10.6999 16.573C10.513 16.7563 10.2616 16.8589 9.99988 16.8589C9.73813 16.8589 9.48681 16.7563 9.29988 16.573ZM5.99988 18C6.2651 18 6.51945 17.8947 6.70699 17.7071C6.89453 17.5196 6.99988 17.2653 6.99988 17V14.935C6.36388 14.6191 5.69248 14.38 4.99988 14.223V17C4.99988 17.2653 5.10524 17.5196 5.29278 17.7071C5.48031 17.8947 5.73467 18 5.99988 18Z" fill="#111928"/>
</svg>
