<svg width="20" height="20" viewBox="0 0 20 20" fill="none" xmlns="http://www.w3.org/2000/svg">
<path d="M4.99991 4C4.99991 3.73478 4.89456 3.48043 4.70702 3.29289C4.51948 3.10536 4.26513 3 3.99991 3C3.7347 3 3.48034 3.10536 3.29281 3.29289C3.10527 3.48043 2.99991 3.73478 2.99991 4V11.268C2.6959 11.4435 2.44344 11.696 2.26792 12C2.0924 12.3041 2 12.6489 2 13C2 13.3511 2.0924 13.6959 2.26792 14C2.44344 14.304 2.6959 14.5565 2.99991 14.732V16C2.99991 16.2652 3.10527 16.5196 3.29281 16.7071C3.48034 16.8946 3.7347 17 3.99991 17C4.26513 17 4.51948 16.8946 4.70702 16.7071C4.89456 16.5196 4.99991 16.2652 4.99991 16V14.732C5.30393 14.5565 5.55638 14.304 5.7319 14C5.90742 13.6959 5.99982 13.3511 5.99982 13C5.99982 12.6489 5.90742 12.3041 5.7319 12C5.55638 11.696 5.30393 11.4435 4.99991 11.268V4ZM10.9999 4C10.9999 3.73478 10.8946 3.48043 10.707 3.29289C10.5195 3.10536 10.2651 3 9.99991 3C9.7347 3 9.48034 3.10536 9.29281 3.29289C9.10527 3.48043 8.99991 3.73478 8.99991 4V5.268C8.6959 5.44354 8.44344 5.69602 8.26792 6.00004C8.0924 6.30407 8 6.64894 8 7C8 7.35106 8.0924 7.69593 8.26792 7.99996C8.44344 8.30398 8.6959 8.55646 8.99991 8.732V16C8.99991 16.2652 9.10527 16.5196 9.29281 16.7071C9.48034 16.8946 9.7347 17 9.99991 17C10.2651 17 10.5195 16.8946 10.707 16.7071C10.8946 16.5196 10.9999 16.2652 10.9999 16V8.732C11.3039 8.55646 11.5564 8.30398 11.7319 7.99996C11.9074 7.69593 11.9998 7.35106 11.9998 7C11.9998 6.64894 11.9074 6.30407 11.7319 6.00004C11.5564 5.69602 11.3039 5.44354 10.9999 5.268V4ZM15.9999 3C16.2651 3 16.5195 3.10536 16.707 3.29289C16.8946 3.48043 16.9999 3.73478 16.9999 4V11.268C17.3039 11.4435 17.5564 11.696 17.7319 12C17.9074 12.3041 17.9998 12.6489 17.9998 13C17.9998 13.3511 17.9074 13.6959 17.7319 14C17.5564 14.304 17.3039 14.5565 16.9999 14.732V16C16.9999 16.2652 16.8946 16.5196 16.707 16.7071C16.5195 16.8946 16.2651 17 15.9999 17C15.7347 17 15.4803 16.8946 15.2928 16.7071C15.1053 16.5196 14.9999 16.2652 14.9999 16V14.732C14.6959 14.5565 14.4434 14.304 14.2679 14C14.0924 13.6959 14 13.3511 14 13C14 12.6489 14.0924 12.3041 14.2679 12C14.4434 11.696 14.6959 11.4435 14.9999 11.268V4C14.9999 3.73478 15.1053 3.48043 15.2928 3.29289C15.4803 3.10536 15.7347 3 15.9999 3Z" fill="#111928"/>
</svg>
