<svg width="20" height="20" viewBox="0 0 20 20" fill="none" xmlns="http://www.w3.org/2000/svg">
<path fill-rule="evenodd" clip-rule="evenodd" d="M16.7071 10.293C16.8946 10.4805 16.9999 10.7348 16.9999 11C16.9999 11.2652 16.8946 11.5195 16.7071 11.707L10.7071 17.707C10.5196 17.8945 10.2652 17.9998 10.0001 17.9998C9.73492 17.9998 9.48061 17.8945 9.29308 17.707L3.29308 11.707C3.19757 11.6148 3.12139 11.5044 3.06898 11.3824C3.01657 11.2604 2.98898 11.1292 2.98783 10.9964C2.98668 10.8636 3.01198 10.7319 3.06226 10.609C3.11254 10.4861 3.18679 10.3745 3.28069 10.2806C3.37458 10.1867 3.48623 10.1125 3.60913 10.0622C3.73202 10.0119 3.8637 9.9866 3.99648 9.98775C4.12926 9.9889 4.26048 10.0165 4.38249 10.0689C4.50449 10.1213 4.61483 10.1975 4.70708 10.293L9.00008 14.586V3C9.00008 2.73478 9.10544 2.48043 9.29297 2.29289C9.48051 2.10536 9.73486 2 10.0001 2C10.2653 2 10.5197 2.10536 10.7072 2.29289C10.8947 2.48043 11.0001 2.73478 11.0001 3V14.586L15.2931 10.293C15.4806 10.1055 15.7349 10.0002 16.0001 10.0002C16.2652 10.0002 16.5196 10.1055 16.7071 10.293Z" fill="#111928"/>
</svg>
