<svg width="20" height="20" viewBox="0 0 20 20" fill="none" xmlns="http://www.w3.org/2000/svg">
<path fill-rule="evenodd" clip-rule="evenodd" d="M10 18C12.1217 18 14.1566 17.1571 15.6569 15.6569C17.1571 14.1566 18 12.1217 18 10C18 7.87827 17.1571 5.84344 15.6569 4.34315C14.1566 2.84285 12.1217 2 10 2C7.87827 2 5.84344 2.84285 4.34315 4.34315C2.84285 5.84344 2 7.87827 2 10C2 12.1217 2.84285 14.1566 4.34315 15.6569C5.84344 17.1571 7.87827 18 10 18ZM10.707 7.707C10.8892 7.5184 10.99 7.2658 10.9877 7.0036C10.9854 6.7414 10.8802 6.49059 10.6948 6.30518C10.5094 6.11977 10.2586 6.0146 9.9964 6.01233C9.7342 6.01005 9.4816 6.11084 9.293 6.293L6.293 9.293C6.10553 9.48053 6.00021 9.73484 6.00021 10C6.00021 10.2652 6.10553 10.5195 6.293 10.707L9.293 13.707C9.4816 13.8892 9.7342 13.99 9.9964 13.9877C10.2586 13.9854 10.5094 13.8802 10.6948 13.6948C10.8802 13.5094 10.9854 13.2586 10.9877 12.9964C10.99 12.7342 10.8892 12.4816 10.707 12.293L9.414 11H13C13.2652 11 13.5196 10.8946 13.7071 10.7071C13.8946 10.5196 14 10.2652 14 10C14 9.73478 13.8946 9.48043 13.7071 9.29289C13.5196 9.10536 13.2652 9 13 9H9.414L10.707 7.707Z" fill="#111928"/>
</svg>
