<svg width="20" height="20" viewBox="0 0 20 20" fill="none" xmlns="http://www.w3.org/2000/svg">
<path fill-rule="evenodd" clip-rule="evenodd" d="M14.7071 12.293C14.8946 12.4805 14.9999 12.7348 14.9999 13C14.9999 13.2652 14.8946 13.5195 14.7071 13.707L10.7071 17.707C10.5196 17.8945 10.2652 17.9998 10.0001 17.9998C9.73492 17.9998 9.48061 17.8945 9.29308 17.707L5.29308 13.707C5.19757 13.6148 5.12139 13.5044 5.06898 13.3824C5.01657 13.2604 4.98898 13.1292 4.98783 12.9964C4.98668 12.8636 5.01198 12.7319 5.06226 12.609C5.11254 12.4861 5.18679 12.3745 5.28069 12.2806C5.37458 12.1867 5.48623 12.1125 5.60913 12.0622C5.73202 12.0119 5.8637 11.9866 5.99648 11.9877C6.12926 11.9889 6.26048 12.0165 6.38249 12.0689C6.50449 12.1213 6.61483 12.1975 6.70708 12.293L9.00008 14.586V3C9.00008 2.73478 9.10544 2.48043 9.29297 2.29289C9.48051 2.10536 9.73486 2 10.0001 2C10.2653 2 10.5197 2.10536 10.7072 2.29289C10.8947 2.48043 11.0001 2.73478 11.0001 3V14.586L13.2931 12.293C13.4806 12.1055 13.7349 12.0002 14.0001 12.0002C14.2652 12.0002 14.5196 12.1055 14.7071 12.293Z" fill="#111928"/>
</svg>
