<svg width="20" height="20" viewBox="0 0 20 20" fill="none" xmlns="http://www.w3.org/2000/svg">
<path fill-rule="evenodd" clip-rule="evenodd" d="M10 18C12.1217 18 14.1566 17.1571 15.6569 15.6569C17.1571 14.1566 18 12.1217 18 10C18 7.87827 17.1571 5.84344 15.6569 4.34315C14.1566 2.84285 12.1217 2 10 2C7.87827 2 5.84344 2.84285 4.34315 4.34315C2.84285 5.84344 2 7.87827 2 10C2 12.1217 2.84285 14.1566 4.34315 15.6569C5.84344 17.1571 7.87827 18 10 18ZM13.707 9.293L10.707 6.293C10.5184 6.11084 10.2658 6.01005 10.0036 6.01233C9.7414 6.0146 9.49059 6.11977 9.30518 6.30518C9.11977 6.49059 9.0146 6.7414 9.01233 7.0036C9.01005 7.2658 9.11084 7.5184 9.293 7.707L10.586 9H7C6.73478 9 6.48043 9.10536 6.29289 9.29289C6.10536 9.48043 6 9.73478 6 10C6 10.2652 6.10536 10.5196 6.29289 10.7071C6.48043 10.8946 6.73478 11 7 11H10.586L9.293 12.293C9.19749 12.3852 9.12131 12.4956 9.0689 12.6176C9.01649 12.7396 8.9889 12.8708 8.98775 13.0036C8.9866 13.1364 9.0119 13.2681 9.06218 13.391C9.11246 13.5139 9.18671 13.6255 9.28061 13.7194C9.3745 13.8133 9.48615 13.8875 9.60905 13.9378C9.73194 13.9881 9.86362 14.0134 9.9964 14.0123C10.1292 14.0111 10.2604 13.9835 10.3824 13.9311C10.5044 13.8787 10.6148 13.8025 10.707 13.707L13.707 10.707C13.8945 10.5195 13.9998 10.2652 13.9998 10C13.9998 9.73484 13.8945 9.48053 13.707 9.293Z" fill="#111928"/>
</svg>
