<svg width="20" height="20" viewBox="0 0 20 20" fill="none" xmlns="http://www.w3.org/2000/svg">
<path fill-rule="evenodd" clip-rule="evenodd" d="M5.29303 7.70703C5.10556 7.5195 5.00024 7.26519 5.00024 7.00003C5.00024 6.73487 5.10556 6.48056 5.29303 6.29303L9.29303 2.29303C9.48056 2.10556 9.73487 2.00024 10 2.00024C10.2652 2.00024 10.5195 2.10556 10.707 2.29303L14.707 6.29303C14.8892 6.48163 14.99 6.73423 14.9877 6.99643C14.9854 7.25863 14.8803 7.50944 14.6948 7.69485C14.5094 7.88026 14.2586 7.98543 13.9964 7.9877C13.7342 7.98998 13.4816 7.88919 13.293 7.70703L11 5.41403V17C11 17.2652 10.8947 17.5196 10.7071 17.7071C10.5196 17.8947 10.2652 18 10 18C9.73481 18 9.48046 17.8947 9.29292 17.7071C9.10539 17.5196 9.00003 17.2652 9.00003 17V5.41403L6.70703 7.70703C6.5195 7.8945 6.26519 7.99982 6.00003 7.99982C5.73487 7.99982 5.48056 7.8945 5.29303 7.70703Z" fill="#111928"/>
</svg>
