<svg width="19" height="20" viewBox="0 0 19 20" fill="none" xmlns="http://www.w3.org/2000/svg">
<path d="M3 8V4V8ZM3 4H7H3ZM3 4L7 8L3 4ZM15 8V4V8ZM15 4H11H15ZM15 4L11 8L15 4ZM3 12V16V12ZM3 16H7H3ZM3 16L7 12L3 16ZM15 16L11 12L15 16ZM15 16V12V16ZM15 16H11H15Z" fill="#111928"/>
<path fill-rule="evenodd" clip-rule="evenodd" d="M5.41421 5L7.70711 7.29289C8.09763 7.68342 8.09763 8.31658 7.70711 8.70711C7.31658 9.09763 6.68342 9.09763 6.29289 8.70711L4 6.41421V8C4 8.55228 3.55228 9 3 9C2.44772 9 2 8.55228 2 8V4.00017C2 3.74425 2.09763 3.48816 2.29289 3.29289C2.38877 3.19702 2.49927 3.12468 2.61722 3.07588C2.73512 3.02699 2.86441 3 3 3H7C7.55228 3 8 3.44772 8 4C8 4.55228 7.55228 5 7 5H5.41421ZM11 5C10.4477 5 10 4.55228 10 4C10 3.44772 10.4477 3 11 3H14.9998C15.1354 3 15.2649 3.02699 15.3828 3.07588C15.4999 3.12432 15.6096 3.19595 15.705 3.29078L15.7092 3.29502C15.804 3.3904 15.8757 3.50014 15.9241 3.61722C15.9743 3.73854 15.9996 3.86774 16 3.997L16 4V8C16 8.55228 15.5523 9 15 9C14.4477 9 14 8.55228 14 8V6.41421L11.7071 8.70711C11.3166 9.09763 10.6834 9.09763 10.2929 8.70711C9.90237 8.31658 9.90237 7.68342 10.2929 7.29289L12.5858 5H11ZM2 12C2 11.4477 2.44772 11 3 11C3.55228 11 4 11.4477 4 12V13.5858L6.29289 11.2929C6.68342 10.9024 7.31658 10.9024 7.70711 11.2929C8.09763 11.6834 8.09763 12.3166 7.70711 12.7071L5.41421 15H7C7.55228 15 8 15.4477 8 16C8 16.5523 7.55228 17 7 17H3.00069L2.997 17C2.8625 16.9996 2.73425 16.9727 2.61722 16.9241C2.49593 16.8738 2.38669 16.8004 2.29502 16.7092L2.29078 16.705C2.19595 16.6096 2.12432 16.4999 2.07588 16.3828C2.02699 16.2649 2 16.1356 2 16V12Z" fill="#111928"/>
<path d="M11 17C10.4477 17 10 16.5523 10 16C10 15.4477 10.4477 15 11 15H12.5858L10.2929 12.7071C9.90237 12.3166 9.90237 11.6834 10.2929 11.2929C10.6834 10.9024 11.3166 10.9024 11.7071 11.2929L14 13.5858V12C14 11.4477 14.4477 11 15 11C15.5523 11 16 11.4477 16 12V15.9993L16 16.003C15.9996 16.1375 15.9727 16.2657 15.9241 16.3828C15.8738 16.5041 15.8004 16.6133 15.7092 16.705L15.705 16.7092C15.6096 16.804 15.4999 16.8757 15.3828 16.9241C15.2649 16.973 15.1356 17 15 17H11Z" fill="#111928"/>
</svg>
