<svg width="20" height="20" viewBox="0 0 20 20" fill="none" xmlns="http://www.w3.org/2000/svg">
<path fill-rule="evenodd" clip-rule="evenodd" d="M14.243 5.75696C13.442 4.95639 12.4307 4.39888 11.3261 4.14888C10.2215 3.89888 9.06874 3.96661 8.00103 4.34423C6.93332 4.72185 5.99429 5.39395 5.29249 6.28282C4.5907 7.17168 4.1548 8.24102 4.03519 9.36721C3.91559 10.4934 4.11716 11.6304 4.6166 12.6469C5.11604 13.6633 5.89296 14.5177 6.85754 15.1111C7.82212 15.7046 8.93496 16.0129 10.0674 16.0005C11.1999 15.9881 12.3057 15.6554 13.257 15.041C13.3671 14.9655 13.4913 14.9128 13.6221 14.886C13.7529 14.8592 13.8878 14.859 14.0187 14.8852C14.1496 14.9113 14.274 14.9635 14.3844 15.0385C14.4949 15.1136 14.5892 15.21 14.6618 15.322C14.7344 15.4341 14.7838 15.5596 14.8071 15.691C14.8305 15.8225 14.8272 15.9573 14.7976 16.0875C14.768 16.2177 14.7126 16.3407 14.6347 16.4491C14.5568 16.5576 14.4579 16.6493 14.344 16.719C12.8507 17.6846 11.0783 18.1251 9.30667 17.971C7.53508 17.8169 5.86533 17.0769 4.56121 15.8679C3.2571 14.6589 2.39298 13.0499 2.10535 11.2951C1.81772 9.54018 2.12299 7.73949 2.97293 6.17747C3.82288 4.61545 5.16903 3.38114 6.79874 2.66954C8.42844 1.95794 10.2488 1.80962 11.9722 2.24801C13.6956 2.6864 15.2238 3.6865 16.3154 5.09033C17.407 6.49416 17.9998 8.22167 18 9.99996C18.0002 10.5572 17.8452 11.1034 17.5524 11.5775C17.2595 12.0516 16.8405 12.4347 16.3421 12.684C15.8437 12.9333 15.2858 13.0389 14.7308 12.9889C14.1759 12.9389 13.6458 12.7353 13.2 12.401C12.6302 13.1608 11.8085 13.693 10.8822 13.9025C9.95579 14.1119 8.98511 13.9849 8.14381 13.5442C7.3025 13.1035 6.64547 12.3777 6.29028 11.4969C5.93508 10.6161 5.90489 9.63759 6.20512 8.73653C6.50535 7.83547 7.1164 7.07064 7.92893 6.57888C8.74147 6.08713 9.70248 5.90054 10.64 6.05249C11.5775 6.20445 12.4304 6.68505 13.046 7.40828C13.6616 8.13152 13.9998 9.05021 14 9.99996C14 10.2652 14.1054 10.5195 14.2929 10.7071C14.4804 10.8946 14.7348 11 15 11C15.2652 11 15.5196 10.8946 15.7071 10.7071C15.8947 10.5195 16 10.2652 16 9.99996C16 8.46297 15.414 6.92996 14.243 5.75696ZM12 9.99996C12 9.46953 11.7893 8.96082 11.4142 8.58575C11.0392 8.21068 10.5304 7.99996 10 7.99996C9.46958 7.99996 8.96087 8.21068 8.5858 8.58575C8.21073 8.96082 8.00001 9.46953 8.00001 9.99996C8.00001 10.5304 8.21073 11.0391 8.5858 11.4142C8.96087 11.7893 9.46958 12 10 12C10.5304 12 11.0392 11.7893 11.4142 11.4142C11.7893 11.0391 12 10.5304 12 9.99996Z" fill="#111928"/>
</svg>
