<svg width="20" height="20" viewBox="0 0 20 20" fill="none" xmlns="http://www.w3.org/2000/svg">
<path fill-rule="evenodd" clip-rule="evenodd" d="M6.70703 4.879C7.26951 4.31635 8.03245 4.00017 8.82803 4H15C15.7957 4 16.5587 4.31607 17.1214 4.87868C17.684 5.44129 18 6.20435 18 7V13C18 13.7956 17.684 14.5587 17.1214 15.1213C16.5587 15.6839 15.7957 16 15 16H8.82803C8.03279 15.9996 7.27026 15.6834 6.70803 15.121L2.29303 10.707C2.10556 10.5195 2.00024 10.2652 2.00024 10C2.00024 9.73484 2.10556 9.48053 2.29303 9.293L6.70703 4.879ZM10.707 7.293C10.5184 7.11084 10.2658 7.01005 10.0036 7.01233C9.74143 7.0146 9.49062 7.11977 9.30521 7.30518C9.1198 7.49059 9.01464 7.7414 9.01236 8.0036C9.01008 8.2658 9.11087 8.5184 9.29303 8.707L10.586 10L9.29303 11.293C9.19752 11.3852 9.12134 11.4956 9.06893 11.6176C9.01652 11.7396 8.98893 11.8708 8.98778 12.0036C8.98663 12.1364 9.01193 12.2681 9.06221 12.391C9.11249 12.5139 9.18674 12.6255 9.28064 12.7194C9.37453 12.8133 9.48618 12.8875 9.60908 12.9378C9.73197 12.9881 9.86365 13.0134 9.99643 13.0123C10.1292 13.0111 10.2604 12.9835 10.3824 12.9311C10.5044 12.8787 10.6148 12.8025 10.707 12.707L12 11.414L13.293 12.707C13.4816 12.8892 13.7342 12.99 13.9964 12.9877C14.2586 12.9854 14.5094 12.8802 14.6948 12.6948C14.8803 12.5094 14.9854 12.2586 14.9877 11.9964C14.99 11.7342 14.8892 11.4816 14.707 11.293L13.414 10L14.707 8.707C14.8892 8.5184 14.99 8.2658 14.9877 8.0036C14.9854 7.7414 14.8803 7.49059 14.6948 7.30518C14.5094 7.11977 14.2586 7.0146 13.9964 7.01233C13.7342 7.01005 13.4816 7.11084 13.293 7.293L12 8.586L10.707 7.293Z" fill="#111928"/>
</svg>
