<svg width="20" height="20" viewBox="0 0 20 20" fill="none" xmlns="http://www.w3.org/2000/svg">
<path d="M10 2C8.40873 2 6.88261 2.63214 5.75739 3.75736C4.63217 4.88258 4.00003 6.4087 4.00003 8V11.586L3.29303 12.293C3.15322 12.4329 3.05802 12.611 3.01945 12.805C2.98088 12.9989 3.00068 13.2 3.07635 13.3827C3.15202 13.5654 3.28016 13.7215 3.44457 13.8314C3.60898 13.9413 3.80228 14 4.00003 14H16C16.1978 14 16.3911 13.9413 16.5555 13.8314C16.7199 13.7215 16.848 13.5654 16.9237 13.3827C16.9994 13.2 17.0192 12.9989 16.9806 12.805C16.942 12.611 16.8468 12.4329 16.707 12.293L16 11.586V8C16 6.4087 15.3679 4.88258 14.2427 3.75736C13.1175 2.63214 11.5913 2 10 2ZM10 18C9.20438 18 8.44132 17.6839 7.87871 17.1213C7.3161 16.5587 7.00003 15.7956 7.00003 15H13C13 15.7956 12.684 16.5587 12.1214 17.1213C11.5587 17.6839 10.7957 18 10 18Z" fill="#111928"/>
</svg>
