<svg width="20" height="20" viewBox="0 0 20 20" fill="none" xmlns="http://www.w3.org/2000/svg">
<path d="M9 4.80401C7.90971 4.27317 6.71265 3.99819 5.5 4.00001C4.245 4.00001 3.057 4.29001 2 4.80401V14.804C3.0903 14.2732 4.28736 13.9982 5.5 14C7.169 14 8.718 14.51 10 15.385C11.3261 14.4802 12.8947 13.9975 14.5 14C15.755 14 16.943 14.29 18 14.804V4.80401C16.9097 4.27317 15.7126 3.99819 14.5 4.00001C13.245 4.00001 12.057 4.29001 11 4.80401V12C11 12.2652 10.8946 12.5196 10.7071 12.7071C10.5196 12.8947 10.2652 13 10 13C9.73478 13 9.48043 12.8947 9.29289 12.7071C9.10536 12.5196 9 12.2652 9 12V4.80401Z" fill="#111928"/>
</svg>
