<svg width="20" height="20" viewBox="0 0 20 20" fill="none" xmlns="http://www.w3.org/2000/svg">
<path fill-rule="evenodd" clip-rule="evenodd" d="M6 6V5C6 4.20435 6.31607 3.44129 6.87868 2.87868C7.44129 2.31607 8.20435 2 9 2H11C11.7956 2 12.5587 2.31607 13.1213 2.87868C13.6839 3.44129 14 4.20435 14 5V6H16C16.5304 6 17.0391 6.21071 17.4142 6.58579C17.7893 6.96086 18 7.46957 18 8V11.57C15.4396 12.5187 12.7305 13.003 10 13C7.2695 13.003 4.56037 12.5188 2 11.57V8C2 7.46957 2.21071 6.96086 2.58579 6.58579C2.96086 6.21071 3.46957 6 4 6H6ZM8 5C8 4.73478 8.10536 4.48043 8.29289 4.29289C8.48043 4.10536 8.73478 4 9 4H11C11.2652 4 11.5196 4.10536 11.7071 4.29289C11.8946 4.48043 12 4.73478 12 5V6H8V5ZM9 10C9 9.73478 9.10536 9.48043 9.29289 9.29289C9.48043 9.10536 9.73478 9 10 9H10.01C10.2752 9 10.5296 9.10536 10.7171 9.29289C10.9046 9.48043 11.01 9.73478 11.01 10C11.01 10.2652 10.9046 10.5196 10.7171 10.7071C10.5296 10.8946 10.2752 11 10.01 11H10C9.73478 11 9.48043 10.8946 9.29289 10.7071C9.10536 10.5196 9 10.2652 9 10Z" fill="#111928"/>
<path d="M2 13.692V16C2 16.5304 2.21071 17.0392 2.58579 17.4142C2.96086 17.7893 3.46957 18 4 18H16C16.5304 18 17.0391 17.7893 17.4142 17.4142C17.7893 17.0392 18 16.5304 18 16V13.692C15.4224 14.5608 12.7201 15.0026 10 15C7.204 15 4.513 14.54 2 13.692Z" fill="#111928"/>
</svg>
