<svg width="20" height="20" viewBox="0 0 20 20" fill="none" xmlns="http://www.w3.org/2000/svg">
<path fill-rule="evenodd" clip-rule="evenodd" d="M6 3C6 2.73478 6.10536 2.48043 6.29289 2.29289C6.48043 2.10536 6.73478 2 7 2H7.01C7.27522 2 7.52957 2.10536 7.71711 2.29289C7.90464 2.48043 8.01 2.73478 8.01 3C8.01 3.26522 7.90464 3.51957 7.71711 3.70711C7.52957 3.89464 7.27522 4 7.01 4H7C6.73478 4 6.48043 3.89464 6.29289 3.70711C6.10536 3.51957 6 3.26522 6 3ZM8 6C8 5.73478 7.89464 5.48043 7.70711 5.29289C7.51957 5.10536 7.26522 5 7 5C6.73478 5 6.48043 5.10536 6.29289 5.29289C6.10536 5.48043 6 5.73478 6 6V7C5.46957 7 4.96086 7.21071 4.58579 7.58579C4.21071 7.96086 4 8.46957 4 9V10C3.46957 10 2.96086 10.2107 2.58579 10.5858C2.21071 10.9609 2 11.4696 2 12V12.683C2.375 12.7881 2.73105 12.9518 3.055 13.168C3.33487 13.3545 3.66367 13.454 4 13.454C4.33633 13.454 4.66513 13.3545 4.945 13.168C5.55353 12.7622 6.26858 12.5457 7 12.5457C7.73142 12.5457 8.44647 12.7622 9.055 13.168C9.33487 13.3545 9.66367 13.454 10 13.454C10.3363 13.454 10.6651 13.3545 10.945 13.168C11.5535 12.7622 12.2686 12.5457 13 12.5457C13.7314 12.5457 14.4465 12.7622 15.055 13.168C15.3349 13.3545 15.6637 13.454 16 13.454C16.3363 13.454 16.6651 13.3545 16.945 13.168C17.2689 12.9518 17.625 12.7881 18 12.683V12C18 11.4696 17.7893 10.9609 17.4142 10.5858C17.0391 10.2107 16.5304 10 16 10V9C16 8.46957 15.7893 7.96086 15.4142 7.58579C15.0391 7.21071 14.5304 7 14 7V6C14 5.73478 13.8946 5.48043 13.7071 5.29289C13.5196 5.10536 13.2652 5 13 5C12.7348 5 12.4804 5.10536 12.2929 5.29289C12.1054 5.48043 12 5.73478 12 6V7H11V6C11 5.73478 10.8946 5.48043 10.7071 5.29289C10.5196 5.10536 10.2652 5 10 5C9.73478 5 9.48043 5.10536 9.29289 5.29289C9.10536 5.48043 9 5.73478 9 6V7H8V6ZM18 14.868C17.3938 15.2569 16.6873 15.4606 15.9671 15.4542C15.2469 15.4478 14.5442 15.2316 13.945 14.832C13.6651 14.6455 13.3363 14.546 13 14.546C12.6637 14.546 12.3349 14.6455 12.055 14.832C11.4465 15.2378 10.7314 15.4543 10 15.4543C9.26858 15.4543 8.55353 15.2378 7.945 14.832C7.66513 14.6455 7.33633 14.546 7 14.546C6.66367 14.546 6.33487 14.6455 6.055 14.832C5.45578 15.2316 4.75307 15.4478 4.03286 15.4542C3.31266 15.4606 2.60622 15.2569 2 14.868V17C2 17.2652 2.10536 17.5196 2.29289 17.7071C2.48043 17.8946 2.73478 18 3 18H17C17.2652 18 17.5196 17.8946 17.7071 17.7071C17.8946 17.5196 18 17.2652 18 17V14.868ZM9 3C9 2.73478 9.10536 2.48043 9.29289 2.29289C9.48043 2.10536 9.73478 2 10 2H10.01C10.2752 2 10.5296 2.10536 10.7171 2.29289C10.9046 2.48043 11.01 2.73478 11.01 3C11.01 3.26522 10.9046 3.51957 10.7171 3.70711C10.5296 3.89464 10.2752 4 10.01 4H10C9.73478 4 9.48043 3.89464 9.29289 3.70711C9.10536 3.51957 9 3.26522 9 3ZM12 3C12 2.73478 12.1054 2.48043 12.2929 2.29289C12.4804 2.10536 12.7348 2 13 2H13.01C13.2752 2 13.5296 2.10536 13.7171 2.29289C13.9046 2.48043 14.01 2.73478 14.01 3C14.01 3.26522 13.9046 3.51957 13.7171 3.70711C13.5296 3.89464 13.2752 4 13.01 4H13C12.7348 4 12.4804 3.89464 12.2929 3.70711C12.1054 3.51957 12 3.26522 12 3Z" fill="#111928"/>
</svg>
