<svg width="20" height="20" viewBox="0 0 20 20" fill="none" xmlns="http://www.w3.org/2000/svg">
<path fill-rule="evenodd" clip-rule="evenodd" d="M6 2C5.46957 2 4.96086 2.21071 4.58579 2.58579C4.21071 2.96086 4 3.46957 4 4V16C4 16.5304 4.21071 17.0391 4.58579 17.4142C4.96086 17.7893 5.46957 18 6 18H14C14.5304 18 15.0391 17.7893 15.4142 17.4142C15.7893 17.0391 16 16.5304 16 16V4C16 3.46957 15.7893 2.96086 15.4142 2.58579C15.0391 2.21071 14.5304 2 14 2H6ZM7 4C6.73478 4 6.48043 4.10536 6.29289 4.29289C6.10536 4.48043 6 4.73478 6 5C6 5.26522 6.10536 5.51957 6.29289 5.70711C6.48043 5.89464 6.73478 6 7 6H13C13.2652 6 13.5196 5.89464 13.7071 5.70711C13.8946 5.51957 14 5.26522 14 5C14 4.73478 13.8946 4.48043 13.7071 4.29289C13.5196 4.10536 13.2652 4 13 4H7ZM13 11C13.2652 11 13.5196 11.1054 13.7071 11.2929C13.8946 11.4804 14 11.7348 14 12V15C14 15.2652 13.8946 15.5196 13.7071 15.7071C13.5196 15.8946 13.2652 16 13 16C12.7348 16 12.4804 15.8946 12.2929 15.7071C12.1054 15.5196 12 15.2652 12 15V12C12 11.7348 12.1054 11.4804 12.2929 11.2929C12.4804 11.1054 12.7348 11 13 11ZM10 14C9.73478 14 9.48043 14.1054 9.29289 14.2929C9.10536 14.4804 9 14.7348 9 15C9 15.2652 9.10536 15.5196 9.29289 15.7071C9.48043 15.8946 9.73478 16 10 16H10.01C10.2752 16 10.5296 15.8946 10.7171 15.7071C10.9046 15.5196 11.01 15.2652 11.01 15C11.01 14.7348 10.9046 14.4804 10.7171 14.2929C10.5296 14.1054 10.2752 14 10.01 14H10ZM6 15C6 14.7348 6.10536 14.4804 6.29289 14.2929C6.48043 14.1054 6.73478 14 7 14H7.01C7.27522 14 7.52957 14.1054 7.71711 14.2929C7.90464 14.4804 8.01 14.7348 8.01 15C8.01 15.2652 7.90464 15.5196 7.71711 15.7071C7.52957 15.8946 7.27522 16 7.01 16H7C6.73478 16 6.48043 15.8946 6.29289 15.7071C6.10536 15.5196 6 15.2652 6 15ZM7 11C6.73478 11 6.48043 11.1054 6.29289 11.2929C6.10536 11.4804 6 11.7348 6 12C6 12.2652 6.10536 12.5196 6.29289 12.7071C6.48043 12.8946 6.73478 13 7 13H7.01C7.27522 13 7.52957 12.8946 7.71711 12.7071C7.90464 12.5196 8.01 12.2652 8.01 12C8.01 11.7348 7.90464 11.4804 7.71711 11.2929C7.52957 11.1054 7.27522 11 7.01 11H7ZM9 12C9 11.7348 9.10536 11.4804 9.29289 11.2929C9.48043 11.1054 9.73478 11 10 11H10.01C10.2752 11 10.5296 11.1054 10.7171 11.2929C10.9046 11.4804 11.01 11.7348 11.01 12C11.01 12.2652 10.9046 12.5196 10.7171 12.7071C10.5296 12.8946 10.2752 13 10.01 13H10C9.73478 13 9.48043 12.8946 9.29289 12.7071C9.10536 12.5196 9 12.2652 9 12ZM13 8C12.7348 8 12.4804 8.10536 12.2929 8.29289C12.1054 8.48043 12 8.73478 12 9C12 9.26522 12.1054 9.51957 12.2929 9.70711C12.4804 9.89464 12.7348 10 13 10H13.01C13.2752 10 13.5296 9.89464 13.7171 9.70711C13.9046 9.51957 14.01 9.26522 14.01 9C14.01 8.73478 13.9046 8.48043 13.7171 8.29289C13.5296 8.10536 13.2752 8 13.01 8H13ZM9 9C9 8.73478 9.10536 8.48043 9.29289 8.29289C9.48043 8.10536 9.73478 8 10 8H10.01C10.2752 8 10.5296 8.10536 10.7171 8.29289C10.9046 8.48043 11.01 8.73478 11.01 9C11.01 9.26522 10.9046 9.51957 10.7171 9.70711C10.5296 9.89464 10.2752 10 10.01 10H10C9.73478 10 9.48043 9.89464 9.29289 9.70711C9.10536 9.51957 9 9.26522 9 9ZM7 8C6.73478 8 6.48043 8.10536 6.29289 8.29289C6.10536 8.48043 6 8.73478 6 9C6 9.26522 6.10536 9.51957 6.29289 9.70711C6.48043 9.89464 6.73478 10 7 10H7.01C7.27522 10 7.52957 9.89464 7.71711 9.70711C7.90464 9.51957 8.01 9.26522 8.01 9C8.01 8.73478 7.90464 8.48043 7.71711 8.29289C7.52957 8.10536 7.27522 8 7.01 8H7Z" fill="#111928"/>
</svg>
