<svg width="20" height="20" viewBox="0 0 20 20" fill="none" xmlns="http://www.w3.org/2000/svg">
<path d="M2 11C2 10.7348 2.10536 10.4804 2.29289 10.2929C2.48043 10.1054 2.73478 10 3 10H5C5.26522 10 5.51957 10.1054 5.70711 10.2929C5.89464 10.4804 6 10.7348 6 11V16C6 16.2652 5.89464 16.5196 5.70711 16.7071C5.51957 16.8946 5.26522 17 5 17H3C2.73478 17 2.48043 16.8946 2.29289 16.7071C2.10536 16.5196 2 16.2652 2 16V11ZM8 7C8 6.73478 8.10536 6.48043 8.29289 6.29289C8.48043 6.10536 8.73478 6 9 6H11C11.2652 6 11.5196 6.10536 11.7071 6.29289C11.8946 6.48043 12 6.73478 12 7V16C12 16.2652 11.8946 16.5196 11.7071 16.7071C11.5196 16.8946 11.2652 17 11 17H9C8.73478 17 8.48043 16.8946 8.29289 16.7071C8.10536 16.5196 8 16.2652 8 16V7ZM14 4C14 3.73478 14.1054 3.48043 14.2929 3.29289C14.4804 3.10536 14.7348 3 15 3H17C17.2652 3 17.5196 3.10536 17.7071 3.29289C17.8946 3.48043 18 3.73478 18 4V16C18 16.2652 17.8946 16.5196 17.7071 16.7071C17.5196 16.8946 17.2652 17 17 17H15C14.7348 17 14.4804 16.8946 14.2929 16.7071C14.1054 16.5196 14 16.2652 14 16V4Z" fill="#111928"/>
</svg>
