<svg width="20" height="20" viewBox="0 0 20 20" fill="none" xmlns="http://www.w3.org/2000/svg">
<path d="M2 5C2 4.46957 2.21071 3.96086 2.58579 3.58579C2.96086 3.21071 3.46957 3 4 3H11C11.5304 3 12.0391 3.21071 12.4142 3.58579C12.7893 3.96086 13 4.46957 13 5V9C13 9.53043 12.7893 10.0391 12.4142 10.4142C12.0391 10.7893 11.5304 11 11 11H9L6 14V11H4C3.46957 11 2.96086 10.7893 2.58579 10.4142C2.21071 10.0391 2 9.53043 2 9V5Z" fill="#111928"/>
<path d="M15 7V9C15 10.0609 14.5786 11.0783 13.8284 11.8284C13.0783 12.5786 12.0609 13 11 13H9.82801L8.06201 14.767C8.34201 14.916 8.66101 15 9.00001 15H11L14 18V15H16C16.5304 15 17.0392 14.7893 17.4142 14.4142C17.7893 14.0391 18 13.5304 18 13V9C18 8.46957 17.7893 7.96086 17.4142 7.58579C17.0392 7.21071 16.5304 7 16 7H15Z" fill="#111928"/>
</svg>
