<svg width="20" height="20" viewBox="0 0 20 20" fill="none" xmlns="http://www.w3.org/2000/svg">
<path fill-rule="evenodd" clip-rule="evenodd" d="M10.2931 15.707C10.1056 15.5194 10.0003 15.2651 10.0003 15C10.0003 14.7348 10.1056 14.4805 10.2931 14.293L14.5861 9.99996L10.2931 5.70696C10.1976 5.61471 10.1214 5.50437 10.069 5.38236C10.0166 5.26036 9.98898 5.12914 9.98783 4.99636C9.98668 4.86358 10.012 4.7319 10.0623 4.60901C10.1125 4.48611 10.1868 4.37446 10.2807 4.28056C10.3746 4.18667 10.4862 4.11242 10.6091 4.06214C10.732 4.01186 10.8637 3.98655 10.9965 3.98771C11.1293 3.98886 11.2605 4.01645 11.3825 4.06886C11.5045 4.12127 11.6148 4.19745 11.7071 4.29296L16.7071 9.29296C16.8946 9.48049 16.9999 9.73479 16.9999 9.99996C16.9999 10.2651 16.8946 10.5194 16.7071 10.707L11.7071 15.707C11.5196 15.8944 11.2652 15.9997 11.0001 15.9997C10.7349 15.9997 10.4806 15.8944 10.2931 15.707Z" fill="#111928"/>
<path fill-rule="evenodd" clip-rule="evenodd" d="M4.29303 15.707C4.10556 15.5195 4.00024 15.2652 4.00024 15C4.00024 14.7349 4.10556 14.4806 4.29303 14.293L8.58603 10L4.29303 5.70704C4.11087 5.51844 4.01008 5.26584 4.01236 5.00364C4.01463 4.74144 4.1198 4.49063 4.30521 4.30522C4.49062 4.11981 4.74143 4.01465 5.00363 4.01237C5.26583 4.01009 5.51843 4.11088 5.70703 4.29304L10.707 9.29304C10.8945 9.48057 10.9998 9.73488 10.9998 10C10.9998 10.2652 10.8945 10.5195 10.707 10.707L5.70703 15.707C5.5195 15.8945 5.26519 15.9998 5.00003 15.9998C4.73487 15.9998 4.48056 15.8945 4.29303 15.707Z" fill="#111928"/>
</svg>
