<svg width="20" height="20" viewBox="0 0 20 20" fill="none" xmlns="http://www.w3.org/2000/svg">
<path fill-rule="evenodd" clip-rule="evenodd" d="M15.7071 4.29303C15.8946 4.48056 15.9999 4.73487 15.9999 5.00003C15.9999 5.26519 15.8946 5.5195 15.7071 5.70703L10.7071 10.707C10.5196 10.8945 10.2652 10.9998 10.0001 10.9998C9.73492 10.9998 9.48061 10.8945 9.29308 10.707L4.29308 5.70703C4.11092 5.51843 4.01013 5.26583 4.01241 5.00363C4.01469 4.74143 4.11985 4.49062 4.30526 4.30521C4.49067 4.1198 4.74148 4.01463 5.00368 4.01236C5.26588 4.01008 5.51848 4.11087 5.70708 4.29303L10.0001 8.58603L14.2931 4.29303C14.4806 4.10556 14.7349 4.00024 15.0001 4.00024C15.2652 4.00024 15.5196 4.10556 15.7071 4.29303ZM15.7071 10.293C15.8946 10.4806 15.9999 10.7349 15.9999 11C15.9999 11.2652 15.8946 11.5195 15.7071 11.707L10.7071 16.707C10.5196 16.8945 10.2652 16.9998 10.0001 16.9998C9.73492 16.9998 9.48061 16.8945 9.29308 16.707L4.29308 11.707C4.19757 11.6148 4.12139 11.5044 4.06898 11.3824C4.01657 11.2604 3.98898 11.1292 3.98783 10.9964C3.98668 10.8637 4.01198 10.732 4.06226 10.6091C4.11254 10.4862 4.18679 10.3745 4.28069 10.2806C4.37458 10.1867 4.48623 10.1125 4.60913 10.0622C4.73202 10.0119 4.8637 9.98663 4.99648 9.98778C5.12926 9.98893 5.26048 10.0165 5.38249 10.0689C5.50449 10.1213 5.61483 10.1975 5.70708 10.293L10.0001 14.586L14.2931 10.293C14.4806 10.1056 14.7349 10.0002 15.0001 10.0002C15.2652 10.0002 15.5196 10.1056 15.7071 10.293Z" fill="#111928"/>
</svg>
