<svg width="20" height="20" viewBox="0 0 20 20" fill="none" xmlns="http://www.w3.org/2000/svg">
<path fill-rule="evenodd" clip-rule="evenodd" d="M14.7069 12.707C14.5194 12.8945 14.2651 12.9998 13.9999 12.9998C13.7348 12.9998 13.4804 12.8945 13.2929 12.707L9.99992 9.41403L6.70692 12.707C6.51832 12.8892 6.26571 12.99 6.00352 12.9877C5.74132 12.9854 5.49051 12.8803 5.3051 12.6948C5.11969 12.5094 5.01452 12.2586 5.01224 11.9964C5.00997 11.7342 5.11076 11.4816 5.29292 11.293L9.29292 7.29303C9.48045 7.10556 9.73475 7.00024 9.99992 7.00024C10.2651 7.00024 10.5194 7.10556 10.7069 7.29303L14.7069 11.293C14.8944 11.4806 14.9997 11.7349 14.9997 12C14.9997 12.2652 14.8944 12.5195 14.7069 12.707Z" fill="#111928"/>
</svg>
