<svg width="20" height="20" viewBox="0 0 20 20" fill="none" xmlns="http://www.w3.org/2000/svg">
<path fill-rule="evenodd" clip-rule="evenodd" d="M15.707 15.707C15.5195 15.8944 15.2652 15.9997 15 15.9997C14.7349 15.9997 14.4806 15.8944 14.293 15.707L9.29303 10.707C9.10556 10.5194 9.00024 10.2651 9.00024 9.99996C9.00024 9.73479 9.10556 9.48049 9.29303 9.29296L14.293 4.29296C14.3853 4.19745 14.4956 4.12127 14.6176 4.06886C14.7396 4.01645 14.8709 3.98886 15.0036 3.98771C15.1364 3.98655 15.2681 4.01186 15.391 4.06214C15.5139 4.11242 15.6255 4.18667 15.7194 4.28056C15.8133 4.37446 15.8876 4.48611 15.9379 4.60901C15.9881 4.7319 16.0134 4.86358 16.0123 4.99636C16.0111 5.12914 15.9835 5.26036 15.9311 5.38236C15.8787 5.50437 15.8025 5.61471 15.707 5.70696L11.414 9.99996L15.707 14.293C15.8945 14.4805 15.9998 14.7348 15.9998 15C15.9998 15.2651 15.8945 15.5194 15.707 15.707ZM9.70703 15.707C9.5195 15.8944 9.26519 15.9997 9.00003 15.9997C8.73487 15.9997 8.48056 15.8944 8.29303 15.707L3.29303 10.707C3.10556 10.5194 3.00024 10.2651 3.00024 9.99996C3.00024 9.73479 3.10556 9.48049 3.29303 9.29296L8.29303 4.29296C8.48163 4.1108 8.73423 4.01001 8.99643 4.01228C9.25863 4.01456 9.50944 4.11973 9.69485 4.30514C9.88026 4.49055 9.98543 4.74136 9.9877 5.00356C9.98998 5.26575 9.88919 5.51836 9.70703 5.70696L5.41403 9.99996L9.70703 14.293C9.8945 14.4805 9.99982 14.7348 9.99982 15C9.99982 15.2651 9.8945 15.5194 9.70703 15.707Z" fill="#111928"/>
</svg>
