<svg width="20" height="20" viewBox="0 0 20 20" fill="none" xmlns="http://www.w3.org/2000/svg">
<path d="M8 3C8 2.73478 8.10536 2.48043 8.29289 2.29289C8.48043 2.10536 8.73478 2 9 2H11C11.2652 2 11.5196 2.10536 11.7071 2.29289C11.8946 2.48043 12 2.73478 12 3C12 3.26522 11.8946 3.51957 11.7071 3.70711C11.5196 3.89464 11.2652 4 11 4H9C8.73478 4 8.48043 3.89464 8.29289 3.70711C8.10536 3.51957 8 3.26522 8 3Z" fill="#111928"/>
<path d="M6 3C5.46957 3 4.96086 3.21071 4.58579 3.58579C4.21071 3.96086 4 4.46957 4 5V16C4 16.5304 4.21071 17.0391 4.58579 17.4142C4.96086 17.7893 5.46957 18 6 18H14C14.5304 18 15.0391 17.7893 15.4142 17.4142C15.7893 17.0391 16 16.5304 16 16V5C16 4.46957 15.7893 3.96086 15.4142 3.58579C15.0391 3.21071 14.5304 3 14 3C14 3.79565 13.6839 4.55871 13.1213 5.12132C12.5587 5.68393 11.7956 6 11 6H9C8.20435 6 7.44129 5.68393 6.87868 5.12132C6.31607 4.55871 6 3.79565 6 3Z" fill="#111928"/>
</svg>
