<svg width="20" height="20" viewBox="0 0 20 20" fill="none" xmlns="http://www.w3.org/2000/svg">
<path d="M9 2C8.73478 2 8.48043 2.10536 8.29289 2.29289C8.10536 2.48043 8 2.73478 8 3C8 3.26522 8.10536 3.51957 8.29289 3.70711C8.48043 3.89464 8.73478 4 9 4H11C11.2652 4 11.5196 3.89464 11.7071 3.70711C11.8946 3.51957 12 3.26522 12 3C12 2.73478 11.8946 2.48043 11.7071 2.29289C11.5196 2.10536 11.2652 2 11 2H9Z" fill="#111928"/>
<path fill-rule="evenodd" clip-rule="evenodd" d="M4 5C4 4.46957 4.21071 3.96086 4.58579 3.58579C4.96086 3.21071 5.46957 3 6 3C6 3.79565 6.31607 4.55871 6.87868 5.12132C7.44129 5.68393 8.20435 6 9 6H11C11.7956 6 12.5587 5.68393 13.1213 5.12132C13.6839 4.55871 14 3.79565 14 3C14.5304 3 15.0391 3.21071 15.4142 3.58579C15.7893 3.96086 16 4.46957 16 5V16C16 16.5304 15.7893 17.0391 15.4142 17.4142C15.0391 17.7893 14.5304 18 14 18H6C5.46957 18 4.96086 17.7893 4.58579 17.4142C4.21071 17.0391 4 16.5304 4 16V5ZM13.707 10.707C13.8892 10.5184 13.99 10.2658 13.9877 10.0036C13.9854 9.7414 13.8802 9.49059 13.6948 9.30518C13.5094 9.11977 13.2586 9.0146 12.9964 9.01233C12.7342 9.01005 12.4816 9.11084 12.293 9.293L9 12.586L7.707 11.293C7.5184 11.1108 7.2658 11.01 7.0036 11.0123C6.7414 11.0146 6.49059 11.1198 6.30518 11.3052C6.11977 11.4906 6.0146 11.7414 6.01233 12.0036C6.01005 12.2658 6.11084 12.5184 6.293 12.707L8.293 14.707C8.48053 14.8945 8.73484 14.9998 9 14.9998C9.26516 14.9998 9.51947 14.8945 9.707 14.707L13.707 10.707Z" fill="#111928"/>
</svg>
