<svg width="20" height="20" viewBox="0 0 20 20" fill="none" xmlns="http://www.w3.org/2000/svg">
<path d="M5.50004 15.9999C4.60457 15.9988 3.7436 15.6544 3.09431 15.0377C2.44502 14.421 2.0568 13.5789 2.00952 12.6847C1.96225 11.7905 2.25952 10.9122 2.84017 10.2305C3.42082 9.54875 4.24068 9.11553 5.13104 9.01994C4.86887 7.99183 5.02586 6.90168 5.56747 5.98932C6.10907 5.07695 6.99093 4.41711 8.01904 4.15494C9.04715 3.89278 10.1373 4.04976 11.0497 4.59137C11.962 5.13297 12.6219 6.01483 12.884 7.04294C13.4955 6.95781 14.1179 6.99939 14.7126 7.16511C15.3073 7.33083 15.8615 7.61714 16.3408 8.00623C16.8201 8.39531 17.2142 8.87886 17.4986 9.42679C17.783 9.97472 17.9517 10.5753 17.994 11.1912C18.0364 11.8071 17.9516 12.4251 17.7448 13.0068C17.5381 13.5885 17.2139 14.1215 16.7924 14.5725C16.3709 15.0235 15.8611 15.383 15.2947 15.6286C14.7283 15.8742 14.1174 16.0006 13.5 15.9999H5.50004Z" fill="#111928"/>
</svg>
