<svg width="20" height="20" viewBox="0 0 20 20" fill="none" xmlns="http://www.w3.org/2000/svg">
<path d="M5.50004 12.9999C4.60457 12.9988 3.7436 12.6544 3.09431 12.0377C2.44502 11.421 2.0568 10.5789 2.00952 9.68472C1.96225 8.79049 2.25952 7.91216 2.84017 7.23045C3.42082 6.54875 4.24068 6.11553 5.13104 6.01994C4.86887 4.99183 5.02586 3.90168 5.56747 2.98932C6.10907 2.07695 6.99093 1.41711 8.01904 1.15494C9.04715 0.892777 10.1373 1.04976 11.0497 1.59137C11.962 2.13297 12.6219 3.01483 12.884 4.04294C13.4955 3.95781 14.1179 3.99939 14.7126 4.16511C15.3073 4.33083 15.8615 4.61714 16.3408 5.00623C16.8201 5.39531 17.2142 5.87886 17.4986 6.42679C17.783 6.97472 17.9517 7.57531 17.994 8.1912C18.0364 8.80709 17.9516 9.42511 17.7448 10.0068C17.5381 10.5885 17.2139 11.1215 16.7924 11.5725C16.3709 12.0235 15.8611 12.383 15.2947 12.6286C14.7283 12.8742 14.1174 13.0006 13.5 12.9999H11V9.41294L12.293 10.7059C12.4816 10.8881 12.7342 10.9889 12.9964 10.9866C13.2586 10.9843 13.5095 10.8792 13.6949 10.6938C13.8803 10.5084 13.9854 10.2575 13.9877 9.99535C13.99 9.73315 13.8892 9.48055 13.707 9.29194L10.707 6.29194C10.5195 6.10447 10.2652 5.99916 10 5.99916C9.73488 5.99916 9.48057 6.10447 9.29304 6.29194L6.29304 9.29194C6.11088 9.48055 6.01009 9.73315 6.01237 9.99535C6.01464 10.2575 6.11981 10.5084 6.30522 10.6938C6.49063 10.8792 6.74144 10.9843 7.00364 10.9866C7.26584 10.9889 7.51844 10.8881 7.70704 10.7059L9.00004 9.41394V12.9999H5.50004Z" fill="#111928"/>
<path d="M9 13H11V18C11 18.2652 10.8946 18.5196 10.7071 18.7071C10.5196 18.8946 10.2652 19 10 19C9.73478 19 9.48043 18.8946 9.29289 18.7071C9.10536 18.5196 9 18.2652 9 18V13Z" fill="#111928"/>
</svg>
