<svg width="20" height="20" viewBox="0 0 20 20" fill="none" xmlns="http://www.w3.org/2000/svg">
<path fill-rule="evenodd" clip-rule="evenodd" d="M2 9.50002C2 10.4283 2.36875 11.3185 3.02513 11.9749C3.6815 12.6313 4.57174 13 5.5 13H9V15.586L7.707 14.293C7.5184 14.1109 7.2658 14.0101 7.0036 14.0124C6.7414 14.0146 6.49059 14.1198 6.30518 14.3052C6.11977 14.4906 6.0146 14.7414 6.01233 15.0036C6.01005 15.2658 6.11084 15.5184 6.293 15.707L9.293 18.707C9.48053 18.8945 9.73484 18.9998 10 18.9998C10.2652 18.9998 10.5195 18.8945 10.707 18.707L13.707 15.707C13.8892 15.5184 13.99 15.2658 13.9877 15.0036C13.9854 14.7414 13.8802 14.4906 13.6948 14.3052C13.5094 14.1198 13.2586 14.0146 12.9964 14.0124C12.7342 14.0101 12.4816 14.1109 12.293 14.293L11 15.586V13H13.5C14.1167 12.9997 14.7268 12.8725 15.2924 12.6265C15.8579 12.3805 16.3668 12.0209 16.7876 11.57C17.2083 11.119 17.5319 10.5864 17.7382 10.0052C17.9445 9.424 18.0291 8.80659 17.9868 8.19131C17.9445 7.57603 17.7761 6.97601 17.4922 6.42851C17.2083 5.88101 16.8149 5.39771 16.3364 5.00861C15.8579 4.61952 15.3045 4.33294 14.7106 4.16666C14.1167 4.00038 13.495 3.95796 12.884 4.04202C12.7659 3.52061 12.5445 3.02814 12.2329 2.5937C11.9214 2.15926 11.5259 1.79165 11.0699 1.51258C10.6139 1.2335 10.1066 1.04863 9.57795 0.968865C9.04931 0.889101 8.51005 0.916065 7.99201 1.04817C7.47396 1.18027 6.98763 1.41482 6.56174 1.73799C6.13585 2.06116 5.77903 2.46639 5.51234 2.92974C5.24565 3.3931 5.07451 3.90519 5.00901 4.43579C4.94351 4.96638 4.98499 5.50472 5.131 6.01902C4.27136 6.11016 3.47586 6.51621 2.89776 7.15893C2.31967 7.80165 1.99988 8.63557 2 9.50002ZM11 13H9V8.00002C9 7.73481 9.10536 7.48045 9.29289 7.29292C9.48043 7.10538 9.73478 7.00002 10 7.00002C10.2652 7.00002 10.5196 7.10538 10.7071 7.29292C10.8946 7.48045 11 7.73481 11 8.00002V13Z" fill="#111928"/>
</svg>
