<svg width="20" height="20" viewBox="0 0 20 20" fill="none" xmlns="http://www.w3.org/2000/svg">
<path fill-rule="evenodd" clip-rule="evenodd" d="M9.504 1.13204C9.65507 1.04575 9.82603 1.00037 10 1.00037C10.174 1.00037 10.3449 1.04575 10.496 1.13204L12.246 2.13204C12.3633 2.19543 12.4667 2.28162 12.5502 2.38556C12.6337 2.4895 12.6955 2.60908 12.7321 2.73727C12.7687 2.86546 12.7793 2.99968 12.7633 3.13202C12.7473 3.26437 12.7049 3.39217 12.6388 3.50792C12.5727 3.62367 12.484 3.72503 12.3782 3.80603C12.2723 3.88703 12.1513 3.94604 12.0222 3.97959C11.8932 4.01315 11.7588 4.02056 11.6269 4.00141C11.4949 3.98225 11.3682 3.93691 11.254 3.86804L10 3.15204L8.74601 3.86804C8.63185 3.93691 8.50509 3.98225 8.37316 4.00141C8.24123 4.02056 8.1068 4.01315 7.97778 3.97959C7.84875 3.94604 7.72774 3.88703 7.62186 3.80603C7.51598 3.72503 7.42736 3.62367 7.36122 3.50792C7.29507 3.39217 7.25274 3.26437 7.23671 3.13202C7.22068 2.99968 7.23128 2.86546 7.26788 2.73727C7.30447 2.60908 7.36633 2.4895 7.44982 2.38556C7.5333 2.28162 7.63672 2.19543 7.754 2.13204L9.504 1.13204ZM5.618 4.50404C5.74948 4.73427 5.78414 5.00728 5.71439 5.26306C5.64463 5.51884 5.47616 5.73644 5.246 5.86804L5.016 6.00004L5.246 6.13204C5.36329 6.19543 5.46671 6.28162 5.55019 6.38556C5.63368 6.4895 5.69554 6.60908 5.73213 6.73727C5.76873 6.86546 5.77933 6.99968 5.7633 7.13202C5.74727 7.26437 5.70494 7.39218 5.63879 7.50792C5.57265 7.62367 5.48403 7.72503 5.37815 7.80603C5.27227 7.88703 5.15126 7.94604 5.02223 7.97959C4.89321 8.01315 4.75878 8.02056 4.62685 8.00141C4.49492 7.98225 4.36816 7.93691 4.254 7.86804L4 7.72304V8.00004C4 8.26526 3.89465 8.51961 3.70711 8.70715C3.51958 8.89469 3.26522 9.00004 3 9.00004C2.73479 9.00004 2.48043 8.89469 2.2929 8.70715C2.10536 8.51961 2 8.26526 2 8.00004V6.00004C1.99945 5.8204 2.04748 5.64396 2.13902 5.48939C2.23057 5.33483 2.36221 5.2079 2.52 5.12204L4.254 4.13204C4.48423 4.00057 4.75724 3.9659 5.01302 4.03566C5.2688 4.10542 5.4864 4.27389 5.618 4.50404ZM14.382 4.50404C14.5136 4.27389 14.7312 4.10542 14.987 4.03566C15.2428 3.9659 15.5158 4.00057 15.746 4.13204L17.479 5.12204C17.6366 5.20826 17.7681 5.33525 17.8597 5.48971C17.9514 5.64417 17.9998 5.82043 18 6.00004V8.00004C18 8.26526 17.8946 8.51961 17.7071 8.70715C17.5196 8.89469 17.2652 9.00004 17 9.00004C16.7348 9.00004 16.4804 8.89469 16.2929 8.70715C16.1054 8.51961 16 8.26526 16 8.00004V7.72304L15.746 7.86804C15.6319 7.93691 15.5051 7.98225 15.3732 8.00141C15.2412 8.02056 15.1068 8.01315 14.9778 7.97959C14.8488 7.94604 14.7277 7.88703 14.6219 7.80603C14.516 7.72503 14.4274 7.62367 14.3612 7.50792C14.2951 7.39218 14.2527 7.26437 14.2367 7.13202C14.2207 6.99968 14.2313 6.86546 14.2679 6.73727C14.3045 6.60908 14.3663 6.4895 14.4498 6.38556C14.5333 6.28162 14.6367 6.19543 14.754 6.13204L14.984 6.00004L14.754 5.86804C14.5239 5.73644 14.3554 5.51884 14.2856 5.26306C14.2159 5.00728 14.2505 4.73427 14.382 4.50404ZM7.382 8.50404C7.51361 8.27389 7.73121 8.10542 7.98699 8.03566C8.24277 7.9659 8.51578 8.00057 8.74601 8.13204L10 8.84804L11.254 8.13204C11.3682 8.06318 11.4949 8.01784 11.6269 7.99868C11.7588 7.97952 11.8932 7.98694 12.0222 8.02049C12.1513 8.05405 12.2723 8.11306 12.3782 8.19406C12.484 8.27506 12.5727 8.37642 12.6388 8.49216C12.7049 8.60791 12.7473 8.73572 12.7633 8.86806C12.7793 9.00041 12.7687 9.13463 12.7321 9.26282C12.6955 9.39101 12.6337 9.51059 12.5502 9.61453C12.4667 9.71846 12.3633 9.80466 12.246 9.86804L11 10.58V12C11 12.2653 10.8946 12.5196 10.7071 12.7072C10.5196 12.8947 10.2652 13 10 13C9.73479 13 9.48043 12.8947 9.2929 12.7072C9.10536 12.5196 9 12.2653 9 12V10.58L7.754 9.86804C7.52385 9.73644 7.35538 9.51883 7.28562 9.26306C7.21587 9.00728 7.25053 8.73427 7.382 8.50404ZM3 11C3.26522 11 3.51958 11.1054 3.70711 11.2929C3.89465 11.4805 4 11.7348 4 12V13.42L5.246 14.132C5.36329 14.1954 5.46671 14.2816 5.55019 14.3856C5.63368 14.4895 5.69554 14.6091 5.73213 14.7373C5.76873 14.8655 5.77933 14.9997 5.7633 15.132C5.74727 15.2644 5.70494 15.3922 5.63879 15.5079C5.57265 15.6237 5.48403 15.725 5.37815 15.806C5.27227 15.887 5.15126 15.946 5.02223 15.9796C4.89321 16.0131 4.75878 16.0206 4.62685 16.0014C4.49492 15.9822 4.36816 15.9369 4.254 15.868L2.504 14.868C2.35095 14.7806 2.22372 14.6543 2.13522 14.5019C2.04671 14.3494 2.00006 14.1763 2 14V12C2 11.7348 2.10536 11.4805 2.2929 11.2929C2.48043 11.1054 2.73479 11 3 11ZM17 11C17.2652 11 17.5196 11.1054 17.7071 11.2929C17.8946 11.4805 18 11.7348 18 12V14C17.9999 14.1763 17.9533 14.3494 17.8648 14.5019C17.7763 14.6543 17.6491 14.7806 17.496 14.868L15.746 15.868C15.6319 15.9369 15.5051 15.9822 15.3732 16.0014C15.2412 16.0206 15.1068 16.0131 14.9778 15.9796C14.8488 15.946 14.7277 15.887 14.6219 15.806C14.516 15.725 14.4274 15.6237 14.3612 15.5079C14.2951 15.3922 14.2527 15.2644 14.2367 15.132C14.2207 14.9997 14.2313 14.8655 14.2679 14.7373C14.3045 14.6091 14.3663 14.4895 14.4498 14.3856C14.5333 14.2816 14.6367 14.1954 14.754 14.132L16 13.42V12C16 11.7348 16.1054 11.4805 16.2929 11.2929C16.4804 11.1054 16.7348 11 17 11ZM7.382 16.504C7.51361 16.2739 7.73121 16.1054 7.98699 16.0357C8.24277 15.9659 8.51578 16.0006 8.74601 16.132L9 16.277V16C9 15.7348 9.10536 15.4805 9.2929 15.2929C9.48043 15.1054 9.73479 15 10 15C10.2652 15 10.5196 15.1054 10.7071 15.2929C10.8946 15.4805 11 15.7348 11 16V16.277L11.254 16.132C11.3682 16.0632 11.4949 16.0178 11.6269 15.9987C11.7588 15.9795 11.8932 15.9869 12.0222 16.0205C12.1513 16.054 12.2723 16.1131 12.3782 16.1941C12.484 16.2751 12.5727 16.3764 12.6388 16.4922C12.7049 16.6079 12.7473 16.7357 12.7633 16.8681C12.7793 17.0004 12.7687 17.1346 12.7321 17.2628C12.6955 17.391 12.6337 17.5106 12.5502 17.6145C12.4667 17.7185 12.3633 17.8047 12.246 17.868L10.511 18.86C10.3566 18.9525 10.18 19.0013 10 19.0013C9.82003 19.0013 9.64343 18.9525 9.48901 18.86L7.754 17.868C7.52385 17.7364 7.35538 17.5188 7.28562 17.2631C7.21587 17.0073 7.25053 16.7343 7.382 16.504Z" fill="#111928"/>
</svg>
