<svg width="20" height="20" viewBox="0 0 20 20" fill="none" xmlns="http://www.w3.org/2000/svg">
<path d="M11 17C11.0001 17.1703 11.0437 17.3379 11.1267 17.4867C11.2098 17.6355 11.3294 17.7606 11.4744 17.8501C11.6194 17.9397 11.7848 17.9907 11.955 17.9984C12.1252 18.0061 12.2946 17.9701 12.447 17.894L16.447 15.894C16.6131 15.811 16.7528 15.6834 16.8504 15.5255C16.9481 15.3676 16.9999 15.1856 17 15V9.23595C16.9999 9.06556 16.9563 8.89802 16.8733 8.74923C16.7902 8.60043 16.6706 8.47532 16.5256 8.38576C16.3806 8.2962 16.2152 8.24517 16.045 8.2375C15.8748 8.22983 15.7054 8.26579 15.553 8.34195L11.553 10.342C11.3869 10.4249 11.2472 10.5525 11.1496 10.7104C11.0519 10.8683 11.0001 11.0503 11 11.236V17ZM15.211 6.27595C15.3769 6.19282 15.5164 6.06516 15.6138 5.90728C15.7113 5.74939 15.7629 5.5675 15.7629 5.38195C15.7629 5.1964 15.7113 5.01451 15.6138 4.85663C15.5164 4.69874 15.3769 4.57109 15.211 4.48795L10.447 2.10595C10.3082 2.0366 10.1552 2.00049 10 2.00049C9.84484 2.00049 9.6918 2.0366 9.553 2.10595L4.789 4.48795C4.62312 4.57109 4.48364 4.69874 4.38617 4.85663C4.28869 5.01451 4.23707 5.1964 4.23707 5.38195C4.23707 5.5675 4.28869 5.74939 4.38617 5.90728C4.48364 6.06516 4.62312 6.19282 4.789 6.27595L9.553 8.65795C9.6918 8.72731 9.84484 8.76342 10 8.76342C10.1552 8.76342 10.3082 8.72731 10.447 8.65795L15.211 6.27595ZM4.447 8.34195C4.29458 8.26579 4.12522 8.22983 3.95501 8.2375C3.78479 8.24517 3.61935 8.2962 3.47439 8.38576C3.32944 8.47532 3.20977 8.60043 3.12674 8.74923C3.04372 8.89802 3.00009 9.06556 3 9.23595V15C3.0001 15.1856 3.05188 15.3676 3.14955 15.5255C3.24722 15.6834 3.38692 15.811 3.553 15.894L7.553 17.894C7.70542 17.9701 7.87477 18.0061 8.04499 17.9984C8.21521 17.9907 8.38065 17.9397 8.52561 17.8501C8.67056 17.7606 8.79023 17.6355 8.87326 17.4867C8.95628 17.3379 8.99991 17.1703 9 17V11.236C8.9999 11.0503 8.94812 10.8683 8.85045 10.7104C8.75278 10.5525 8.61308 10.4249 8.447 10.342L4.447 8.34195Z" fill="#111928"/>
</svg>
