<svg width="20" height="20" viewBox="0 0 20 20" fill="none" xmlns="http://www.w3.org/2000/svg">
<path fill-rule="evenodd" clip-rule="evenodd" d="M10 18C12.1217 18 14.1566 17.1571 15.6569 15.6569C17.1571 14.1566 18 12.1217 18 10C18 7.87827 17.1571 5.84344 15.6569 4.34315C14.1566 2.84285 12.1217 2 10 2C7.87827 2 5.84344 2.84285 4.34315 4.34315C2.84285 5.84344 2 7.87827 2 10C2 12.1217 2.84285 14.1566 4.34315 15.6569C5.84344 17.1571 7.87827 18 10 18ZM8.736 6.979C9.208 6.193 9.696 6 10 6C10.304 6 10.792 6.193 11.264 6.979C11.4005 7.20642 11.6217 7.37033 11.879 7.43465C12.1363 7.49898 12.4086 7.45845 12.636 7.322C12.8634 7.18555 13.0273 6.96434 13.0917 6.70704C13.156 6.44974 13.1155 6.17742 12.979 5.95C12.279 4.784 11.232 4 10 4C8.768 4 7.721 4.784 7.021 5.95C6.736 6.425 6.514 6.95 6.351 7.5H6C5.73478 7.5 5.48043 7.60536 5.29289 7.79289C5.10536 7.98043 5 8.23478 5 8.5C5 8.76522 5.10536 9.01957 5.29289 9.20711C5.48043 9.39464 5.73478 9.5 6 9.5H6.013C5.99518 9.8331 5.99518 10.1669 6.013 10.5H6C5.73478 10.5 5.48043 10.6054 5.29289 10.7929C5.10536 10.9804 5 11.2348 5 11.5C5 11.7652 5.10536 12.0196 5.29289 12.2071C5.48043 12.3946 5.73478 12.5 6 12.5H6.351C6.514 13.05 6.736 13.575 7.021 14.05C7.721 15.216 8.768 16 10 16C11.232 16 12.279 15.216 12.979 14.05C13.0466 13.9374 13.0913 13.8126 13.1106 13.6827C13.1299 13.5528 13.1235 13.4204 13.0917 13.293C13.0598 13.1656 13.0032 13.0457 12.925 12.9402C12.8468 12.8346 12.7486 12.7456 12.636 12.678C12.5234 12.6104 12.3986 12.5657 12.2687 12.5464C12.1388 12.5271 12.0064 12.5335 11.879 12.5653C11.7516 12.5972 11.6317 12.6538 11.5262 12.732C11.4206 12.8102 11.3316 12.9084 11.264 13.021C10.792 13.807 10.304 14 10 14C9.696 14 9.208 13.807 8.736 13.021C8.6362 12.8536 8.54799 12.6795 8.472 12.5H10C10.2652 12.5 10.5196 12.3946 10.7071 12.2071C10.8946 12.0196 11 11.7652 11 11.5C11 11.2348 10.8946 10.9804 10.7071 10.7929C10.5196 10.6054 10.2652 10.5 10 10.5H8.017C7.99433 10.1671 7.99433 9.83295 8.017 9.5H10C10.2652 9.5 10.5196 9.39464 10.7071 9.20711C10.8946 9.01957 11 8.76522 11 8.5C11 8.23478 10.8946 7.98043 10.7071 7.79289C10.5196 7.60536 10.2652 7.5 10 7.5H8.472C8.552 7.315 8.639 7.14 8.736 6.979Z" fill="#111928"/>
</svg>
