<svg width="20" height="20" viewBox="0 0 20 20" fill="none" xmlns="http://www.w3.org/2000/svg">
<path fill-rule="evenodd" clip-rule="evenodd" d="M10 18C12.1217 18 14.1566 17.1571 15.6569 15.6569C17.1571 14.1566 18 12.1217 18 10C18 7.87827 17.1571 5.84344 15.6569 4.34315C14.1566 2.84285 12.1217 2 10 2C7.87827 2 5.84344 2.84285 4.34315 4.34315C2.84285 5.84344 2 7.87827 2 10C2 12.1217 2.84285 14.1566 4.34315 15.6569C5.84344 17.1571 7.87827 18 10 18ZM7 5C6.73478 5 6.48043 5.10536 6.29289 5.29289C6.10536 5.48043 6 5.73478 6 6C6 6.26522 6.10536 6.51957 6.29289 6.70711C6.48043 6.89464 6.73478 7 7 7H8C8.35106 7.00001 8.69594 7.09243 8.99997 7.26796C9.304 7.4435 9.55647 7.69597 9.732 8H7C6.73478 8 6.48043 8.10536 6.29289 8.29289C6.10536 8.48043 6 8.73478 6 9C6 9.26522 6.10536 9.51957 6.29289 9.70711C6.48043 9.89464 6.73478 10 7 10H9.732C9.55647 10.304 9.304 10.5565 8.99997 10.732C8.69594 10.9076 8.35106 11 8 11H7C6.80225 11 6.60895 11.0587 6.44454 11.1686C6.28013 11.2785 6.15199 11.4346 6.07632 11.6173C6.00065 11.8 5.98085 12.0011 6.01942 12.195C6.05798 12.389 6.15319 12.5671 6.293 12.707L9.293 15.707C9.4816 15.8892 9.7342 15.99 9.9964 15.9877C10.2586 15.9854 10.5094 15.8802 10.6948 15.6948C10.8802 15.5094 10.9854 15.2586 10.9877 14.9964C10.99 14.7342 10.8892 14.4816 10.707 14.293L9.224 12.809C9.86654 12.6019 10.4463 12.2358 10.9096 11.7447C11.3729 11.2536 11.7046 10.6535 11.874 10H13C13.2652 10 13.5196 9.89464 13.7071 9.70711C13.8946 9.51957 14 9.26522 14 9C14 8.73478 13.8946 8.48043 13.7071 8.29289C13.5196 8.10536 13.2652 8 13 8H11.874C11.7835 7.64956 11.6455 7.31312 11.464 7H13C13.2652 7 13.5196 6.89464 13.7071 6.70711C13.8946 6.51957 14 6.26522 14 6C14 5.73478 13.8946 5.48043 13.7071 5.29289C13.5196 5.10536 13.2652 5 13 5H7Z" fill="#111928"/>
</svg>
