<svg width="20" height="20" viewBox="0 0 20 20" fill="none" xmlns="http://www.w3.org/2000/svg">
<path d="M8.433 7.418C8.588 7.315 8.779 7.222 9 7.151V8.849C8.79973 8.78623 8.60896 8.6964 8.433 8.582C8.07 8.34 8 8.114 8 8C8 7.886 8.07 7.66 8.433 7.418ZM11 12.849V11.151C11.22 11.222 11.412 11.315 11.567 11.418C11.931 11.661 12 11.886 12 12C12 12.114 11.93 12.34 11.567 12.582C11.391 12.6964 11.2003 12.7862 11 12.849Z" fill="#111928"/>
<path fill-rule="evenodd" clip-rule="evenodd" d="M10 18C12.1217 18 14.1566 17.1571 15.6569 15.6569C17.1571 14.1566 18 12.1217 18 10C18 7.87827 17.1571 5.84344 15.6569 4.34315C14.1566 2.84285 12.1217 2 10 2C7.87827 2 5.84344 2.84285 4.34315 4.34315C2.84285 5.84344 2 7.87827 2 10C2 12.1217 2.84285 14.1566 4.34315 15.6569C5.84344 17.1571 7.87827 18 10 18ZM11 5C11 4.73478 10.8946 4.48043 10.7071 4.29289C10.5196 4.10536 10.2652 4 10 4C9.73478 4 9.48043 4.10536 9.29289 4.29289C9.10536 4.48043 9 4.73478 9 5V5.092C8.40268 5.19833 7.83276 5.42344 7.324 5.754C6.602 6.234 6 7.009 6 8C6 8.99 6.602 9.765 7.324 10.246C7.804 10.566 8.378 10.791 9 10.908V12.849C8.609 12.722 8.32 12.532 8.157 12.345C8.0724 12.2412 7.96782 12.1554 7.84945 12.0928C7.73107 12.0302 7.60133 11.992 7.46791 11.9804C7.33449 11.9689 7.20012 11.9843 7.07276 12.0257C6.9454 12.0671 6.82765 12.1336 6.72649 12.2214C6.62534 12.3091 6.54284 12.4163 6.48389 12.5365C6.42494 12.6568 6.39075 12.7876 6.38334 12.9214C6.37592 13.0551 6.39544 13.1889 6.44073 13.3149C6.48602 13.441 6.55617 13.5566 6.647 13.655C7.209 14.304 8.06 14.731 9 14.908V15C9 15.2652 9.10536 15.5196 9.29289 15.7071C9.48043 15.8946 9.73478 16 10 16C10.2652 16 10.5196 15.8946 10.7071 15.7071C10.8946 15.5196 11 15.2652 11 15V14.908C11.5973 14.8017 12.1672 14.5766 12.676 14.246C13.398 13.766 14 12.991 14 12C14 11.01 13.398 10.235 12.676 9.754C12.1672 9.42344 11.5973 9.19833 11 9.092V7.151C11.391 7.278 11.68 7.468 11.843 7.655C11.9284 7.75631 12.0331 7.83965 12.1509 7.90016C12.2688 7.96067 12.3975 7.99716 12.5296 8.00749C12.6617 8.01783 12.7945 8.00182 12.9204 7.96038C13.0462 7.91894 13.1626 7.85291 13.2627 7.76612C13.3628 7.67932 13.4447 7.5735 13.5035 7.4548C13.5624 7.33609 13.5971 7.20688 13.6056 7.07465C13.6141 6.94243 13.5962 6.80984 13.553 6.68458C13.5098 6.55932 13.4422 6.44389 13.354 6.345C12.791 5.696 11.941 5.269 11 5.092V5Z" fill="#111928"/>
</svg>
