<svg width="20" height="20" viewBox="0 0 20 20" fill="none" xmlns="http://www.w3.org/2000/svg">
<path d="M4 4C4 3.46957 4.21071 2.96086 4.58579 2.58579C4.96086 2.21071 5.46957 2 6 2H10.586C11.1164 2.00011 11.625 2.2109 12 2.586L15.414 6C15.7891 6.37499 15.9999 6.88361 16 7.414V16C16 16.5304 15.7893 17.0391 15.4142 17.4142C15.0391 17.7893 14.5304 18 14 18H12.472C13.4938 16.8569 14.0393 15.366 13.9964 13.8334C13.9535 12.3008 13.3255 10.8428 12.2414 9.75864C11.1572 8.6745 9.69917 8.04652 8.16657 8.00363C6.63396 7.96074 5.14308 8.50619 4 9.528V4Z" fill="#111928"/>
<path fill-rule="evenodd" clip-rule="evenodd" d="M7.99996 10C7.29462 9.9999 6.6018 10.1863 5.99174 10.5403C5.38168 10.8943 4.87608 11.4034 4.5262 12.0158C4.17632 12.6283 3.99461 13.3223 3.99948 14.0276C4.00436 14.733 4.19565 15.4245 4.55396 16.032L3.29296 17.292C3.20005 17.3848 3.12633 17.4951 3.07603 17.6164C3.02572 17.7377 2.9998 17.8678 2.99976 17.9991C2.99971 18.1305 3.02553 18.2606 3.07576 18.3819C3.12598 18.5033 3.19961 18.6136 3.29246 18.7065C3.3853 18.7994 3.49554 18.8731 3.61687 18.9234C3.7382 18.9737 3.86826 18.9997 3.99961 18.9997C4.13095 18.9997 4.26103 18.9739 4.38239 18.9237C4.50376 18.8735 4.61405 18.7998 4.70696 18.707L5.96796 17.446C6.4978 17.7583 7.09252 17.9442 7.7059 17.9892C8.31927 18.0343 8.93477 17.9373 9.50457 17.7058C10.0744 17.4743 10.5831 17.1146 10.9913 16.6545C11.3994 16.1944 11.696 15.6464 11.8579 15.0531C12.0198 14.4598 12.0427 13.8371 11.9249 13.2335C11.807 12.6298 11.5515 12.0615 11.1783 11.5727C10.8051 11.0838 10.3242 10.6876 9.77293 10.4149C9.22169 10.1421 8.61498 10.0001 7.99996 10ZM5.99996 14C5.99996 13.4696 6.21067 12.9609 6.58574 12.5858C6.96082 12.2107 7.46953 12 7.99996 12C8.53039 12 9.0391 12.2107 9.41417 12.5858C9.78924 12.9609 9.99996 13.4696 9.99996 14C9.99996 14.5304 9.78924 15.0391 9.41417 15.4142C9.0391 15.7893 8.53039 16 7.99996 16C7.46953 16 6.96082 15.7893 6.58574 15.4142C6.21067 15.0391 5.99996 14.5304 5.99996 14Z" fill="#111928"/>
</svg>
