<svg width="20" height="20" viewBox="0 0 20 20" fill="none" xmlns="http://www.w3.org/2000/svg">
<path d="M9 2C8.46957 2 7.96086 2.21071 7.58579 2.58579C7.21071 2.96086 7 3.46957 7 4V12C7 12.5304 7.21071 13.0391 7.58579 13.4142C7.96086 13.7893 8.46957 14 9 14H15C15.5304 14 16.0391 13.7893 16.4142 13.4142C16.7893 13.0391 17 12.5304 17 12V6.414C16.9999 5.88361 16.7891 5.37499 16.414 5L14 2.586C13.625 2.2109 13.1164 2.00011 12.586 2H9Z" fill="#111928"/>
<path d="M3 8C3 7.46957 3.21071 6.96086 3.58579 6.58579C3.96086 6.21071 4.46957 6 5 6V16H13C13 16.5304 12.7893 17.0391 12.4142 17.4142C12.0391 17.7893 11.5304 18 11 18H5C4.46957 18 3.96086 17.7893 3.58579 17.4142C3.21071 17.0391 3 16.5304 3 16V8Z" fill="#111928"/>
</svg>
