<svg width="20" height="20" viewBox="0 0 20 20" fill="none" xmlns="http://www.w3.org/2000/svg">
<path fill-rule="evenodd" clip-rule="evenodd" d="M10 18C12.1217 18 14.1566 17.1571 15.6569 15.6569C17.1571 14.1566 18 12.1217 18 10C18 7.87827 17.1571 5.84344 15.6569 4.34315C14.1566 2.84285 12.1217 2 10 2C7.87827 2 5.84344 2.84285 4.34315 4.34315C2.84285 5.84344 2 7.87827 2 10C2 12.1217 2.84285 14.1566 4.34315 15.6569C5.84344 17.1571 7.87827 18 10 18ZM7 9C7.26522 9 7.51957 8.89464 7.70711 8.70711C7.89464 8.51957 8 8.26522 8 8C8 7.73478 7.89464 7.48043 7.70711 7.29289C7.51957 7.10536 7.26522 7 7 7C6.73478 7 6.48043 7.10536 6.29289 7.29289C6.10536 7.48043 6 7.73478 6 8C6 8.26522 6.10536 8.51957 6.29289 8.70711C6.48043 8.89464 6.73478 9 7 9ZM14 8C14 8.26522 13.8946 8.51957 13.7071 8.70711C13.5196 8.89464 13.2652 9 13 9C12.7348 9 12.4804 8.89464 12.2929 8.70711C12.1054 8.51957 12 8.26522 12 8C12 7.73478 12.1054 7.48043 12.2929 7.29289C12.4804 7.10536 12.7348 7 13 7C13.2652 7 13.5196 7.10536 13.7071 7.29289C13.8946 7.48043 14 7.73478 14 8ZM13.536 13.535C13.6288 13.4421 13.7025 13.3318 13.7527 13.2104C13.8029 13.0891 13.8287 12.959 13.8287 12.8276C13.8287 12.6963 13.8027 12.5662 13.7524 12.4449C13.7021 12.3236 13.6284 12.2133 13.5355 12.1205C13.4426 12.0277 13.3323 11.954 13.2109 11.9038C13.0896 11.8536 12.9595 11.8278 12.8281 11.8278C12.6968 11.8278 12.5667 11.8538 12.4454 11.9041C12.3241 11.9544 12.2138 12.0281 12.121 12.121C11.5584 12.6834 10.7955 12.9994 10 12.9994C9.20451 12.9994 8.44158 12.6834 7.879 12.121C7.69149 11.9334 7.43712 11.8279 7.17185 11.8278C6.90658 11.8277 6.65214 11.933 6.4645 12.1205C6.27686 12.308 6.17139 12.5624 6.1713 12.8276C6.1712 13.0929 6.27649 13.3474 6.464 13.535C6.92831 13.9994 7.47956 14.3678 8.08628 14.6192C8.69299 14.8706 9.34328 14.9999 10 14.9999C10.6567 14.9999 11.307 14.8706 11.9137 14.6192C12.5204 14.3678 13.0717 13.9994 13.536 13.535Z" fill="#111928"/>
</svg>
