<svg width="20" height="20" viewBox="0 0 20 20" fill="none" xmlns="http://www.w3.org/2000/svg">
<path fill-rule="evenodd" clip-rule="evenodd" d="M10 18C12.1217 18 14.1566 17.1571 15.6569 15.6569C17.1571 14.1566 18 12.1217 18 10C18 7.87827 17.1571 5.84344 15.6569 4.34315C14.1566 2.84285 12.1217 2 10 2C7.87827 2 5.84344 2.84285 4.34315 4.34315C2.84285 5.84344 2 7.87827 2 10C2 12.1217 2.84285 14.1566 4.34315 15.6569C5.84344 17.1571 7.87827 18 10 18ZM7 9C7.26522 9 7.51957 8.89464 7.70711 8.70711C7.89464 8.51957 8 8.26522 8 8C8 7.73478 7.89464 7.48043 7.70711 7.29289C7.51957 7.10536 7.26522 7 7 7C6.73478 7 6.48043 7.10536 6.29289 7.29289C6.10536 7.48043 6 7.73478 6 8C6 8.26522 6.10536 8.51957 6.29289 8.70711C6.48043 8.89464 6.73478 9 7 9ZM14 8C14 8.26522 13.8946 8.51957 13.7071 8.70711C13.5196 8.89464 13.2652 9 13 9C12.7348 9 12.4804 8.89464 12.2929 8.70711C12.1054 8.51957 12 8.26522 12 8C12 7.73478 12.1054 7.48043 12.2929 7.29289C12.4804 7.10536 12.7348 7 13 7C13.2652 7 13.5196 7.10536 13.7071 7.29289C13.8946 7.48043 14 7.73478 14 8ZM6.464 13.879C6.55687 13.972 6.66716 14.0457 6.78856 14.0961C6.90996 14.1464 7.04008 14.1723 7.1715 14.1723C7.30292 14.1723 7.43304 14.1464 7.55444 14.0961C7.67584 14.0457 7.78613 13.972 7.879 13.879C8.44158 13.3166 9.20451 13.0006 10 13.0006C10.7955 13.0006 11.5584 13.3166 12.121 13.879C12.3086 14.0666 12.5631 14.1721 12.8285 14.1721C13.0939 14.1721 13.3484 14.0666 13.536 13.879C13.7236 13.6914 13.8291 13.4369 13.8291 13.1715C13.8291 12.9061 13.7236 12.6516 13.536 12.464C13.0717 11.9996 12.5204 11.6312 11.9137 11.3798C11.307 11.1284 10.6567 10.9991 10 10.9991C9.34328 10.9991 8.69299 11.1284 8.08628 11.3798C7.47956 11.6312 6.92831 11.9996 6.464 12.464C6.37102 12.5569 6.29726 12.6672 6.24694 12.7886C6.19662 12.91 6.17071 13.0401 6.17071 13.1715C6.17071 13.3029 6.19662 13.433 6.24694 13.5544C6.29726 13.6758 6.37102 13.7861 6.464 13.879Z" fill="#111928"/>
</svg>
