<svg width="20" height="20" viewBox="0 0 20 20" fill="none" xmlns="http://www.w3.org/2000/svg">
<path fill-rule="evenodd" clip-rule="evenodd" d="M8.25709 3.09898C9.02209 1.73898 10.9791 1.73898 11.7431 3.09898L17.3231 13.019C18.0731 14.353 17.1101 15.999 15.5811 15.999H4.42009C2.89009 15.999 1.92709 14.353 2.67709 13.019L8.25709 3.09898ZM11.0001 13C11.0001 13.2652 10.8947 13.5196 10.7072 13.7071C10.5197 13.8946 10.2653 14 10.0001 14C9.73488 14 9.48052 13.8946 9.29299 13.7071C9.10545 13.5196 9.00009 13.2652 9.00009 13C9.00009 12.7348 9.10545 12.4804 9.29299 12.2929C9.48052 12.1053 9.73488 12 10.0001 12C10.2653 12 10.5197 12.1053 10.7072 12.2929C10.8947 12.4804 11.0001 12.7348 11.0001 13ZM10.0001 4.99998C9.73488 4.99998 9.48052 5.10534 9.29299 5.29287C9.10545 5.48041 9.00009 5.73476 9.00009 5.99998V8.99998C9.00009 9.2652 9.10545 9.51955 9.29299 9.70709C9.48052 9.89462 9.73488 9.99998 10.0001 9.99998C10.2653 9.99998 10.5197 9.89462 10.7072 9.70709C10.8947 9.51955 11.0001 9.2652 11.0001 8.99998V5.99998C11.0001 5.73476 10.8947 5.48041 10.7072 5.29287C10.5197 5.10534 10.2653 4.99998 10.0001 4.99998Z" fill="#111928"/>
</svg>
