<svg width="20" height="20" viewBox="0 0 20 20" fill="none" xmlns="http://www.w3.org/2000/svg">
<path fill-rule="evenodd" clip-rule="evenodd" d="M3.70692 2.29304C3.51832 2.11088 3.26571 2.01009 3.00352 2.01237C2.74132 2.01465 2.49051 2.11981 2.3051 2.30522C2.11969 2.49063 2.01452 2.74144 2.01224 3.00364C2.00997 3.26584 2.11076 3.51844 2.29292 3.70704L16.2929 17.707C16.4815 17.8892 16.7341 17.99 16.9963 17.9877C17.2585 17.9854 17.5093 17.8803 17.6947 17.6949C17.8801 17.5095 17.9853 17.2586 17.9876 16.9964C17.9899 16.7342 17.8891 16.4816 17.7069 16.293L16.2339 14.82C17.7914 13.5782 18.9432 11.9 19.5419 10C18.2679 5.94304 14.4779 3.00004 9.99992 3.00004C8.43235 2.99792 6.88642 3.3659 5.48792 4.07404L3.70792 2.29304H3.70692ZM7.96792 6.55304L9.48192 8.06804C9.82101 7.97799 10.1778 7.97859 10.5166 8.06977C10.8554 8.16095 11.1643 8.33952 11.4124 8.58761C11.6604 8.83569 11.839 9.14458 11.9302 9.48337C12.0214 9.82216 12.022 10.179 11.9319 10.518L13.4459 12.032C13.8969 11.2681 14.0811 10.3758 13.9696 9.49572C13.858 8.6156 13.4571 7.79754 12.8297 7.17022C12.2024 6.5429 11.3844 6.14193 10.5042 6.03039C9.62412 5.91885 8.7319 6.10306 7.96792 6.55404V6.55304Z" fill="#111928"/>
<path d="M12.454 16.697L9.75001 13.992C8.77769 13.9311 7.86103 13.5174 7.17206 12.8286C6.4831 12.1398 6.06918 11.2233 6.00801 10.251L2.33501 6.578C1.49022 7.58402 0.852357 8.74692 0.458008 10C1.73201 14.057 5.52301 17 10 17C10.847 17 11.669 16.895 12.454 16.697Z" fill="#111928"/>
</svg>
