<svg width="20" height="20" viewBox="0 0 20 20" fill="none" xmlns="http://www.w3.org/2000/svg">
<path fill-rule="evenodd" clip-rule="evenodd" d="M3 3C3 2.73478 3.10536 2.48043 3.29289 2.29289C3.48043 2.10536 3.73478 2 4 2H16C16.2652 2 16.5196 2.10536 16.7071 2.29289C16.8946 2.48043 17 2.73478 17 3V6C16.9999 6.26519 16.8946 6.51951 16.707 6.707L12 11.414V15C11.9999 15.2652 11.8945 15.5195 11.707 15.707L9.707 17.707C9.56715 17.8468 9.38898 17.942 9.19503 17.9806C9.00108 18.0192 8.80005 17.9993 8.61735 17.9237C8.43465 17.848 8.27848 17.7199 8.1686 17.5555C8.05871 17.391 8.00004 17.1978 8 17V11.414L3.293 6.707C3.10545 6.51951 3.00006 6.26519 3 6V3Z" fill="#111928"/>
</svg>
