<svg width="20" height="20" viewBox="0 0 20 20" fill="none" xmlns="http://www.w3.org/2000/svg">
<path fill-rule="evenodd" clip-rule="evenodd" d="M4 4C2.895 4 2 4.895 2 6V14C2 15.105 2.895 16 4 16H16C17.105 16 18 15.105 18 14V8C18 6.895 17.105 6 16 6H11L9 4H4ZM11 9C11 8.448 10.552 8 10 8C9.448 8 9 8.448 9 9V10H8C7.448 10 7 10.448 7 11C7 11.552 7.448 12 8 12H9V13C9 13.552 9.448 14 10 14C10.552 14 11 13.552 11 13V12H12C12.552 12 13 11.552 13 11C13 10.448 12.552 10 12 10H11V9Z" fill="#111928"/>
</svg>
