<svg width="20" height="20" viewBox="0 0 20 20" fill="none" xmlns="http://www.w3.org/2000/svg">
<path fill-rule="evenodd" clip-rule="evenodd" d="M4 4C2.895 4 2 4.895 2 6V14C2 15.105 2.895 16 4 16H16C17.105 16 18 15.105 18 14V8C18 6.895 17.105 6 16 6H11L9 4H4ZM11 9C11 8.448 10.552 8 10 8C9.448 8 9 8.448 9 9V10.586L8.707 10.293C8.317 9.90203 7.683 9.90203 7.293 10.293C6.902 10.683 6.902 11.317 7.293 11.707L9.293 13.707C9.683 14.098 10.317 14.098 10.707 13.707L12.707 11.707C13.098 11.317 13.098 10.683 12.707 10.293C12.317 9.90203 11.683 9.90203 11.293 10.293L11 10.586V9Z" fill="#111928"/>
</svg>
