<svg width="20" height="20" viewBox="0 0 20 20" fill="none" xmlns="http://www.w3.org/2000/svg">
<path fill-rule="evenodd" clip-rule="evenodd" d="M5 5.00001C5.00001 4.42089 5.16765 3.85415 5.48266 3.3682C5.79768 2.88225 6.24662 2.49787 6.77529 2.26145C7.30395 2.02503 7.88975 1.94668 8.46196 2.03586C9.03418 2.12504 9.56835 2.37793 10 2.76401C10.4964 2.31912 11.1268 2.05222 11.7918 2.00544C12.4567 1.95867 13.1183 2.13469 13.6721 2.50572C14.2259 2.87674 14.6403 3.42164 14.85 4.05439C15.0597 4.68714 15.0526 5.3717 14.83 6.00001H16C16.5304 6.00001 17.0391 6.21073 17.4142 6.5858C17.7893 6.96087 18 7.46958 18 8.00001C18 8.53045 17.7893 9.03915 17.4142 9.41423C17.0391 9.7893 16.5304 10 16 10H11V9.00001C11 8.7348 10.8946 8.48044 10.7071 8.29291C10.5196 8.10537 10.2652 8.00001 10 8.00001C9.73478 8.00001 9.48043 8.10537 9.29289 8.29291C9.10536 8.48044 9 8.7348 9 9.00001V10H4C3.46957 10 2.96086 9.7893 2.58579 9.41423C2.21071 9.03915 2 8.53045 2 8.00001C2 7.46958 2.21071 6.96087 2.58579 6.5858C2.96086 6.21073 3.46957 6.00001 4 6.00001H5.17C5.06 5.68701 5 5.35001 5 5.00001ZM9 6.00001V5.00001C9 4.80223 8.94135 4.60889 8.83147 4.44444C8.72159 4.27999 8.56541 4.15182 8.38268 4.07613C8.19996 4.00044 7.99889 3.98064 7.80491 4.01923C7.61093 4.05781 7.43275 4.15305 7.29289 4.29291C7.15304 4.43276 7.0578 4.61094 7.01921 4.80492C6.98063 4.9989 7.00043 5.19997 7.07612 5.38269C7.15181 5.56542 7.27998 5.7216 7.44443 5.83148C7.60888 5.94136 7.80222 6.00001 8 6.00001H9ZM12 6.00001C12.1978 6.00001 12.3911 5.94136 12.5556 5.83148C12.72 5.7216 12.8482 5.56542 12.9239 5.38269C12.9996 5.19997 13.0194 4.9989 12.9808 4.80492C12.9422 4.61094 12.847 4.43276 12.7071 4.29291C12.5673 4.15305 12.3891 4.05781 12.1951 4.01923C12.0011 3.98064 11.8 4.00044 11.6173 4.07613C11.4346 4.15182 11.2784 4.27999 11.1685 4.44444C11.0586 4.60889 11 4.80223 11 5.00001V6.00001H12Z" fill="#111928"/>
<path d="M9 11H3V16C3 16.5304 3.21071 17.0391 3.58579 17.4142C3.96086 17.7893 4.46957 18 5 18H9V11ZM11 18H15C15.5304 18 16.0391 17.7893 16.4142 17.4142C16.7893 17.0391 17 16.5304 17 16V11H11V18Z" fill="#111928"/>
</svg>
