<svg width="20" height="20" viewBox="0 0 20 20" fill="none" xmlns="http://www.w3.org/2000/svg">
<path fill-rule="evenodd" clip-rule="evenodd" d="M10 18C12.1217 18 14.1566 17.1571 15.6569 15.6569C17.1571 14.1566 18 12.1217 18 10C18 7.87827 17.1571 5.84344 15.6569 4.34315C14.1566 2.84285 12.1217 2 10 2C7.87827 2 5.84344 2.84285 4.34315 4.34315C2.84285 5.84344 2 7.87827 2 10C2 12.1217 2.84285 14.1566 4.34315 15.6569C5.84344 17.1571 7.87827 18 10 18ZM4.332 8.027C4.70329 6.96372 5.36579 6.0261 6.244 5.321C6.512 5.73 6.974 6 7.5 6C7.89782 6 8.27936 6.15804 8.56066 6.43934C8.84196 6.72064 9 7.10218 9 7.5V8C9 8.53043 9.21071 9.03914 9.58579 9.41421C9.96086 9.78929 10.4696 10 11 10C11.5304 10 12.0391 9.78929 12.4142 9.41421C12.7893 9.03914 13 8.53043 13 8C12.9998 7.55242 13.1498 7.11773 13.4259 6.76547C13.702 6.41321 14.0883 6.16375 14.523 6.057C15.4773 7.14867 16.0022 8.55002 16 10C16 10.34 15.972 10.675 15.917 11H15C14.4696 11 13.9609 11.2107 13.5858 11.5858C13.2107 11.9609 13 12.4696 13 13V15.197C12.0883 15.7245 11.0533 16.0015 10 16V14C10 13.4696 9.78929 12.9609 9.41421 12.5858C9.03914 12.2107 8.53043 12 8 12C7.46957 12 6.96086 11.7893 6.58579 11.4142C6.21071 11.0391 6 10.5304 6 10C6.00018 9.527 5.83271 9.06924 5.52733 8.70803C5.22195 8.34681 4.79844 8.10552 4.332 8.027Z" fill="#111928"/>
</svg>
