<svg width="20" height="20" viewBox="0 0 20 20" fill="none" xmlns="http://www.w3.org/2000/svg">
<path fill-rule="evenodd" clip-rule="evenodd" d="M3.17188 5.17196C3.92199 4.42207 4.93922 4.00081 5.99988 4.00081C7.06053 4.00081 8.07777 4.42207 8.82788 5.17196L9.99988 6.34296L11.1719 5.17196C11.5409 4.78992 11.9822 4.48519 12.4703 4.27555C12.9583 4.06592 13.4832 3.95557 14.0143 3.95096C14.5454 3.94634 15.0721 4.04755 15.5637 4.24867C16.0553 4.4498 16.5019 4.74681 16.8775 5.12238C17.253 5.49795 17.55 5.94456 17.7512 6.43614C17.9523 6.92773 18.0535 7.45445 18.0489 7.98556C18.0443 8.51668 17.9339 9.04156 17.7243 9.52958C17.5146 10.0176 17.2099 10.459 16.8279 10.828L9.99988 17.657L3.17188 10.828C2.42199 10.0778 2.00073 9.06062 2.00073 7.99996C2.00073 6.9393 2.42199 5.92207 3.17188 5.17196Z" fill="#111928"/>
</svg>
