<svg width="20" height="20" viewBox="0 0 20 20" fill="none" xmlns="http://www.w3.org/2000/svg">
<path fill-rule="evenodd" clip-rule="evenodd" d="M10 2C9.73478 2 9.48043 2.10536 9.29289 2.29289C9.10536 2.48043 9 2.73478 9 3V4C9 4.26522 9.10536 4.51957 9.29289 4.70711C9.48043 4.89464 9.73478 5 10 5C10.2652 5 10.5196 4.89464 10.7071 4.70711C10.8946 4.51957 11 4.26522 11 4V3C11 2.73478 10.8946 2.48043 10.7071 2.29289C10.5196 2.10536 10.2652 2 10 2ZM4 4H7C7 4.79565 7.31607 5.55871 7.87868 6.12132C8.44129 6.68393 9.20435 7 10 7C10.7956 7 11.5587 6.68393 12.1213 6.12132C12.6839 5.55871 13 4.79565 13 4H16C16.5304 4 17.0391 4.21071 17.4142 4.58579C17.7893 4.96086 18 5.46957 18 6V15C18 15.5304 17.7893 16.0391 17.4142 16.4142C17.0391 16.7893 16.5304 17 16 17H4C3.46957 17 2.96086 16.7893 2.58579 16.4142C2.21071 16.0391 2 15.5304 2 15V6C2 5.46957 2.21071 4.96086 2.58579 4.58579C2.96086 4.21071 3.46957 4 4 4ZM6.5 11C6.89782 11 7.27936 10.842 7.56066 10.5607C7.84196 10.2794 8 9.89782 8 9.5C8 9.10218 7.84196 8.72064 7.56066 8.43934C7.27936 8.15804 6.89782 8 6.5 8C6.10218 8 5.72064 8.15804 5.43934 8.43934C5.15804 8.72064 5 9.10218 5 9.5C5 9.89782 5.15804 10.2794 5.43934 10.5607C5.72064 10.842 6.10218 11 6.5 11ZM8.95 15C9.02373 14.6369 9.01583 14.262 8.92688 13.9023C8.83793 13.5426 8.67015 13.2072 8.43568 12.9204C8.20121 12.6335 7.90591 12.4023 7.57114 12.2436C7.23637 12.0849 6.8705 12.0025 6.5 12.0025C6.1295 12.0025 5.76363 12.0849 5.42886 12.2436C5.09409 12.4023 4.79879 12.6335 4.56432 12.9204C4.32985 13.2072 4.16207 13.5426 4.07312 13.9023C3.98417 14.262 3.97627 14.6369 4.05 15H8.95ZM12 9C11.7348 9 11.4804 9.10536 11.2929 9.29289C11.1054 9.48043 11 9.73478 11 10C11 10.2652 11.1054 10.5196 11.2929 10.7071C11.4804 10.8946 11.7348 11 12 11H15C15.2652 11 15.5196 10.8946 15.7071 10.7071C15.8946 10.5196 16 10.2652 16 10C16 9.73478 15.8946 9.48043 15.7071 9.29289C15.5196 9.10536 15.2652 9 15 9H12ZM11 13C11 12.7348 11.1054 12.4804 11.2929 12.2929C11.4804 12.1054 11.7348 12 12 12H14C14.2652 12 14.5196 12.1054 14.7071 12.2929C14.8946 12.4804 15 12.7348 15 13C15 13.2652 14.8946 13.5196 14.7071 13.7071C14.5196 13.8946 14.2652 14 14 14H12C11.7348 14 11.4804 13.8946 11.2929 13.7071C11.1054 13.5196 11 13.2652 11 13Z" fill="#111928"/>
</svg>
