<svg width="20" height="20" viewBox="0 0 20 20" fill="none" xmlns="http://www.w3.org/2000/svg">
<path d="M8.70692 7.293C8.51832 7.11084 8.26572 7.01005 8.00352 7.01233C7.74132 7.0146 7.49051 7.11977 7.3051 7.30518C7.11969 7.49059 7.01452 7.7414 7.01224 8.0036C7.00997 8.2658 7.11076 8.5184 7.29292 8.707L9.29292 10.707C9.48045 10.8945 9.73476 10.9998 9.99992 10.9998C10.2651 10.9998 10.5194 10.8945 10.7069 10.707L12.7069 8.707C12.8891 8.5184 12.9899 8.2658 12.9876 8.0036C12.9853 7.7414 12.8801 7.49059 12.6947 7.30518C12.5093 7.11977 12.2585 7.0146 11.9963 7.01233C11.7341 7.01005 11.4815 7.11084 11.2929 7.293L10.9999 7.586V3C10.9999 2.73478 10.8946 2.48043 10.707 2.29289C10.5195 2.10536 10.2651 2 9.99992 2C9.7347 2 9.48035 2.10536 9.29281 2.29289C9.10528 2.48043 8.99992 2.73478 8.99992 3V7.586L8.70692 7.293Z" fill="#111928"/>
<path d="M3 5C3 4.46957 3.21071 3.96086 3.58579 3.58579C3.96086 3.21071 4.46957 3 5 3H6C6.26522 3 6.51957 3.10536 6.70711 3.29289C6.89464 3.48043 7 3.73478 7 4C7 4.26522 6.89464 4.51957 6.70711 4.70711C6.51957 4.89464 6.26522 5 6 5H5V12H7L8 14H12L13 12H15V5H14C13.7348 5 13.4804 4.89464 13.2929 4.70711C13.1054 4.51957 13 4.26522 13 4C13 3.73478 13.1054 3.48043 13.2929 3.29289C13.4804 3.10536 13.7348 3 14 3H15C15.5304 3 16.0391 3.21071 16.4142 3.58579C16.7893 3.96086 17 4.46957 17 5V15C17 15.5304 16.7893 16.0391 16.4142 16.4142C16.0391 16.7893 15.5304 17 15 17H5C4.46957 17 3.96086 16.7893 3.58579 16.4142C3.21071 16.0391 3 15.5304 3 15V5Z" fill="#111928"/>
</svg>
