<svg width="20" height="20" viewBox="0 0 20 20" fill="none" xmlns="http://www.w3.org/2000/svg">
<path fill-rule="evenodd" clip-rule="evenodd" d="M18 7.99995C18.0003 8.93712 17.781 9.86133 17.3598 10.6985C16.9386 11.5357 16.3271 12.2625 15.5744 12.8208C14.8216 13.3791 13.9486 13.7533 13.0252 13.9135C12.1018 14.0736 11.1538 14.0152 10.257 13.743L10 14L9 15L8 16H6V18H2V14L6.257 9.74295C6.00745 8.91797 5.93857 8.0489 6.05504 7.1949C6.17152 6.3409 6.47062 5.52202 6.93199 4.794C7.39336 4.06598 8.00616 3.4459 8.72869 2.97597C9.45122 2.50605 10.2665 2.1973 11.1191 2.07076C11.9716 1.94421 12.8415 2.00284 13.6693 2.24264C14.4972 2.48244 15.2637 2.89779 15.9166 3.46042C16.5696 4.02305 17.0936 4.71974 17.4531 5.50309C17.8127 6.28644 17.9992 7.13805 18 7.99995ZM12 3.99995C11.7348 3.99995 11.4804 4.10531 11.2929 4.29285C11.1054 4.48038 11 4.73474 11 4.99995C11 5.26517 11.1054 5.51952 11.2929 5.70706C11.4804 5.8946 11.7348 5.99995 12 5.99995C12.5304 5.99995 13.0391 6.21067 13.4142 6.58574C13.7893 6.96081 14 7.46952 14 7.99995C14 8.26517 14.1054 8.51952 14.2929 8.70706C14.4804 8.8946 14.7348 8.99995 15 8.99995C15.2652 8.99995 15.5196 8.8946 15.7071 8.70706C15.8946 8.51952 16 8.26517 16 7.99995C16 6.93909 15.5786 5.92167 14.8284 5.17153C14.0783 4.42138 13.0609 3.99995 12 3.99995Z" fill="#111928"/>
</svg>
