<svg width="20" height="20" viewBox="0 0 20 20" fill="none" xmlns="http://www.w3.org/2000/svg">
<path fill-rule="evenodd" clip-rule="evenodd" d="M10.496 2.13204C10.3449 2.04575 10.174 2.00037 10 2.00037C9.82603 2.00037 9.65506 2.04575 9.504 2.13204L2.504 6.13204C2.31267 6.2415 2.16287 6.4111 2.07788 6.61449C1.99289 6.81787 1.97749 7.04363 2.03405 7.25668C2.09062 7.46972 2.216 7.6581 2.39068 7.79254C2.56537 7.92697 2.77957 7.99992 3 8.00004V15C2.73478 15 2.48043 15.1054 2.29289 15.2929C2.10536 15.4805 2 15.7348 2 16C2 16.2653 2.10536 16.5196 2.29289 16.7072C2.48043 16.8947 2.73478 17 3 17H17C17.2652 17 17.5196 16.8947 17.7071 16.7072C17.8946 16.5196 18 16.2653 18 16C18 15.7348 17.8946 15.4805 17.7071 15.2929C17.5196 15.1054 17.2652 15 17 15V8.00004C17.2204 7.99992 17.4346 7.92697 17.6093 7.79254C17.784 7.6581 17.9094 7.46972 17.9659 7.25668C18.0225 7.04363 18.0071 6.81787 17.9221 6.61449C17.8371 6.4111 17.6873 6.2415 17.496 6.13204L10.496 2.13204ZM6 9.00004C5.73478 9.00004 5.48043 9.1054 5.29289 9.29294C5.10536 9.48047 5 9.73483 5 10V13C5 13.2653 5.10536 13.5196 5.29289 13.7072C5.48043 13.8947 5.73478 14 6 14C6.26522 14 6.51957 13.8947 6.70711 13.7072C6.89464 13.5196 7 13.2653 7 13V10C7 9.73483 6.89464 9.48047 6.70711 9.29294C6.51957 9.1054 6.26522 9.00004 6 9.00004ZM9 10C9 9.73483 9.10536 9.48047 9.29289 9.29294C9.48043 9.1054 9.73478 9.00004 10 9.00004C10.2652 9.00004 10.5196 9.1054 10.7071 9.29294C10.8946 9.48047 11 9.73483 11 10V13C11 13.2653 10.8946 13.5196 10.7071 13.7072C10.5196 13.8947 10.2652 14 10 14C9.73478 14 9.48043 13.8947 9.29289 13.7072C9.10536 13.5196 9 13.2653 9 13V10ZM14 9.00004C13.7348 9.00004 13.4804 9.1054 13.2929 9.29294C13.1054 9.48047 13 9.73483 13 10V13C13 13.2653 13.1054 13.5196 13.2929 13.7072C13.4804 13.8947 13.7348 14 14 14C14.2652 14 14.5196 13.8947 14.7071 13.7072C14.8946 13.5196 15 13.2653 15 13V10C15 9.73483 14.8946 9.48047 14.7071 9.29294C14.5196 9.1054 14.2652 9.00004 14 9.00004Z" fill="#111928"/>
</svg>
