<svg width="20" height="20" viewBox="0 0 20 20" fill="none" xmlns="http://www.w3.org/2000/svg">
<path fill-rule="evenodd" clip-rule="evenodd" d="M11.3 1.04596C11.503 1.1098 11.6803 1.23674 11.8062 1.40831C11.9321 1.57989 12 1.78715 12 1.99996V6.99996H16C16.1829 6.99987 16.3623 7.04997 16.5187 7.14478C16.6752 7.23959 16.8026 7.3755 16.8871 7.5377C16.9717 7.6999 17.0101 7.88219 16.9983 8.06472C16.9865 8.24726 16.9248 8.42304 16.82 8.57296L9.81996 18.573C9.69813 18.7475 9.52379 18.8786 9.3223 18.9472C9.12081 19.0158 8.90268 19.0184 8.69965 18.9544C8.49663 18.8905 8.31929 18.7635 8.19345 18.5918C8.06761 18.4201 7.99982 18.2128 7.99996 18V13H3.99996C3.81704 13 3.6376 12.9499 3.48117 12.8551C3.32475 12.7603 3.19732 12.6244 3.11277 12.4622C3.02821 12.3 2.98976 12.1177 3.00161 11.9352C3.01346 11.7527 3.07514 11.5769 3.17996 11.427L10.18 1.42696C10.302 1.25274 10.4763 1.12197 10.6778 1.05363C10.8792 0.985295 11.0971 0.982957 11.3 1.04696V1.04596Z" fill="#111928"/>
</svg>
