<svg width="20" height="20" viewBox="0 0 20 20" fill="none" xmlns="http://www.w3.org/2000/svg">
<path d="M11 3C11 2.73478 10.8946 2.48043 10.7071 2.29289C10.5196 2.10536 10.2652 2 10 2C9.73478 2 9.48043 2.10536 9.29289 2.29289C9.10536 2.48043 9 2.73478 9 3V4C9 4.26522 9.10536 4.51957 9.29289 4.70711C9.48043 4.89464 9.73478 5 10 5C10.2652 5 10.5196 4.89464 10.7071 4.70711C10.8946 4.51957 11 4.26522 11 4V3ZM15.657 5.757C15.8392 5.5684 15.94 5.3158 15.9377 5.0536C15.9354 4.7914 15.8302 4.54059 15.6448 4.35518C15.4594 4.16977 15.2086 4.0646 14.9464 4.06233C14.6842 4.06005 14.4316 4.16084 14.243 4.343L13.536 5.05C13.3538 5.2386 13.253 5.4912 13.2553 5.7534C13.2576 6.0156 13.3628 6.26641 13.5482 6.45182C13.7336 6.63723 13.9844 6.7424 14.2466 6.74467C14.5088 6.74695 14.7614 6.64616 14.95 6.464L15.657 5.757ZM18 10C18 10.2652 17.8946 10.5196 17.7071 10.7071C17.5196 10.8946 17.2652 11 17 11H16C15.7348 11 15.4804 10.8946 15.2929 10.7071C15.1054 10.5196 15 10.2652 15 10C15 9.73478 15.1054 9.48043 15.2929 9.29289C15.4804 9.10536 15.7348 9 16 9H17C17.2652 9 17.5196 9.10536 17.7071 9.29289C17.8946 9.48043 18 9.73478 18 10ZM5.05 6.464C5.14225 6.55951 5.25259 6.63569 5.3746 6.6881C5.4966 6.74051 5.62782 6.7681 5.7606 6.76925C5.89338 6.7704 6.02506 6.7451 6.14795 6.69482C6.27085 6.64454 6.3825 6.57029 6.4764 6.4764C6.57029 6.3825 6.64454 6.27085 6.69482 6.14795C6.7451 6.02506 6.7704 5.89338 6.76925 5.7606C6.7681 5.62782 6.74051 5.4966 6.6881 5.3746C6.63569 5.25259 6.55951 5.14225 6.464 5.05L5.757 4.343C5.5684 4.16084 5.3158 4.06005 5.0536 4.06233C4.7914 4.0646 4.54059 4.16977 4.35518 4.35518C4.16977 4.54059 4.0646 4.7914 4.06233 5.0536C4.06005 5.3158 4.16084 5.5684 4.343 5.757L5.05 6.464ZM5 10C5 10.2652 4.89464 10.5196 4.70711 10.7071C4.51957 10.8946 4.26522 11 4 11H3C2.73478 11 2.48043 10.8946 2.29289 10.7071C2.10536 10.5196 2 10.2652 2 10C2 9.73478 2.10536 9.48043 2.29289 9.29289C2.48043 9.10536 2.73478 9 3 9H4C4.26522 9 4.51957 9.10536 4.70711 9.29289C4.89464 9.48043 5 9.73478 5 10ZM8 16V15H12V16C12 16.5304 11.7893 17.0391 11.4142 17.4142C11.0391 17.7893 10.5304 18 10 18C9.46957 18 8.96086 17.7893 8.58579 17.4142C8.21071 17.0391 8 16.5304 8 16ZM12 14C12.015 13.66 12.208 13.354 12.477 13.141C13.1297 12.6263 13.6058 11.921 13.8391 11.1232C14.0725 10.3253 14.0515 9.47466 13.7791 8.68933C13.5067 7.904 12.9964 7.22304 12.3191 6.74112C11.6418 6.25919 10.8312 6.00022 10 6.00022C9.16876 6.00022 8.35818 6.25919 7.6809 6.74112C7.00363 7.22304 6.49332 7.904 6.22091 8.68933C5.94849 9.47466 5.9275 10.3253 6.16086 11.1232C6.39421 11.921 6.87032 12.6263 7.523 13.141C7.793 13.354 7.985 13.66 7.999 14H12.001H12Z" fill="#111928"/>
</svg>
