<svg width="20" height="20" viewBox="0 0 20 20" fill="none" xmlns="http://www.w3.org/2000/svg">
<path fill-rule="evenodd" clip-rule="evenodd" d="M12.5861 4.58604C12.7706 4.39502 12.9913 4.24266 13.2353 4.13784C13.4793 4.03302 13.7417 3.97785 14.0073 3.97554C14.2728 3.97323 14.5362 4.02384 14.782 4.1244C15.0278 4.22496 15.2511 4.37347 15.4389 4.56125C15.6267 4.74904 15.7752 4.97234 15.8757 5.21813C15.9763 5.46393 16.0269 5.72729 16.0246 5.99284C16.0223 6.2584 15.9671 6.52084 15.8623 6.76485C15.7575 7.00886 15.6051 7.22955 15.4141 7.41404L12.4141 10.414C12.039 10.789 11.5304 10.9996 11.0001 10.9996C10.4698 10.9996 9.96114 10.789 9.58608 10.414C9.39748 10.2319 9.14488 10.1311 8.88268 10.1334C8.62048 10.1356 8.36967 10.2408 8.18426 10.4262C7.99885 10.6116 7.89368 10.8624 7.89141 11.1246C7.88913 11.3868 7.98992 11.6394 8.17208 11.828C8.92219 12.5779 9.93942 12.9992 11.0001 12.9992C12.0607 12.9992 13.078 12.5779 13.8281 11.828L16.8281 8.82804C17.5567 8.07363 17.9599 7.06322 17.9508 6.01444C17.9417 4.96565 17.521 3.9624 16.7794 3.22077C16.0377 2.47914 15.0345 2.05846 13.9857 2.04935C12.9369 2.04023 11.9265 2.44341 11.1721 3.17204L9.67208 4.67204C9.57657 4.76429 9.50039 4.87463 9.44798 4.99664C9.39557 5.11864 9.36798 5.24986 9.36683 5.38264C9.36568 5.51542 9.39098 5.6471 9.44126 5.77C9.49154 5.89289 9.56579 6.00454 9.65969 6.09844C9.75358 6.19233 9.86523 6.26658 9.98813 6.31686C10.111 6.36714 10.2427 6.39245 10.3755 6.39129C10.5083 6.39014 10.6395 6.36255 10.7615 6.31014C10.8835 6.25773 10.9938 6.18155 11.0861 6.08604L12.5861 4.58604ZM7.58608 9.58604C7.96114 9.2111 8.46975 9.00047 9.00008 9.00047C9.53041 9.00047 10.039 9.2111 10.4141 9.58604C10.5063 9.68155 10.6167 9.75773 10.7387 9.81014C10.8607 9.86255 10.9919 9.89014 11.1247 9.89129C11.2575 9.89245 11.3891 9.86715 11.512 9.81686C11.6349 9.76658 11.7466 9.69233 11.8405 9.59844C11.9344 9.50454 12.0086 9.39289 12.0589 9.27C12.1092 9.1471 12.1345 9.01542 12.1333 8.88264C12.1322 8.74986 12.1046 8.61864 12.0522 8.49664C11.9998 8.37463 11.9236 8.26429 11.8281 8.17204C11.078 7.42216 10.0607 7.0009 9.00008 7.0009C7.93942 7.0009 6.92219 7.42216 6.17208 8.17204L3.17208 11.172C2.79004 11.541 2.48531 11.9824 2.27568 12.4704C2.06604 12.9584 1.95569 13.4833 1.95108 14.0144C1.94646 14.5456 2.04767 15.0723 2.24879 15.5639C2.44992 16.0554 2.74693 16.5021 3.1225 16.8776C3.49807 17.2532 3.94468 17.5502 4.43626 17.7513C4.92785 17.9525 5.45457 18.0537 5.98569 18.049C6.5168 18.0444 7.04168 17.9341 7.5297 17.7244C8.01771 17.5148 8.45909 17.2101 8.82808 16.828L10.3281 15.328C10.4236 15.2358 10.4998 15.1255 10.5522 15.0034C10.6046 14.8814 10.6322 14.7502 10.6333 14.6174C10.6345 14.4847 10.6092 14.353 10.5589 14.2301C10.5086 14.1072 10.4344 13.9955 10.3405 13.9016C10.2466 13.8078 10.1349 13.7335 10.012 13.6832C9.88914 13.6329 9.75746 13.6076 9.62468 13.6088C9.4919 13.6099 9.36068 13.6375 9.23868 13.6899C9.11667 13.7423 9.00633 13.8185 8.91408 13.914L7.41408 15.414C7.22959 15.6051 7.0089 15.7574 6.76489 15.8622C6.52088 15.9671 6.25844 16.0222 5.99288 16.0245C5.72732 16.0269 5.46397 15.9762 5.21817 15.8757C4.97238 15.7751 4.74908 15.6266 4.56129 15.4388C4.37351 15.251 4.225 15.0277 4.12444 14.7819C4.02388 14.5362 3.97327 14.2728 3.97558 14.0072C3.97789 13.7417 4.03306 13.4792 4.13788 13.2352C4.2427 12.9912 4.39506 12.7705 4.58608 12.586L7.58608 9.58604Z" fill="#111928"/>
</svg>
