<svg width="20" height="20" viewBox="0 0 20 20" fill="none" xmlns="http://www.w3.org/2000/svg">
<path fill-rule="evenodd" clip-rule="evenodd" d="M5.05002 4.04999C6.36284 2.73717 8.14341 1.99963 10 1.99963C11.8566 1.99963 13.6372 2.73717 14.95 4.04999C16.2628 5.36281 17.0004 7.14338 17.0004 8.99999C17.0004 10.8566 16.2628 12.6372 14.95 13.95L10 18.9L5.05002 13.95C4.39993 13.3 3.88425 12.5283 3.53242 11.6789C3.1806 10.8296 2.99951 9.9193 2.99951 8.99999C2.99951 8.08068 3.1806 7.17037 3.53242 6.32104C3.88425 5.47172 4.39993 4.70001 5.05002 4.04999ZM10 11C10.5304 11 11.0392 10.7893 11.4142 10.4142C11.7893 10.0391 12 9.53042 12 8.99999C12 8.46956 11.7893 7.96085 11.4142 7.58578C11.0392 7.2107 10.5304 6.99999 10 6.99999C9.46958 6.99999 8.96088 7.2107 8.5858 7.58578C8.21073 7.96085 8.00002 8.46956 8.00002 8.99999C8.00002 9.53042 8.21073 10.0391 8.5858 10.4142C8.96088 10.7893 9.46958 11 10 11Z" fill="#111928"/>
</svg>
