<svg width="20" height="20" viewBox="0 0 20 20" fill="none" xmlns="http://www.w3.org/2000/svg">
<path fill-rule="evenodd" clip-rule="evenodd" d="M3 3C3.26522 3 3.51957 3.10536 3.70711 3.29289C3.89464 3.48043 4 3.73478 4 4V16C4 16.2652 3.89464 16.5196 3.70711 16.7071C3.51957 16.8946 3.26522 17 3 17C2.73478 17 2.48043 16.8946 2.29289 16.7071C2.10536 16.5196 2 16.2652 2 16V4C2 3.73478 2.10536 3.48043 2.29289 3.29289C2.48043 3.10536 2.73478 3 3 3ZM10.707 6.293C10.8945 6.48053 10.9998 6.73484 10.9998 7C10.9998 7.26516 10.8945 7.51947 10.707 7.707L9.414 9H17C17.2652 9 17.5196 9.10536 17.7071 9.29289C17.8946 9.48043 18 9.73478 18 10C18 10.2652 17.8946 10.5196 17.7071 10.7071C17.5196 10.8946 17.2652 11 17 11H9.414L10.707 12.293C10.8892 12.4816 10.99 12.7342 10.9877 12.9964C10.9854 13.2586 10.8802 13.5094 10.6948 13.6948C10.5094 13.8802 10.2586 13.9854 9.9964 13.9877C9.7342 13.99 9.4816 13.8892 9.293 13.707L6.293 10.707C6.10553 10.5195 6.00021 10.2652 6.00021 10C6.00021 9.73484 6.10553 9.48053 6.293 9.293L9.293 6.293C9.48053 6.10553 9.73484 6.00021 10 6.00021C10.2652 6.00021 10.5195 6.10553 10.707 6.293Z" fill="#111928"/>
</svg>
