<svg width="20" height="20" viewBox="0 0 20 20" fill="none" xmlns="http://www.w3.org/2000/svg">
<path d="M2.00293 5.884L9.99993 9.882L17.9969 5.884C17.9673 5.37444 17.744 4.89549 17.3728 4.54523C17.0015 4.19497 16.5103 3.99991 15.9999 4H3.99993C3.48951 3.99991 2.99838 4.19497 2.62711 4.54523C2.25584 4.89549 2.03253 5.37444 2.00293 5.884Z" fill="#111928"/>
<path d="M18 8.11804L10 12.118L2 8.11804V14C2 14.5305 2.21071 15.0392 2.58579 15.4143C2.96086 15.7893 3.46957 16 4 16H16C16.5304 16 17.0391 15.7893 17.4142 15.4143C17.7893 15.0392 18 14.5305 18 14V8.11804Z" fill="#111928"/>
</svg>
