<svg width="24" height="24" viewBox="0 0 24 24" fill="none" xmlns="http://www.w3.org/2000/svg">
<path fill-rule="evenodd" clip-rule="evenodd" d="M11.6281 22.7196L11.6317 22.7208C11.8681 22.824 12.0001 22.8 12.0001 22.8C12.0001 22.8 12.1321 22.824 12.3697 22.7208L12.3721 22.7196L12.3793 22.716L12.4009 22.7064C12.5148 22.6535 12.6272 22.5975 12.7381 22.5384C12.9613 22.4232 13.2733 22.2504 13.6465 22.0188C14.3905 21.558 15.3805 20.8596 16.3753 19.9008C18.3625 17.9856 20.4001 14.9916 20.4001 10.8C20.4001 9.69692 20.1828 8.60462 19.7607 7.58548C19.3385 6.56635 18.7198 5.64034 17.9398 4.86033C17.1598 4.08032 16.2338 3.46158 15.2146 3.03944C14.1955 2.6173 13.1032 2.40002 12.0001 2.40002C10.897 2.40002 9.80469 2.6173 8.78556 3.03944C7.76642 3.46158 6.84041 4.08032 6.0604 4.86033C5.28039 5.64034 4.66165 6.56635 4.23951 7.58548C3.81737 8.60462 3.6001 9.69692 3.6001 10.8C3.6001 14.9904 5.6377 17.9856 7.6261 19.9008C8.4586 20.7004 9.37282 21.4103 10.3537 22.0188C10.7336 22.2547 11.1244 22.4726 11.5249 22.6716L11.5993 22.7064L11.6209 22.716L11.6281 22.7196ZM12.0001 13.5C12.7162 13.5 13.4029 13.2156 13.9093 12.7092C14.4156 12.2029 14.7001 11.5161 14.7001 10.8C14.7001 10.0839 14.4156 9.39718 13.9093 8.89084C13.4029 8.38449 12.7162 8.10002 12.0001 8.10002C11.284 8.10002 10.5973 8.38449 10.0909 8.89084C9.58456 9.39718 9.3001 10.0839 9.3001 10.8C9.3001 11.5161 9.58456 12.2029 10.0909 12.7092C10.5973 13.2156 11.284 13.5 12.0001 13.5Z" fill="black"/>
</svg>
