<svg width="20" height="20" viewBox="0 0 20 20" fill="none" xmlns="http://www.w3.org/2000/svg">
<path fill-rule="evenodd" clip-rule="evenodd" d="M12 1.58606L8 5.58606V18.4141L12 14.4141V1.58606ZM3.707 3.29306C3.56715 3.15325 3.38898 3.05804 3.19503 3.01948C3.00108 2.98091 2.80005 3.00071 2.61735 3.07638C2.43465 3.15205 2.27848 3.28019 2.1686 3.4446C2.05871 3.60901 2.00004 3.80231 2 4.00006V14.0001C2.00006 14.2653 2.10545 14.5196 2.293 14.7071L6 18.4141V5.58606L3.707 3.29306ZM17.707 5.29306L14 1.58606V14.4141L16.293 16.7071C16.4329 16.8469 16.611 16.9421 16.805 16.9806C16.9989 17.0192 17.2 16.9994 17.3827 16.9237C17.5654 16.8481 17.7215 16.7199 17.8314 16.5555C17.9413 16.3911 18 16.1978 18 16.0001V6.00006C17.9999 5.73486 17.8946 5.48055 17.707 5.29306Z" fill="#111928"/>
</svg>
