<svg width="20" height="20" viewBox="0 0 20 20" fill="none" xmlns="http://www.w3.org/2000/svg">
<path fill-rule="evenodd" clip-rule="evenodd" d="M7 4C7 3.20435 7.31607 2.44129 7.87868 1.87868C8.44129 1.31607 9.20435 1 10 1C10.7956 1 11.5587 1.31607 12.1213 1.87868C12.6839 2.44129 13 3.20435 13 4V8C13 8.79565 12.6839 9.55871 12.1213 10.1213C11.5587 10.6839 10.7956 11 10 11C9.20435 11 8.44129 10.6839 7.87868 10.1213C7.31607 9.55871 7 8.79565 7 8V4ZM11 14.93C12.6662 14.6893 14.1899 13.8562 15.2918 12.5835C16.3938 11.3107 17.0002 9.68351 17 8C17 7.73478 16.8946 7.48043 16.7071 7.29289C16.5196 7.10536 16.2652 7 16 7C15.7348 7 15.4804 7.10536 15.2929 7.29289C15.1054 7.48043 15 7.73478 15 8C15 9.32608 14.4732 10.5979 13.5355 11.5355C12.5979 12.4732 11.3261 13 10 13C8.67392 13 7.40215 12.4732 6.46447 11.5355C5.52678 10.5979 5 9.32608 5 8C5 7.73478 4.89464 7.48043 4.70711 7.29289C4.51957 7.10536 4.26522 7 4 7C3.73478 7 3.48043 7.10536 3.29289 7.29289C3.10536 7.48043 3 7.73478 3 8C2.99978 9.68351 3.6062 11.3107 4.70815 12.5835C5.81011 13.8562 7.33379 14.6893 9 14.93V17H6C5.73478 17 5.48043 17.1054 5.29289 17.2929C5.10536 17.4804 5 17.7348 5 18C5 18.2652 5.10536 18.5196 5.29289 18.7071C5.48043 18.8946 5.73478 19 6 19H14C14.2652 19 14.5196 18.8946 14.7071 18.7071C14.8946 18.5196 15 18.2652 15 18C15 17.7348 14.8946 17.4804 14.7071 17.2929C14.5196 17.1054 14.2652 17 14 17H11V14.93Z" fill="#111928"/>
</svg>
