<svg width="20" height="20" viewBox="0 0 20 20" fill="none" xmlns="http://www.w3.org/2000/svg">
<path fill-rule="evenodd" clip-rule="evenodd" d="M2 5C2 4.46957 2.21071 3.96086 2.58579 3.58579C2.96086 3.21071 3.46957 3 4 3H12C12.5304 3 13.0391 3.21071 13.4142 3.58579C13.7893 3.96086 14 4.46957 14 5V15C14 15.5304 14.2107 16.0391 14.5858 16.4142C14.9609 16.7893 15.4696 17 16 17H4C3.46957 17 2.96086 16.7893 2.58579 16.4142C2.21071 16.0391 2 15.5304 2 15V5ZM5 6H11V10H5V6ZM11 12H5V14H11V12Z" fill="#111928"/>
<path d="M15 7H16C16.5304 7 17.0391 7.21071 17.4142 7.58579C17.7893 7.96086 18 8.46957 18 9V14.5C18 14.8978 17.842 15.2794 17.5607 15.5607C17.2794 15.842 16.8978 16 16.5 16C16.1022 16 15.7206 15.842 15.4393 15.5607C15.158 15.2794 15 14.8978 15 14.5V7Z" fill="#111928"/>
</svg>
