<svg width="20" height="20" viewBox="0 0 20 20" fill="none" xmlns="http://www.w3.org/2000/svg">
<path d="M10.8939 2.55303C10.8108 2.38715 10.6832 2.24767 10.5253 2.1502C10.3674 2.05272 10.1855 2.0011 9.99995 2.0011C9.8144 2.0011 9.63251 2.05272 9.47462 2.1502C9.31674 2.24767 9.18909 2.38715 9.10595 2.55303L2.10595 16.553C2.01909 16.7266 1.98463 16.9217 2.00677 17.1146C2.02891 17.3074 2.1067 17.4896 2.23064 17.639C2.35458 17.7884 2.51931 17.8985 2.70475 17.9558C2.89019 18.0132 3.08831 18.0154 3.27495 17.962L8.27495 16.533C8.48392 16.4733 8.66773 16.347 8.79855 16.1734C8.92937 15.9999 9.00007 15.7884 8.99995 15.571V11C8.99995 10.7348 9.1053 10.4805 9.29284 10.2929C9.48038 10.1054 9.73473 10 9.99995 10C10.2652 10 10.5195 10.1054 10.7071 10.2929C10.8946 10.4805 10.9999 10.7348 10.9999 11V15.571C10.9998 15.7884 11.0705 15.9999 11.2013 16.1734C11.3322 16.347 11.516 16.4733 11.7249 16.533L16.7249 17.961C16.9115 18.0145 17.1096 18.0124 17.2951 17.9552C17.4805 17.898 17.6453 17.788 17.7693 17.6388C17.8934 17.4895 17.9713 17.3074 17.9936 17.1146C18.0159 16.9218 17.9816 16.7267 17.8949 16.553L10.8949 2.55303H10.8939Z" fill="#111928"/>
</svg>
