<svg width="20" height="20" viewBox="0 0 20 20" fill="none" xmlns="http://www.w3.org/2000/svg">
<path fill-rule="evenodd" clip-rule="evenodd" d="M8 4C7.20435 4 6.44129 4.31607 5.87868 4.87868C5.31607 5.44129 5 6.20435 5 7V11C5 12.3261 5.52678 13.5979 6.46447 14.5355C7.40215 15.4732 8.67392 16 10 16C11.3261 16 12.5979 15.4732 13.5355 14.5355C14.4732 13.5979 15 12.3261 15 11V7C15 6.73478 15.1054 6.48043 15.2929 6.29289C15.4804 6.10536 15.7348 6 16 6C16.2652 6 16.5196 6.10536 16.7071 6.29289C16.8946 6.48043 17 6.73478 17 7V11C17 11.9193 16.8189 12.8295 16.4672 13.6788C16.1154 14.5281 15.5998 15.2997 14.9497 15.9497C14.2997 16.5998 13.5281 17.1154 12.6788 17.4672C11.8295 17.8189 10.9193 18 10 18C9.08075 18 8.1705 17.8189 7.32122 17.4672C6.47194 17.1154 5.70026 16.5998 5.05025 15.9497C4.40024 15.2997 3.88463 14.5281 3.53284 13.6788C3.18106 12.8295 3 11.9193 3 11V7C3 5.67392 3.52678 4.40215 4.46447 3.46447C5.40215 2.52678 6.67392 2 8 2C9.32608 2 10.5979 2.52678 11.5355 3.46447C12.4732 4.40215 13 5.67392 13 7V11C13 11.7956 12.6839 12.5587 12.1213 13.1213C11.5587 13.6839 10.7956 14 10 14C9.20435 14 8.44129 13.6839 7.87868 13.1213C7.31607 12.5587 7 11.7956 7 11V7C7 6.73478 7.10536 6.48043 7.29289 6.29289C7.48043 6.10536 7.73478 6 8 6C8.26522 6 8.51957 6.10536 8.70711 6.29289C8.89464 6.48043 9 6.73478 9 7V11C9 11.2652 9.10536 11.5196 9.29289 11.7071C9.48043 11.8946 9.73478 12 10 12C10.2652 12 10.5196 11.8946 10.7071 11.7071C10.8946 11.5196 11 11.2652 11 11V7C11 6.20435 10.6839 5.44129 10.1213 4.87868C9.55871 4.31607 8.79565 4 8 4Z" fill="#111928"/>
</svg>
