<svg width="20" height="20" viewBox="0 0 20 20" fill="none" xmlns="http://www.w3.org/2000/svg">
<path d="M14.414 7.00004L17.707 3.70704C17.8892 3.51844 17.99 3.26584 17.9877 3.00364C17.9854 2.74144 17.8802 2.49063 17.6948 2.30522C17.5094 2.11981 17.2586 2.01465 16.9964 2.01237C16.7342 2.01009 16.4816 2.11088 16.293 2.29304L13 5.58604V4.00004C13 3.73482 12.8946 3.48047 12.7071 3.29293C12.5196 3.1054 12.2652 3.00004 12 3.00004C11.7348 3.00004 11.4804 3.1054 11.2929 3.29293C11.1054 3.48047 11 3.73482 11 4.00004V8.00304C11 8.20042 11.0587 8.39334 11.1685 8.55731C11.2784 8.72129 11.4345 8.84894 11.617 8.92404C11.7384 8.97437 11.8686 9.0002 12 9.00004H16C16.2652 9.00004 16.5196 8.89468 16.7071 8.70715C16.8946 8.51961 17 8.26526 17 8.00004C17 7.73482 16.8946 7.48047 16.7071 7.29293C16.5196 7.1054 16.2652 7.00004 16 7.00004H14.414Z" fill="#111928"/>
<path d="M2 3C2 2.73478 2.10536 2.48043 2.29289 2.29289C2.48043 2.10536 2.73478 2 3 2H5.153C5.38971 2.00011 5.6187 2.08418 5.79924 2.23726C5.97979 2.39034 6.10018 2.6025 6.139 2.836L6.879 7.271C6.91436 7.48222 6.88097 7.69921 6.78376 7.89003C6.68655 8.08085 6.53065 8.23543 6.339 8.331L4.791 9.104C5.34611 10.4797 6.17283 11.7293 7.22178 12.7782C8.27072 13.8272 9.52035 14.6539 10.896 15.209L11.67 13.661C11.7655 13.4695 11.9199 13.3138 12.1106 13.2166C12.3012 13.1194 12.5179 13.0859 12.729 13.121L17.164 13.861C17.3975 13.8998 17.6097 14.0202 17.7627 14.2008C17.9158 14.3813 17.9999 14.6103 18 14.847V17C18 17.2652 17.8946 17.5196 17.7071 17.7071C17.5196 17.8946 17.2652 18 17 18H15C7.82 18 2 12.18 2 5V3Z" fill="#111928"/>
</svg>
