<svg width="20" height="20" viewBox="0 0 20 20" fill="none" xmlns="http://www.w3.org/2000/svg">
<path fill-rule="evenodd" clip-rule="evenodd" d="M3 3C2.73478 3 2.48043 3.10536 2.29289 3.29289C2.10536 3.48043 2 3.73478 2 4C2 4.26522 2.10536 4.51957 2.29289 4.70711C2.48043 4.89464 2.73478 5 3 5V13C3 13.5304 3.21071 14.0391 3.58579 14.4142C3.96086 14.7893 4.46957 15 5 15H7.586L6.293 16.293C6.19749 16.3852 6.12131 16.4956 6.0689 16.6176C6.01649 16.7396 5.9889 16.8708 5.98775 17.0036C5.9866 17.1364 6.0119 17.2681 6.06218 17.391C6.11246 17.5138 6.18671 17.6255 6.2806 17.7194C6.3745 17.8133 6.48615 17.8875 6.60905 17.9378C6.73194 17.9881 6.86362 18.0134 6.9964 18.0123C7.12918 18.0111 7.2604 17.9835 7.3824 17.9311C7.50441 17.8787 7.61475 17.8025 7.707 17.707L10 15.414L12.293 17.707C12.4816 17.8892 12.7342 17.99 12.9964 17.9877C13.2586 17.9854 13.5094 17.8802 13.6948 17.6948C13.8802 17.5094 13.9854 17.2586 13.9877 16.9964C13.99 16.7342 13.8892 16.4816 13.707 16.293L12.414 15H15C15.5304 15 16.0391 14.7893 16.4142 14.4142C16.7893 14.0391 17 13.5304 17 13V5C17.2652 5 17.5196 4.89464 17.7071 4.70711C17.8946 4.51957 18 4.26522 18 4C18 3.73478 17.8946 3.48043 17.7071 3.29289C17.5196 3.10536 17.2652 3 17 3H3ZM14.707 7.707C14.8892 7.5184 14.99 7.2658 14.9877 7.0036C14.9854 6.7414 14.8802 6.49059 14.6948 6.30518C14.5094 6.11977 14.2586 6.0146 13.9964 6.01233C13.7342 6.01005 13.4816 6.11084 13.293 6.293L10 9.586L8.707 8.293C8.51947 8.10553 8.26516 8.00021 8 8.00021C7.73484 8.00021 7.48053 8.10553 7.293 8.293L5.293 10.293C5.19749 10.3852 5.12131 10.4956 5.0689 10.6176C5.01649 10.7396 4.9889 10.8708 4.98775 11.0036C4.9866 11.1364 5.0119 11.2681 5.06218 11.391C5.11246 11.5139 5.18671 11.6255 5.2806 11.7194C5.3745 11.8133 5.48615 11.8875 5.60905 11.9378C5.73194 11.9881 5.86362 12.0134 5.9964 12.0123C6.12918 12.0111 6.2604 11.9835 6.3824 11.9311C6.50441 11.8787 6.61475 11.8025 6.707 11.707L8 10.414L9.293 11.707C9.48053 11.8945 9.73484 11.9998 10 11.9998C10.2652 11.9998 10.5195 11.8945 10.707 11.707L14.707 7.707Z" fill="#111928"/>
</svg>
