<svg width="20" height="20" viewBox="0 0 20 20" fill="none" xmlns="http://www.w3.org/2000/svg">
<path d="M10 3.5C10 3.10218 10.158 2.72064 10.4393 2.43934C10.7206 2.15804 11.1022 2 11.5 2C11.8978 2 12.2794 2.15804 12.5607 2.43934C12.842 2.72064 13 3.10218 13 3.5V4C13 4.26522 13.1054 4.51957 13.2929 4.70711C13.4804 4.89464 13.7348 5 14 5H17C17.2652 5 17.5196 5.10536 17.7071 5.29289C17.8946 5.48043 18 5.73478 18 6V9C18 9.26522 17.8946 9.51957 17.7071 9.70711C17.5196 9.89464 17.2652 10 17 10H16.5C16.1022 10 15.7206 10.158 15.4393 10.4393C15.158 10.7206 15 11.1022 15 11.5C15 11.8978 15.158 12.2794 15.4393 12.5607C15.7206 12.842 16.1022 13 16.5 13H17C17.2652 13 17.5196 13.1054 17.7071 13.2929C17.8946 13.4804 18 13.7348 18 14V17C18 17.2652 17.8946 17.5196 17.7071 17.7071C17.5196 17.8946 17.2652 18 17 18H14C13.7348 18 13.4804 17.8946 13.2929 17.7071C13.1054 17.5196 13 17.2652 13 17V16.5C13 16.1022 12.842 15.7206 12.5607 15.4393C12.2794 15.158 11.8978 15 11.5 15C11.1022 15 10.7206 15.158 10.4393 15.4393C10.158 15.7206 10 16.1022 10 16.5V17C10 17.2652 9.89464 17.5196 9.70711 17.7071C9.51957 17.8946 9.26522 18 9 18H6C5.73478 18 5.48043 17.8946 5.29289 17.7071C5.10536 17.5196 5 17.2652 5 17V14C5 13.7348 4.89464 13.4804 4.70711 13.2929C4.51957 13.1054 4.26522 13 4 13H3.5C3.10218 13 2.72064 12.842 2.43934 12.5607C2.15804 12.2794 2 11.8978 2 11.5C2 11.1022 2.15804 10.7206 2.43934 10.4393C2.72064 10.158 3.10218 10 3.5 10H4C4.26522 10 4.51957 9.89464 4.70711 9.70711C4.89464 9.51957 5 9.26522 5 9V6C5 5.73478 5.10536 5.48043 5.29289 5.29289C5.48043 5.10536 5.73478 5 6 5H9C9.26522 5 9.51957 4.89464 9.70711 4.70711C9.89464 4.51957 10 4.26522 10 4V3.5Z" fill="#111928"/>
</svg>
