<svg width="20" height="20" viewBox="0 0 20 20" fill="none" xmlns="http://www.w3.org/2000/svg">
<path fill-rule="evenodd" clip-rule="evenodd" d="M5 2C4.46957 2 3.96086 2.21071 3.58579 2.58579C3.21071 2.96086 3 3.46957 3 4V18L6.5 16L10 18L13.5 16L17 18V4C17 3.46957 16.7893 2.96086 16.4142 2.58579C16.0391 2.21071 15.5304 2 15 2H5ZM9.707 5.707C9.88916 5.5184 9.98995 5.2658 9.98767 5.0036C9.9854 4.7414 9.88023 4.49059 9.69482 4.30518C9.50941 4.11977 9.2586 4.0146 8.9964 4.01233C8.7342 4.01005 8.4816 4.11084 8.293 4.293L5.293 7.293C5.10553 7.48053 5.00021 7.73484 5.00021 8C5.00021 8.26516 5.10553 8.51947 5.293 8.707L8.293 11.707C8.4816 11.8892 8.7342 11.99 8.9964 11.9877C9.2586 11.9854 9.50941 11.8802 9.69482 11.6948C9.88023 11.5094 9.9854 11.2586 9.98767 10.9964C9.98995 10.7342 9.88916 10.4816 9.707 10.293L8.414 9H10C10.7956 9 11.5587 9.31607 12.1213 9.87868C12.6839 10.4413 13 11.2044 13 12V13C13 13.2652 13.1054 13.5196 13.2929 13.7071C13.4804 13.8946 13.7348 14 14 14C14.2652 14 14.5196 13.8946 14.7071 13.7071C14.8946 13.5196 15 13.2652 15 13V12C15 10.6739 14.4732 9.40215 13.5355 8.46447C12.5979 7.52678 11.3261 7 10 7H8.414L9.707 5.707Z" fill="#111928"/>
</svg>
