<svg width="20" height="20" viewBox="0 0 20 20" fill="none" xmlns="http://www.w3.org/2000/svg">
<path d="M8.44498 14.832C8.59558 14.9325 8.77063 14.9902 8.95146 14.999C9.13229 15.0078 9.31212 14.9673 9.47175 14.8819C9.63138 14.7965 9.76482 14.6693 9.85785 14.514C9.95089 14.3587 10 14.1811 9.99998 14V11.202L15.445 14.832C15.5956 14.9325 15.7706 14.9902 15.9515 14.999C16.1323 15.0078 16.3121 14.9673 16.4717 14.8819C16.6314 14.7965 16.7648 14.6693 16.8579 14.514C16.9509 14.3587 17 14.1811 17 14V6.00003C17 5.81898 16.9509 5.64133 16.8579 5.48602C16.7648 5.33071 16.6314 5.20356 16.4717 5.11815C16.3121 5.03274 16.1323 4.99227 15.9515 5.00106C15.7706 5.00984 15.5956 5.06755 15.445 5.16803L9.99998 8.79803V6.00003C10 5.81898 9.95089 5.64133 9.85785 5.48602C9.76482 5.33071 9.63138 5.20356 9.47175 5.11815C9.31212 5.03274 9.13229 4.99227 8.95146 5.00106C8.77063 5.00984 8.59558 5.06755 8.44498 5.16803L2.44498 9.16803C2.30802 9.25935 2.19573 9.38307 2.11806 9.52821C2.04039 9.67335 1.99976 9.83541 1.99976 10C1.99976 10.1646 2.04039 10.3267 2.11806 10.4718C2.19573 10.617 2.30802 10.7407 2.44498 10.832L8.44498 14.832Z" fill="#111928"/>
</svg>
