<svg width="20" height="20" viewBox="0 0 20 20" fill="none" xmlns="http://www.w3.org/2000/svg">
<path d="M9.707 7.293C9.5184 7.11084 9.2658 7.01005 9.0036 7.01233C8.7414 7.0146 8.49059 7.11977 8.30518 7.30518C8.11977 7.49059 8.0146 7.7414 8.01233 8.0036C8.01005 8.2658 8.11084 8.5184 8.293 8.707L11.293 11.707C11.4805 11.8945 11.7348 11.9998 12 11.9998C12.2652 11.9998 12.5195 11.8945 12.707 11.707L15.707 8.707C15.8892 8.5184 15.99 8.2658 15.9877 8.0036C15.9854 7.7414 15.8802 7.49059 15.6948 7.30518C15.5094 7.11977 15.2586 7.0146 14.9964 7.01233C14.7342 7.01005 14.4816 7.11084 14.293 7.293L13 8.586V5H16C16.5304 5 17.0391 5.21071 17.4142 5.58579C17.7893 5.96086 18 6.46957 18 7V12C18 12.5304 17.7893 13.0391 17.4142 13.4142C17.0391 13.7893 16.5304 14 16 14H8C7.46957 14 6.96086 13.7893 6.58579 13.4142C6.21071 13.0391 6 12.5304 6 12V7C6 6.46957 6.21071 5.96086 6.58579 5.58579C6.96086 5.21071 7.46957 5 8 5H11V8.586L9.707 7.293ZM11 3C11 2.73478 11.1054 2.48043 11.2929 2.29289C11.4804 2.10536 11.7348 2 12 2C12.2652 2 12.5196 2.10536 12.7071 2.29289C12.8946 2.48043 13 2.73478 13 3V5H11V3Z" fill="#111928"/>
<path d="M4 9C3.46957 9 2.96086 9.21071 2.58579 9.58579C2.21071 9.96086 2 10.4696 2 11V16C2 16.5304 2.21071 17.0391 2.58579 17.4142C2.96086 17.7893 3.46957 18 4 18H12C12.5304 18 13.0391 17.7893 13.4142 17.4142C13.7893 17.0391 14 16.5304 14 16H4V9Z" fill="#111928"/>
</svg>
