<svg width="20" height="20" viewBox="0 0 20 20" fill="none" xmlns="http://www.w3.org/2000/svg">
<path d="M7.707 10.293C7.61475 10.1975 7.50441 10.1213 7.3824 10.0689C7.2604 10.0165 7.12918 9.9889 6.9964 9.98775C6.86362 9.9866 6.73194 10.0119 6.60905 10.0622C6.48615 10.1125 6.3745 10.1867 6.2806 10.2806C6.18671 10.3745 6.11246 10.4861 6.06218 10.609C6.0119 10.7319 5.9866 10.8636 5.98775 10.9964C5.9889 11.1292 6.01649 11.2604 6.0689 11.3824C6.12131 11.5044 6.19749 11.6148 6.293 11.707L9.293 14.707C9.48053 14.8945 9.73484 14.9998 10 14.9998C10.2652 14.9998 10.5195 14.8945 10.707 14.707L13.707 11.707C13.8892 11.5184 13.99 11.2658 13.9877 11.0036C13.9854 10.7414 13.8802 10.4906 13.6948 10.3052C13.5094 10.1198 13.2586 10.0146 12.9964 10.0123C12.7342 10.01 12.4816 10.1108 12.293 10.293L11 11.586V6H16C16.5304 6 17.0391 6.21071 17.4142 6.58579C17.7893 6.96086 18 7.46957 18 8V15C18 15.5304 17.7893 16.0391 17.4142 16.4142C17.0391 16.7893 16.5304 17 16 17H4C3.46957 17 2.96086 16.7893 2.58579 16.4142C2.21071 16.0391 2 15.5304 2 15V8C2 7.46957 2.21071 6.96086 2.58579 6.58579C2.96086 6.21071 3.46957 6 4 6H9V11.586L7.707 10.293ZM9 4C9 3.73478 9.10536 3.48043 9.29289 3.29289C9.48043 3.10536 9.73478 3 10 3C10.2652 3 10.5196 3.10536 10.7071 3.29289C10.8946 3.48043 11 3.73478 11 4V6H9V4Z" fill="#111928"/>
</svg>
