<svg width="20" height="20" viewBox="0 0 20 20" fill="none" xmlns="http://www.w3.org/2000/svg">
<path fill-rule="evenodd" clip-rule="evenodd" d="M9.99996 2C10.2652 2 10.5195 2.10536 10.7071 2.29289C10.8946 2.48043 11 2.73478 11 3V4.323L14.954 5.905L16.553 5.105C16.7903 4.98645 17.0651 4.96705 17.3167 5.05106C17.5684 5.13508 17.7764 5.31563 17.895 5.553C18.0135 5.79037 18.0329 6.06511 17.9489 6.31678C17.8649 6.56846 17.6843 6.77645 17.447 6.895L16.214 7.511L17.952 12.931C18.0109 13.1149 18.0153 13.3118 17.9647 13.4982C17.9142 13.6845 17.8107 13.8522 17.667 13.981C16.9341 14.6381 15.9842 15.001 15 15C14.0157 15.001 13.0658 14.6381 12.333 13.981C12.1892 13.8522 12.0857 13.6845 12.0352 13.4982C11.9846 13.3118 11.989 13.1149 12.048 12.931L13.763 7.582L11 6.477V16H13C13.2652 16 13.5195 16.1054 13.7071 16.2929C13.8946 16.4804 14 16.7348 14 17C14 17.2652 13.8946 17.5196 13.7071 17.7071C13.5195 17.8946 13.2652 18 13 18H6.99996C6.73474 18 6.48039 17.8946 6.29285 17.7071C6.10531 17.5196 5.99996 17.2652 5.99996 17C5.99996 16.7348 6.10531 16.4804 6.29285 16.2929C6.48039 16.1054 6.73474 16 6.99996 16H8.99996V6.477L6.23696 7.582L7.95196 12.931C8.01088 13.1149 8.01532 13.3118 7.96475 13.4982C7.91418 13.6845 7.81075 13.8522 7.66696 13.981C6.93412 14.6381 5.98423 15.001 4.99996 15C4.01568 15.001 3.06579 14.6381 2.33296 13.981C2.18916 13.8522 2.08574 13.6845 2.03516 13.4982C1.98459 13.3118 1.98903 13.1149 2.04796 12.931L3.78596 7.511L2.55296 6.894C2.32423 6.77066 2.1525 6.56312 2.07414 6.31535C1.99578 6.06758 2.01695 5.79904 2.13317 5.56661C2.24938 5.33418 2.45152 5.15611 2.69675 5.07014C2.94198 4.98416 3.21104 4.99702 3.44696 5.106L5.04596 5.905L8.99996 4.323V3C8.99996 2.73478 9.10531 2.48043 9.29285 2.29289C9.48039 2.10536 9.73474 2 9.99996 2ZM4.99996 10.274L4.18196 12.826C4.43196 12.938 4.70796 13 4.99996 13C5.29196 13 5.56896 12.938 5.81796 12.826L4.99996 10.274ZM15 10.274L14.182 12.826C14.432 12.938 14.708 13 15 13C15.292 13 15.569 12.938 15.818 12.826L15 10.274Z" fill="#111928"/>
</svg>
