<svg width="20" height="20" viewBox="0 0 20 20" fill="none" xmlns="http://www.w3.org/2000/svg">
<path fill-rule="evenodd" clip-rule="evenodd" d="M5.49999 2C4.96748 2.0004 4.44208 2.12229 3.96379 2.35642C3.48551 2.59054 3.06695 2.93071 2.73999 3.35103C2.41303 3.77134 2.18629 4.26073 2.07704 4.78191C1.96778 5.30309 1.9789 5.84234 2.10952 6.35858C2.24015 6.87482 2.48686 7.35445 2.83085 7.76094C3.17485 8.16743 3.60706 8.49008 4.09458 8.7043C4.5821 8.91852 5.11208 9.01867 5.64416 8.99713C6.17623 8.97559 6.69638 8.83293 7.16499 8.58L8.58499 10L7.16499 11.42C6.42546 11.0201 5.56669 10.8998 4.74574 11.081C3.92478 11.2623 3.1965 11.733 2.69405 12.407C2.19161 13.0811 1.94859 13.9135 2.00942 14.752C2.07026 15.5905 2.43089 16.3791 3.02538 16.9736C3.61986 17.5681 4.40846 17.9287 5.24698 17.9896C6.0855 18.0504 6.9179 17.8074 7.59196 17.3049C8.26603 16.8025 8.73672 16.0742 8.91795 15.2533C9.09919 14.4323 8.97887 13.5735 8.57899 12.834L16.707 4.707C16.8891 4.5184 16.9899 4.2658 16.9877 4.0036C16.9854 3.7414 16.8802 3.49059 16.6948 3.30518C16.5094 3.11977 16.2586 3.01461 15.9964 3.01233C15.7342 3.01005 15.4816 3.11084 15.293 3.293L9.99999 8.586L8.57999 7.166C8.86863 6.63272 9.01377 6.03359 9.00118 5.42734C8.98859 4.82108 8.81871 4.2285 8.50818 3.70766C8.19765 3.18682 7.75713 2.75559 7.22979 2.45623C6.70244 2.15688 6.10637 1.99966 5.49999 2ZM3.99999 5.5C3.99999 5.30302 4.03879 5.10796 4.11417 4.92598C4.18955 4.74399 4.30004 4.57863 4.43933 4.43934C4.57862 4.30005 4.74398 4.18956 4.92596 4.11418C5.10795 4.0388 5.30301 4 5.49999 4C5.69697 4 5.89203 4.0388 6.07401 4.11418C6.256 4.18956 6.42136 4.30005 6.56065 4.43934C6.69994 4.57863 6.81043 4.74399 6.88581 4.92598C6.96119 5.10796 6.99999 5.30302 6.99999 5.5C6.99999 5.89783 6.84195 6.27936 6.56065 6.56066C6.27935 6.84197 5.89781 7 5.49999 7C5.10216 7 4.72063 6.84197 4.43933 6.56066C4.15802 6.27936 3.99999 5.89783 3.99999 5.5ZM3.99999 14.5C3.99999 14.303 4.03879 14.108 4.11417 13.926C4.18955 13.744 4.30004 13.5786 4.43933 13.4393C4.57862 13.3001 4.74398 13.1896 4.92596 13.1142C5.10795 13.0388 5.30301 13 5.49999 13C5.69697 13 5.89203 13.0388 6.07401 13.1142C6.256 13.1896 6.42136 13.3001 6.56065 13.4393C6.69994 13.5786 6.81043 13.744 6.88581 13.926C6.96119 14.108 6.99999 14.303 6.99999 14.5C6.99999 14.8978 6.84195 15.2794 6.56065 15.5607C6.27935 15.842 5.89781 16 5.49999 16C5.10216 16 4.72063 15.842 4.43933 15.5607C4.15802 15.2794 3.99999 14.8978 3.99999 14.5Z" fill="#111928"/>
<path d="M12.828 11.414C12.6394 11.2319 12.3868 11.1311 12.1246 11.1333C11.8624 11.1356 11.6116 11.2408 11.4262 11.4262C11.2408 11.6116 11.1356 11.8624 11.1333 12.1246C11.1311 12.3868 11.2319 12.6394 11.414 12.828L15.293 16.708C15.4807 16.8955 15.7351 17.0008 16.0004 17.0007C16.2656 17.0006 16.52 16.8952 16.7075 16.7075C16.895 16.5199 17.0003 16.2654 17.0002 16.0002C17.0001 15.7349 16.8947 15.4805 16.707 15.293L12.828 11.414Z" fill="#111928"/>
</svg>
