<svg width="20" height="20" viewBox="0 0 20 20" fill="none" xmlns="http://www.w3.org/2000/svg">
<path d="M14.9999 8C15.6091 8.00002 16.2038 7.8146 16.705 7.4684C17.2062 7.1222 17.5902 6.63162 17.8058 6.06191C18.0214 5.49219 18.0585 4.87034 17.9121 4.27904C17.7657 3.68774 17.4428 3.15501 16.9863 2.7517C16.5297 2.34839 15.9613 2.09362 15.3564 2.02125C14.7516 1.94888 14.139 2.06235 13.6003 2.34658C13.0615 2.6308 12.622 3.0723 12.3402 3.61238C12.0585 4.15245 11.9478 4.7655 12.0229 5.37L7.08293 7.84C6.65916 7.43136 6.12453 7.15642 5.54562 7.04945C4.96672 6.94247 4.36914 7.00819 3.82731 7.2384C3.28549 7.46862 2.82338 7.85317 2.49854 8.34414C2.1737 8.83511 2.00049 9.4108 2.00049 9.9995C2.00049 10.5882 2.1737 11.1639 2.49854 11.6549C2.82338 12.1458 3.28549 12.5304 3.82731 12.7606C4.36914 12.9908 4.96672 13.0565 5.54562 12.9496C6.12453 12.8426 6.65916 12.5676 7.08293 12.159L12.0229 14.629C11.9354 15.3312 12.099 16.0418 12.4847 16.6351C12.8704 17.2284 13.4535 17.6663 14.1308 17.8713C14.8081 18.0763 15.5361 18.0353 16.1861 17.7555C16.8361 17.4757 17.3663 16.9751 17.6829 16.3422C17.9995 15.7093 18.0822 14.9849 17.9164 14.2969C17.7505 13.6089 17.3468 13.0017 16.7766 12.5826C16.2064 12.1635 15.5064 11.9595 14.8003 12.0066C14.0942 12.0537 13.4274 12.3489 12.9179 12.84L7.97793 10.37C8.00819 10.1243 8.00819 9.87574 7.97793 9.63L12.9179 7.16C13.4559 7.68 14.1899 8 14.9999 8Z" fill="#111928"/>
</svg>
