<svg width="20" height="20" viewBox="0 0 20 20" fill="none" xmlns="http://www.w3.org/2000/svg">
<path fill-rule="evenodd" clip-rule="evenodd" d="M10 1.94397C7.84496 3.87779 5.06127 4.9637 2.166 4.99997C2.056 5.64897 2 6.31897 2 6.99997C2 12.225 5.34 16.67 10 18.317C14.66 16.67 18 12.225 18 6.99997C18 6.31797 17.943 5.64997 17.834 4.99897C14.9389 4.96297 12.1552 3.87743 10 1.94397ZM11 14C11 14.2652 10.8946 14.5195 10.7071 14.7071C10.5196 14.8946 10.2652 15 10 15C9.73478 15 9.48043 14.8946 9.29289 14.7071C9.10536 14.5195 9 14.2652 9 14C9 13.7348 9.10536 13.4804 9.29289 13.2929C9.48043 13.1053 9.73478 13 10 13C10.2652 13 10.5196 13.1053 10.7071 13.2929C10.8946 13.4804 11 13.7348 11 14ZM11 6.99997C11 6.73475 10.8946 6.4804 10.7071 6.29286C10.5196 6.10533 10.2652 5.99997 10 5.99997C9.73478 5.99997 9.48043 6.10533 9.29289 6.29286C9.10536 6.4804 9 6.73475 9 6.99997V9.99997C9 10.2652 9.10536 10.5195 9.29289 10.7071C9.48043 10.8946 9.73478 11 10 11C10.2652 11 10.5196 10.8946 10.7071 10.7071C10.8946 10.5195 11 10.2652 11 9.99997V6.99997Z" fill="#111928"/>
</svg>
