<svg width="20" height="20" viewBox="0 0 20 20" fill="none" xmlns="http://www.w3.org/2000/svg">
<path fill-rule="evenodd" clip-rule="evenodd" d="M9.99999 2C7.79099 2 5.99999 3.791 5.99999 6V7H4.99999C4.48999 7 4.062 7.38301 4.006 7.89001L3.006 16.89C2.975 17.172 3.06499 17.455 3.25499 17.667C3.44499 17.879 3.71599 18 3.99999 18H16C16.284 18 16.555 17.879 16.745 17.667C16.935 17.455 17.025 17.172 16.994 16.89L15.994 7.89001C15.938 7.38301 15.51 7 15 7H14V6C14 3.791 12.209 2 9.99999 2ZM12 7V6C12 4.895 11.105 4 9.99999 4C8.89499 4 7.99999 4.895 7.99999 6V7H12ZM5.99999 10C5.99999 9.448 6.44799 9 6.99999 9C7.55199 9 7.99999 9.448 7.99999 10C7.99999 10.552 7.55199 11 6.99999 11C6.44799 11 5.99999 10.552 5.99999 10ZM13 9C12.448 9 12 9.448 12 10C12 10.552 12.448 11 13 11C13.552 11 14 10.552 14 10C14 9.448 13.552 9 13 9Z" fill="#111928"/>
</svg>
