<svg width="20" height="20" viewBox="0 0 20 20" fill="none" xmlns="http://www.w3.org/2000/svg">
<path d="M3 3C2.73478 3 2.48043 3.10536 2.29289 3.29289C2.10536 3.48043 2 3.73478 2 4C2 4.26522 2.10536 4.51957 2.29289 4.70711C2.48043 4.89464 2.73478 5 3 5H14C14.2652 5 14.5196 4.89464 14.7071 4.70711C14.8946 4.51957 15 4.26522 15 4C15 3.73478 14.8946 3.48043 14.7071 3.29289C14.5196 3.10536 14.2652 3 14 3H3ZM3 7C2.73478 7 2.48043 7.10536 2.29289 7.29289C2.10536 7.48043 2 7.73478 2 8C2 8.26522 2.10536 8.51957 2.29289 8.70711C2.48043 8.89464 2.73478 9 3 9H10C10.2652 9 10.5196 8.89464 10.7071 8.70711C10.8946 8.51957 11 8.26522 11 8C11 7.73478 10.8946 7.48043 10.7071 7.29289C10.5196 7.10536 10.2652 7 10 7H3ZM3 11C2.73478 11 2.48043 11.1054 2.29289 11.2929C2.10536 11.4804 2 11.7348 2 12C2 12.2652 2.10536 12.5196 2.29289 12.7071C2.48043 12.8946 2.73478 13 3 13H7C7.26522 13 7.51957 12.8946 7.70711 12.7071C7.89464 12.5196 8 12.2652 8 12C8 11.7348 7.89464 11.4804 7.70711 11.2929C7.51957 11.1054 7.26522 11 7 11H3ZM15 8C15 7.73478 14.8946 7.48043 14.7071 7.29289C14.5196 7.10536 14.2652 7 14 7C13.7348 7 13.4804 7.10536 13.2929 7.29289C13.1054 7.48043 13 7.73478 13 8V13.586L11.707 12.293C11.5184 12.1108 11.2658 12.01 11.0036 12.0123C10.7414 12.0146 10.4906 12.1198 10.3052 12.3052C10.1198 12.4906 10.0146 12.7414 10.0123 13.0036C10.01 13.2658 10.1108 13.5184 10.293 13.707L13.293 16.707C13.4805 16.8945 13.7348 16.9998 14 16.9998C14.2652 16.9998 14.5195 16.8945 14.707 16.707L17.707 13.707C17.8892 13.5184 17.99 13.2658 17.9877 13.0036C17.9854 12.7414 17.8802 12.4906 17.6948 12.3052C17.5094 12.1198 17.2586 12.0146 16.9964 12.0123C16.7342 12.01 16.4816 12.1108 16.293 12.293L15 13.586V8Z" fill="#111928"/>
</svg>
