<svg width="20" height="20" viewBox="0 0 20 20" fill="none" xmlns="http://www.w3.org/2000/svg">
<path fill-rule="evenodd" clip-rule="evenodd" d="M5 2C5.26522 2 5.51957 2.10536 5.70711 2.29289C5.89464 2.48043 6 2.73478 6 3V4H7C7.26522 4 7.51957 4.10536 7.70711 4.29289C7.89464 4.48043 8 4.73478 8 5C8 5.26522 7.89464 5.51957 7.70711 5.70711C7.51957 5.89464 7.26522 6 7 6H6V7C6 7.26522 5.89464 7.51957 5.70711 7.70711C5.51957 7.89464 5.26522 8 5 8C4.73478 8 4.48043 7.89464 4.29289 7.70711C4.10536 7.51957 4 7.26522 4 7V6H3C2.73478 6 2.48043 5.89464 2.29289 5.70711C2.10536 5.51957 2 5.26522 2 5C2 4.73478 2.10536 4.48043 2.29289 4.29289C2.48043 4.10536 2.73478 4 3 4H4V3C4 2.73478 4.10536 2.48043 4.29289 2.29289C4.48043 2.10536 4.73478 2 5 2ZM5 12C5.26522 12 5.51957 12.1054 5.70711 12.2929C5.89464 12.4804 6 12.7348 6 13V14H7C7.26522 14 7.51957 14.1054 7.70711 14.2929C7.89464 14.4804 8 14.7348 8 15C8 15.2652 7.89464 15.5196 7.70711 15.7071C7.51957 15.8946 7.26522 16 7 16H6V17C6 17.2652 5.89464 17.5196 5.70711 17.7071C5.51957 17.8946 5.26522 18 5 18C4.73478 18 4.48043 17.8946 4.29289 17.7071C4.10536 17.5196 4 17.2652 4 17V16H3C2.73478 16 2.48043 15.8946 2.29289 15.7071C2.10536 15.5196 2 15.2652 2 15C2 14.7348 2.10536 14.4804 2.29289 14.2929C2.48043 14.1054 2.73478 14 3 14H4V13C4 12.7348 4.10536 12.4804 4.29289 12.2929C4.48043 12.1054 4.73478 12 5 12ZM12 2C12.2207 1.99993 12.4352 2.07286 12.6101 2.20744C12.785 2.34201 12.9105 2.53066 12.967 2.744L14.146 7.2L17.5 9.134C17.652 9.22177 17.7782 9.34801 17.866 9.50002C17.9538 9.65204 18 9.82447 18 10C18 10.1755 17.9538 10.348 17.866 10.5C17.7782 10.652 17.652 10.7782 17.5 10.866L14.146 12.801L12.966 17.256C12.9094 17.4691 12.7839 17.6576 12.6091 17.792C12.4343 17.9264 12.22 17.9993 11.9995 17.9993C11.779 17.9993 11.5647 17.9264 11.3899 17.792C11.2151 17.6576 11.0896 17.4691 11.033 17.256L9.854 12.8L6.5 10.866C6.34799 10.7782 6.22177 10.652 6.13401 10.5C6.04625 10.348 6.00004 10.1755 6.00004 10C6.00004 9.82447 6.04625 9.65204 6.13401 9.50002C6.22177 9.34801 6.34799 9.22177 6.5 9.134L9.854 7.199L11.034 2.744C11.0905 2.53083 11.2158 2.3423 11.3905 2.20774C11.5652 2.07318 11.7795 2.00015 12 2Z" fill="#111928"/>
</svg>
