<svg width="20" height="20" viewBox="0 0 20 20" fill="none" xmlns="http://www.w3.org/2000/svg">
<path fill-rule="evenodd" clip-rule="evenodd" d="M5.05008 3.63605C5.23755 3.82358 5.34286 4.07788 5.34286 4.34305C5.34286 4.60821 5.23755 4.86252 5.05008 5.05005C4.39999 5.70007 3.88431 6.47177 3.53248 7.3211C3.18066 8.17042 2.99957 9.08074 2.99957 10C2.99957 10.9194 3.18066 11.8297 3.53248 12.679C3.88431 13.5283 4.39999 14.3 5.05008 14.95C5.14559 15.0423 5.22177 15.1526 5.27418 15.2746C5.32659 15.3966 5.35417 15.5279 5.35533 15.6606C5.35648 15.7934 5.33118 15.9251 5.2809 16.048C5.23062 16.1709 5.15637 16.2825 5.06247 16.3764C4.96858 16.4703 4.85693 16.5446 4.73403 16.5949C4.61114 16.6452 4.47946 16.6705 4.34668 16.6693C4.2139 16.6681 4.08268 16.6406 3.96067 16.5882C3.83867 16.5357 3.72832 16.4596 3.63608 16.364C2.80034 15.5283 2.13739 14.5362 1.68509 13.4442C1.2328 12.3523 1 11.182 1 10C1 8.81814 1.2328 7.64781 1.68509 6.55587C2.13739 5.46393 2.80034 4.47178 3.63608 3.63605C3.82361 3.44858 4.07791 3.34326 4.34308 3.34326C4.60824 3.34326 4.86255 3.44858 5.05008 3.63605ZM14.9501 3.63605C15.1376 3.44858 15.3919 3.34326 15.6571 3.34326C15.9222 3.34326 16.1766 3.44858 16.3641 3.63605C17.1998 4.47178 17.8628 5.46393 18.3151 6.55587C18.7674 7.64781 19.0002 8.81814 19.0002 10C19.0002 11.182 18.7674 12.3523 18.3151 13.4442C17.8628 14.5362 17.1998 15.5283 16.3641 16.364C16.2718 16.4596 16.1615 16.5357 16.0395 16.5882C15.9175 16.6406 15.7863 16.6681 15.6535 16.6693C15.5207 16.6705 15.389 16.6452 15.2661 16.5949C15.1432 16.5446 15.0316 16.4703 14.9377 16.3764C14.8438 16.2825 14.7695 16.1709 14.7193 16.048C14.669 15.9251 14.6437 15.7934 14.6448 15.6606C14.646 15.5279 14.6736 15.3966 14.726 15.2746C14.7784 15.1526 14.8546 15.0423 14.9501 14.95C15.6002 14.3 16.1158 13.5283 16.4677 12.679C16.8195 11.8297 17.0006 10.9194 17.0006 10C17.0006 9.08074 16.8195 8.17042 16.4677 7.3211C16.1158 6.47177 15.6002 5.70007 14.9501 5.05005C14.7626 4.86252 14.6573 4.60821 14.6573 4.34305C14.6573 4.07788 14.7626 3.82358 14.9501 3.63605ZM7.87908 6.46405C8.06655 6.65158 8.17186 6.90588 8.17186 7.17105C8.17186 7.43621 8.06655 7.69052 7.87908 7.87805C7.60045 8.15663 7.37943 8.48737 7.22863 8.85138C7.07783 9.21539 7.00022 9.60554 7.00022 9.99955C7.00022 10.3936 7.07783 10.7837 7.22863 11.1477C7.37943 11.5117 7.60045 11.8425 7.87908 12.121C7.97192 12.214 8.04556 12.3242 8.09578 12.4456C8.146 12.567 8.17183 12.6971 8.17178 12.8284C8.17173 12.9598 8.14582 13.0898 8.09551 13.2111C8.0452 13.3325 7.97149 13.4427 7.87858 13.5355C7.78567 13.6284 7.67538 13.702 7.55401 13.7523C7.43264 13.8025 7.30257 13.8283 7.17122 13.8283C7.03988 13.8282 6.90982 13.8023 6.78849 13.752C6.66716 13.7017 6.55692 13.628 6.46408 13.535C5.52672 12.5974 5.00015 11.3259 5.00015 10C5.00015 8.67423 5.52672 7.40269 6.46408 6.46505C6.55695 6.37207 6.66724 6.29831 6.78864 6.24799C6.91004 6.19766 7.04016 6.17176 7.17158 6.17176C7.30299 6.17176 7.43312 6.19766 7.55452 6.24799C7.67592 6.29831 7.7862 6.37207 7.87908 6.46505V6.46405ZM12.1211 6.46405C12.214 6.37107 12.3242 6.29731 12.4456 6.24699C12.567 6.19666 12.6972 6.17076 12.8286 6.17076C12.96 6.17076 13.0901 6.19666 13.2115 6.24699C13.3329 6.29731 13.4432 6.37107 13.5361 6.46405C14.0005 6.92836 14.3689 7.47961 14.6203 8.08633C14.8716 8.69304 15.001 9.34333 15.001 10C15.001 10.6568 14.8716 11.3071 14.6203 11.9138C14.3689 12.5205 14.0005 13.0717 13.5361 13.536C13.3484 13.7237 13.0939 13.8291 12.8286 13.8291C12.5632 13.8291 12.3087 13.7237 12.1211 13.536C11.9334 13.3484 11.828 13.0939 11.828 12.8285C11.828 12.5632 11.9334 12.3087 12.1211 12.121C12.6835 11.5585 12.9994 10.7955 12.9994 10C12.9994 9.20456 12.6835 8.44163 12.1211 7.87905C12.0281 7.78618 11.9543 7.67589 11.904 7.55449C11.8537 7.43309 11.8278 7.30296 11.8278 7.17155C11.8278 7.04013 11.8537 6.91001 11.904 6.78861C11.9543 6.66721 12.0281 6.55692 12.1211 6.46405ZM10.0001 9.00005C10.2653 9.00005 10.5196 9.10541 10.7072 9.29294C10.8947 9.48048 11.0001 9.73483 11.0001 10V10.01C11.0001 10.2753 10.8947 10.5296 10.7072 10.7172C10.5196 10.9047 10.2653 11.01 10.0001 11.01C9.73486 11.01 9.48051 10.9047 9.29297 10.7172C9.10544 10.5296 9.00008 10.2753 9.00008 10.01V10C9.00008 9.73483 9.10544 9.48048 9.29297 9.29294C9.48051 9.10541 9.73486 9.00005 10.0001 9.00005Z" fill="#111928"/>
</svg>
