<svg width="20" height="20" viewBox="0 0 20 20" fill="none" xmlns="http://www.w3.org/2000/svg">
<path d="M3.70691 2.29304C3.51831 2.11088 3.2657 2.01009 3.00351 2.01237C2.74131 2.01465 2.4905 2.11981 2.30509 2.30522C2.11968 2.49063 2.01451 2.74144 2.01223 3.00364C2.00996 3.26584 2.11075 3.51844 2.29291 3.70704L9.21391 10.629C9.26391 10.691 9.31891 10.747 9.38191 10.796L16.2919 17.707C16.3848 17.8 16.495 17.8737 16.6163 17.924C16.7377 17.9743 16.8677 18.0002 16.9991 18.0002C17.1304 18.0003 17.2605 17.9745 17.3818 17.9242C17.5032 17.874 17.6135 17.8004 17.7064 17.7075C17.7993 17.6147 17.873 17.5045 17.9233 17.3831C17.9736 17.2618 17.9996 17.1317 17.9996 17.0004C17.9997 16.869 17.9738 16.739 17.9236 16.6176C17.8734 16.4962 17.7998 16.386 17.7069 16.293L17.0319 15.618C18.4136 13.8882 19.1093 11.7099 18.9861 9.49947C18.8628 7.28903 17.9293 5.20154 16.3639 3.63604C16.2717 3.54053 16.1613 3.46435 16.0393 3.41194C15.9173 3.35953 15.7861 3.33194 15.6533 3.33079C15.5205 3.32964 15.3888 3.35494 15.266 3.40522C15.1431 3.4555 15.0314 3.52975 14.9375 3.62365C14.8436 3.71754 14.7694 3.82919 14.7191 3.95209C14.6688 4.07498 14.6435 4.20666 14.6447 4.33944C14.6458 4.47222 14.6734 4.60344 14.7258 4.72545C14.7782 4.84745 14.8544 4.95779 14.9499 5.05004C16.1402 6.24049 16.8618 7.81995 16.9825 9.49909C17.1031 11.1782 16.6148 12.8446 15.6069 14.193L14.1719 12.758C14.8074 11.7963 15.0911 10.6446 14.9752 9.49773C14.8594 8.35086 14.3509 7.27922 13.5359 6.46404C13.3481 6.27627 13.0935 6.17078 12.8279 6.17078C12.5624 6.17078 12.3077 6.27627 12.1199 6.46404C11.9321 6.65181 11.8266 6.90649 11.8266 7.17204C11.8266 7.43759 11.9321 7.69227 12.1199 7.88004C13.0439 8.80304 13.2399 10.18 12.7069 11.295L10.7149 9.30304C10.709 9.29696 10.703 9.29096 10.6969 9.28504L3.70691 2.29404V2.29304ZM3.23791 8.18704C3.30633 7.93071 3.27013 7.65769 3.13726 7.42806C3.00439 7.19842 2.78574 7.03097 2.52941 6.96254C2.27308 6.89412 2.00006 6.93032 1.77042 7.06319C1.54078 7.19606 1.37333 7.41471 1.30491 7.67104C0.504908 10.671 1.27991 14.007 3.63591 16.364C3.72882 16.4569 3.83911 16.5305 3.96047 16.5807C4.08184 16.631 4.21191 16.6568 4.34326 16.6567C4.47461 16.6567 4.60466 16.6308 4.726 16.5805C4.84733 16.5302 4.95756 16.4565 5.05041 16.3635C5.14325 16.2706 5.21689 16.1603 5.26711 16.039C5.31733 15.9176 5.34316 15.7875 5.34311 15.6562C5.34306 15.5248 5.31715 15.3948 5.26684 15.2735C5.21653 15.1521 5.14282 15.0419 5.04991 14.949C4.18065 14.0803 3.55553 12.998 3.23744 11.8109C2.91935 10.6239 2.91951 9.37401 3.23791 8.18704ZM7.39991 11.5C7.33739 11.3805 7.25135 11.2749 7.14696 11.1895C7.04256 11.1041 6.92197 11.0407 6.79244 11.0032C6.66292 10.9656 6.52713 10.9546 6.39324 10.9709C6.25936 10.9871 6.13014 11.0303 6.01338 11.0978C5.89661 11.1653 5.79471 11.2557 5.71379 11.3636C5.63288 11.4715 5.57462 11.5947 5.54254 11.7257C5.51045 11.8567 5.50519 11.9928 5.52708 12.1259C5.54897 12.2589 5.59755 12.3862 5.66991 12.5C5.88391 12.871 6.14991 13.22 6.46491 13.535C6.65351 13.7172 6.90611 13.818 7.16831 13.8157C7.43051 13.8134 7.68132 13.7083 7.86673 13.5229C8.05213 13.3375 8.1573 13.0866 8.15958 12.8244C8.16186 12.5622 8.06107 12.3096 7.87891 12.121C7.68791 11.93 7.52891 11.721 7.40091 11.499L7.39991 11.5Z" fill="#111928"/>
</svg>
