<svg width="20" height="20" viewBox="0 0 20 20" fill="none" xmlns="http://www.w3.org/2000/svg">
<path fill-rule="evenodd" clip-rule="evenodd" d="M18 10C18 12.1217 17.1571 14.1566 15.6569 15.6569C14.1566 17.1571 12.1217 18 10 18C7.87827 18 5.84344 17.1571 4.34315 15.6569C2.84285 14.1566 2 12.1217 2 10C2 7.87827 2.84285 5.84344 4.34315 4.34315C5.84344 2.84285 7.87827 2 10 2C12.1217 2 14.1566 2.84285 15.6569 4.34315C17.1571 5.84344 18 7.87827 18 10ZM16 10C16 10.993 15.759 11.929 15.332 12.754L13.808 11.229C14.0362 10.5227 14.0632 9.76679 13.886 9.046L15.448 7.484C15.802 8.249 16 9.1 16 10ZM10.835 13.913L12.415 15.493C11.654 15.8281 10.8315 16.0007 10 16C9.13118 16.0011 8.27257 15.8127 7.484 15.448L9.046 13.886C9.63267 14.0298 10.2443 14.039 10.835 13.913ZM6.158 11.117C5.96121 10.4394 5.94707 9.72182 6.117 9.037L6.037 9.117L4.507 7.584C4.1718 8.34531 3.99913 9.16817 4 10C4 10.954 4.223 11.856 4.619 12.657L6.159 11.117H6.158ZM7.246 4.667C8.09722 4.22702 9.04179 3.99825 10 4C10.954 4 11.856 4.223 12.657 4.619L11.117 6.159C10.3493 5.93538 9.53214 5.94687 8.771 6.192L7.246 4.668V4.667ZM12 10C12 10.5304 11.7893 11.0391 11.4142 11.4142C11.0391 11.7893 10.5304 12 10 12C9.46957 12 8.96086 11.7893 8.58579 11.4142C8.21071 11.0391 8 10.5304 8 10C8 9.46957 8.21071 8.96086 8.58579 8.58579C8.96086 8.21071 9.46957 8 10 8C10.5304 8 11.0391 8.21071 11.4142 8.58579C11.7893 8.96086 12 9.46957 12 10Z" fill="#111928"/>
</svg>
