<svg width="20" height="20" viewBox="0 0 20 20" fill="none" xmlns="http://www.w3.org/2000/svg">
<path d="M4.99992 12C4.99992 12.2652 5.10528 12.5196 5.29281 12.7071C5.48035 12.8947 5.7347 13 5.99992 13C6.26514 13 6.51949 12.8947 6.70703 12.7071C6.89456 12.5196 6.99992 12.2652 6.99992 12V6.41403L8.29292 7.70703C8.48152 7.88919 8.73412 7.98998 8.99632 7.9877C9.25852 7.98543 9.50933 7.88026 9.69474 7.69485C9.88015 7.50944 9.98531 7.25863 9.98759 6.99643C9.98987 6.73424 9.88908 6.48163 9.70692 6.29303L6.70692 3.29303C6.51939 3.10556 6.26508 3.00024 5.99992 3.00024C5.73475 3.00024 5.48045 3.10556 5.29292 3.29303L2.29292 6.29303C2.11076 6.48163 2.00997 6.73424 2.01224 6.99643C2.01452 7.25863 2.11969 7.50944 2.3051 7.69485C2.49051 7.88026 2.74132 7.98543 3.00352 7.9877C3.26571 7.98998 3.51832 7.88919 3.70692 7.70703L4.99992 6.41403V12ZM14.9999 8.00003C14.9999 7.73481 14.8946 7.48046 14.707 7.29292C14.5195 7.10539 14.2651 7.00003 13.9999 7.00003C13.7347 7.00003 13.4803 7.10539 13.2928 7.29292C13.1053 7.48046 12.9999 7.73481 12.9999 8.00003V13.586L11.7069 12.293C11.5183 12.1109 11.2657 12.0101 11.0035 12.0124C10.7413 12.0146 10.4905 12.1198 10.3051 12.3052C10.1197 12.4906 10.0145 12.7414 10.0122 13.0036C10.01 13.2658 10.1108 13.5184 10.2929 13.707L13.2929 16.707C13.4804 16.8945 13.7348 16.9998 13.9999 16.9998C14.2651 16.9998 14.5194 16.8945 14.7069 16.707L17.7069 13.707C17.8891 13.5184 17.9899 13.2658 17.9876 13.0036C17.9853 12.7414 17.8801 12.4906 17.6947 12.3052C17.5093 12.1198 17.2585 12.0146 16.9963 12.0124C16.7341 12.0101 16.4815 12.1109 16.2929 12.293L14.9999 13.586V8.00003Z" fill="#111928"/>
</svg>
