<svg width="20" height="20" viewBox="0 0 20 20" fill="none" xmlns="http://www.w3.org/2000/svg">
<path fill-rule="evenodd" clip-rule="evenodd" d="M17.707 9.293C17.8945 9.48053 17.9998 9.73484 17.9998 10C17.9998 10.2652 17.8945 10.5195 17.707 10.707L10.707 17.707C10.5195 17.8945 10.2652 17.9998 10 17.9998C9.73484 17.9998 9.48053 17.8945 9.293 17.707L2.293 10.707C2.2 10.6143 2.12624 10.5041 2.07596 10.3827C2.02568 10.2614 1.99986 10.1313 2 10V5C2 4.20435 2.31607 3.44129 2.87868 2.87868C3.44129 2.31607 4.20435 2 5 2H10C10.256 2 10.512 2.098 10.707 2.293L17.707 9.293ZM5 6C5.26522 6 5.51957 5.89464 5.70711 5.70711C5.89464 5.51957 6 5.26522 6 5C6 4.73478 5.89464 4.48043 5.70711 4.29289C5.51957 4.10536 5.26522 4 5 4C4.73478 4 4.48043 4.10536 4.29289 4.29289C4.10536 4.48043 4 4.73478 4 5C4 5.26522 4.10536 5.51957 4.29289 5.70711C4.48043 5.89464 4.73478 6 5 6Z" fill="#111928"/>
</svg>
