<svg width="20" height="20" viewBox="0 0 20 20" fill="none" xmlns="http://www.w3.org/2000/svg">
<path d="M3 4C3 3.73478 3.10536 3.48043 3.29289 3.29289C3.48043 3.10536 3.73478 3 4 3H16C16.2652 3 16.5196 3.10536 16.7071 3.29289C16.8946 3.48043 17 3.73478 17 4V6C17 6.26522 16.8946 6.51957 16.7071 6.70711C16.5196 6.89464 16.2652 7 16 7H4C3.73478 7 3.48043 6.89464 3.29289 6.70711C3.10536 6.51957 3 6.26522 3 6V4ZM3 10C3 9.73478 3.10536 9.48043 3.29289 9.29289C3.48043 9.10536 3.73478 9 4 9H10C10.2652 9 10.5196 9.10536 10.7071 9.29289C10.8946 9.48043 11 9.73478 11 10V16C11 16.2652 10.8946 16.5196 10.7071 16.7071C10.5196 16.8946 10.2652 17 10 17H4C3.73478 17 3.48043 16.8946 3.29289 16.7071C3.10536 16.5196 3 16.2652 3 16V10ZM14 9C13.7348 9 13.4804 9.10536 13.2929 9.29289C13.1054 9.48043 13 9.73478 13 10V16C13 16.2652 13.1054 16.5196 13.2929 16.7071C13.4804 16.8946 13.7348 17 14 17H16C16.2652 17 16.5196 16.8946 16.7071 16.7071C16.8946 16.5196 17 16.2652 17 16V10C17 9.73478 16.8946 9.48043 16.7071 9.29289C16.5196 9.10536 16.2652 9 16 9H14Z" fill="#111928"/>
</svg>
