<svg width="20" height="20" viewBox="0 0 20 20" fill="none" xmlns="http://www.w3.org/2000/svg">
<path fill-rule="evenodd" clip-rule="evenodd" d="M2 5C2 4.46957 2.21071 3.96086 2.58579 3.58579C2.96086 3.21071 3.46957 3 4 3H16C16.5304 3 17.0391 3.21071 17.4142 3.58579C17.7893 3.96086 18 4.46957 18 5V15C18 15.5304 17.7893 16.0391 17.4142 16.4142C17.0391 16.7893 16.5304 17 16 17H4C3.46957 17 2.96086 16.7893 2.58579 16.4142C2.21071 16.0391 2 15.5304 2 15V5ZM5.293 6.293C5.48053 6.10553 5.73484 6.00021 6 6.00021C6.26516 6.00021 6.51947 6.10553 6.707 6.293L9.707 9.293C9.89447 9.48053 9.99979 9.73484 9.99979 10C9.99979 10.2652 9.89447 10.5195 9.707 10.707L6.707 13.707C6.5184 13.8892 6.2658 13.99 6.0036 13.9877C5.7414 13.9854 5.49059 13.8802 5.30518 13.6948C5.11977 13.5094 5.0146 13.2586 5.01233 12.9964C5.01005 12.7342 5.11084 12.4816 5.293 12.293L7.586 10L5.293 7.707C5.10553 7.51947 5.00021 7.26516 5.00021 7C5.00021 6.73484 5.10553 6.48053 5.293 6.293ZM11 12C10.7348 12 10.4804 12.1054 10.2929 12.2929C10.1054 12.4804 10 12.7348 10 13C10 13.2652 10.1054 13.5196 10.2929 13.7071C10.4804 13.8946 10.7348 14 11 14H14C14.2652 14 14.5196 13.8946 14.7071 13.7071C14.8946 13.5196 15 13.2652 15 13C15 12.7348 14.8946 12.4804 14.7071 12.2929C14.5196 12.1054 14.2652 12 14 12H11Z" fill="#111928"/>
</svg>
