<svg width="20" height="20" viewBox="0 0 20 20" fill="none" xmlns="http://www.w3.org/2000/svg">
<path fill-rule="evenodd" clip-rule="evenodd" d="M7 2C7.26522 2 7.51957 2.10536 7.70711 2.29289C7.89464 2.48043 8 2.73478 8 3V4H11C11.2652 4 11.5196 4.10536 11.7071 4.29289C11.8946 4.48043 12 4.73478 12 5C12 5.26522 11.8946 5.51957 11.7071 5.70711C11.5196 5.89464 11.2652 6 11 6H9.578C9.22147 7.66377 8.64155 9.27168 7.854 10.78C8.144 11.134 8.45 11.476 8.768 11.806C8.8592 11.9006 8.93089 12.0121 8.97897 12.1344C9.02704 12.2567 9.05057 12.3872 9.0482 12.5185C9.04583 12.6499 9.01762 12.7795 8.96517 12.8999C8.91271 13.0204 8.83705 13.1293 8.7425 13.2205C8.64795 13.3117 8.53636 13.3834 8.4141 13.4315C8.29185 13.4795 8.16132 13.5031 8.02997 13.5007C7.89862 13.4983 7.76902 13.4701 7.64858 13.4177C7.52814 13.3652 7.4192 13.2896 7.328 13.195C7.14 12.999 6.955 12.799 6.774 12.595C5.89016 13.9082 4.84649 15.1064 3.667 16.162C3.46898 16.336 3.21026 16.4248 2.94712 16.409C2.68398 16.3933 2.43771 16.2742 2.26188 16.0778C2.08604 15.8814 1.99487 15.6236 2.00819 15.3603C2.02151 15.097 2.13824 14.8496 2.333 14.672C3.54927 13.5835 4.60331 12.3264 5.463 10.939C4.90442 10.1468 4.4073 9.31306 3.976 8.445C3.91271 8.32698 3.87377 8.19746 3.86149 8.0641C3.84921 7.93075 3.86384 7.79629 3.90451 7.6687C3.94518 7.54111 4.01106 7.42299 4.09825 7.32134C4.18544 7.2197 4.29215 7.1366 4.41207 7.07698C4.53198 7.01735 4.66264 6.98243 4.79631 6.97426C4.92998 6.9661 5.06392 6.98486 5.1902 7.02945C5.31648 7.07403 5.43251 7.14352 5.53142 7.2338C5.63033 7.32408 5.7101 7.43331 5.766 7.555C6 8.025 6.255 8.483 6.53 8.927C6.947 7.993 7.282 7.014 7.527 6H3C2.73478 6 2.48043 5.89464 2.29289 5.70711C2.10536 5.51957 2 5.26522 2 5C2 4.73478 2.10536 4.48043 2.29289 4.29289C2.48043 4.10536 2.73478 4 3 4H6V3C6 2.73478 6.10536 2.48043 6.29289 2.29289C6.48043 2.10536 6.73478 2 7 2ZM13 8C13.1857 8.0001 13.3676 8.05188 13.5255 8.14955C13.6834 8.24722 13.811 8.38692 13.894 8.553L16.885 14.535C16.892 14.5472 16.8986 14.5595 16.905 14.572L17.895 16.552C18.0137 16.7894 18.0332 17.0642 17.9493 17.3159C17.8654 17.5677 17.6849 17.7758 17.4475 17.8945C17.2101 18.0132 16.9353 18.0327 16.6836 17.9488C16.4318 17.8649 16.2237 17.6844 16.105 17.447L15.383 16H10.619L9.895 17.447C9.83884 17.5686 9.75883 17.6776 9.65972 17.7677C9.5606 17.8578 9.44441 17.927 9.31803 17.9713C9.19165 18.0156 9.05766 18.0341 8.924 18.0256C8.79035 18.0172 8.65975 17.982 8.53997 17.9221C8.42018 17.8622 8.31365 17.7788 8.22669 17.677C8.13972 17.5751 8.0741 17.4569 8.03372 17.3292C7.99334 17.2015 7.97902 17.067 7.99161 16.9336C8.00419 16.8003 8.04344 16.6709 8.107 16.553L9.097 14.573L9.116 14.535L12.106 8.553C12.189 8.38692 12.3166 8.24722 12.4745 8.14955C12.6324 8.05188 12.8143 8.0001 13 8ZM11.618 14H14.382L13 11.236L11.618 14Z" fill="#111928"/>
</svg>
