<svg width="20" height="20" viewBox="0 0 20 20" fill="none" xmlns="http://www.w3.org/2000/svg">
<path fill-rule="evenodd" clip-rule="evenodd" d="M11.9999 13C11.7347 13 11.4803 13.1054 11.2928 13.2929C11.1053 13.4805 10.9999 13.7348 10.9999 14C10.9999 14.2653 11.1053 14.5196 11.2928 14.7071C11.4803 14.8947 11.7347 15 11.9999 15H16.9999C17.2651 15 17.5195 14.8947 17.707 14.7071C17.8946 14.5196 17.9999 14.2653 17.9999 14V9.00004C17.9999 8.73482 17.8946 8.48047 17.707 8.29293C17.5195 8.1054 17.2651 8.00004 16.9999 8.00004C16.7347 8.00004 16.4803 8.1054 16.2928 8.29293C16.1053 8.48047 15.9999 8.73482 15.9999 9.00004V11.586L11.7069 7.29304C11.5194 7.10557 11.2651 7.00025 10.9999 7.00025C10.7348 7.00025 10.4804 7.10557 10.2929 7.29304L7.99992 9.58604L3.70692 5.29304C3.51832 5.11088 3.26571 5.01009 3.00352 5.01237C2.74132 5.01465 2.49051 5.11981 2.3051 5.30522C2.11969 5.49063 2.01452 5.74144 2.01224 6.00364C2.00997 6.26584 2.11076 6.51844 2.29292 6.70704L7.29292 11.707C7.48045 11.8945 7.73475 11.9998 7.99992 11.9998C8.26508 11.9998 8.51939 11.8945 8.70692 11.707L10.9999 9.41404L14.5859 13H11.9999Z" fill="#111928"/>
</svg>
