<svg width="20" height="20" viewBox="0 0 20 20" fill="none" xmlns="http://www.w3.org/2000/svg">
<path fill-rule="evenodd" clip-rule="evenodd" d="M11.9999 7C11.7347 7 11.4803 6.89464 11.2928 6.70711C11.1053 6.51957 10.9999 6.26522 10.9999 6C10.9999 5.73478 11.1053 5.48043 11.2928 5.29289C11.4803 5.10536 11.7347 5 11.9999 5H16.9999C17.2651 5 17.5195 5.10536 17.707 5.29289C17.8946 5.48043 17.9999 5.73478 17.9999 6V11C17.9999 11.2652 17.8946 11.5196 17.707 11.7071C17.5195 11.8946 17.2651 12 16.9999 12C16.7347 12 16.4803 11.8946 16.2928 11.7071C16.1053 11.5196 15.9999 11.2652 15.9999 11V8.414L11.7069 12.707C11.5194 12.8945 11.2651 12.9998 10.9999 12.9998C10.7348 12.9998 10.4804 12.8945 10.2929 12.707L7.99992 10.414L3.70692 14.707C3.51832 14.8892 3.26571 14.99 3.00352 14.9877C2.74132 14.9854 2.49051 14.8802 2.3051 14.6948C2.11969 14.5094 2.01452 14.2586 2.01224 13.9964C2.00997 13.7342 2.11076 13.4816 2.29292 13.293L7.29292 8.293C7.48045 8.10553 7.73475 8.00021 7.99992 8.00021C8.26508 8.00021 8.51939 8.10553 8.70692 8.293L10.9999 10.586L14.5859 7H11.9999Z" fill="#111928"/>
</svg>
