<svg width="20" height="20" viewBox="0 0 20 20" fill="none" xmlns="http://www.w3.org/2000/svg">
<path d="M8 16.5C8 16.8978 7.84196 17.2794 7.56066 17.5607C7.27936 17.842 6.89782 18 6.5 18C6.10218 18 5.72064 17.842 5.43934 17.5607C5.15804 17.2794 5 16.8978 5 16.5C5 16.1022 5.15804 15.7206 5.43934 15.4393C5.72064 15.158 6.10218 15 6.5 15C6.89782 15 7.27936 15.158 7.56066 15.4393C7.84196 15.7206 8 16.1022 8 16.5ZM15 16.5C15 16.8978 14.842 17.2794 14.5607 17.5607C14.2794 17.842 13.8978 18 13.5 18C13.1022 18 12.7206 17.842 12.4393 17.5607C12.158 17.2794 12 16.8978 12 16.5C12 16.1022 12.158 15.7206 12.4393 15.4393C12.7206 15.158 13.1022 15 13.5 15C13.8978 15 14.2794 15.158 14.5607 15.4393C14.842 15.7206 15 16.1022 15 16.5Z" fill="#111928"/>
<path d="M3 4C2.73478 4 2.48043 4.10536 2.29289 4.29289C2.10536 4.48043 2 4.73478 2 5V15C2 15.2652 2.10536 15.5196 2.29289 15.7071C2.48043 15.8946 2.73478 16 3 16H4.05C4.16476 15.4349 4.47136 14.9268 4.91787 14.5618C5.36438 14.1969 5.92332 13.9975 6.5 13.9975C7.07668 13.9975 7.63562 14.1969 8.08213 14.5618C8.52864 14.9268 8.83524 15.4349 8.95 16H10C10.2652 16 10.5196 15.8946 10.7071 15.7071C10.8946 15.5196 11 15.2652 11 15V5C11 4.73478 10.8946 4.48043 10.7071 4.29289C10.5196 4.10536 10.2652 4 10 4H3ZM14 7C13.7348 7 13.4804 7.10536 13.2929 7.29289C13.1054 7.48043 13 7.73478 13 8V14.05C13.3217 13.9843 13.6533 13.9826 13.9757 14.045C14.2981 14.1074 14.605 14.2328 14.879 14.4139C15.1529 14.5949 15.3885 14.8282 15.5723 15.1004C15.756 15.3725 15.8844 15.6782 15.95 16H17C17.2652 16 17.5196 15.8946 17.7071 15.7071C17.8946 15.5196 18 15.2652 18 15V10C17.9999 9.73481 17.8946 9.48049 17.707 9.293L15.707 7.293C15.5195 7.10545 15.2652 7.00006 15 7H14Z" fill="#111928"/>
</svg>
