<svg width="20" height="20" viewBox="0 0 20 20" fill="none" xmlns="http://www.w3.org/2000/svg">
<path fill-rule="evenodd" clip-rule="evenodd" d="M4.64901 3.08399C4.89151 3.19055 5.08182 3.38896 5.17818 3.63569C5.27455 3.88241 5.26909 4.15728 5.16301 4.39999C4.39273 6.1663 3.99674 8.07303 4.00001 9.99999C4.00001 11.993 4.41601 13.886 5.16401 15.6C5.26065 15.8413 5.25957 16.1107 5.16099 16.3511C5.06241 16.5916 4.87408 16.7843 4.6359 16.8883C4.39773 16.9923 4.12841 16.9995 3.88502 16.9083C3.64163 16.8172 3.44329 16.6349 3.33201 16.4C2.45091 14.3815 1.99739 12.2024 2.00001 9.99999C2.00001 7.72599 2.47501 5.55999 3.33201 3.59999C3.38459 3.47962 3.46036 3.37078 3.55501 3.2797C3.64965 3.18862 3.76131 3.11708 3.88362 3.06916C4.00592 3.02124 4.13646 2.99789 4.26779 3.00043C4.39912 3.00298 4.52866 3.03137 4.64901 3.08399ZM12.96 6.99999C12.5102 7.00009 12.0662 7.10134 11.6608 7.29625C11.2554 7.49116 10.899 7.77473 10.618 8.12599L10.29 8.53599L10.179 8.25699C10.0306 7.88605 9.77447 7.56807 9.44366 7.34403C9.11286 7.11999 8.72254 7.00016 8.32301 6.99999H8.00001C7.7348 6.99999 7.48044 7.10535 7.2929 7.29288C7.10537 7.48042 7.00001 7.73477 7.00001 7.99999C7.00001 8.26521 7.10537 8.51956 7.2929 8.7071C7.48044 8.89463 7.7348 8.99999 8.00001 8.99999H8.32301L8.85501 10.33L7.82001 11.625C7.72628 11.7421 7.60742 11.8365 7.47223 11.9015C7.33704 11.9664 7.18898 12 7.03901 12H7.00001C6.7348 12 6.48044 12.1053 6.2929 12.2929C6.10537 12.4804 6.00001 12.7348 6.00001 13C6.00001 13.2652 6.10537 13.5196 6.2929 13.7071C6.48044 13.8946 6.7348 14 7.00001 14H7.03901C7.48883 13.9999 7.93286 13.8986 8.33826 13.7037C8.74365 13.5088 9.10003 13.2252 9.38101 12.874L9.70901 12.464L9.82001 12.743C9.9685 13.1141 10.2248 13.4322 10.5558 13.6562C10.8868 13.8803 11.2773 14 11.677 14H12C12.2652 14 12.5196 13.8946 12.7071 13.7071C12.8947 13.5196 13 13.2652 13 13C13 12.7348 12.8947 12.4804 12.7071 12.2929C12.5196 12.1053 12.2652 12 12 12H11.677L11.145 10.67L12.18 9.37499C12.2737 9.25792 12.3926 9.16343 12.5278 9.09852C12.663 9.03361 12.811 8.99993 12.961 8.99999H13C13.2652 8.99999 13.5196 8.89463 13.7071 8.7071C13.8947 8.51956 14 8.26521 14 7.99999C14 7.73477 13.8947 7.48042 13.7071 7.29288C13.5196 7.10535 13.2652 6.99999 13 6.99999H12.961H12.96ZM14.834 4.39999C14.7296 4.1572 14.7255 3.88293 14.8227 3.63714C14.9198 3.39135 15.1104 3.19403 15.3526 3.0883C15.5949 2.98258 15.8691 2.97706 16.1154 3.07294C16.3617 3.16882 16.56 3.35831 16.667 3.59999C17.5485 5.61841 18.0023 7.7975 18 9.99999C18 12.274 17.525 14.44 16.668 16.4C16.6182 16.5243 16.544 16.6373 16.4497 16.7324C16.3554 16.8275 16.2429 16.9026 16.119 16.9534C15.9951 17.0042 15.8623 17.0296 15.7284 17.0281C15.5945 17.0266 15.4622 16.9982 15.3395 16.9446C15.2168 16.891 15.1061 16.8133 15.014 16.7161C14.9219 16.6189 14.8502 16.5042 14.8032 16.3788C14.7563 16.2534 14.735 16.1199 14.7406 15.9861C14.7462 15.8523 14.7787 15.721 14.836 15.6C15.6067 13.8338 16.003 11.927 16 9.99999C16 8.00699 15.584 6.11399 14.835 4.39999H14.834Z" fill="#111928"/>
</svg>
