<svg width="20" height="20" viewBox="0 0 20 20" fill="none" xmlns="http://www.w3.org/2000/svg">
<path d="M2 6C2 5.46957 2.21071 4.96086 2.58579 4.58579C2.96086 4.21071 3.46957 4 4 4H10C10.5304 4 11.0391 4.21071 11.4142 4.58579C11.7893 4.96086 12 5.46957 12 6V14C12 14.5304 11.7893 15.0391 11.4142 15.4142C11.0391 15.7893 10.5304 16 10 16H4C3.46957 16 2.96086 15.7893 2.58579 15.4142C2.21071 15.0391 2 14.5304 2 14V6ZM14.553 7.106C14.3869 7.18899 14.2472 7.31658 14.1496 7.47447C14.0519 7.63237 14.0001 7.81434 14 8V12C14.0001 12.1857 14.0519 12.3676 14.1496 12.5255C14.2472 12.6834 14.3869 12.811 14.553 12.894L16.553 13.894C16.7054 13.9702 16.8748 14.0061 17.045 13.9985C17.2152 13.9908 17.3806 13.9398 17.5256 13.8502C17.6706 13.7606 17.7902 13.6355 17.8733 13.4867C17.9563 13.3379 17.9999 13.1704 18 13V7C17.9999 6.82961 17.9563 6.66207 17.8733 6.51327C17.7902 6.36448 17.6706 6.23936 17.5256 6.14981C17.3806 6.06025 17.2152 6.00921 17.045 6.00155C16.8748 5.99388 16.7054 6.02983 16.553 6.106L14.553 7.106Z" fill="#111928"/>
</svg>
