<svg width="20" height="20" viewBox="0 0 20 20" fill="none" xmlns="http://www.w3.org/2000/svg">
<path d="M5 3C4.46957 3 3.96086 3.21071 3.58579 3.58579C3.21071 3.96086 3 4.46957 3 5V7C3 7.53043 3.21071 8.03914 3.58579 8.41421C3.96086 8.78929 4.46957 9 5 9H7C7.53043 9 8.03914 8.78929 8.41421 8.41421C8.78929 8.03914 9 7.53043 9 7V5C9 4.46957 8.78929 3.96086 8.41421 3.58579C8.03914 3.21071 7.53043 3 7 3H5ZM5 11C4.46957 11 3.96086 11.2107 3.58579 11.5858C3.21071 11.9609 3 12.4696 3 13V15C3 15.5304 3.21071 16.0391 3.58579 16.4142C3.96086 16.7893 4.46957 17 5 17H7C7.53043 17 8.03914 16.7893 8.41421 16.4142C8.78929 16.0391 9 15.5304 9 15V13C9 12.4696 8.78929 11.9609 8.41421 11.5858C8.03914 11.2107 7.53043 11 7 11H5ZM11 5C11 4.46957 11.2107 3.96086 11.5858 3.58579C11.9609 3.21071 12.4696 3 13 3H15C15.5304 3 16.0391 3.21071 16.4142 3.58579C16.7893 3.96086 17 4.46957 17 5V7C17 7.53043 16.7893 8.03914 16.4142 8.41421C16.0391 8.78929 15.5304 9 15 9H13C12.4696 9 11.9609 8.78929 11.5858 8.41421C11.2107 8.03914 11 7.53043 11 7V5ZM14 11C14.2652 11 14.5196 11.1054 14.7071 11.2929C14.8946 11.4804 15 11.7348 15 12V13H16C16.2652 13 16.5196 13.1054 16.7071 13.2929C16.8946 13.4804 17 13.7348 17 14C17 14.2652 16.8946 14.5196 16.7071 14.7071C16.5196 14.8946 16.2652 15 16 15H15V16C15 16.2652 14.8946 16.5196 14.7071 16.7071C14.5196 16.8946 14.2652 17 14 17C13.7348 17 13.4804 16.8946 13.2929 16.7071C13.1054 16.5196 13 16.2652 13 16V15H12C11.7348 15 11.4804 14.8946 11.2929 14.7071C11.1054 14.5196 11 14.2652 11 14C11 13.7348 11.1054 13.4804 11.2929 13.2929C11.4804 13.1054 11.7348 13 12 13H13V12C13 11.7348 13.1054 11.4804 13.2929 11.2929C13.4804 11.1054 13.7348 11 14 11Z" fill="#111928"/>
</svg>
