<svg width="20" height="20" viewBox="0 0 20 20" fill="none" xmlns="http://www.w3.org/2000/svg">
<path fill-rule="evenodd" clip-rule="evenodd" d="M9.383 3.07602C9.56569 3.15176 9.72181 3.27997 9.83163 3.44444C9.94146 3.60891 10 3.80225 10 4.00002V16C9.99996 16.1978 9.94129 16.3911 9.8314 16.5555C9.72152 16.7199 9.56535 16.848 9.38265 16.9237C9.19995 16.9994 8.99892 17.0192 8.80497 16.9806C8.61102 16.942 8.43285 16.8468 8.293 16.707L4.586 13H2C1.73478 13 1.48043 12.8947 1.29289 12.7071C1.10536 12.5196 1 12.2652 1 12V8.00002C1 7.7348 1.10536 7.48045 1.29289 7.29291C1.48043 7.10537 1.73478 7.00002 2 7.00002H4.586L8.293 3.29302C8.43285 3.15308 8.61105 3.05778 8.80508 3.01915C8.9991 2.98052 9.20023 3.00031 9.383 3.07602ZM14.657 2.92902C14.8445 2.74155 15.0988 2.63623 15.364 2.63623C15.6292 2.63623 15.8835 2.74155 16.071 2.92902C17.0008 3.85667 17.7382 4.95887 18.2409 6.17233C18.7435 7.38578 19.0015 8.68658 19 10C19.0015 11.3135 18.7435 12.6143 18.2409 13.8277C17.7382 15.0412 17.0008 16.1434 16.071 17.071C15.8824 17.2532 15.6298 17.354 15.3676 17.3517C15.1054 17.3494 14.8546 17.2442 14.6692 17.0588C14.4838 16.8734 14.3786 16.6226 14.3763 16.3604C14.374 16.0982 14.4748 15.8456 14.657 15.657C15.4011 14.9151 15.9912 14.0333 16.3933 13.0625C16.7955 12.0916 17.0016 11.0508 17 10C17 7.79002 16.106 5.79202 14.657 4.34302C14.4695 4.15549 14.3642 3.90118 14.3642 3.63602C14.3642 3.37085 14.4695 3.11654 14.657 2.92902ZM11.828 5.75702C11.9209 5.66404 12.0312 5.59028 12.1526 5.53996C12.274 5.48963 12.4041 5.46373 12.5355 5.46373C12.6669 5.46373 12.797 5.48963 12.9184 5.53996C13.0398 5.59028 13.1501 5.66404 13.243 5.75702C13.8009 6.31368 14.2433 6.97508 14.5448 7.70323C14.8463 8.43137 15.001 9.21191 15 10C15.001 10.7881 14.8463 11.5686 14.5447 12.2968C14.2432 13.0249 13.8008 13.6863 13.243 14.243C13.0554 14.4307 12.8009 14.5361 12.5355 14.5361C12.2701 14.5361 12.0156 14.4307 11.828 14.243C11.6404 14.0554 11.5349 13.8009 11.5349 13.5355C11.5349 13.2702 11.6404 13.0157 11.828 12.828C12.2002 12.4572 12.4953 12.0164 12.6965 11.5311C12.8976 11.0457 13.0008 10.5254 13 10C13.0008 9.47463 12.8977 8.95428 12.6965 8.46893C12.4954 7.98357 12.2002 7.54281 11.828 7.17202C11.735 7.07914 11.6613 6.96885 11.6109 6.84746C11.5606 6.72606 11.5347 6.59593 11.5347 6.46452C11.5347 6.3331 11.5606 6.20297 11.6109 6.08158C11.6613 5.96018 11.735 5.84989 11.828 5.75702Z" fill="#111928"/>
</svg>
