<svg width="20" height="20" viewBox="0 0 20 20" fill="none" xmlns="http://www.w3.org/2000/svg">
<path fill-rule="evenodd" clip-rule="evenodd" d="M17.7781 8.22199C13.4821 3.92599 6.51806 3.92599 2.22206 8.22199C2.03345 8.40415 1.78085 8.50495 1.51865 8.50267C1.25646 8.50039 1.00565 8.39522 0.820237 8.20981C0.634829 8.02441 0.52966 7.77359 0.527382 7.5114C0.525103 7.2492 0.625898 6.9966 0.808056 6.80799C5.88406 1.73099 14.1161 1.73099 19.1921 6.80799C19.3742 6.9966 19.475 7.2492 19.4727 7.5114C19.4704 7.77359 19.3653 8.02441 19.1799 8.20981C18.9945 8.39522 18.7437 8.50039 18.4815 8.50267C18.2193 8.50495 17.9667 8.40415 17.7781 8.22199ZM14.9501 11.05C14.3 10.3999 13.5283 9.88423 12.679 9.5324C11.8297 9.18057 10.9194 8.99949 10.0001 8.99949C9.08074 8.99949 8.17043 9.18057 7.32111 9.5324C6.47178 9.88423 5.70008 10.3999 5.05006 11.05C4.86145 11.2322 4.60885 11.3329 4.34665 11.3307C4.08446 11.3284 3.83365 11.2232 3.64824 11.0378C3.46283 10.8524 3.35766 10.6016 3.35538 10.3394C3.3531 10.0772 3.4539 9.8246 3.63606 9.63599C4.47178 8.80025 5.46394 8.13731 6.55588 7.68501C7.64782 7.23271 8.81815 6.99992 10.0001 6.99992C11.182 6.99992 12.3523 7.23271 13.4442 7.68501C14.5362 8.13731 15.5283 8.80025 16.3641 9.63599C16.5462 9.8246 16.647 10.0772 16.6447 10.3394C16.6425 10.6016 16.5373 10.8524 16.3519 11.0378C16.1665 11.2232 15.9157 11.3284 15.6535 11.3307C15.3913 11.3329 15.1387 11.2322 14.9501 11.05ZM12.1201 13.88C11.5575 13.3176 10.7945 13.0016 9.99905 13.0016C9.20356 13.0016 8.44064 13.3176 7.87806 13.88C7.69041 14.0676 7.43592 14.173 7.17056 14.173C6.90519 14.173 6.6507 14.0676 6.46306 13.88C6.27541 13.6924 6.17 13.4379 6.17 13.1725C6.17 12.9071 6.27541 12.6526 6.46306 12.465C6.92737 12.0006 7.47862 11.6321 8.08533 11.3808C8.69205 11.1294 9.34233 11.0001 9.99905 11.0001C10.6558 11.0001 11.3061 11.1294 11.9128 11.3808C12.5195 11.6321 13.0707 12.0006 13.5351 12.465C13.7227 12.6526 13.8281 12.9071 13.8281 13.1725C13.8281 13.4379 13.7227 13.6924 13.5351 13.88C13.3474 14.0676 13.0929 14.173 12.8276 14.173C12.5622 14.173 12.3077 14.0676 12.1201 13.88ZM9.00006 16C9.00006 15.7348 9.10541 15.4804 9.29295 15.2929C9.48048 15.1054 9.73484 15 10.0001 15H10.0101C10.2753 15 10.5296 15.1054 10.7172 15.2929C10.9047 15.4804 11.0101 15.7348 11.0101 16C11.0101 16.2652 10.9047 16.5196 10.7172 16.7071C10.5296 16.8946 10.2753 17 10.0101 17H10.0001C9.73484 17 9.48048 16.8946 9.29295 16.7071C9.10541 16.5196 9.00006 16.2652 9.00006 16Z" fill="#111928"/>
</svg>
