<svg width="20" height="20" viewBox="0 0 20 20" fill="none" xmlns="http://www.w3.org/2000/svg">
<path fill-rule="evenodd" clip-rule="evenodd" d="M8 4.00003C6.93913 4.00003 5.92172 4.42146 5.17157 5.17161C4.42143 5.92175 4 6.93917 4 8.00003C4 9.0609 4.42143 10.0783 5.17157 10.8285C5.92172 11.5786 6.93913 12 8 12C9.06087 12 10.0783 11.5786 10.8284 10.8285C11.5786 10.0783 12 9.0609 12 8.00003C12 6.93917 11.5786 5.92175 10.8284 5.17161C10.0783 4.42146 9.06087 4.00003 8 4.00003ZM2 8.00003C1.99988 7.05574 2.22264 6.12475 2.65017 5.28278C3.0777 4.4408 3.69792 3.71163 4.4604 3.15456C5.22287 2.59749 6.10606 2.22825 7.03815 2.07687C7.97023 1.92549 8.92488 1.99625 9.82446 2.28338C10.724 2.57052 11.5432 3.06594 12.2152 3.72933C12.8872 4.39272 13.3931 5.20537 13.6919 6.10117C13.9906 6.99697 14.0737 7.95063 13.9343 8.88459C13.795 9.81855 13.4372 10.7064 12.89 11.476L17.707 16.293C17.8892 16.4816 17.99 16.7342 17.9877 16.9964C17.9854 17.2586 17.8802 17.5094 17.6948 17.6949C17.5094 17.8803 17.2586 17.9854 16.9964 17.9877C16.7342 17.99 16.4816 17.8892 16.293 17.707L11.477 12.891C10.5794 13.5293 9.52335 13.9082 8.42468 13.9862C7.326 14.0641 6.22707 13.8381 5.2483 13.333C4.26953 12.8279 3.44869 12.0631 2.87572 11.1224C2.30276 10.1817 1.99979 9.10147 2 8.00003Z" fill="#111928"/>
<path fill-rule="evenodd" clip-rule="evenodd" d="M5 8C5 7.73478 5.10536 7.48043 5.29289 7.29289C5.48043 7.10536 5.73478 7 6 7H10C10.2652 7 10.5196 7.10536 10.7071 7.29289C10.8946 7.48043 11 7.73478 11 8C11 8.26522 10.8946 8.51957 10.7071 8.70711C10.5196 8.89464 10.2652 9 10 9H6C5.73478 9 5.48043 8.89464 5.29289 8.70711C5.10536 8.51957 5 8.26522 5 8Z" fill="#111928"/>
</svg>
