<svg width="28" height="20" viewBox="0 0 28 20" fill="none" xmlns="http://www.w3.org/2000/svg">
<rect width="28" height="20" rx="2" fill="white"/>
<mask id="mask0_267_608" style="mask-type:luminance" maskUnits="userSpaceOnUse" x="0" y="0" width="28" height="20">
<rect width="28" height="20" rx="2" fill="white"/>
</mask>
<g mask="url(#mask0_267_608)">
<rect x="13.3334" width="14.6667" height="20" fill="#1AB11F"/>
<path fill-rule="evenodd" clip-rule="evenodd" d="M0 20H9.33333V0H0V20Z" fill="#262626"/>
<path fill-rule="evenodd" clip-rule="evenodd" d="M9.33337 20H18.6667V0H9.33337V20Z" fill="#DC0D18"/>
<g opacity="0.75">
<path fill-rule="evenodd" clip-rule="evenodd" d="M11.3334 9.33331C11.3334 10.3191 11.8683 11.1799 12.6637 11.6415L11.3334 9.33331ZM15.4349 11.5814C16.1756 11.1077 16.6667 10.2778 16.6667 9.33331L15.4349 11.5814Z" fill="white"/>
<path d="M11.3334 9.33331L11.911 9.00042L10.6667 6.84151V9.33331H11.3334ZM12.6637 11.6415L12.3291 12.2181L14.4871 13.4703L13.2413 11.3086L12.6637 11.6415ZM15.4349 11.5814L14.8502 11.2611L15.7941 12.1431L15.4349 11.5814ZM16.6667 9.33331H17.3334L16.0821 9.01296L16.6667 9.33331ZM10.6667 9.33331C10.6667 10.5664 11.3366 11.6422 12.3291 12.2181L12.9982 11.0648C12.4 10.7177 12 10.0718 12 9.33331H10.6667ZM13.2413 11.3086L11.911 9.00042L10.7558 9.66621L12.0861 11.9744L13.2413 11.3086ZM15.7941 12.1431C16.7183 11.552 17.3334 10.5147 17.3334 9.33331H16C16 10.041 15.633 10.6634 15.0757 11.0198L15.7941 12.1431ZM16.0821 9.01296L14.8502 11.2611L16.0195 11.9018L17.2514 9.65366L16.0821 9.01296Z" fill="white"/>
</g>
<path fill-rule="evenodd" clip-rule="evenodd" d="M14 10.6667C14.7363 10.6667 15.3333 9.77126 15.3333 8.66669C15.3333 7.56212 14.7363 6.66669 14 6.66669C13.2636 6.66669 12.6666 7.56212 12.6666 8.66669C12.6666 9.77126 13.2636 10.6667 14 10.6667Z" fill="white" fill-opacity="0.5"/>
</g>
</svg>
