<svg width="28" height="20" viewBox="0 0 28 20" fill="none" xmlns="http://www.w3.org/2000/svg">
<rect width="28" height="20" rx="2" fill="white"/>
<mask id="mask0_267_638" style="mask-type:luminance" maskUnits="userSpaceOnUse" x="0" y="0" width="28" height="20">
<rect width="28" height="20" rx="2" fill="white"/>
</mask>
<g mask="url(#mask0_267_638)">
<rect width="28" height="20" fill="url(#paint0_linear_267_638)"/>
<g filter="url(#filter0_d_267_638)">
<path fill-rule="evenodd" clip-rule="evenodd" d="M0 20H28V10.6667H0V20Z" fill="#262626"/>
</g>
<g filter="url(#filter1_d_267_638)">
<path fill-rule="evenodd" clip-rule="evenodd" d="M0 10.6667H28V0H0V10.6667Z" fill="#DD2137"/>
</g>
<g filter="url(#filter2_d_267_638)">
<path fill-rule="evenodd" clip-rule="evenodd" d="M16.1977 11.5528C16.3641 11.2611 16.4961 10.9435 16.5871 10.6039C17.1589 8.47006 15.8926 6.27672 13.7587 5.70495C13.403 5.60965 13.0375 5.82071 12.9422 6.17635C12.8469 6.532 13.0579 6.89756 13.4136 6.99285C14.8362 7.37403 15.6804 8.83626 15.2992 10.2588C15.2469 10.4541 15.1742 10.6385 15.084 10.8104L13.0364 9.44532C12.7301 9.24108 12.3162 9.32387 12.1119 9.63022C11.9077 9.93657 11.9905 10.3505 12.2968 10.5547L14.1741 11.8062C13.5627 12.2023 12.7923 12.3479 12.0332 12.1445C11.6776 12.0492 11.312 12.2602 11.2167 12.6159C11.1214 12.9715 11.3325 13.3371 11.6881 13.4324C13.0213 13.7896 14.3776 13.4293 15.3473 12.5884L16.2968 13.2214C16.6032 13.4256 17.0171 13.3428 17.2213 13.0365C17.4256 12.7301 17.3428 12.3162 17.0364 12.112L16.1977 11.5528ZM12.6666 8.66668C13.0348 8.66668 13.3333 8.36821 13.3333 8.00002C13.3333 7.63183 13.0348 7.33335 12.6666 7.33335C12.2984 7.33335 12 7.63183 12 8.00002C12 8.36821 12.2984 8.66668 12.6666 8.66668Z" fill="#F8D84B"/>
</g>
</g>
<defs>
<filter id="filter0_d_267_638" x="0" y="10.6667" width="28" height="9.33331" filterUnits="userSpaceOnUse" color-interpolation-filters="sRGB">
<feFlood flood-opacity="0" result="BackgroundImageFix"/>
<feColorMatrix in="SourceAlpha" type="matrix" values="0 0 0 0 0 0 0 0 0 0 0 0 0 0 0 0 0 0 127 0" result="hardAlpha"/>
<feOffset/>
<feColorMatrix type="matrix" values="0 0 0 0 0 0 0 0 0 0 0 0 0 0 0 0 0 0 0.06 0"/>
<feBlend mode="normal" in2="BackgroundImageFix" result="effect1_dropShadow_267_638"/>
<feBlend mode="normal" in="SourceGraphic" in2="effect1_dropShadow_267_638" result="shape"/>
</filter>
<filter id="filter1_d_267_638" x="0" y="0" width="28" height="10.6667" filterUnits="userSpaceOnUse" color-interpolation-filters="sRGB">
<feFlood flood-opacity="0" result="BackgroundImageFix"/>
<feColorMatrix in="SourceAlpha" type="matrix" values="0 0 0 0 0 0 0 0 0 0 0 0 0 0 0 0 0 0 127 0" result="hardAlpha"/>
<feOffset/>
<feColorMatrix type="matrix" values="0 0 0 0 0 0 0 0 0 0 0 0 0 0 0 0 0 0 0.06 0"/>
<feBlend mode="normal" in2="BackgroundImageFix" result="effect1_dropShadow_267_638"/>
<feBlend mode="normal" in="SourceGraphic" in2="effect1_dropShadow_267_638" result="shape"/>
</filter>
<filter id="filter2_d_267_638" x="11.1938" y="5.68207" width="6.13953" height="8.88757" filterUnits="userSpaceOnUse" color-interpolation-filters="sRGB">
<feFlood flood-opacity="0" result="BackgroundImageFix"/>
<feColorMatrix in="SourceAlpha" type="matrix" values="0 0 0 0 0 0 0 0 0 0 0 0 0 0 0 0 0 0 127 0" result="hardAlpha"/>
<feOffset dy="1"/>
<feColorMatrix type="matrix" values="0 0 0 0 0 0 0 0 0 0 0 0 0 0 0 0 0 0 0.06 0"/>
<feBlend mode="normal" in2="BackgroundImageFix" result="effect1_dropShadow_267_638"/>
<feBlend mode="normal" in="SourceGraphic" in2="effect1_dropShadow_267_638" result="shape"/>
</filter>
<linearGradient id="paint0_linear_267_638" x1="0" y1="0" x2="0" y2="20" gradientUnits="userSpaceOnUse">
<stop stop-color="#FF323E"/>
<stop offset="1" stop-color="#FD0D1B"/>
</linearGradient>
</defs>
</svg>
