<svg width="28" height="20" viewBox="0 0 28 20" fill="none" xmlns="http://www.w3.org/2000/svg">
<rect width="28" height="20" rx="2" fill="white"/>
<mask id="mask0_267_771" style="mask-type:luminance" maskUnits="userSpaceOnUse" x="0" y="0" width="28" height="20">
<rect width="28" height="20" rx="2" fill="white"/>
</mask>
<g mask="url(#mask0_267_771)">
<rect width="28" height="20" fill="#0B36B2"/>
<g filter="url(#filter0_d_267_771)">
<path fill-rule="evenodd" clip-rule="evenodd" d="M22.6666 20V0H8.66663L22.6666 20Z" fill="#FFD045"/>
</g>
<path fill-rule="evenodd" clip-rule="evenodd" d="M17.3333 18.6666L16.3905 18.9428L16.6667 18L16.3905 17.0572L17.3333 17.3333L18.2761 17.0572L18 18L18.2761 18.9428L17.3333 18.6666Z" fill="white"/>
<path fill-rule="evenodd" clip-rule="evenodd" d="M14.6667 14.6667L13.7239 14.9428L14 14L13.7239 13.0572L14.6667 13.3334L15.6095 13.0572L15.3334 14L15.6095 14.9428L14.6667 14.6667Z" fill="white"/>
<path fill-rule="evenodd" clip-rule="evenodd" d="M12 10.6667L11.0572 10.9428L11.3333 10L11.0572 9.05721L12 9.33335L12.9428 9.05721L12.6666 10L12.9428 10.9428L12 10.6667Z" fill="white"/>
<path fill-rule="evenodd" clip-rule="evenodd" d="M9.33333 6.66669L8.39052 6.94283L8.66667 6.00002L8.39052 5.05721L9.33333 5.33335L10.2761 5.05721L10 6.00002L10.2761 6.94283L9.33333 6.66669Z" fill="white"/>
<path fill-rule="evenodd" clip-rule="evenodd" d="M6.66671 2.66669L5.7239 2.94283L6.00004 2.00002L5.7239 1.05721L6.66671 1.33335L7.60952 1.05721L7.33337 2.00002L7.60952 2.94283L6.66671 2.66669Z" fill="white"/>
</g>
<defs>
<filter id="filter0_d_267_771" x="8.66663" y="0" width="14" height="20" filterUnits="userSpaceOnUse" color-interpolation-filters="sRGB">
<feFlood flood-opacity="0" result="BackgroundImageFix"/>
<feColorMatrix in="SourceAlpha" type="matrix" values="0 0 0 0 0 0 0 0 0 0 0 0 0 0 0 0 0 0 127 0" result="hardAlpha"/>
<feOffset/>
<feColorMatrix type="matrix" values="0 0 0 0 0 0 0 0 0 0 0 0 0 0 0 0 0 0 0.06 0"/>
<feBlend mode="normal" in2="BackgroundImageFix" result="effect1_dropShadow_267_771"/>
<feBlend mode="normal" in="SourceGraphic" in2="effect1_dropShadow_267_771" result="shape"/>
</filter>
</defs>
</svg>
