<svg width="28" height="20" viewBox="0 0 28 20" fill="none" xmlns="http://www.w3.org/2000/svg">
<rect width="28" height="20" rx="2" fill="white"/>
<mask id="mask0_267_824" style="mask-type:luminance" maskUnits="userSpaceOnUse" x="0" y="0" width="28" height="20">
<rect width="28" height="20" rx="2" fill="white"/>
</mask>
<g mask="url(#mask0_267_824)">
<rect width="28" height="20" fill="#05AB41"/>
<path fill-rule="evenodd" clip-rule="evenodd" d="M3.5317 10.5597C3.1257 10.297 3.1257 9.70301 3.5317 9.44031L13.6379 2.90103C13.8582 2.75843 14.1418 2.75843 14.3622 2.90103L24.4683 9.44031C24.8743 9.70301 24.8743 10.297 24.4683 10.5597L14.3622 17.099C14.1418 17.2416 13.8582 17.2416 13.6379 17.099L3.5317 10.5597Z" fill="#FDD216"/>
<path fill-rule="evenodd" clip-rule="evenodd" d="M14 14.6666C16.5773 14.6666 18.6666 12.5773 18.6666 9.99998C18.6666 7.42265 16.5773 5.33331 14 5.33331C11.4227 5.33331 9.33331 7.42265 9.33331 9.99998C9.33331 12.5773 11.4227 14.6666 14 14.6666Z" fill="#053087"/>
<mask id="mask1_267_824" style="mask-type:luminance" maskUnits="userSpaceOnUse" x="9" y="5" width="10" height="10">
<path fill-rule="evenodd" clip-rule="evenodd" d="M14 14.6666C16.5773 14.6666 18.6666 12.5773 18.6666 9.99998C18.6666 7.42265 16.5773 5.33331 14 5.33331C11.4227 5.33331 9.33331 7.42265 9.33331 9.99998C9.33331 12.5773 11.4227 14.6666 14 14.6666Z" fill="white"/>
</mask>
<g mask="url(#mask1_267_824)">
<path fill-rule="evenodd" clip-rule="evenodd" d="M8.77993 8.78021C9.51263 8.18688 11.877 8.74895 14.084 9.33769C16.2911 9.92643 18.593 11.1604 19.1791 11.8842" fill="white"/>
<path d="M8.77993 8.78021C9.51263 8.18688 11.877 8.74895 14.084 9.33769C16.2911 9.92643 18.593 11.1604 19.1791 11.8842" stroke="white" stroke-width="1.33333" stroke-linecap="square"/>
</g>
</g>
</svg>
