<svg width="28" height="20" viewBox="0 0 28 20" fill="none" xmlns="http://www.w3.org/2000/svg">
<rect x="0.25" y="0.25" width="27.5" height="19.5" rx="1.75" fill="white" stroke="#F5F5F5" stroke-width="0.5"/>
<mask id="mask0_267_882" style="mask-type:luminance" maskUnits="userSpaceOnUse" x="0" y="0" width="28" height="20">
<rect x="0.25" y="0.25" width="27.5" height="19.5" rx="1.75" fill="white" stroke="white" stroke-width="0.5"/>
</mask>
<g mask="url(#mask0_267_882)">
<rect x="20" width="8" height="20" fill="#FF3131"/>
<path fill-rule="evenodd" clip-rule="evenodd" d="M0 20H8V0H0V20Z" fill="#FF3131"/>
<path fill-rule="evenodd" clip-rule="evenodd" d="M16.1118 9.22157C15.8786 9.45477 15.4846 9.24389 15.5493 8.92049L16 6.66671L14.6667 7.33337L14 5.33337L13.3334 7.33337L12 6.66671L12.4508 8.92049C12.5155 9.24389 12.1214 9.45477 11.8882 9.22157L11.5691 8.90241C11.4389 8.77223 11.2278 8.77223 11.0977 8.90241L10.6667 9.33337L9.33337 8.66671L10 10L9.56908 10.431C9.4389 10.5612 9.4389 10.7722 9.56908 10.9024L11.3334 12.6667H13.3334L13.6667 14.6667H14.3334L14.6667 12.6667H16.6667L18.431 10.9024C18.5612 10.7722 18.5612 10.5612 18.431 10.431L18 10L18.6667 8.66671L17.3334 9.33337L16.9024 8.90241C16.7722 8.77223 16.5612 8.77223 16.431 8.90241L16.1118 9.22157Z" fill="#FF3131"/>
</g>
</svg>
