<svg width="28" height="20" viewBox="0 0 28 20" fill="none" xmlns="http://www.w3.org/2000/svg">
<rect width="28" height="20" rx="2" fill="white"/>
<mask id="mask0_267_905" style="mask-type:luminance" maskUnits="userSpaceOnUse" x="0" y="0" width="28" height="20">
<rect width="28" height="20" rx="2" fill="white"/>
</mask>
<g mask="url(#mask0_267_905)">
<rect width="28" height="20" fill="#F1361D"/>
<path fill-rule="evenodd" clip-rule="evenodd" d="M10.0726 3.10079L11.0411 3.26589L11.7674 3.92739L11.9325 2.95894L12.594 2.23261L11.6256 2.0675L10.8992 1.40601L10.7341 2.37445L10.0726 3.10079ZM12.6667 6.48806L13.5059 5.97731L14.488 6.00003L13.9773 5.16082L14 4.17866L13.1608 4.68941L12.1786 4.6667L12.6894 5.50591L12.6667 6.48806ZM11.5282 11.9709L10.7074 12.5106L10.6958 11.5283L10.1561 10.7074L11.1384 10.6958L11.9593 10.1561L11.9709 11.1384L12.5106 11.9593L11.5282 11.9709ZM12.2411 9.43147L13.2176 9.32324L14.0981 9.7589L13.9899 8.78246L14.4255 7.90193L13.4491 8.01016L12.5686 7.57449L12.6768 8.55093L12.2411 9.43147Z" fill="#FFDC42"/>
<path fill-rule="evenodd" clip-rule="evenodd" d="M6.66663 8.22663L4.31549 9.90269L5.18298 7.14869L2.8624 5.43056L5.74968 5.40456L6.66663 2.66663L7.58357 5.40456L10.4709 5.43056L8.15027 7.14869L9.01777 9.90269L6.66663 8.22663Z" fill="#FFDC42"/>
</g>
</svg>
