<svg width="28" height="20" viewBox="0 0 28 20" fill="none" xmlns="http://www.w3.org/2000/svg">
<rect x="0.25" y="0.25" width="27.5" height="19.5" rx="1.75" fill="white" stroke="#F5F5F5" stroke-width="0.5"/>
<mask id="mask0_267_977" style="mask-type:luminance" maskUnits="userSpaceOnUse" x="0" y="0" width="28" height="20">
<rect x="0.25" y="0.25" width="27.5" height="19.5" rx="1.75" fill="white" stroke="white" stroke-width="0.5"/>
</mask>
<g mask="url(#mask0_267_977)">
<path fill-rule="evenodd" clip-rule="evenodd" d="M20 3.33329C20.3631 3.15174 20.7316 3.56919 20.5064 3.90697L20.0672 4.56576C20.0228 4.63234 19.9657 4.68948 19.8991 4.73387L18.0549 5.96334C18.0184 5.98769 17.9843 6.01559 17.9533 6.04664L17.8047 6.19522C17.5444 6.45557 17.5444 6.87768 17.8047 7.13803L18.1952 7.52855C18.4556 7.7889 18.4556 8.21101 18.1952 8.47136L17.6731 8.99352C17.4702 9.19643 17.1602 9.24673 16.9035 9.1184L16.5963 8.96477C16.2669 8.80011 15.8665 8.93359 15.7018 9.26291L15.4568 9.75297C15.3777 9.91111 15.2391 10.0314 15.0713 10.0873L13.4359 10.6324C13.368 10.6551 13.2968 10.6666 13.2251 10.6666H12.412C12.1595 10.6666 11.9286 10.8093 11.8157 11.0352L11.6315 11.4037C11.4668 11.733 11.0663 11.8665 10.737 11.7018L8.76341 10.715C8.69932 10.683 8.64082 10.6408 8.59015 10.5901L7.52857 9.52855C7.40355 9.40353 7.33331 9.23396 7.33331 9.05715V8.47136C7.33331 8.21101 7.54437 7.99996 7.80472 7.99996C7.92974 7.99996 8.04965 7.95029 8.13805 7.86189L9.13805 6.86189C9.26307 6.73686 9.43264 6.66663 9.60946 6.66663H10.1861C10.4731 6.66663 10.7279 6.48301 10.8186 6.21078L11.1472 5.22495C11.2535 4.90598 11.5807 4.71611 11.9104 4.78204L14.5196 5.30389C14.6164 5.32325 14.7163 5.32087 14.8121 5.29693L17.2623 4.68438C17.3095 4.67258 17.3553 4.65565 17.3988 4.6339L18.6666 3.99996L20 3.33329Z" fill="#E7832C"/>
<path fill-rule="evenodd" clip-rule="evenodd" d="M14 16C14.3682 16 14.6666 15.7015 14.6666 15.3333C14.6666 14.9651 14.3682 14.6666 14 14.6666C13.6318 14.6666 13.3333 14.9651 13.3333 15.3333C13.3333 15.7015 13.6318 16 14 16Z" fill="#445128"/>
<path opacity="0.75" d="M16 14.6666C16 14.6666 18 14 18.6667 12.6666" stroke="#445128" stroke-width="1.33333" stroke-linecap="round"/>
<path opacity="0.75" d="M12 14.6666C12 14.6666 10 14 9.33333 12.6666" stroke="#445128" stroke-width="1.33333" stroke-linecap="round"/>
</g>
</svg>
