<svg width="28" height="20" viewBox="0 0 28 20" fill="none" xmlns="http://www.w3.org/2000/svg">
<rect width="28" height="20" rx="2" fill="white"/>
<mask id="mask0_267_1002" style="mask-type:luminance" maskUnits="userSpaceOnUse" x="0" y="0" width="28" height="20">
<rect width="28" height="20" rx="2" fill="white"/>
</mask>
<g mask="url(#mask0_267_1002)">
<path fill-rule="evenodd" clip-rule="evenodd" d="M0 8H28V0H0V8Z" fill="#108753"/>
<path fill-rule="evenodd" clip-rule="evenodd" d="M0 20H28V12H0V20Z" fill="#108753"/>
<path fill-rule="evenodd" clip-rule="evenodd" d="M16 20H12V12H0V8H12V0H16V8H28V12H16V20Z" fill="white"/>
<path fill-rule="evenodd" clip-rule="evenodd" d="M14.6667 20H13.3333V10.6667H0V9.33333H13.3333V0H14.6667V9.33333H28V10.6667H14.6667V20Z" fill="#262626"/>
<path fill-rule="evenodd" clip-rule="evenodd" d="M13.3333 20H12V9.33333H0V8H12V0H13.3333V8H28V9.33333H13.3333V20Z" fill="#FCD449"/>
<path fill-rule="evenodd" clip-rule="evenodd" d="M14 14.6667C16.5774 14.6667 18.6667 12.5774 18.6667 10C18.6667 7.42271 16.5774 5.33337 14 5.33337C11.4227 5.33337 9.33337 7.42271 9.33337 10C9.33337 12.5774 11.4227 14.6667 14 14.6667Z" fill="url(#paint0_linear_267_1002)"/>
<path fill-rule="evenodd" clip-rule="evenodd" d="M14 13.3333C15.8409 13.3333 17.3333 11.8409 17.3333 9.99996C17.3333 8.15901 15.8409 6.66663 14 6.66663C12.159 6.66663 10.6666 8.15901 10.6666 9.99996C10.6666 11.8409 12.159 13.3333 14 13.3333Z" stroke="#0E673F" stroke-width="1.33333" stroke-linecap="round" stroke-dasharray="0.67 2.67"/>
<path fill-rule="evenodd" clip-rule="evenodd" d="M14 11.3333C14.7364 11.3333 14.6666 10.7363 14.6666 9.99996C14.6666 9.26358 14.7364 8.66663 14 8.66663C13.2636 8.66663 13.3333 9.26358 13.3333 9.99996C13.3333 10.7363 13.2636 11.3333 14 11.3333Z" fill="#0E673F"/>
</g>
<defs>
<linearGradient id="paint0_linear_267_1002" x1="9.33337" y1="5.33337" x2="9.33337" y2="14.6667" gradientUnits="userSpaceOnUse">
<stop stop-color="#E02C42"/>
<stop offset="1" stop-color="#D22036"/>
</linearGradient>
</defs>
</svg>
