<svg width="28" height="20" viewBox="0 0 28 20" fill="none" xmlns="http://www.w3.org/2000/svg">
<rect width="28" height="20" rx="2" fill="white"/>
<mask id="mask0_267_1099" style="mask-type:luminance" maskUnits="userSpaceOnUse" x="0" y="0" width="28" height="20">
<rect width="28" height="20" rx="2" fill="white"/>
</mask>
<g mask="url(#mask0_267_1099)">
<path fill-rule="evenodd" clip-rule="evenodd" d="M0 6.66667H28V0H0V6.66667Z" fill="#20AA46"/>
<path fill-rule="evenodd" clip-rule="evenodd" d="M0 20H28V13.3334H0V20Z" fill="#E92F3B"/>
<path fill-rule="evenodd" clip-rule="evenodd" d="M0 13.3333H28V6.66663H0V13.3333Z" fill="#FADF50"/>
<path fill-rule="evenodd" clip-rule="evenodd" d="M14 14.6667C16.5774 14.6667 18.6667 12.5774 18.6667 10C18.6667 7.42271 16.5774 5.33337 14 5.33337C11.4227 5.33337 9.33337 7.42271 9.33337 10C9.33337 12.5774 11.4227 14.6667 14 14.6667Z" fill="#205CCA"/>
<path d="M14.1935 11.0285L14 10.8906L13.8065 11.0285L12.6576 11.8475L13.0815 10.5018L13.1529 10.2752L12.9619 10.1338L11.828 9.29426L13.2388 9.28156L13.4765 9.27942L13.5519 9.05409L14 7.71627L14.448 9.05409L14.5235 9.27942L14.7611 9.28156L16.1719 9.29426L15.038 10.1338L14.847 10.2752L14.9184 10.5018L15.3423 11.8475L14.1935 11.0285Z" stroke="#FFDB3D" stroke-width="0.666667"/>
</g>
</svg>
