<svg width="28" height="20" viewBox="0 0 28 20" fill="none" xmlns="http://www.w3.org/2000/svg">
<rect width="28" height="20" rx="2" fill="white"/>
<mask id="mask0_267_2477" style="mask-type:luminance" maskUnits="userSpaceOnUse" x="0" y="0" width="28" height="20">
<rect width="28" height="20" rx="2" fill="white"/>
</mask>
<g mask="url(#mask0_267_2477)">
<rect width="28" height="20" fill="#043CAE"/>
<path fill-rule="evenodd" clip-rule="evenodd" d="M13.0572 4.27624L14 4.0001L14.9428 4.27624L14.6666 3.33343L14.9428 2.39062L14 2.66677L13.0572 2.39062L13.3333 3.33343L13.0572 4.27624ZM13.0572 17.6096L14 17.3334L14.9428 17.6096L14.6666 16.6668L14.9428 15.724L14 16.0001L13.0572 15.724L13.3333 16.6668L13.0572 17.6096ZM20.6666 10.6668L19.7238 10.9429L20 10.0001L19.7238 9.05729L20.6666 9.33343L21.6095 9.05729L21.3333 10.0001L21.6095 10.9429L20.6666 10.6668ZM6.3905 10.9429L7.33331 10.6668L8.27612 10.9429L7.99998 10.0001L8.27612 9.05729L7.33331 9.33343L6.3905 9.05729L6.66665 10.0001L6.3905 10.9429ZM19.7735 7.33343L18.8307 7.60958L19.1068 6.66677L18.8307 5.72396L19.7735 6.0001L20.7163 5.72396L20.4401 6.66677L20.7163 7.60958L19.7735 7.33343ZM7.28367 14.2762L8.22648 14.0001L9.16929 14.2762L8.89314 13.3334L9.16929 12.3906L8.22648 12.6668L7.28367 12.3906L7.55981 13.3334L7.28367 14.2762ZM17.3333 4.89326L16.3905 5.16941L16.6666 4.2266L16.3905 3.28379L17.3333 3.55993L18.2761 3.28379L18 4.2266L18.2761 5.16941L17.3333 4.89326ZM9.72384 16.7164L10.6666 16.4403L11.6095 16.7164L11.3333 15.7736L11.6095 14.8308L10.6666 15.1069L9.72384 14.8308L9.99998 15.7736L9.72384 16.7164ZM19.7735 14.0001L18.8307 14.2762L19.1068 13.3334L18.8307 12.3906L19.7735 12.6668L20.7163 12.3906L20.4401 13.3334L20.7163 14.2762L19.7735 14.0001ZM7.28367 7.60958L8.22648 7.33343L9.16929 7.60958L8.89314 6.66677L9.16929 5.72396L8.22648 6.0001L7.28367 5.72396L7.55981 6.66677L7.28367 7.60958ZM17.3333 16.4403L16.3905 16.7164L16.6666 15.7736L16.3905 14.8308L17.3333 15.1069L18.2761 14.8308L18 15.7736L18.2761 16.7164L17.3333 16.4403ZM9.72384 5.16941L10.6666 4.89326L11.6095 5.16941L11.3333 4.2266L11.6095 3.28379L10.6666 3.55993L9.72384 3.28379L9.99998 4.2266L9.72384 5.16941Z" fill="#FFD429"/>
</g>
</svg>
