<svg width="28" height="20" viewBox="0 0 28 20" fill="none" xmlns="http://www.w3.org/2000/svg">
<rect x="0.25" y="0.25" width="27.5" height="19.5" rx="1.75" fill="white" stroke="#F5F5F5" stroke-width="0.5"/>
<mask id="mask0_267_1191" style="mask-type:luminance" maskUnits="userSpaceOnUse" x="0" y="0" width="28" height="20">
<rect x="0.25" y="0.25" width="27.5" height="19.5" rx="1.75" fill="white" stroke="white" stroke-width="0.5"/>
</mask>
<g mask="url(#mask0_267_1191)">
<path fill-rule="evenodd" clip-rule="evenodd" d="M0 20H28V13.3334H0V20Z" fill="#EC3938"/>
<path fill-rule="evenodd" clip-rule="evenodd" d="M0 6.66667H28V0H0V6.66667Z" fill="#51B422"/>
<path fill-rule="evenodd" clip-rule="evenodd" d="M13.6068 11.7151C13.6366 11.684 13.6534 11.6426 13.6537 11.5995L13.6649 9.62741C13.6659 9.46527 13.5347 9.33333 13.3725 9.33333C13.112 9.33333 12.9816 9.01837 13.1658 8.83417L13.7643 8.2357C13.8944 8.10553 14.1055 8.10553 14.2357 8.2357L14.8333 8.83333C15.0178 9.01785 14.8871 9.33333 14.6262 9.33333C14.4644 9.33333 14.3333 9.46447 14.3333 9.62623V11.5976C14.3333 11.6418 14.3509 11.6842 14.3821 11.7155C14.4871 11.8205 14.4127 12 14.2643 12H13.7282C13.5799 12 13.5041 11.8221 13.6068 11.7151Z" fill="#159940"/>
<path fill-rule="evenodd" clip-rule="evenodd" d="M0 0L9.33333 10L0 20V0Z" fill="#258DE7"/>
</g>
</svg>
