<svg width="28" height="20" viewBox="0 0 28 20" fill="none" xmlns="http://www.w3.org/2000/svg">
<rect width="28" height="20" rx="2" fill="white"/>
<mask id="mask0_267_1333" style="mask-type:luminance" maskUnits="userSpaceOnUse" x="0" y="0" width="28" height="20">
<rect width="28" height="20" rx="2" fill="white"/>
</mask>
<g mask="url(#mask0_267_1333)">
<path fill-rule="evenodd" clip-rule="evenodd" d="M0 20H28V0H0V20Z" fill="#F0371D"/>
<path fill-rule="evenodd" clip-rule="evenodd" d="M13.984 8.14577C14.9468 7.33989 15.0054 7.15967 15.2361 6.44967C15.3131 6.21269 15.2588 6.01805 15.1946 5.78818C15.1022 5.45673 14.9892 5.05203 15.2201 4.34155C14.1696 4.00022 12.949 4.85899 12.4939 6.25966C12.0388 7.66034 12.5215 9.07252 13.572 9.41385C13.7601 9.47495 13.739 9.43077 13.6819 9.31114C13.5817 9.10125 13.3707 8.65909 13.984 8.14577ZM11.9901 9.61767C11.5212 8.45294 11.3679 8.34156 10.764 7.90276C10.5624 7.75629 10.3605 7.7478 10.122 7.73776C9.77822 7.7233 9.35844 7.70564 8.75407 7.26653C8.10482 8.16015 8.54439 9.58633 9.73587 10.452C10.9274 11.3177 12.4196 11.295 13.0688 10.4014C13.1851 10.2414 13.1365 10.2478 13.0051 10.2651C12.7745 10.2955 12.2888 10.3596 11.9901 9.61767ZM18 10.2539C17.2535 10.2539 17.064 10.2539 16 9.58723C15.3223 9.16259 14.967 9.49989 14.7983 9.66001C14.7022 9.75127 14.6667 9.78497 14.6667 9.58723C14.6667 8.48266 15.8606 7.58723 17.3334 7.58723C18.8061 7.58723 20 8.48266 20 9.58723C19.253 9.58723 18.903 9.81968 18.6163 10.0101C18.4175 10.1421 18.2492 10.2539 18 10.2539ZM18 9.00006C18 9.18415 17.8508 9.33339 17.6667 9.33339C17.4826 9.33339 17.3334 9.18415 17.3334 9.00006C17.3334 8.81596 17.4826 8.66672 17.6667 8.66672C17.8508 8.66672 18 8.81596 18 9.00006ZM15.2521 11.95C14.9468 13.1679 15.0054 13.3481 15.2361 14.0581C15.3131 14.2951 15.4714 14.4207 15.6584 14.5689C15.9281 14.7827 16.2573 15.0437 16.4882 15.7542C17.5387 15.4129 18.0213 14.0007 17.5662 12.6C17.1111 11.1994 15.8906 10.3406 14.8401 10.6819C14.652 10.743 14.695 10.7664 14.8115 10.8296C15.0159 10.9405 15.4465 11.1742 15.2521 11.95ZM16.4286 13.6707C16.2535 13.7276 16.0654 13.6317 16.0085 13.4567C15.9517 13.2816 16.0475 13.0935 16.2226 13.0366C16.3976 12.9797 16.5857 13.0756 16.6426 13.2506C16.6995 13.4257 16.6037 13.6138 16.4286 13.6707ZM12.7738 11.9688C11.5212 12.0549 11.3679 12.1662 10.764 12.605C10.5624 12.7515 10.4919 12.9409 10.4087 13.1646C10.2887 13.4871 10.1422 13.8808 9.53778 14.32C10.187 15.2136 11.6792 15.2362 12.8707 14.3706C14.0622 13.5049 14.5018 12.0787 13.8525 11.1851C13.7363 11.0251 13.7274 11.0733 13.7033 11.2036C13.6609 11.4323 13.5717 11.914 12.7738 11.9688ZM11.5009 13.6194C11.3927 13.4705 11.4258 13.262 11.5747 13.1538C11.7236 13.0456 11.9321 13.0786 12.0403 13.2276C12.1485 13.3765 12.1155 13.585 11.9665 13.6932C11.8176 13.8014 11.6092 13.7684 11.5009 13.6194ZM10.027 8.91714C10.1352 8.7682 10.3436 8.73518 10.4926 8.84339C10.6415 8.9516 10.6745 9.16006 10.5663 9.30899C10.4581 9.45793 10.2496 9.49094 10.1007 9.38274C9.95178 9.27453 9.91876 9.06607 10.027 8.91714ZM14.0436 6.06221C14.2187 6.1191 14.3145 6.30715 14.2576 6.48224C14.2007 6.65732 14.0127 6.75314 13.8376 6.69625C13.6625 6.63936 13.5667 6.45131 13.6236 6.27623C13.6805 6.10114 13.8685 6.00533 14.0436 6.06221Z" fill="white"/>
</g>
</svg>
