<svg width="28" height="20" viewBox="0 0 28 20" fill="none" xmlns="http://www.w3.org/2000/svg">
<rect x="0.25" y="0.25" width="27.5" height="19.5" rx="1.75" fill="white" stroke="#F5F5F5" stroke-width="0.5"/>
<mask id="mask0_267_1290" style="mask-type:luminance" maskUnits="userSpaceOnUse" x="0" y="0" width="28" height="20">
<rect x="0.25" y="0.25" width="27.5" height="19.5" rx="1.75" fill="white" stroke="white" stroke-width="0.5"/>
</mask>
<g mask="url(#mask0_267_1290)">
<path fill-rule="evenodd" clip-rule="evenodd" d="M0 6.66667H28V0H0V6.66667Z" fill="#FF202D"/>
<path opacity="0.5" fill-rule="evenodd" clip-rule="evenodd" d="M10.6666 5.33329L11.3333 4.66663L12 5.33329V6.66663H10.6666V5.33329ZM13.3333 5.33329L14 4.66663L14.6666 5.33329V6.66663H13.3333V5.33329ZM16.6666 4.66663L16 5.33329V6.66663H17.3333V5.33329L16.6666 4.66663Z" fill="#1895DB"/>
<path opacity="0.5" fill-rule="evenodd" clip-rule="evenodd" d="M12.6667 4.66663L12 5.33329V6.66663H13.3333V5.33329L12.6667 4.66663ZM15.3333 4.66663L14.6667 5.33329V6.66663H16V5.33329L15.3333 4.66663Z" fill="#191F94"/>
<path fill-rule="evenodd" clip-rule="evenodd" d="M0 20H28V13.3334H0V20Z" fill="#2027AC"/>
<path fill-rule="evenodd" clip-rule="evenodd" d="M12 6.66663H11.3333L10.6666 7.99996H12V9.33329H10.6666V10.6666H12V12H10.6666V13.3333H12V14.6666H13.3333V13.3333H14.6666V14.6666H16V13.3333H17.3333V12H16V10.6666H17.3333V9.33329H16V7.99996H17.3333L16.6666 6.66663H16V7.99996H14.6666V6.66663H13.3333V7.99996H12V6.66663ZM13.3333 9.33329V7.99996H14.6666V9.33329H13.3333ZM13.3333 10.6666V9.33329H12V10.6666H13.3333ZM14.6666 10.6666H13.3333V12H12V13.3333H13.3333V12H14.6666V13.3333H16V12H14.6666V10.6666ZM14.6666 10.6666H16V9.33329H14.6666V10.6666Z" fill="url(#paint0_linear_267_1290)"/>
</g>
<defs>
<linearGradient id="paint0_linear_267_1290" x1="10.6666" y1="6.66663" x2="10.6666" y2="14.6666" gradientUnits="userSpaceOnUse">
<stop stop-color="#FF212E"/>
<stop offset="1" stop-color="#FD0D1B"/>
</linearGradient>
</defs>
</svg>
