<svg width="28" height="20" viewBox="0 0 28 20" fill="none" xmlns="http://www.w3.org/2000/svg">
<rect width="28" height="20" rx="2" fill="#D01129"/>
<mask id="mask0_267_2651" style="mask-type:luminance" maskUnits="userSpaceOnUse" x="0" y="0" width="28" height="20">
<rect width="28" height="20" rx="2" fill="white"/>
</mask>
<g mask="url(#mask0_267_2651)">
<path fill-rule="evenodd" clip-rule="evenodd" d="M13.8883 10.0409C14.5492 10.0409 15.085 9.47829 15.085 8.78447C15.085 8.09052 14.5492 7.52795 13.8883 7.52795C13.2273 7.52795 12.6917 8.09052 12.6917 8.78447C12.6917 9.47829 13.2273 10.0409 13.8883 10.0409Z" fill="#FFF101"/>
<path fill-rule="evenodd" clip-rule="evenodd" d="M12.7974 8.27925C13.1363 8.16573 13.576 8.29784 13.8653 8.58934C14.1724 8.53063 14.4803 8.12573 14.5757 7.76524C14.4709 6.56732 13.7246 5.6598 13.4976 5.03705C13.4258 4.84023 13.0931 4.53075 12.7471 4.67485C12.4626 4.79338 12.3187 4.70115 11.3631 5.20157C10.8464 5.47216 10.4115 5.75008 10.1823 5.79852C9.95306 5.84696 9.7112 5.89014 9.52782 5.73931C9.27559 5.53185 8.99271 5.47448 8.82611 5.31815C8.62199 5.12659 8.49104 4.982 8.35298 4.92341C8.21493 4.86469 7.98122 4.99509 8.0799 5.30543C8.30254 6.00634 8.82739 6.11986 9.05271 6.77503C9.15908 7.08475 9.3103 7.31754 9.64829 7.0828C9.98627 6.84806 10.4639 6.53625 11.2783 6.50347C11.8252 6.48133 12.3903 6.2702 12.65 5.92378C12.6475 6.22347 12.7481 6.4691 12.7216 6.85894C12.6951 7.24891 12.6993 7.73393 12.7974 8.27925Z" fill="white"/>
<path fill-rule="evenodd" clip-rule="evenodd" d="M13.4381 8.31217C13.3377 7.72244 13.5198 7.63743 13.3024 6.94617C13.1717 6.53051 13.0881 6.00954 13.086 5.76709L12.9987 5.79376C13.0008 6.0362 13.0844 6.5573 13.215 6.97296C13.4253 7.64134 13.2618 7.74287 13.3418 8.2822C13.3665 8.28746 13.4183 8.30483 13.4381 8.31217Z" fill="#FFF101"/>
<path fill-rule="evenodd" clip-rule="evenodd" d="M12.9236 8.24738C12.9243 8.17239 12.9198 8.0941 12.9087 8.02683C13.0624 7.98805 13.3256 8.13716 13.3182 8.02634C13.316 7.99123 13.3194 7.87771 13.3215 7.81753C13.3181 7.9116 12.9522 7.75282 12.8891 7.7938C12.8215 7.45068 12.9053 7.09765 12.8516 6.88224C12.9738 6.84713 13.1985 6.92371 13.171 6.82316C13.1554 6.77166 13.1255 6.64358 13.1058 6.56346C13.1251 6.64738 12.9467 6.5779 12.8863 6.62585C12.855 6.43979 12.8092 6.08676 12.8102 5.92542L12.6501 5.92371C12.6475 6.2234 12.7482 6.46903 12.7216 6.85887C12.6952 7.24884 12.6994 7.73386 12.7975 8.27918C12.8325 8.26842 12.8903 8.25459 12.9236 8.24738Z" fill="#FFF101"/>
<path fill-rule="evenodd" clip-rule="evenodd" d="M12.5193 5.50796C12.2807 5.86967 11.7108 6.11934 11.1838 6.17451C10.567 6.23909 10.153 6.45463 9.84809 6.66564C9.82188 6.6161 9.77458 6.58943 9.73275 6.55677C9.28665 6.20986 9.47003 5.73977 9.63897 5.80692C9.57524 5.78099 9.53819 5.746 9.50335 5.71971C9.4444 5.67383 9.2743 5.84961 9.29563 6.12876C9.30471 6.24766 9.40164 6.42307 9.48052 6.51604C9.33652 6.48851 9.26755 6.44986 9.18296 6.34258C9.2305 6.31151 9.29201 6.29389 9.34164 6.28986C9.32475 6.24729 9.30122 6.20007 9.29563 6.12876C9.22514 6.12815 9.13916 6.15396 9.06541 6.20656C8.88844 6.02148 8.70623 5.87383 8.60056 5.65536C8.43151 5.30539 8.60347 5.08448 8.82611 5.31811C8.62199 5.12656 8.49104 4.98197 8.35298 4.92337C8.21493 4.86466 7.98122 4.99506 8.0799 5.30539C8.30254 6.00631 8.82739 6.11983 9.05271 6.775C9.15908 7.08472 9.3159 7.32607 9.64829 7.08276C9.69209 7.05071 9.70374 7.04313 9.74184 7.01475C9.84728 6.95078 10.0143 7.05818 9.99652 7.29169C10.0819 7.07726 10.0274 7.01157 9.95493 6.88301C9.90133 6.91298 9.90564 6.73744 9.87256 6.71432C10.0622 6.59053 10.2929 6.46637 10.5839 6.37793C10.5947 6.48276 10.6221 6.59408 10.7141 6.57793C10.7634 6.56643 10.8133 6.55604 10.8659 6.54686C10.774 6.56301 10.7481 6.44117 10.7375 6.33646C10.8754 6.30319 11.0262 6.27799 11.1914 6.2638C11.3818 6.24741 11.5785 6.2068 11.7633 6.1438C11.7908 6.24435 11.8477 6.41377 11.9424 6.3805C12.0264 6.35224 12.1081 6.32032 12.1847 6.28325C12.0529 6.34919 12.0011 6.16093 11.9694 6.06136C12.2102 5.95139 12.4154 5.80142 12.5381 5.62246L12.5193 5.50796Z" fill="#FFF101"/>
<path fill-rule="evenodd" clip-rule="evenodd" d="M13.5733 5.68759C13.6896 5.59291 13.7894 5.54814 13.6891 5.34765C13.5251 5.01982 13.627 5.0187 13.2678 4.81014C12.902 4.59803 12.9482 4.58139 12.4641 4.76059C12.3451 4.80463 12.3716 4.84965 12.3925 5.03093C12.4373 5.42163 12.5226 5.73627 12.6006 6.05773C12.9049 6.01602 13.373 5.85089 13.5733 5.68759Z" fill="#FFF101"/>
<path fill-rule="evenodd" clip-rule="evenodd" d="M12.4377 5.59869C12.3738 5.40688 12.3909 5.43294 12.6223 5.49141C12.6981 5.23856 12.8026 5.02516 12.8612 4.82051C12.9267 4.5914 12.9472 4.55017 13.0436 4.60632C13.1668 4.678 13.3022 4.75372 13.3904 4.79923C13.5444 4.87849 13.5217 4.90626 13.4482 5.03225C13.3747 5.15825 13.1342 5.41361 12.9859 5.68003C13.1815 5.82462 13.2443 5.83771 13.1054 5.89997C12.9498 5.96957 12.6914 6.05581 12.5826 6.07624C12.5627 5.95037 12.4984 5.78058 12.4377 5.59869Z" fill="#FFF101"/>
<path fill-rule="evenodd" clip-rule="evenodd" d="M10.141 7.40238L10.1257 7.59969L9.98713 7.46758L9.83218 7.57804L9.84243 7.3811L9.66406 7.32446L9.81645 7.20972L9.74923 7.02673L9.92806 7.08153L10.0225 6.91211L10.0943 7.09303L10.2789 7.06379L10.1885 7.23639L10.3245 7.36972L10.141 7.40238Z" fill="#FFF101"/>
<path fill-rule="evenodd" clip-rule="evenodd" d="M14.0171 10.029C13.7539 9.7775 13.643 9.31169 13.7388 8.90288C13.5368 8.65309 13.0489 8.57542 12.7038 8.66887C11.7682 9.36331 11.3928 10.4957 10.9926 11.0135C10.8661 11.1771 10.7772 11.6343 11.0691 11.8769C11.3091 12.0763 11.3051 12.2532 12.1955 12.8719C12.677 13.2065 13.1237 13.463 13.2783 13.6472C13.433 13.8314 13.5895 14.0299 13.5568 14.2719C13.5118 14.605 13.6058 14.891 13.5602 15.1205C13.5042 15.4018 13.4505 15.5933 13.4711 15.7481C13.4919 15.903 13.7161 16.0503 13.9228 15.8054C14.3895 15.2525 14.2208 14.7185 14.6486 14.1861C14.8508 13.9344 14.9673 13.6805 14.6047 13.4905C14.242 13.3007 13.7461 13.0221 13.3117 12.2982C13.0201 11.812 12.5634 11.4036 12.1477 11.3407C12.3962 11.1933 12.5486 10.9788 12.8835 10.808C13.2183 10.6371 13.6163 10.391 14.0171 10.029Z" fill="white"/>
<path fill-rule="evenodd" clip-rule="evenodd" d="M13.7237 9.42993C13.2876 9.81611 13.1264 9.69293 12.6649 10.2363C12.3875 10.563 11.9995 10.8995 11.8005 11.0226L11.8662 11.0886C12.0652 10.9656 12.4532 10.6291 12.7307 10.3023C13.1769 9.77697 13.3424 9.87482 13.7473 9.53244C13.7393 9.50749 13.7275 9.45158 13.7237 9.42993Z" fill="#FFF101"/>
<path fill-rule="evenodd" clip-rule="evenodd" d="M13.9276 9.93011C13.8655 9.96693 13.8031 10.0102 13.7532 10.0539C13.6444 9.93354 13.6357 9.61965 13.5481 9.68192C13.5202 9.70124 13.4249 9.75507 13.3741 9.7832C13.4535 9.73929 13.5054 10.1514 13.5707 10.1882C13.3215 10.4214 12.9884 10.5215 12.8377 10.6781C12.7476 10.5844 12.6985 10.3421 12.6292 10.4173C12.5946 10.4572 12.5039 10.5483 12.4476 10.6063C12.5073 10.5469 12.5391 10.7438 12.6087 10.7746C12.471 10.8962 12.2027 11.1143 12.0691 11.1942L12.1477 11.3406C12.3962 11.1932 12.5486 10.9788 12.8835 10.8079C13.2183 10.637 13.6163 10.3909 14.0171 10.0289C13.9906 10.0024 13.9502 9.95678 13.9276 9.93011Z" fill="#FFF101"/>
<path fill-rule="evenodd" clip-rule="evenodd" d="M11.8702 11.6674C12.2879 11.7035 12.7787 12.0969 13.0877 12.5485C13.4493 13.0771 13.8343 13.3457 14.1607 13.5174C14.133 13.5661 14.1346 13.6224 14.1287 13.6768C14.0655 14.2559 13.5861 14.3242 13.557 14.137C13.5675 14.208 13.5571 14.2591 13.5529 14.304C13.5445 14.3806 13.7746 14.4472 13.9941 14.2883C14.0877 14.2206 14.1838 14.0448 14.2212 13.9266C14.2704 14.0712 14.2729 14.1533 14.2269 14.2838C14.1774 14.2562 14.1322 14.2089 14.104 14.166C14.0773 14.2026 14.0502 14.2476 13.9941 14.2883C14.0288 14.3528 14.0932 14.418 14.1734 14.4587C14.1092 14.7122 14.0786 14.9517 13.9511 15.157C13.7471 15.4856 13.4788 15.4398 13.5603 15.1205C13.5042 15.4018 13.4505 15.5933 13.4711 15.7481C13.4919 15.903 13.7161 16.0503 13.9228 15.8054C14.3895 15.2525 14.2208 14.7185 14.6486 14.1861C14.8508 13.9344 14.9716 13.6712 14.6047 13.4905C14.5563 13.4668 14.5443 13.4601 14.5019 13.4395C14.3963 13.3757 14.4014 13.17 14.6029 13.0695C14.3834 13.0991 14.3565 13.1815 14.2867 13.3117C14.338 13.3453 14.1911 13.4292 14.1886 13.471C13.9917 13.3604 13.774 13.2127 13.5555 12.9922C13.6367 12.9302 13.7147 12.8494 13.6553 12.774C13.6212 12.7349 13.5876 12.6946 13.5537 12.6514C13.6132 12.727 13.5257 12.8113 13.4445 12.8734C13.3481 12.7647 13.252 12.6401 13.1576 12.497C13.0489 12.332 12.917 12.1735 12.7727 12.037C12.8419 11.9616 12.9532 11.8253 12.8784 11.7557C12.8131 11.6935 12.7459 11.6351 12.677 11.5841C12.7973 11.671 12.6678 11.8122 12.6017 11.8908C12.3904 11.7269 12.1642 11.6152 11.9553 11.5933L11.8702 11.6674Z" fill="#FFF101"/>
<path fill-rule="evenodd" clip-rule="evenodd" d="M11.3219 10.6976C11.1856 10.6393 11.2528 10.5604 11.1376 10.7519C10.9492 11.0649 10.9128 10.9928 10.9205 11.4238C10.9283 11.8623 11.0094 11.7923 11.3994 12.1429C11.6991 11.9069 12.0569 11.5502 12.283 11.3186C12.0965 11.0628 11.5566 10.7983 11.3219 10.6976Z" fill="#FFF101"/>
<path fill-rule="evenodd" clip-rule="evenodd" d="M11.986 11.6963C11.8597 11.8503 11.8726 11.8218 11.8051 11.582C11.5587 11.6395 11.3687 11.7059 11.1707 11.755C10.9489 11.8099 10.9047 11.8119 10.9028 11.6963C10.9003 11.5482 10.8952 11.3874 10.8885 11.2844C10.877 11.1048 10.9112 11.1114 11.0519 11.1153C11.1926 11.1191 11.485 11.1555 11.7789 11.1571C11.8004 10.9069 11.7797 10.8433 11.9007 10.9386C12.0357 11.0451 12.2361 11.2371 12.3074 11.3257C12.2135 11.4067 12.1057 11.5502 11.986 11.6963Z" fill="#FFF101"/>
<path fill-rule="evenodd" clip-rule="evenodd" d="M14.622 12.8829L14.7925 12.7981L14.7528 12.99L14.9215 13.0758L14.7538 13.1648L14.7962 13.3554L14.6253 13.2742L14.508 13.4269L14.4638 13.2368L14.2768 13.2355L14.3903 13.0799L14.2738 12.9268L14.4615 12.9226L14.5034 12.7323L14.622 12.8829Z" fill="#FFF101"/>
<path fill-rule="evenodd" clip-rule="evenodd" d="M14.8504 8.04514C14.7747 8.41003 14.4458 8.74385 14.0607 8.86116C13.9556 9.16967 14.1355 9.65199 14.3852 9.91927C15.4257 10.4228 16.5475 10.1979 17.1747 10.3029C17.373 10.336 17.7945 10.1883 17.8487 9.80159C17.8932 9.48367 18.041 9.39902 18.1061 8.27988C18.1413 7.67474 18.1295 7.14031 18.2042 6.90765C18.2789 6.67499 18.3643 6.4334 18.5803 6.34214C18.8775 6.21652 19.0664 5.98789 19.2786 5.91462C19.5386 5.82483 19.7233 5.77798 19.8407 5.68184C19.9581 5.58569 19.9674 5.30801 19.6622 5.24257C18.9727 5.09456 18.6167 5.51499 17.9635 5.39217C17.6549 5.33419 17.3872 5.35511 17.4119 5.77994C17.4366 6.20465 17.4549 6.79486 17.0748 7.55168C16.8196 8.06006 16.7111 8.67951 16.867 9.08893C16.6212 8.93664 16.3681 8.90532 16.0598 8.68636C15.7514 8.46728 15.3494 8.22863 14.8504 8.04514Z" fill="white"/>
<path fill-rule="evenodd" clip-rule="evenodd" d="M14.5029 8.61124C15.0396 8.81466 15.0186 9.02286 15.6975 9.17087C16.1057 9.2598 16.5772 9.44426 16.7783 9.56365L16.7998 9.47081C16.5989 9.35142 16.1272 9.16708 15.7191 9.07802C15.0626 8.9349 15.0606 8.73552 14.5757 8.53845C14.5592 8.55839 14.5189 8.59692 14.5029 8.61124Z" fill="#FFF101"/>
<path fill-rule="evenodd" clip-rule="evenodd" d="M14.8135 8.17569C14.875 8.21373 14.9419 8.24871 15.0028 8.27244C14.9581 8.43147 14.7034 8.59636 14.7986 8.64492C14.8285 8.6607 14.9205 8.7204 14.969 8.75244C14.8932 8.70217 15.2071 8.44896 15.2048 8.37104C15.5219 8.48113 15.7709 8.73397 15.9755 8.79281C15.9434 8.9215 15.7679 9.08737 15.8646 9.11269C15.9148 9.12419 16.0354 9.16113 16.1114 9.18327C16.0325 9.15881 16.1791 9.03134 16.1696 8.95269C16.3388 9.01703 16.6528 9.15196 16.7855 9.23355L16.8669 9.08884C16.6211 8.93654 16.368 8.90523 16.0598 8.68627C15.7514 8.46718 15.3493 8.22853 14.8503 8.04504C14.8417 8.08223 14.8242 8.1418 14.8135 8.17569Z" fill="#FFF101"/>
<path fill-rule="evenodd" clip-rule="evenodd" d="M17.2752 9.17786C17.0961 8.78006 17.1752 8.137 17.3933 7.63022C17.6485 7.03707 17.6776 6.55278 17.6559 6.17015C17.71 6.17113 17.7555 6.14141 17.8035 6.11963C18.3127 5.88759 18.6087 6.2893 18.4688 6.4093C18.5221 6.36428 18.5695 6.34826 18.6086 6.32967C18.6759 6.29884 18.6159 6.05639 18.3751 5.93627C18.2725 5.88502 18.0794 5.88551 17.9631 5.91058C18.058 5.79352 18.1243 5.75022 18.255 5.72685C18.257 5.78569 18.2407 5.8504 18.2192 5.89749C18.2628 5.90337 18.3135 5.90557 18.3751 5.93627C18.4109 5.87242 18.4325 5.78141 18.426 5.68795C18.6672 5.6197 18.88 5.52783 19.113 5.54104C19.4862 5.5622 19.5826 5.82911 19.2786 5.91462C19.5385 5.82483 19.7233 5.77798 19.8406 5.68184C19.9581 5.58569 19.9674 5.30801 19.6621 5.24257C18.9727 5.09456 18.6166 5.51499 17.9635 5.39217C17.6549 5.33419 17.3774 5.35597 17.4118 5.77994C17.4164 5.83584 17.4168 5.85015 17.4212 5.89896C17.4212 6.02691 17.2491 6.12502 17.0655 5.99205C17.1996 6.177 17.281 6.16025 17.4233 6.15866C17.4254 6.09493 17.568 6.18655 17.6036 6.16808C17.6109 6.40245 17.5979 6.67425 17.5253 6.98312C17.4335 6.94043 17.3281 6.90973 17.2953 7.00147C17.2802 7.05199 17.2638 7.10263 17.2451 7.15499C17.2777 7.06324 17.3911 7.1008 17.4828 7.14349C17.4413 7.28551 17.3867 7.43523 17.3158 7.59254C17.2341 7.77382 17.1693 7.97297 17.1288 8.1726C17.0321 8.14728 16.864 8.11425 16.844 8.21713C16.8254 8.30752 16.8108 8.3978 16.8031 8.486C16.8146 8.33321 16.9958 8.38019 17.0938 8.4011C17.0642 8.67511 17.0852 8.93664 17.1715 9.13774L17.2752 9.17786Z" fill="#FFF101"/>
<path fill-rule="evenodd" clip-rule="evenodd" d="M16.5587 10.0094C16.5787 10.1626 16.5657 10.2757 16.7812 10.2847C17.1336 10.2995 17.105 10.3451 17.4566 10.1227C17.8144 9.8963 17.8239 9.94101 17.9182 9.41122C17.9414 9.28095 17.8909 9.28254 17.731 9.21085C17.3864 9.05624 17.0853 9.0668 16.7812 8.97689C16.6634 9.2745 16.5242 9.74572 16.5587 10.0094Z" fill="#FFF101"/>
<path fill-rule="evenodd" clip-rule="evenodd" d="M17.2412 9.05833C17.4314 9.096 17.4014 9.09857 17.2375 9.27986C17.4081 9.47509 17.5388 9.61245 17.6784 9.76804C17.8346 9.94223 17.8582 9.98138 17.7639 10.0409C17.6431 10.1172 17.513 10.2023 17.4314 10.2599C17.2889 10.3602 17.2773 10.3257 17.2101 10.1958C17.1429 10.066 17.0456 9.78408 16.9001 9.51619C16.6829 9.62163 16.6407 9.67227 16.6589 9.51472C16.6793 9.33857 16.7374 9.06041 16.7749 8.95129C16.8886 8.99606 17.0608 9.02236 17.2412 9.05833Z" fill="#FFF101"/>
<path fill-rule="evenodd" clip-rule="evenodd" d="M16.9019 6.06808L16.7468 5.95542L16.9251 5.89548L16.9113 5.69927L17.0686 5.80716L17.2047 5.67334L17.2231 5.8693L17.4076 5.89964L17.273 6.03493L17.3655 6.20545L17.1803 6.18013L17.1122 6.36264L17.015 6.19407L16.837 6.2512L16.9019 6.06808Z" fill="#FFF101"/>
<path fill-rule="evenodd" clip-rule="evenodd" d="M13.8602 8.59478C13.5706 8.30292 13.1333 8.17467 12.7996 8.28645L12.7902 8.28059C12.7025 7.79326 12.6828 7.32258 12.7143 6.85832C12.7265 6.67872 12.7159 6.54728 12.6808 6.31289C12.6662 6.21567 12.6642 6.20207 12.659 6.16183C12.6487 6.08111 12.6432 6.01276 12.6427 5.94535C12.3864 6.27031 11.8443 6.48813 11.2785 6.51103C10.6093 6.53797 10.1913 6.71468 9.65225 7.08909C9.35276 7.2971 9.18173 7.17331 9.04582 6.77755C8.95582 6.51586 8.84607 6.3648 8.58284 6.08673L8.56259 6.06534C8.2869 5.774 8.16706 5.60406 8.07294 5.30777C7.98505 5.03136 8.17493 4.83938 8.35566 4.91624C8.36797 4.92146 8.38032 4.9274 8.3928 4.93407C8.451 4.96521 8.51073 5.01123 8.58976 5.08336C8.61683 5.10806 8.69615 5.18383 8.75757 5.2425L8.75759 5.24252L8.7576 5.24252C8.79127 5.27469 8.81956 5.30172 8.83091 5.31237C8.83992 5.32081 8.84921 5.32898 8.85894 5.33697C8.84513 5.32787 8.83076 5.32192 8.81605 5.31891L8.74758 5.25362C8.6862 5.19499 8.60713 5.11947 8.58021 5.0949C8.50199 5.02352 8.44312 4.97815 8.38619 4.9477C8.37408 4.94122 8.36211 4.93547 8.3502 4.93041C8.18109 4.85849 8.00277 5.03879 8.08676 5.30293C8.17999 5.59645 8.29869 5.76476 8.57292 6.05456L8.59317 6.07595C8.85779 6.35549 8.9686 6.50802 9.05951 6.77236C9.1927 7.16016 9.3547 7.27742 9.64422 7.07634C10.1853 6.70052 10.6056 6.52282 11.278 6.49575C11.8496 6.47261 12.3967 6.24923 12.6443 5.91897L12.6573 5.92376C12.6566 5.99753 12.6621 6.07106 12.6735 6.15979C12.6786 6.19986 12.6806 6.21344 12.6952 6.31051C12.7305 6.54596 12.7411 6.67839 12.7288 6.85941C12.6976 7.31973 12.7169 7.78635 12.803 8.2693L12.7952 8.27189L12.8045 8.27775L12.803 8.2693C13.141 8.16032 13.5792 8.29044 13.8639 8.58174C14.1515 8.52675 14.4675 8.14549 14.5684 7.76586C14.5186 7.19611 14.3346 6.68091 14.0037 6.04804C13.9527 5.95038 13.8133 5.69413 13.7456 5.5698L13.7085 5.50147C13.603 5.30421 13.5365 5.16519 13.4908 5.0397C13.396 4.77988 13.0418 4.56024 12.7497 4.68187C12.71 4.69842 12.6713 4.71161 12.629 4.72346C12.6019 4.73105 12.5743 4.73787 12.5365 4.74651C12.1476 4.83553 11.9324 4.9119 11.3663 5.20834L11.3185 5.23349C11.2098 5.29108 10.9478 5.43569 10.7846 5.52575L10.7845 5.52583L10.7845 5.52583C10.7152 5.56408 10.6638 5.59248 10.6495 5.60016C10.4254 5.72091 10.285 5.78452 10.1837 5.80593C9.84877 5.8767 9.67942 5.87367 9.52328 5.74525C9.47411 5.70481 9.42155 5.66823 9.36366 5.63338C9.34872 5.62439 9.33356 5.61558 9.31792 5.6068L9.32256 5.60106L9.32053 5.59093C9.33781 5.60058 9.35448 5.61023 9.37091 5.62012C9.42938 5.65532 9.48251 5.69229 9.53226 5.73321C9.68384 5.85788 9.84995 5.86085 10.1809 5.79094C10.2804 5.7699 10.4199 5.70666 10.6429 5.58655C10.657 5.57891 10.7083 5.55063 10.7773 5.5125L10.7775 5.51243L10.7775 5.51241C10.9406 5.42238 11.203 5.27753 11.312 5.21984L11.3598 5.19465C11.927 4.89762 12.1434 4.82085 12.5334 4.73157C12.571 4.72298 12.5984 4.71621 12.6253 4.70869C12.6671 4.69699 12.7052 4.68398 12.7443 4.66766C13.0448 4.54255 13.407 4.76711 13.5044 5.03424C13.5498 5.15886 13.6161 5.29733 13.7212 5.49398L13.7582 5.56204C13.8258 5.68626 13.9654 5.94285 14.0165 6.04068C14.3482 6.67523 14.5329 7.19222 14.5827 7.76721C14.4801 8.15472 14.1604 8.5406 13.8602 8.59478ZM9.30493 5.58231L9.32053 5.59093L9.32019 5.58923C9.31511 5.58664 9.31002 5.58433 9.30493 5.58231ZM9.25224 5.57143C9.26972 5.57172 9.28732 5.57531 9.30493 5.58231C9.27825 5.56772 9.24991 5.553 9.21866 5.53734C9.20349 5.52974 9.16984 5.51329 9.13852 5.49799L9.13815 5.49483C9.12576 5.48895 9.11366 5.484 9.10181 5.48005L9.07363 5.46626C8.98205 5.42082 8.9195 5.38473 8.86898 5.34504L8.869 5.34425C8.86568 5.34163 8.86233 5.33921 8.85894 5.33697L8.86898 5.34504L8.86866 5.35673L8.86385 5.36009C8.85967 5.35686 8.85558 5.3536 8.85155 5.35032L8.85165 5.35025C8.85455 5.35216 8.85742 5.35424 8.86025 5.35647L8.86059 5.344L8.85165 5.35025C8.85134 5.35004 8.85102 5.34983 8.8507 5.34962C8.84047 5.34124 8.83068 5.33266 8.82121 5.32377L8.81605 5.31891C8.7225 5.29973 8.6155 5.39929 8.55471 5.55952L8.56552 5.56871L8.86385 5.36009C8.91029 5.39605 8.96654 5.42914 9.04485 5.46878C8.93093 5.46323 8.83524 5.56956 8.71299 5.84166L8.72408 5.85093L9.13387 5.51258C9.16474 5.52766 9.19752 5.54369 9.21239 5.55115C9.22621 5.55807 9.23946 5.56481 9.25224 5.57143ZM9.29917 5.5964C9.28413 5.58817 9.26856 5.57989 9.25224 5.57143C9.12235 5.56928 8.99876 5.7494 8.92466 6.07003L8.93728 6.07678L9.31792 5.6068L9.30474 5.59946L9.3052 5.5989L9.31383 5.60299L9.31147 5.59116L9.3052 5.5989L9.29917 5.5964ZM8.94642 6.0419C9.02948 5.70784 9.1662 5.54467 9.29917 5.5964L9.30474 5.59946L8.94642 6.0419ZM8.94642 6.0419L8.93881 6.07363L8.92618 6.06688L8.94642 6.0419ZM9.11906 5.50535L9.13387 5.51258L9.13965 5.50781L9.13852 5.49799L9.1191 5.48851L9.10181 5.48005C9.08221 5.47351 9.06329 5.46968 9.04485 5.46878L9.0674 5.48008L9.09673 5.49443C8.96907 5.45248 8.87162 5.53339 8.73963 5.81864L8.71508 5.83891L8.72616 5.84818L8.73963 5.81864L9.11906 5.50535ZM9.12104 5.50372C9.11281 5.50016 9.10471 5.49705 9.09673 5.49443L9.11309 5.50244L9.11311 5.50245L9.11317 5.50247L9.11906 5.50535L9.12104 5.50372ZM9.12104 5.50372L9.13215 5.50876L9.13065 5.49579L9.12104 5.50372ZM8.57759 5.5419L8.85155 5.35032C8.85127 5.35009 8.85098 5.34985 8.8507 5.34962C8.76306 5.29285 8.64651 5.37935 8.57759 5.5419ZM8.57759 5.5419L8.55744 5.55599L8.56824 5.56518C8.57125 5.55726 8.57437 5.5495 8.57759 5.5419Z" fill="#111928"/>
<path fill-rule="evenodd" clip-rule="evenodd" d="M13.4174 7.76046C13.4071 7.9865 13.4107 8.10813 13.4452 8.31077L13.4356 8.31932C13.4246 8.31525 13.4104 8.31037 13.3956 8.30529C13.3735 8.29772 13.3502 8.28972 13.3345 8.28332C13.3081 8.10562 13.306 7.99498 13.3155 7.78634L13.3175 7.743C13.329 7.47492 13.3087 7.29537 13.208 6.9753C13.0866 6.58903 12.9936 6.06177 12.9965 5.78636L13.0932 5.76697C13.0955 6.0335 13.1882 6.55906 13.3092 6.94372C13.4105 7.26574 13.431 7.44717 13.4194 7.71705L13.4174 7.76046ZM13.4404 8.3049L13.4308 8.31346C13.4301 8.30916 13.4294 8.3049 13.4287 8.30067C13.4329 8.30214 13.4368 8.30356 13.4404 8.3049ZM13.3431 8.27465C13.3617 8.2786 13.4005 8.29075 13.4287 8.30067C13.396 8.10426 13.3927 7.98203 13.4029 7.75972L13.4049 7.71636C13.4164 7.44825 13.3961 7.26866 13.2954 6.94852C13.174 6.56243 13.081 6.03533 13.088 5.77438L13.0058 5.79363C13.0081 6.05994 13.1009 6.58566 13.2218 6.97051C13.3231 7.29244 13.3437 7.47383 13.332 7.74369L13.3301 7.78707C13.3206 7.99477 13.3227 8.1045 13.3431 8.27465Z" fill="#111928"/>
<path fill-rule="evenodd" clip-rule="evenodd" d="M11.7187 5.0105C11.6371 5.04724 11.6378 5.17746 11.7037 5.38032C11.7565 5.54253 11.8499 5.74634 11.9622 5.9545L11.9756 5.94869L11.7286 5.01548L11.7187 5.0105ZM12.9158 8.02552C12.9265 8.0905 12.9316 8.16831 12.9309 8.24745L12.925 8.25486L12.9001 8.26038C12.8637 8.26855 12.8223 8.27781 12.7902 8.28059C12.7026 7.79326 12.6828 7.32259 12.7143 6.85832C12.7265 6.67873 12.716 6.54729 12.6808 6.31289C12.6662 6.21568 12.6642 6.20208 12.6591 6.16184C12.6476 6.07244 12.6421 5.99822 12.6501 5.91606L12.8174 5.92546C12.8166 6.06378 12.8531 6.38186 12.8916 6.61328C12.9123 6.60176 12.9414 6.59863 12.9871 6.59951L13.0058 6.59998C13.0485 6.60121 13.0649 6.60077 13.0799 6.5966C13.0971 6.59182 13.1028 6.58315 13.0987 6.56524L13.1128 6.56155C13.1179 6.58228 13.1403 6.6748 13.1389 6.66912L13.1409 6.67757C13.1585 6.74989 13.17 6.79481 13.1779 6.82104C13.1871 6.85474 13.1718 6.87439 13.1367 6.88152C13.1119 6.88656 13.0878 6.88632 13.0184 6.88254C12.9982 6.88144 12.9868 6.88089 12.9743 6.88045C12.9416 6.8793 12.9147 6.87975 12.8929 6.88012C12.8796 6.88034 12.8682 6.88053 12.8586 6.8803C12.8802 6.96694 12.8815 7.04571 12.8732 7.26761C12.8651 7.48317 12.8662 7.59331 12.8846 7.72344C12.8875 7.74353 12.8907 7.76327 12.8944 7.78268C12.9217 7.77232 12.9703 7.78085 13.0939 7.8099L13.1023 7.81185C13.1779 7.82958 13.2174 7.83733 13.2519 7.83963C13.2934 7.8424 13.3135 7.83493 13.3142 7.81731L13.3132 7.84594C13.3001 7.85415 13.279 7.85676 13.2509 7.85489C13.2154 7.85252 13.1755 7.84469 13.0991 7.82677L13.0907 7.82482C12.9602 7.79413 12.9134 7.78697 12.8929 7.80029L12.882 7.79534C12.8775 7.77257 12.8736 7.74937 12.8702 7.72569C12.8516 7.59432 12.8505 7.48349 12.8587 7.26701C12.8669 7.04688 12.8656 6.96873 12.8496 6.87486C12.8817 6.86566 12.9206 6.86327 12.9748 6.86517C12.9874 6.86561 12.9988 6.86616 13.0192 6.86727C13.087 6.87097 13.1108 6.87121 13.1339 6.86651C13.1614 6.86093 13.1705 6.84927 13.164 6.82547C13.156 6.79905 13.1445 6.75399 13.1268 6.68135L13.1248 6.67289C13.1257 6.67684 13.1149 6.63205 13.1067 6.59803C13.1141 6.58932 13.1164 6.57723 13.1129 6.56167L13.0987 6.56537L13.1067 6.59803C13.1014 6.60414 13.0937 6.60858 13.0836 6.61138C13.0667 6.61609 13.0498 6.61654 13.0054 6.61527L12.9869 6.61479C12.9368 6.61383 12.9083 6.61796 12.8907 6.63194L12.8791 6.62717C12.8399 6.39408 12.802 6.06711 12.81 5.93306L12.6573 5.92377C12.6567 5.99754 12.6621 6.07106 12.6735 6.15979C12.6786 6.19987 12.6806 6.21344 12.6952 6.31051C12.7305 6.54596 12.7411 6.67839 12.7288 6.85941C12.6974 7.32242 12.7171 7.7918 12.7954 8.27184C12.8249 8.26277 12.8756 8.25011 12.9163 8.24114L12.9163 8.2473L12.9221 8.23988L12.9163 8.24114C12.9168 8.165 12.9119 8.09022 12.907 8.01939C12.9479 8.00907 12.9974 8.01076 13.0609 8.02185C13.0822 8.02557 13.1035 8.02998 13.1334 8.03668C13.2251 8.05725 13.2387 8.05991 13.2656 8.06044C13.299 8.06111 13.3125 8.05153 13.3109 8.02684C13.3092 8.00048 13.3105 7.93045 13.3132 7.84594C13.3229 7.83983 13.3282 7.83061 13.3287 7.81781L13.3142 7.81725L13.3142 7.81724L13.3287 7.8178C13.3254 7.9141 13.3236 7.99733 13.3254 8.0258C13.3278 8.06127 13.3063 8.07654 13.2654 8.07573C13.237 8.07517 13.2235 8.07253 13.1303 8.05164C13.1006 8.04498 13.0795 8.0406 13.0585 8.03693C12.9967 8.02615 12.9489 8.02452 12.9158 8.02552ZM11.7169 5.02844L11.7146 5.01957L11.7245 5.02455C11.7218 5.02573 11.7193 5.02702 11.7169 5.02844ZM11.9453 5.89138C11.8466 5.70353 11.7652 5.52211 11.7175 5.37538C11.6563 5.18708 11.6535 5.06572 11.7169 5.02844L11.9453 5.89138ZM11.9453 5.89138C11.955 5.90985 11.9649 5.92839 11.9749 5.94697L11.9616 5.95278L11.9453 5.89138ZM11.7612 6.14832L11.761 6.14837L11.761 6.14837L11.7607 6.14853L11.7656 6.16502C11.8344 6.13807 11.9034 6.10642 11.9723 6.07037L11.9668 6.05417L11.9665 6.05431L11.9665 6.05431L11.9663 6.05438L11.7612 6.14832ZM11.7612 6.14832C11.8295 6.12157 11.8979 6.09016 11.9663 6.05438L11.9665 6.05431L11.972 6.07051L11.7659 6.16486L11.761 6.14837L11.7612 6.14832ZM10.5821 6.37648C10.582 6.3765 10.582 6.37653 10.5819 6.37655L10.5857 6.39343L10.7393 6.34597L10.7358 6.32897C10.7358 6.32899 10.7357 6.32901 10.7357 6.32902L10.7357 6.32902L10.7355 6.32905C10.6831 6.34345 10.6322 6.35922 10.5822 6.37645L10.5821 6.37648L10.5821 6.37648ZM10.5821 6.37648L10.5859 6.39336C10.6358 6.37615 10.6867 6.3604 10.7391 6.34602L10.7357 6.32902C10.7356 6.32903 10.7356 6.32904 10.7355 6.32905L10.5822 6.37645C10.5822 6.37646 10.5821 6.37647 10.5821 6.37648Z" fill="#111928"/>
<path fill-rule="evenodd" clip-rule="evenodd" d="M11.183 6.16685C11.7405 6.10849 12.2879 5.84529 12.5133 5.50356L12.5264 5.50661L12.5439 5.62687C12.4248 5.80064 12.2243 5.95322 11.9763 6.05888C11.9757 6.05704 11.9864 6.09094 11.9897 6.10118C11.9953 6.11854 12.0005 6.13343 12.0058 6.14762C12.0496 6.26386 12.1012 6.31353 12.177 6.2785C12.1584 6.28738 12.1394 6.29607 12.1199 6.30456C12.0668 6.29799 12.0264 6.24384 11.9923 6.15324C11.9868 6.1388 11.9816 6.12369 11.9759 6.10611C11.9726 6.0958 11.9619 6.06183 11.9665 6.05429C12.2163 5.94021 12.4147 5.78922 12.5308 5.6237L12.5151 5.52735C12.5185 5.52234 12.5219 5.51731 12.5253 5.51226L12.5121 5.50921L12.5151 5.52735C12.2809 5.86593 11.7376 6.12415 11.1845 6.18206C10.6497 6.23806 10.2398 6.4036 9.84168 6.6693C9.82508 6.63794 9.80516 6.61946 9.75506 6.58282L9.75487 6.58268C9.7416 6.57297 9.73563 6.56853 9.72837 6.56286C9.52675 6.40607 9.43449 6.20865 9.44791 6.02593C9.45729 5.89825 9.5206 5.80298 9.59352 5.79344C9.60709 5.80105 9.62115 5.80784 9.63629 5.814L9.64149 5.79972C9.62535 5.7933 9.60922 5.79139 9.59352 5.79344C9.58035 5.78605 9.56764 5.77789 9.55485 5.76878C9.5428 5.76019 9.51088 5.73514 9.50155 5.72782C9.50002 5.72662 9.4991 5.72589 9.49897 5.72579C9.42854 5.67099 9.2849 5.89332 9.30283 6.12809C9.31096 6.23438 9.39692 6.40601 9.48591 6.5109L9.47917 6.5235C9.33191 6.49536 9.26212 6.45497 9.17907 6.33604C9.22184 6.30808 9.27862 6.28907 9.33096 6.28316L9.33487 6.29275L9.33511 6.29234L9.34103 6.28218C9.33776 6.28245 9.33447 6.28277 9.33116 6.28314C9.3311 6.28315 9.33103 6.28316 9.33096 6.28316L9.32023 6.25688C9.30983 6.23099 9.30215 6.20825 9.29808 6.18644C9.29492 6.16953 9.29393 6.15317 9.29552 6.13635C9.29334 6.13633 9.29115 6.13634 9.28896 6.13637C9.21797 6.13739 9.13657 6.16473 9.06022 6.21192C9.04934 6.20054 9.03808 6.18892 9.02622 6.17683C9.0058 6.15602 8.95284 6.1033 8.91574 6.06637C8.89745 6.04816 8.88302 6.03379 8.87825 6.02899C8.73552 5.88516 8.6546 5.78402 8.59401 5.65877C8.51395 5.49302 8.50445 5.34206 8.56057 5.26325C8.59798 5.21073 8.65716 5.19986 8.72409 5.23118C8.7321 5.23883 8.73997 5.24636 8.74758 5.25362C8.76108 5.26652 8.77373 5.2786 8.78478 5.28914C8.69649 5.21404 8.61648 5.21028 8.57223 5.27241C8.52005 5.34568 8.52918 5.49075 8.607 5.65185C8.66667 5.77521 8.74669 5.87523 8.88834 6.01796C8.89307 6.02273 8.90743 6.03703 8.92566 6.05517C8.96276 6.0921 9.01586 6.14496 9.03636 6.16586C9.04827 6.178 9.05957 6.18966 9.06127 6.20018C9.12892 6.15193 9.20993 6.12385 9.28815 6.12709C9.27051 5.88263 9.4228 5.6475 9.50756 5.71345C9.50773 5.71357 9.50884 5.71445 9.51065 5.71586C9.52057 5.72365 9.55146 5.74788 9.56303 5.75612C9.58812 5.77401 9.61282 5.78805 9.64155 5.79974L9.63634 5.81402C9.55661 5.78232 9.47319 5.88065 9.46243 6.02711C9.44941 6.20441 9.53932 6.39682 9.73705 6.55058C9.74416 6.55614 9.75005 6.56052 9.7632 6.57013L9.76339 6.57027C9.81528 6.60822 9.83637 6.62779 9.84404 6.6592C10.2337 6.38954 10.6458 6.22311 11.183 6.16685ZM9.33753 6.29784C9.28594 6.30282 9.229 6.32111 9.18853 6.33765C9.26705 6.43724 9.33125 6.47703 9.46132 6.50436C9.41463 6.44567 9.3699 6.37077 9.33753 6.29784ZM8.79483 5.27807C8.77072 5.2575 8.74695 5.24188 8.72409 5.23118C8.66741 5.17706 8.6038 5.11642 8.58021 5.09489C8.50199 5.02351 8.44312 4.97814 8.38619 4.94769C8.37408 4.94122 8.36211 4.93546 8.3502 4.93041C8.18109 4.85849 8.00277 5.03879 8.08676 5.30292C8.17999 5.59644 8.29869 5.76475 8.57292 6.05455L8.59317 6.07594C8.85779 6.35548 8.9686 6.50801 9.05951 6.77235C9.12114 6.95179 9.18681 7.06933 9.26985 7.12993C9.36865 7.20204 9.49025 7.18903 9.64407 7.07644C9.66228 7.06311 9.67494 7.05399 9.69623 7.03873L9.69687 7.03827C9.71116 7.02798 9.7224 7.01977 9.73815 7.00808C9.85543 6.93692 9.9991 7.05565 10.0048 7.24853C10.0003 7.26135 9.99532 7.27471 9.98975 7.28869L10.0037 7.29225C10.0049 7.27731 10.0052 7.26272 10.0048 7.24853C10.0435 7.13722 10.0407 7.0668 10.005 6.9898C9.99821 6.97524 9.99027 6.96014 9.97932 6.94067C9.97912 6.94032 9.9789 6.93992 9.97865 6.93948C9.97293 6.92935 9.95424 6.89623 9.9583 6.8897C9.93979 6.90006 9.92482 6.89173 9.91429 6.86988C9.90706 6.85488 9.9023 6.83693 9.89468 6.80073L9.89283 6.79192C9.88318 6.74596 9.87699 6.72658 9.86847 6.72063L9.86866 6.70778C10.0936 6.56095 10.3209 6.44983 10.5911 6.37706C10.6051 6.51358 10.6403 6.58308 10.7124 6.57042C10.7469 6.56238 10.7805 6.55515 10.8141 6.54861C10.8292 6.55592 10.8467 6.55791 10.867 6.55435C10.8167 6.56314 10.767 6.57334 10.7152 6.58542C10.6304 6.60031 10.5914 6.52328 10.5859 6.38522C10.3294 6.46317 10.1056 6.57202 9.88431 6.71558C9.89283 6.72717 9.89851 6.74797 9.90705 6.78862L9.9089 6.79743C9.91623 6.83227 9.92082 6.84956 9.92728 6.86297C9.93454 6.87804 9.94138 6.88184 9.96114 6.87906L9.99186 6.93289C10.003 6.95269 10.0111 6.96811 10.0181 6.9831C10.0599 7.07316 10.0586 7.1554 10.0032 7.29459L9.98921 7.29103C10.005 7.08404 9.85995 6.95184 9.746 7.02093C9.73075 7.03229 9.71946 7.04055 9.7051 7.05088L9.70446 7.05134C9.68317 7.06661 9.67056 7.0757 9.6524 7.08898C9.49398 7.20495 9.36588 7.21864 9.26154 7.14249C9.17535 7.07959 9.10839 6.95974 9.04582 6.77754C8.95582 6.51585 8.84607 6.36479 8.58284 6.08672L8.56259 6.06533C8.2869 5.77399 8.16706 5.60405 8.07294 5.30776C7.98505 5.03136 8.17493 4.83937 8.35566 4.91623C8.36797 4.92146 8.38032 4.92739 8.3928 4.93407C8.451 4.9652 8.51073 5.01122 8.58976 5.08335C8.61683 5.10806 8.69616 5.18384 8.75759 5.24251C8.77112 5.25544 8.78378 5.26753 8.79483 5.27807ZM10.8646 6.53927L10.867 6.55435L10.8646 6.53927C10.8646 6.53927 10.8646 6.53927 10.8646 6.53927ZM10.8646 6.53927C10.7932 6.55181 10.7591 6.47838 10.7447 6.3356C10.8817 6.30946 11.0323 6.28508 11.1919 6.27137C11.3849 6.25475 11.5821 6.21355 11.7655 6.15102C11.8035 6.31875 11.8607 6.41718 11.9446 6.3877C12.0319 6.35836 12.1108 6.32702 12.1826 6.29259C12.1843 6.2918 12.1861 6.29097 12.1878 6.2901L12.1816 6.27626C12.1801 6.277 12.1785 6.27775 12.177 6.2785C12.1785 6.2778 12.18 6.27706 12.1815 6.2763L12.1877 6.29014C12.186 6.29096 12.1843 6.29178 12.1826 6.29259C12.1599 6.30312 12.1391 6.30693 12.1199 6.30456C12.0642 6.3288 12.0045 6.35152 11.9401 6.37317C11.869 6.39814 11.8149 6.30503 11.7703 6.14164C11.5787 6.19864 11.3826 6.23961 11.1907 6.25613C11.0305 6.2699 10.8791 6.29439 10.7358 6.32896C10.7432 6.44997 10.7665 6.52561 10.8141 6.54861C10.8309 6.54533 10.8477 6.54222 10.8646 6.53927ZM8.79483 5.27807C8.80689 5.28836 8.81904 5.29989 8.83121 5.31265L8.82121 5.32376C8.81435 5.31733 8.80137 5.30497 8.78478 5.28914C8.7967 5.29928 8.80876 5.31072 8.82091 5.32347L8.83091 5.31236C8.82412 5.30599 8.81127 5.29376 8.79483 5.27807Z" fill="#111928"/>
<path fill-rule="evenodd" clip-rule="evenodd" d="M13.7459 8.90456C13.6499 9.31384 13.7628 9.77552 14.0219 10.0232L14.0218 10.0346C13.6638 10.358 13.2857 10.611 12.8866 10.8147C12.7694 10.8745 12.6694 10.9416 12.5602 11.0293C12.5331 11.051 12.5063 11.0733 12.4716 11.1026C12.4748 11.0999 12.4057 11.1586 12.3866 11.1745C12.3013 11.246 12.2377 11.2942 12.1693 11.3363C12.5655 11.4069 13.0162 11.791 13.3179 12.294C13.6749 12.889 14.03 13.181 14.6079 13.4835C14.9292 13.6519 14.9126 13.8692 14.6542 14.1908C14.4821 14.405 14.4137 14.578 14.3139 14.9644C14.2052 15.3854 14.1294 15.572 13.9282 15.8103C13.7442 16.0284 13.491 15.9518 13.4639 15.7491C13.4542 15.6765 13.4598 15.5945 13.4798 15.4802C13.4887 15.429 13.5252 15.2534 13.5432 15.1667L13.5531 15.1188C13.5555 15.1067 13.5576 15.0949 13.5593 15.0831C13.5589 15.0994 13.5612 15.1148 13.5659 15.129L13.5573 15.1704C13.5393 15.2573 13.503 15.4321 13.4941 15.483C13.4744 15.5958 13.4689 15.6763 13.4783 15.7469C13.5037 15.9367 13.7414 16.0086 13.9173 15.8002C14.1167 15.564 14.1917 15.3792 14.2999 14.9604C14.4002 14.572 14.4693 14.3973 14.643 14.181C14.8962 13.8658 14.912 13.6599 14.6014 13.4972C14.0214 13.1936 13.6642 12.8999 13.3056 12.3022C13.0007 11.7939 12.5429 11.408 12.1467 11.3481L12.1441 11.3339C12.2189 11.2895 12.2854 11.2398 12.3775 11.1626C12.3966 11.1466 12.4656 11.088 12.4625 11.0907C12.4972 11.0613 12.5241 11.0389 12.5513 11.0171C12.6613 10.9289 12.7621 10.8613 12.8803 10.8009C13.276 10.599 13.651 10.3484 14.0061 10.0287L14.0121 10.0345L14.0123 10.0231L14.0061 10.0287C13.7471 9.77567 13.6353 9.31226 13.7333 8.90768C13.5441 8.67372 13.0716 8.57703 12.708 8.67497C12.3582 8.93456 12.067 9.26708 11.7907 9.69151C11.7146 9.80837 11.5608 10.0761 11.411 10.3367L11.411 10.3367C11.2554 10.6075 11.1042 10.8706 11.0493 10.9487C11.032 10.9733 11.015 10.9964 10.9982 11.0181C10.8312 11.2342 10.8272 11.6659 11.0736 11.8708C11.0852 11.8804 11.0963 11.89 11.1072 11.8999C11.1405 11.9301 11.1708 11.9612 11.2064 12.0013L11.2484 12.0496C11.2764 12.0819 11.3102 12.1209 11.3256 12.1381C11.379 12.1979 11.4323 12.2531 11.4961 12.3134C11.6607 12.4689 11.8835 12.6459 12.1995 12.8654C12.3603 12.9771 12.8659 13.3111 12.8634 13.3094C13.0869 13.4602 13.2136 13.5584 13.2837 13.642C13.5094 13.9108 13.5918 14.0667 13.5639 14.2729C13.5524 14.3582 13.549 14.434 13.5523 14.5289L13.5453 14.5275L13.538 14.5345C13.5343 14.4363 13.5377 14.3586 13.5495 14.2707C13.5766 14.0705 13.4958 13.9176 13.2728 13.6521C13.2038 13.5699 13.0779 13.4722 12.8555 13.3222C12.8582 13.324 12.3524 12.99 12.1915 12.8782C11.8749 12.6582 11.6516 12.4808 11.4863 12.3247C11.4222 12.2642 11.3687 12.2087 11.3149 12.1485C11.2994 12.1312 11.2655 12.0921 11.2374 12.0597L11.1957 12.0117C11.1604 11.9721 11.1306 11.9413 11.0977 11.9115C11.0869 11.9018 11.076 11.8922 11.0646 11.8828C10.8111 11.6721 10.8152 11.2306 10.9869 11.0085C11.0036 10.987 11.0204 10.9641 11.0375 10.9397C11.092 10.8621 11.2425 10.6003 11.3977 10.3302L11.3977 10.3302L11.3977 10.3302L11.3977 10.3302L11.3977 10.3302L11.3978 10.3301L11.3978 10.3301C11.5478 10.0691 11.7022 9.80034 11.7787 9.68288C12.0559 9.25706 12.3483 8.92324 12.702 8.66133C13.0729 8.56089 13.5511 8.65876 13.7459 8.90456ZM13.5387 14.553L13.538 14.5345L13.5368 14.5356C13.5372 14.5415 13.5378 14.5473 13.5387 14.553ZM13.5562 14.6064C13.5476 14.5904 13.5418 14.5725 13.5387 14.553C13.5411 14.6059 13.5454 14.665 13.5514 14.7347L13.5524 14.7464L13.55 14.7483C13.5513 14.7624 13.5532 14.7759 13.5559 14.7886C13.5672 14.9281 13.5696 15.0004 13.5614 15.0677L13.5603 15.0683C13.5598 15.0733 13.5594 15.0782 13.5593 15.0831L13.5614 15.0677L13.5708 15.0624L13.5764 15.0653C13.5757 15.0706 13.5751 15.0759 13.5743 15.0812L13.574 15.0811C13.5741 15.0775 13.5744 15.0738 13.5748 15.0701L13.5643 15.0761L13.574 15.0811C13.5739 15.0821 13.5739 15.0832 13.5739 15.0842C13.5721 15.0967 13.5699 15.1091 13.5674 15.1219L13.5659 15.129C13.5968 15.2238 13.7325 15.2713 13.895 15.2463L13.8971 15.2319L13.5764 15.0653C13.5829 15.0082 13.5821 14.947 13.5749 14.8457C13.6271 14.9523 13.7627 14.9863 14.0486 14.9614L14.0507 14.9466L13.5667 14.7433L13.5659 14.7333C13.5619 14.6867 13.5586 14.6449 13.5562 14.6064ZM13.5532 14.5512C13.554 14.5688 13.555 14.5872 13.5562 14.6064C13.6196 14.7254 13.8298 14.7476 14.1311 14.6548L14.1303 14.6399L13.5523 14.5289L13.5529 14.5445L13.5522 14.5444L13.5513 14.5345L13.5427 14.5426L13.5522 14.5444L13.5532 14.5512ZM14.097 14.6491C13.7801 14.7405 13.5772 14.6978 13.5532 14.5512L13.5529 14.5445L14.097 14.6491ZM14.097 14.6491L14.127 14.6401L14.1277 14.655L14.097 14.6491ZM13.5682 14.7604L13.5667 14.7433L13.5599 14.7404L13.5524 14.7464L13.5559 14.7886C13.5602 14.8096 13.5665 14.8286 13.5749 14.8457C13.5736 14.8273 13.572 14.8074 13.5703 14.7861C13.5994 14.9231 13.715 14.9713 14.0163 14.9487L14.0453 14.9608L14.0474 14.9461L14.0163 14.9487L13.5682 14.7604ZM13.5658 14.7594C13.567 14.7686 13.5685 14.7775 13.5703 14.7861L13.5682 14.7604L13.5658 14.7594ZM13.5658 14.7594L13.5644 14.7468L13.5545 14.7546L13.5658 14.7594ZM13.869 15.2344L13.5743 15.0812C13.5742 15.0822 13.574 15.0832 13.5739 15.0842C13.5725 15.1911 13.7016 15.253 13.869 15.2344ZM13.869 15.2344L13.8907 15.2456L13.8928 15.2312C13.8848 15.2324 13.8769 15.2335 13.869 15.2344Z" fill="#111928"/>
<path fill-rule="evenodd" clip-rule="evenodd" d="M13.2617 9.73381C13.4754 9.61814 13.5642 9.56114 13.719 9.42407L13.7309 9.42852C13.733 9.44047 13.7362 9.4561 13.7395 9.47241C13.7443 9.49604 13.7493 9.52108 13.7519 9.53838C13.6137 9.65522 13.5333 9.70568 13.334 9.81354L13.293 9.83591C13.0839 9.95114 12.9426 10.0644 12.7362 10.3074C12.4783 10.611 12.09 10.9592 11.8612 11.0942L11.7969 11.016C12.0155 10.8808 12.4027 10.5336 12.6595 10.2312C12.8672 9.9866 13.0099 9.87227 13.2207 9.75617L13.2617 9.73381ZM13.7166 9.43132L13.7284 9.43576C13.7252 9.43858 13.7221 9.44136 13.7189 9.44411C13.7181 9.43955 13.7173 9.43524 13.7166 9.43132ZM13.7189 9.44411C13.5689 9.57611 13.4786 9.63362 13.2683 9.7474L13.2274 9.76971C13.0182 9.88498 12.8769 9.99819 12.6704 10.2414C12.4126 10.5449 12.0243 10.8931 11.8056 11.0171L11.8626 11.082C12.0812 10.9469 12.4684 10.5997 12.7253 10.2972C12.9329 10.0528 13.0756 9.93843 13.2862 9.82237L13.3273 9.79995C13.5258 9.69253 13.6056 9.64251 13.7405 9.53487C13.7344 9.51605 13.7248 9.47436 13.7189 9.44411Z" fill="#111928"/>
<path fill-rule="evenodd" clip-rule="evenodd" d="M12.597 11.8966L12.606 11.8845C12.6664 11.9313 12.7237 11.9802 12.7775 12.0312L12.7681 12.0428L12.597 11.8966ZM12.5973 11.8968C12.6573 11.9433 12.7143 11.9919 12.7678 12.0425L12.7773 12.0309L12.6062 11.8847L12.5973 11.8968ZM13.5607 13.0074C13.5608 13.0076 13.561 13.0078 13.5612 13.0079L13.5724 12.9962L13.5722 12.996C13.5723 12.9961 13.5725 12.9962 13.5726 12.9963L13.5613 13.0081L13.5607 13.0074ZM13.4397 12.88L13.5607 13.0074C13.5211 12.9681 13.4811 12.9259 13.4397 12.88ZM13.4393 12.8795C13.4394 12.8797 13.4395 12.8798 13.4397 12.88L13.4392 12.8795L13.4393 12.8795ZM13.4508 12.8681L13.4393 12.8795C13.4392 12.8795 13.4392 12.8794 13.4391 12.8794L13.4507 12.8679L13.4508 12.8681ZM13.4512 12.8685L13.5722 12.996C13.5327 12.9566 13.4927 12.9144 13.4512 12.8685ZM13.4512 12.8685L13.4508 12.8681L13.4508 12.8681C13.4509 12.8682 13.4511 12.8684 13.4512 12.8685Z" fill="#111928"/>
<path fill-rule="evenodd" clip-rule="evenodd" d="M11.8749 11.6732L11.8708 11.6597C11.8767 11.6602 11.8825 11.6608 11.8884 11.6615L11.8749 11.6732ZM12.7258 11.6312C12.7379 11.6606 12.7357 11.6943 12.7211 11.7315C12.7077 11.7654 12.6851 11.8004 12.6526 11.8413C12.6404 11.8565 12.6285 11.8707 12.5973 11.8969C12.378 11.7266 12.1543 11.6218 11.96 11.5991L11.8884 11.6615C12.2848 11.7051 12.7693 12.07 13.0936 12.544C13.4071 13.0022 13.7485 13.292 14.167 13.5213C14.1494 13.5522 14.1441 13.5796 14.139 13.6438L14.1388 13.6455C14.1376 13.6606 14.1369 13.6686 14.1359 13.6776C14.1074 13.9394 13.9907 14.122 13.8332 14.2011C13.7233 14.2564 13.6132 14.2465 13.5688 14.1851C13.5683 14.1692 13.5668 14.1533 13.5642 14.1358L13.5498 14.1382C13.5526 14.1562 13.5592 14.1719 13.5688 14.1851C13.5696 14.2115 13.5677 14.2381 13.5637 14.273C13.5618 14.2893 13.5609 14.2967 13.5602 14.3048C13.5501 14.3962 13.8054 14.4156 13.99 14.282C14.0736 14.2215 14.172 14.0577 14.2143 13.9242L14.2281 13.924C14.2783 14.0718 14.2799 14.1555 14.2235 14.2905C14.1791 14.2657 14.1351 14.2236 14.1038 14.1789C14.1067 14.1749 14.1089 14.1718 14.1098 14.1706L14.1093 14.1706L14.098 14.1703C14.0999 14.1731 14.1018 14.1759 14.1037 14.1787C14.1037 14.1788 14.1038 14.1788 14.1038 14.1789C14.1031 14.18 14.1023 14.1811 14.1014 14.1823C14.0946 14.1918 14.0858 14.2043 14.082 14.2094C14.0702 14.2254 14.0593 14.2387 14.0472 14.2516C14.0405 14.2587 14.0335 14.2655 14.0264 14.2711C14.0179 14.2778 14.0092 14.2828 14.0005 14.2845C14.0015 14.2865 14.0026 14.2885 14.0038 14.2905C14.04 14.3545 14.1033 14.4148 14.1805 14.4606C14.1673 14.5127 14.1643 14.5257 14.1354 14.653C14.0774 14.9089 14.0379 15.0312 13.9572 15.1611C13.8606 15.3167 13.7409 15.4009 13.6478 15.3892C13.5857 15.3815 13.5471 15.333 13.5396 15.2564C13.5462 15.2242 13.5524 15.1943 13.5573 15.1708C13.5389 15.2896 13.5758 15.3649 13.6495 15.3741C13.7361 15.3849 13.8511 15.304 13.945 15.1527C14.0245 15.0248 14.0636 14.9037 14.1212 14.6495C14.1501 14.522 14.1532 14.5089 14.1703 14.4656C14.0966 14.4282 14.0329 14.3686 13.9965 14.2958C13.8037 14.4341 13.5336 14.4132 13.5457 14.3032C13.5464 14.295 13.5473 14.2875 13.5492 14.2711C13.5555 14.2165 13.5565 14.1831 13.5498 14.1381L13.5642 14.1357C13.5779 14.2241 13.7008 14.2508 13.827 14.1873C13.9797 14.1105 14.0935 13.9326 14.1215 13.6759C14.1224 13.6671 14.1231 13.6592 14.1243 13.6442L14.1245 13.6425C14.1298 13.5761 14.1354 13.5471 14.1575 13.5242C13.74 13.3046 13.3968 13.0132 13.0818 12.5529C12.755 12.0752 12.2643 11.7091 11.8697 11.675L11.8656 11.6615L11.956 11.5856C12.1587 11.6069 12.3847 11.7128 12.5962 11.8857C12.6176 11.8605 12.6294 11.8465 12.6414 11.8315C12.6731 11.7917 12.695 11.7578 12.7076 11.7257C12.7291 11.671 12.7212 11.6272 12.6765 11.593C12.6929 11.6052 12.7093 11.6179 12.7258 11.6312ZM13.5812 12.6976C13.586 12.7523 13.5354 12.8112 13.4391 12.8786C13.3392 12.7658 13.2433 12.6404 13.1516 12.5013C13.0422 12.3352 12.9104 12.1774 12.7675 12.0316C12.88 11.9091 12.9296 11.8136 12.8735 11.7613C12.823 11.7132 12.774 11.6699 12.7258 11.6312C12.7181 11.6125 12.7047 11.5956 12.685 11.5806C12.7495 11.6287 12.8152 11.685 12.8832 11.75C12.9495 11.8116 12.897 11.9126 12.7776 12.0312C12.921 12.1669 13.0535 12.3255 13.1636 12.4926C13.2549 12.6311 13.3503 12.7559 13.4402 12.8672C13.5509 12.7824 13.5943 12.7149 13.5481 12.6562C13.5591 12.6702 13.5701 12.684 13.5812 12.6976ZM13.5594 12.6465L13.5481 12.6562C13.5481 12.6562 13.5481 12.6562 13.5481 12.6562L13.5594 12.6465ZM14.1836 13.4594C13.9547 13.33 13.7531 13.181 13.5605 12.9866C13.6716 12.9129 13.7158 12.8387 13.661 12.769C13.626 12.729 13.5926 12.6887 13.5594 12.6465L13.5594 12.6465C13.5725 12.6632 13.5797 12.6802 13.5812 12.6976C13.6037 12.7253 13.6266 12.7523 13.65 12.7791C13.6966 12.8384 13.6568 12.9053 13.5512 12.9859C13.7464 13.1954 13.9516 13.3465 14.1851 13.4776L14.1958 13.4714C14.1965 13.46 14.2089 13.4458 14.248 13.4083L14.2546 13.4018C14.2774 13.3798 14.29 13.3659 14.2977 13.3523C14.3088 13.333 14.3074 13.3162 14.2905 13.3052C14.2953 13.3097 14.3166 13.2706 14.3258 13.2536C14.3268 13.2519 14.3276 13.2504 14.3283 13.2491C14.383 13.1497 14.4363 13.1063 14.5633 13.0833C14.407 13.1849 14.3808 13.3751 14.4982 13.4461C14.5153 13.4544 14.5271 13.4603 14.5435 13.4685L14.544 13.4687C14.5771 13.4854 14.5806 13.4871 14.6017 13.4974C14.7714 13.581 14.8429 13.6851 14.8328 13.811C14.8243 13.9168 14.7603 14.0352 14.6431 14.1811C14.4693 14.3974 14.4002 14.5721 14.2999 14.9605C14.1917 15.3793 14.1167 15.5641 13.9174 15.8003C13.7415 16.0087 13.5038 15.9368 13.4784 15.747C13.469 15.6764 13.4745 15.5959 13.4941 15.4831C13.5006 15.446 13.5216 15.3431 13.5396 15.2564C13.5369 15.2298 13.538 15.1999 13.5432 15.1672C13.5432 15.167 13.5432 15.1669 13.5432 15.1668C13.5485 15.1415 13.5522 15.1238 13.5531 15.1189L13.5673 15.1224C13.563 15.1393 13.5597 15.1554 13.5573 15.1708C13.5573 15.1707 13.5574 15.1706 13.5574 15.1705C13.5627 15.145 13.5664 15.127 13.5674 15.122L13.5532 15.1185C13.5489 15.1353 13.5456 15.1516 13.5432 15.1672C13.5251 15.254 13.4887 15.4291 13.4798 15.4803C13.4599 15.5946 13.4543 15.6766 13.4639 15.7492C13.4911 15.9519 13.7442 16.0285 13.9283 15.8104C14.1295 15.5721 14.2052 15.3855 14.314 14.9645C14.4138 14.5781 14.4822 14.4051 14.6542 14.1909C14.7732 14.0428 14.8385 13.9221 14.8473 13.8123C14.858 13.6793 14.7827 13.5697 14.6078 13.4836C14.5868 13.4733 14.5834 13.4716 14.5503 13.4549L14.5497 13.4547C14.5334 13.4464 14.5215 13.4406 14.5049 13.4325C14.3909 13.3635 14.4274 13.1655 14.606 13.0763L14.6019 13.0619C14.4406 13.0836 14.3781 13.128 14.3157 13.2415C14.3104 13.251 14.2954 13.2795 14.2866 13.296C14.2834 13.3021 14.2811 13.3065 14.2803 13.3079C14.292 13.3241 14.2926 13.3316 14.2853 13.3444C14.2784 13.3563 14.2665 13.3696 14.2448 13.3906L14.2381 13.397C14.2034 13.4303 14.1888 13.4458 14.1836 13.4594ZM14.5633 13.0833C14.5748 13.0759 14.5869 13.0689 14.5997 13.0625L14.6038 13.077C14.5895 13.0789 14.576 13.081 14.5633 13.0833ZM12.685 11.5806C12.6838 11.5797 12.6825 11.5787 12.6812 11.5778L12.6729 11.5904C12.6741 11.5912 12.6754 11.5921 12.6765 11.593C12.6753 11.5921 12.6741 11.5912 12.6728 11.5903L12.6812 11.5778C12.6825 11.5787 12.6838 11.5797 12.685 11.5806ZM14.1126 14.1656C14.1428 14.2101 14.1863 14.2527 14.2201 14.2811C14.2628 14.1599 14.2635 14.0816 14.2212 13.9498C14.196 14.0216 14.1566 14.0997 14.1126 14.1656Z" fill="#111928"/>
<path fill-rule="evenodd" clip-rule="evenodd" d="M14.624 12.8734L14.509 12.7274L14.4963 12.7306L14.4544 12.9209L14.2736 12.9191L14.2681 12.9316L14.3846 13.0847L14.271 13.2309L14.2767 13.2432L14.4637 13.2444L14.5009 13.4287L14.5136 13.4316L14.6309 13.279L14.7932 13.3624L14.8033 13.3537L14.7608 13.1631L14.9247 13.0826L14.9246 13.0689L14.7559 12.9831L14.7996 12.7997L14.7893 12.7912L14.624 12.8734ZM14.7822 12.8117L14.6251 12.8898L14.6164 12.8877L14.5068 12.7487L14.5105 12.734L14.4978 12.7372L14.5068 12.7487L14.4616 12.9303L14.2881 12.9341L14.2794 12.922L14.2739 12.9344L14.2881 12.9341L14.396 13.0846L14.2912 13.2284L14.2768 13.2279L14.2826 13.2402L14.2912 13.2284L14.4708 13.2349L14.5116 13.4105L14.5023 13.422L14.515 13.425L14.5116 13.4105L14.6283 13.2672L14.7862 13.3423L14.7891 13.3571L14.7992 13.3484L14.7862 13.3423L14.7505 13.158L14.9055 13.0757L14.9182 13.0827L14.9181 13.069L14.9055 13.0757L14.7456 12.9884L14.7822 12.8117ZM14.7822 12.8117L14.7956 12.805L14.7853 12.7965L14.7822 12.8117Z" fill="#111928"/>
<path fill-rule="evenodd" clip-rule="evenodd" d="M14.0586 8.85367C14.4441 8.73621 14.7686 8.40267 14.8432 8.04336L14.8527 8.03777C15.2986 8.20176 15.6967 8.41912 16.0638 8.67988C16.2161 8.78805 16.307 8.83149 16.5742 8.93973C16.7015 8.9913 16.7764 9.02566 16.8526 9.07128C16.7128 8.67567 16.8042 8.07383 17.0683 7.54797C17.3806 6.92596 17.4438 6.45729 17.4045 5.78026C17.3826 5.40388 17.5701 5.31036 17.9647 5.3845C18.2221 5.4329 18.4058 5.40895 18.7528 5.31271L18.7798 5.30523C19.1733 5.19587 19.3681 5.17153 19.6635 5.23493C19.9354 5.29322 19.9987 5.56185 19.845 5.68771C19.7867 5.73546 19.7117 5.7727 19.5958 5.81491C19.5593 5.8282 19.4467 5.86595 19.3653 5.89325L19.3653 5.89326C19.3254 5.90663 19.2931 5.91749 19.2808 5.92173L19.2686 5.92612C19.2806 5.91846 19.2908 5.90947 19.2994 5.89935L19.3612 5.87859C19.4426 5.8513 19.5547 5.81368 19.591 5.80047C19.7055 5.75876 19.7793 5.72214 19.836 5.67566C19.9799 5.55788 19.9204 5.30561 19.6606 5.24991C19.368 5.1871 19.175 5.21121 18.7835 5.32001L18.7566 5.32749C18.4076 5.42426 18.2221 5.44844 17.9621 5.39955C17.5755 5.32691 17.3979 5.41549 17.419 5.77933C17.4585 6.4589 17.3949 6.93021 17.0811 7.5551C16.8143 8.08645 16.725 8.69561 16.8736 9.08594L16.8631 9.09537C16.7813 9.04463 16.7055 9.00932 16.5689 8.954C16.3007 8.84535 16.2091 8.80157 16.0556 8.69255C15.6917 8.43399 15.2972 8.21825 14.8556 8.05505L14.8574 8.04662L14.8479 8.05221L14.8556 8.05505C14.7766 8.41687 14.4501 8.75028 14.0675 8.86359C13.969 9.15252 14.1255 9.63029 14.3881 9.91218C14.53 9.98084 14.6775 10.0379 14.831 10.0844C15.3041 10.2279 15.6916 10.2591 16.4614 10.261C16.8566 10.262 17.0109 10.2676 17.1757 10.2952C17.4374 10.3389 17.7956 10.1267 17.8413 9.80033C17.8489 9.74613 17.8597 9.69647 17.8754 9.63961C17.8852 9.60444 17.928 9.46436 17.9239 9.47812C17.9457 9.40548 17.9627 9.34195 17.9793 9.26861C18.0334 9.02999 18.073 8.72184 18.0987 8.27926C18.1086 8.10865 18.1113 8.04107 18.1242 7.67684C18.1404 7.22064 18.1554 7.03531 18.1972 6.90506C18.3063 6.5652 18.3935 6.4126 18.5774 6.3349C18.6511 6.30376 18.7194 6.26636 18.7944 6.21735L18.7968 6.22444L18.8061 6.22766C18.7289 6.27843 18.6588 6.31701 18.5829 6.34909C18.4043 6.42452 18.3188 6.5742 18.211 6.90994C18.1698 7.03814 18.1549 7.22318 18.1388 7.6774C18.1259 8.04178 18.1232 8.10941 18.1133 8.2802C18.0875 8.7236 18.0478 9.0326 17.9935 9.27214C17.9768 9.34587 17.9597 9.40975 17.9378 9.48271C17.9419 9.46915 17.8991 9.60895 17.8894 9.64388C17.8738 9.7001 17.8632 9.7491 17.8557 9.80256C17.8087 10.1383 17.4425 10.3553 17.1734 10.3103C17.0096 10.2829 16.8558 10.2773 16.4614 10.2763C15.6902 10.2744 15.3018 10.2431 14.827 10.0991C14.6727 10.0524 14.5246 9.99506 14.3799 9.92447C14.1115 9.63719 13.9532 9.15363 14.0586 8.85367ZM18.8211 6.21775L18.8061 6.22766L18.8077 6.2282C18.8124 6.22486 18.8169 6.22138 18.8211 6.21775ZM18.8563 6.17533C18.8474 6.19106 18.8356 6.20525 18.8211 6.21775C18.8453 6.20153 18.8703 6.1841 18.8964 6.16531C18.9111 6.15474 18.9435 6.13096 18.9738 6.10866L18.9766 6.10992C18.9876 6.10158 18.9978 6.09304 19.007 6.08421L19.0375 6.06183C19.0903 6.02356 19.1309 5.99627 19.1703 5.9735C19.1935 5.96012 19.2157 5.94862 19.2374 5.93892L19.2402 5.94046C19.2505 5.9364 19.26 5.9316 19.2686 5.92612C19.2583 5.92998 19.2479 5.93424 19.2374 5.93892L19.2286 5.93392L19.2281 5.92651C19.2334 5.92407 19.2387 5.92174 19.244 5.91952L19.2442 5.92168C19.2407 5.92336 19.2371 5.92494 19.2334 5.9264L19.245 5.93294L19.2442 5.92168C19.2492 5.91925 19.254 5.91659 19.2584 5.91372C19.2644 5.91142 19.2703 5.90925 19.2762 5.90721L19.2994 5.89935C19.3643 5.82231 19.3304 5.67906 19.2168 5.54704L19.2019 5.55227L19.2281 5.92651C19.207 5.93606 19.1856 5.94724 19.1633 5.96011C19.1274 5.98088 19.0905 6.00528 19.0447 6.03806C19.1061 5.93726 19.0662 5.79699 18.903 5.54987L18.8899 5.55531L18.9641 6.09712C18.9342 6.11912 18.9026 6.14232 18.8882 6.15269L18.8563 6.17533ZM18.8123 6.20546C18.8267 6.19586 18.8413 6.18583 18.8563 6.17533C18.923 6.05828 18.8363 5.85583 18.6088 5.6282L18.597 5.6363L18.7944 6.21735L18.807 6.20903L18.8072 6.20973L18.7995 6.21554L18.8105 6.2193L18.8072 6.20973L18.8123 6.20546ZM18.6212 5.66205C18.8551 5.90449 18.9214 6.11037 18.8123 6.20546L18.807 6.20903L18.6212 5.66205ZM18.6212 5.66205L18.5988 5.63927L18.6107 5.63117L18.6212 5.66205ZM18.9774 6.08728L18.9641 6.09712L18.9651 6.10479L18.9738 6.10866L18.99 6.09669L18.99 6.09667L19.007 6.08421C19.0222 6.06967 19.0348 6.05438 19.0447 6.03806L19.0292 6.04925L18.9977 6.0724C19.0959 5.97737 19.0779 5.84816 18.9087 5.58561L18.9043 5.55314L18.8911 5.55858L18.9087 5.58561L18.9774 6.08728ZM18.9778 6.08992C18.9849 6.0842 18.9915 6.07837 18.9977 6.0724L18.9816 6.08424L18.9774 6.08728L18.9778 6.08992ZM18.9778 6.08992L18.9681 6.09749L18.9795 6.10262L18.9778 6.08992ZM19.2201 5.57664L19.244 5.91952C19.2489 5.9175 19.2537 5.91557 19.2584 5.91372C19.3475 5.85651 19.329 5.71411 19.2201 5.57664ZM19.2201 5.57664L19.2183 5.55129L19.2035 5.55652C19.2092 5.56321 19.2148 5.56992 19.2201 5.57664Z" fill="#111928"/>
<path fill-rule="evenodd" clip-rule="evenodd" d="M14.6098 8.66308C14.5751 8.64777 14.5388 8.63289 14.5004 8.61835L14.4982 8.60535C14.5075 8.59696 14.5194 8.58578 14.5316 8.57426C14.5483 8.55846 14.5657 8.54201 14.5783 8.53125C14.5974 8.53899 14.6159 8.54683 14.634 8.55479C14.775 8.61677 14.8366 8.6541 15.0232 8.77972C15.2468 8.93035 15.4015 9.0009 15.7206 9.07047C16.1001 9.15327 16.5814 9.33224 16.8069 9.47254L16.7747 9.57023C16.5537 9.43904 16.0738 9.2606 15.6959 9.17828C15.3749 9.10829 15.2187 9.037 14.9936 8.88537C14.8088 8.76093 14.7483 8.72422 14.6098 8.66308ZM14.5076 8.61698L14.5054 8.60397C14.5093 8.60545 14.5131 8.60693 14.517 8.60842C14.5137 8.61148 14.5105 8.61436 14.5076 8.61698ZM14.5812 8.5434C14.5688 8.55839 14.5394 8.58766 14.517 8.60842C14.5513 8.62163 14.5841 8.63513 14.6154 8.64899C14.7549 8.71057 14.816 8.74761 15.0014 8.8725C15.2251 9.02317 15.3798 9.09373 15.6989 9.16331C16.0782 9.24593 16.5594 9.4249 16.7712 9.56177L16.7962 9.47739C16.5757 9.34638 16.0957 9.16794 15.7176 9.08544C15.3966 9.01547 15.2404 8.94417 15.0153 8.79259C14.8294 8.66743 14.7683 8.63043 14.6284 8.56889C14.6274 8.56846 14.6264 8.56802 14.6254 8.56759C14.6084 8.56013 14.5914 8.55266 14.5812 8.5434Z" fill="#111928"/>
<path fill-rule="evenodd" clip-rule="evenodd" d="M17.4917 7.14561C17.5105 7.08932 17.5266 7.03618 17.5404 6.98484L17.5243 6.98096L17.5243 6.98117L17.5243 6.98117C17.5242 6.98121 17.5242 6.98125 17.5242 6.98129L17.4758 7.14098C17.4757 7.14103 17.4757 7.14108 17.4757 7.14113L17.4757 7.14114L17.4757 7.14132L17.4917 7.14561ZM17.4757 7.14114L17.4917 7.14543L17.5404 6.98506L17.5243 6.98117L17.5242 6.98129C17.5105 7.03226 17.4944 7.08505 17.4758 7.14098L17.4757 7.14114ZM15.0002 8.27959C14.9412 8.25663 14.8745 8.22228 14.8097 8.18226L14.8065 8.17326L14.8146 8.14738L14.8146 8.14738C14.8259 8.11051 14.839 8.06829 14.8527 8.03781C15.2986 8.2018 15.6967 8.41915 16.0638 8.67992C16.2161 8.78809 16.307 8.83153 16.5741 8.93977C16.7114 8.99537 16.7878 9.03096 16.8731 9.09271L16.7817 9.24012C16.6677 9.17001 16.3861 9.04378 16.1772 8.96374C16.1764 8.98536 16.1669 9.01015 16.1493 9.04243C16.1453 9.04977 16.141 9.05719 16.1351 9.06728C16.1077 9.11427 16.1023 9.12434 16.0975 9.14074C16.0918 9.16032 16.0959 9.1705 16.1134 9.17592L16.1093 9.19062L16.1092 9.19058L16.1132 9.17589L16.0823 9.16677C16.0797 9.15827 16.0802 9.14801 16.0836 9.13626C16.089 9.11801 16.0944 9.10791 16.1227 9.05929C16.1285 9.04932 16.1327 9.04201 16.1366 9.03483C16.1561 8.99915 16.1647 8.97379 16.1623 8.95363L16.172 8.94548C16.3826 9.02556 16.6722 9.15508 16.7791 9.22964L16.8631 9.0954C16.7812 9.04467 16.7054 9.00935 16.5689 8.95404C16.3007 8.84538 16.2091 8.80161 16.0556 8.69258C15.6895 8.43252 15.2926 8.21577 14.8573 8.04683C14.85 8.07832 14.835 8.13119 14.8222 8.1722L14.8171 8.16908L14.8203 8.17808L14.8222 8.1722C14.8846 8.21046 14.9488 8.24347 15.0097 8.27459C15.0075 8.28239 15.0048 8.2903 15.0016 8.29833C14.9832 8.3444 14.9514 8.3901 14.8988 8.45244L14.8734 8.48209L14.8431 8.51758C14.8235 8.54085 14.8103 8.55813 14.8008 8.57324C14.7792 8.60751 14.7791 8.62649 14.8018 8.63807C14.8244 8.64996 14.8845 8.68803 14.9497 8.73072C14.9499 8.74263 14.9548 8.75207 14.9651 8.75889L14.9728 8.74595L14.9729 8.74596L14.9651 8.7589C14.892 8.71066 14.8199 8.66471 14.7953 8.65178C14.7627 8.63513 14.7629 8.60572 14.7886 8.56481C14.7986 8.54898 14.8122 8.53123 14.8322 8.50747L14.8627 8.47173L14.8879 8.4423C14.9396 8.38114 14.9706 8.33651 14.9882 8.29242L14.9887 8.29125C14.9915 8.28415 14.9941 8.27762 15.0002 8.27959ZM14.9728 8.74595L14.9497 8.73072C14.9494 8.71505 14.9574 8.69511 14.9724 8.67126C14.9915 8.64058 15.0182 8.60763 15.0691 8.54949L15.0756 8.54203C15.1696 8.43472 15.1982 8.39687 15.1975 8.37125L15.2071 8.36376C15.3246 8.40458 15.4344 8.46358 15.5769 8.55582L15.582 8.55919L15.582 8.55919L15.582 8.55919L15.582 8.5592L15.582 8.5592L15.5821 8.55922C15.6108 8.57819 15.7508 8.67059 15.7907 8.69511C15.8657 8.74122 15.9242 8.77013 15.9825 8.79473C15.9761 8.82023 15.9642 8.8481 15.9466 8.8806C15.9376 8.89713 15.9277 8.91403 15.9142 8.93607L15.9135 8.93722L15.9135 8.93723L15.9135 8.93724L15.9135 8.93724L15.9135 8.93725C15.8695 9.009 15.8608 9.02328 15.8544 9.03854C15.8528 9.04233 15.8513 9.04618 15.8495 9.05098L15.8493 9.05161C15.8374 9.08312 15.8418 9.09885 15.8661 9.1052C15.8928 9.11133 15.9372 9.12386 16.0114 9.14578L16.0171 9.14746L16.0676 9.16243L16.0823 9.16677C16.0857 9.1779 16.0945 9.18603 16.1092 9.19058L16.0636 9.17714L16.0131 9.16218L16.0075 9.1605C15.9336 9.13868 15.8893 9.12618 15.8628 9.12009C15.8283 9.11106 15.821 9.08511 15.8357 9.04599L15.8361 9.04499L15.8361 9.04498L15.8361 9.04497L15.8361 9.04496C15.8381 9.03983 15.8396 9.03575 15.8413 9.03173C15.8479 9.01605 15.8569 9.00137 15.9009 8.9295L15.902 8.9278C15.9153 8.90597 15.9251 8.88928 15.9339 8.87304C15.94 8.86179 15.9454 8.85114 15.9503 8.84142L15.9503 8.84142L15.9503 8.84142L15.9503 8.84141C15.9591 8.82399 15.9664 8.80959 15.9735 8.80017C15.9189 8.78445 15.8594 8.75503 15.7833 8.7083C15.743 8.68352 15.6015 8.5901 15.5739 8.57191L15.5739 8.57191L15.5693 8.56884C15.4312 8.4795 15.3243 8.42164 15.2113 8.38139C15.2063 8.41151 15.1753 8.45075 15.0863 8.55238L15.0798 8.55983C15.0295 8.61733 15.0031 8.64991 14.9845 8.67965C14.9623 8.7152 14.9588 8.73663 14.9728 8.74595ZM18.0857 8.69853C18.0962 8.60598 17.9885 8.54146 17.7882 8.50002C17.628 8.46688 17.4132 8.44994 17.1854 8.44802L17.1835 8.46307L18.0767 8.70503L18.0857 8.69853ZM18.0718 8.68792L18.0803 8.69022L18.0712 8.69672C18.0716 8.69376 18.0718 8.69083 18.0718 8.68792ZM17.2459 8.46419C17.4502 8.46838 17.6405 8.48504 17.7854 8.51502C17.9713 8.55349 18.0728 8.6116 18.0718 8.68792L17.2459 8.46419ZM17.2459 8.46419C17.2259 8.46378 17.2056 8.46348 17.1853 8.46331L17.1872 8.44827L17.2459 8.46419ZM17.103 8.40185C17.1126 8.32379 17.1259 8.24779 17.143 8.17408L17.1266 8.17127L17.0865 8.39977L17.103 8.40185ZM17.1029 8.40221L17.0864 8.40013C17.0961 8.32159 17.1095 8.24511 17.1267 8.1709L17.1431 8.1737L17.1029 8.40221Z" fill="#111928"/>
<path fill-rule="evenodd" clip-rule="evenodd" d="M17.3999 7.63321C17.1692 8.16931 17.1125 8.79861 17.2817 9.17444L17.2726 9.18489L17.1648 9.14073C17.081 8.94562 17.0555 8.68717 17.0923 8.40845L17.0554 8.40052C17.0252 8.39415 17.0014 8.39001 16.9782 8.38749C16.8768 8.37648 16.8189 8.40178 16.8107 8.48164C16.8126 8.46044 16.8149 8.4389 16.8177 8.41697C16.8466 8.37622 16.9023 8.36387 16.9797 8.37228C17.0034 8.37485 17.0276 8.37907 17.0583 8.38552C17.0667 8.38729 17.093 8.39299 17.1009 8.40181C17.0702 8.68636 17.0955 8.94214 17.1739 9.13042L17.2612 9.16417C17.2636 9.16983 17.266 9.17543 17.2685 9.18098L17.2776 9.17054L17.2612 9.16417C17.0989 8.78201 17.1577 8.15885 17.3866 7.62692C17.6078 7.11268 17.6762 6.65724 17.656 6.16236C17.6897 6.16297 17.7156 6.154 17.7684 6.12792L17.771 6.12668C17.7855 6.11951 17.7922 6.11625 17.8006 6.11247C18.0307 6.00759 18.2396 6.02244 18.3836 6.12599C18.4836 6.19795 18.5306 6.30237 18.503 6.37341C18.4905 6.38147 18.4795 6.39026 18.4641 6.40319L18.4733 6.41507C18.487 6.40331 18.4968 6.38918 18.503 6.37341C18.5227 6.36063 18.5461 6.34969 18.5959 6.32701L18.6056 6.32251C18.686 6.2857 18.5745 6.04408 18.3719 5.94303C18.3719 5.94303 18.3719 5.94303 18.3719 5.94303C18.2802 5.89725 18.096 5.88958 17.9645 5.91792L17.9575 5.90548C18.0545 5.78578 18.1226 5.74259 18.2622 5.72643C18.264 5.77926 18.2513 5.84034 18.2299 5.891L18.2201 5.88976L18.2203 5.89021L18.2257 5.90064C18.2271 5.89754 18.2285 5.8944 18.2299 5.89122C18.2299 5.89115 18.2299 5.89108 18.2299 5.891L18.2352 5.89166C18.2766 5.89666 18.3039 5.90112 18.3273 5.90983C18.3418 5.91527 18.3548 5.92235 18.3688 5.93225C18.3699 5.93027 18.371 5.92828 18.372 5.92627C18.4067 5.86115 18.4248 5.77353 18.4241 5.68042C18.4625 5.66953 18.5002 5.65814 18.554 5.64132C18.7254 5.58781 18.7548 5.57906 18.8277 5.56221C18.9316 5.53817 19.023 5.52813 19.1134 5.53326C19.2901 5.54328 19.4194 5.6101 19.4564 5.70054C19.481 5.76079 19.4604 5.82001 19.4012 5.86518C19.3874 5.86981 19.3739 5.87433 19.3612 5.87859C19.3474 5.88321 19.3345 5.88754 19.323 5.8914C19.4291 5.84871 19.4721 5.77786 19.443 5.70657C19.4086 5.62248 19.2844 5.55827 19.1126 5.54853C19.0236 5.54348 18.9336 5.55338 18.8308 5.57714C18.7584 5.59388 18.7291 5.60259 18.5582 5.65598C18.5042 5.67283 18.4665 5.68425 18.4332 5.68724C18.4392 5.77297 18.4219 5.86061 18.3801 5.93017C18.5905 6.03632 18.7082 6.2922 18.6115 6.33648L18.6017 6.34104C18.5218 6.37743 18.5115 6.38288 18.4733 6.41511L18.4641 6.40323C18.5301 6.3466 18.4908 6.22161 18.3754 6.13861C18.2356 6.03812 18.032 6.02365 17.8064 6.1265C17.7982 6.1302 17.7915 6.13342 17.7772 6.14051L17.7746 6.14176C17.7198 6.1688 17.6924 6.17831 17.6631 6.16955C17.6908 6.65868 17.6221 7.11658 17.3999 7.63321ZM19.3272 5.90607C19.3562 5.89443 19.381 5.88062 19.4012 5.86518C19.4758 5.84014 19.5604 5.81162 19.5911 5.80047C19.7056 5.75876 19.7794 5.72214 19.8361 5.67566C19.9799 5.55788 19.9204 5.30561 19.6606 5.24991C19.368 5.1871 19.1751 5.21121 18.7835 5.32001L18.7566 5.32749C18.4076 5.42426 18.2222 5.44844 17.9621 5.39955C17.7832 5.36594 17.6535 5.3669 17.562 5.41209C17.4531 5.46587 17.4031 5.58294 17.419 5.77914C17.4197 5.78723 17.4201 5.79243 17.4205 5.79764C17.4213 5.80703 17.4219 5.81642 17.4239 5.84284L17.4241 5.84602C17.4255 5.8644 17.4266 5.87864 17.4284 5.89881C17.4284 6.04106 17.2587 6.11228 17.0969 6.02107C17.0885 6.01059 17.0799 5.99934 17.0712 5.98727L17.0613 5.99819C17.0731 6.00673 17.085 6.01434 17.0969 6.02107C17.1447 6.08073 17.1874 6.11553 17.232 6.13362C17.2739 6.15058 17.3057 6.15309 17.3941 6.15135C17.4083 6.15107 17.4147 6.15096 17.4159 6.15824C17.4166 6.13646 17.4307 6.12694 17.4536 6.12808C17.4694 6.12887 17.4869 6.13351 17.5195 6.14432L17.5238 6.14574C17.5725 6.1619 17.5907 6.16605 17.6003 6.16107L17.6108 6.16767C17.6195 6.44516 17.5974 6.70765 17.5223 6.98996C17.4027 6.93435 17.3279 6.9316 17.3022 7.00362C17.2917 7.0387 17.2808 7.07289 17.2694 7.10683C17.2558 7.11693 17.2454 7.13192 17.2382 7.15216L17.2519 7.15751C17.2519 7.15751 17.2519 7.15751 17.2519 7.15751C17.2579 7.14063 17.2637 7.12376 17.2694 7.10683C17.3121 7.07511 17.386 7.09174 17.4897 7.14558C17.4467 7.29288 17.3912 7.44281 17.3224 7.59566C17.24 7.7781 17.1759 7.97678 17.127 8.17987C16.97 8.13874 16.8661 8.14138 16.851 8.2186C16.8366 8.28842 16.8255 8.35427 16.8177 8.41697C16.8061 8.43325 16.7989 8.45406 16.7962 8.4799C16.7961 8.48165 16.7959 8.4834 16.7958 8.48515L16.8103 8.48645C16.8104 8.48482 16.8106 8.48322 16.8107 8.48164C16.8106 8.48327 16.8104 8.48491 16.8103 8.48654L16.7958 8.48524M17.5966 6.1781C17.5827 6.18019 17.5626 6.17466 17.5194 6.16032L17.5152 6.1589C17.4838 6.14852 17.467 6.14405 17.4529 6.14335C17.4373 6.14257 17.4309 6.1469 17.4233 6.16615L17.3943 6.16663C17.3041 6.16841 17.271 6.16581 17.2268 6.14788C17.1715 6.12547 17.1196 6.07932 17.0596 5.99653L17.0695 5.98561C17.2323 6.10349 17.4138 6.03774 17.4138 5.89952C17.4121 5.87997 17.411 5.86565 17.4096 5.8472L17.4094 5.84402C17.4074 5.81762 17.4067 5.80825 17.406 5.79888C17.4056 5.79369 17.4052 5.78851 17.4045 5.78044C17.3881 5.57837 17.4408 5.45506 17.5558 5.39826C17.6508 5.35136 17.7831 5.35037 17.9647 5.3845C18.2221 5.4329 18.4058 5.40895 18.7529 5.31271L18.7798 5.30523C19.1733 5.19587 19.3682 5.17153 19.6635 5.23493C19.9354 5.29322 19.9988 5.56185 19.845 5.68771C19.7868 5.73546 19.7117 5.7727 19.5958 5.81491C19.5593 5.8282 19.4468 5.86596 19.3654 5.89325C19.3516 5.89788 19.3386 5.90221 19.3272 5.90607C19.3126 5.9119 19.297 5.91718 19.2804 5.92186L19.2763 5.90721C19.2844 5.9044 19.3012 5.89875 19.323 5.8914C19.3087 5.89716 19.2932 5.90242 19.2766 5.90709L19.2808 5.92173C19.2888 5.91896 19.3055 5.91336 19.3272 5.90607M17.9822 5.89886C18.0541 5.88581 18.1383 5.88262 18.2145 5.88965C18.2363 5.84012 18.2496 5.77927 18.2561 5.73424C18.1348 5.75593 18.0699 5.79436 17.9822 5.89886Z" fill="#111928"/>
</g>
</svg>
