<svg width="28" height="20" viewBox="0 0 28 20" fill="none" xmlns="http://www.w3.org/2000/svg">
<rect x="0.25" y="0.25" width="27.5" height="19.5" rx="1.75" fill="white" stroke="#F5F5F5" stroke-width="0.5"/>
<mask id="mask0_267_1379" style="mask-type:luminance" maskUnits="userSpaceOnUse" x="0" y="0" width="28" height="20">
<rect x="0.25" y="0.25" width="27.5" height="19.5" rx="1.75" fill="white" stroke="white" stroke-width="0.5"/>
</mask>
<g mask="url(#mask0_267_1379)">
<path fill-rule="evenodd" clip-rule="evenodd" d="M0 6.66667H28V0H0V6.66667Z" fill="#38BB56"/>
<path fill-rule="evenodd" clip-rule="evenodd" d="M0 20H28V13.3334H0V20Z" fill="#DE1B27"/>
<path fill-rule="evenodd" clip-rule="evenodd" d="M1.66671 5.33337C1.48261 5.33337 1.33337 5.48261 1.33337 5.66671V6.33337C1.33337 6.51747 1.48261 6.66671 1.66671 6.66671H2.33337C2.51747 6.66671 2.66671 6.51747 2.66671 6.33337V5.66671C2.66671 5.48261 2.51747 5.33337 2.33337 5.33337H1.66671ZM4.33337 5.33337C4.14928 5.33337 4.00004 5.48261 4.00004 5.66671V6.33337C4.00004 6.51747 4.14928 6.66671 4.33337 6.66671H5.00004C5.18414 6.66671 5.33337 6.51747 5.33337 6.33337V5.66671C5.33337 5.48261 5.18414 5.33337 5.00004 5.33337H4.33337ZM6.66671 5.66671C6.66671 5.48261 6.81595 5.33337 7.00004 5.33337H7.66671C7.8508 5.33337 8.00004 5.48261 8.00004 5.66671V6.33337C8.00004 6.51747 7.8508 6.66671 7.66671 6.66671H7.00004C6.81595 6.66671 6.66671 6.51747 6.66671 6.33337V5.66671ZM9.66671 5.33337C9.48261 5.33337 9.33337 5.48261 9.33337 5.66671V6.33337C9.33337 6.51747 9.48261 6.66671 9.66671 6.66671H10.3334C10.5175 6.66671 10.6667 6.51747 10.6667 6.33337V5.66671C10.6667 5.48261 10.5175 5.33337 10.3334 5.33337H9.66671ZM12 5.66671C12 5.48261 12.1493 5.33337 12.3334 5.33337H13C13.1841 5.33337 13.3334 5.48261 13.3334 5.66671V6.33337C13.3334 6.51747 13.1841 6.66671 13 6.66671H12.3334C12.1493 6.66671 12 6.51747 12 6.33337V5.66671ZM15 5.33337C14.8159 5.33337 14.6667 5.48261 14.6667 5.66671V6.33337C14.6667 6.51747 14.8159 6.66671 15 6.66671H15.6667C15.8508 6.66671 16 6.51747 16 6.33337V5.66671C16 5.48261 15.8508 5.33337 15.6667 5.33337H15ZM17.3334 5.66671C17.3334 5.48261 17.4826 5.33337 17.6667 5.33337H18.3334C18.5175 5.33337 18.6667 5.48261 18.6667 5.66671V6.33337C18.6667 6.51747 18.5175 6.66671 18.3334 6.66671H17.6667C17.4826 6.66671 17.3334 6.51747 17.3334 6.33337V5.66671ZM20.3334 5.33337C20.1493 5.33337 20 5.48261 20 5.66671V6.33337C20 6.51747 20.1493 6.66671 20.3334 6.66671H21C21.1841 6.66671 21.3334 6.51747 21.3334 6.33337V5.66671C21.3334 5.48261 21.1841 5.33337 21 5.33337H20.3334ZM22.6667 5.66671C22.6667 5.48261 22.8159 5.33337 23 5.33337H23.6667C23.8508 5.33337 24 5.48261 24 5.66671V6.33337C24 6.51747 23.8508 6.66671 23.6667 6.66671H23C22.8159 6.66671 22.6667 6.51747 22.6667 6.33337V5.66671ZM25.6667 5.33337C25.4826 5.33337 25.3334 5.48261 25.3334 5.66671V6.33337C25.3334 6.51747 25.4826 6.66671 25.6667 6.66671H26.3334C26.5175 6.66671 26.6667 6.51747 26.6667 6.33337V5.66671C26.6667 5.48261 26.5175 5.33337 26.3334 5.33337H25.6667ZM1.33337 13.6667C1.33337 13.4826 1.48261 13.3334 1.66671 13.3334H2.33337C2.51747 13.3334 2.66671 13.4826 2.66671 13.6667V14.3334C2.66671 14.5175 2.51747 14.6667 2.33337 14.6667H1.66671C1.48261 14.6667 1.33337 14.5175 1.33337 14.3334V13.6667ZM4.33337 13.3334C4.14928 13.3334 4.00004 13.4826 4.00004 13.6667V14.3334C4.00004 14.5175 4.14928 14.6667 4.33337 14.6667H5.00004C5.18414 14.6667 5.33337 14.5175 5.33337 14.3334V13.6667C5.33337 13.4826 5.18414 13.3334 5.00004 13.3334H4.33337ZM6.66671 13.6667C6.66671 13.4826 6.81595 13.3334 7.00004 13.3334H7.66671C7.8508 13.3334 8.00004 13.4826 8.00004 13.6667V14.3334C8.00004 14.5175 7.8508 14.6667 7.66671 14.6667H7.00004C6.81595 14.6667 6.66671 14.5175 6.66671 14.3334V13.6667ZM9.66671 13.3334C9.48261 13.3334 9.33337 13.4826 9.33337 13.6667V14.3334C9.33337 14.5175 9.48261 14.6667 9.66671 14.6667H10.3334C10.5175 14.6667 10.6667 14.5175 10.6667 14.3334V13.6667C10.6667 13.4826 10.5175 13.3334 10.3334 13.3334H9.66671ZM12 13.6667C12 13.4826 12.1493 13.3334 12.3334 13.3334H13C13.1841 13.3334 13.3334 13.4826 13.3334 13.6667V14.3334C13.3334 14.5175 13.1841 14.6667 13 14.6667H12.3334C12.1493 14.6667 12 14.5175 12 14.3334V13.6667ZM15 13.3334C14.8159 13.3334 14.6667 13.4826 14.6667 13.6667V14.3334C14.6667 14.5175 14.8159 14.6667 15 14.6667H15.6667C15.8508 14.6667 16 14.5175 16 14.3334V13.6667C16 13.4826 15.8508 13.3334 15.6667 13.3334H15ZM17.3334 13.6667C17.3334 13.4826 17.4826 13.3334 17.6667 13.3334H18.3334C18.5175 13.3334 18.6667 13.4826 18.6667 13.6667V14.3334C18.6667 14.5175 18.5175 14.6667 18.3334 14.6667H17.6667C17.4826 14.6667 17.3334 14.5175 17.3334 14.3334V13.6667ZM20.3334 13.3334C20.1493 13.3334 20 13.4826 20 13.6667V14.3334C20 14.5175 20.1493 14.6667 20.3334 14.6667H21C21.1841 14.6667 21.3334 14.5175 21.3334 14.3334V13.6667C21.3334 13.4826 21.1841 13.3334 21 13.3334H20.3334ZM22.6667 13.6667C22.6667 13.4826 22.8159 13.3334 23 13.3334H23.6667C23.8508 13.3334 24 13.4826 24 13.6667V14.3334C24 14.5175 23.8508 14.6667 23.6667 14.6667H23C22.8159 14.6667 22.6667 14.5175 22.6667 14.3334V13.6667ZM25.6667 13.3334C25.4826 13.3334 25.3334 13.4826 25.3334 13.6667V14.3334C25.3334 14.5175 25.4826 14.6667 25.6667 14.6667H26.3334C26.5175 14.6667 26.6667 14.5175 26.6667 14.3334V13.6667C26.6667 13.4826 26.5175 13.3334 26.3334 13.3334H25.6667Z" fill="white" fill-opacity="0.5"/>
<mask id="path-6-inside-1_267_1379" fill="white">
<path fill-rule="evenodd" clip-rule="evenodd" d="M12.6535 8.52112C12.252 8.88691 12 9.41402 12 9.99998C12 11.1045 12.8954 12 14 12C15.1046 12 16 11.1045 16 9.99998C16 9.42508 15.7574 8.90683 15.3691 8.542"/>
</mask>
<path d="M12.2045 8.0283C11.6702 8.5151 11.3333 9.21867 11.3333 9.99998H12.6667C12.6667 9.60936 12.8338 9.25872 13.1025 9.01394L12.2045 8.0283ZM11.3333 9.99998C11.3333 11.4727 12.5272 12.6666 14 12.6666V11.3333C13.2636 11.3333 12.6667 10.7364 12.6667 9.99998H11.3333ZM14 12.6666C15.4728 12.6666 16.6667 11.4727 16.6667 9.99998H15.3333C15.3333 10.7364 14.7364 11.3333 14 11.3333V12.6666ZM16.6667 9.99998C16.6667 9.23349 16.3424 8.54167 15.8255 8.0561L14.9126 9.0279C15.1724 9.27199 15.3333 9.61666 15.3333 9.99998H16.6667Z" fill="#D80915" mask="url(#path-6-inside-1_267_1379)"/>
<rect x="13.3334" y="9.33337" width="1.33333" height="2.66667" rx="0.666667" fill="#D80915"/>
</g>
</svg>
