<svg width="28" height="20" viewBox="0 0 28 20" fill="none" xmlns="http://www.w3.org/2000/svg">
<rect x="0.25" y="0.25" width="27.5" height="19.5" rx="1.75" fill="white" stroke="#F5F5F5" stroke-width="0.5"/>
<mask id="mask0_267_3072" style="mask-type:luminance" maskUnits="userSpaceOnUse" x="0" y="0" width="28" height="20">
<rect x="0.25" y="0.25" width="27.5" height="19.5" rx="1.75" fill="white" stroke="white" stroke-width="0.5"/>
</mask>
<g mask="url(#mask0_267_3072)">
<rect x="-6.31152" y="-2.58276" width="2.66667" height="49.3333" transform="rotate(-55 -6.31152 -2.58276)" fill="#E3243B"/>
<rect width="2.66667" height="49.3333" transform="matrix(-0.573576 -0.819152 -0.819152 0.573576 35.6295 -2.58276)" fill="#E3243B"/>
<path fill-rule="evenodd" clip-rule="evenodd" d="M15.7407 2.66671H13.5925L13.6798 2.61551L12.693 2.04567L13.9688 2.18813L13.7895 1.33337L14.6666 2.04567L15.5438 1.33337L15.3644 2.18813L16.6402 2.04567L15.6534 2.61551L15.7407 2.66671Z" fill="#FAEF32"/>
<path fill-rule="evenodd" clip-rule="evenodd" d="M12.6666 5.16675C12.6666 4.79594 12.6666 4.38236 12.6666 4.00003C12.6666 3.26365 13.2636 2.66675 14 2.66675H15.3333C16.0697 2.66675 16.6666 3.26365 16.6666 4.00003C16.6666 4.38236 16.6666 4.79594 16.6666 5.16675C16.6666 6.95246 14.6666 7.66675 14.6666 7.66675C14.6666 7.66675 12.6666 6.95246 12.6666 5.16675Z" fill="#E3243B"/>
<mask id="mask1_267_3072" style="mask-type:luminance" maskUnits="userSpaceOnUse" x="12" y="2" width="5" height="6">
<path fill-rule="evenodd" clip-rule="evenodd" d="M12.6666 5.16675C12.6666 4.79594 12.6666 4.38236 12.6666 4.00003C12.6666 3.26365 13.2636 2.66675 14 2.66675H15.3333C16.0697 2.66675 16.6666 3.26365 16.6666 4.00003C16.6666 4.38236 16.6666 4.79594 16.6666 5.16675C16.6666 6.95246 14.6666 7.66675 14.6666 7.66675C14.6666 7.66675 12.6666 6.95246 12.6666 5.16675Z" fill="white"/>
</mask>
<g mask="url(#mask1_267_3072)">
<rect x="14.3333" y="6.66675" width="0.666667" height="0.666667" rx="0.333333" fill="#FAEF32"/>
<rect x="13.3333" y="5.33337" width="2.66667" height="0.666667" rx="0.333333" fill="#FAEF32"/>
<rect x="13.3333" y="4" width="2.66667" height="0.666667" rx="0.333333" fill="#FAEF32"/>
</g>
</g>
</svg>
