<svg width="28" height="20" viewBox="0 0 28 20" fill="none" xmlns="http://www.w3.org/2000/svg">
<rect width="28" height="20" rx="2" fill="white"/>
<mask id="mask0_267_1505" style="mask-type:luminance" maskUnits="userSpaceOnUse" x="0" y="0" width="28" height="20">
<rect width="28" height="20" rx="2" fill="white"/>
</mask>
<g mask="url(#mask0_267_1505)">
<rect width="28" height="20" fill="#F22A46"/>
<path fill-rule="evenodd" clip-rule="evenodd" d="M14 13.3333C15.8409 13.3333 17.3333 11.8409 17.3333 9.99996C17.3333 8.15901 15.8409 6.66663 14 6.66663C12.159 6.66663 10.6666 8.15901 10.6666 9.99996C10.6666 11.8409 12.159 13.3333 14 13.3333Z" fill="#FFF04D"/>
<path fill-rule="evenodd" clip-rule="evenodd" d="M12.3681 17.1495L14 14.7137L15.6318 17.1495L16.0451 14.2469L18.5722 15.7335L17.6852 12.9389L20.6071 13.1819L18.5954 11.0489L21.3333 10.0001L18.5954 8.95118L20.6071 6.81824L17.6852 7.06117L18.5722 4.26663L16.0451 5.75324L15.6318 2.85059L14 5.28644L12.3681 2.85059L11.9548 5.75324L9.4277 4.26663L10.3147 7.06117L7.39285 6.81824L9.40453 8.95118L6.66663 10.0001L9.40453 11.0489L7.39285 13.1819L10.3147 12.9389L9.4277 15.7335L11.9548 14.2469L12.3681 17.1495ZM18.6666 10.0001C18.6666 12.5774 16.5773 14.6667 14 14.6667C11.4226 14.6667 9.33329 12.5774 9.33329 10.0001C9.33329 7.42273 11.4226 5.33339 14 5.33339C16.5773 5.33339 18.6666 7.42273 18.6666 10.0001Z" fill="#FFF04D"/>
</g>
</svg>
