<svg width="28" height="20" viewBox="0 0 28 20" fill="none" xmlns="http://www.w3.org/2000/svg">
<rect width="28" height="20" rx="2" fill="white"/>
<mask id="mask0_267_1448" style="mask-type:luminance" maskUnits="userSpaceOnUse" x="0" y="0" width="28" height="20">
<rect width="28" height="20" rx="2" fill="white"/>
</mask>
<g mask="url(#mask0_267_1448)">
<path fill-rule="evenodd" clip-rule="evenodd" d="M0 5.33333H28V0H0V5.33333Z" fill="#0F3EB6"/>
<path fill-rule="evenodd" clip-rule="evenodd" d="M0 20H28V14.6666H0V20Z" fill="#0F3EB6"/>
<path fill-rule="evenodd" clip-rule="evenodd" d="M0 14.6667H28V5.33337H0V14.6667Z" fill="#ED1A3C"/>
<path fill-rule="evenodd" clip-rule="evenodd" d="M12 8.72725H13.3333V8.00004C13.3333 7.63185 13.6318 7.33337 14 7.33337C14.3681 7.33337 14.6666 7.63185 14.6666 8.00004V8.72725H16V10H12V8.72725ZM17.3333 8.00004C16.9651 8.00004 16.6666 8.29852 16.6666 8.66671V10H18V8.66671C18 8.29852 17.7015 8.00004 17.3333 8.00004ZM11.3333 13.3334V10.6667H9.99996L8.66663 13.3334H11.3333ZM12 10.6667V13.3334H16V10.6667H12ZM16.6666 10.6667H18L19.3333 13.3334H16.6666V10.6667ZM10.6666 8.00004C10.2984 8.00004 9.99996 8.29852 9.99996 8.66671V10H11.3333V8.66671C11.3333 8.29852 11.0348 8.00004 10.6666 8.00004Z" fill="white"/>
</g>
</svg>
