<svg width="28" height="20" viewBox="0 0 28 20" fill="none" xmlns="http://www.w3.org/2000/svg">
<rect x="0.25" y="0.25" width="27.5" height="19.5" rx="1.75" fill="white" stroke="#F5F5F5" stroke-width="0.5"/>
<mask id="mask0_267_1513" style="mask-type:luminance" maskUnits="userSpaceOnUse" x="0" y="0" width="28" height="20">
<rect x="0.25" y="0.25" width="27.5" height="19.5" rx="1.75" fill="white" stroke="white" stroke-width="0.5"/>
</mask>
<g mask="url(#mask0_267_1513)">
<path fill-rule="evenodd" clip-rule="evenodd" d="M14 14.6667C16.5774 14.6667 18.6667 12.5774 18.6667 10C18.6667 7.42271 16.5774 5.33337 14 5.33337C11.4227 5.33337 9.33337 7.42271 9.33337 10C9.33337 12.5774 11.4227 14.6667 14 14.6667Z" fill="#E01B41"/>
<mask id="mask1_267_1513" style="mask-type:luminance" maskUnits="userSpaceOnUse" x="9" y="5" width="10" height="10">
<path fill-rule="evenodd" clip-rule="evenodd" d="M14 14.6667C16.5774 14.6667 18.6667 12.5774 18.6667 10C18.6667 7.42271 16.5774 5.33337 14 5.33337C11.4227 5.33337 9.33337 7.42271 9.33337 10C9.33337 12.5774 11.4227 14.6667 14 14.6667Z" fill="white"/>
</mask>
<g mask="url(#mask1_267_1513)">
<path fill-rule="evenodd" clip-rule="evenodd" d="M9.33332 10.6667C10.6666 11.9167 12.6666 12.6667 14 10.6667C15.3333 8.66675 18 8.66675 18.6666 10.6667C19.3333 12.6667 18.6666 14.6667 18.6666 14.6667H9.33332C9.33332 14.6667 7.99998 9.41675 9.33332 10.6667Z" fill="#0E4B9C"/>
</g>
<path opacity="0.75" fill-rule="evenodd" clip-rule="evenodd" d="M6.17305 3.55661C6.2651 3.39718 6.46896 3.34256 6.62839 3.43461L7.20574 3.76794C7.36517 3.85999 7.4198 4.06385 7.32775 4.22328L5.66108 7.11003C5.56904 7.26946 5.36517 7.32409 5.20574 7.23204L4.62839 6.89871C4.46896 6.80666 4.41434 6.6028 4.50638 6.44337L6.17305 3.55661ZM20.7942 3.76794C20.6348 3.85999 20.5801 4.06385 20.6722 4.22328L22.3389 7.11003C22.4309 7.26946 22.6348 7.32409 22.7942 7.23204L23.3715 6.89871C23.531 6.80666 23.5856 6.6028 23.4936 6.44337L21.8269 3.55661C21.7348 3.39718 21.531 3.34256 21.3715 3.43461L20.7942 3.76794ZM19.0621 4.76794C18.9027 4.85999 18.8481 5.06385 18.9401 5.22328L20.6068 8.11003C20.6989 8.26946 20.9027 8.32409 21.0621 8.23204L21.6395 7.89871C21.7989 7.80666 21.8536 7.6028 21.7615 7.44337L20.0948 4.55661C20.0028 4.39718 19.7989 4.34256 19.6395 4.43461L19.0621 4.76794ZM4.50638 13.5566C4.41434 13.3972 4.46896 13.1933 4.62839 13.1013L5.20574 12.7679C5.36517 12.6759 5.56904 12.7305 5.66108 12.8899L7.32775 15.7767C7.4198 15.9361 7.36517 16.14 7.20574 16.232L6.62839 16.5654C6.46896 16.6574 6.2651 16.6028 6.17305 16.4434L4.50638 13.5566ZM6.36044 12.1013C6.20101 12.1933 6.14639 12.3972 6.23843 12.5566L7.9051 15.4434C7.99715 15.6028 8.20101 15.6574 8.36044 15.5654L8.93779 15.232C9.09722 15.14 9.15185 14.9361 9.0598 14.7767L7.39314 11.8899C7.30109 11.7305 7.09722 11.6759 6.93779 11.7679L6.36044 12.1013ZM20.6068 11.8899C20.6989 11.7305 20.9027 11.6759 21.0621 11.7679L21.6395 12.1013C21.7989 12.1933 21.8536 12.3972 21.7615 12.5566L20.0948 15.4434C20.0028 15.6028 19.7989 15.6574 19.6395 15.5654L19.0621 15.232C18.9027 15.14 18.8481 14.9361 18.9401 14.7767L20.6068 11.8899ZM22.7942 12.7679C22.6348 12.6759 22.4309 12.7305 22.3389 12.8899L20.6722 15.7767C20.5801 15.9361 20.6348 16.14 20.7942 16.232L21.3715 16.5654C21.531 16.6574 21.7348 16.6028 21.8269 16.4434L23.4936 13.5566C23.5856 13.3972 23.531 13.1933 23.3715 13.1013L22.7942 12.7679ZM8.36044 4.43461C8.20101 4.34256 7.99715 4.39718 7.9051 4.55661L6.23843 7.44337C6.14639 7.6028 6.20101 7.80666 6.36044 7.89871L6.93779 8.23204C7.09722 8.32409 7.30109 8.26946 7.39314 8.11003L9.0598 5.22328C9.15185 5.06385 9.09722 4.85999 8.93779 4.76794L8.36044 4.43461Z" fill="#262626"/>
</g>
</svg>
