<svg width="28" height="20" viewBox="0 0 28 20" fill="none" xmlns="http://www.w3.org/2000/svg">
<rect x="0.25" y="0.25" width="27.5" height="19.5" rx="1.75" fill="white" stroke="#F5F5F5" stroke-width="0.5"/>
<mask id="mask0_267_1624" style="mask-type:luminance" maskUnits="userSpaceOnUse" x="0" y="0" width="28" height="20">
<rect x="0.25" y="0.25" width="27.5" height="19.5" rx="1.75" fill="white" stroke="white" stroke-width="0.5"/>
</mask>
<g mask="url(#mask0_267_1624)">
<path fill-rule="evenodd" clip-rule="evenodd" d="M0 5.33333H28V0H0V5.33333Z" fill="#F03340"/>
<path fill-rule="evenodd" clip-rule="evenodd" d="M0 20H28V14.6666H0V20Z" fill="#F03340"/>
<path fill-rule="evenodd" clip-rule="evenodd" d="M12.9428 12.3905C13.1585 12.1748 13.1585 11.8251 12.9428 11.6094L12.8661 11.5327C12.7424 11.409 12.5628 11.3593 12.3931 11.4017L12.0138 11.4965C11.5701 11.6074 11.2948 11.0289 11.6606 10.7545L12.0033 10.4975C12.2158 10.3381 12.1031 9.99996 11.8375 9.99996C11.5458 9.99996 11.453 9.60679 11.7139 9.47635L12.2861 9.19023C12.547 9.0598 12.4542 8.66663 12.1625 8.66663C11.8969 8.66663 11.7842 8.32849 11.9967 8.16912L13.6 6.96663C13.837 6.78885 14.163 6.78885 14.4 6.96663L16.0033 8.16912C16.2158 8.32849 16.1031 8.66663 15.8375 8.66663C15.5458 8.66663 15.453 9.0598 15.7139 9.19023L16.2861 9.47635C16.547 9.60679 16.4542 9.99996 16.1625 9.99996C15.8969 9.99996 15.7842 10.3381 15.9967 10.4975L16.3394 10.7545C16.7052 11.0289 16.4299 11.6074 15.9862 11.4965L15.6069 11.4017C15.4372 11.3593 15.2576 11.409 15.1339 11.5327L15.0572 11.6094C14.8415 11.8251 14.8415 12.1748 15.0572 12.3905C15.4051 12.7384 15.1587 13.3333 14.6667 13.3333H13.3333C12.8413 13.3333 12.5949 12.7384 12.9428 12.3905Z" fill="#1FC065"/>
</g>
</svg>
