<svg width="28" height="20" viewBox="0 0 28 20" fill="none" xmlns="http://www.w3.org/2000/svg">
<rect x="0.25" y="0.25" width="27.5" height="19.5" rx="1.75" fill="white" stroke="#F5F5F5" stroke-width="0.5"/>
<mask id="mask0_267_1617" style="mask-type:luminance" maskUnits="userSpaceOnUse" x="0" y="0" width="28" height="20">
<rect x="0.25" y="0.25" width="27.5" height="19.5" rx="1.75" fill="white" stroke="white" stroke-width="0.5"/>
</mask>
<g mask="url(#mask0_267_1617)">
<path fill-rule="evenodd" clip-rule="evenodd" d="M0 6.66667H28V0H0V6.66667Z" fill="#0C33B8"/>
<path fill-rule="evenodd" clip-rule="evenodd" d="M0 20H28V13.3334H0V20Z" fill="#1DB158"/>
<path fill-rule="evenodd" clip-rule="evenodd" d="M13.3334 10L13.3676 9.89741C13.5702 9.28961 14.4299 9.28961 14.6325 9.89741L14.6667 10L15.8484 11.7727C15.9366 11.9049 15.9172 12.0792 15.7853 12.1678C15.4916 12.3653 14.8965 12.6667 14 12.6667C13.1035 12.6667 12.5084 12.3653 12.2147 12.1678C12.0828 12.0792 12.0635 11.9049 12.1516 11.7727L13.3334 10Z" fill="#262626"/>
<path d="M15 8.66671C15 9.21899 14.5522 9.66671 14 9.66671C13.4477 9.66671 13 9.21899 13 8.66671C13 8.11442 13.4477 7.66671 14 7.66671C14.5522 7.66671 15 8.11442 15 8.66671Z" stroke="#262626" stroke-width="0.666667"/>
</g>
</svg>
