<svg width="28" height="20" viewBox="0 0 28 20" fill="none" xmlns="http://www.w3.org/2000/svg">
<rect width="28" height="20" rx="2" fill="white"/>
<mask id="mask0_267_1743" style="mask-type:luminance" maskUnits="userSpaceOnUse" x="0" y="0" width="28" height="20">
<rect width="28" height="20" rx="2" fill="white"/>
</mask>
<g mask="url(#mask0_267_1743)">
<path fill-rule="evenodd" clip-rule="evenodd" d="M9.33337 20H18.6667V0H9.33337V20Z" fill="#146BBC"/>
<path fill-rule="evenodd" clip-rule="evenodd" d="M0 20H9.33333V0H0V20Z" fill="#E43642"/>
<path fill-rule="evenodd" clip-rule="evenodd" d="M18.6666 20H28V0H18.6666V20Z" fill="#E43642"/>
<path fill-rule="evenodd" clip-rule="evenodd" d="M4.66663 10L5.33329 10.6667L4.66663 10.6667L3.99996 10.6667L4.66663 10ZM4.66663 12C4.29844 12 3.99996 11.7015 3.99996 11.3333C3.99996 10.9651 4.29844 10.6667 4.66663 10.6667C5.03482 10.6667 5.33329 10.9651 5.33329 11.3333C5.33329 11.7015 5.03482 12 4.66663 12ZM5.33329 12H4.66663H3.99996H2.66663V16H3.99996V14.6667L4.66663 16L5.33329 14.6667V16H6.66663V12H5.33329ZM4.66663 13.3333L5.33329 12V14C5.33329 13.6318 5.03482 13.3333 4.66663 13.3333ZM3.99996 14C3.99996 13.6318 4.29844 13.3333 4.66663 13.3333L3.99996 12V14ZM4.66663 14.6667H3.99996V14C3.99996 14.3682 4.29844 14.6667 4.66663 14.6667ZM4.66663 14.6667H5.33329V14C5.33329 14.3682 5.03482 14.6667 4.66663 14.6667Z" fill="url(#paint0_linear_267_1743)"/>
</g>
<defs>
<linearGradient id="paint0_linear_267_1743" x1="2.66663" y1="10" x2="2.66663" y2="16" gradientUnits="userSpaceOnUse">
<stop stop-color="#F8D246"/>
<stop offset="1" stop-color="#F9CE2F"/>
</linearGradient>
</defs>
</svg>
