<svg width="28" height="20" viewBox="0 0 28 20" fill="none" xmlns="http://www.w3.org/2000/svg">
<rect x="0.25" y="0.25" width="27.5" height="19.5" rx="1.75" fill="white" stroke="#F5F5F5" stroke-width="0.5"/>
<mask id="mask0_267_1734" style="mask-type:luminance" maskUnits="userSpaceOnUse" x="0" y="0" width="28" height="20">
<rect x="0.25" y="0.25" width="27.5" height="19.5" rx="1.75" fill="white" stroke="white" stroke-width="0.5"/>
</mask>
<g mask="url(#mask0_267_1734)">
<rect x="18.6666" width="9.33333" height="20" fill="#E3283E"/>
<path fill-rule="evenodd" clip-rule="evenodd" d="M0 20H9.33333V0H0V20Z" fill="#128A60"/>
<path d="M12 9.33337C12 8.96518 11.7016 8.66671 11.3334 8.66671C10.9652 8.66671 10.6667 8.96518 10.6667 9.33337H12ZM12.3291 12.2181C12.6475 12.4029 13.0555 12.2946 13.2403 11.9761C13.4251 11.6576 13.3167 11.2497 12.9982 11.0649L12.3291 12.2181ZM15.0757 11.0199C14.7655 11.2183 14.6749 11.6305 14.8733 11.9407C15.0716 12.2509 15.4839 12.3415 15.7941 12.1431L15.0757 11.0199ZM17.3334 9.33337C17.3334 8.96518 17.0349 8.66671 16.6667 8.66671C16.2985 8.66671 16 8.96518 16 9.33337H17.3334ZM10.6667 9.33337C10.6667 10.5664 11.3366 11.6423 12.3291 12.2181L12.9982 11.0649C12.4 10.7177 12 10.0719 12 9.33337H10.6667ZM15.7941 12.1431C16.7183 11.552 17.3334 10.5147 17.3334 9.33337H16C16 10.0411 15.633 10.6635 15.0757 11.0199L15.7941 12.1431Z" fill="#8C9157"/>
<path fill-rule="evenodd" clip-rule="evenodd" d="M14 10.6666C14.7363 10.6666 15.3333 9.7712 15.3333 8.66663C15.3333 7.56206 14.7363 6.66663 14 6.66663C13.2636 6.66663 12.6666 7.56206 12.6666 8.66663C12.6666 9.7712 13.2636 10.6666 14 10.6666Z" fill="#C59262"/>
</g>
</svg>
