<svg width="28" height="20" viewBox="0 0 28 20" fill="none" xmlns="http://www.w3.org/2000/svg">
<rect width="28" height="20" rx="2" fill="white"/>
<mask id="mask0_267_1858" style="mask-type:luminance" maskUnits="userSpaceOnUse" x="0" y="0" width="28" height="20">
<rect width="28" height="20" rx="2" fill="white"/>
</mask>
<g mask="url(#mask0_267_1858)">
<path fill-rule="evenodd" clip-rule="evenodd" d="M0 13.3333L28 0H0V13.3333Z" fill="#0C4799"/>
<path fill-rule="evenodd" clip-rule="evenodd" d="M4.66667 6L3.64618 7.13035L3.72386 5.60948L2.20299 5.68716L3.33333 4.66667L2.20299 3.64618L3.72386 3.72386L3.64618 2.20299L4.66667 3.33333L5.68716 2.20299L5.60948 3.72386L7.13035 3.64618L6 4.66667L7.13035 5.68716L5.60948 5.60948L5.68716 7.13035L4.66667 6Z" fill="#FFD243"/>
<path fill-rule="evenodd" clip-rule="evenodd" d="M0 20H28V6.66663L0 20Z" fill="#1BAC55"/>
<path fill-rule="evenodd" clip-rule="evenodd" d="M3.08233 22.6666L30.1707 5.73998L24.9176 -2.66675L-2.17078 14.2599L3.08233 22.6666Z" fill="white"/>
<path fill-rule="evenodd" clip-rule="evenodd" d="M-0.629192 23.072L32.162 2.58175L28.6292 -3.0719L-4.16199 17.4183L-0.629192 23.072Z" fill="#E52347"/>
</g>
</svg>
