<svg width="28" height="20" viewBox="0 0 28 20" fill="none" xmlns="http://www.w3.org/2000/svg">
<rect x="0.25" y="0.25" width="27.5" height="19.5" rx="1.75" fill="white" stroke="#F5F5F5" stroke-width="0.5"/>
<mask id="mask0_267_2548" style="mask-type:luminance" maskUnits="userSpaceOnUse" x="0" y="0" width="28" height="20">
<rect x="0.25" y="0.25" width="27.5" height="19.5" rx="1.75" fill="white" stroke="white" stroke-width="0.5"/>
</mask>
<g mask="url(#mask0_267_2548)">
<path fill-rule="evenodd" clip-rule="evenodd" d="M0 5.33333H28V0H0V5.33333Z" fill="#D82332"/>
<path fill-rule="evenodd" clip-rule="evenodd" d="M0 20H28V14.6666H0V20Z" fill="#D82332"/>
<path fill-rule="evenodd" clip-rule="evenodd" d="M13.0675 10.7527L12.7831 11.018C13.0402 11.0901 13.3969 11.0061 13.539 10.7527H13.0675Z" fill="#064A89"/>
<path fill-rule="evenodd" clip-rule="evenodd" d="M10.7725 10.9334C10.965 11.1259 11.2838 11.1034 11.4763 10.9816C11.6689 10.8597 11.8104 10.8519 11.9304 10.8647C11.9431 10.9733 11.9715 11.1126 12.0201 11.2502H10.8782C10.8499 11.1797 10.7945 11.0152 10.7725 10.9334Z" fill="#064A89"/>
<path fill-rule="evenodd" clip-rule="evenodd" d="M10.9841 11.4478C11.2083 11.3419 11.4374 11.4258 11.5365 11.5022C11.7196 11.6434 12.022 11.6051 12.1704 11.525C12.227 11.6173 12.2958 11.7082 12.3787 11.7776H11.1569C11.1073 11.6974 11 11.5006 10.9841 11.4478Z" fill="#064A89"/>
<path fill-rule="evenodd" clip-rule="evenodd" d="M16.2981 12.3248C16.3518 12.2703 16.4244 12.1805 16.4718 12.1164C16.3929 12.1068 16.3011 12.0497 16.2035 12.001C16.0235 11.9111 15.8516 11.9111 15.6985 12.017C15.4713 12.1741 15.1871 12.2126 14.9662 12.0555C14.7238 11.883 14.4991 11.9207 14.3097 12.0299C14.1203 12.1388 14.0004 12.1453 13.8867 12.1453C13.7731 12.1453 13.6532 12.1388 13.4638 12.0299C13.2743 11.9207 13.0497 11.883 12.8072 12.0555C12.5863 12.2126 12.3022 12.1741 12.075 12.017C11.9218 11.9111 11.7499 11.9111 11.5699 12.001C11.4722 12.0497 11.3806 12.1068 11.3016 12.1164C11.349 12.1805 11.4216 12.2703 11.4753 12.3248H16.2981Z" fill="#064A89"/>
<path fill-rule="evenodd" clip-rule="evenodd" d="M15.7067 12.8611C15.7571 12.829 15.8961 12.7232 15.9655 12.6687C15.8897 12.6847 15.717 12.6285 15.6278 12.5821C15.3689 12.4473 15.1985 12.4602 15.006 12.5628C14.8134 12.6655 14.542 12.72 14.3432 12.611C14.1443 12.5019 14.0022 12.473 13.8981 12.473C13.794 12.473 13.6519 12.5019 13.453 12.611C13.2542 12.72 12.9828 12.6655 12.7902 12.5628C12.5977 12.4602 12.4273 12.4473 12.1684 12.5821C12.0792 12.6285 11.9065 12.6847 11.8307 12.6687C11.9001 12.7232 12.039 12.829 12.0895 12.8611H15.7067Z" fill="#064A89"/>
<path fill-rule="evenodd" clip-rule="evenodd" d="M14.5684 11.795C14.5147 11.7662 14.452 11.699 14.3947 11.6128C14.3032 11.4748 14.158 11.3978 13.9402 11.3978C13.7225 11.3978 13.5773 11.4748 13.4857 11.6128C13.4285 11.699 13.3657 11.7662 13.3122 11.795H14.5684Z" fill="#064A89"/>
<path fill-rule="evenodd" clip-rule="evenodd" d="M14.2104 11.2998C14.1883 11.2613 14.141 11.1394 14.1252 11.0752C14.0746 11.0913 13.9768 11.0977 13.92 11.0977C13.8632 11.0977 13.7654 11.0913 13.7148 11.0752C13.6991 11.1394 13.6518 11.2613 13.6296 11.2998H14.2104Z" fill="#064A89"/>
<path fill-rule="evenodd" clip-rule="evenodd" d="M14.736 10.7527L15.0205 11.018C14.7633 11.0901 14.4066 11.0061 14.2646 10.7527H14.736Z" fill="#064A89"/>
<path fill-rule="evenodd" clip-rule="evenodd" d="M17.0995 10.9334C16.907 11.1259 16.5882 11.1034 16.3957 10.9816C16.2031 10.8597 16.0616 10.8519 15.9416 10.8647C15.9288 10.9733 15.9005 11.1126 15.8519 11.2502H16.9938C17.0221 11.1797 17.0774 11.0152 17.0995 10.9334Z" fill="#064A89"/>
<path fill-rule="evenodd" clip-rule="evenodd" d="M16.929 11.4478C16.7049 11.3419 16.4758 11.4258 16.3766 11.5022C16.1936 11.6434 15.8911 11.6051 15.7428 11.525C15.6862 11.6173 15.6174 11.7082 15.5344 11.7776H16.7562C16.8059 11.6974 16.9133 11.5006 16.929 11.4478Z" fill="#064A89"/>
<path fill-rule="evenodd" clip-rule="evenodd" d="M15.1588 13.0715C14.7761 13.2302 14.3572 13.3179 13.9183 13.3179C13.4789 13.3179 13.0603 13.2304 12.6772 13.0713C12.7593 13.0618 12.8679 13.0215 12.9556 12.972C13.0977 12.8918 13.3564 12.8757 13.4796 12.9559C13.6026 13.0362 13.751 13.1163 13.9183 13.1163C14.0856 13.1163 14.234 13.0362 14.357 12.9559C14.4801 12.8757 14.7389 12.8918 14.8811 12.972C14.9686 13.0215 15.0767 13.062 15.1588 13.0715Z" fill="#064A89"/>
<path fill-rule="evenodd" clip-rule="evenodd" d="M14.6252 6.72688C13.934 6.58258 13.3122 6.66591 13.3122 7.32667C13.3122 7.97452 13.3122 8.93667 13.3122 9.13559C13.3122 9.33441 13.3161 9.35957 13.5489 9.41462C14.0539 9.53409 14.1012 9.54613 14.6504 9.6743V7.81419C14.2212 7.76602 14.0571 7.52129 14.0571 7.23688C14.0571 6.96107 14.2464 6.7814 14.6252 6.72688Z" fill="#514537"/>
<path fill-rule="evenodd" clip-rule="evenodd" d="M12.8539 11.8285C12.4688 11.8285 12.0648 11.4885 12.0648 10.8406C12.0648 10.1927 12.0648 9.37804 12.0648 9.23051C12.0648 9.08459 12.081 9.06406 12.0474 9.03008C12.0278 9.01008 12.0696 8.9804 12.0979 8.95148C12.1406 8.90814 12.1698 8.87212 12.1122 8.81352C12.0545 8.75502 12.0791 8.73976 12.1154 8.70298C12.1517 8.66599 12.1659 8.62922 12.1312 8.59384C12.0964 8.55857 12.0885 8.54739 12.1264 8.5089C12.1643 8.4704 12.1485 8.45438 12.117 8.42223C12.0853 8.39019 12.0704 8.36696 12.1106 8.3261C12.1501 8.28599 12.1532 8.27954 12.199 8.27954C12.2448 8.27954 12.3442 8.27954 12.3884 8.27954C12.4326 8.27954 12.4334 8.2932 12.3962 8.33094C12.3481 8.37976 12.3339 8.399 12.3884 8.45438C12.4428 8.50965 12.4405 8.52814 12.4058 8.56341C12.3536 8.61632 12.3307 8.65244 12.3836 8.70621C12.4365 8.75986 12.4412 8.78395 12.401 8.82481C12.3608 8.86567 12.3568 8.9018 12.401 8.94664C12.435 8.98115 12.4373 9.00126 12.4373 9.06212C12.4373 9.42943 12.4373 10.4301 12.4373 10.7059C12.4373 10.9817 12.633 11.1485 13.0054 11.1485C13.3779 11.1485 13.5042 10.9945 13.6115 10.8919C13.5421 11.3858 13.34 11.8285 12.8539 11.8285Z" fill="#514537"/>
<path fill-rule="evenodd" clip-rule="evenodd" d="M13.9407 10.2549C13.9928 10.2708 14.0432 10.3478 14.0432 10.4313H14.1459C14.1459 10.3607 14.1158 10.2517 14.0614 10.1843C14.0606 10.1666 14.0583 10.1515 14.0543 10.1362C14.0922 10.088 14.1475 10.0111 14.1459 9.93729C14.1448 9.89074 14.0906 9.89246 14.0843 9.92934C14.0791 9.95966 14.0591 10.0063 14.0212 10.0223C14.0212 9.96299 13.988 9.89246 13.9407 9.89246C13.8934 9.89246 13.8602 9.96299 13.8602 10.0223C13.8223 10.0063 13.8023 9.95966 13.7971 9.92934C13.7907 9.89246 13.7365 9.89074 13.7355 9.93729C13.7339 10.0111 13.7892 10.088 13.827 10.1362C13.8231 10.1515 13.8208 10.1666 13.82 10.1843C13.7656 10.2517 13.7355 10.3607 13.7355 10.4313H13.8382C13.8382 10.3478 13.8886 10.2708 13.9407 10.2549Z" fill="#514537"/>
<path fill-rule="evenodd" clip-rule="evenodd" d="M13.4116 10.2549C13.4636 10.2708 13.5142 10.3478 13.5142 10.4313H13.6168C13.6168 10.3607 13.5868 10.2517 13.5323 10.1843C13.5316 10.1666 13.5291 10.1515 13.5252 10.1362C13.5631 10.088 13.6184 10.0111 13.6168 9.93729C13.6158 9.89074 13.5615 9.89246 13.5552 9.92934C13.55 9.95966 13.5299 10.0063 13.4921 10.0223C13.4921 9.96299 13.459 9.89246 13.4116 9.89246C13.3643 9.89246 13.3312 9.96299 13.3312 10.0223C13.2933 10.0063 13.2732 9.95966 13.268 9.92934C13.2616 9.89246 13.2075 9.89074 13.2064 9.93729C13.2048 10.0111 13.26 10.088 13.2979 10.1362C13.294 10.1515 13.2917 10.1666 13.2908 10.1843C13.2364 10.2517 13.2064 10.3607 13.2064 10.4313H13.309C13.309 10.3478 13.3595 10.2708 13.4116 10.2549Z" fill="#514537"/>
<path fill-rule="evenodd" clip-rule="evenodd" d="M12.8825 10.2549C12.9345 10.2708 12.985 10.3478 12.985 10.4313H13.0876C13.0876 10.3607 13.0576 10.2517 13.0032 10.1843C13.0024 10.1666 13 10.1515 12.9961 10.1362C13.034 10.088 13.0892 10.0111 13.0876 9.93729C13.0866 9.89074 13.0324 9.89246 13.0261 9.92934C13.0209 9.95966 13.0008 10.0063 12.9629 10.0223C12.9629 9.96299 12.9298 9.89246 12.8825 9.89246C12.8351 9.89246 12.8019 9.96299 12.8019 10.0223C12.7641 10.0063 12.7441 9.95966 12.7389 9.92934C12.7325 9.89246 12.6782 9.89074 12.6773 9.93729C12.6757 10.0111 12.7309 10.088 12.7688 10.1362C12.7649 10.1515 12.7625 10.1666 12.7617 10.1843C12.7072 10.2517 12.6773 10.3607 12.6773 10.4313H12.7798C12.7798 10.3478 12.8304 10.2708 12.8825 10.2549Z" fill="#514537"/>
<path fill-rule="evenodd" clip-rule="evenodd" d="M14.4698 10.2549C14.4177 10.2708 14.3673 10.3478 14.3673 10.4313H14.2646C14.2646 10.3607 14.2946 10.2517 14.3491 10.1843C14.3498 10.1666 14.3522 10.1515 14.3563 10.1362C14.3183 10.088 14.263 10.0111 14.2646 9.93729C14.2657 9.89074 14.3199 9.89246 14.3262 9.92934C14.3314 9.95966 14.3515 10.0063 14.3893 10.0223C14.3893 9.96299 14.4225 9.89246 14.4698 9.89246C14.5172 9.89246 14.5503 9.96299 14.5503 10.0223C14.5881 10.0063 14.6082 9.95966 14.6134 9.92934C14.6198 9.89246 14.6739 9.89074 14.675 9.93729C14.6766 10.0111 14.6213 10.088 14.5835 10.1362C14.5874 10.1515 14.5898 10.1666 14.5905 10.1843C14.645 10.2517 14.675 10.3607 14.675 10.4313H14.5723C14.5723 10.3478 14.5219 10.2708 14.4698 10.2549Z" fill="#514537"/>
<path fill-rule="evenodd" clip-rule="evenodd" d="M14.9989 10.2549C14.9469 10.2708 14.8964 10.3478 14.8964 10.4313H14.7937C14.7937 10.3607 14.8238 10.2517 14.8782 10.1843C14.879 10.1666 14.8814 10.1515 14.8853 10.1362C14.8474 10.088 14.7921 10.0111 14.7937 9.93729C14.7947 9.89074 14.849 9.89246 14.8553 9.92934C14.8605 9.95966 14.8805 10.0063 14.9184 10.0223C14.9184 9.96299 14.9516 9.89246 14.9989 9.89246C15.0463 9.89246 15.0794 9.96299 15.0794 10.0223C15.1173 10.0063 15.1373 9.95966 15.1425 9.92934C15.1489 9.89246 15.203 9.89074 15.2041 9.93729C15.2057 10.0111 15.1505 10.088 15.1126 10.1362C15.1165 10.1515 15.1188 10.1666 15.1197 10.1843C15.1742 10.2517 15.2041 10.3607 15.2041 10.4313H15.1016C15.1016 10.3478 15.051 10.2708 14.9989 10.2549Z" fill="#514537"/>
<path fill-rule="evenodd" clip-rule="evenodd" d="M12.5715 10.5376H15.349V10.6709H12.5715V10.5376Z" fill="#514537"/>
<path fill-rule="evenodd" clip-rule="evenodd" d="M15.0222 11.8285C15.4072 11.8285 15.8113 11.4885 15.8113 10.8406C15.8113 10.1927 15.8113 9.37804 15.8113 9.23051C15.8113 9.08459 15.7951 9.06406 15.8286 9.03008C15.8483 9.01008 15.8065 8.9804 15.7781 8.95148C15.7355 8.90814 15.7063 8.87212 15.7638 8.81352C15.8215 8.75502 15.797 8.73976 15.7608 8.70298C15.7244 8.66599 15.7102 8.62922 15.7449 8.59384C15.7796 8.55857 15.7876 8.54739 15.7497 8.5089C15.7118 8.4704 15.7276 8.45438 15.7591 8.42223C15.7907 8.39019 15.8056 8.36696 15.7654 8.3261C15.726 8.28599 15.7229 8.27954 15.6771 8.27954C15.6313 8.27954 15.5319 8.27954 15.4877 8.27954C15.4435 8.27954 15.4427 8.2932 15.4798 8.33094C15.528 8.37976 15.5422 8.399 15.4877 8.45438C15.4333 8.50965 15.4356 8.52814 15.4703 8.56341C15.5225 8.61632 15.5452 8.65244 15.4924 8.70621C15.4395 8.75986 15.4347 8.78395 15.4751 8.82481C15.5153 8.86567 15.5193 8.9018 15.4751 8.94664C15.4411 8.98115 15.4388 9.00126 15.4388 9.06212C15.4388 9.42943 15.4388 10.4301 15.4388 10.7059C15.4388 10.9817 15.243 11.1485 14.8706 11.1485C14.4981 11.1485 14.372 10.9945 14.2646 10.8919C14.334 11.3858 14.536 11.8285 15.0222 11.8285Z" fill="#514537"/>
<path fill-rule="evenodd" clip-rule="evenodd" d="M12.5715 9.67422C12.5715 9.67422 12.5716 9.57959 12.5716 9.46228L13.1268 9.67432L12.5715 9.67422Z" fill="#EEA339"/>
<path fill-rule="evenodd" clip-rule="evenodd" d="M11.9091 9.77273L10.6667 9.60252C10.7028 9.33198 10.771 9.06821 10.8692 8.81714L11.9091 9.2366V9.77273Z" fill="#EEA339"/>
<path fill-rule="evenodd" clip-rule="evenodd" d="M14.4762 7.69589L14.697 6.77417C14.9555 6.83783 15.2067 6.93374 15.4448 7.06019L14.7325 8.44557L14.735 7.74998C14.6528 7.75041 14.5267 7.73761 14.4762 7.69589Z" fill="#EEA339"/>
<path fill-rule="evenodd" clip-rule="evenodd" d="M11.9384 9.86298L10.6728 9.78491C10.6565 10.0546 10.6727 10.3267 10.7214 10.5952C10.7214 10.5952 11.9384 10.603 11.9384 10.5952V9.86298Z" fill="#EEA339"/>
<path fill-rule="evenodd" clip-rule="evenodd" d="M11.9258 8.99549C11.8849 8.94098 11.9102 8.91195 11.9543 8.88302C11.9985 8.8542 11.9922 8.83173 11.9702 8.79012C11.948 8.7484 11.9259 8.70345 11.967 8.65861C12.008 8.61367 11.9922 8.59442 11.9606 8.56238C11.9291 8.53033 11.9259 8.49506 11.9543 8.46937C11.9828 8.44367 11.9764 8.42442 11.9576 8.39883C11.9385 8.37313 11.9014 8.32109 11.9346 8.28743L11.4183 7.84937C11.2477 8.05668 11.1017 8.28549 10.9841 8.53087L11.9258 8.99549Z" fill="#EEA339"/>
<path fill-rule="evenodd" clip-rule="evenodd" d="M13.1628 9.23433L12.5474 8.62799C12.6342 8.53981 12.6429 8.52541 12.5814 8.46283C12.5143 8.39465 12.5119 8.38756 12.6484 8.24874C12.695 8.20154 12.6689 8.16852 12.6027 8.16852C12.5364 8.16852 12.2318 8.16852 12.1971 8.16852C12.1624 8.16852 12.1351 8.17035 12.1097 8.19616L11.6191 7.71358C11.8063 7.51777 12.0154 7.34691 12.2412 7.20422L13.1628 8.71014V9.23433Z" fill="#EEA339"/>
<path fill-rule="evenodd" clip-rule="evenodd" d="M12.5228 9.3266C12.5228 9.17596 12.5229 9.02682 12.5229 9.00563C12.5229 8.96069 12.5197 8.94305 12.485 8.90778C12.4503 8.87252 12.4677 8.85563 12.4945 8.81714L13.0782 9.31122V9.60133L12.5228 9.3266Z" fill="#EEA339"/>
<path fill-rule="evenodd" clip-rule="evenodd" d="M13.0695 8.44632C13.0695 8.15697 13.0695 7.88933 13.0695 7.73514C13.0695 7.27331 13.095 7.04234 13.1613 6.99589L13.1083 6.77417C12.8491 6.84503 12.5979 6.94094 12.3598 7.0674L13.0695 8.44632Z" fill="#EEA339"/>
<path fill-rule="evenodd" clip-rule="evenodd" d="M15.349 9.67422C15.349 9.67422 15.3489 9.57959 15.3489 9.46228L14.7937 9.67432L15.349 9.67422Z" fill="#EEA339"/>
<path fill-rule="evenodd" clip-rule="evenodd" d="M15.9577 9.77273L17.2001 9.60252C17.1641 9.33198 17.0958 9.06821 16.9976 8.81714L15.9577 9.2366V9.77273Z" fill="#EEA339"/>
<path fill-rule="evenodd" clip-rule="evenodd" d="M15.9577 9.86298L17.2232 9.78491C17.2395 10.0546 17.2234 10.3267 17.1746 10.5952C17.1746 10.5952 15.9577 10.603 15.9577 10.5952V9.86298Z" fill="#EEA339"/>
<path fill-rule="evenodd" clip-rule="evenodd" d="M15.9177 8.99549C15.9588 8.94098 15.9334 8.91195 15.8892 8.88302C15.845 8.8542 15.8514 8.83173 15.8734 8.79012C15.8955 8.7484 15.9176 8.70345 15.8765 8.65861C15.8355 8.61367 15.8514 8.59442 15.8829 8.56238C15.9144 8.53033 15.9176 8.49506 15.8892 8.46937C15.8608 8.44367 15.8671 8.42442 15.886 8.39883C15.905 8.37313 15.942 8.32109 15.9089 8.28743L16.4252 7.84937C16.5958 8.05668 16.7417 8.28549 16.8593 8.53087L15.9177 8.99549Z" fill="#EEA339"/>
<path fill-rule="evenodd" clip-rule="evenodd" d="M14.7937 9.23433L15.409 8.62799C15.3222 8.53981 15.3135 8.52541 15.3751 8.46283C15.4422 8.39465 15.4446 8.38756 15.3081 8.24874C15.2614 8.20154 15.2876 8.16852 15.3538 8.16852C15.4201 8.16852 15.7247 8.16852 15.7594 8.16852C15.7941 8.16852 15.8214 8.17035 15.8468 8.19616L16.3374 7.71358C16.1502 7.51777 15.9411 7.34691 15.7153 7.20422L14.7937 8.71014V9.23433Z" fill="#EEA339"/>
<path fill-rule="evenodd" clip-rule="evenodd" d="M15.3492 9.3266C15.3492 9.17596 15.349 9.02682 15.349 9.00563C15.349 8.96069 15.3522 8.94305 15.3869 8.90778C15.4216 8.87252 15.4043 8.85563 15.3774 8.81714L14.7937 9.31122V9.60133L15.3492 9.3266Z" fill="#EEA339"/>
<path fill-rule="evenodd" clip-rule="evenodd" d="M12.1482 9.03223C12.1703 9.0547 12.1798 9.07707 12.1798 9.13158C12.1798 9.1861 12.1798 10.3792 12.1798 10.8475C12.1798 11.4184 12.5207 11.7359 12.8711 11.7359C13.193 11.7359 13.4045 11.4376 13.515 11.0913C13.373 11.2035 13.1646 11.2388 12.9657 11.2388C12.7353 11.2388 12.3629 11.0817 12.3629 10.7417C12.3629 10.4274 12.3629 9.26309 12.3629 9.07707C12.3629 9.03223 12.3187 9.03223 12.1482 9.03223Z" fill="#D82332"/>
<path fill-rule="evenodd" clip-rule="evenodd" d="M14.1611 6.78402C13.721 6.73875 13.3127 6.83176 13.3127 7.44186C13.3127 8.08337 13.3127 8.86584 13.3127 9.06283C13.3127 9.33348 13.2918 9.30133 13.5175 9.35821C13.927 9.46143 13.9734 9.47455 14.4702 9.58982V7.94057C14.046 7.89337 13.8622 7.61111 13.8622 7.29853C13.8622 7.04982 13.9704 6.81574 14.1611 6.78402Z" fill="#D82332"/>
<path fill-rule="evenodd" clip-rule="evenodd" d="M15.7371 9.03223C15.715 9.0547 15.7055 9.07707 15.7055 9.13158C15.7055 9.1861 15.7055 10.3792 15.7055 10.8475C15.7055 11.4184 15.3646 11.7359 15.0143 11.7359C14.6924 11.7359 14.4808 11.4376 14.3704 11.0913C14.5125 11.2035 14.7207 11.2388 14.9197 11.2388C15.15 11.2388 15.5224 11.0817 15.5224 10.7417C15.5224 10.4274 15.5224 9.26309 15.5224 9.07707C15.5224 9.03223 15.5667 9.03223 15.7371 9.03223Z" fill="#D82332"/>
<mask id="mask1_267_2548" style="mask-type:luminance" maskUnits="userSpaceOnUse" x="10" y="6" width="8" height="8">
<path fill-rule="evenodd" clip-rule="evenodd" d="M14 13.3333C15.841 13.3333 17.3334 11.8409 17.3334 9.99996C17.3334 8.15901 15.841 6.66663 14 6.66663C12.1591 6.66663 10.6667 8.15901 10.6667 9.99996C10.6667 11.8409 12.1591 13.3333 14 13.3333Z" fill="white"/>
</mask>
<g mask="url(#mask1_267_2548)">
<path fill-rule="evenodd" clip-rule="evenodd" d="M14 18.6667C15.841 18.6667 17.3334 17.1743 17.3334 15.3333C17.3334 13.4924 15.841 12 14 12C12.1591 12 10.6667 13.4924 10.6667 15.3333C10.6667 17.1743 12.1591 18.6667 14 18.6667Z" fill="#064A89"/>
</g>
</g>
</svg>
