<svg width="28" height="20" viewBox="0 0 28 20" fill="none" xmlns="http://www.w3.org/2000/svg">
<rect width="28" height="20" rx="2" fill="white"/>
<mask id="mask0_267_1947" style="mask-type:luminance" maskUnits="userSpaceOnUse" x="0" y="0" width="28" height="20">
<rect width="28" height="20" rx="2" fill="white"/>
</mask>
<g mask="url(#mask0_267_1947)">
<rect width="28" height="20" fill="#262626"/>
<path fill-rule="evenodd" clip-rule="evenodd" d="M0 0H28V20L0 0Z" fill="#E8283F"/>
<path fill-rule="evenodd" clip-rule="evenodd" d="M6.66671 16.6666L5.7239 16.9428L6.00004 16L5.7239 15.0572L6.66671 15.3333L7.60952 15.0572L7.33337 16L7.60952 16.9428L6.66671 16.6666Z" fill="white"/>
<path fill-rule="evenodd" clip-rule="evenodd" d="M6.66671 8.66663L5.7239 8.94277L6.00004 7.99996L5.7239 7.05715L6.66671 7.33329L7.60952 7.05715L7.33337 7.99996L7.60952 8.94277L6.66671 8.66663Z" fill="white"/>
<path fill-rule="evenodd" clip-rule="evenodd" d="M3.33333 12L2.39052 12.2761L2.66667 11.3333L2.39052 10.3905L3.33333 10.6667L4.27614 10.3905L4 11.3333L4.27614 12.2761L3.33333 12Z" fill="white"/>
<path fill-rule="evenodd" clip-rule="evenodd" d="M9.33333 11.3334L8.39052 11.6095L8.66667 10.6667L8.39052 9.7239L9.33333 10L10.2761 9.7239L10 10.6667L10.2761 11.6095L9.33333 11.3334Z" fill="white"/>
<path fill-rule="evenodd" clip-rule="evenodd" d="M18.8613 9.26553C18.7017 9.16976 18.5723 8.94416 18.5723 8.76367L18.5723 7.53495C18.5723 7.35355 18.4418 7.25 18.2443 7.31584L17.4861 7.56857C17.3049 7.62895 17.0275 7.6344 16.8301 7.56857L16.0718 7.31584C15.8907 7.25545 15.8706 7.13047 16.0329 7.03309L17.8118 5.9657C17.9715 5.86993 18.0574 5.66178 17.9915 5.46428L17.7388 4.70608C17.6784 4.52493 17.76 4.42158 17.9575 4.48741L18.7157 4.74014C18.8968 4.80053 19.1197 4.72275 19.2171 4.56046L20.2845 2.78147C20.3802 2.62185 20.5014 2.62297 20.5672 2.82046L20.82 3.57867C20.8803 3.75982 20.8858 4.03718 20.82 4.23467L20.5672 4.99288C20.5068 5.17403 20.6058 5.32088 20.7863 5.32088H22.0151C22.1965 5.32088 22.4195 5.44761 22.5169 5.6099L23.5843 7.38889C23.6801 7.54851 23.6031 7.70884 23.43 7.74345L21.7284 8.08376C21.5474 8.11996 21.3698 8.30396 21.3351 8.47704L20.9948 10.1786C20.9586 10.3596 20.8026 10.4303 20.6403 10.3329L18.8613 9.26553Z" fill="#FFD84E"/>
</g>
</svg>
