<svg width="28" height="20" viewBox="0 0 28 20" fill="none" xmlns="http://www.w3.org/2000/svg">
<rect x="0.25" y="0.25" width="27.5" height="19.5" rx="1.75" fill="white" stroke="#F5F5F5" stroke-width="0.5"/>
<mask id="mask0_267_1927" style="mask-type:luminance" maskUnits="userSpaceOnUse" x="0" y="0" width="28" height="20">
<rect x="0.25" y="0.25" width="27.5" height="19.5" rx="1.75" fill="white" stroke="white" stroke-width="0.5"/>
</mask>
<g mask="url(#mask0_267_1927)">
<path fill-rule="evenodd" clip-rule="evenodd" d="M0 20H28V9.33337H12.4444L13.3333 10L0 20Z" fill="#DD1C34"/>
<path fill-rule="evenodd" clip-rule="evenodd" d="M28 9.33333H12.4444L0 0H28V9.33333Z" fill="#0D4BC3"/>
<path fill-rule="evenodd" clip-rule="evenodd" d="M2.00004 3.99996C2.36823 3.99996 2.66671 3.70148 2.66671 3.33329C2.66671 2.9651 2.36823 2.66663 2.00004 2.66663C1.63185 2.66663 1.33337 2.9651 1.33337 3.33329C1.33337 3.70148 1.63185 3.99996 2.00004 3.99996ZM10 10.6666C10.3682 10.6666 10.6667 10.3681 10.6667 9.99996C10.6667 9.63177 10.3682 9.33329 10 9.33329C9.63185 9.33329 9.33337 9.63177 9.33337 9.99996C9.33337 10.3681 9.63185 10.6666 10 10.6666ZM2.66671 16.6666C2.66671 17.0348 2.36823 17.3333 2.00004 17.3333C1.63185 17.3333 1.33337 17.0348 1.33337 16.6666C1.33337 16.2984 1.63185 16 2.00004 16C2.36823 16 2.66671 16.2984 2.66671 16.6666ZM4.53212 11.3266L3.3911 13.0796L3.82383 11.0331C3.75419 10.9763 3.69041 10.9125 3.63354 10.8428L1.58711 11.2756L3.34008 10.1346C3.33565 10.0903 3.33337 10.0454 3.33337 9.99996C3.33337 9.95453 3.33565 9.90963 3.34008 9.86537L1.58711 8.72435L3.63354 9.15708C3.69042 9.08744 3.75419 9.02367 3.82383 8.96679L3.3911 6.92036L4.53212 8.67334C4.57638 8.6689 4.62128 8.66663 4.66671 8.66663C4.71214 8.66663 4.75704 8.6689 4.8013 8.67334L5.94232 6.92036L5.50959 8.96679C5.57922 9.02367 5.643 9.08744 5.69988 9.15708L7.74631 8.72435L5.99333 9.86537C5.99777 9.90963 6.00004 9.95453 6.00004 9.99996C6.00004 10.0454 5.99777 10.0903 5.99333 10.1346L7.74631 11.2756L5.69988 10.8428C5.643 10.9125 5.57922 10.9763 5.50959 11.0331L5.94232 13.0796L4.8013 11.3266C4.75704 11.331 4.71214 11.3333 4.66671 11.3333C4.62128 11.3333 4.57638 11.331 4.53212 11.3266Z" fill="#FDD64D"/>
</g>
</svg>
