<svg width="28" height="20" viewBox="0 0 28 20" fill="none" xmlns="http://www.w3.org/2000/svg">
<rect x="0.25" y="0.25" width="27.5" height="19.5" rx="1.75" fill="white" stroke="#F5F5F5" stroke-width="0.5"/>
<mask id="mask0_267_1969" style="mask-type:luminance" maskUnits="userSpaceOnUse" x="0" y="0" width="28" height="20">
<rect x="0.25" y="0.25" width="27.5" height="19.5" rx="1.75" fill="white" stroke="white" stroke-width="0.5"/>
</mask>
<g mask="url(#mask0_267_1969)">
<path fill-rule="evenodd" clip-rule="evenodd" d="M0 0H28V4H0V0ZM0 8H28V12H0V8ZM0 16V20H28V16H0Z" fill="#FA2222"/>
<path fill-rule="evenodd" clip-rule="evenodd" d="M0 0L13.3333 10L0 20V0Z" fill="#1D63F9"/>
<g filter="url(#filter0_d_267_1969)">
<path fill-rule="evenodd" clip-rule="evenodd" d="M4.66671 11.274L2.70742 12.6967L3.45499 10.3937L1.49652 8.9699L3.91782 8.96921L4.66671 6.66663L5.41559 8.96921L7.8369 8.9699L5.87843 10.3937L6.62599 12.6967L4.66671 11.274Z" fill="url(#paint0_linear_267_1969)"/>
</g>
</g>
<defs>
<filter id="filter0_d_267_1969" x="1.49646" y="6.66663" width="6.34045" height="7.03003" filterUnits="userSpaceOnUse" color-interpolation-filters="sRGB">
<feFlood flood-opacity="0" result="BackgroundImageFix"/>
<feColorMatrix in="SourceAlpha" type="matrix" values="0 0 0 0 0 0 0 0 0 0 0 0 0 0 0 0 0 0 127 0" result="hardAlpha"/>
<feOffset dy="1"/>
<feColorMatrix type="matrix" values="0 0 0 0 0 0 0 0 0 0 0 0 0 0 0 0 0 0 0.06 0"/>
<feBlend mode="normal" in2="BackgroundImageFix" result="effect1_dropShadow_267_1969"/>
<feBlend mode="normal" in="SourceGraphic" in2="effect1_dropShadow_267_1969" result="shape"/>
</filter>
<linearGradient id="paint0_linear_267_1969" x1="1.33337" y1="6.66663" x2="1.33337" y2="13.3333" gradientUnits="userSpaceOnUse">
<stop stop-color="white"/>
<stop offset="1" stop-color="#F0F0F0"/>
</linearGradient>
</defs>
</svg>
