<svg width="28" height="20" viewBox="0 0 28 20" fill="none" xmlns="http://www.w3.org/2000/svg">
<rect width="28" height="20" rx="2" fill="white"/>
<mask id="mask0_267_1529" style="mask-type:luminance" maskUnits="userSpaceOnUse" x="0" y="0" width="28" height="20">
<rect width="28" height="20" rx="2" fill="white"/>
</mask>
<g mask="url(#mask0_267_1529)">
<rect width="28" height="20" fill="#128C4B"/>
<path fill-rule="evenodd" clip-rule="evenodd" d="M6.66663 12H17.3333V11.0787C17.3333 10.5831 17.8548 10.2608 18.2981 10.4824L18.6666 10.6667V12H20.6666C21.0348 12 21.3333 12.2985 21.3333 12.6667V13.3334C21.3333 14.0697 20.7363 14.6667 20 14.6667H18C17.6318 14.6667 17.3333 14.3682 17.3333 14V13.3334H8.2761C8.09929 13.3334 7.92972 13.2631 7.8047 13.1381L6.66663 12Z" fill="white"/>
<path fill-rule="evenodd" clip-rule="evenodd" d="M6.66663 8.13811C6.66663 8.04971 6.70174 7.96492 6.76426 7.90241L7.09759 7.56908C7.22777 7.4389 7.22777 7.22785 7.09759 7.09767L6.76426 6.76434C6.70175 6.70183 6.66663 6.61704 6.66663 6.52864V5.66671C6.66663 5.48261 6.81586 5.33337 6.99996 5.33337H7.74532C7.88595 5.33337 7.99996 5.44738 7.99996 5.58802C7.99996 5.85672 8.36219 5.94224 8.48236 5.7019L8.58174 5.50314C8.63377 5.39909 8.7401 5.33337 8.85643 5.33337H10.3333C10.5174 5.33337 10.6666 5.48261 10.6666 5.66671C10.6666 5.8508 10.5174 6.00004 10.3333 6.00004H9.66663C9.48253 6.00004 9.33329 6.14928 9.33329 6.33337C9.33329 6.51747 9.48253 6.66671 9.66663 6.66671H10.3333C10.5174 6.66671 10.6666 6.81595 10.6666 7.00004V9.00004C10.6666 9.18414 10.5174 9.33337 10.3333 9.33337H9.66663C9.48253 9.33337 9.33329 9.18414 9.33329 9.00004V8.33337C9.33329 8.14928 9.48253 8.00004 9.66663 8.00004C9.85072 8.00004 9.99996 7.8508 9.99996 7.66671C9.99996 7.48261 9.85072 7.33337 9.66663 7.33337H8.99996C8.81586 7.33337 8.66663 7.48261 8.66663 7.66671V9.00004C8.66663 9.18414 8.51739 9.33337 8.33329 9.33337C8.1492 9.33337 7.99996 9.18414 7.99996 9.00004V8.33337C7.99996 8.14928 7.85072 8.00004 7.66663 8.00004C7.48253 8.00004 7.33329 8.14928 7.33329 8.33337V9.00004C7.33329 9.18414 7.18405 9.33337 6.99996 9.33337C6.81586 9.33337 6.66663 9.18414 6.66663 9.00004V8.13811Z" fill="white"/>
<path fill-rule="evenodd" clip-rule="evenodd" d="M17.3334 8.13811C17.3334 8.04971 17.3685 7.96492 17.431 7.90241L17.7643 7.56908C17.8945 7.4389 17.8945 7.22785 17.7643 7.09767L17.431 6.76434C17.3685 6.70183 17.3334 6.61704 17.3334 6.52864V5.66671C17.3334 5.48261 17.4826 5.33337 17.6667 5.33337H18.4121C18.5527 5.33337 18.6667 5.44738 18.6667 5.58802C18.6667 5.85672 19.0289 5.94224 19.1491 5.7019L19.2485 5.50314C19.3005 5.39909 19.4069 5.33337 19.5232 5.33337H21C21.1841 5.33337 21.3334 5.48261 21.3334 5.66671C21.3334 5.8508 21.1841 6.00004 21 6.00004H20.3334C20.1493 6.00004 20 6.14928 20 6.33337C20 6.51747 20.1493 6.66671 20.3334 6.66671H21C21.1841 6.66671 21.3334 6.81595 21.3334 7.00004V9.00004C21.3334 9.18414 21.1841 9.33337 21 9.33337H20.3334C20.1493 9.33337 20 9.18414 20 9.00004V8.33337C20 8.14928 20.1493 8.00004 20.3334 8.00004C20.5175 8.00004 20.6667 7.8508 20.6667 7.66671C20.6667 7.48261 20.5175 7.33337 20.3334 7.33337H19.6667C19.4826 7.33337 19.3334 7.48261 19.3334 7.66671V9.00004C19.3334 9.18414 19.1841 9.33337 19 9.33337C18.8159 9.33337 18.6667 9.18414 18.6667 9.00004V8.33337C18.6667 8.14928 18.5175 8.00004 18.3334 8.00004C18.1493 8.00004 18 8.14928 18 8.33337V9.00004C18 9.18414 17.8508 9.33337 17.6667 9.33337C17.4826 9.33337 17.3334 9.18414 17.3334 9.00004V8.13811Z" fill="white"/>
<path fill-rule="evenodd" clip-rule="evenodd" d="M16 6.33025C16 6.51607 15.8958 6.77087 15.7593 6.90739L15.574 7.09269C15.4411 7.22562 15.4375 7.43754 15.574 7.57406L15.7593 7.75936C15.8922 7.89228 16 8.14273 16 8.3365V8.99692C16 9.18274 15.8573 9.33337 15.6635 9.33337H15.0031C14.8173 9.33337 14.6667 9.19068 14.6667 8.99692V8.3365C14.6667 8.15068 14.6051 8.12309 14.512 8.30929L14.1546 9.02413C14.0692 9.19492 13.8431 9.33337 13.6697 9.33337H12.3303C12.1479 9.33337 12 9.17875 12 9.00004C12 8.81595 12.1427 8.66671 12.3365 8.66671H12.9969C13.1827 8.66671 13.3333 8.51208 13.3333 8.33337C13.3333 8.14928 13.1906 8.00004 12.9969 8.00004H12.3365C12.1506 8.00004 12 7.85667 12 7.67305V5.66036C12 5.47977 12.1427 5.33337 12.3365 5.33337H12.9969C13.1827 5.33337 13.3333 5.47606 13.3333 5.66983V6.33025C13.3333 6.51607 13.1787 6.66671 13 6.66671C12.8159 6.66671 12.6667 6.82133 12.6667 7.00004C12.6667 7.18414 12.8094 7.33337 13.0031 7.33337H13.6635C13.8494 7.33337 14 7.17644 14 7.00311V5.66363C14 5.48124 14.1546 5.33337 14.3333 5.33337C14.5174 5.33337 14.6667 5.47606 14.6667 5.66983V6.33025C14.6667 6.51607 14.8213 6.66671 15 6.66671C15.1841 6.66671 15.3333 6.52402 15.3333 6.33025V5.66983C15.3333 5.48401 15.488 5.33337 15.6667 5.33337C15.8508 5.33337 16 5.47606 16 5.66983V6.33025Z" fill="white"/>
</g>
</svg>
