<svg width="28" height="20" viewBox="0 0 28 20" fill="none" xmlns="http://www.w3.org/2000/svg">
<rect x="0.25" y="0.25" width="27.5" height="19.5" rx="1.75" fill="white" stroke="#F5F5F5" stroke-width="0.5"/>
<mask id="mask0_267_2335" style="mask-type:luminance" maskUnits="userSpaceOnUse" x="0" y="0" width="28" height="20">
<rect x="0.25" y="0.25" width="27.5" height="19.5" rx="1.75" fill="white" stroke="white" stroke-width="0.5"/>
</mask>
<g mask="url(#mask0_267_2335)">
<path fill-rule="evenodd" clip-rule="evenodd" d="M28 2.66663H13.3333V5.33329H28V2.66663ZM13.3333 7.99996V10.6666H28V7.99996H13.3333ZM13.3333 13.3333L0 13.3333V16H28V13.3333H13.3333ZM0 20V18.6666H28V20H0Z" fill="#0E4DC5"/>
<path fill-rule="evenodd" clip-rule="evenodd" d="M6.66663 9.32136L5.77654 10.65L5.55108 9.06674L4.17267 9.87762L4.65649 8.35333L3.06275 8.48583L4.16003 7.32241L2.66663 6.7503L4.16003 6.17818L3.06275 5.01476L4.65649 5.14727L4.17267 3.62297L5.55108 4.43385L5.77654 2.85059L6.66663 4.17924L7.55671 2.85059L7.78217 4.43385L9.16059 3.62297L8.67676 5.14727L10.2705 5.01476L9.17323 6.17818L10.6666 6.7503L9.17323 7.32241L10.2705 8.48583L8.67676 8.35333L9.16059 9.87762L7.78217 9.06674L7.55671 10.65L6.66663 9.32136ZM6.66663 9.29575C8.07244 9.29575 9.21208 8.15611 9.21208 6.7503C9.21208 5.34448 8.07244 4.20484 6.66663 4.20484C5.26081 4.20484 4.12117 5.34448 4.12117 6.7503C4.12117 8.15611 5.26081 9.29575 6.66663 9.29575ZM8.66663 6.66672C8.66663 7.77129 7.7712 8.66672 6.66663 8.66672C5.56206 8.66672 4.66663 7.77129 4.66663 6.66672C4.66663 5.56215 5.56206 4.66672 6.66663 4.66672C7.7712 4.66672 8.66663 5.56215 8.66663 6.66672Z" fill="#FED443"/>
</g>
</svg>
