<svg width="28" height="20" viewBox="0 0 28 20" fill="none" xmlns="http://www.w3.org/2000/svg">
<rect width="28" height="20" rx="2" fill="white"/>
<mask id="mask0_267_2382" style="mask-type:luminance" maskUnits="userSpaceOnUse" x="0" y="0" width="28" height="20">
<rect width="28" height="20" rx="2" fill="white"/>
</mask>
<g mask="url(#mask0_267_2382)">
<rect width="28" height="20" fill="#E31F37"/>
<path fill-rule="evenodd" clip-rule="evenodd" d="M-1.33337 10.6666H14.6666V-1.33337H-1.33337V10.6666Z" fill="#083B9A"/>
<path fill-rule="evenodd" clip-rule="evenodd" d="M6.66673 2.66673L5.72392 2.94287L6.00006 2.00006L5.72392 1.05725L6.66673 1.33339L7.60954 1.05725L7.33339 2.00006L7.60954 2.94287L6.66673 2.66673ZM6.66673 9.33339L5.72392 9.60954L6.00006 8.66673L5.72392 7.72392L6.66673 8.00006L7.60954 7.72392L7.33339 8.66673L7.60954 9.60954L6.66673 9.33339ZM3.05725 6.2762L4.00006 6.00006L4.94287 6.2762L4.66673 5.33339L4.94287 4.39058L4.00006 4.66673L3.05725 4.39058L3.33339 5.33339L3.05725 6.2762ZM10.0001 5.33339L9.05725 5.60954L9.33339 4.66673L9.05725 3.72392L10.0001 4.00006L10.9429 3.72392L10.6667 4.66673L10.9429 5.60954L10.0001 5.33339ZM8.66673 7.00006C8.66673 7.18415 8.51749 7.33339 8.33339 7.33339C8.1493 7.33339 8.00006 7.18415 8.00006 7.00006C8.00006 6.81597 8.1493 6.66673 8.33339 6.66673C8.51749 6.66673 8.66673 6.81597 8.66673 7.00006Z" fill="white"/>
</g>
</svg>
