<svg width="28" height="20" viewBox="0 0 28 20" fill="none" xmlns="http://www.w3.org/2000/svg">
<rect width="28" height="20" rx="2" fill="#009F60"/>
<mask id="mask0_267_2797" style="mask-type:luminance" maskUnits="userSpaceOnUse" x="0" y="0" width="28" height="20">
<rect width="28" height="20" rx="2" fill="white"/>
</mask>
<g mask="url(#mask0_267_2797)">
<rect x="24" y="10.6667" width="4" height="9.33333" fill="#EA8B42"/>
<path fill-rule="evenodd" clip-rule="evenodd" d="M20 20.0001H24V10.6667H20V20.0001Z" fill="#1A1919"/>
<path fill-rule="evenodd" clip-rule="evenodd" d="M16 20.0001H20V10.6667H16V20.0001Z" fill="#DB3C36"/>
<path fill-rule="evenodd" clip-rule="evenodd" d="M21.0143 3.48416C20.9224 3.48674 20.8549 3.45491 20.8307 3.4014C20.9805 3.31349 21.0818 3.3331 21.2075 3.4451C21.2317 3.35753 21.2075 3.25998 21.1543 3.20149C21.1012 3.143 21.0577 3.143 20.9853 3.13801C20.9128 3.13319 20.8403 3.11375 20.7919 3.11375C20.7211 2.95771 20.5437 3.02377 20.3733 3.08777C20.0963 3.19168 19.8474 3.38041 19.7356 3.5688C19.6845 3.655 19.6783 3.68889 19.647 3.73775C19.6729 3.73448 19.6711 3.73448 19.6873 3.72467C19.6679 3.93921 19.6422 4.1374 19.6807 4.2642C19.6326 4.44949 19.6711 4.56648 19.7291 4.62497C19.7872 4.68347 19.8112 4.7079 19.821 4.7762C19.8306 4.84433 19.8595 4.90764 19.9079 4.94669C19.9562 4.98575 19.9852 5.04424 19.99 5.07848C19.9948 5.11254 20.1443 5.25947 20.2074 5.29783C20.2315 5.31229 20.2363 5.34171 20.2655 5.38059C20.2026 5.75117 20.4539 6.12175 20.3958 6.48734C20.4393 6.49216 20.4973 6.48734 20.5554 6.47272C20.6035 6.78463 20.6325 6.93586 20.362 7.02841C20.0915 7.12115 19.9435 7.21233 20.019 7.31607C20.0721 7.38919 20.1822 7.32553 20.2509 7.26239C20.3041 7.21371 20.3668 7.16983 20.4151 7.15521C20.4635 7.14059 20.4733 7.15521 20.4489 7.21852C20.4247 7.28201 20.2945 7.41844 20.2895 7.48674C20.2847 7.55504 20.3426 7.60373 20.4345 7.55005C20.5262 7.49637 20.607 7.35599 20.6277 7.2722C20.6421 7.21371 20.6665 7.17465 20.6615 7.2722C20.6567 7.36975 20.5987 7.54523 20.7292 7.57448C20.8597 7.60373 20.8984 7.44768 20.8549 7.30626C20.8113 7.16502 20.7969 7.08691 20.8161 7.03822C20.8355 6.98936 20.8549 6.96029 20.903 6.97474C20.9514 6.98936 21.0481 6.96992 21.0433 6.89198C21.0383 6.81405 20.9707 6.75057 20.8934 6.79444C20.8161 6.83831 20.7582 6.83177 20.7919 6.73594C20.8161 6.66764 20.8597 6.58472 20.8645 6.53121C20.9176 6.60915 21.2171 6.61895 21.3379 6.54583C21.3669 6.69207 21.4442 6.82368 21.2752 6.96029C21.106 7.09672 20.9707 7.22833 20.9755 7.32588C20.9805 7.42343 21.0191 7.48175 21.106 7.43306C21.1929 7.38437 21.2461 7.31607 21.2654 7.25276C21.2848 7.18928 21.3235 7.18928 21.3042 7.26738C21.2848 7.34532 21.251 7.45749 21.2654 7.52579C21.28 7.59392 21.3863 7.59891 21.4297 7.53543C21.4732 7.47211 21.4634 7.38919 21.4538 7.30626C21.4442 7.22334 21.4588 7.13577 21.478 7.10153C21.4974 7.06747 21.5359 7.01861 21.5747 7.11134C21.6134 7.2039 21.6326 7.27702 21.7099 7.30145C21.7873 7.32588 21.8452 7.29164 21.8308 7.19908C21.8162 7.10652 21.7147 7.00398 21.6134 6.92605C21.5119 6.84811 21.5457 6.80906 21.5505 6.73594C21.5553 6.66282 21.5409 6.53121 21.5359 6.47272C21.6278 6.54102 21.7293 6.53121 21.7775 6.53121C21.8258 6.53121 21.9052 6.51624 21.8258 6.44347C21.6664 6.29723 21.7195 6.20932 21.6085 6.10214C21.4974 5.99495 21.3959 5.8291 21.3621 5.68786C21.3282 5.54644 21.2538 5.28803 21.106 5.15641C21.0239 5.0833 20.9997 4.88338 21.0191 4.65422C21.0383 4.42506 21.0433 4.17164 20.8355 4.05465C20.6277 3.93766 20.6325 3.84011 20.7002 3.73775C20.7678 3.63538 20.8547 3.53525 20.9659 3.52803C20.991 3.52648 21.0487 3.52166 21.0722 3.50446C21.0618 3.49637 21.0448 3.48347 21.0143 3.48416Z" fill="#EA8B42"/>
<path fill-rule="evenodd" clip-rule="evenodd" d="M19.663 4.01066C19.6579 4.10976 19.6603 4.19698 19.6807 4.26408C19.6325 4.44937 19.6711 4.56636 19.729 4.62486C19.7871 4.68335 19.8111 4.70778 19.8209 4.77608C19.8305 4.84421 19.8595 4.90752 19.9078 4.94658C19.9562 4.98563 19.9851 5.04412 19.9899 5.07836C19.9947 5.11243 20.1442 5.25935 20.2073 5.29772C20.2315 5.31217 20.2363 5.34159 20.2654 5.38047C20.2392 5.53445 20.2668 5.68843 20.3045 5.84206C19.963 6.128 19.626 5.99311 19.7678 5.70064C19.4842 5.92808 18.9948 5.92172 19.1043 5.70064C18.6598 5.85668 18.5246 5.72662 18.5825 5.58365C18.209 5.73316 18.0156 5.59019 18.0672 5.4861C17.7579 5.57058 17.5582 5.51862 17.526 5.46666C17.4939 5.4147 17.5711 5.29772 17.6421 5.23922C17.5003 5.29118 17.365 5.29118 17.2361 5.27174C17.1074 5.25212 17.1396 5.21307 17.1653 5.15458C17.1912 5.09608 17.225 5.00352 17.328 4.91251C17.0817 4.9612 16.7724 4.99544 16.555 4.92215C16.5141 4.90838 16.4439 4.8929 16.4873 4.8492C16.5309 4.80533 16.6613 4.69797 16.8207 4.62967C16.4583 4.68335 15.7723 4.7224 15.5791 4.50305C15.7675 4.54193 16.009 4.464 16.1637 4.40068C15.5549 4.33238 14.724 3.91311 14.7142 3.50365C14.8882 3.78632 15.1879 3.88387 15.4874 3.97161C15.0814 3.73264 14.9124 3.44498 14.898 3.25488C15.1298 3.47922 15.4824 3.73264 15.8304 3.79131C15.5839 3.65969 15.265 3.27449 15.1781 3.00627C15.3569 3.16713 15.8158 3.42554 16.1299 3.50847C15.9125 3.3378 15.5599 2.93316 15.5791 2.70898C15.6612 2.79191 15.8642 2.94778 16.2795 3.19157C16.6951 3.43535 16.9205 3.41746 17.2635 3.49058C17.2008 3.4061 17.1444 3.29393 17.1396 3.26468C17.2411 3.27931 17.3376 3.31836 17.6275 3.49866C17.9174 3.67913 18.5508 3.73436 18.9127 3.89367C19.1782 4.01066 19.5567 3.93754 19.663 4.01066Z" fill="#EA8B42"/>
<path fill-rule="evenodd" clip-rule="evenodd" d="M21.8496 6.51428C21.8656 6.50155 21.8656 6.47953 21.8258 6.44323C21.6664 6.29699 21.7195 6.20908 21.6084 6.1019C21.4973 5.99471 21.3959 5.82886 21.3621 5.68762C21.3281 5.5462 21.2537 5.28779 21.106 5.15618C21.0239 5.08306 20.9997 4.88314 21.0191 4.65398C21.0355 4.45785 21.0415 4.244 20.9126 4.11308C21.1541 4.04478 21.3767 4.02998 21.4538 4.10792C21.8548 4.00555 22.2028 3.97458 22.5441 3.95205C22.937 3.9259 23.6777 3.75695 24.2061 3.39944C24.1739 3.52951 23.9935 3.72443 23.8324 3.82198C24.3671 3.69192 25.0113 3.4514 25.5588 3.04194C25.5523 3.32805 25.3205 3.54241 25.1851 3.65957C25.5588 3.4514 26.1062 3.19144 26.2931 2.86646C26.3752 3.19953 25.8165 3.63514 25.5136 3.87566C25.8228 3.72615 26.2223 3.588 26.3769 3.36693C26.3736 3.63669 26.0225 3.97149 25.6876 4.16641C26.0291 4.03652 26.4091 3.89992 26.628 3.69846C26.6537 3.96994 25.607 4.59394 25.0884 4.76443C25.5395 4.65398 26.1256 4.50448 26.3832 4.34843C26.3704 4.40366 26.2653 4.48108 26.1888 4.53751C25.8737 4.77046 25.3905 4.89553 25.0949 4.95299C25.1337 5.11557 25.0821 5.20658 24.9017 5.21949C24.7214 5.23256 24.2849 5.16271 24.066 5.05209C24.0338 5.07153 23.9951 5.07824 23.9515 5.08306C24.1641 5.24392 24.2366 5.36091 24.1931 5.42921C24.1497 5.49751 23.9975 5.48512 23.8816 5.46086C23.9733 5.71927 23.6664 5.70224 23.4105 5.55583C23.512 5.68762 23.5265 5.79962 23.3863 5.82886C23.2463 5.85811 23.135 5.84848 22.9997 5.76056C22.9901 5.85811 22.8967 5.92314 22.7728 5.89063C23.1979 6.14904 23.1737 6.24332 23.1012 6.34069C23.0289 6.43824 22.7752 6.4188 22.6399 6.33106C22.582 6.53097 22.3509 6.53166 22.1784 6.37252C22.1769 6.45218 22.0123 6.61028 21.8496 6.51428Z" fill="#EA8B42"/>
<path fill-rule="evenodd" clip-rule="evenodd" d="M19.8773 7.49465C19.8844 7.43306 19.8902 7.36149 19.9416 7.3159C19.9932 7.27031 20.0254 7.23142 20.0705 7.27684C20.1156 7.32244 20.0866 7.36476 20.0254 7.3842C19.9642 7.40364 19.9224 7.45887 19.9126 7.49465C19.903 7.53044 19.8708 7.54988 19.8773 7.49465Z" fill="#111928"/>
<path fill-rule="evenodd" clip-rule="evenodd" d="M20.2283 7.79369C20.1964 7.69149 20.2123 7.55971 20.2476 7.52066C20.2831 7.4816 20.3282 7.45562 20.37 7.49468C20.4119 7.53373 20.428 7.58896 20.3507 7.62147C20.2823 7.6502 20.2766 7.72212 20.2735 7.77425C20.2703 7.8262 20.2476 7.85545 20.2283 7.79369Z" fill="#111928"/>
<path fill-rule="evenodd" clip-rule="evenodd" d="M20.6792 7.53056C20.6543 7.57236 20.6855 7.74182 20.7694 7.78398C20.8287 7.81391 20.8563 7.80686 20.8208 7.75146C20.7855 7.69623 20.7983 7.64428 20.8177 7.61503C20.8369 7.58578 20.8338 7.53382 20.7918 7.50785C20.75 7.4817 20.6984 7.49804 20.6792 7.53056Z" fill="#111928"/>
<path fill-rule="evenodd" clip-rule="evenodd" d="M21.0432 7.37781C20.9901 7.33755 20.9402 7.38589 20.9208 7.41996C20.8821 7.48826 20.9112 7.58581 20.9724 7.64103C21.0336 7.69626 21.0239 7.62159 21.0045 7.58907C20.9853 7.55656 20.982 7.49153 21.0239 7.48499C21.0657 7.47862 21.0948 7.41669 21.0432 7.37781Z" fill="#111928"/>
<path fill-rule="evenodd" clip-rule="evenodd" d="M21.346 7.4882C21.2942 7.47289 21.243 7.52726 21.2493 7.59229C21.2541 7.64081 21.2591 7.70274 21.3073 7.73526C21.3397 7.75693 21.3621 7.77104 21.346 7.71255C21.3299 7.65405 21.3558 7.60519 21.3846 7.58902C21.4135 7.57285 21.4007 7.50455 21.346 7.4882Z" fill="#111928"/>
<path fill-rule="evenodd" clip-rule="evenodd" d="M21.7743 7.21199C21.7368 7.23848 21.7389 7.2999 21.7743 7.32261C21.8097 7.34532 21.8613 7.37784 21.8517 7.43306C21.8419 7.48829 21.8709 7.5079 21.8967 7.44614C21.9225 7.38437 21.9257 7.29336 21.8967 7.25104C21.8676 7.20872 21.8064 7.18928 21.7743 7.21199Z" fill="#111928"/>
<path fill-rule="evenodd" clip-rule="evenodd" d="M20.8404 3.39685C20.8628 3.44645 20.927 3.47573 21.014 3.47329L21.014 3.47329C21.0417 3.47266 21.0584 3.48007 21.0785 3.51302C21.0573 3.52858 21.0173 3.5355 20.9666 3.53864C20.8743 3.54463 20.7936 3.61551 20.7091 3.74358C20.633 3.85861 20.6597 3.94322 20.8407 4.04515C21.0206 4.14645 21.0576 4.3229 21.0297 4.65501C21.0093 4.89632 21.0387 5.08204 21.1131 5.14825C21.2361 5.25785 21.3154 5.44723 21.3725 5.68523C21.4051 5.82155 21.5038 5.98611 21.6159 6.09426C21.6422 6.11968 21.661 6.14531 21.6761 6.17455C21.6848 6.19138 21.6911 6.20656 21.7013 6.23381C21.7367 6.32788 21.7605 6.36889 21.833 6.43541C21.8732 6.47228 21.881 6.50294 21.8562 6.5229C21.8399 6.53607 21.8103 6.54184 21.7775 6.54184L21.7596 6.54209C21.6817 6.54353 21.6314 6.53712 21.5737 6.50835C21.5651 6.5041 21.5568 6.49943 21.5486 6.49431L21.5535 6.54854C21.5557 6.57269 21.5574 6.59412 21.5587 6.6145C21.5621 6.66567 21.5632 6.70651 21.5612 6.73653C21.5604 6.7479 21.5592 6.7578 21.5567 6.77341C21.5522 6.80223 21.5514 6.81012 21.5522 6.82266C21.5543 6.85339 21.5725 6.88098 21.6199 6.9174C21.7441 7.01291 21.8279 7.11159 21.8414 7.1973C21.8563 7.29362 21.7959 7.33978 21.7067 7.31158C21.6521 7.29433 21.6239 7.25858 21.5916 7.1811C21.5898 7.17682 21.5851 7.16528 21.58 7.15283C21.5741 7.13812 21.5676 7.12213 21.5648 7.11538C21.549 7.07758 21.5347 7.06545 21.522 7.0691C21.5112 7.07224 21.499 7.08605 21.4873 7.10669C21.4674 7.14215 21.4558 7.23002 21.4644 7.3049L21.4645 7.3057C21.4792 7.43235 21.4767 7.48584 21.4385 7.54139C21.39 7.61232 21.2716 7.60592 21.2549 7.5279C21.2473 7.49176 21.2516 7.44401 21.2652 7.38064C21.2689 7.3632 21.2732 7.34512 21.2789 7.32291L21.2937 7.26467C21.3012 7.23461 21.2992 7.21777 21.2973 7.21742C21.2943 7.21685 21.2832 7.23098 21.2756 7.2558C21.254 7.32666 21.1954 7.39517 21.1112 7.44233C21.0224 7.49208 20.9707 7.44147 20.9648 7.32629C20.9603 7.23452 21.062 7.11827 21.2685 6.95179C21.3085 6.9194 21.3355 6.88649 21.3515 6.85203C21.3804 6.78963 21.3762 6.74172 21.3444 6.61931C21.3379 6.59412 21.3338 6.57769 21.3304 6.56218C21.2083 6.6247 20.9529 6.61935 20.8717 6.55416C20.8662 6.57982 20.8543 6.61115 20.8303 6.66844L20.8302 6.66873C20.8151 6.7047 20.8086 6.72075 20.802 6.73941C20.7877 6.78014 20.7907 6.80165 20.805 6.8075C20.8206 6.81383 20.8511 6.80599 20.8881 6.78496C20.968 6.73966 21.048 6.79898 21.0539 6.8912C21.0586 6.96755 20.9695 7.00598 20.8999 6.98492C20.8638 6.97408 20.8473 6.98841 20.8261 7.04206C20.809 7.08535 20.8199 7.15642 20.8651 7.30297C20.9154 7.46653 20.8582 7.6143 20.7268 7.58485C20.6465 7.56684 20.6254 7.5031 20.6367 7.39158C20.6381 7.37777 20.6397 7.36456 20.6425 7.34394C20.6487 7.29886 20.6499 7.28859 20.6508 7.27153C20.6516 7.25583 20.6516 7.24344 20.651 7.23449C20.6469 7.24411 20.6421 7.25855 20.6381 7.27467C20.6133 7.37484 20.5252 7.50926 20.4399 7.55922C20.3482 7.61278 20.2728 7.57117 20.2788 7.48584C20.2811 7.45445 20.3034 7.41441 20.3496 7.34964L20.3623 7.33182C20.4208 7.25102 20.4304 7.23679 20.4389 7.21453C20.4601 7.15927 20.457 7.15365 20.4182 7.16539C20.3746 7.17857 20.3144 7.21865 20.2581 7.27021C20.1626 7.35791 20.0614 7.39264 20.0103 7.32229C19.9698 7.26661 19.9865 7.21168 20.0542 7.15947C20.1137 7.11353 20.214 7.06765 20.3585 7.01812C20.5875 6.93978 20.605 6.86439 20.558 6.48303C20.4998 6.49767 20.4404 6.50297 20.3852 6.48553C20.4089 6.3364 20.3903 6.21654 20.3195 5.94268C20.2472 5.66253 20.2281 5.53633 20.2569 5.38693C20.2494 5.37691 20.2431 5.36707 20.2365 5.35566L20.2226 5.33071C20.2154 5.31835 20.2097 5.31161 20.2018 5.30691C20.1331 5.26516 19.9846 5.11683 19.9794 5.07986C19.9741 5.04254 19.9425 4.98837 19.9011 4.95495C19.8525 4.91566 19.8208 4.85164 19.8103 4.77761C19.8021 4.71981 19.7898 4.70125 19.7215 4.63244C19.65 4.56028 19.6264 4.4305 19.6705 4.26722C19.6407 4.16932 19.6435 4.07505 19.6712 3.7809L19.6747 3.74355C19.6716 3.74466 19.6682 3.74545 19.6636 3.7462L19.6483 3.7483L19.6379 3.7318C19.6443 3.72186 19.6499 3.71216 19.6554 3.70153C19.6577 3.69699 19.6589 3.6947 19.66 3.6924C19.6612 3.69007 19.6623 3.68772 19.6646 3.68298C19.6627 3.68701 19.6818 3.64609 19.6884 3.63283C19.6995 3.61048 19.7115 3.58835 19.7264 3.56318C19.8399 3.37187 20.0913 3.18195 20.3695 3.07758C20.6332 2.97855 20.7392 2.97142 20.7919 3.10288C20.8152 3.10288 20.827 3.1045 20.8955 3.11568C20.9347 3.12207 20.9598 3.12542 20.986 3.12716L21.0025 3.12827C21.0643 3.13245 21.0902 3.13797 21.1215 3.15847C21.1353 3.16747 21.1486 3.17914 21.1622 3.19413C21.2193 3.2569 21.2424 3.35882 21.2178 3.44785L21.2003 3.45302C21.074 3.34038 20.9775 3.3276 20.8404 3.39685ZM21.0657 3.51286C21.0488 3.49983 21.0363 3.4943 21.0145 3.49479L21.0146 3.49479C20.9198 3.49745 20.8474 3.46441 20.8253 3.392C20.9698 3.30717 21.0742 3.31747 21.2011 3.42525C21.2 3.43092 21.1987 3.43654 21.1971 3.44211L21.2146 3.43694C21.2101 3.43293 21.2056 3.42903 21.2011 3.42525C21.2167 3.34749 21.1949 3.26197 21.1464 3.20862C21.134 3.19492 21.122 3.18444 21.1098 3.17648C21.0825 3.15859 21.0594 3.15367 21.0011 3.14973L20.9846 3.14862C20.9576 3.14682 20.9319 3.1434 20.8921 3.13691C20.8797 3.13488 20.8691 3.13317 20.86 3.1317C20.8202 3.12524 20.8077 3.12321 20.7822 3.11809C20.7269 2.99628 20.6297 3.00281 20.377 3.09772C20.1031 3.20049 19.8556 3.38745 19.7448 3.57418C19.7301 3.59887 19.7184 3.62053 19.7076 3.6424C19.7012 3.65542 19.6821 3.6961 19.6839 3.69227C19.6816 3.69709 19.6804 3.6995 19.6793 3.7019C19.6781 3.7043 19.6769 3.70668 19.6744 3.71146C19.6724 3.71542 19.6703 3.71926 19.6682 3.72304C19.6662 3.7238 19.6639 3.72436 19.6602 3.72497L19.6456 3.72696L19.656 3.74345C19.6603 3.73665 19.6643 3.72995 19.6682 3.72304C19.6686 3.72289 19.669 3.72273 19.6693 3.72256C19.6716 3.72156 19.6735 3.7204 19.6817 3.71536L19.6979 3.72552L19.6926 3.78293C19.6651 4.07337 19.6624 4.16701 19.6911 4.2668C19.6489 4.42911 19.6711 4.55106 19.7366 4.61726C19.808 4.68907 19.8225 4.71101 19.8316 4.77458C19.8413 4.84357 19.8705 4.90263 19.9146 4.9382C19.9601 4.97498 19.9946 5.03403 20.0006 5.07685C20.0046 5.10532 20.1494 5.24992 20.2128 5.28848C20.2243 5.29534 20.2322 5.30462 20.2411 5.31982C20.2425 5.32227 20.2462 5.32895 20.2495 5.33493C20.252 5.33931 20.2542 5.3433 20.2551 5.34496C20.2567 5.34778 20.2583 5.35048 20.26 5.35326C20.2645 5.36103 20.2694 5.36937 20.276 5.38227C20.2499 5.5359 20.2687 5.66009 20.3403 5.93728C20.4118 6.21405 20.4307 6.33583 20.3969 6.47653C20.4366 6.48092 20.488 6.47696 20.5498 6.47219C20.5551 6.47178 20.5605 6.47137 20.5659 6.47095C20.6276 6.87037 20.6078 6.95554 20.3654 7.03847C20.223 7.0873 20.1245 7.13237 20.0673 7.17652C20.0079 7.22233 19.995 7.26474 20.0276 7.30962C20.0677 7.36477 20.1567 7.33425 20.2437 7.25433C20.3021 7.20079 20.3648 7.15909 20.412 7.1448C20.4713 7.12687 20.4857 7.15261 20.4589 7.22224C20.4494 7.24721 20.4402 7.26079 20.3797 7.34445L20.367 7.36214C20.3235 7.42326 20.302 7.46164 20.3001 7.48737C20.2954 7.55476 20.3517 7.58583 20.4291 7.54064C20.509 7.49388 20.5938 7.3644 20.6173 7.2695C20.6254 7.23651 20.6356 7.21154 20.6459 7.20463C20.6585 7.19615 20.6678 7.20556 20.6708 7.22061C20.6729 7.23131 20.6734 7.24849 20.6722 7.27261C20.6713 7.29056 20.67 7.30098 20.6638 7.34685C20.661 7.36724 20.6594 7.38024 20.658 7.39374C20.6477 7.49569 20.6653 7.54903 20.7315 7.56387C20.8411 7.58844 20.8909 7.45984 20.8446 7.30932C20.7979 7.15781 20.7865 7.08383 20.8061 7.03413C20.831 6.97143 20.8563 6.94939 20.9061 6.96432C20.9635 6.98168 21.0361 6.95036 21.0325 6.89255C21.0276 6.81477 20.9632 6.76707 20.8987 6.80368C20.8564 6.82767 20.8203 6.83695 20.797 6.82742C20.7689 6.81596 20.7641 6.7824 20.7818 6.73222C20.7886 6.71304 20.7952 6.69676 20.8104 6.6604L20.8105 6.66011C20.8406 6.58814 20.8512 6.55825 20.8538 6.53013L20.8733 6.52502C20.9228 6.59758 21.2161 6.60685 21.3324 6.53651L21.3484 6.54362C21.3524 6.56362 21.3567 6.58128 21.3651 6.61388C21.3982 6.74111 21.4027 6.79252 21.3709 6.8611C21.3535 6.89872 21.3244 6.93418 21.2819 6.96855C21.0816 7.13001 20.9822 7.24369 20.9862 7.32521C20.9914 7.42678 21.0291 7.46369 21.1008 7.42355C21.1803 7.37899 21.2352 7.31482 21.2552 7.24949C21.2657 7.21511 21.2831 7.19286 21.3013 7.19629C21.3214 7.20007 21.3248 7.22851 21.3145 7.26987L21.2996 7.32821C21.2941 7.35019 21.2898 7.36803 21.2861 7.38517C21.2731 7.44577 21.2691 7.49108 21.2759 7.52342C21.2882 7.58091 21.382 7.58599 21.4208 7.5292C21.4549 7.47959 21.4573 7.42949 21.4433 7.30818L21.4432 7.30739C21.434 7.22836 21.4462 7.13607 21.4687 7.09608C21.4831 7.07074 21.4981 7.05364 21.5161 7.04844C21.542 7.04095 21.5651 7.06047 21.5845 7.10706C21.5874 7.11396 21.594 7.13019 21.6 7.14499C21.605 7.1573 21.6096 7.16863 21.6113 7.17278C21.6415 7.24497 21.6661 7.2762 21.7131 7.29107C21.7878 7.31467 21.8326 7.28046 21.8202 7.20064C21.8078 7.12208 21.727 7.02683 21.6069 6.93447C21.555 6.89463 21.5335 6.86187 21.5308 6.82414C21.5298 6.80934 21.5308 6.80069 21.5356 6.77007C21.5379 6.75506 21.5391 6.74569 21.5398 6.73512C21.5417 6.70627 21.5407 6.66623 21.5373 6.61594C21.536 6.59572 21.5343 6.57443 21.5322 6.55042L21.5252 6.47351L21.5423 6.46396C21.5554 6.47368 21.569 6.48202 21.5832 6.48909C21.6371 6.51593 21.6844 6.52196 21.7592 6.52058L21.7775 6.52034C21.8057 6.52034 21.8314 6.51533 21.8428 6.50612C21.8546 6.49668 21.8504 6.48051 21.8186 6.45129C21.7431 6.38207 21.7177 6.33835 21.6813 6.2414C21.6713 6.21488 21.6652 6.20032 21.6571 6.18443C21.6431 6.15724 21.6256 6.13352 21.601 6.10977C21.4861 5.99887 21.3853 5.83074 21.3517 5.69025C21.2955 5.45637 21.2176 5.27008 21.0989 5.16434C21.0177 5.09205 20.9874 4.90093 21.0084 4.6532C21.0355 4.32902 21.0001 4.15954 20.8302 4.06391C20.6389 3.95616 20.6079 3.85775 20.6913 3.73169C20.7792 3.59848 20.8642 3.52374 20.9653 3.51718C20.9798 3.51628 20.9935 3.515 21.0061 3.51384C21.0332 3.51133 21.0545 3.50934 21.0657 3.51286Z" fill="#111928"/>
<path fill-rule="evenodd" clip-rule="evenodd" d="M19.402 3.95984C19.5672 3.96567 19.6273 3.97308 19.6691 4.0018L19.6737 4.01123C19.668 4.12153 19.6727 4.20091 19.691 4.26681C19.6488 4.42913 19.671 4.55107 19.7366 4.61727C19.8079 4.68908 19.8224 4.71102 19.8315 4.77459C19.8412 4.84358 19.8705 4.90264 19.9145 4.93821C19.96 4.97499 19.9945 5.03404 20.0005 5.07687C20.0045 5.10533 20.1494 5.24993 20.2128 5.28849C20.2243 5.29535 20.2322 5.30463 20.2411 5.31983C20.2425 5.32228 20.2462 5.32896 20.2495 5.33494C20.2519 5.33932 20.2541 5.34331 20.2551 5.34497C20.2567 5.34778 20.2583 5.35049 20.2599 5.35326C20.2645 5.36103 20.2694 5.36938 20.276 5.38229C20.2534 5.51489 20.2677 5.64737 20.3114 5.85033C20.1497 5.98566 19.9751 6.03754 19.8517 5.99852C19.7398 5.96315 19.6958 5.86079 19.7423 5.73326C19.6107 5.82619 19.436 5.88041 19.2886 5.8796C19.1368 5.87876 19.0511 5.81809 19.0852 5.71859C18.7184 5.84173 18.5144 5.77199 18.5647 5.60207C18.2611 5.71527 18.0097 5.63675 18.0494 5.50194C17.7888 5.56879 17.5621 5.54519 17.5169 5.47233C17.4887 5.42672 17.5325 5.33457 17.599 5.26474C17.4838 5.29855 17.3665 5.30228 17.2345 5.28238C17.1723 5.27291 17.1415 5.2583 17.1333 5.2334C17.1269 5.21441 17.1289 5.20866 17.1525 5.15685L17.1555 5.15022C17.1554 5.1504 17.171 5.11451 17.1763 5.10279C17.1857 5.08226 17.1949 5.06401 17.2053 5.04583C17.229 5.0044 17.2575 4.96625 17.2936 4.93008C16.9922 4.98648 16.7351 4.99423 16.5516 4.93235L16.5241 4.92349C16.4985 4.91499 16.4827 4.90757 16.4727 4.89709C16.4576 4.88132 16.4599 4.86158 16.4797 4.84162C16.5383 4.78257 16.6419 4.70667 16.7522 4.65014C16.2291 4.71907 15.7285 4.689 15.571 4.51018L15.5812 4.49253C15.728 4.52282 15.9168 4.48532 16.1207 4.40625C15.4528 4.31707 14.7125 3.88211 14.7035 3.50392L14.7233 3.49801C14.8588 3.71809 15.0396 3.82282 15.4121 3.93778C15.0896 3.72924 14.9035 3.47016 14.8873 3.2557L14.9054 3.24715C15.1688 3.5021 15.4826 3.70117 15.7707 3.76834C15.532 3.6131 15.2496 3.26169 15.1679 3.00961L15.1852 2.99828C15.3673 3.16205 15.7895 3.39337 16.0823 3.48364C15.8158 3.25978 15.5521 2.89805 15.5684 2.70807L15.5867 2.70142C15.6885 2.80424 15.9222 2.96939 16.2849 3.18229C16.5097 3.31415 16.6809 3.3747 16.9065 3.41637C16.9384 3.42227 16.9693 3.42753 17.0179 3.43549C17.1378 3.45514 17.182 3.46269 17.2387 3.4744C17.1862 3.39837 17.1344 3.2991 17.129 3.26644L17.1411 3.25405C17.2538 3.27029 17.3615 3.32063 17.6331 3.48954C17.764 3.571 17.9239 3.61887 18.312 3.70917L18.3299 3.71334C18.6432 3.78624 18.7824 3.82461 18.917 3.88384C18.9872 3.91476 19.0692 3.9341 19.167 3.94536C19.2331 3.95298 19.2809 3.95557 19.402 3.95984ZM19.652 4.01633C19.6521 4.01427 19.6522 4.0122 19.6523 4.01011L19.6569 4.01954C19.6553 4.01844 19.6537 4.01737 19.652 4.01633ZM15.6109 4.51936C15.7668 4.54046 15.9606 4.49544 16.1677 4.41065L16.1648 4.39001C15.5217 4.31785 14.7924 3.90842 14.7293 3.54668C14.8754 3.76154 15.0764 3.86243 15.4843 3.98194L15.4928 3.96234C15.1485 3.75969 14.9437 3.49933 14.9119 3.28308C15.1927 3.54898 15.5269 3.75106 15.8286 3.80192L15.8354 3.78183C15.6034 3.65796 15.304 3.30438 15.2018 3.04084C15.4118 3.21434 15.846 3.44464 16.1271 3.51888L16.1365 3.50001C15.8732 3.29333 15.5968 2.93074 15.5892 2.73391C15.7005 2.83896 15.9294 2.99856 16.2741 3.20086C16.5011 3.33404 16.6747 3.39542 16.9026 3.43752C16.9347 3.44345 16.9657 3.44873 17.0144 3.45672C17.1521 3.47928 17.1897 3.48584 17.2613 3.50111L17.2721 3.48416C17.2232 3.41827 17.1701 3.32194 17.1544 3.27796C17.258 3.29627 17.3661 3.34875 17.6218 3.50781C17.7555 3.59105 17.9164 3.63919 18.3072 3.73012L18.3251 3.73429C18.637 3.80686 18.7755 3.84504 18.9084 3.90353C18.9808 3.93543 19.0648 3.95524 19.1645 3.96673C19.2314 3.97444 19.2796 3.97704 19.4013 3.98134C19.5538 3.98672 19.6148 3.99366 19.652 4.01633C19.6466 4.12572 19.6516 4.2054 19.6704 4.26723C19.6263 4.43052 19.6499 4.56029 19.7214 4.63245C19.7898 4.70126 19.802 4.71982 19.8103 4.77762C19.8207 4.85165 19.8524 4.91567 19.9011 4.95496C19.9424 4.98838 19.9741 5.04256 19.9793 5.07987C19.9845 5.11684 20.1331 5.26517 20.2017 5.30692C20.2096 5.31163 20.2153 5.31837 20.2226 5.33072L20.2365 5.35567C20.243 5.36708 20.2493 5.37692 20.2568 5.38694C20.2316 5.51484 20.2463 5.64989 20.2941 5.84464C20.1411 5.96484 19.9737 6.01457 19.8581 5.97801C19.7488 5.94344 19.7127 5.83877 19.7774 5.70536L19.7611 5.69225C19.6308 5.79675 19.4436 5.85895 19.2887 5.85809C19.1389 5.85727 19.0673 5.79955 19.1139 5.70544L19.1008 5.6905C18.7177 5.82497 18.5255 5.75272 18.5924 5.58771L18.5785 5.57367C18.2644 5.69938 18.0153 5.61484 18.0768 5.4909L18.0644 5.47574C17.8035 5.547 17.5747 5.52495 17.5351 5.46099C17.51 5.42036 17.5709 5.31175 17.6488 5.24754L17.6384 5.22913C17.5117 5.27555 17.3842 5.28321 17.2377 5.26111C17.183 5.25278 17.1584 5.24113 17.1536 5.22661C17.15 5.21569 17.152 5.20966 17.172 5.1658L17.1751 5.15893C17.2298 5.0354 17.25 4.99996 17.3222 4.93226L17.3351 4.92059L17.3259 4.90197C17.0122 4.96397 16.7448 4.97481 16.5584 4.91196L16.5308 4.90307C16.5085 4.89567 16.4949 4.88926 16.4882 4.88219C16.4819 4.87566 16.4827 4.8691 16.4949 4.8568C16.563 4.78821 16.6947 4.69534 16.8249 4.63957L16.8192 4.61905C16.3039 4.69536 15.7932 4.6767 15.6109 4.51936ZM15.6109 4.51936C15.6022 4.51187 15.5942 4.50406 15.5871 4.49594L15.5769 4.51359C15.588 4.51588 15.5993 4.51781 15.6109 4.51936ZM17.1544 3.27796C17.1522 3.27188 17.1508 3.26681 17.1501 3.26295L17.1381 3.27534C17.1435 3.27612 17.1489 3.27699 17.1544 3.27796ZM15.5892 2.73391C15.5889 2.72561 15.5891 2.7176 15.5897 2.70992L15.5715 2.71658C15.577 2.72218 15.5829 2.72796 15.5892 2.73391ZM15.2018 3.04084C15.1968 3.02799 15.1923 3.01535 15.1883 3.00296L15.1709 3.01429C15.1806 3.02297 15.1909 3.03183 15.2018 3.04084ZM14.9119 3.28308C14.9105 3.27332 14.9094 3.26365 14.9087 3.25407L14.8905 3.26263C14.8976 3.26949 14.9047 3.2763 14.9119 3.28308ZM14.7293 3.54668C14.7267 3.53217 14.7253 3.51774 14.7249 3.5034L14.7051 3.50931C14.713 3.52215 14.721 3.53459 14.7293 3.54668Z" fill="#111928"/>
<path fill-rule="evenodd" clip-rule="evenodd" d="M21.8441 6.5238L21.8429 6.50612C21.8546 6.49678 21.8504 6.48055 21.8185 6.45141C21.743 6.3822 21.7176 6.33848 21.6812 6.24153C21.6712 6.21501 21.6651 6.20044 21.657 6.18456C21.643 6.15737 21.6255 6.13365 21.6009 6.10989C21.486 5.999 21.3852 5.83086 21.3516 5.69038C21.2954 5.4565 21.2175 5.2702 21.0988 5.16447C21.0176 5.09218 20.9873 4.90106 21.0083 4.65333C21.0108 4.62287 21.0129 4.59392 21.0143 4.56636L21.0212 4.57007L21.021 4.57088L21.0222 4.57064L21.0352 4.57731C21.0338 4.60215 21.0319 4.62807 21.0296 4.65514C21.0092 4.89645 21.0386 5.08216 21.113 5.14838C21.236 5.25798 21.3153 5.44735 21.3724 5.68535C21.405 5.82168 21.5037 5.98624 21.6158 6.09439C21.6421 6.11981 21.6609 6.14543 21.676 6.17468C21.6847 6.19151 21.691 6.20669 21.7012 6.23394C21.7366 6.328 21.7604 6.36902 21.8329 6.43552C21.8661 6.4658 21.8773 6.49203 21.8663 6.51144C21.8625 6.50953 21.8587 6.50747 21.855 6.50526L21.8562 6.52294C21.8606 6.51944 21.864 6.5156 21.8663 6.51144C21.9963 6.57646 22.1657 6.4707 22.1676 6.37256L22.1856 6.36485C22.3597 6.52554 22.5762 6.51236 22.6295 6.3283L22.6456 6.32227C22.7842 6.41219 23.0276 6.42208 23.0926 6.3345C23.182 6.21438 23.1294 6.12026 22.7671 5.90007L22.7754 5.88047C22.8886 5.91017 22.9796 5.85471 22.989 5.75975L23.0055 5.75178C23.1304 5.83297 23.236 5.8495 23.384 5.81858C23.5054 5.79326 23.5078 5.7001 23.4019 5.56265L23.4157 5.54674C23.5428 5.61947 23.6812 5.65912 23.7752 5.6497C23.8745 5.63976 23.9118 5.5787 23.8714 5.46472L23.8837 5.45058C24.0323 5.48169 24.1502 5.47679 24.1839 5.42366C24.2246 5.35983 24.1462 5.24417 23.945 5.09189L23.9502 5.07262C24.0028 5.06681 24.0338 5.05918 24.0708 5.04273C24.2698 5.14331 24.7001 5.22356 24.9009 5.20901C25.0688 5.19699 25.1231 5.11782 25.0928 4.94268C25.5236 4.85892 25.92 4.72306 26.1824 4.52909C26.2108 4.5081 26.2236 4.49861 26.2398 4.48616C26.2628 4.46844 26.2824 4.45255 26.2996 4.43747C26.326 4.41419 26.3458 4.39345 26.3583 4.37556C26.3688 4.36969 26.3789 4.3638 26.3887 4.35789L26.3727 4.34623C26.3707 4.35492 26.3658 4.36472 26.3583 4.37556C26.1374 4.499 25.7514 4.61338 25.0909 4.77513L25.085 4.75446C25.6715 4.56162 26.5795 3.97442 26.6165 3.72339C26.6228 3.71785 26.6291 3.71226 26.6352 3.70663L26.6173 3.69972C26.618 3.70723 26.6177 3.71513 26.6165 3.72339C26.4644 3.85633 26.25 3.96212 25.8921 4.10027C25.8621 4.11184 25.8313 4.1236 25.7911 4.13885L25.6913 4.17671L25.6821 4.15736C26.0429 3.94741 26.3337 3.63926 26.3636 3.40266C26.3713 3.39307 26.3786 3.38331 26.3856 3.37335L26.3661 3.36705C26.3659 3.37871 26.3651 3.39059 26.3636 3.40266C26.2637 3.52684 26.0985 3.62247 25.7807 3.76561L25.7708 3.77003L25.7706 3.77014C25.7417 3.78311 25.6595 3.81996 25.633 3.83201C25.589 3.85201 25.5522 3.86911 25.5181 3.88559L25.5068 3.86747C25.6656 3.74139 25.7209 3.69653 25.8073 3.62122C25.97 3.47943 26.094 3.35071 26.1775 3.22918C26.2627 3.10514 26.3014 2.99373 26.2877 2.89616C26.2928 2.88816 26.2976 2.88014 26.3022 2.87208L26.2826 2.86928C26.2847 2.87812 26.2865 2.88708 26.2877 2.89616C26.1723 3.07927 25.949 3.24712 25.5915 3.44929C25.5348 3.48132 25.3929 3.55864 25.2931 3.61304L25.2928 3.61317C25.2423 3.64068 25.2026 3.66231 25.1902 3.66922L25.178 3.65168C25.4059 3.45457 25.5342 3.28195 25.5471 3.0642L25.5651 3.05081L25.548 3.04194C25.5479 3.04941 25.5475 3.05684 25.5471 3.0642C25.0596 3.42418 24.4614 3.68026 23.8348 3.83268L23.829 3.81853L23.8267 3.81302C23.9794 3.72064 24.1394 3.54805 24.1865 3.42559L24.212 3.40861L24.1956 3.3971C24.1933 3.40623 24.1903 3.41575 24.1865 3.42559C23.7274 3.72681 23.0445 3.92976 22.5447 3.96302C22.0925 3.99288 21.7998 4.03091 21.4461 4.11574C21.3787 4.04764 21.1799 4.05127 20.9325 4.11892C20.9285 4.11447 20.9244 4.11009 20.9201 4.10577L20.9154 4.12368L20.9325 4.11892C21.0185 4.21475 21.0447 4.34157 21.0368 4.54219L21.0169 4.54613L21.0145 4.56164C21.0252 4.34546 20.9984 4.21581 20.9049 4.12088L20.9096 4.10298C21.1723 4.02868 21.3846 4.02313 21.4511 4.09774C21.796 4.00968 22.0899 3.9715 22.5433 3.94156C23.0489 3.90791 23.7444 3.69903 24.2 3.39078L24.2164 3.40229C24.1877 3.51796 24.0424 3.68866 23.8906 3.79662C24.5001 3.64131 25.0798 3.38694 25.5523 3.03356L25.5694 3.04243C25.5646 3.25497 25.4573 3.42326 25.2613 3.60588L25.2829 3.59409L25.283 3.59405L25.2833 3.5939C25.3831 3.53951 25.5245 3.46245 25.5809 3.43055C25.9508 3.22139 26.1755 3.04949 26.2837 2.86133L26.3034 2.86412C26.3307 2.97506 26.2914 3.10123 26.1951 3.24139C26.1105 3.36469 25.9853 3.49459 25.8214 3.63746C25.7492 3.70036 25.6987 3.74206 25.5922 3.82702L25.6241 3.81242C25.6507 3.80035 25.733 3.76346 25.7618 3.7505L25.7719 3.74599C26.1105 3.5935 26.2739 3.49557 26.368 3.361L26.3875 3.36731C26.3847 3.59643 26.1279 3.89569 25.7891 4.11659L25.8844 4.08019C26.2548 3.93724 26.4702 3.8293 26.6207 3.69078L26.6386 3.69768C26.6602 3.92532 25.8762 4.46 25.2705 4.7084C25.846 4.56354 26.1849 4.45619 26.3776 4.33947L26.3936 4.35113C26.3869 4.37994 26.3594 4.41339 26.3137 4.45364C26.2962 4.46907 26.2762 4.48525 26.2528 4.50323C26.2364 4.5158 26.2236 4.52535 26.1951 4.54641C25.9295 4.74273 25.5306 4.87947 25.1053 4.95074C25.1469 5.12543 25.0839 5.21748 24.9024 5.23046C24.6979 5.24529 24.2637 5.16431 24.0715 5.06155C24.0465 5.07659 24.0191 5.08482 23.9787 5.09069C24.1733 5.24187 24.25 5.35993 24.202 5.43523C24.1628 5.49702 24.0465 5.50417 23.8974 5.47528C23.9321 5.59153 23.8852 5.6603 23.7774 5.6711C23.6886 5.67999 23.5649 5.64812 23.4462 5.58761C23.5313 5.7166 23.5176 5.8127 23.3884 5.83964C23.2406 5.87051 23.1318 5.85543 23.0078 5.77873C22.9915 5.86182 22.9178 5.9142 22.8237 5.9097C23.1546 6.11657 23.205 6.21943 23.1097 6.34736C23.0385 6.44343 22.7943 6.43611 22.6459 6.34771C22.5827 6.53165 22.3642 6.54627 22.1865 6.39439C22.1629 6.50389 21.9809 6.60452 21.8441 6.5238ZM21.5108 4.5064C21.516 4.49239 21.5199 4.47724 21.5224 4.46092L21.5098 4.44875L21.0368 4.54219L21.0361 4.55688L21.0241 4.55023L21.0212 4.57007L21.0222 4.57064L21.0356 4.56791L21.0352 4.57731C21.219 4.66956 21.4221 4.66422 21.4963 4.53716C21.6573 4.62464 21.9117 4.58177 21.9937 4.45918C22.2246 4.54275 22.4403 4.49257 22.4788 4.28076L22.4648 4.26866L22.0116 4.42408C22.018 4.40601 22.021 4.38662 22.02 4.36603L21.5108 4.5064ZM21.5061 4.51802C21.5078 4.51424 21.5094 4.51036 21.5108 4.5064L21.4894 4.51232L21.487 4.53189L21.4963 4.53716L21.4994 4.53175L21.5205 4.52537C21.6721 4.59791 21.9002 4.55672 21.982 4.4548L21.9937 4.45918C21.9955 4.45655 21.9972 4.45389 21.9988 4.45119L22.0176 4.44473C22.2241 4.51385 22.4106 4.47002 22.4538 4.29515L22.4717 4.28901L22.4577 4.2769C22.4565 4.28314 22.4552 4.28922 22.4538 4.29515L22.0176 4.44473C22.0133 4.44329 22.009 4.44181 22.0047 4.44027C22.0073 4.435 22.0096 4.4296 22.0116 4.42408L21.9991 4.42836C22.0072 4.41231 22.0118 4.39509 22.0124 4.37687L21.5205 4.52537C21.5156 4.52304 21.5108 4.52059 21.5061 4.51802ZM21.9946 4.43659C21.998 4.43785 22.0013 4.43907 22.0047 4.44027C22.0029 4.44397 22.0009 4.44762 21.9988 4.45119L21.9886 4.45468L21.9888 4.44571C21.9908 4.44271 21.9928 4.43968 21.9946 4.43659ZM21.9946 4.43659C21.9927 4.43589 21.9908 4.43518 21.9889 4.43446L21.9888 4.44571C21.9866 4.44879 21.9844 4.45182 21.982 4.4548L21.9813 4.45456L21.9817 4.43433L21.9991 4.42836C21.9977 4.43114 21.9962 4.43388 21.9946 4.43659ZM21.5061 4.51802C21.504 4.52274 21.5018 4.52732 21.4994 4.53175L21.4955 4.53291L21.4979 4.51334L21.5061 4.51802ZM21.0512 4.56472L21.0356 4.56791L21.0361 4.55688L21.0512 4.56472ZM21.4984 4.47343C21.4615 4.64203 21.2477 4.6638 21.0512 4.56472L21.4984 4.47343ZM21.4984 4.47343C21.4995 4.46832 21.5004 4.46307 21.5012 4.45769L21.5139 4.47026L21.4984 4.47343ZM23.8287 3.81863L22.8628 4.13044L22.8679 4.15129C22.9702 4.13413 23.1311 4.08673 23.345 4.01382C23.3746 4.00374 23.4051 3.99321 23.4367 3.98216C23.5431 3.94493 23.8464 3.83516 23.8359 3.8389L23.829 3.81853L23.8289 3.81855L23.8287 3.81863ZM23.8287 3.81863C23.8189 3.82224 23.5324 3.92593 23.4296 3.96185C23.3981 3.97288 23.3676 3.9834 23.3381 3.99345C23.1253 4.066 22.9651 4.11318 22.8643 4.13007L22.8694 4.15092L23.8356 3.839L23.8287 3.81863ZM21.0145 4.56164L21.0143 4.56636L21.0138 4.56612L21.0145 4.56164ZM17.2499 3.49353C17.3181 3.59309 17.4973 3.73907 17.6101 3.77456C17.6183 3.85359 17.6517 3.93016 17.7078 3.99187L17.1975 3.82816L17.1839 3.84118C17.1958 3.88578 17.2159 3.92506 17.242 3.9586L16.8905 3.81607C16.9196 3.81663 16.9515 3.81465 16.9863 3.81001L16.9921 3.79137L16.9103 3.71716L17.2499 3.49353ZM16.8793 3.56877L17.2499 3.49353L17.2652 3.47889L17.6082 3.7424L17.6085 3.75136C17.5901 3.7449 17.5701 3.73555 17.549 3.72403L17.3334 3.55834C17.3065 3.53137 17.2837 3.50493 17.2675 3.48134L17.2522 3.49597L17.3334 3.55834C17.3949 3.62016 17.4774 3.68475 17.549 3.72403L17.6098 3.77066L17.6101 3.77456L17.6199 3.7774L17.6291 3.75846L17.6082 3.7424C17.6081 3.73414 17.6082 3.72586 17.6087 3.71759L17.6241 3.70847L18.3971 4.08588C18.3977 4.09079 18.3986 4.09565 18.3998 4.10047L18.3853 4.10407L17.6296 3.7351C17.6296 3.72963 17.6298 3.72416 17.6301 3.7187L17.6147 3.72781L17.6296 3.7351C17.629 3.88573 17.7262 4.03505 17.9027 4.08823C18.0592 4.13539 18.2127 4.14124 18.3424 4.116C18.3093 4.12593 18.2763 4.13748 18.244 4.15029C18.1358 4.15748 18.017 4.14512 17.8966 4.10883C17.8367 4.09079 17.7854 4.0622 17.7435 4.02641L17.7485 4.02242L17.745 4.00381L17.7078 3.99187C17.714 3.9987 17.7205 4.00534 17.7273 4.01178L17.7188 4.01797L17.2104 3.85487C17.2083 3.84858 17.2063 3.84216 17.2046 3.83562L17.191 3.84864L17.2104 3.85487C17.2324 3.92026 17.274 3.97235 17.3261 4.00937L17.277 3.99694L17.2765 3.99652L17.2812 3.99509L17.2821 3.97484L17.242 3.9586C17.2475 3.96572 17.2534 3.97258 17.2594 3.97919L17.2454 3.98318L16.8263 3.81322L16.8276 3.81022C16.8468 3.81367 16.8678 3.81564 16.8905 3.81607L16.8247 3.78938L16.811 3.79479L16.8062 3.80563C16.799 3.8038 16.792 3.80173 16.7854 3.79942L16.8086 3.78414C16.8487 3.79486 16.8991 3.79769 16.9602 3.79144L16.9777 3.80733L16.9835 3.78869C16.9756 3.78975 16.9678 3.79066 16.9602 3.79144L16.8918 3.72936L16.9103 3.71716L16.7709 3.59078L16.8272 3.57935C16.8428 3.5818 16.8584 3.58397 16.8741 3.58585L16.8793 3.56877ZM16.8751 3.56963L16.8793 3.56877L16.8803 3.56561L15.9043 3.06187L15.8921 3.07924C16.1255 3.30105 16.3966 3.47051 16.682 3.54814C16.6734 3.5676 16.6678 3.58955 16.6658 3.61213L16.5353 3.63861L16.1286 3.49364L16.1182 3.51208C16.1949 3.57547 16.2994 3.62224 16.4327 3.65945L15.8334 3.78113L15.8333 3.7811L15.8273 3.80242L15.8274 3.80246L16.2246 3.92569C16.2207 3.96307 16.2422 4.00516 16.2923 4.04375C16.31 4.05733 16.3311 4.07033 16.3551 4.08274C16.3043 4.1071 16.2852 4.14693 16.2959 4.18958L15.4902 3.96139L15.4816 3.98081C15.6892 4.11295 15.9489 4.18349 16.3062 4.21586C16.3159 4.23419 16.3308 4.25257 16.351 4.27003C16.3268 4.29824 16.3174 4.32998 16.321 4.36229C16.273 4.36076 16.2044 4.37299 16.1596 4.3918L16.1652 4.41308L16.3263 4.38702C16.336 4.41801 16.3572 4.44884 16.3884 4.47694C16.6479 4.71174 17.2884 4.70721 17.8943 4.4963C17.908 4.5269 17.9433 4.54795 17.9998 4.56377C18.0227 4.57021 18.0459 4.5757 18.0695 4.58026L17.3237 4.90276L17.3295 4.92328C17.556 4.88999 17.874 4.74225 18.109 4.58701C18.1713 4.59626 18.2352 4.59918 18.2996 4.59617C18.2721 4.6475 18.2673 4.71326 18.2872 4.76902L17.4984 5.04874L17.505 5.06919C17.7647 4.99264 18.1042 4.87392 18.2958 4.7894C18.3194 4.83704 18.3633 4.87407 18.4291 4.88262L17.6377 5.22949L17.6447 5.24976C17.8296 5.2018 18.1962 5.04156 18.4769 4.88691C18.5573 4.89129 18.6461 4.88261 18.7377 4.86372C18.7206 4.89924 18.7105 4.93426 18.7071 4.96755L17.9513 5.32217L17.9585 5.34232C18.1875 5.2836 18.3943 5.18012 18.7058 4.99368C18.706 5.04387 18.7223 5.08906 18.7537 5.12457L18.0623 5.47335L18.0693 5.49348C18.1445 5.47771 18.2341 5.4437 18.3359 5.3943C18.3916 5.36723 18.4502 5.33597 18.5112 5.30102C18.5983 5.25113 18.6669 5.20836 18.7704 5.14128C18.8054 5.17236 18.8543 5.19372 18.9161 5.20116C18.9232 5.20202 18.9304 5.20265 18.9378 5.20307L18.3719 5.4684L18.3786 5.48866C18.5043 5.46197 18.6243 5.41276 18.7536 5.34156C18.7828 5.32549 18.8423 5.29005 18.8953 5.25846C18.9366 5.23388 18.9739 5.21163 18.9901 5.20262C19.0547 5.19812 19.1266 5.17956 19.2026 5.14835C19.1687 5.20159 19.1505 5.24419 19.1477 5.28166L18.5696 5.57089L18.5779 5.59066C18.6795 5.55515 18.9732 5.4052 19.1481 5.30652C19.1511 5.33148 19.1615 5.35452 19.1795 5.37758C19.1974 5.40059 19.2187 5.41308 19.2467 5.41529L18.8502 5.6L18.8587 5.61973C18.9949 5.5647 19.1807 5.47853 19.3377 5.39781C19.38 5.38236 19.4321 5.35693 19.4973 5.32177C19.5487 5.29416 19.6091 5.25499 19.6784 5.20531C19.6966 5.19225 19.7153 5.17853 19.7347 5.16409C19.7199 5.21775 19.7192 5.26402 19.7309 5.3026L19.0955 5.6883L19.1049 5.70754C19.2751 5.64212 19.5903 5.44475 19.7393 5.32478C19.7556 5.35987 19.7836 5.3874 19.8217 5.40707L19.3802 5.68842L19.3901 5.7074C19.5582 5.6361 19.7528 5.51034 19.8467 5.41832L19.8509 5.41993C19.949 5.45655 20.0478 5.45766 20.1403 5.40891L19.7613 5.69388L19.7732 5.71174C19.958 5.60196 20.1774 5.43969 20.2494 5.35344L20.2348 5.33792L20.2339 5.33858L20.2309 5.32205L19.7841 5.12679C19.8087 5.10791 19.8343 5.08797 19.8624 5.06592L19.953 4.99421L19.9444 4.97518L19.6516 5.02945L19.8563 4.87249L19.8439 4.85502C19.7784 4.89907 19.6793 4.97108 19.5867 5.04149L19.3223 5.09049C19.4792 5.0037 19.6454 4.87009 19.7951 4.70041L19.7856 4.68264L19.3992 4.7378L19.4508 4.70364L19.5678 4.62516C19.6123 4.59553 19.6478 4.57237 19.6815 4.55117L19.6704 4.53279L19.6701 4.53294L19.3 4.75197L18.9582 4.80075C19.1686 4.72475 19.3693 4.60741 19.4923 4.48261C19.5445 4.47538 19.5985 4.46523 19.6534 4.45193L19.6561 4.45248L19.6561 4.45126L19.6607 4.45013L19.6602 4.42913L19.0188 4.30588C19.0597 4.30282 19.1017 4.29791 19.1445 4.291L19.1459 4.27006L18.4099 4.05414L18.3962 4.06394C18.3958 4.07135 18.3961 4.07866 18.3971 4.08588L18.4212 4.09767L18.4219 4.10006L18.4189 4.09857L18.4151 4.09809L18.4151 4.09789L18.4146 4.09803L18.4117 4.09768L18.3998 4.10047L18.4003 4.10226L18.3883 4.10553L18.3853 4.10407C18.3711 4.10772 18.3567 4.11171 18.3424 4.116C18.3581 4.11296 18.3734 4.10946 18.3883 4.10553L18.4036 4.113L18.4068 4.12092C18.3872 4.12559 18.3675 4.13094 18.3477 4.13688C18.3145 4.14339 18.2799 4.14791 18.244 4.15029C18.1995 4.16797 18.1564 4.18805 18.1167 4.20956L17.6238 4.08477C17.6667 4.07368 17.7075 4.0544 17.7435 4.02641L17.738 4.02166L17.735 4.00569L17.7273 4.01178L17.738 4.02166L17.7385 4.0243L17.7188 4.01797C17.6756 4.04832 17.6258 4.06609 17.5744 4.07224L17.3261 4.00937C17.351 4.02712 17.3783 4.04141 17.407 4.05205L17.3168 4.02921C17.3028 4.01946 17.2895 4.0087 17.277 3.99694L17.276 3.99669L17.2765 3.99652L17.2741 3.99419L17.2749 3.97453L17.2594 3.97919C17.2641 3.98435 17.269 3.98935 17.2741 3.99419L17.274 3.99478L17.2454 3.98318L17.2345 3.98618L16.8136 3.87963C16.8126 3.85884 16.8168 3.83649 16.8263 3.81322L16.8167 3.80932L16.8187 3.80851L16.8276 3.81022L16.8304 3.80391L16.8187 3.80851L16.8062 3.80563C16.7963 3.82988 16.7916 3.85321 16.7917 3.8751C16.7584 3.86878 16.7268 3.86301 16.6967 3.85782L16.7854 3.79942C16.7401 3.78382 16.7075 3.75766 16.6873 3.72233L16.6829 3.714L16.6836 3.71412L16.689 3.69339L16.6726 3.68755C16.6655 3.66336 16.6635 3.63735 16.6658 3.61213L16.6878 3.60765C16.6834 3.64329 16.6886 3.68129 16.7059 3.71163C16.7257 3.74615 16.7595 3.77103 16.8086 3.78414L16.8918 3.72936L16.7448 3.59608L16.7709 3.59078L16.7398 3.56255C16.7688 3.56913 16.798 3.57474 16.8272 3.57935L16.8508 3.57456L16.8705 3.58474L16.8751 3.56963ZM16.8134 3.55528C16.8344 3.55889 16.8555 3.56196 16.8766 3.5645L16.8751 3.56963L16.8508 3.57456L16.8134 3.55528ZM16.7065 3.53238C16.742 3.54149 16.7776 3.54915 16.8134 3.55528L15.9657 3.11771C15.9458 3.10006 15.9262 3.08203 15.9068 3.06363L15.8945 3.081L15.9657 3.11771C16.1874 3.31465 16.4399 3.46329 16.7038 3.53168L16.6889 3.53417C16.6864 3.53865 16.6841 3.54332 16.682 3.54814L16.6961 3.5519L16.7016 3.55687C16.6948 3.57235 16.6901 3.5897 16.6878 3.60765L16.7448 3.59608L16.7016 3.55687L16.703 3.55369C16.7153 3.55681 16.7275 3.55977 16.7398 3.56255L16.7065 3.53238ZM16.703 3.55369C16.7045 3.55058 16.706 3.54755 16.7076 3.54462L16.6911 3.54737L16.6961 3.5519L16.703 3.55369ZM16.7065 3.53238L16.7055 3.53141L16.7038 3.53168L16.7065 3.53238ZM16.6735 3.69053L16.6726 3.68755L16.5353 3.63861L16.4945 3.64689L16.1956 3.54035C16.1724 3.52638 16.1512 3.51146 16.1318 3.49548L16.1214 3.51391L16.1956 3.54035C16.2704 3.58539 16.3651 3.6206 16.4802 3.6498L16.4327 3.65945C16.507 3.68019 16.5904 3.69797 16.6829 3.714L16.6822 3.71244L16.6872 3.69292L16.6735 3.69053ZM16.547 3.66559L16.4945 3.64689L16.4802 3.6498C16.5018 3.65526 16.524 3.66052 16.547 3.66559ZM16.547 3.66559C16.587 3.67442 16.6292 3.68269 16.6735 3.69053C16.6759 3.69805 16.6788 3.70538 16.6822 3.71244L16.6818 3.71365L16.547 3.66559ZM16.6703 3.87519L16.6967 3.85782C16.4914 3.8224 16.3588 3.81372 16.2993 3.83991C16.264 3.85559 16.2405 3.87783 16.2302 3.90345C16.1843 3.88558 16.141 3.87062 16.0933 3.85593C16.0744 3.85011 16.0547 3.84428 16.032 3.83778C16.0453 3.8416 15.8869 3.79706 15.8334 3.78114L15.8334 3.78113L15.8274 3.80246C15.8809 3.81839 16.0398 3.86306 16.0263 3.85919C16.0488 3.86566 16.0684 3.87145 16.0872 3.87723C16.1034 3.88223 16.1191 3.88726 16.1346 3.89243L16.2246 3.92569L16.2484 3.95424C16.2551 3.97752 16.2737 4.0023 16.3054 4.02668L16.3137 4.03284L16.3551 4.08274C16.3627 4.08666 16.3706 4.09052 16.3788 4.09432L16.3784 4.09434L16.3794 4.09461L16.3809 4.09529C16.2966 4.12545 16.293 4.19714 16.37 4.25885L16.3679 4.25855L16.3588 4.26161C16.3561 4.26438 16.3535 4.26719 16.351 4.27003C16.3563 4.27456 16.3619 4.27904 16.3678 4.28344C16.3224 4.33588 16.3382 4.40282 16.4027 4.46095C16.6499 4.6846 17.2635 4.68466 17.8521 4.48798L17.8932 4.49373L17.8943 4.4963L17.9016 4.49371L17.8996 4.47291L17.8993 4.47287L17.9007 4.45369L17.8887 4.45067C17.8914 4.42933 17.9005 4.40468 17.9159 4.37607C17.9397 4.33219 17.9929 4.28506 18.062 4.24151C18.0816 4.23822 18.1002 4.23466 18.1177 4.23085L18.1181 4.20991L18.1167 4.20956L18.1132 4.2115L18.1132 4.20983C18.0983 4.21307 18.0827 4.21611 18.0663 4.21897L17.5729 4.09404C17.5901 4.09218 17.6071 4.0891 17.6238 4.08477L17.5744 4.07224C17.5439 4.07589 17.5128 4.07544 17.4823 4.0711L17.407 4.05205C17.4313 4.06106 17.4566 4.06745 17.4823 4.0711L17.5729 4.09404C17.4838 4.10369 17.3908 4.08064 17.3168 4.02921L17.2345 4.00837C17.2481 4.00484 17.2619 4.00095 17.276 3.99669L17.2345 3.98618C17.2192 3.99026 17.2044 3.99389 17.1899 3.99707L16.8171 3.90267C16.8152 3.89524 16.814 3.88755 16.8136 3.87963L16.8087 3.87838L16.8081 3.87825L16.7917 3.8751C16.7917 3.8827 16.7923 3.89012 16.7935 3.89734C16.7498 3.88899 16.7087 3.88159 16.6703 3.87519ZM16.3757 4.06919C16.3522 4.0576 16.3314 4.04548 16.3137 4.03284L16.2484 3.95424C16.2373 3.91576 16.2589 3.88136 16.308 3.85959C16.36 3.83667 16.483 3.84398 16.6703 3.87519L16.3757 4.06919ZM16.3858 4.07403L16.3836 4.07347L16.3776 4.07371C16.3695 4.07641 16.362 4.07943 16.3551 4.08274L16.3757 4.06919L16.3858 4.07403ZM16.3858 4.07403C16.507 4.13106 16.6952 4.17486 16.907 4.20466L16.3858 4.07403ZM17.0737 4.24643L16.907 4.20466C17.306 4.26079 17.789 4.26727 18.0663 4.21897L18.0895 4.22485C18.0801 4.23034 18.0709 4.23589 18.062 4.24151C17.82 4.28223 17.4312 4.28293 17.0737 4.24643ZM16.9024 4.22566C16.9581 4.23356 17.0155 4.24049 17.0737 4.24643L17.8887 4.45067L17.8883 4.45425C17.8702 4.4559 17.8512 4.4573 17.8314 4.45848L16.9024 4.22566ZM16.3814 4.09511L16.3844 4.0941L16.3788 4.09432L16.3794 4.09461L16.3814 4.09511ZM16.3814 4.09511L16.9024 4.22566C16.692 4.19585 16.5044 4.15217 16.3809 4.09529L16.3814 4.09511ZM17.8755 4.46955L17.8314 4.45848L17.8061 4.45983L16.37 4.25885C16.3818 4.26829 16.3955 4.27751 16.411 4.2863L16.3703 4.28061L16.374 4.27678L16.3649 4.27985L16.3703 4.28061L16.3678 4.28344C16.3924 4.30161 16.4229 4.31843 16.4592 4.33271C16.7092 4.4311 17.4014 4.50041 17.8051 4.4814L17.8521 4.48798L17.8874 4.47592L17.8885 4.47582C17.8893 4.48212 17.8909 4.48808 17.8932 4.49373L17.8966 4.49421L17.8947 4.47523L17.8991 4.47482L17.8993 4.47287L17.8957 4.47237L17.8971 4.45342L17.8883 4.45425C17.8877 4.46019 17.8876 4.46586 17.888 4.47129L17.8755 4.46955ZM17.8881 4.47271L17.8755 4.46955L17.8061 4.45983C17.7648 4.46181 17.7204 4.46285 17.6737 4.46302L16.411 4.2863C16.4276 4.29564 16.4462 4.30452 16.467 4.31269C16.6888 4.39996 17.2677 4.46449 17.6737 4.46302L17.8051 4.4814C17.8341 4.48004 17.8616 4.47822 17.8874 4.47592L17.8885 4.47555L17.8885 4.47582L17.8947 4.47523L17.8947 4.47434L17.8955 4.47455L17.8957 4.47237L17.888 4.47129L17.8881 4.47271ZM17.8931 4.47394L17.8947 4.47434L17.8946 4.47341L17.8931 4.47394ZM17.8931 4.47394L17.8881 4.47271L17.8885 4.47555L17.8931 4.47394ZM16.8038 3.89931L16.8171 3.90267C16.8399 3.99302 16.9716 4.04506 17.1899 3.99707L17.2345 4.00837C16.9738 4.0763 16.8124 4.01099 16.7935 3.89734L16.8038 3.89931ZM16.8038 3.89931L16.8041 3.89937L16.8035 3.89924L16.8038 3.89931ZM18.0895 4.22485C18.0972 4.22035 18.1051 4.21589 18.1132 4.2115L18.1129 4.23076L18.0895 4.22485ZM16.2247 3.92505C16.1942 3.91312 16.1649 3.90251 16.1346 3.89243L15.8334 3.78114L16.2299 3.90413C16.2273 3.91089 16.2255 3.91788 16.2247 3.92505ZM16.2247 3.92505L16.2323 3.92803L16.2392 3.907L16.2299 3.90413L16.2302 3.90345L16.2399 3.90726L16.233 3.92829L16.2246 3.92569L16.2247 3.92505ZM18.4075 4.12256L18.4068 4.12092L18.4127 4.11951L18.4146 4.12048L18.4075 4.12256ZM18.6765 4.28482C18.5378 4.2534 18.4397 4.19468 18.4075 4.12256C18.3882 4.12807 18.3682 4.13285 18.3477 4.13688C18.1645 4.19206 17.9824 4.29826 17.9348 4.38632C17.8853 4.47798 17.9064 4.5153 18.0056 4.54306C18.294 4.62419 18.6375 4.5505 18.8998 4.36658L18.9105 4.37202C18.9122 4.37517 18.9141 4.37828 18.9162 4.38133C18.8092 4.45699 18.6889 4.51461 18.564 4.55122L18.3172 4.57523L18.3094 4.57988C18.3059 4.58512 18.3026 4.59056 18.2996 4.59617L18.3223 4.59486L18.3193 4.59663L18.3244 4.59613C18.2665 4.68773 18.2973 4.84422 18.4324 4.86137C18.4445 4.8629 18.4569 4.86408 18.4695 4.86492L18.4291 4.88262L18.4297 4.8827L18.438 4.88369C18.3446 4.93421 18.243 4.98491 18.1426 5.03166L17.9109 5.13323C17.8039 5.17694 17.7086 5.21098 17.6393 5.22894L17.6463 5.2492L17.9109 5.13323C17.9842 5.10324 18.0631 5.06869 18.1426 5.03166L18.4733 4.88671L18.4769 4.88691L18.4927 4.87817L18.4866 4.86586C18.568 4.86932 18.6581 4.85934 18.7507 4.83898C18.746 4.84724 18.7417 4.85549 18.7377 4.86372L18.7648 4.85785C18.6805 5.01377 18.74 5.1583 18.9187 5.17981C18.9392 5.18229 18.961 5.18283 18.9838 5.18151L18.9378 5.20307L18.9459 5.20345L18.8832 5.24065C18.8511 5.25979 18.8168 5.28021 18.7885 5.2968L18.4945 5.43464C18.4546 5.44802 18.4147 5.45902 18.3742 5.46762L18.3809 5.48788L18.4945 5.43464C18.5761 5.40726 18.6576 5.3699 18.7433 5.32271C18.7545 5.31655 18.7703 5.30747 18.7885 5.2968L18.9892 5.20268L18.9901 5.20262L18.9949 5.20001L18.9857 5.1814C19.057 5.17695 19.1382 5.15436 19.2244 5.11565C19.2165 5.12699 19.2092 5.13788 19.2026 5.14835C19.2145 5.14345 19.2266 5.13823 19.2387 5.1327C19.1611 5.24539 19.1501 5.30491 19.1964 5.36433C19.2212 5.3962 19.2573 5.40202 19.3208 5.38075L19.2467 5.41529L19.2548 5.41564C19.1162 5.48453 18.9657 5.55334 18.8507 5.59978L18.8592 5.61951L19.327 5.40159L19.3377 5.39781L19.3619 5.38532L19.3536 5.3684C19.39 5.3534 19.4338 5.33158 19.4872 5.30281C19.5376 5.27571 19.5973 5.237 19.6659 5.18781C19.6899 5.17062 19.7148 5.15226 19.7409 5.13261L19.7461 5.12867C19.7417 5.14081 19.7379 5.15262 19.7347 5.16409L19.7538 5.1498L19.7641 5.14193C19.7164 5.27735 19.7566 5.36203 19.8584 5.39976C19.979 5.44478 20.0993 5.43323 20.2074 5.33524L20.2223 5.34177L20.2192 5.32419L20.2074 5.33524L19.7645 5.14168L19.7841 5.12679L19.7624 5.11732L19.7594 5.11857C19.7876 5.09713 19.8168 5.07448 19.8491 5.049L19.9057 5.00422L19.9483 4.99633L19.9397 4.97731L19.9057 5.00422L19.614 5.05829L19.6516 5.02945L19.6339 5.03273C19.7157 4.97125 19.7988 4.91127 19.8558 4.87288L19.8433 4.85541L19.6051 5.03807L19.5867 5.04149L19.5489 5.07035L19.2559 5.12466C19.2778 5.11424 19.3 5.10284 19.3223 5.09049L19.2495 5.10398C19.4147 5.02471 19.596 4.88817 19.7594 4.70809L19.7886 4.70393L19.7791 4.68615L19.7594 4.70809L19.3565 4.76562L19.3992 4.7378L19.3556 4.74403L19.6813 4.55132L19.6701 4.53294C19.6362 4.55426 19.6006 4.57752 19.556 4.60725L19.4389 4.68574C19.4071 4.70695 19.3772 4.72665 19.3488 4.74499L19.3 4.75197L19.2516 4.7806L18.8354 4.84001C18.8764 4.82864 18.9175 4.81547 18.9582 4.80075L18.8311 4.81891C19.0683 4.75279 19.3104 4.62561 19.457 4.48708C19.4687 4.48574 19.4804 4.48425 19.4923 4.48261L19.4951 4.47973L19.4876 4.46395C19.5262 4.45857 19.5658 4.45153 19.6062 4.44274L19.6534 4.45193L19.6561 4.45126L19.6556 4.43116C19.639 4.43532 19.6226 4.43917 19.6062 4.44274L18.9241 4.30972C18.9549 4.30955 18.9865 4.30829 19.0188 4.30588L18.9269 4.28823C18.9797 4.28779 19.0351 4.28413 19.0925 4.2768L19.1398 4.2907L19.1411 4.26976C19.1248 4.2724 19.1085 4.27475 19.0925 4.2768L18.4179 4.07888C18.4175 4.07428 18.4174 4.06965 18.4176 4.06499L18.4039 4.07479L18.4179 4.07888C18.4184 4.08522 18.4195 4.09148 18.4212 4.09767L18.4229 4.0985L18.4228 4.1005L18.4219 4.10006L18.4226 4.10239L18.4214 4.11844L18.4146 4.12048L18.4365 4.13156C18.4759 4.19349 18.5742 4.24414 18.7092 4.26989L18.7707 4.30109C18.7531 4.29892 18.7359 4.29635 18.7192 4.2934L18.7112 4.2734L18.6765 4.28482ZM18.6857 4.28685L18.6765 4.28482L18.241 4.42807L18.2455 4.44969C18.4425 4.42471 18.5549 4.38268 18.7194 4.29385L18.7192 4.2934L18.7171 4.29302L18.7095 4.27411L18.6857 4.28685ZM18.5679 4.34383L18.7177 4.29456L18.7171 4.29302C18.7064 4.29112 18.6959 4.28905 18.6857 4.28685C18.6441 4.30879 18.6056 4.3276 18.5679 4.34383ZM18.3916 4.40181C18.4547 4.38717 18.5105 4.36849 18.5679 4.34383L18.3916 4.40181ZM18.3916 4.40181C18.3468 4.41222 18.2983 4.42059 18.2429 4.4276L18.2475 4.44922L18.3916 4.40181ZM18.8294 4.30674C18.8093 4.30534 18.7897 4.30344 18.7707 4.30109L18.8998 4.36658L18.9059 4.36224C18.9073 4.36555 18.9088 4.36881 18.9105 4.37202L18.9157 4.37462L18.9142 4.35631L18.9059 4.36224C18.9033 4.35591 18.9014 4.34939 18.9002 4.34269L18.9253 4.35543L18.9268 4.37374L18.9162 4.38133C18.9428 4.42091 18.9987 4.45188 19.0753 4.47169L18.9916 4.50964L18.564 4.55122C18.4855 4.57424 18.4052 4.58896 18.3254 4.59465L18.3271 4.59197L18.3223 4.59486L18.3254 4.59465L18.3244 4.59613L18.9309 4.53714L18.5652 4.70292L18.5728 4.72298C18.7195 4.67669 18.8811 4.60478 19.0237 4.52811L19.3682 4.49461C19.3971 4.49306 19.4267 4.49057 19.457 4.48708L19.4583 4.48584L19.4885 4.48291L19.4799 4.46499L19.4876 4.46395L19.4864 4.46151L19.3229 4.47741C19.0742 4.4826 18.9023 4.41258 18.922 4.30973L18.9241 4.30972L18.922 4.30932C18.9227 4.30621 18.9234 4.30307 18.9244 4.2999L18.9121 4.30739L18.922 4.30932L18.922 4.30973L18.9001 4.30964C18.901 4.30436 18.9022 4.299 18.9039 4.29355L18.9127 4.28827L18.9269 4.28823L18.9162 4.28616L18.9127 4.28827C18.8651 4.28814 18.8198 4.28539 18.7773 4.28035L18.4228 4.1005L18.4226 4.10239C18.4258 4.11234 18.4304 4.12208 18.4365 4.13156L18.7092 4.26989C18.731 4.27404 18.7537 4.27755 18.7773 4.28035L18.8294 4.30674ZM18.8294 4.30674C18.8523 4.30836 18.876 4.30934 18.9001 4.30964C18.8983 4.32108 18.8984 4.33211 18.9002 4.34269L18.8294 4.30674ZM19.4794 4.46506L19.4798 4.46469L19.4799 4.46499L19.4794 4.46506ZM19.4794 4.46506C19.4248 4.47237 19.3723 4.47638 19.3229 4.47741L19.1847 4.49085C19.1585 4.48809 19.1336 4.48435 19.1103 4.47968L19.1128 4.47823L19.103 4.45914L19.0753 4.47169L19.0793 4.47273C19.0592 4.48425 19.0385 4.49574 19.0174 4.50712L18.9916 4.50964L18.9309 4.53714L18.9671 4.53362C18.8376 4.60036 18.696 4.66157 18.5664 4.70247L18.574 4.72252L18.9972 4.5307L19.0237 4.52811C19.0399 4.51941 19.0559 4.51065 19.0715 4.50186L19.1847 4.49085C19.2404 4.49671 19.3022 4.49814 19.3682 4.49461L19.4583 4.48584C19.4656 4.47894 19.4726 4.47201 19.4794 4.46506ZM19.0578 4.50319L19.0715 4.50186C19.0847 4.49448 19.0976 4.48709 19.1103 4.47968L19.1099 4.4796L19.1118 4.47874L19.102 4.45965L19.0793 4.47273C19.0892 4.47521 19.0994 4.4775 19.1099 4.4796L19.0578 4.50319ZM19.0578 4.50319L19.0174 4.50712C19.0009 4.51603 18.9841 4.52487 18.9671 4.53362L18.9972 4.5307L19.0578 4.50319ZM18.7694 4.84943L18.7648 4.85785C18.7882 4.85253 18.8118 4.84657 18.8354 4.84001L18.7694 4.84943ZM18.7694 4.84943L18.772 4.84499L18.7643 4.85016L18.7694 4.84943ZM19.305 4.77297L19.2516 4.7806L18.9699 4.94725L18.9791 4.96658C19.0954 4.92291 19.2043 4.86377 19.3565 4.76562L19.3072 4.77266L19.3556 4.74403L19.3488 4.74499L19.305 4.77297ZM19.2753 4.79152L19.305 4.77297L19.3072 4.77266L19.2753 4.79152ZM19.2753 4.79152C19.2416 4.81232 19.21 4.83105 19.1798 4.84804L19.2753 4.79152ZM19.1798 4.84804C19.1057 4.88964 19.0399 4.9208 18.9716 4.94644L18.9808 4.96577L19.1798 4.84804ZM19.2425 5.12714L19.2387 5.1327L19.2559 5.12466L19.2425 5.12714ZM19.2425 5.12714L19.245 5.12356L19.2382 5.12794L19.2425 5.12714ZM19.5675 5.06692L19.5489 5.07035C19.4639 5.13581 19.3895 5.19622 19.3591 5.22677L19.3732 5.2429L19.614 5.05829L19.5956 5.06171L19.6339 5.03273L19.6051 5.03807L19.5675 5.06692ZM19.5675 5.06692L19.3602 5.22581L19.3743 5.24194C19.4079 5.20813 19.4977 5.13614 19.5956 5.06171L19.5675 5.06692ZM19.7642 5.14158L19.7641 5.14193L19.7645 5.14168L19.7642 5.14158ZM19.7642 5.14158L19.7681 5.131L19.7538 5.13703L19.7642 5.14158ZM19.7594 5.11857L19.7461 5.12867L19.7481 5.12335L19.7594 5.11857ZM19.3532 5.36858L19.3536 5.3684L19.3525 5.36602L19.3208 5.38075L19.3304 5.37741C19.3058 5.39007 19.2805 5.40286 19.2548 5.41564C19.2751 5.41584 19.2988 5.41113 19.327 5.40159L19.3615 5.38553L19.3532 5.36858ZM19.3532 5.36858L19.352 5.36623L19.3304 5.37741C19.3377 5.3748 19.3452 5.37185 19.3532 5.36858ZM19.2495 5.10398C19.2411 5.10802 19.2327 5.11191 19.2244 5.11565L19.2275 5.11118L19.2343 5.10679L19.2495 5.10398ZM18.9852 5.18143L18.9945 5.20023L18.9892 5.20268C18.9744 5.20369 18.9599 5.20395 18.9459 5.20345C18.9634 5.1931 18.9771 5.18519 18.9839 5.1815L18.9852 5.18143ZM18.9852 5.18143L18.9857 5.1814L18.9854 5.18075L18.9838 5.18151L18.9839 5.1815L18.985 5.18096L18.9852 5.18143ZM18.8311 4.81891C18.8042 4.82641 18.7773 4.83312 18.7507 4.83898L18.7536 4.83405L18.7613 4.82887L18.8311 4.81891ZM18.4854 4.8658L18.4918 4.87862L18.4733 4.88671C18.4613 4.886 18.4495 4.88499 18.438 4.88369L18.472 4.86506L18.4854 4.8658ZM18.4854 4.8658L18.4866 4.86586L18.4832 4.85891L18.4695 4.86492L18.472 4.86506L18.4823 4.85936L18.4854 4.8658ZM18.4127 4.11951L18.4093 4.11776L18.4165 4.11865L18.4127 4.11951ZM18.4036 4.113C18.4024 4.10945 18.4012 4.10587 18.4003 4.10226L18.4146 4.09803L18.4151 4.09809L18.4135 4.11783L18.4036 4.113ZM20.2335 5.34018L20.2341 5.33963L20.2339 5.33858L20.1403 5.40891C20.1703 5.39314 20.1996 5.37216 20.228 5.34547C20.153 5.43083 19.941 5.58708 19.7622 5.69323L19.7741 5.71109L20.2476 5.35514L20.2335 5.34018ZM20.2335 5.34018L20.228 5.34547L20.233 5.33962L20.2335 5.34018ZM19.845 5.41766L19.8467 5.41832L19.8524 5.4126L19.8391 5.39595L19.8217 5.40707L19.8254 5.40899C19.7883 5.44434 19.7365 5.48452 19.6775 5.52443L19.5911 5.57945C19.5228 5.62055 19.45 5.65865 19.3818 5.68759L19.3917 5.70657L19.5911 5.57945C19.621 5.56151 19.65 5.543 19.6775 5.52443L19.845 5.41766ZM19.845 5.41766L19.8506 5.4141L19.8372 5.39745L19.8254 5.40899C19.8317 5.41209 19.8382 5.41498 19.845 5.41766ZM19.7385 5.32309L19.7393 5.32478L19.7503 5.31578L19.738 5.29828L19.7309 5.3026L19.7312 5.3037C19.6712 5.35259 19.5814 5.41556 19.4846 5.4772L19.3347 5.56823C19.2459 5.61935 19.161 5.66293 19.0972 5.68746L19.1066 5.7067L19.3347 5.56823C19.3844 5.53958 19.4354 5.50856 19.4846 5.4772L19.7385 5.32309ZM19.7385 5.32309C19.7357 5.31686 19.7333 5.3104 19.7312 5.3037L19.7367 5.29917L19.7491 5.31668L19.7385 5.32309ZM19.148 5.30552L19.1481 5.30652L19.1643 5.29739L19.1542 5.27841L19.1477 5.28166L19.1477 5.28211C18.9752 5.37997 18.6728 5.53472 18.5709 5.57035L18.5792 5.59013L19.148 5.30552ZM19.148 5.30552C19.1472 5.29791 19.1471 5.29013 19.1477 5.28211L19.1537 5.27869L19.1637 5.29766L19.148 5.30552ZM18.7696 5.14061L18.7704 5.14128L18.7782 5.13621L18.7676 5.11757L18.7537 5.12457L18.7548 5.12579C18.6843 5.17143 18.6301 5.20574 18.5747 5.23896L18.1786 5.43878C18.1375 5.45385 18.0996 5.46517 18.0649 5.47244L18.0719 5.49257L18.1786 5.43878C18.2242 5.42201 18.2737 5.40059 18.3265 5.37494C18.3818 5.3481 18.4399 5.31706 18.5006 5.28235C18.5264 5.26753 18.5507 5.25335 18.5747 5.23896L18.7696 5.14061ZM18.7696 5.14061C18.7644 5.13588 18.7594 5.13094 18.7548 5.12579L18.7666 5.11814L18.7772 5.13678L18.7696 5.14061ZM18.7058 4.9919L18.7058 4.99368L18.7199 4.98518L18.7099 4.96621L18.7071 4.96755L18.707 4.96788C18.6319 5.01295 18.563 5.05322 18.4984 5.08922L18.0961 5.27797C18.0486 5.29475 18.0014 5.30913 17.9532 5.32149L17.9604 5.34165L18.0961 5.27797C18.2211 5.23383 18.3478 5.17312 18.4984 5.08922L18.7058 4.9919ZM18.7058 4.9919L18.719 4.98569L18.7089 4.96672L18.707 4.96788C18.7062 4.976 18.7058 4.98401 18.7058 4.9919ZM18.2956 4.78886L18.2958 4.7894L18.3034 4.78604L18.2955 4.76607L18.2872 4.76902L18.2874 4.76962C18.0968 4.85372 17.758 4.97222 17.4989 5.04856L17.5055 5.06901L18.2956 4.78886ZM18.2956 4.78886C18.2925 4.78261 18.2898 4.77619 18.2874 4.76962L18.2947 4.76638L18.3026 4.78635L18.2956 4.78886ZM18.1082 4.58691L18.109 4.58701L18.1116 4.58527L18.1015 4.56642L18.0695 4.58026L18.0777 4.58181C18.0451 4.60285 18.0111 4.62371 17.976 4.64409L17.4281 4.88103C17.3926 4.89018 17.3585 4.89727 17.3264 4.902L17.3322 4.92251L17.4281 4.88103C17.5979 4.83727 17.7998 4.74658 17.976 4.64409L18.1082 4.58691ZM18.1082 4.58691C18.098 4.58538 18.0878 4.58368 18.0777 4.58181L18.0998 4.56732L18.1099 4.58617L18.1082 4.58691ZM16.3256 4.38469L16.3263 4.38702L16.3367 4.38534L16.3361 4.36331C16.3314 4.3628 16.3263 4.36246 16.321 4.36229L16.3214 4.36528L16.1619 4.39108L16.1676 4.41236C16.2115 4.39397 16.2808 4.38209 16.3256 4.38469ZM16.3256 4.38469C16.3237 4.37822 16.3223 4.37174 16.3214 4.36528L16.3334 4.36335L16.3339 4.38538L16.3256 4.38469ZM16.3055 4.21465L16.3062 4.21586L16.3125 4.21642L16.3163 4.19536L16.2959 4.18958L16.2969 4.19341C16.2602 4.18998 16.2244 4.18613 16.1897 4.18184L15.5655 4.00504C15.5406 3.99168 15.5165 3.97757 15.493 3.96265L15.4844 3.98208L15.5655 4.00504C15.7325 4.09476 15.9337 4.15023 16.1897 4.18184L16.3055 4.21465ZM16.3055 4.21465C16.3019 4.20755 16.299 4.20045 16.2969 4.19341L16.3144 4.195L16.3105 4.21606L16.3055 4.21465ZM17.6098 3.77066L17.6161 3.77554L17.6254 3.75661C17.6199 3.75516 17.6143 3.75341 17.6085 3.75136C17.6087 3.7578 17.6092 3.76424 17.6098 3.77066ZM20.2422 5.50095C20.198 5.56034 20.0867 5.69195 20.0158 5.76828L20.0318 5.78257L20.259 5.51435L20.2422 5.50095ZM20.2426 5.50043L20.2594 5.51383C20.2147 5.57389 20.1028 5.70608 20.0315 5.78294L20.0155 5.76864L20.2426 5.50043Z" fill="#111928"/>
<path fill-rule="evenodd" clip-rule="evenodd" d="M20.1588 3.51904C20.1161 3.6268 20.0923 3.85482 20.105 3.94381C20.1074 3.96087 20.1071 3.96518 20.0996 4.03677C20.0859 4.16733 20.0913 4.26635 20.1344 4.39425L20.1547 4.38735C20.1127 4.26286 20.1075 4.16676 20.1209 4.03902C20.1287 3.96419 20.129 3.96057 20.1262 3.94078C20.114 3.85539 20.1374 3.63116 20.1787 3.52699L20.1588 3.51904ZM19.8296 4.09412C19.8237 4.01318 19.832 3.90779 19.854 3.8321L19.8746 3.83811C19.8534 3.91114 19.8452 4.01401 19.851 4.09255L19.8296 4.09412ZM19.8443 4.22748C19.8267 4.30252 19.8397 4.47714 19.8637 4.57371L19.8845 4.5685C19.8612 4.47496 19.8485 4.30352 19.8651 4.2324L19.8443 4.22748ZM19.9201 4.80503C19.9101 4.7892 19.9026 4.77428 19.8977 4.76027L19.9179 4.75276C19.9221 4.76498 19.9289 4.77841 19.938 4.7929C19.9494 4.81105 19.9641 4.83038 19.9819 4.85104C19.9965 4.86812 20.0085 4.88096 20.0313 4.90477L20.0161 4.92044C19.993 4.89635 19.9809 4.88329 19.9659 4.86581C19.9475 4.84439 19.9321 4.82423 19.9201 4.80503ZM20.0034 4.35589C19.9936 4.48064 20.0621 4.71741 20.1317 4.79769C20.1469 4.93048 20.239 5.12055 20.3689 5.25155L20.3841 5.23638C20.2575 5.10876 20.1676 4.92306 20.1504 4.78925C20.0822 4.70788 20.0154 4.47683 20.0248 4.35759L20.0034 4.35589ZM19.9745 4.21682C19.9635 4.13798 19.9608 4.05892 19.9698 4.00869L19.9909 4.01249C19.9824 4.06001 19.985 4.13705 19.9958 4.21382L19.9745 4.21682ZM20.3083 4.34519C20.2626 4.19164 20.2609 3.82293 20.3082 3.62783L20.329 3.63291C20.2826 3.82444 20.2843 4.1893 20.3288 4.33904L20.3083 4.34519ZM20.25 4.40305C20.2242 4.51759 20.2269 4.65019 20.2601 4.74999L20.2804 4.74319C20.2486 4.64734 20.2459 4.51869 20.2709 4.4078L20.25 4.40305ZM20.6391 4.22732C20.5106 4.08387 20.4328 3.86998 20.4381 3.70298L20.4596 3.70366C20.4544 3.86512 20.5302 4.07362 20.655 4.21295L20.6391 4.22732ZM20.4044 4.23889C20.3896 4.42418 20.4002 4.59438 20.4339 4.69163C20.4426 4.71672 20.4487 4.74722 20.4573 4.80309L20.4657 4.85751C20.469 4.87894 20.4721 4.89699 20.4754 4.91428C20.4916 4.99865 20.5129 5.06074 20.5466 5.10874L20.5641 5.09635C20.5325 5.05138 20.5121 4.99186 20.4965 4.91022C20.4932 4.89319 20.4902 4.87536 20.4868 4.85414L20.4785 4.79981C20.4697 4.74265 20.4634 4.71131 20.4542 4.68456C20.4216 4.59069 20.4112 4.42319 20.4258 4.24061L20.4044 4.23889ZM20.577 4.54102L20.569 4.51055L20.5897 4.50503L20.5977 4.53562C20.6089 4.57873 20.6154 4.61122 20.6185 4.64367C20.6229 4.69051 20.6187 4.73093 20.6037 4.7655L20.5841 4.75692C20.5974 4.72612 20.6012 4.6892 20.5972 4.64569C20.5942 4.61462 20.5879 4.5831 20.577 4.54102ZM20.6947 4.36951C20.7304 4.48663 20.7525 4.62992 20.7474 4.6922L20.7688 4.69396C20.7742 4.62856 20.7516 4.48273 20.7152 4.36323L20.6947 4.36951ZM20.8455 5.31742C20.8014 5.23981 20.7614 5.11584 20.7522 5.01578L20.7736 5.01382C20.7824 5.11076 20.8215 5.23177 20.8641 5.30676L20.8455 5.31742ZM20.5933 5.31067C20.6338 5.43264 20.7032 5.55856 20.7661 5.6082L20.7793 5.5913C20.7206 5.54489 20.6529 5.4222 20.6137 5.30388L20.5933 5.31067ZM21.1877 5.65199C21.1447 5.52204 21.1166 5.4589 21.0488 5.36233L21.0664 5.34994C21.1356 5.44858 21.1645 5.51344 21.208 5.64523L21.1877 5.65199Z" fill="#111928"/>
<path fill-rule="evenodd" clip-rule="evenodd" d="M20.2643 5.39126C20.2776 5.39269 20.286 5.39322 20.3089 5.39437C20.3623 5.39704 20.3811 5.40248 20.4051 5.42794C20.421 5.44473 20.4367 5.47011 20.4537 5.50705C20.513 5.636 20.6751 5.83315 20.7698 5.89457L20.7697 5.89462C20.8951 6.11539 20.9509 6.4068 20.9119 6.56321C20.9008 6.4944 20.8618 6.44145 20.8017 6.39808C20.7783 6.38122 20.7634 6.37265 20.7228 6.35103C20.6692 6.39798 20.5909 6.45202 20.5514 6.46046L20.5558 6.48149C20.6004 6.47196 20.6822 6.4155 20.7257 6.36778C20.7455 6.38506 20.7585 6.39409 20.7729 6.40411L20.7892 6.41554C20.8451 6.45592 20.8808 6.50437 20.8908 6.56697L20.9119 6.56356L20.9104 6.56898L20.9311 6.5746C20.9728 6.42029 20.9224 6.13659 20.8039 5.9124C20.95 5.97967 21.0433 6.05549 21.0616 6.16243L21.0819 6.165L21.0924 6.14146C21.1411 6.03173 21.1596 5.95632 21.1411 5.87845L21.1429 5.88066L21.1601 5.90131C21.2138 5.96603 21.2533 6.01366 21.2826 6.04966L21.2806 6.04995C21.2835 6.07043 21.2862 6.10162 21.2894 6.14919C21.29 6.15767 21.2916 6.18226 21.2933 6.2102C21.2957 6.24818 21.2985 6.29235 21.2998 6.31074C21.3075 6.42372 21.3152 6.49898 21.3257 6.54807L21.3466 6.54356C21.3364 6.49582 21.3288 6.4212 21.3212 6.30928C21.3199 6.29096 21.3171 6.24692 21.3147 6.20898C21.313 6.18096 21.3114 6.15627 21.3108 6.14773C21.3089 6.11897 21.3071 6.09611 21.3054 6.07786C21.3511 6.13515 21.363 6.15521 21.3692 6.1769C21.371 6.18341 21.3724 6.19006 21.3739 6.19791L21.3739 6.19791L21.3739 6.19791L21.3757 6.20669C21.3936 6.29219 21.4623 6.40945 21.5312 6.48479L21.547 6.47024C21.4805 6.39752 21.4137 6.28351 21.3967 6.20227L21.3944 6.19101C21.3927 6.1825 21.3913 6.17534 21.3893 6.16834C21.3786 6.13093 21.3515 6.09824 21.1793 5.89082L21.1793 5.89082L21.1792 5.89082L21.1792 5.89082L21.1792 5.89082L21.1594 5.8669C21.1448 5.84927 21.1316 5.83312 21.1191 5.81753L21.101 5.82876C21.1436 5.9217 21.1316 5.99895 21.0752 6.1274C21.0434 6.02496 20.9458 5.95253 20.8012 5.88757C20.7177 5.85012 20.5355 5.6337 20.4731 5.49804C20.4553 5.45915 20.4384 5.43189 20.4207 5.41315C20.3918 5.3826 20.3684 5.37581 20.31 5.37289C20.2874 5.37176 20.2794 5.37124 20.2666 5.36987L20.2643 5.39126ZM21.3054 6.07786C21.3042 6.06561 21.3031 6.05543 21.3019 6.04693L21.2826 6.04966C21.291 6.05997 21.2986 6.06933 21.3054 6.07786ZM20.9119 6.56356L20.912 6.56354L20.9119 6.56321L20.9119 6.56356ZM20.8039 5.9124L20.7925 5.9072C20.7855 5.90406 20.7779 5.89981 20.7698 5.89457L20.7883 5.88397C20.7936 5.89333 20.7988 5.90281 20.8039 5.9124ZM20.4145 5.7172C20.4521 5.83067 20.4819 5.96691 20.4849 6.04576L20.5064 6.04492C20.5032 5.96374 20.473 5.82565 20.4348 5.71042L20.4145 5.7172ZM20.7393 6.27662C20.736 6.21297 20.6961 6.0463 20.6563 5.93526L20.6765 5.92798C20.7169 6.04083 20.7573 6.20942 20.7607 6.27548L20.7393 6.27662ZM21.1137 6.23785C21.1448 6.31306 21.1645 6.43178 21.1582 6.50254L21.1795 6.50444C21.1861 6.43014 21.1659 6.30794 21.1335 6.2296L21.1137 6.23785Z" fill="#111928"/>
</g>
</svg>
